<?xml version="1.0" encoding="utf-8"?>
<!-- Generator: Adobe Illustrator 22.1.0, SVG Export Plug-In . SVG Version: 6.00 Build 0)  -->
<svg version="1.1" id="Layer_1" xmlns="http://www.w3.org/2000/svg" xmlns:xlink="http://www.w3.org/1999/xlink" x="0px" y="0px"
	 viewBox="0 0 50 50" style="enable-background:new 0 0 50 50;" xml:space="preserve">
<style type="text/css">
	.st0{fill:#CACCCE;}
	.st1{fill:#231F20;}
	.st2{fill:none;}
	.st3{fill:#FFFFFF;}
	.st4{fill:#FFD300;}
	.st5{fill:#EC1C24;}
	.st6{fill:#00793A;}
</style>
<title>abarth</title>
<path class="st0" d="M25,0.4c-2.3,0-4.7,0.2-7,0.6c-3.2,0.6-5.2,0.1-6.3-0.5C9.1,1.6,6,2.8,6,2.8C5.9,4.1,5.4,5.3,4.6,6.3
	c-1.4,1.8-2.3,3-2.3,3s3.2,2.8,2.9,4.1S0.9,27.3,4.3,34.2S12.9,45,19.4,46.3c2.2,0.5,4.1,1.6,5.6,3.2c1.5-1.6,3.4-2.8,5.6-3.2
	c6.6-1.3,11.8-5.2,15.2-12.1s-0.6-19.5-0.9-20.8s2.9-4.1,2.9-4.1s-0.9-1.3-2.3-3c-0.8-1-1.3-2.2-1.4-3.5c0,0-3-1.3-5.7-2.3
	c-1.1,0.6-3,1.1-6.3,0.5C29.7,0.6,27.3,0.4,25,0.4z"/>
<path class="st1" d="M4.3,8.8c1.2-1.5,2.4-2.9,2.8-4.9c1-0.4,2.8-1.2,4.6-1.9c2.1,0.7,4.4,0.9,6.5,0.4c2.2-0.4,4.5-0.5,6.8-0.5
	c3.9-0.1,10.1,1.6,13.4,0.1c1.8,0.7,3.7,1.5,4.7,1.9c0.3,2.1,1.5,3.4,2.8,5L4.3,8.8z"/>
<polygon class="st2" points="21.4,5.9 23.1,5.9 22.3,4.3 "/>
<polygon class="st2" points="9.5,6.3 11.2,6.2 10.4,4.9 "/>
<path class="st2" d="M29,4.4h-2.1v1.2H29c0.7,0,0.6-0.3,0.6-0.5S29.7,4.4,29,4.4z"/>
<path class="st3" d="M41.3,4.6v1.3l-3-0.3V4l-3.5-0.4C32.6,3.4,31,3.4,31,3.4V4c0,0-0.1-0.5-1-0.6s-4.5-0.2-4.5-0.2v4.2l-2.2-4.3
	h-1.9l-2.1,3.8V6.1c0-0.5-0.7-0.5-0.7-0.5s-0.1-0.1,0-0.1C19,5.4,19.3,5,19.2,4.6c0-0.7-0.1-1.2-1.1-1.2s-4.5,0.3-4.5,0.3v3.8
	L11.4,4L9.5,4.2L7,7.7h1.6L9,7.1h2.8l0.4,0.6h6c0.3,0,0.5-0.1,0.8-0.3v0.3h1.5L20.8,7h2.8L24,7.7h2.8v-1H29c0.7,0,0.5,0.4,0.5,0.4
	v0.6h1.4v-1c0-0.4-0.7-0.4-0.7-0.4s-0.1-0.1,0-0.1S31,6.1,31,4.9V4.6h1.8v3.1h1.4V4.8c0.4,0,0.9,0,1.3,0c0.9,0.1,1.3,0.1,1.3,0.1
	v2.8h1.3V6.5L40,6.6h1.4v1.1h1.3V4.8L41.3,4.6z M9.5,6.3l0.9-1.4l0.9,1.3L9.5,6.3z M15,4.5c0,0,2-0.1,2.5-0.1s0.3,0.7,0,0.7H15V4.5z
	 M17.6,6.7H15V6.1L17.5,6c0.2,0,0.4,0.1,0.4,0.3c0,0,0,0,0,0C18,6.5,17.9,6.7,17.6,6.7C17.7,6.7,17.7,6.7,17.6,6.7L17.6,6.7z
	 M21.4,6l0.9-1.7L23.1,6H21.4z M29.1,5.6h-2.2V4.3H29c0.7,0,0.6,0.4,0.6,0.7S29.7,5.5,29.1,5.6L29.1,5.6z"/>
<path class="st4" d="M45.2,10.6c-0.9,1-1.7,2.2-1.4,3.4s0.7,2.5,1,3.9l-4.9,2.2l0,0l-6.6-7.7c0,0-0.1-0.1-0.2-0.1l-10.2,1
	c-0.2,0-0.3,0.2,0,0.4l6.4,2.9L26.1,18c-0.2,0.1-0.2,0.3,0,0.3l6.3,0.9h0.1l2.2-1.9l1.2,2.4l-7.5,1.9c-0.1,0-0.1,0.1-0.1,0.2
	c0,0,0.4,2.1,0.6,3l-2.3-2.6c-0.3-0.4-1.4,1.2-1.6,1.5l-2.2,0.1c-0.1,0-0.2,0.1-0.2,0.2c0,0,0,0,0,0l0,0l0.5,3.2L21.5,25
	c-0.1-0.1-0.2-0.1-0.2,0c0,0,0,0,0,0l-6.4,4.5L13.7,27l2.8-0.4c0,0,0.1,0,0.1-0.1l3.4-5.4c0.1-0.2,0-0.4-0.2-0.3l-3.1,1.6l2.1-6.8
	c0.1-0.2-0.1-0.3-0.3-0.2l-7.3,6.9c0,0-0.1,0.1-0.1,0.2l1.5,9.9l0,0l-6.5,3c-0.3-0.5-0.6-1-0.8-1.5c-2.7-5.4-0.5-14.4,1-20
	c0.3-1.1-0.5-2.4-1.4-3.4L45.2,10.6z"/>
<path class="st5" d="M44.9,18.3c1.2,5.2,2,11.5-0.1,15.7c-3.2,6.6-8.2,10.3-14.4,11.5c-2,0.4-3.9,1.4-5.4,2.8
	c-1.5-1.4-3.4-2.3-5.4-2.8C13.9,44.4,9,40.8,6.3,35.8l16.6-7.6l-1.6,2.2h-0.6c-0.2,0-0.3,0.2-0.1,0.3l1.3,0.8c0.1,0.1,0.2,0.1,0.2,0
	l2-2.1l0.4,0.5l-1.9,2.1c-0.1,0-1.2,0-0.7,0.4l1.2,0.8c0.1,0,0.2,0,0.2,0l2.1-2.1l0.4,0.5l-1.9,2.1h-0.6c-0.8,0,1,1.5,1.3,1.2
	l2.1-2.2l0.4,0.5l-1.7,2h-0.8c-0.2,0-0.3,0.2-0.1,0.3l1.2,0.8c0.1,0.1,0.2,0.1,0.2,0l2-2c0,0.1,0.1,0.1,0.1,0.2v0.1l-0.1,3.1V38
	c-0.1,0-0.1,0-0.2,0l-1.9,2.2c0,0.1,0,0.1,0,0.2v0.1c0,0-0.1,0-0.1,0L23,41.3c0,0-0.1,0.1-0.1,0.1v0.1c0-0.1,0-0.1-0.1-0.2l-3.4-2.2
	c-0.1,0-0.3,0-0.4,0l0.2-0.1c0.1,0,0.1-0.1,0.1-0.2L18.7,33c0-0.2-0.3-0.3-0.4,0l-2.3,7c-0.1,0.2,0.1,0.3,0.2,0.2l2.2-0.8
	c-0.3,0.2-0.5,0.4-0.4,0.5c1.3,1.2,5.1,5,4.8,3.7v-0.1c0.1,0.1,0.2,0.2,0.3,0.2l4.2-0.8c0.2,0,0.2-0.2,0.1-0.3h0.1
	c0.1,0.1,0.2,0.1,0.2,0l3.6-3.9c0.1-0.1,0.1-0.2,0-0.3c0.1,0,0.1-0.1,0.1-0.2l0.1-4.6c0-0.2-0.1-0.2-0.2-0.2l0.1-0.1
	c0.2-0.1,0-0.6,0-0.6l2.9-0.1c0.4,0,0.3-1.5,0.3-1.6s-0.2-0.3-0.3-0.1l-0.5,0.4l-2.8,0.1L31,30.9l3-0.2c0.4,0,0.2-1.5,0.2-1.6
	c0-0.6-0.7,0.2-0.8,0.3h-2.9l-0.2-0.6l3.1-0.2c0.4,0,0.3-1.6,0.3-1.6c0.1-0.6-0.7,0.2-0.8,0.3l-3,0l-0.2-0.6l3.2-0.2
	c0.1,0,0.1-0.1,0.2-0.1l0.3-1.5c0-0.2-0.2-0.3-0.3-0.2l-0.4,0.5h-3L44.9,18.3z"/>
<path class="st5" d="M46.3,9.4c-0.2,0.2-0.5,0.5-0.8,0.9H32.5V9.1H46L46.3,9.4z"/>
<path class="st6" d="M17.5,10.3h-13C4.2,10,3.9,9.7,3.7,9.5L4,9.1h13.5V10.3z"/>
<rect x="17.5" y="9.1" class="st3" width="15" height="1.2"/>
<path class="st1" d="M28.2,34.8h1.7l1.5-1.1l-0.1,4.6l-2.2,0.2l-1-0.6L28.2,34.8z M27.9,38.1l1,0.7l2.3-0.1l-3.6,3.9l-1.4-1.2
	L26,40.3L27.9,38.1z M25.7,40.6l0.3,1.1l1.2,1.2l-4.2,0.7l-0.5-1.2l0.4-1L25.7,40.6z M22.6,41.4l-0.3,0.9l0.4,1.3l-4.5-3.9l1.1-0.5
	L22.6,41.4z M18.5,33l0.6,5.9L16.2,40L18.5,33z M30.3,29.5h3.1L34,29v1.4l-3.2,0.2l0.2,1.1l3-0.1l0.5-0.5l-0.1,1.4l-3.1,0.1l0.2,0.6
	l-1.6,1.1l-1.6,0.2l-0.2-0.3l-2.2,2.2l-1.2-0.8h0.8l1.9-2.2l-0.6-0.8l-2.3,2.3l-1.2-0.9h0.7l2-2.2l-0.6-0.8l-2.2,2.3l-1.2-0.8
	l0.7-0.1l2.1-2.3l-0.6-0.7l-2.2,2.3l-1.3-0.8h0.7l1.9-2.6l6-2.7h3.6l0.4-0.5L33,26.4l-3.4,0.2l0.3,1l3.2,0l0.5-0.5l-0.1,1.4
	l-3.3,0.2L30.3,29.5z M21.3,25l1.9,2.6l-10.5,4.8l-1.5-9.9l7.3-6.9l-2.2,7.2l3.5-1.8l-3.4,5.4l-3.1,0.5l1.5,2.9L21.3,25z M26.5,22.3
	l2.4,2.7l-5.5,2.5L22.8,24l2.3-0.1L26.5,22.3z M39.7,20.2L29,25l0,0l-0.6-3.2l7.7-2L34.8,17l-2.4,2l-6.3-0.9l3.5-1.6l-6.8-3l10.2-1
	L39.7,20.2z"/>
</svg>
