<?xml version="1.0" encoding="utf-8"?>
<!-- Generator: Adobe Illustrator 23.0.1, SVG Export Plug-In . SVG Version: 6.00 Build 0)  -->
<svg version="1.1" id="Layer_1" xmlns="http://www.w3.org/2000/svg" xmlns:xlink="http://www.w3.org/1999/xlink" x="0px" y="0px"
	 viewBox="0 0 50 50" style="enable-background:new 0 0 50 50;" xml:space="preserve">
<style type="text/css">
	.st0{fill:#231F20;}
	.st1{fill:url(#SVGID_1_);}
	.st2{fill:url(#SVGID_2_);}
	.st3{fill:#E0E0E0;}
	.st4{fill:url(#SVGID_3_);}
	.st5{fill:url(#SVGID_4_);}
	.st6{fill:url(#SVGID_5_);}
	.st7{fill:#3F3F3F;}
	.st8{fill:url(#SVGID_6_);}
	.st9{fill:url(#SVGID_7_);}
	.st10{fill:url(#SVGID_8_);}
</style>
<g>
	<title>audi</title>
	<path class="st0" d="M48.9,25.1L48.9,25.1c0,4.4-3.7,8-8.1,8c-4.4,0-8-3.7-8-8.1c0-4.4,3.7-8,8.1-8c2.1,0,4.1,0.9,5.6,2.3
		C48.1,20.9,48.9,23,48.9,25.1H49c0-4.5-3.7-8.2-8.2-8.2c-4.5,0-8.2,3.7-8.2,8.2c0,4.5,3.7,8.2,8.2,8.2C45.3,33.3,49,29.6,48.9,25.1
		L48.9,25.1L48.9,25.1z"/>
	
		<linearGradient id="SVGID_1_" gradientUnits="userSpaceOnUse" x1="-246.2423" y1="429.3692" x2="-245.1265" y2="429.3692" gradientTransform="matrix(10.38 10.38 -10.38 10.38 7047.8486 -1881.4124)">
		<stop  offset="0" style="stop-color:#E2E3E4"/>
		<stop  offset="0.17" style="stop-color:#ABADB0"/>
		<stop  offset="0.19" style="stop-color:#A1A2A5"/>
		<stop  offset="0.26" style="stop-color:#888A8C"/>
		<stop  offset="0.34" style="stop-color:#77787A"/>
		<stop  offset="0.41" style="stop-color:#6C6D6F"/>
		<stop  offset="0.5" style="stop-color:#696A6C"/>
		<stop  offset="0.63" style="stop-color:#6D6E70"/>
		<stop  offset="0.74" style="stop-color:#77797B"/>
		<stop  offset="0.86" style="stop-color:#898B8D"/>
		<stop  offset="0.97" style="stop-color:#A3A4A7"/>
		<stop  offset="1" style="stop-color:#ACAEB1"/>
	</linearGradient>
	<path class="st1" d="M40.8,17.1c-4.5,0-8.1,3.6-8.1,8.1c0,4.5,3.6,8.1,8.1,8.1s8.1-3.6,8.1-8.1c0,0,0,0,0,0l0,0
		C48.9,20.7,45.3,17.1,40.8,17.1z M40.8,31.5c-3.5,0-6.3-2.8-6.3-6.3c0-3.5,2.8-6.3,6.3-6.3c3.4,0,6.2,2.8,6.3,6.2
		C47,28.6,44.2,31.4,40.8,31.5C40.8,31.4,40.8,31.4,40.8,31.5L40.8,31.5L40.8,31.5z"/>
	<path class="st0" d="M17.3,25.1L17.3,25.1c0,4.4-3.7,8-8.1,8c-4.4,0-8-3.7-8-8.1c0-4.4,3.7-8,8.1-8c2.1,0,4.1,0.9,5.6,2.3
		C16.4,20.9,17.3,23,17.3,25.1h0.1c0-4.5-3.7-8.2-8.2-8.2c-4.5,0-8.2,3.7-8.2,8.2c0,4.5,3.7,8.2,8.2,8.2l0,0
		C13.7,33.3,17.3,29.6,17.3,25.1L17.3,25.1z"/>
	
		<linearGradient id="SVGID_2_" gradientUnits="userSpaceOnUse" x1="-246.3734" y1="420.5882" x2="-245.2576" y2="420.5882" gradientTransform="matrix(10.3803 10.3803 10.3803 -10.3803 -1805.069 6942.688)">
		<stop  offset="0" style="stop-color:#E2E3E4"/>
		<stop  offset="0.17" style="stop-color:#ABADB0"/>
		<stop  offset="0.19" style="stop-color:#A1A2A5"/>
		<stop  offset="0.26" style="stop-color:#888A8C"/>
		<stop  offset="0.34" style="stop-color:#77787A"/>
		<stop  offset="0.41" style="stop-color:#6C6D6F"/>
		<stop  offset="0.5" style="stop-color:#696A6C"/>
		<stop  offset="0.63" style="stop-color:#6D6E70"/>
		<stop  offset="0.74" style="stop-color:#77797B"/>
		<stop  offset="0.86" style="stop-color:#898B8D"/>
		<stop  offset="0.97" style="stop-color:#A3A4A7"/>
		<stop  offset="1" style="stop-color:#ACAEB1"/>
	</linearGradient>
	<path class="st2" d="M9.1,17.1c-4.5,0-8.1,3.6-8.2,8.1c0,4.5,3.6,8.1,8.1,8.2s8.1-3.6,8.2-8.1c0,0,0,0,0,0l0,0
		C17.3,20.7,13.7,17.1,9.1,17.1C9.2,17.1,9.1,17.1,9.1,17.1z M9.1,31.5c-3.5,0-6.3-2.8-6.3-6.3s2.8-6.3,6.3-6.3
		c3.4,0,6.2,2.7,6.3,6.2C15.4,28.6,12.6,31.4,9.1,31.5C9.1,31.4,9.1,31.4,9.1,31.5L9.1,31.5L9.1,31.5z"/>
	<path class="st3" d="M1.9,25.2c0,1.8,0.7,3.5,1.9,4.9l0,0V30c-2.5-2.7-2.5-6.9,0-9.6h0C2.5,21.7,1.9,23.4,1.9,25.2z M3.8,20.3
		L3.8,20.3L3.8,20.3c2.7-2.8,7.2-3,10.1-0.3c0,0,0,0,0,0c0.1,0.1,0.3,0.2,0.4,0.4l0,0C11.6,17.4,7,17.3,4.1,20c0,0,0,0,0,0L3.8,20.3
		L3.8,20.3z M14.4,20.3L14.4,20.3L14.4,20.3c2.4,2.8,2.4,6.9,0,9.6v0.1l0,0C16.9,27.3,16.9,23.1,14.4,20.3z"/>
	<path class="st3" d="M14.1,20.1c-1.3-1.3-3-2-4.8-2.1l0,0c3.7,0.2,6.6,3.1,6.8,6.8h0.1C16.1,23,15.4,21.3,14.1,20.1z M16.3,25
		L16.3,25L16.3,25c0.1,3.9-2.9,7.2-6.9,7.3c0,0,0,0,0,0c-0.2,0-0.4,0-0.6,0l0,0c2,0.1,4-0.7,5.4-2.1C15.6,28.8,16.3,26.9,16.3,25
		L16.3,25z M8.7,32.4L8.7,32.4L8.7,32.4C5,32.1,2.2,29.2,2,25.6l-0.1-0.1l0,0c0.2,3.7,3.2,6.7,6.9,6.9L8.7,32.4z"/>
	
		<linearGradient id="SVGID_3_" gradientUnits="userSpaceOnUse" x1="-313.5872" y1="429.8652" x2="-312.4829" y2="429.8652" gradientTransform="matrix(-9.157 -9.157 -9.157 9.157 1110.5498 -6777.6582)">
		<stop  offset="0" style="stop-color:#E2E3E4"/>
		<stop  offset="0.17" style="stop-color:#ABADB0"/>
		<stop  offset="0.19" style="stop-color:#A1A2A5"/>
		<stop  offset="0.26" style="stop-color:#888A8C"/>
		<stop  offset="0.34" style="stop-color:#77787A"/>
		<stop  offset="0.41" style="stop-color:#6C6D6F"/>
		<stop  offset="0.5" style="stop-color:#696A6C"/>
		<stop  offset="0.63" style="stop-color:#6D6E70"/>
		<stop  offset="0.74" style="stop-color:#77797B"/>
		<stop  offset="0.86" style="stop-color:#898B8D"/>
		<stop  offset="0.97" style="stop-color:#A3A4A7"/>
		<stop  offset="1" style="stop-color:#ACAEB1"/>
	</linearGradient>
	<path class="st4" d="M40.8,18c-4,0-7.2,3.3-7.1,7.2c0,4,3.3,7.2,7.2,7.1c4,0,7.1-3.2,7.1-7.2l0,0C48,21.2,44.8,18,40.8,18
		C40.8,18,40.8,18,40.8,18z M40.8,31.5c-3.5,0-6.3-2.8-6.3-6.3c0-3.5,2.8-6.3,6.3-6.3c3.5,0,6.3,2.8,6.3,6.3
		C47.1,28.6,44.2,31.4,40.8,31.5L40.8,31.5z"/>
	
		<linearGradient id="SVGID_4_" gradientUnits="userSpaceOnUse" x1="-246.187" y1="420.6423" x2="-245.0827" y2="420.6423" gradientTransform="matrix(10.3379 10.3379 10.3379 -10.3379 -1789.5247 6913.0869)">
		<stop  offset="0" style="stop-color:#E2E3E4"/>
		<stop  offset="0.17" style="stop-color:#ABADB0"/>
		<stop  offset="0.19" style="stop-color:#A1A2A5"/>
		<stop  offset="0.26" style="stop-color:#888A8C"/>
		<stop  offset="0.34" style="stop-color:#77787A"/>
		<stop  offset="0.41" style="stop-color:#6C6D6F"/>
		<stop  offset="0.5" style="stop-color:#696A6C"/>
		<stop  offset="0.63" style="stop-color:#6D6E70"/>
		<stop  offset="0.74" style="stop-color:#77797B"/>
		<stop  offset="0.86" style="stop-color:#898B8D"/>
		<stop  offset="0.97" style="stop-color:#A3A4A7"/>
		<stop  offset="1" style="stop-color:#ACAEB1"/>
	</linearGradient>
	<path class="st5" d="M19.7,31.4c-1.4,0-2.8-0.5-3.9-1.4h-1.4v1.3c3,2.6,7.5,2.6,10.5,0v-1.3h-1.4C22.5,31,21.1,31.4,19.7,31.4z
		 M14.4,19v1.3h1.3c2.3-1.9,5.6-1.9,7.9,0H25V19C22,16.4,17.5,16.4,14.4,19L14.4,19z M11.5,25.1c0,1.8,0.6,3.5,1.6,4.9h1.3v-1.4
		c-1.3-2.1-1.3-4.7,0-6.8v-1.5h-1.3C12.1,21.7,11.5,23.4,11.5,25.1z M26.1,20.3H25v1.5c1.3,2,1.3,4.6,0,6.7V30h1.2
		C28.3,27.1,28.3,23.2,26.1,20.3L26.1,20.3z"/>
	
		<linearGradient id="SVGID_5_" gradientUnits="userSpaceOnUse" x1="-313.5044" y1="430.0186" x2="-312.4001" y2="430.0186" gradientTransform="matrix(-9.15 -9.15 -9.15 9.15 1090.8041 -6773.0459)">
		<stop  offset="0" style="stop-color:#E2E3E4"/>
		<stop  offset="0.17" style="stop-color:#ABADB0"/>
		<stop  offset="0.19" style="stop-color:#A1A2A5"/>
		<stop  offset="0.26" style="stop-color:#888A8C"/>
		<stop  offset="0.34" style="stop-color:#77787A"/>
		<stop  offset="0.41" style="stop-color:#6C6D6F"/>
		<stop  offset="0.5" style="stop-color:#696A6C"/>
		<stop  offset="0.63" style="stop-color:#6D6E70"/>
		<stop  offset="0.74" style="stop-color:#77797B"/>
		<stop  offset="0.86" style="stop-color:#898B8D"/>
		<stop  offset="0.97" style="stop-color:#A3A4A7"/>
		<stop  offset="1" style="stop-color:#ACAEB1"/>
	</linearGradient>
	<path class="st6" d="M19.7,31.5c-1.4,0-2.8-0.5-4-1.4h-1.3c2.7,2.9,7.2,3.1,10.1,0.4c0,0,0,0,0,0l0.4-0.4h-1.3
		C22.5,31,21.1,31.5,19.7,31.5z M12.5,25.1c0,1.8,0.7,3.6,1.9,4.9l0,0v-1.4c-0.7-1-1-2.2-1-3.5c0-1.2,0.4-2.4,1-3.5v-1.4l0,0
		C13.2,21.6,12.5,23.3,12.5,25.1z M19.7,17.9c-2,0-3.9,0.8-5.2,2.3h1.2c2.3-1.9,5.7-1.9,8.1,0H25C23.6,18.8,21.7,18,19.7,17.9
		L19.7,17.9z M25,20.2v1.5c1.3,2.1,1.3,4.8,0,6.8v1.5c2.5-2.7,2.5-6.9,0-9.7L25,20.2z"/>
	<path class="st7" d="M27.8,25.1c0,1.8-0.6,3.5-1.6,4.9h0.1c2.1-2.9,2.1-6.8,0-9.7h-0.1C27.2,21.7,27.8,23.4,27.8,25.1z"/>
	<path class="st3" d="M12.4,25.1c0,1.8,0.7,3.5,1.9,4.9l0,0c-2.5-2.7-2.5-6.9,0-9.6h-0.1C13.1,21.7,12.4,23.4,12.4,25.1z M14.4,20.2
		L14.4,20.2L14.4,20.2c2.7-2.8,7.2-3,10.1-0.3c0,0,0,0,0,0l0.4,0.4h0.1c-2.7-2.9-7.3-3.1-10.2-0.4C14.6,20,14.5,20.1,14.4,20.2
		L14.4,20.2z M25,20.2L25,20.2v0.1c2.4,2.7,2.4,6.8,0,9.5V30l0,0C27.5,27.2,27.5,23,25,20.2L25,20.2z"/>
	<path class="st3" d="M24.9,30.1c-2.7,2.9-7.2,3-10.1,0.3c0,0,0,0,0,0l-0.3-0.3h-0.1c2.7,2.9,7.3,3.1,10.2,0.4
		C24.7,30.3,24.8,30.2,24.9,30.1L24.9,30.1z"/>
	<path class="st7" d="M19.7,17.1c1.9,0,3.8,0.7,5.3,2l0,0c-3-2.6-7.5-2.6-10.5,0v0.1C15.9,17.8,17.8,17.1,19.7,17.1z"/>
	<path class="st7" d="M19.7,33.3c-1.9,0-3.8-0.7-5.2-1.9v0.1c3,2.6,7.5,2.6,10.5,0v-0.1C23.5,32.6,21.6,33.3,19.7,33.3z"/>
	<path class="st7" d="M11.5,25.1c0-1.8,0.6-3.5,1.6-4.9H13c-2.1,2.9-2.1,6.8,0,9.7h0.1C12.1,28.6,11.5,26.9,11.5,25.1z"/>
	
		<linearGradient id="SVGID_6_" gradientUnits="userSpaceOnUse" x1="-246.184" y1="420.6533" x2="-245.0797" y2="420.6533" gradientTransform="matrix(10.352 10.352 10.352 -10.352 -1781.6561 6922.5908)">
		<stop  offset="0" style="stop-color:#E2E3E4"/>
		<stop  offset="0.17" style="stop-color:#ABADB0"/>
		<stop  offset="0.19" style="stop-color:#A1A2A5"/>
		<stop  offset="0.26" style="stop-color:#888A8C"/>
		<stop  offset="0.34" style="stop-color:#77787A"/>
		<stop  offset="0.41" style="stop-color:#6C6D6F"/>
		<stop  offset="0.5" style="stop-color:#696A6C"/>
		<stop  offset="0.63" style="stop-color:#6D6E70"/>
		<stop  offset="0.74" style="stop-color:#77797B"/>
		<stop  offset="0.86" style="stop-color:#898B8D"/>
		<stop  offset="0.97" style="stop-color:#A3A4A7"/>
		<stop  offset="1" style="stop-color:#ACAEB1"/>
	</linearGradient>
	<path class="st8" d="M30.2,31.4c-1.4,0-2.8-0.5-3.9-1.4h-1.3v1.3c3,2.6,7.5,2.6,10.5,0v-1.3h-1.4C33,31,31.6,31.5,30.2,31.4z
		 M24.9,19v1.3h1.3c2.3-1.9,5.6-1.9,7.9,0h1.3V19C32.4,16.4,27.9,16.4,24.9,19L24.9,19z M22,25.1c0,1.7,0.6,3.5,1.6,4.9h1.3v-1.4
		c-1.3-2.1-1.3-4.7,0-6.8v-1.5h-1.3C22.6,21.7,22,23.4,22,25.1z M36.7,20.3h-1.2v1.5c1.3,2,1.3,4.6,0,6.7V30h1.2
		C38.8,27.1,38.8,23.2,36.7,20.3L36.7,20.3z"/>
	
		<linearGradient id="SVGID_7_" gradientUnits="userSpaceOnUse" x1="-313.5594" y1="429.9646" x2="-312.4551" y2="429.9646" gradientTransform="matrix(-9.15 -9.15 -9.15 9.15 1100.314 -6773.0659)">
		<stop  offset="0" style="stop-color:#E2E3E4"/>
		<stop  offset="0.17" style="stop-color:#ABADB0"/>
		<stop  offset="0.19" style="stop-color:#A1A2A5"/>
		<stop  offset="0.26" style="stop-color:#888A8C"/>
		<stop  offset="0.34" style="stop-color:#77787A"/>
		<stop  offset="0.41" style="stop-color:#6C6D6F"/>
		<stop  offset="0.5" style="stop-color:#696A6C"/>
		<stop  offset="0.63" style="stop-color:#6D6E70"/>
		<stop  offset="0.74" style="stop-color:#77797B"/>
		<stop  offset="0.86" style="stop-color:#898B8D"/>
		<stop  offset="0.97" style="stop-color:#A3A4A7"/>
		<stop  offset="1" style="stop-color:#ACAEB1"/>
	</linearGradient>
	<path class="st9" d="M30.2,31.5c-1.4,0-2.8-0.5-4-1.4h-1.3c2.7,2.9,7.2,3.1,10.1,0.4c0,0,0,0,0,0l0.4-0.4h-1.3
		C33,31,31.6,31.5,30.2,31.5z M23,25.1c0,1.8,0.7,3.5,1.9,4.9l0,0v-1.3c-0.7-1-1-2.2-1-3.5c0-1.2,0.4-2.4,1-3.5v-1.4l0,0
		C23.7,21.6,23,23.3,23,25.1z M30.2,17.9c-2,0-3.9,0.8-5.3,2.3h1.2c2.3-2,5.7-2,8.1,0h1.3C34.1,18.7,32.2,17.9,30.2,17.9L30.2,17.9z
		 M35.5,20.2v1.5c1.3,2.1,1.3,4.7,0,6.8v1.5c2.5-2.7,2.5-6.9,0-9.7V20.2z"/>
	<path class="st7" d="M36.4,25.1c0,1.2-0.3,2.3-0.9,3.3v0.1c1.3-2.1,1.3-4.7,0-6.8v0.1C36.1,22.9,36.4,24,36.4,25.1z"/>
	<path class="st7" d="M38.3,25.1c0,1.8-0.6,3.5-1.6,4.9h0.1c2.1-2.9,2.1-6.8,0-9.7h-0.1C37.7,21.6,38.3,23.4,38.3,25.1z"/>
	<path class="st3" d="M24.9,20.2L24.9,20.2L24.9,20.2c2.7-2.8,7.2-3,10.1-0.3c0.1,0.1,0.3,0.2,0.4,0.4h0.1
		c-2.7-2.9-7.3-3.1-10.2-0.4L24.9,20.2L24.9,20.2z M23,25.1c0,1.8,0.7,3.5,1.9,4.9l0,0c-2.5-2.7-2.5-6.9,0-9.6h-0.1
		C23.7,21.7,23,23.4,23,25.1z M35.6,20.2L35.6,20.2v0.1c2.4,2.7,2.4,6.8,0,9.5V30l0,0C38,27.2,38,23,35.6,20.2L35.6,20.2z"/>
	<path class="st3" d="M35.3,30.1c-2.7,2.9-7.2,3-10,0.3c0,0,0,0,0,0L25,30.1h-0.1c2.7,2.9,7.3,3.1,10.2,0.4c0.1-0.1,0.3-0.2,0.4-0.4
		H35.3z"/>
	<path class="st7" d="M34.1,30.1L34.1,30.1c-2.3,1.8-5.5,1.8-7.8,0h-0.1C28.6,31.9,31.9,31.9,34.1,30.1L34.1,30.1z"/>
	<path class="st7" d="M30.2,17.1c1.9,0,3.8,0.7,5.3,2l0,0c-3-2.6-7.5-2.6-10.6,0v0.1C26.4,17.8,28.2,17.1,30.2,17.1z"/>
	<path class="st7" d="M30.2,33.3c-1.9,0-3.8-0.7-5.3-1.9v0.1c3,2.6,7.5,2.6,10.5,0v-0.1C34,32.6,32.1,33.3,30.2,33.3z"/>
	<path class="st7" d="M22.1,25.1c0-1.8,0.6-3.5,1.6-4.9h-0.1c-2.1,2.9-2.1,6.8,0,9.7h0.1C22.6,28.6,22.1,26.9,22.1,25.1z"/>
	<path class="st7" d="M24.9,28.5c-1.3-2-1.3-4.6,0-6.7v-0.1c-1.4,2.1-1.4,4.8,0,6.9V28.5z"/>
	<path class="st7" d="M26.1,20.3L26.1,20.3c2.4-1.8,5.6-1.8,7.9,0h0.1C31.9,18.4,28.5,18.4,26.1,20.3z"/>
	<path class="st7" d="M25,21.8v0.1c1.2,2,1.2,4.6,0,6.6v0.1C26.3,26.5,26.3,23.9,25,21.8z M19.7,31.4c-1.4,0-2.8-0.5-3.9-1.3h-0.1
		c2.3,1.9,5.6,1.9,7.9,0h-0.1C22.4,30.9,21.1,31.4,19.7,31.4L19.7,31.4z M14.4,28.6v-0.1c-1.3-2-1.3-4.6,0-6.7v-0.1
		C13.1,23.8,13.1,26.5,14.4,28.6z M15.7,20.3h0.1c2.3-1.8,5.6-1.8,7.8,0h0.1C21.4,18.4,18,18.4,15.7,20.3L15.7,20.3z"/>
	<path class="st3" d="M33.5,25.1c0,1.8,0.7,3.5,1.9,4.9h0.1v-0.1c-2.5-2.7-2.5-6.9,0-9.6h-0.1C34.2,21.6,33.5,23.3,33.5,25.1z
		 M35.5,20.2L35.5,20.2L35.5,20.2c2.7-2.9,7.2-3,10.1-0.4l0.4,0.4l0,0c-2.7-2.9-7.3-3.1-10.2-0.4L35.5,20.2L35.5,20.2z M46.1,20.2
		L46.1,20.2L46.1,20.2c2.4,2.8,2.4,6.9,0,9.6v0.1l0,0c2.5-2.7,2.5-6.9,0-9.6V20.2z"/>
	<path class="st3" d="M45.8,20.1c-1.3-1.3-3-2-4.7-2.1l0,0c3.7,0.2,6.6,3.1,6.8,6.8l0,0C47.8,23,47.1,21.3,45.8,20.1z M48,24.9
		L48,24.9L48,24.9c0.2,3.9-2.9,7.2-6.8,7.4c0,0-0.1,0-0.1,0c-0.2,0-0.4,0-0.6,0l0,0c2,0.1,4-0.7,5.5-2.1
		C47.4,28.8,48.1,26.9,48,24.9z M40.4,32.4L40.4,32.4L40.4,32.4c-3.7-0.3-6.6-3.2-6.8-6.8l-0.1-0.1l0,0
		C33.7,29.2,36.7,32.2,40.4,32.4L40.4,32.4z"/>
	
		<linearGradient id="SVGID_8_" gradientUnits="userSpaceOnUse" x1="-313.4221" y1="430.0323" x2="-312.3177" y2="430.0323" gradientTransform="matrix(-9.157 -9.157 -9.157 9.157 1082.0098 -6777.6479)">
		<stop  offset="0" style="stop-color:#E2E3E4"/>
		<stop  offset="0.17" style="stop-color:#ABADB0"/>
		<stop  offset="0.19" style="stop-color:#A1A2A5"/>
		<stop  offset="0.26" style="stop-color:#888A8C"/>
		<stop  offset="0.34" style="stop-color:#77787A"/>
		<stop  offset="0.41" style="stop-color:#6C6D6F"/>
		<stop  offset="0.5" style="stop-color:#696A6C"/>
		<stop  offset="0.63" style="stop-color:#6D6E70"/>
		<stop  offset="0.74" style="stop-color:#77797B"/>
		<stop  offset="0.86" style="stop-color:#898B8D"/>
		<stop  offset="0.97" style="stop-color:#A3A4A7"/>
		<stop  offset="1" style="stop-color:#ACAEB1"/>
	</linearGradient>
	<path class="st10" d="M9.1,18c-4,0-7.2,3.3-7.2,7.2c0,4,3.3,7.2,7.2,7.2c4,0,7.2-3.3,7.2-7.2c0,0,0,0,0,0
		C16.4,21.1,13.1,17.9,9.1,18C9.2,17.9,9.1,17.9,9.1,18L9.1,18z M9.1,31.5c-3.5,0-6.3-2.8-6.3-6.3c0-3.5,2.8-6.3,6.3-6.3
		c3.5,0,6.3,2.8,6.3,6.3C15.4,28.6,12.6,31.4,9.1,31.5L9.1,31.5z"/>
	<path class="st3" d="M1.8,25.2c0,1.8,0.7,3.5,1.9,4.9l0,0c-2.5-2.7-2.5-6.9,0-9.6h0C2.5,21.7,1.8,23.4,1.8,25.2z M3.8,20.3
		L3.8,20.3L3.8,20.3c2.7-2.8,7.2-3,10.1-0.3l0.4,0.4h0.1C11.6,17.4,7,17.3,4.1,20c0,0,0,0,0,0C4,20.1,3.9,20.2,3.8,20.3L3.8,20.3z
		 M14.4,20.3L14.4,20.3L14.4,20.3c2.4,2.8,2.4,6.9,0,9.6v0.1l0,0C16.9,27.3,16.9,23.1,14.4,20.3z"/>
</g>
</svg>
