<?xml version="1.0" encoding="utf-8"?>
<!-- Generator: Adobe Illustrator 22.1.0, SVG Export Plug-In . SVG Version: 6.00 Build 0)  -->
<svg version="1.1" id="Layer_1" xmlns="http://www.w3.org/2000/svg" xmlns:xlink="http://www.w3.org/1999/xlink" x="0px" y="0px"
	 viewBox="0 0 51 51" style="enable-background:new 0 0 51 51;" xml:space="preserve">
<style type="text/css">
	.st0{fill:url(#SVGID_1_);}
	.st1{fill:#444B4C;}
	.st2{fill:url(#SVGID_2_);}
	.st3{fill:url(#SVGID_3_);}
	.st4{fill:#333333;}
	.st5{fill:url(#SVGID_4_);}
	.st6{fill:url(#SVGID_5_);}
	.st7{fill:url(#SVGID_6_);}
	.st8{fill:url(#SVGID_7_);}
	.st9{fill:url(#SVGID_8_);}
	.st10{fill:url(#SVGID_9_);}
	.st11{fill:url(#SVGID_10_);}
	.st12{fill:url(#SVGID_11_);}
	.st13{fill:url(#SVGID_12_);}
	.st14{fill:#BDD5E5;}
	.st15{fill:url(#SVGID_13_);}
	.st16{fill:#005D6C;}
	.st17{fill:url(#SVGID_14_);}
	.st18{fill:url(#SVGID_15_);}
	.st19{fill:url(#SVGID_16_);}
	.st20{fill:url(#SVGID_17_);}
</style>
<title>bmw</title>
<g>
	
		<linearGradient id="SVGID_1_" gradientUnits="userSpaceOnUse" x1="-0.6706" y1="14.3186" x2="50.6223" y2="63.889" gradientTransform="matrix(1 0 0 1 -1.55 -15.59)">
		<stop  offset="0" style="stop-color:#DEEBF2"/>
		<stop  offset="0.1" style="stop-color:#D5E1E8"/>
		<stop  offset="0.28" style="stop-color:#BCC6CC"/>
		<stop  offset="0.51" style="stop-color:#939B9F"/>
		<stop  offset="0.78" style="stop-color:#5C5F61"/>
		<stop  offset="1" style="stop-color:#2B2B2B"/>
	</linearGradient>
	<path class="st0" d="M25.5,1.3C12.2,1.3,1.3,12.1,1.3,25.5s10.8,24.2,24.2,24.2s24.2-10.8,24.2-24.2l0,0l0,0
		C49.7,12.2,38.9,1.3,25.5,1.3L25.5,1.3z M25.5,48.5c-12.6,0-22.9-10.3-22.9-22.9S12.9,2.7,25.5,2.7S48.4,13,48.4,25.6l0,0
		C48.4,38.2,38.2,48.5,25.5,48.5z"/>
	<path class="st1" d="M48.7,25.5c0,12.8-10.3,23.2-23.1,23.2S2.4,38.3,2.4,25.5S12.7,2.3,25.5,2.3l0,0C38.2,2.3,48.6,12.6,48.7,25.5
		C48.7,25.4,48.7,25.4,48.7,25.5z"/>
	
		<radialGradient id="SVGID_2_" cx="2.5812" cy="18.508" r="34.3477" gradientTransform="matrix(1 0 0 1 -1.55 -15.59)" gradientUnits="userSpaceOnUse">
		<stop  offset="0" style="stop-color:#FFFFFF"/>
		<stop  offset="0.31" style="stop-color:#A8A8A8"/>
		<stop  offset="0.65" style="stop-color:#4F4F4F"/>
		<stop  offset="0.89" style="stop-color:#161616"/>
		<stop  offset="1" style="stop-color:#000000"/>
	</radialGradient>
	<path class="st2" d="M48.5,25.5c0,12.7-10.2,22.9-22.9,22.9S2.7,38.2,2.7,25.5S12.9,2.6,25.6,2.6l0,0C38.2,2.6,48.5,12.8,48.5,25.5
		z"/>
	
		<linearGradient id="SVGID_3_" gradientUnits="userSpaceOnUse" x1="-6780.3701" y1="-6157.3511" x2="-6747.7095" y2="-6125.7808" gradientTransform="matrix(-1 0 0 -1 -6737.2202 -6114.79)">
		<stop  offset="0" style="stop-color:#DEEBF2"/>
		<stop  offset="9.000000e-02" style="stop-color:#D5E1E8"/>
		<stop  offset="0.24" style="stop-color:#BBC6CC"/>
		<stop  offset="0.44" style="stop-color:#929A9F"/>
		<stop  offset="0.68" style="stop-color:#585D60"/>
		<stop  offset="0.94" style="stop-color:#101111"/>
		<stop  offset="1" style="stop-color:#000000"/>
	</linearGradient>
	<path class="st3" d="M40.9,25.5c0,8.5-6.9,15.4-15.4,15.4S10.1,34,10.1,25.5S17,10.1,25.5,10.1l0,0C34,10.1,40.9,17,40.9,25.5
		L40.9,25.5z"/>
	<polygon points="26.1,9.7 27.7,5.4 27.7,9.7 28.9,9.7 28.9,3.6 27.1,3.6 25.5,7.9 25.5,7.9 23.8,3.6 22,3.6 22,9.7 23.2,9.7 
		23.2,5.4 24.8,9.7 	"/>
	<polygon points="42.8,12.4 40.7,15.4 44,13.8 44.9,14.9 39.7,17.4 38.7,16.2 40.7,13.2 40.7,13.2 37.4,14.6 36.3,13.4 39.8,8.8 
		40.7,9.8 38.5,12.8 41.8,11.3 	"/>
	<path class="st4" d="M14.8,11.2c-0.5-0.5-1.3-0.6-2-0.2c0.1-0.3,0.1-0.6,0-0.9c-0.1-0.3-0.4-0.6-0.7-0.8c-0.8-0.7-1.7-0.1-2.3,0.6
		l-2.9,3.5l4.7,3.9l3.1-3.7c0.7-0.6,0.8-1.6,0.2-2.2L14.8,11.2z M8.7,12.9l1.8-2.1c0.3-0.2,0.7-0.2,1,0s0.3,0.6,0.1,0.9l0,0
		l-1.8,2.1L8.7,12.9z M13.7,13.3l-1.9,2.2l-1.2-1l1.9-2.2c0.3-0.3,0.8-0.4,1.1-0.1C13.9,12.5,13.9,13,13.7,13.3L13.7,13.3L13.7,13.3
		z"/>
	
		<radialGradient id="SVGID_4_" cx="-4.0228" cy="14.8041" r="82.5234" gradientTransform="matrix(1 0 0 1 -1.11 -15.39)" gradientUnits="userSpaceOnUse">
		<stop  offset="0" style="stop-color:#FFFFFF"/>
		<stop  offset="0.31" style="stop-color:#FDFDFD"/>
		<stop  offset="0.45" style="stop-color:#F6F6F6"/>
		<stop  offset="0.56" style="stop-color:#E9E9E9"/>
		<stop  offset="0.65" style="stop-color:#D7D7D7"/>
		<stop  offset="0.72" style="stop-color:#BFBFBF"/>
		<stop  offset="0.79" style="stop-color:#A2A2A2"/>
		<stop  offset="0.86" style="stop-color:#808080"/>
		<stop  offset="0.92" style="stop-color:#575757"/>
		<stop  offset="0.97" style="stop-color:#2B2B2B"/>
		<stop  offset="1" style="stop-color:#141414"/>
	</radialGradient>
	<polygon class="st5" points="26.1,9.4 27.7,5.2 27.7,9.4 29,9.4 29,3.4 27.1,3.4 25.5,7.7 25.5,7.7 23.8,3.4 22,3.4 22,9.4 
		23.2,9.4 23.2,5.2 24.8,9.4 	"/>
	
		<radialGradient id="SVGID_5_" cx="-3.832" cy="471.6836" r="82.5352" gradientTransform="matrix(1 0 0 -1 0 526)" gradientUnits="userSpaceOnUse">
		<stop  offset="0" style="stop-color:#FFFFFF"/>
		<stop  offset="0.31" style="stop-color:#FDFDFD"/>
		<stop  offset="0.45" style="stop-color:#F6F6F6"/>
		<stop  offset="0.56" style="stop-color:#E9E9E9"/>
		<stop  offset="0.65" style="stop-color:#D7D7D7"/>
		<stop  offset="0.72" style="stop-color:#BFBFBF"/>
		<stop  offset="0.79" style="stop-color:#A2A2A2"/>
		<stop  offset="0.86" style="stop-color:#808080"/>
		<stop  offset="0.92" style="stop-color:#575757"/>
		<stop  offset="0.97" style="stop-color:#2B2B2B"/>
		<stop  offset="1" style="stop-color:#141414"/>
	</radialGradient>
	<polygon class="st6" points="42.8,12 40.7,15 44,13.4 44.9,14.5 39.7,17.1 38.7,15.8 40.7,12.8 40.7,12.8 37.4,14.2 36.3,12.9 
		39.8,8.4 40.7,9.4 38.5,12.3 41.9,10.8 	"/>
	
		<radialGradient id="SVGID_6_" cx="-3.5828" cy="15.0041" r="82.5352" gradientTransform="matrix(1 0 0 1 -1.55 -15.59)" gradientUnits="userSpaceOnUse">
		<stop  offset="0" style="stop-color:#FFFFFF"/>
		<stop  offset="0.31" style="stop-color:#FDFDFD"/>
		<stop  offset="0.45" style="stop-color:#F6F6F6"/>
		<stop  offset="0.56" style="stop-color:#E9E9E9"/>
		<stop  offset="0.65" style="stop-color:#D7D7D7"/>
		<stop  offset="0.72" style="stop-color:#BFBFBF"/>
		<stop  offset="0.79" style="stop-color:#A2A2A2"/>
		<stop  offset="0.86" style="stop-color:#808080"/>
		<stop  offset="0.92" style="stop-color:#575757"/>
		<stop  offset="0.97" style="stop-color:#2B2B2B"/>
		<stop  offset="1" style="stop-color:#141414"/>
	</radialGradient>
	<path class="st7" d="M14.5,11.1c-0.5-0.5-1.3-0.6-1.9-0.2c0.1-0.3,0.1-0.6,0-0.9c-0.1-0.3-0.4-0.6-0.7-0.8
		c-0.8-0.7-1.7-0.1-2.3,0.6l-3,3.5l4.7,3.9l3.1-3.7c0.7-0.6,0.8-1.6,0.2-2.3C14.6,11.2,14.6,11.2,14.5,11.1z M8.5,12.8l1.8-2.1
		c0.3-0.2,0.7-0.2,1,0s0.3,0.6,0.1,0.9l0,0l-1.7,2.1L8.5,12.8z M13.4,13.2l-1.9,2.2l-1.2-1l1.9-2.2c0.3-0.3,0.7-0.3,1-0.1l0,0
		C13.7,12.4,13.7,12.9,13.4,13.2z"/>
	
		<radialGradient id="SVGID_7_" cx="11.1945" cy="26.4416" r="22.2656" gradientTransform="matrix(1 0 0 1 -1.55 -15.59)" gradientUnits="userSpaceOnUse">
		<stop  offset="0" style="stop-color:#E6E6E6"/>
		<stop  offset="0.1" style="stop-color:#D6D6D6"/>
		<stop  offset="0.31" style="stop-color:#AEAEAE"/>
		<stop  offset="0.59" style="stop-color:#6C6C6C"/>
		<stop  offset="0.93" style="stop-color:#131313"/>
		<stop  offset="1" style="stop-color:#000000"/>
	</radialGradient>
	<path class="st8" d="M10.6,25.5c0-8.2,6.7-14.9,14.9-14.9s14.9,6.7,14.9,14.9s-6.7,14.9-14.9,14.9l0,0
		C17.3,40.4,10.6,33.7,10.6,25.5L10.6,25.5z"/>
	
		<radialGradient id="SVGID_8_" cx="17.2883" cy="29.4416" r="32.3672" gradientTransform="matrix(1 0 0 1 -1.55 -15.59)" gradientUnits="userSpaceOnUse">
		<stop  offset="0" style="stop-color:#FFFFFF"/>
		<stop  offset="0.34" style="stop-color:#FDFDFD"/>
		<stop  offset="0.48" style="stop-color:#F6F6F6"/>
		<stop  offset="0.58" style="stop-color:#EAEAEA"/>
		<stop  offset="0.67" style="stop-color:#D8D8D8"/>
		<stop  offset="0.74" style="stop-color:#C2C2C2"/>
		<stop  offset="0.8" style="stop-color:#A6A6A6"/>
		<stop  offset="0.86" style="stop-color:#848484"/>
		<stop  offset="0.91" style="stop-color:#5F5F5F"/>
		<stop  offset="0.95" style="stop-color:#404040"/>
		<stop  offset="0.96" style="stop-color:#404040"/>
		<stop  offset="1" style="stop-color:#404040"/>
		<stop  offset="1" style="stop-color:#000000"/>
	</radialGradient>
	<path class="st9" d="M11.1,25.5c0-8,6.5-14.5,14.5-14.4S40,17.5,40,25.5s-6.5,14.4-14.4,14.4l0,0C17.5,40,11.1,33.5,11.1,25.5
		L11.1,25.5L11.1,25.5z"/>
	
		<radialGradient id="SVGID_9_" cx="7.7844" cy="17.172" r="57.3281" gradientTransform="matrix(1 0 0 1 -1.55 -15.59)" gradientUnits="userSpaceOnUse">
		<stop  offset="0.17" style="stop-color:#FFFFFF"/>
		<stop  offset="0.19" style="stop-color:#E2F5FB"/>
		<stop  offset="0.23" style="stop-color:#AEE2F4"/>
		<stop  offset="0.27" style="stop-color:#7FD1EE"/>
		<stop  offset="0.31" style="stop-color:#58C3E9"/>
		<stop  offset="0.36" style="stop-color:#38B7E5"/>
		<stop  offset="0.4" style="stop-color:#1FAEE2"/>
		<stop  offset="0.45" style="stop-color:#0EA8E0"/>
		<stop  offset="0.5" style="stop-color:#03A4DE"/>
		<stop  offset="0.56" style="stop-color:#00A3DE"/>
		<stop  offset="0.6" style="stop-color:#01A0DA"/>
		<stop  offset="0.65" style="stop-color:#0498CE"/>
		<stop  offset="0.7" style="stop-color:#088BBA"/>
		<stop  offset="0.74" style="stop-color:#0E789E"/>
		<stop  offset="0.79" style="stop-color:#17607A"/>
		<stop  offset="0.84" style="stop-color:#20424F"/>
		<stop  offset="0.87" style="stop-color:#292929"/>
	</radialGradient>
	<path class="st10" d="M11,25.5h14.5V11C17.5,11,11.1,17.5,11,25.5z"/>
	
		<radialGradient id="SVGID_10_" cx="7.7844" cy="17.172" r="57.3281" gradientTransform="matrix(1 0 0 1 -1.55 -15.59)" gradientUnits="userSpaceOnUse">
		<stop  offset="0.17" style="stop-color:#FFFFFF"/>
		<stop  offset="0.19" style="stop-color:#E2F5FB"/>
		<stop  offset="0.23" style="stop-color:#AEE2F4"/>
		<stop  offset="0.27" style="stop-color:#7FD1EE"/>
		<stop  offset="0.31" style="stop-color:#58C3E9"/>
		<stop  offset="0.36" style="stop-color:#38B7E5"/>
		<stop  offset="0.4" style="stop-color:#1FAEE2"/>
		<stop  offset="0.45" style="stop-color:#0EA8E0"/>
		<stop  offset="0.5" style="stop-color:#03A4DE"/>
		<stop  offset="0.56" style="stop-color:#00A3DE"/>
		<stop  offset="0.6" style="stop-color:#01A0DA"/>
		<stop  offset="0.65" style="stop-color:#0498CE"/>
		<stop  offset="0.7" style="stop-color:#088BBA"/>
		<stop  offset="0.74" style="stop-color:#0E789E"/>
		<stop  offset="0.79" style="stop-color:#17607A"/>
		<stop  offset="0.84" style="stop-color:#20424F"/>
		<stop  offset="0.87" style="stop-color:#292929"/>
	</radialGradient>
	<path class="st11" d="M25.5,25.5V40c8,0,14.5-6.4,14.5-14.4l0,0l0,0L25.5,25.5z"/>
	
		<radialGradient id="SVGID_11_" cx="11.0592" cy="26.5228" r="21.832" gradientTransform="matrix(1 0 0 1 -1.11 -15.39)" gradientUnits="userSpaceOnUse">
		<stop  offset="0" style="stop-color:#E6E6E6"/>
		<stop  offset="0.1" style="stop-color:#D6D6D6"/>
		<stop  offset="0.31" style="stop-color:#AEAEAE"/>
		<stop  offset="0.59" style="stop-color:#6C6C6C"/>
		<stop  offset="0.93" style="stop-color:#131313"/>
		<stop  offset="1" style="stop-color:#000000"/>
	</radialGradient>
	<polygon class="st12" points="40.1,25.2 25.8,25.2 25.8,10.9 25.3,10.9 25.3,25.2 10.9,25.2 10.9,25.7 25.3,25.7 25.3,40.1 
		25.8,40.1 25.8,25.7 40.1,25.7 	"/>
	
		<linearGradient id="SVGID_12_" gradientUnits="userSpaceOnUse" x1="24.2263" y1="21.2606" x2="45.5193" y2="41.827" gradientTransform="matrix(1 0 0 1 -1.55 -15.59)">
		<stop  offset="0" style="stop-color:#EEF0F3"/>
		<stop  offset="0.11" style="stop-color:#E9EBED"/>
		<stop  offset="0.26" style="stop-color:#D9DBDE"/>
		<stop  offset="0.42" style="stop-color:#C0C1C3"/>
		<stop  offset="0.59" style="stop-color:#9C9D9F"/>
		<stop  offset="0.77" style="stop-color:#6E6F70"/>
		<stop  offset="0.96" style="stop-color:#373737"/>
		<stop  offset="1" style="stop-color:#2B2B2B"/>
	</linearGradient>
	<path class="st13" d="M25.8,11.3c7.6,0.2,13.8,6.3,13.9,13.9H40c-0.1-7.8-6.4-14-14.2-14.2V11.3z"/>
	<path class="st14" d="M11.3,25.2c0.1-7.6,6.3-13.8,13.9-14V11c-7.8,0.1-14.1,6.4-14.2,14.2H11.3z"/>
	
		<linearGradient id="SVGID_13_" gradientUnits="userSpaceOnUse" x1="6.8789" y1="38.68" x2="28.1836" y2="59.2582" gradientTransform="matrix(1 0 0 1 -1.55 -15.59)">
		<stop  offset="0" style="stop-color:#EEF0F3"/>
		<stop  offset="0.11" style="stop-color:#E9EBED"/>
		<stop  offset="0.26" style="stop-color:#D9DBDE"/>
		<stop  offset="0.42" style="stop-color:#C0C1C3"/>
		<stop  offset="0.59" style="stop-color:#9C9D9F"/>
		<stop  offset="0.77" style="stop-color:#6E6F70"/>
		<stop  offset="0.96" style="stop-color:#373737"/>
		<stop  offset="1" style="stop-color:#2B2B2B"/>
	</linearGradient>
	<path class="st15" d="M25.3,39.7c-7.6-0.1-13.8-6.3-14-13.9h-0.2c0.1,7.8,6.4,14.1,14.2,14.2V39.7z"/>
	<path class="st16" d="M39.7,25.7c-0.1,7.6-6.3,13.8-13.9,13.9v0.2c7.8-0.1,14-6.4,14.2-14.2h-0.3V25.7z"/>
	
		<linearGradient id="SVGID_14_" gradientUnits="userSpaceOnUse" x1="16.7856" y1="31.097" x2="27.8246" y2="41.7728" gradientTransform="matrix(1 0 0 1 -1.11 -15.39)">
		<stop  offset="0" style="stop-color:#BDD5E5"/>
		<stop  offset="0.14" style="stop-color:#B5CEDF"/>
		<stop  offset="0.37" style="stop-color:#9FBCCD"/>
		<stop  offset="0.65" style="stop-color:#7B9EB1"/>
		<stop  offset="0.97" style="stop-color:#49758B"/>
		<stop  offset="1" style="stop-color:#437086"/>
	</linearGradient>
	<polygon class="st17" points="25,11 25,24.9 11,24.9 11,25.2 25,25.2 25.3,25.2 25.3,24.9 25.3,11 	"/>
	
		<linearGradient id="SVGID_15_" gradientUnits="userSpaceOnUse" x1="11.2204" y1="33.7571" x2="32.3025" y2="54.1242" gradientTransform="matrix(1 0 0 1 -1.11 -15.39)">
		<stop  offset="0" style="stop-color:#EEF0F3"/>
		<stop  offset="0.1" style="stop-color:#E5E7EA"/>
		<stop  offset="0.27" style="stop-color:#CDCFD1"/>
		<stop  offset="0.48" style="stop-color:#A6A7A9"/>
		<stop  offset="0.73" style="stop-color:#707071"/>
		<stop  offset="1" style="stop-color:#2B2B2B"/>
	</linearGradient>
	<polygon class="st18" points="24.9,39.8 24.9,26 11.2,26 11.2,25.8 24.9,25.8 25.2,25.8 25.2,26 25.2,39.8 	"/>
	
		<linearGradient id="SVGID_16_" gradientUnits="userSpaceOnUse" x1="26.7666" y1="41.2844" x2="34.1612" y2="48.4328" gradientTransform="matrix(1 0 0 1 -1.11 -15.39)">
		<stop  offset="0" style="stop-color:#D6DDE8"/>
		<stop  offset="0.12" style="stop-color:#D1DAE5"/>
		<stop  offset="0.26" style="stop-color:#C4D1DE"/>
		<stop  offset="0.41" style="stop-color:#ADC2D1"/>
		<stop  offset="0.56" style="stop-color:#8DAEBF"/>
		<stop  offset="0.72" style="stop-color:#6493A8"/>
		<stop  offset="0.87" style="stop-color:#32738C"/>
		<stop  offset="0.97" style="stop-color:#105D79"/>
	</linearGradient>
	<polygon class="st19" points="26.1,39.8 26.1,26 39.8,26 39.8,25.8 26.1,25.8 25.8,25.8 25.8,26 25.8,39.8 	"/>
	
		<linearGradient id="SVGID_17_" gradientUnits="userSpaceOnUse" x1="19.2323" y1="25.9781" x2="40.2909" y2="46.3218" gradientTransform="matrix(1 0 0 1 -1.11 -15.39)">
		<stop  offset="0" style="stop-color:#EEF0F3"/>
		<stop  offset="0.11" style="stop-color:#E9EBED"/>
		<stop  offset="0.26" style="stop-color:#D9DBDE"/>
		<stop  offset="0.42" style="stop-color:#C0C1C3"/>
		<stop  offset="0.59" style="stop-color:#9C9D9F"/>
		<stop  offset="0.77" style="stop-color:#6E6F70"/>
		<stop  offset="0.96" style="stop-color:#373737"/>
		<stop  offset="1" style="stop-color:#2B2B2B"/>
	</linearGradient>
	<polygon class="st20" points="26.1,11.1 26.1,24.9 39.8,24.9 39.8,25.2 26.1,25.2 25.8,25.2 25.8,24.9 25.8,11.1 	"/>
</g>
</svg>
