<?xml version="1.0" encoding="utf-8"?>
<!-- Generator: Adobe Illustrator 22.1.0, SVG Export Plug-In . SVG Version: 6.00 Build 0)  -->
<svg version="1.1" id="Layer_1" xmlns="http://www.w3.org/2000/svg" xmlns:xlink="http://www.w3.org/1999/xlink" x="0px" y="0px"
	 viewBox="0 0 51 51" style="enable-background:new 0 0 51 51;" xml:space="preserve">
<style type="text/css">
	.st0{fill:#231F20;}
	.st1{fill:url(#SVGID_1_);}
	.st2{fill:url(#SVGID_2_);}
	.st3{fill:url(#SVGID_3_);}
	.st4{fill:url(#SVGID_4_);}
	.st5{fill:url(#SVGID_5_);}
	.st6{fill:url(#SVGID_6_);}
	.st7{fill:url(#SVGID_7_);}
	.st8{fill:url(#SVGID_8_);}
</style>
<title>citroen</title>
<path class="st0" d="M25.5,16.8c5.4,0,18.4,11.2,20,12.6c0.1,0.1,0.3,0.2,0.5,0.2c0.4,0,0.4-0.7,0.4-0.7s0.1-1.4,0.1-2.9
	c-0.1-1.2-0.6-2.4-1.4-3.4c0,0-14.6-16.1-19.7-16.1S5.8,22.7,5.8,22.7C5,23.6,4.5,24.8,4.4,26c0,1.4,0.1,2.9,0.1,2.9s0,0.6,0.4,0.7
	c0.2,0,0.4,0,0.5-0.2C7.1,28,20.1,16.8,25.5,16.8z"/>
<path class="st0" d="M25.5,31.6c5.4,0,18.4,11.2,20,12.6c0.1,0.1,0.3,0.2,0.5,0.2c0.4,0,0.4-0.7,0.4-0.7s0.1-1.4,0.1-2.8
	c-0.1-1.2-0.6-2.4-1.4-3.4c0,0-14.5-16.1-19.7-16.1S5.8,37.5,5.8,37.5c-0.8,0.9-1.3,2.1-1.4,3.4c0,1.4,0.1,2.8,0.1,2.8
	s0,0.6,0.4,0.7c0.2,0,0.4,0,0.5-0.2C7.1,42.8,20.1,31.6,25.5,31.6z"/>
<linearGradient id="SVGID_1_" gradientUnits="userSpaceOnUse" x1="5.14" y1="288.8554" x2="46.66" y2="288.8554" gradientTransform="matrix(1 0 0 -1 -0.45 311.34)">
	<stop  offset="0" style="stop-color:#B6B3B5"/>
	<stop  offset="0.1" style="stop-color:#AEAAAD"/>
	<stop  offset="0.27" style="stop-color:#979296"/>
	<stop  offset="0.47" style="stop-color:#736C72"/>
	<stop  offset="0.5" style="stop-color:#6D666C"/>
	<stop  offset="0.62" style="stop-color:#8E898D"/>
	<stop  offset="0.79" style="stop-color:#B7B4B7"/>
	<stop  offset="0.92" style="stop-color:#D1CFD0"/>
	<stop  offset="0.99" style="stop-color:#DAD9DA"/>
</linearGradient>
<path class="st1" d="M10.8,20.3c-2.1,1.7-4.1,3.6-6,5.5c0,1,0.1,3.1,0.1,3.1s0,0.8,0.6,0.3L6,28.7c5.8-5.4,11.9-10.1,16.7-12.2
	c0.3-0.1,0.9-0.2,0.6-0.6c-0.2-0.2-0.7-0.2-1.1-0.2C17.2,15.9,11,20.1,10.8,20.3L10.8,20.3z"/>
<linearGradient id="SVGID_2_" gradientUnits="userSpaceOnUse" x1="5.13" y1="288.8554" x2="46.64" y2="288.8554" gradientTransform="matrix(1 0 0 -1 -0.45 311.34)">
	<stop  offset="0" style="stop-color:#B6B3B5"/>
	<stop  offset="0.1" style="stop-color:#AEAAAD"/>
	<stop  offset="0.27" style="stop-color:#979296"/>
	<stop  offset="0.47" style="stop-color:#736C72"/>
	<stop  offset="0.5" style="stop-color:#6D666C"/>
	<stop  offset="0.62" style="stop-color:#8E898D"/>
	<stop  offset="0.79" style="stop-color:#B7B4B7"/>
	<stop  offset="0.92" style="stop-color:#D1CFD0"/>
	<stop  offset="0.99" style="stop-color:#DAD9DA"/>
</linearGradient>
<path class="st2" d="M40.3,20.3c2.1,1.7,4.1,3.6,6,5.5c0,1-0.1,3.1-0.1,3.1s0,0.8-0.6,0.3l-0.5-0.5c-5.8-5.4-11.9-10.1-16.7-12.2
	c-0.3-0.1-0.9-0.2-0.6-0.6c0.2-0.2,0.7-0.2,1.1-0.2C33.9,15.9,40.1,20.1,40.3,20.3L40.3,20.3z"/>
<linearGradient id="SVGID_3_" gradientUnits="userSpaceOnUse" x1="5.14" y1="274.0895" x2="46.66" y2="274.0895" gradientTransform="matrix(1 0 0 -1 -0.45 311.34)">
	<stop  offset="0" style="stop-color:#B6B3B5"/>
	<stop  offset="0.1" style="stop-color:#AEAAAD"/>
	<stop  offset="0.27" style="stop-color:#979296"/>
	<stop  offset="0.47" style="stop-color:#736C72"/>
	<stop  offset="0.5" style="stop-color:#6D666C"/>
	<stop  offset="0.62" style="stop-color:#8E898D"/>
	<stop  offset="0.79" style="stop-color:#B7B4B7"/>
	<stop  offset="0.92" style="stop-color:#D1CFD0"/>
	<stop  offset="0.99" style="stop-color:#DAD9DA"/>
</linearGradient>
<path class="st3" d="M10.8,35c-2.1,1.7-4.1,3.6-6,5.5c0,1,0.1,3.1,0.1,3.1s0,0.8,0.6,0.3L6,43.4c5.8-5.4,11.9-10.1,16.7-12.2
	c0.3-0.1,0.9-0.2,0.6-0.6c-0.2-0.2-0.7-0.2-1.1-0.2C17.2,30.7,11,34.8,10.8,35L10.8,35z"/>
<linearGradient id="SVGID_4_" gradientUnits="userSpaceOnUse" x1="5.13" y1="274.0711" x2="46.64" y2="274.0711" gradientTransform="matrix(1 0 0 -1 -0.45 311.34)">
	<stop  offset="0" style="stop-color:#B6B3B5"/>
	<stop  offset="0.1" style="stop-color:#AEAAAD"/>
	<stop  offset="0.27" style="stop-color:#979296"/>
	<stop  offset="0.47" style="stop-color:#736C72"/>
	<stop  offset="0.5" style="stop-color:#6D666C"/>
	<stop  offset="0.62" style="stop-color:#8E898D"/>
	<stop  offset="0.79" style="stop-color:#B7B4B7"/>
	<stop  offset="0.92" style="stop-color:#D1CFD0"/>
	<stop  offset="0.99" style="stop-color:#DAD9DA"/>
</linearGradient>
<path class="st4" d="M40.3,35c2.1,1.7,4.1,3.6,6,5.5c0,1-0.1,3.1-0.1,3.1s0,0.8-0.6,0.3l-0.5-0.5c-5.8-5.3-11.9-10-16.7-12.1
	c-0.3-0.2-0.9-0.3-0.6-0.6s0.7-0.2,1.1-0.2C33.9,30.8,40.1,34.9,40.3,35L40.3,35z"/>
<linearGradient id="SVGID_5_" gradientUnits="userSpaceOnUse" x1="5.15" y1="294.98" x2="46.54" y2="294.98" gradientTransform="matrix(1 0 0 -1 -0.45 311.34)">
	<stop  offset="0" style="stop-color:#6D666C"/>
	<stop  offset="8.000000e-02" style="stop-color:#959094"/>
	<stop  offset="0.17" style="stop-color:#BBB8BA"/>
	<stop  offset="0.26" style="stop-color:#D9D7D8"/>
	<stop  offset="0.34" style="stop-color:#EEEDEE"/>
	<stop  offset="0.43" style="stop-color:#FBFAFB"/>
	<stop  offset="0.5" style="stop-color:#FFFFFF"/>
	<stop  offset="0.57" style="stop-color:#FAFAFA"/>
	<stop  offset="0.65" style="stop-color:#ECEBEC"/>
	<stop  offset="0.74" style="stop-color:#D5D3D5"/>
	<stop  offset="0.84" style="stop-color:#B5B2B5"/>
	<stop  offset="0.93" style="stop-color:#8D878C"/>
	<stop  offset="1" style="stop-color:#6D666C"/>
</linearGradient>
<path class="st5" d="M45,22.9C44.8,22.7,30.4,6.9,25.5,6.9S6.2,22.7,6,22.9c-0.7,0.8-1.1,1.8-1.3,2.9c1.9-1.9,3.9-3.8,6-5.5
	c3.1-2.6,0.9-0.8,2.2-1.8c3-2.2,8.2-5.7,12.6-5.7s9.6,3.5,12.6,5.7c1.3,1,2.2,1.8,2.2,1.8c2.1,1.7,4.1,3.6,6,5.5
	C46.1,24.7,45.7,23.7,45,22.9z"/>
<linearGradient id="SVGID_6_" gradientUnits="userSpaceOnUse" x1="5.15" y1="280.23" x2="46.54" y2="280.23" gradientTransform="matrix(1 0 0 -1 -0.45 311.34)">
	<stop  offset="0" style="stop-color:#6D666C"/>
	<stop  offset="8.000000e-02" style="stop-color:#959094"/>
	<stop  offset="0.17" style="stop-color:#BBB8BA"/>
	<stop  offset="0.26" style="stop-color:#D9D7D8"/>
	<stop  offset="0.34" style="stop-color:#EEEDEE"/>
	<stop  offset="0.43" style="stop-color:#FBFAFB"/>
	<stop  offset="0.5" style="stop-color:#FFFFFF"/>
	<stop  offset="0.57" style="stop-color:#FAFAFA"/>
	<stop  offset="0.65" style="stop-color:#ECEBEC"/>
	<stop  offset="0.74" style="stop-color:#D5D3D5"/>
	<stop  offset="0.84" style="stop-color:#B5B2B5"/>
	<stop  offset="0.93" style="stop-color:#8D878C"/>
	<stop  offset="1" style="stop-color:#6D666C"/>
</linearGradient>
<path class="st6" d="M45,37.6c-0.2-0.2-14.5-16-19.5-16S6.2,37.5,6,37.6c-0.7,0.8-1.1,1.9-1.3,2.9c1.9-1.9,3.9-3.8,6-5.5
	c0,0,0.9-0.8,2.2-1.8c3-2.2,8.2-5.7,12.6-5.7s9.6,3.5,12.6,5.8c1.3,1,2.2,1.8,2.2,1.8c2.1,1.7,4.1,3.6,6,5.5
	C46.1,39.5,45.7,38.5,45,37.6z"/>
<linearGradient id="SVGID_7_" gradientUnits="userSpaceOnUse" x1="26.0601" y1="295.3562" x2="45.6237" y2="295.7563" gradientTransform="matrix(1 0 0 -1 -0.45 311.34)">
	<stop  offset="0" style="stop-color:#F0F0F0"/>
	<stop  offset="1.000000e-02" style="stop-color:#EBEBEB"/>
	<stop  offset="7.000000e-02" style="stop-color:#BFBCBE"/>
	<stop  offset="0.13" style="stop-color:#9B979A"/>
	<stop  offset="0.19" style="stop-color:#827C81"/>
	<stop  offset="0.24" style="stop-color:#726C71"/>
	<stop  offset="0.28" style="stop-color:#6D666C"/>
	<stop  offset="0.38" style="stop-color:#746E74"/>
	<stop  offset="0.54" style="stop-color:#898489"/>
	<stop  offset="0.59" style="stop-color:#918C91"/>
	<stop  offset="1" style="stop-color:#6D666C"/>
</linearGradient>
<path class="st7" d="M45.2,23.9C37.2,14.6,28.3,7.5,25.8,7.4c-0.2,0-0.3,0.1-0.4,0.3l0,0c0,3,0.2,3.6,2.3,4.4
	c0.3,0.1,8.2,2.5,17.5,12l0.1,0.1L45.2,23.9z"/>
<linearGradient id="SVGID_8_" gradientUnits="userSpaceOnUse" x1="26.0601" y1="280.5762" x2="45.6237" y2="280.9763" gradientTransform="matrix(1 0 0 -1 -0.45 311.34)">
	<stop  offset="0" style="stop-color:#F0F0F0"/>
	<stop  offset="1.000000e-02" style="stop-color:#EBEBEB"/>
	<stop  offset="7.000000e-02" style="stop-color:#BFBCBE"/>
	<stop  offset="0.13" style="stop-color:#9B979A"/>
	<stop  offset="0.19" style="stop-color:#827C81"/>
	<stop  offset="0.24" style="stop-color:#726C71"/>
	<stop  offset="0.28" style="stop-color:#6D666C"/>
	<stop  offset="0.38" style="stop-color:#746E74"/>
	<stop  offset="0.54" style="stop-color:#898489"/>
	<stop  offset="0.59" style="stop-color:#918C91"/>
	<stop  offset="1" style="stop-color:#6D666C"/>
</linearGradient>
<path class="st8" d="M45.2,38.7c-8.1-9.3-16.9-16.4-19.4-16.5c-0.2,0-0.3,0.1-0.4,0.3l0,0c0,3,0.2,3.6,2.3,4.4
	c0.3,0.1,8.2,2.5,17.5,12l0.1,0.1L45.2,38.7z"/>
</svg>
