<?xml version="1.0" encoding="utf-8"?>
<!-- Generator: Adobe Illustrator 22.1.0, SVG Export Plug-In . SVG Version: 6.00 Build 0)  -->
<svg version="1.1" id="Layer_1" xmlns="http://www.w3.org/2000/svg" xmlns:xlink="http://www.w3.org/1999/xlink" x="0px" y="0px"
	 viewBox="0 0 50 50" style="enable-background:new 0 0 50 50;" xml:space="preserve">
<style type="text/css">
	.st0{fill:url(#SVGID_1_);}
	.st1{fill:url(#SVGID_2_);}
	.st2{fill:url(#SVGID_3_);}
	.st3{fill:#231F20;}
	.st4{fill:url(#SVGID_4_);}
	.st5{fill:url(#SVGID_5_);}
	.st6{fill:url(#SVGID_6_);}
	.st7{fill:url(#SVGID_7_);}
	.st8{fill:url(#SVGID_8_);}
	.st9{fill:url(#SVGID_9_);}
	.st10{fill:url(#SVGID_10_);}
</style>
<title>ds</title>
<linearGradient id="SVGID_1_" gradientUnits="userSpaceOnUse" x1="34.016" y1="37.93" x2="34.016" y2="10.41" gradientTransform="matrix(1 0 0 -1 0 57)">
	<stop  offset="4.000000e-02" style="stop-color:#9D9FA2"/>
	<stop  offset="0.15" style="stop-color:#B6B8BA"/>
	<stop  offset="0.39" style="stop-color:#EBEBEC"/>
	<stop  offset="0.51" style="stop-color:#FFFFFF"/>
	<stop  offset="0.57" style="stop-color:#FAFAFA"/>
	<stop  offset="0.65" style="stop-color:#EBECEC"/>
	<stop  offset="0.73" style="stop-color:#D3D4D5"/>
	<stop  offset="0.82" style="stop-color:#B2B2B4"/>
	<stop  offset="0.91" style="stop-color:#87888A"/>
	<stop  offset="0.96" style="stop-color:#6D6E71"/>
</linearGradient>
<path class="st0" d="M42.4,31.7L41.5,31L26.3,19.1c2.7,2.6,6.5,6.8,7.7,10.5c0.3,0.9,0.5,1.9,0.5,2.8c0,0.8-0.2,1.7-0.5,2.5
	c-0.9,2-2.2,3.9-3.8,5.5c-0.7,0.7-3.6,3.6-4.5,4.6l0,0c-0.2,0.2-0.4,0.5-0.4,0.8V46c0,0,0,0,0,0.1c0,0,0,0.1,0,0.1v0.1
	c0,0.1,0,0.1,0,0.2v0.2l17-13.3c0.3-0.2,0.5-0.5,0.5-0.9C42.8,32.1,42.6,31.9,42.4,31.7z"/>
<linearGradient id="SVGID_2_" gradientUnits="userSpaceOnUse" x1="-668.342" y1="-23.5159" x2="-667.672" y2="-31.1359" gradientTransform="matrix(1 0 0 -1 704.75 9.49)">
	<stop  offset="0" style="stop-color:#C7C8CA"/>
	<stop  offset="0.21" style="stop-color:#808285"/>
	<stop  offset="0.27" style="stop-color:#747679"/>
	<stop  offset="0.51" style="stop-color:#494749"/>
	<stop  offset="0.7" style="stop-color:#2D2A2B"/>
	<stop  offset="0.81" style="stop-color:#231F20"/>
</linearGradient>
<path class="st1" d="M31.4,41.1c-0.1-0.1,3.3-2.5,5.1-6.6c0.5-1.2,0.8-1.6,1.9-1.7s2.5-0.2,3.2-0.2c0.3,0,0.4,0,0.4,0.2
	S42,33,41.8,33.2c-1.8,1.3-4.4,3.4-8,6.2C33,40,32.3,40.6,31.4,41.1z"/>
<linearGradient id="SVGID_3_" gradientUnits="userSpaceOnUse" x1="33.9051" y1="53.62" x2="33.9051" y2="26.17" gradientTransform="matrix(1 0 0 -1 0 57)">
	<stop  offset="4.000000e-02" style="stop-color:#9D9FA2"/>
	<stop  offset="0.15" style="stop-color:#B6B8BA"/>
	<stop  offset="0.39" style="stop-color:#EBEBEC"/>
	<stop  offset="0.51" style="stop-color:#FFFFFF"/>
	<stop  offset="0.57" style="stop-color:#FAFAFA"/>
	<stop  offset="0.65" style="stop-color:#EBECEC"/>
	<stop  offset="0.73" style="stop-color:#D3D4D5"/>
	<stop  offset="0.82" style="stop-color:#B2B2B4"/>
	<stop  offset="0.91" style="stop-color:#87888A"/>
	<stop  offset="0.96" style="stop-color:#6D6E71"/>
</linearGradient>
<path class="st2" d="M33.9,20.4c-0.3-0.9-0.5-1.9-0.5-2.9c0-0.8,0.2-1.7,0.5-2.5c0.9-2.1,2.2-3.9,3.9-5.5C38.4,9,41,6.4,42.3,5.1
	l0,0c0.2-0.2,0.4-0.5,0.4-0.8c0-0.2,0-0.4,0-0.6V3.4l-17,13.3c-0.2,0.2-0.4,0.4-0.5,0.6c-0.1,0.2-0.1,0.3,0,0.5
	c0.1,0.2,0.2,0.3,0.3,0.5l0.9,0.7l15.1,11.9C38.9,28.2,35.1,24.1,33.9,20.4z"/>
<path class="st3" d="M33.1,20.2c-0.3-0.8-0.5-1.7-0.5-2.6c0-0.8,0.2-1.6,0.5-2.4c1.4-3.4,7.9-9.2,9.3-10.3l0,0c-1.2,0.8-6,5-7.2,6.2
	c-2,2-3.6,4.3-3.6,6.4c0,2.4,1.7,4.9,3.6,7.1c1.1,1.3,2.2,2.5,3.5,3.7c1.2,1.1,2,1.8,2.9,2.5C40.5,30,34.6,24.7,33.1,20.2z"/>
<linearGradient id="SVGID_4_" gradientUnits="userSpaceOnUse" x1="37.515" y1="26.19" x2="37.515" y2="52.11" gradientTransform="matrix(1 0 0 -1 0 57)">
	<stop  offset="4.000000e-02" style="stop-color:#6D6E71"/>
	<stop  offset="6.000000e-02" style="stop-color:#818285"/>
	<stop  offset="9.000000e-02" style="stop-color:#A3A3A5"/>
	<stop  offset="0.13" style="stop-color:#C0C0C1"/>
	<stop  offset="0.17" style="stop-color:#D7D7D8"/>
	<stop  offset="0.21" style="stop-color:#E9E9EA"/>
	<stop  offset="0.27" style="stop-color:#F6F6F6"/>
	<stop  offset="0.34" style="stop-color:#FDFDFD"/>
	<stop  offset="0.51" style="stop-color:#FFFFFF"/>
	<stop  offset="0.64" style="stop-color:#FDFDFD"/>
	<stop  offset="0.71" style="stop-color:#F5F5F5"/>
	<stop  offset="0.77" style="stop-color:#E7E7E7"/>
	<stop  offset="0.82" style="stop-color:#D3D4D4"/>
	<stop  offset="0.87" style="stop-color:#BABABC"/>
	<stop  offset="0.91" style="stop-color:#9B9C9E"/>
	<stop  offset="0.95" style="stop-color:#77787A"/>
	<stop  offset="0.96" style="stop-color:#6D6E71"/>
</linearGradient>
<path class="st4" d="M33.9,20.4c-0.3-0.9-0.5-1.9-0.5-2.9c0-0.8,0.2-1.7,0.5-2.5c0.9-2.1,2.2-3.9,3.9-5.5C38.4,9,41,6.4,42.3,5.1
	l0,0c0-0.1,0.1-0.1,0.2-0.2c-1.4,1.1-7.9,6.9-9.3,10.3c-0.3,0.8-0.5,1.6-0.5,2.4c0,0.9,0.2,1.8,0.5,2.6c1.6,4.5,7.4,9.7,8.4,10.6
	C38.8,28.2,35.1,24.1,33.9,20.4z"/>
<linearGradient id="SVGID_5_" gradientUnits="userSpaceOnUse" x1="30.3603" y1="11.92" x2="30.3603" y2="37.94" gradientTransform="matrix(1 0 0 -1 0 57)">
	<stop  offset="4.000000e-02" style="stop-color:#6D6E71"/>
	<stop  offset="6.000000e-02" style="stop-color:#818285"/>
	<stop  offset="9.000000e-02" style="stop-color:#A3A3A5"/>
	<stop  offset="0.13" style="stop-color:#C0C0C1"/>
	<stop  offset="0.17" style="stop-color:#D7D7D8"/>
	<stop  offset="0.21" style="stop-color:#E9E9EA"/>
	<stop  offset="0.27" style="stop-color:#F6F6F6"/>
	<stop  offset="0.34" style="stop-color:#FDFDFD"/>
	<stop  offset="0.51" style="stop-color:#FFFFFF"/>
	<stop  offset="0.64" style="stop-color:#FDFDFD"/>
	<stop  offset="0.71" style="stop-color:#F5F5F5"/>
	<stop  offset="0.77" style="stop-color:#E7E7E7"/>
	<stop  offset="0.82" style="stop-color:#D3D4D4"/>
	<stop  offset="0.87" style="stop-color:#BABABC"/>
	<stop  offset="0.91" style="stop-color:#9B9C9E"/>
	<stop  offset="0.95" style="stop-color:#77787A"/>
	<stop  offset="0.96" style="stop-color:#6D6E71"/>
</linearGradient>
<path class="st5" d="M34.8,29.8c-1.5-4.5-7.5-9.9-8.5-10.7l0,0c2.7,2.6,6.5,6.8,7.7,10.5c0.3,0.9,0.5,1.9,0.5,2.8
	c0,0.8-0.2,1.7-0.5,2.5c-0.9,2-2.2,3.9-3.8,5.5c-0.7,0.7-3.6,3.6-4.5,4.6l0,0c-0.1,0-0.1,0.1-0.1,0.2c1.4-1.1,7.9-6.9,9.3-10.3
	c0.3-0.8,0.5-1.6,0.6-2.4C35.3,31.6,35.1,30.7,34.8,29.8z"/>
<path class="st3" d="M32.7,25.4c-1.1-1.3-2.2-2.5-3.5-3.7c-1.2-1.1-2.1-1.9-3-2.6c1,0.9,7,6.2,8.5,10.7c0.3,0.8,0.5,1.7,0.5,2.6
	c0,0.8-0.2,1.6-0.5,2.4c-1.4,3.4-7.9,9.2-9.2,10.3l0,0c1.2-0.9,6-5,7.2-6.2c2-2,3.6-4.2,3.6-6.4C36.3,30,34.6,27.6,32.7,25.4z"/>
<path class="st3" d="M18.7,17.5c0,2.4-1.6,4.8-3.8,7c-1.3,1.3-2.6,2.5-4,3.7c-1.4,1.1-2.4,1.8-3.4,2.4c1.1-0.9,7.8-6.1,9.6-10.5
	c0.3-0.8,0.5-1.7,0.5-2.6c0-0.9-0.2-1.8-0.5-2.6c-1.8-4.4-8.5-9.6-9.6-10.5c1,0.7,2,1.4,3.4,2.5c1.4,1.1,2.8,2.4,4.1,3.7
	C17.1,12.8,18.7,15.2,18.7,17.5z"/>
<linearGradient id="SVGID_6_" gradientUnits="userSpaceOnUse" x1="12.585" y1="26.35" x2="12.585" y2="52.54" gradientTransform="matrix(1 0 0 -1 0 57)">
	<stop  offset="4.000000e-02" style="stop-color:#4D4D4D"/>
	<stop  offset="5.000000e-02" style="stop-color:#5A5A5A"/>
	<stop  offset="8.000000e-02" style="stop-color:#808080"/>
	<stop  offset="0.11" style="stop-color:#A3A3A3"/>
	<stop  offset="0.14" style="stop-color:#C0C0C0"/>
	<stop  offset="0.18" style="stop-color:#D7D7D7"/>
	<stop  offset="0.23" style="stop-color:#E9E9E9"/>
	<stop  offset="0.28" style="stop-color:#F6F6F6"/>
	<stop  offset="0.35" style="stop-color:#FDFDFD"/>
	<stop  offset="0.51" style="stop-color:#FFFFFF"/>
	<stop  offset="0.63" style="stop-color:#FDFDFD"/>
	<stop  offset="0.7" style="stop-color:#F5F5F5"/>
	<stop  offset="0.76" style="stop-color:#E7E7E7"/>
	<stop  offset="0.8" style="stop-color:#D3D3D3"/>
	<stop  offset="0.85" style="stop-color:#BABABA"/>
	<stop  offset="0.89" style="stop-color:#9B9B9B"/>
	<stop  offset="0.93" style="stop-color:#777777"/>
	<stop  offset="0.96" style="stop-color:#4D4D4D"/>
</linearGradient>
<path class="st6" d="M7.5,30.6c1.1-0.9,7.8-6.1,9.6-10.5c0.3-0.8,0.5-1.7,0.5-2.6c0-0.9-0.2-1.8-0.5-2.6c-1.8-4.4-8.5-9.6-9.6-10.5
	c1,0.9,7.2,6.1,8.9,10.5c0.3,0.8,0.5,1.7,0.5,2.6c0,0.9-0.2,1.8-0.5,2.6C14.8,24.6,8.6,29.8,7.5,30.6z"/>
<path class="st3" d="M42.5,31.6c-1.2-1.2-7-6.6-8.5-11.2c-0.3-0.9-0.5-1.8-0.5-2.8c0-0.8,0.2-1.6,0.5-2.4c0.9-2,2.2-3.9,3.8-5.4
	c0.7-0.7,3.6-3.6,4.5-4.6c0.2-0.2,0.4-0.5,0.4-0.8c0.1-0.3,0.1-0.5,0.1-0.8V3L25.6,16.5c-0.3,0.2-0.5,0.5-0.6,0.8
	c-0.1-0.3-0.3-0.6-0.6-0.8L7.1,3v29l17.3-13.5c0.3-0.2,0.5-0.5,0.6-0.8c0.1,0.2,0.2,0.4,0.3,0.6c1.3,1.2,7,6.6,8.5,11.2
	c0.3,0.9,0.5,1.8,0.5,2.8c0,0.8-0.2,1.6-0.5,2.4c-0.9,2-2.2,3.9-3.8,5.4c-0.7,0.7-3.6,3.6-4.5,4.6c-0.2,0.2-0.4,0.5-0.4,0.8
	C25,45.9,25,46.1,25,46.4V47l17.3-13.6c0.3-0.2,0.6-0.6,0.6-1C42.9,32.1,42.7,31.8,42.5,31.6z M24.3,18.4l-17,13.3V3.4l17,13.3
	c0.3,0.2,0.5,0.5,0.6,0.9C24.8,17.9,24.6,18.2,24.3,18.4z M25.2,17.8c-0.1-0.2-0.1-0.3,0-0.5c0.1-0.3,0.3-0.5,0.5-0.6L42.7,3.4v0.2
	c0,0.2,0,0.4,0,0.6c0,0.3-0.2,0.6-0.4,0.8c-1.3,1.3-4,3.9-4.6,4.5c-1.6,1.6-2.9,3.4-3.9,5.5c-0.3,0.8-0.5,1.6-0.5,2.5
	c0,1,0.2,1.9,0.5,2.9c1.2,3.7,5,7.8,7.6,10.5L26.4,19c0,0-0.7-0.6-0.9-0.7C25.3,18.2,25.2,18,25.2,17.8z M42.3,33.3L25.2,46.6v-0.2
	c0-0.2,0-0.4,0.1-0.6c0-0.3,0.2-0.6,0.4-0.8c1-1,3.8-3.8,4.5-4.6c1.6-1.6,2.9-3.4,3.9-5.5c0.3-0.8,0.5-1.6,0.5-2.5
	c0-1-0.2-1.9-0.5-2.8c-1.2-3.7-5.1-7.9-7.7-10.5L41.5,31c0,0,0.8,0.6,0.9,0.8c0.2,0.2,0.3,0.4,0.4,0.7
	C42.7,32.8,42.5,33.1,42.3,33.3z"/>
<linearGradient id="SVGID_7_" gradientUnits="userSpaceOnUse" x1="1931.9457" y1="38.8796" x2="1932.6158" y2="31.2396" gradientTransform="matrix(-1 0 0 -1 1963.25 57)">
	<stop  offset="0" style="stop-color:#C7C8CA"/>
	<stop  offset="0.21" style="stop-color:#808285"/>
	<stop  offset="0.27" style="stop-color:#747679"/>
	<stop  offset="0.51" style="stop-color:#494749"/>
	<stop  offset="0.7" style="stop-color:#2D2A2B"/>
	<stop  offset="0.81" style="stop-color:#231F20"/>
</linearGradient>
<path class="st7" d="M36.2,26.2c0,0-1.7-1.8-2-2c-1.4-1.4-2.6-3-3.6-4.6c-0.6-1.1-0.8-1.6-1.9-1.7s-1.9-0.1-2.6-0.1
	c-0.3,0-0.4,0-0.4,0.2s0.1,0.2,0.3,0.4c1.8,1.2,4.4,3.4,8,6.2C34.3,24.7,36.1,26.3,36.2,26.2z"/>
<linearGradient id="SVGID_8_" gradientUnits="userSpaceOnUse" x1="16.075" y1="53.64" x2="16.075" y2="25.28" gradientTransform="matrix(1 0 0 -1 0 57)">
	<stop  offset="4.000000e-02" style="stop-color:#9D9FA2"/>
	<stop  offset="0.15" style="stop-color:#B6B8BA"/>
	<stop  offset="0.39" style="stop-color:#EBEBEC"/>
	<stop  offset="0.51" style="stop-color:#FFFFFF"/>
	<stop  offset="0.57" style="stop-color:#FAFAFA"/>
	<stop  offset="0.65" style="stop-color:#EBECEC"/>
	<stop  offset="0.73" style="stop-color:#D3D4D5"/>
	<stop  offset="0.82" style="stop-color:#B2B2B4"/>
	<stop  offset="0.91" style="stop-color:#87888A"/>
	<stop  offset="0.96" style="stop-color:#6D6E71"/>
</linearGradient>
<path class="st8" d="M7.3,30.9l0.2-0.2l0,0c1-0.7,2-1.4,3.4-2.5c1.4-1.1,2.7-2.4,4-3.6c2.1-2.2,3.8-4.6,3.8-7s-1.6-4.8-3.8-7
	c-1.3-1.3-2.6-2.4-4-3.5C9.8,6.1,8.7,5.2,7.5,4.5L7.3,4.2V3.4l17,13.3c0.3,0.2,0.5,0.5,0.6,0.9c0,0.4-0.2,0.7-0.6,0.9l-17,13.3
	L7.3,30.9z"/>
<linearGradient id="SVGID_9_" gradientUnits="userSpaceOnUse" x1="18.5892" y1="38.8761" x2="19.2492" y2="31.2561" gradientTransform="matrix(1 0 0 -1 0 57)">
	<stop  offset="0" style="stop-color:#C7C8CA"/>
	<stop  offset="0.21" style="stop-color:#808285"/>
	<stop  offset="0.27" style="stop-color:#747679"/>
	<stop  offset="0.51" style="stop-color:#494749"/>
	<stop  offset="0.7" style="stop-color:#2D2A2B"/>
	<stop  offset="0.81" style="stop-color:#231F20"/>
</linearGradient>
<path class="st9" d="M13.6,26.2c0,0,0.4-0.4,1.4-1.4c0.2-0.2,0.5-0.4,0.7-0.6c1.4-1.4,2.6-3,3.6-4.6c0.6-1.1,0.8-1.6,1.9-1.7
	s1.9-0.1,2.6-0.1c0.3,0,0.4,0,0.4,0.2s-0.1,0.2-0.3,0.4c-1.8,1.2-4.3,3.4-8,6.2l-0.7,0.5C14.7,25.5,14.2,25.9,13.6,26.2z"/>
<linearGradient id="SVGID_10_" gradientUnits="userSpaceOnUse" x1="2.6726" y1="50.1024" x2="14.1932" y2="30.1415" gradientTransform="matrix(1 0 0 -1 0 57)">
	<stop  offset="2.000000e-02" style="stop-color:#F3F4F4"/>
	<stop  offset="0.37" style="stop-color:#EEEFEF"/>
	<stop  offset="0.73" style="stop-color:#E2E3E4"/>
	<stop  offset="0.96" style="stop-color:#BCBEC0"/>
</linearGradient>
<path class="st10" d="M16.4,20.2c-1.6,4.5-7.9,9.6-8.9,10.5l-0.3,0.2V4.2l0.2,0.2c1,0.9,7.2,6.1,8.9,10.5c0.3,0.8,0.5,1.7,0.5,2.6
	C16.9,18.4,16.7,19.3,16.4,20.2z"/>
</svg>
