<?xml version="1.0" encoding="utf-8"?>
<!-- Generator: Adobe Illustrator 22.1.0, SVG Export Plug-In . SVG Version: 6.00 Build 0)  -->
<svg version="1.1" id="Layer_1" xmlns="http://www.w3.org/2000/svg" xmlns:xlink="http://www.w3.org/1999/xlink" x="0px" y="0px"
	 viewBox="0 0 50 50" style="enable-background:new 0 0 50 50;" xml:space="preserve">
<style type="text/css">
	.st0{fill:#231F20;}
	.st1{fill:#BBBDBF;}
	.st2{fill:url(#SVGID_1_);}
	.st3{fill:#70111E;}
	.st4{fill:url(#SVGID_2_);}
	.st5{fill:url(#SVGID_3_);}
</style>
<title>fiat</title>
<g>
	<path class="st0" d="M48.1,25c0,12.7-10.3,23.1-23.1,23.1S1.9,37.7,1.9,25S12.3,1.9,25,1.9l0,0l0,0C37.7,1.9,48.1,12.2,48.1,25
		L48.1,25z"/>
	<circle class="st1" cx="25" cy="25" r="22.3"/>
	<path class="st0" d="M7.1,13.8l-2.5,0.4c0,0.1-0.1,12.7,2.1,12.1c1.5-0.7,0.7-9,0.7-7.8c0.1,2.7,0.3,5.4,0.8,8c0.7,4.5,0.4,5,0.7,6
		c-0.5-0.5-1.2-0.8-1.8-1l1.6,5.4l1.2-0.4l0,0c0.9,0.1,1.6,0.7,1.9,1.5c4.4,8.3,16.3,5.1,13.2,5.2l4.9-0.6
		c-14.3,2.5-17-4.1-17.7-5.5c-0.5-0.7-1.4-1.1-2.4-1c-0.1,0-0.1,0-0.2,0.1l-0.8,0.3c-0.1-0.3,3,0.2,2.7-0.7c0.6,0.6-1.5-1-1.5-1l0,0
		l1.1-0.2l-0.8-0.1c0-0.1,0.2-0.4-0.8-7.6C9,24.1,8.9,21.2,9,18.4c0.1-0.5,0-1.1-0.1-1.6L8,16.2H7.8c-0.2,0-0.4-0.1-0.6-0.2
		c0.1-0.1,0.1-0.3,0.1-0.5v-0.7c0-0.3,0-1.7-0.1-1.3c-2.8,24.1,1-2.6,0.5-2.1L8,11.1c1.3-1.5,5.9-5,17.7-5.2
		c12.4-0.3,12.5,4.3,12.5,4.3l3.2,1.6c0-0.1-4.2-7-16.9-6.7c-11.8,0.3-15.4,4.4-16.7,6l-0.3,0.3C7,12,6.4,12,6.4,12.9
		c0,0.5-0.5,1.1-0.5,1.5S7,15.6,7,15.8c0,0.1,0,0.1,0,0.2C7,15.2,7,14.5,7.1,13.8z M41.1,12.7c-0.3,0.1-0.2,0.6-0.2,1.1
		c0.1,0.4,0.1,0.9,0,1.3l0.3,0.1c0.1-0.5,0.1-1,0-1.4c0-0.3,0-0.6,0-0.9c0,0,0.1,3.4,0.8,4.3c1.1,1.3,0.6,0.5,0.6,2.8
		c0,1.1,0.8,2.4,0.8,2.9c-0.4-1-0.7-2-0.6-3.1c-0.1-1.4-0.2-2.6-0.7-3c-0.1-0.1-0.7-0.1-0.5-0.1c3.1-0.4-1.2-3.4-0.9-1.3
		c-0.2-0.8-0.4-1.5-0.7-2.2c-1.5-2.2-4.5-5-15.1-5.3c-9.7-0.3-14.6,3.6-15.8,4.8l0.2-0.3l-1.3-1l-0.6,4l0.5,0.7l1.3-3
		C9.4,12.9,14,7.6,25,8c11.8,0.4,13.9,3.8,14.8,5.2c0.4,0.7,0.6,1.4,0.7,2.1c0.1,0.9,0.3,1.7,1.3,1.6c0.1,0,0.2,0,0.2,0.1
		c0.4,0.3,0.5,1.6,0.6,2.8c0.2,1.6,0.3,3.2,1,3.5l0.2,0.1v-0.2c0-0.3,0.7-7.3-1.3-9.6C41.7,12.7,41.3,12.5,41.1,12.7L41.1,12.7z
		 M45.4,18.5c-0.2-0.9-0.5-1.8-0.9-2.7C44.9,16.6,45.2,17.5,45.4,18.5L45.4,18.5z M44.5,15.7l-0.2-0.3
		C44.4,15.5,44.5,15.6,44.5,15.7L44.5,15.7z M43.5,13.4c2.6,2.5,2.2,9.1,2.2,9.1L44.4,21v6.3l-0.9,1.8c-1.6,8.5-5.3,15.9-20,15.4
		S6.6,36.4,5.2,28.9c-0.8-5.2-0.6-10.5,0.6-15.6C1.5,26.3,6.6,36,6.6,36s2.5,9.1,17.6,9c15.1-0.2,17.6-8.5,17.6-8.5l0.3,2.1
		c0,0,3.5-3.2,4.6-10C47.2,25.2,45.1,14.9,43.5,13.4L43.5,13.4z M44.4,15.4L44.4,15.4z"/>
	
		<radialGradient id="SVGID_1_" cx="25.5848" cy="42.2173" r="21.8588" gradientTransform="matrix(1 0 0 1 -0.54 -17.3)" gradientUnits="userSpaceOnUse">
		<stop  offset="0.63" style="stop-color:#000000"/>
		<stop  offset="0.79" style="stop-color:#626366"/>
		<stop  offset="1" style="stop-color:#FFFFFF"/>
	</radialGradient>
	<path class="st2" d="M45.3,21.5v0.2C45.6,24.3,45.8,23.6,45.3,21.5z M7.7,11c0,0,2-1.8,3.4-3.2C9.8,8.6,8.6,9.7,7.7,11z M7.1,35.5
		c0.6,1.3,1.4,2.6,2.2,3.8C9.4,39.3,8.3,37.7,7.1,35.5z M44.3,13.5L44,12.4l3.4,1.2l-3.2-1.7l3.2-2l-3.6,1.5l0.6-3.6l-1.1,3.5
		l-0.8-0.2c-1.8-2.6-4.2-4-7.3-5.4c-5.7-2.7-13.4-2-13.4-2s9,0.1,15.9,4.2c1.4,0.9,2.6,2,3.6,3.4l-1.5,0.1l1.7,0.2
		c0.2,0.2,0.3,0.4,0.5,0.7l-2,1.1l2.1-0.9c0.2,0.4,0.4,0.7,0.6,1.1l-0.8,2.6l1-2.4c1.2,2.5,2.1,5.1,2.6,7.8c-0.2-3.1-0.9-6.1-2.1-9
		l0.1-0.2c2.5,3.8,3.6,8.4,3.1,12.9c-0.7,8-2.6,10.8-4.5,12.8l-0.1-1c0,0-2.8,8.3-16.5,8c-13.7-0.2-14.8-4.6-14.8-4.6l-0.8-0.4
		c0,0-3.2-2.5-5.3-9.3c-1.2-4-1.2-8.2-0.1-12.2c-0.6,3-0.7,6-0.3,9c0.6,2.7,1.7,5.3,3.1,7.7c-1.3-2-2.1-4.3-2.4-6.7
		C4.1,22.8,4.3,18.9,5.2,16s1.5-4.2,1.5-4.2s-4,4.7-4.1,14.6s8.3,16.8,12,18.2s15.5,3.4,22.5-1.5s6.6-6.2,8.9-10.8
		S47.5,18.4,44.3,13.5z M43,12.2c0-0.1-0.1-0.2-0.1-0.2l0.2-0.1L43,12.2z M9.4,11.8c0.5-1,3.6-2.7,3.6-2.7c-1.3,0.9-2.5,1.9-3.4,3.1
		c-1.8,2.1,0.7-0.2,4-2.4c2.4-1.4,5.2-2.1,8-2c0,0-1.5-1.2-7.3,0.6L19.8,6c0,0-8.6,1.8-11.1,5.4S8.8,12.8,9.4,11.8L9.4,11.8z
		 M38.1,11.6c0.6,0.7,1.2,1.4,1.8,2.1C39.6,12.8,38.9,12.1,38.1,11.6L38.1,11.6z M5.5,25.8c1,10.4,5.4,14.7,5.4,14.7
		s3.4,3.4,13.7,3.8s13.8-3.6,14-4.3s-1.3,0.4-1.8,0.2s1.5-3.8,1.5-3.8c-1,3.9,0.6-0.6,1.6-0.1c1.1,0.5-2.1,1.8-1.1,2.7
		c1,1,3.2-6,4.7-9.1c1.4-3.1,1-6.3,0.9-8.4c0-1-0.2-2-0.6-2.9l-0.3,4.8c0,0,0.2,0.7-1.3-2.7L41,17.4c-0.9,15.2-4.3,21-4.3,21
		s-1.2,3.8-11.3,3.9c-10,0.1-11.4-2.6-11.4-2.6c-3.2-4.3-5.2-13.4-4.7-19.5c0.5-6,0-7.7,4.3-9.5s10.8-2,10.8-2
		c7.8-0.2,11.7,1.3,13.7,2.7l-0.8-0.8c-1.4-1.4-14.7-4.1-21.7-1.5s-7.5,5.4-7,13.3c0.5,8,3,14.6,4.7,17.1s7.8,3.4,7.8,3.4
		c-8.3-0.2-9.3-4.6-9.8-5.4C11,37,9.6,35.4,9.2,36.6c-0.3,1.2-2.8-6.5-2.3-6.9s3.5,3.9,3.5,3.9s-1.1-2.2-2.2-8.1s0.6-9.1-0.5-9.2
		S9,25.2,6,25.6c-0.9,0.1-0.1-8,0.2-9.7c0.1-0.7,0.4-1.5,0.8-2.1C7.1,13.8,4.4,15.5,5.5,25.8z"/>
	<path class="st3" d="M38.7,11.9c-2.4-2.6-6.7-3.1-13.3-3c-6.6,0-11.4,0.6-13.7,3.3s-2.2,7.1-1.5,13.6c1.6,13.7,3.7,15.9,15.1,15.8
		c5.4,0,9-0.5,11.3-2.9c2.3-2.3,3.4-5.9,4.1-13.4C41.3,18.3,40.8,14.3,38.7,11.9z"/>
	
		<radialGradient id="SVGID_2_" cx="28.7975" cy="37.4977" r="10.7239" gradientTransform="matrix(1 0 0 1 -0.54 -17.3)" gradientUnits="userSpaceOnUse">
		<stop  offset="0" style="stop-color:#EC1C24"/>
		<stop  offset="1" style="stop-color:#961B1E"/>
	</radialGradient>
	<path class="st4" d="M33.8,40l0.5-0.2L34.6,10L34,9.9L33.8,40z M30,9.3c0,4.5-0.1,20.3-0.4,31.6c0.5,0,0.9-0.1,1.4-0.2
		c-0.2-11.6-0.3-27.5-0.3-31.3H30V9.3z M31,9.4l0.4,31.3l0.5-0.1c-0.1-11.5-0.1-27.1-0.1-31.2L31,9.4z M33,40.3l0.5-0.2l0.1-30.3
		c-0.2,0-0.4-0.1-0.6-0.1C32.9,14.3,33,31.9,33,40.3L33,40.3z M25.4,9.3h-0.3l0.3,31.9h0.5c-0.1-11.4-0.2-27.5-0.2-31.8L25.4,9.3z
		 M26,9.3l0.2,31.8h0.5V9.3H26z M34.7,39.6l0.5-0.3l0.4-29L35,10.1C34.9,14.8,34.8,28.7,34.7,39.6z M36.9,10.9l0.3,26.2
		c0.2-0.3,0.3-0.5,0.5-0.8c-0.1-9.5-0.1-20.1-0.1-25C37.3,11.2,37.1,11.1,36.9,10.9L36.9,10.9z M38.9,33c0.2-0.8,0.4-1.6,0.5-2.5
		V13.8c-0.2-0.4-0.4-0.8-0.6-1.1L38.9,33L38.9,33z M29,9.3c0,4.5-0.1,20.3-0.2,31.7h0.5l0.4-31.7C29.7,9.3,29,9.3,29,9.3z
		 M39.8,14.6v13.9c0.2-1.1,0.3-2.2,0.4-3.5c0-0.6,0.1-1.2,0.2-1.7v-5.9C40.3,16.5,40.1,15.5,39.8,14.6L39.8,14.6z M38.4,12.2
		c-0.2-0.2-0.3-0.3-0.5-0.5l0.2,23.9c0.2-0.4,0.3-0.9,0.5-1.4V12.3L38.4,12.2z M16,39.9l0.5,0.2l0.2-30.2L16.1,10L16,39.9z M27,41
		h0.5l0.2-31.7H27V41L27,41z M27.9,41h0.5l0.3-31.7H28L27.9,41z M31.9,9.5l0.2,31l0.5-0.1V9.6L31.9,9.5z M11.1,30.2
		c0.2,0.9,0.3,1.7,0.5,2.4l0.2-20.1c-0.2,0.3-0.4,0.6-0.6,0.9C11.2,17.7,11.2,24,11.1,30.2z M10.3,23.4c0.1,0.7,0.1,1.5,0.2,2.2
		c0.1,0.8,0.2,1.6,0.3,2.4l0.1-14.1c-0.3,0.7-0.5,1.4-0.6,2.2V23.4z M12.3,12c0,5.4-0.1,14-0.2,22c0.3,1.1,0.7,2.1,1.3,3.1
		c-0.1-9.1-0.2-19.9-0.3-25.7C12.7,11.6,12.5,11.8,12.3,12L12.3,12z M35.9,10.4c0,4.9-0.2,18.1-0.3,28.6c0.5-0.4,0.9-0.8,1.3-1.3
		c-0.2-10.2-0.2-22.3-0.3-26.9C36.4,10.7,36.1,10.6,35.9,10.4L35.9,10.4z M13.4,11.2l0.3,26.5c0.1,0.2,0.3,0.4,0.5,0.6
		C14.1,28.7,14,16.7,14,10.8C13.8,10.9,13.6,11,13.4,11.2L13.4,11.2z M14.4,10.7l0.2,28c0.2,0.2,0.3,0.3,0.5,0.4V10.4L14.4,10.7z
		 M24.2,9.3c0,5-0.2,20.8-0.4,31.8h1.4C25,29.7,24.9,13.7,24.9,9.3H24.2z M19.3,9.6l0.3,31.3h0.5C20,30,20,14.7,20,9.5L19.3,9.6z
		 M15.3,39.4c0.2,0.1,0.3,0.2,0.5,0.3l0.1-29.6l-0.7,0.2C15.2,16.8,15.3,32,15.3,39.4z M23.1,9.3c0,5-0.1,20.8-0.2,31.8h0.5
		l0.4-31.8C23.8,9.3,23.1,9.3,23.1,9.3z M17.2,9.8c0,5.8-0.1,20-0.2,30.4l0.5,0.2l0.4-30.7L17.2,9.8z M18.2,9.7
		c0,5.7-0.2,20.3-0.4,30.9c0.5,0.1,0.9,0.2,1.4,0.3C19,30,18.9,14.9,18.9,9.6L18.2,9.7z M22.1,41h0.5l0.2-31.7h-0.6L22.1,41z
		 M21.2,41h0.5l0.1-31.7h-0.6V41L21.2,41z M20.2,9.4l0.2,31.5h0.4V9.3L20.2,9.4z"/>
	
		<radialGradient id="SVGID_3_" cx="26.3124" cy="38.438" r="21.3136" gradientTransform="matrix(1 0 0 1 -0.54 -17.3)" gradientUnits="userSpaceOnUse">
		<stop  offset="0" style="stop-color:#FFFFFF"/>
		<stop  offset="1" style="stop-color:#626366"/>
	</radialGradient>
	<path class="st5" d="M19.3,34.4h3V16.1h-3V34.4z M12.9,34.4h3v-8.3H18v-2.4h-2.2v-5.3h2.5v-2.3h-5.4V34.4z M30.9,16.1v2.3h1.8v15.9
		h3V18.4h2v-2.3H30.9z M29.1,16.1h-5.6v18.3h3v-8.3h2.3c0.1,0.5,0.1,1,0.1,1.5v6.8h2.6v-6.8c-0.1-2-0.3-4.1-0.7-6.1
		C30.5,19.6,29.9,17.8,29.1,16.1L29.1,16.1z M28.6,23.8h-2.2v-5.3H27c0.6,0.9,1,1.8,1.2,2.9c0.2,0.8,0.3,1.6,0.3,2.5h0.1V23.8z"/>
	<path class="st0" d="M19.1,15.9v18.6h3.2V15.9H19.1z M22.1,16.3v18h-2.7v-18H22.1z"/>
	<path class="st0" d="M12.7,15.9v18.6H16v-8.3h2.1v-2.7H16v-5h2.5v-2.7L12.7,15.9L12.7,15.9z M18.1,16.3v2h-2.4v5.6h2.1v2h-2.1v8.3
		H13V16.3H18.1z"/>
	<path class="st0" d="M30.7,15.9v2.7h1.8v16h3.3v-16h2v-2.7C37.8,15.9,30.7,15.9,30.7,15.9z M37.5,16.3v2h-2v16h-2.7v-16H31v-2H37.5
		z"/>
	<path class="st0" d="M23.3,15.9v18.6h3.3v-8.3h2.1c0.1,0.4,0.1,0.9,0.1,1.3v7h2.9v-7c0-2.1-0.2-4.1-0.6-6.1c-0.4-1.9-1-3.7-1.8-5.4
		h-0.1L23.3,15.9z M29,16.3c0.8,1.7,1.4,3.4,1.8,5.2c0.4,2,0.6,4.1,0.6,6.1v6.7h-2.3v-6.7c0-0.5-0.1-1-0.1-1.5V26h-2.7v8.3h-2.6
		V16.4L29,16.3z"/>
	<path class="st0" d="M26.3,18.3v5.6h2.4v-0.2c0-0.8-0.1-1.7-0.3-2.5c-0.2-1.1-0.6-2.1-1.2-3l0,0h-0.9V18.3z M26.9,18.6
		c0.5,0.8,0.9,1.8,1.1,2.7c0.2,0.7,0.3,1.5,0.3,2.2h-1.8v-5L26.9,18.6z"/>
</g>
</svg>
