<svg id="Layer_1" data-name="Layer 1" xmlns="http://www.w3.org/2000/svg" xmlns:xlink="http://www.w3.org/1999/xlink" viewBox="0 0 50 50"><defs><style>.cls-1{fill:#d4d6d7;}.cls-2{fill:#00295e;}.cls-3{fill:#eeefef;}.cls-4{fill:#002d63;}.cls-5{fill:#00518f;}.cls-6{fill:url(#linear-gradient);}.cls-7{fill:url(#linear-gradient-2);}</style><linearGradient id="linear-gradient" x1="27.87" y1="768.05" x2="27.87" y2="779.35" gradientTransform="translate(0 -746)" gradientUnits="userSpaceOnUse"><stop offset="0" stop-color="#fff"/><stop offset="0.25" stop-color="#fdfdfd"/><stop offset="0.39" stop-color="#f5f5f5"/><stop offset="0.5" stop-color="#e7e7e7"/><stop offset="0.59" stop-color="#d3d3d3"/><stop offset="0.68" stop-color="#bababa"/><stop offset="0.76" stop-color="#9b9b9b"/><stop offset="0.83" stop-color="#757575"/><stop offset="0.9" stop-color="#4a4a4a"/><stop offset="0.97" stop-color="#1b1b1b"/><stop offset="1" stop-color="#020202"/></linearGradient><linearGradient id="linear-gradient-2" x1="21.03" y1="768.05" x2="21.03" y2="779.35" xlink:href="#linear-gradient"/></defs><title>ford</title><path class="cls-1" d="M2.55,25c0-4.76,10.06-8.6,22.44-8.6s22.46,4,22.46,8.6S37.39,33.57,25,33.57,2.55,29.8,2.55,25ZM25,34.68c13.82,0,25-4.34,25-9.69s-11.19-9.71-25-9.71S0,19.7,0,25s11.19,9.73,25,9.73Z"/><path class="cls-2" d="M25,32.43c11.67,0,21.18-3.3,21.18-7.44S36.72,17.6,25.05,17.6,3.89,21,3.89,25s9.45,7.37,21.1,7.37Z"/><path class="cls-3" d="M3.89,25c0-4.08,9.45-7.39,21.1-7.39S46.17,21,46.17,25s-9.45,7.37-21.12,7.37S3.89,29.13,3.89,25ZM25,32.91c12,0,21.68-3.48,21.68-7.92S37,17.06,25,17.06,3.33,20.65,3.33,25s9.71,8,21.66,8Z"/><path class="cls-2" d="M25,17.7c-13.8,0-21.11,4.16-21,7.2,0,.69,9.69.48,21.05.38,11.34.1,21,.31,21-.38C46.17,21.86,38.81,17.69,25,17.7Z"/><path class="cls-4" d="M25,17.76c-13.55,0-20.88,4.06-20.88,7,0,.67,9.62.44,20.88.35,11.26.09,20.87.32,20.87-.35C45.89,21.82,38.55,17.75,25,17.76Z"/><path class="cls-5" d="M25,17.82c-13.29,0-20.72,4-20.72,6.87,0,.66,9.53.39,20.72.31s20.7.35,20.7-.31C45.72,21.8,38.3,17.81,25,17.82Z"/><path class="cls-2" d="M25,16.46C12.61,16.46,2.55,20.35,2.55,25S12.61,33.57,25,33.57,47.45,29.8,47.45,25,37.39,16.46,25,16.46ZM25,33C13,33,3.33,29.5,3.33,25.06S13,17.12,25,17.12s21.68,3.48,21.68,7.94S37,33,25,33Z"/><path class="cls-6" d="M37.62,22.56c0-.07,0-.1-.06-.1H36.4c-.07,0-.16,0-.19.1s-1.64,2.65-2,3.1c-.07.08-.12.08-.12,0a1,1,0,0,0-.7-.75,1.48,1.48,0,0,0-.83-.12,2.74,2.74,0,0,0-1.39.69c-.65.45-1.16,1.05-1.86,1.5-.38.27-.9.46-1.24.15a1,1,0,0,1,.19-1.42h.11a.59.59,0,0,0,.19.6.6.6,0,0,0,.75.08,1,1,0,0,0,.54-.76.87.87,0,0,0-.71-1h-.09a1.55,1.55,0,0,0-1.16.42,2.14,2.14,0,0,0-.46.49s-.07.07-.07,0c0-.65-.26-1-.8-1a2,2,0,0,0-1.16.48,10.3,10.3,0,0,0-1.09,1.1h-.08A2.47,2.47,0,0,0,23.92,25c-.09-.12-.24-.2-.34-.12s-.27.15-.42.27-.08.15,0,.25A3,3,0,0,1,23,27.31a2.33,2.33,0,0,1-1.29,1.27.8.8,0,0,1-.94-.25A1.66,1.66,0,0,1,21,26.47a3.66,3.66,0,0,1,1.63-1.16c.08,0,.11-.07.08-.11a1.34,1.34,0,0,0-.12-.3c0-.16-.18-.19-.37-.16a3.09,3.09,0,0,0-1.25.42,4.12,4.12,0,0,0-1.77,2.15,1.59,1.59,0,0,1-.31.57,4.26,4.26,0,0,1-.75.72.14.14,0,0,0,0,.15,1,1,0,0,0,.27.37h.15a5.76,5.76,0,0,0,.75-.64.15.15,0,0,1,.12.07,1.75,1.75,0,0,0,1,1.16,2.67,2.67,0,0,0,2.69-.95,8.34,8.34,0,0,0,.79-1.06,9.07,9.07,0,0,1,1.62-1.77c.27-.19.57-.34.75-.27s.15.3,0,.64c-.75,1.37-1.81,2.91-2,3.29v.12h1.16a.12.12,0,0,0,.11-.08c.54-.87,1.06-1.7,1.63-2.57h.08a1.47,1.47,0,0,0,.18.68.88.88,0,0,0,.84.45,1.57,1.57,0,0,0,.71-.1c.23-.12.41-.24.56-.32s.09,0,.09,0a1.68,1.68,0,0,0,.69,1.86A2.06,2.06,0,0,0,32.6,29s.12,0,.12.07a1,1,0,0,0,.27.61c.45.42,1.32.26,2.22-.45a11.74,11.74,0,0,0,1.68-1.7v-.11l-.3-.27h-.1a14.47,14.47,0,0,1-1.79,1.62c-.22.19-.64.3-.79.08a.37.37,0,0,1,0-.38c.24-.52,3.48-5.59,3.7-5.86ZM33.24,26.8s0,.08.12.08V27a4.61,4.61,0,0,1-.46.72,1.69,1.69,0,0,1-.56.6c-.34.3-.79.6-1.16.38a.51.51,0,0,1-.26-.5,2.83,2.83,0,0,1,.71-1.65c.53-.69,1.16-1,1.55-.84s.27.69.07,1.07v.07Z"/><path class="cls-7" d="M13.57,29.63a2.32,2.32,0,0,1-2.46-2.09,2.65,2.65,0,0,1,.57-1.93,2.56,2.56,0,0,1,1.51-1,.56.56,0,0,1,.5.1.25.25,0,0,1,.08.34h0a.3.3,0,0,1-.08.08,2.7,2.7,0,0,0-1.16,1.06,1.14,1.14,0,0,0,0,1.3c.48.75,1.89.8,3.17-.42.31-.3.61-.56.91-.91a15.25,15.25,0,0,0,1.47-1.92h0a2.17,2.17,0,0,0-1.4.49.29.29,0,0,1-.35,0h0a.3.3,0,0,1,.15-.39,5.2,5.2,0,0,1,2.19-.72h.07c.34-.41.57-.75.91-1.16a10.3,10.3,0,0,1,1.1-1.09,4.84,4.84,0,0,1,1.05-.68c.07,0,0-.12,0-.12a9.3,9.3,0,0,0-5.1-.07c-1.16.42-1.69,1.33-1.44,2,.15.42.76.49,1.29.24a2.8,2.8,0,0,0,1.16-1c.19-.27.52-.09.34.37a3.2,3.2,0,0,1-2.57,2.12,1.51,1.51,0,0,1-1.59-1.42h0v-.16c0-1.74,1.93-2.88,4-3.06,2.45-.19,4.76.45,7.22.75a15.64,15.64,0,0,0,5.5-.18c.24-.08.39.07.39.3s-.27.64-.87,1a4.55,4.55,0,0,1-2.23.49A24,24,0,0,1,22.5,20.8V21A8,8,0,0,0,20,23.55h0a10.34,10.34,0,0,0,1.47-.07c.08,0,.08,0,.08-.12a1.18,1.18,0,0,1,.37-1.05.83.83,0,0,1,1-.12.82.82,0,0,1,.11,1,1.15,1.15,0,0,1-.71.57v0c0,.08.37.25.41.33a.21.21,0,0,1,0,.19c-.07,0-.1.08-.18.08a.19.19,0,0,1-.19-.08,1.14,1.14,0,0,1-.54-.52.31.31,0,0,0-.19,0c-.64,0-1.29.09-1.92.18a.23.23,0,0,0-.19.09,21.69,21.69,0,0,1-2.88,4.11A4.11,4.11,0,0,1,13.57,29.63ZM22,23.12c0,.08,0,.08.08.08a1,1,0,0,0,.45-.33c.11-.15.15-.35,0-.46s-.22,0-.34,0a.85.85,0,0,0-.23.68Z"/></svg>