<?xml version="1.0" encoding="utf-8"?>
<!-- Generator: Adobe Illustrator 22.1.0, SVG Export Plug-In . SVG Version: 6.00 Build 0)  -->
<svg version="1.1" id="Layer_1" xmlns="http://www.w3.org/2000/svg" xmlns:xlink="http://www.w3.org/1999/xlink" x="0px" y="0px"
	 viewBox="0 0 50 50" style="enable-background:new 0 0 50 50;" xml:space="preserve">
<style type="text/css">
	.st0{fill:none;}
	.st1{fill:url(#SVGID_1_);}
	.st2{fill:url(#SVGID_2_);}
	.st3{opacity:0.45;fill:#FFFFFF;enable-background:new    ;}
	.st4{fill:url(#SVGID_3_);}
	.st5{fill:url(#SVGID_4_);}
	.st6{fill:url(#SVGID_5_);}
	.st7{fill:url(#SVGID_6_);}
	.st8{fill:url(#SVGID_7_);}
	.st9{fill:url(#SVGID_8_);}
	.st10{opacity:0.45;fill:#D6D6D6;enable-background:new    ;}
	.st11{fill:url(#SVGID_9_);}
	.st12{fill:url(#SVGID_10_);}
	.st13{fill:url(#SVGID_11_);}
	.st14{fill:url(#SVGID_12_);}
	.st15{fill:url(#SVGID_13_);}
	.st16{fill:url(#SVGID_14_);}
	.st17{fill:url(#SVGID_15_);}
	.st18{opacity:0.55;fill:#FFFFFF;enable-background:new    ;}
	.st19{fill:url(#SVGID_16_);}
	.st20{fill:url(#SVGID_17_);}
</style>
<title>honda</title>
<path class="st0" d="M44,11.2l-0.3-0.3l-0.1-0.1c-0.2-0.2-0.4-0.4-0.6-0.5c-0.4-0.3-0.9-0.5-1.4-0.7C41,9.3,40.5,9.2,39.9,9
	c-0.1-0.1-0.2-0.2-0.4-0.2C39.3,8.8,39,9,39,9.2c0,0,0,0.1,0,0.1c0,0.2,0,2-0.1,5v3.9l-0.1,1v0.6l-0.1,1v0.1c0,0.5-0.1,1.1-0.1,1.6
	v0.2c0,0.5-0.1,1.1-0.1,1.7v0.3l-0.1,0.7v0.5c0,0.1,0.1,0.2,0,0.4c-0.1,0.2-0.1,0.5-0.1,0.7v0.8c-0.3,3.9-0.7,7.9-1.2,11.8
	c-0.1,0.3-0.1,0.6-0.1,0.8l0,0c0,0.3,0.3,0.6,0.6,0.6c0,0,0,0,0,0l0,0c0.5,0,0.9-0.1,1.4-0.2c1.2-0.4,2.3-1,3.3-1.8
	c0.3-0.3,0.5-0.6,0.8-1c0.2-0.2,0.3-0.5,0.4-0.8c0.1-0.3,0.5-1.3,0.6-2.1c0-0.2,0.4-2.2,0.5-2.5s0.1-0.6,0.2-0.9v-0.3l0.1-0.4
	c0.5-3.7,0.7-7.4,0.6-11.1C45.5,17.3,45.7,13.6,44,11.2z"/>
<path class="st0" d="M35.2,8.4c-0.3-0.1-1.4-0.2-3.1-0.3h-0.8l0,0C27.7,8,25.1,8,25,8s-2.6,0-6.3,0.1H18c-1.7,0.1-2.8,0.2-3.1,0.3
	c-0.1,0-0.1,0.1-0.1,0.2l0.3,1.3h0.1c0.8,3.1,1.7,6.8,2.5,9.8c0.5,2.1,1.3,4.1,2.3,6c0.6,0.9,1.6,1.6,2.7,1.8
	c0.7,0.1,1.5,0.1,2.3,0.1c0.8,0,1.5,0,2.3-0.1c1.1-0.3,2.1-0.9,2.7-1.9c1-1.8,1.8-3.8,2.3-5.9c0.8-3,1.7-6.7,2.6-9.8l0.1,0
	c0.1-0.6,0.2-1,0.3-1.3C35.3,8.6,35.3,8.5,35.2,8.4z"/>
<linearGradient id="SVGID_1_" gradientUnits="userSpaceOnUse" x1="36.8532" y1="29.05" x2="36.8532" y2="74.16" gradientTransform="matrix(1 0 0 1 0 -21)">
	<stop  offset="0" style="stop-color:#4E4E4E"/>
	<stop  offset="0.14" style="stop-color:#9E9E9E"/>
	<stop  offset="0.41" style="stop-color:#C4C4C4"/>
	<stop  offset="0.68" style="stop-color:#919191"/>
	<stop  offset="0.76" style="stop-color:#7D7D7D"/>
	<stop  offset="0.87" style="stop-color:#8C8E90"/>
	<stop  offset="1" style="stop-color:#5F5F61"/>
</linearGradient>
<path class="st1" d="M48.6,20.1c0,0.2,0,0.4,0,0.6s0,0.4,0,0.5c0-0.1,0-0.1,0-0.2c0,0.8,0,1.6,0,2.4c0,1-0.1,2-0.2,3V27
	c-0.2,2.9-0.6,5.9-1.3,8.7c-0.2,0.9-0.5,1.8-0.9,2.7c-0.2,0.6-0.6,1.2-1,1.7c-0.7,0.8-1.5,1.4-2.4,1.9l-0.5,0.2
	c-2.7,1.2-5.8,1.3-8.7,1.5s-5.7,0.3-8.6,0.3l0,0c2.9,0,5.7-0.1,8.6-0.3s6-0.3,8.7-1.5l0.5-0.2c0.9-0.5,1.8-1.1,2.4-1.9
	c0.4-0.5,0.8-1.1,1-1.7c0.4-0.9,0.7-1.8,0.9-2.7c0.7-2.9,1.1-5.8,1.2-8.7v-0.5c0.1-1,0.1-2,0.2-3S48.7,21.2,48.6,20.1z"/>
<linearGradient id="SVGID_2_" gradientUnits="userSpaceOnUse" x1="48.6263" y1="29.05" x2="48.6263" y2="74.16" gradientTransform="matrix(1 0 0 1 0 -21)">
	<stop  offset="0" style="stop-color:#4E4E4E"/>
	<stop  offset="0.14" style="stop-color:#9E9E9E"/>
	<stop  offset="0.41" style="stop-color:#C4C4C4"/>
	<stop  offset="0.68" style="stop-color:#919191"/>
	<stop  offset="0.76" style="stop-color:#7D7D7D"/>
	<stop  offset="0.87" style="stop-color:#8C8E90"/>
	<stop  offset="1" style="stop-color:#5F5F61"/>
</linearGradient>
<path class="st2" d="M48.6,20.1c0-0.4,0-0.8,0-1.2c0,0.5,0,1.1,0,1.6C48.6,20.4,48.6,20.2,48.6,20.1z"/>
<path class="st3" d="M48.3,14.4c0,0.2,0.1,0.4,0.1,0.6c0.1,1.3,0.2,2.6,0.2,3.9c0-1.6-0.1-3.2-0.2-4.8h-0.1
	C48.3,14.2,48.3,14.3,48.3,14.4z"/>
<linearGradient id="SVGID_3_" gradientUnits="userSpaceOnUse" x1="48.6278" y1="29.05" x2="48.6278" y2="74.16" gradientTransform="matrix(1 0 0 1 0 -21)">
	<stop  offset="0" style="stop-color:#4E4E4E"/>
	<stop  offset="0.14" style="stop-color:#9E9E9E"/>
	<stop  offset="0.41" style="stop-color:#C4C4C4"/>
	<stop  offset="0.68" style="stop-color:#919191"/>
	<stop  offset="0.76" style="stop-color:#7D7D7D"/>
	<stop  offset="0.87" style="stop-color:#8C8E90"/>
	<stop  offset="1" style="stop-color:#5F5F61"/>
</linearGradient>
<path class="st4" d="M48.6,21.3c0-0.2,0-0.4,0-0.5v0.3C48.6,21.1,48.6,21.2,48.6,21.3z"/>
<path class="st3" d="M48.6,21.3c0-0.2,0-0.4,0-0.5v0.3C48.6,21.1,48.6,21.2,48.6,21.3z"/>
<linearGradient id="SVGID_4_" gradientUnits="userSpaceOnUse" x1="48.62" y1="29.05" x2="48.62" y2="74.16" gradientTransform="matrix(1 0 0 1 0 -21)">
	<stop  offset="0" style="stop-color:#4E4E4E"/>
	<stop  offset="0.14" style="stop-color:#9E9E9E"/>
	<stop  offset="0.41" style="stop-color:#C4C4C4"/>
	<stop  offset="0.68" style="stop-color:#919191"/>
	<stop  offset="0.76" style="stop-color:#7D7D7D"/>
	<stop  offset="0.87" style="stop-color:#8C8E90"/>
	<stop  offset="1" style="stop-color:#5F5F61"/>
</linearGradient>
<path class="st5" d="M48.6,20.7c0-0.2,0-0.4,0-0.6l0,0c0,0.1,0,0.2,0,0.4V20.7z"/>
<path class="st3" d="M48.6,20.7c0-0.2,0-0.4,0-0.6l0,0c0,0.1,0,0.2,0,0.4V20.7z"/>
<linearGradient id="SVGID_5_" gradientUnits="userSpaceOnUse" x1="48.63" y1="41.09" x2="48.63" y2="41.09" gradientTransform="matrix(1 0 0 1 0 -21)">
	<stop  offset="0" style="stop-color:#4E4E4E"/>
	<stop  offset="0.14" style="stop-color:#9E9E9E"/>
	<stop  offset="0.41" style="stop-color:#C4C4C4"/>
	<stop  offset="0.68" style="stop-color:#919191"/>
	<stop  offset="0.76" style="stop-color:#7D7D7D"/>
	<stop  offset="0.87" style="stop-color:#8C8E90"/>
	<stop  offset="1" style="stop-color:#5F5F61"/>
</linearGradient>
<path class="st6" d="M48.6,20.1L48.6,20.1L48.6,20.1z"/>
<linearGradient id="SVGID_6_" gradientUnits="userSpaceOnUse" x1="48.63" y1="41.09" x2="48.63" y2="41.09" gradientTransform="matrix(1 0 0 1 0 -21)">
	<stop  offset="0" style="stop-color:#4E4E4E"/>
	<stop  offset="0.14" style="stop-color:#9E9E9E"/>
	<stop  offset="0.41" style="stop-color:#C4C4C4"/>
	<stop  offset="0.68" style="stop-color:#919191"/>
	<stop  offset="0.76" style="stop-color:#7D7D7D"/>
	<stop  offset="0.87" style="stop-color:#8C8E90"/>
	<stop  offset="1" style="stop-color:#5F5F61"/>
</linearGradient>
<path class="st7" d="M48.6,20.1L48.6,20.1L48.6,20.1z"/>
<path class="st3" d="M48.6,20.1L48.6,20.1L48.6,20.1z"/>
<path class="st0" d="M44,11.2l-0.3-0.3l-0.1-0.1c-0.2-0.2-0.4-0.4-0.6-0.5c-0.4-0.3-0.9-0.5-1.4-0.7C41,9.3,40.5,9.2,39.9,9
	c-0.1-0.1-0.2-0.2-0.4-0.2C39.3,8.8,39,9,39,9.2c0,0,0,0.1,0,0.1c0,0.2,0,2-0.1,5v3.9l-0.1,1v0.6l-0.1,1v0.1c0,0.5-0.1,1.1-0.1,1.6
	v0.2c0,0.5-0.1,1.1-0.1,1.7v0.3l-0.1,0.7v0.5c0,0.1,0.1,0.2,0,0.4c-0.1,0.2-0.1,0.5-0.1,0.7v0.8c-0.3,3.9-0.7,7.9-1.2,11.8
	c-0.1,0.3-0.1,0.6-0.1,0.8l0,0c0,0.3,0.3,0.6,0.6,0.6c0,0,0,0,0,0l0,0c0.5,0,0.9-0.1,1.4-0.2c1.2-0.4,2.3-1,3.3-1.8
	c0.3-0.3,0.5-0.6,0.8-1c0.2-0.2,0.3-0.5,0.4-0.8c0.1-0.3,0.5-1.3,0.6-2.1c0-0.2,0.4-2.2,0.5-2.5s0.1-0.6,0.2-0.9v-0.3l0.1-0.4
	c0.5-3.7,0.7-7.4,0.6-11.1C45.5,17.3,45.7,13.6,44,11.2z"/>
<path class="st0" d="M31.8,40.1C31.4,39,30.5,36,30.5,36v-0.1c-0.1-0.3-0.2-0.7-0.4-1.1c-0.3-0.7-0.7-1.3-1.3-1.7
	c-0.3-0.2-0.5-0.3-0.8-0.4l-0.5-0.1c-0.3-0.1-0.6-0.1-0.9-0.1H25c-0.5,0-1.1,0-1.5,0s-0.6,0.1-0.9,0.1l-0.5,0.1
	c-0.3,0.1-0.6,0.2-0.8,0.4c-0.6,0.4-1.1,1-1.3,1.7c-0.2,0.4-0.3,0.8-0.4,1.1V36c0,0-0.9,2.9-1.3,4.1l-0.1,0.4v0.2c0,0,0,0.1,0.1,0.1
	l0,0v0.1l-0.1,0.4v0.2c0,0,0,0.1,0.1,0.1h13.6c0,0,0.1-0.1,0.1-0.1c0-0.1,0,0,0-0.2c-0.1-0.1-0.1-0.3-0.1-0.4v-0.1h0.1
	c0,0,0.1-0.1,0.1-0.1c0-0.1,0,0,0-0.2C31.8,40.4,31.8,40.3,31.8,40.1z"/>
<path class="st0" d="M35.2,8.4c-0.3-0.1-1.4-0.2-3.1-0.3h-0.8l0,0C27.7,8,25.1,8,25,8s-2.6,0-6.3,0.1H18c-1.7,0.1-2.8,0.2-3.1,0.3
	c-0.1,0-0.1,0.1-0.1,0.2l0.3,1.3h-0.2c-0.1,0-0.1,0.1-0.1,0.2l0.4,1.7c0.8,3.2,1.8,6.9,2.6,10c0.5,2.1,1.3,4.1,2.3,6
	c0.6,0.9,1.6,1.6,2.7,1.8c0.7,0.1,1.5,0.1,2.3,0.1c0.8,0,1.5,0,2.3-0.1c1.1-0.2,2.1-0.9,2.7-1.8c1-1.8,1.8-3.8,2.3-5.8
	c0.8-3,1.8-6.9,2.6-10c0.2-0.7,0.3-1.3,0.4-1.7c0-0.1-0.1-0.2-0.2-0.2L35,10c0.1-0.6,0.2-1,0.3-1.3C35.3,8.6,35.3,8.5,35.2,8.4z"/>
<path class="st0" d="M10.9,27.8V27c-0.1-0.2-0.1-0.5-0.1-0.8c0-0.1,0-0.3,0-0.4c0-0.2-0.1-0.4-0.1-0.6l-0.1-0.6v-0.4
	c-0.1-0.6-0.1-1.1-0.1-1.7v-0.1c0-0.2-0.1-0.5-0.1-0.7V9.2C10.5,9.1,10.3,9,10.1,9C9.6,9.2,9.1,9.3,8.5,9.5C8,9.7,7.6,9.9,7.1,10.2
	c-0.2,0.1-0.4,0.3-0.7,0.5l-0.1,0.1l-0.3,0.3c-0.1,0.2-0.2,0.3-0.3,0.5c-1.5,2.4-1.3,5.8-1.3,8.5c-0.1,3.7,0.2,7.4,0.6,11.1l0.1,0.5
	v0.2c0.1,0.4,0.1,0.6,0.2,0.9s0.5,2.3,0.5,2.5C6,36,6.2,36.7,6.4,37.4c0.1,0.3,0.3,0.5,0.4,0.8c0.2,0.4,0.5,0.7,0.8,1
	c1,0.8,2.1,1.4,3.3,1.8c0.2,0.1,0.5,0.1,0.7,0.2l0,0c0.3,0,0.6-0.3,0.6-0.6c0,0,0,0,0,0c-0.1-0.3-0.1-0.6-0.1-0.8
	C11.6,35.7,11.2,31.8,10.9,27.8z"/>
<radialGradient id="SVGID_7_" cx="24.985" cy="45.0286" r="20.7952" gradientTransform="matrix(1 0 0 1.05 0 -22.78)" gradientUnits="userSpaceOnUse">
	<stop  offset="0" style="stop-color:#4E4E4E"/>
	<stop  offset="0.28" style="stop-color:#FFFFFF"/>
	<stop  offset="0.81" style="stop-color:#8C8E90"/>
	<stop  offset="1" style="stop-color:#505050"/>
</radialGradient>
<path class="st8" d="M48.3,15.6c-0.2-1.4-1-5.1-4.4-6.5L43.7,9c-1.3-0.5-2.7-0.9-4.1-1.1h-0.1l0,0c-0.2,0-0.3-0.1-0.5-0.1
	C35.6,7.3,32.1,7.1,28.6,7h-7.2c-0.8,0-1.6,0-2.4,0.1h-1c-1,0.1-1.9,0.1-2.4,0.2c-1.5,0.1-3,0.3-4.6,0.5C9.4,7.9,7.8,8.4,6.3,9H6
	c-3.4,1.4-4.2,5.1-4.3,6.5c-0.1,0.9-0.2,1.8-0.3,2.6c0,0.5,0,1.1,0,1.6s0,1.1,0,1.6c0,0.1,0,0.1,0,0.2c0,1,0.1,2.1,0.2,3.2
	c0.2,3,0.6,5.9,1.3,8.8c0.2,0.9,0.5,1.8,0.9,2.7c0.2,0.6,0.6,1.2,1,1.7c0.7,0.8,1.5,1.5,2.5,1.9c0.2,0.1,0.3,0.2,0.5,0.2
	c2.7,1.2,5.8,1.3,8.7,1.5S22.2,42,25,42s5.7-0.1,8.6-0.3s6-0.3,8.7-1.5l0.5-0.2c0.9-0.5,1.8-1.1,2.4-1.9c0.4-0.5,0.8-1.1,1-1.7
	c0.4-0.9,0.7-1.8,0.9-2.7c0.7-2.9,1.1-5.8,1.3-8.7v-0.5c0.1-1,0.1-2,0.2-3c0-0.2,0-0.3,0-0.5c0-1.5-0.1-3.1-0.2-4.6
	C48.3,16,48.3,15.8,48.3,15.6z M11.6,41.2L11.6,41.2c-0.2,0-0.5-0.1-0.7-0.2c-1.2-0.4-2.3-1.1-3.3-1.8c-0.3-0.3-0.5-0.6-0.8-1
	c-0.1-0.2-0.3-0.5-0.4-0.8C6.2,36.7,6,36,5.8,35.3c0-0.2-0.4-2.1-0.5-2.5s-0.1-0.6-0.2-0.9v-0.2l-0.1-0.5c-0.5-3.7-0.7-7.4-0.6-11.1
	c0-2.7-0.2-6.1,1.3-8.5c0.1-0.2,0.2-0.3,0.3-0.5l0.3-0.3l0.1-0.1c0.2-0.2,0.4-0.4,0.7-0.5C7.6,9.9,8,9.7,8.5,9.5
	C9.1,9.3,9.6,9.2,10.1,9c0.2,0,0.3,0.1,0.4,0.2v12.6c0,0.2,0,0.5,0.1,0.7v0.1c0.1,0.5,0.1,1.1,0.1,1.7v0.4l0.1,0.6
	c0,0.2,0,0.4,0.1,0.6c0,0.1,0,0.3,0,0.4c0,0.3,0,0.5,0.1,0.8v0.8c0.3,4,0.7,7.9,1.2,11.9c0,0.3,0,0.6,0.1,0.8
	C12.2,40.8,12,41.1,11.6,41.2C11.6,41.2,11.6,41.2,11.6,41.2z M31.9,40.7c0,0.1,0,0.1-0.1,0.1h-0.1V41c0,0.1,0.1,0.3,0.1,0.4
	c0,0.1,0,0.1,0,0.2c0,0.1,0,0.1-0.1,0.1H18.1c0,0-0.1-0.1-0.1-0.1v-0.2l0.1-0.4v-0.1l0,0c0,0-0.1-0.1-0.1-0.1v-0.2l0.1-0.4
	c0.3-1.2,1.2-4.1,1.2-4.1v-0.1c0.1-0.3,0.2-0.7,0.4-1.1c0.3-0.7,0.7-1.3,1.3-1.7c0.3-0.2,0.5-0.3,0.8-0.4l0.5-0.1
	c0.3-0.1,0.6-0.1,0.9-0.1s0.9,0,1.5,0h1.5c0.3,0,0.6,0.1,0.9,0.1l0.5,0.1c0.3,0.1,0.6,0.2,0.8,0.4c0.6,0.4,1.1,1,1.3,1.7
	c0.2,0.4,0.3,0.8,0.4,1.1V36c0,0,0.9,3,1.3,4.1c0,0.1,0.1,0.3,0.1,0.4C31.9,40.7,31.9,40.6,31.9,40.7z M35.2,10
	c0.1,0,0.1,0.1,0.2,0.2c-0.1,0.4-0.2,1-0.4,1.7c-0.8,3.2-1.8,7-2.6,10.1C31.8,24,31,26,30,27.8c-0.6,0.9-1.6,1.6-2.7,1.9
	c-0.8,0.1-1.5,0.1-2.3,0.1c-0.8,0-1.5,0-2.3-0.1c-1.1-0.3-2.1-0.9-2.8-1.8c-1-1.9-1.8-3.9-2.3-6c-0.8-3.1-1.8-6.8-2.6-10l-0.4-1.7
	c0-0.1,0.1-0.2,0.1-0.2h0.2l-0.3-1.3c0-0.1,0.1-0.2,0.1-0.2c0.3-0.1,1.4-0.2,3.1-0.3h0.8C22.4,8,24.9,8,25,8s2.7,0,6.3,0.1l0,0h0.8
	c1.7,0.1,2.8,0.2,3.1,0.3c0.1,0,0.1,0.1,0.2,0.2c-0.1,0.3-0.2,0.8-0.3,1.3L35.2,10z M45,31.3l-0.1,0.4V32c-0.1,0.3-0.1,0.7-0.2,0.9
	s-0.4,2.3-0.5,2.5c-0.2,0.8-0.5,1.8-0.6,2.1c-0.1,0.3-0.3,0.5-0.4,0.8c-0.2,0.4-0.5,0.7-0.8,1c-1,0.7-2.2,1.3-3.4,1.8
	c-0.4,0.1-0.9,0.2-1.3,0.2l0,0c-0.3,0-0.6-0.3-0.6-0.6c0,0,0,0,0,0l0,0c0-0.3,0-0.6,0.1-0.8c0.5-3.9,0.9-7.9,1.2-11.8v-0.8
	c0-0.2,0-0.5,0.1-0.7c0.1-0.2,0-0.3,0-0.4v-0.5l0.1-0.7v-0.3c0-0.6,0.1-1.1,0.1-1.7v-0.2c0-0.6,0.1-1.1,0.1-1.6v-0.1l0.1-1v-0.6
	l0.1-1v-3.9c0.1-3,0.1-4.8,0.1-5c0-0.3,0.2-0.5,0.5-0.5c0,0,0,0,0,0c0.2,0,0.3,0.1,0.4,0.2c0.5,0.2,1.1,0.3,1.6,0.5
	c0.5,0.2,1,0.4,1.4,0.7c0.2,0.2,0.4,0.3,0.6,0.5l0.1,0.1l0.3,0.3c1.8,2.4,1.6,6.1,1.6,9C45.6,23.9,45.5,27.6,45,31.3z"/>
<linearGradient id="SVGID_8_" gradientUnits="userSpaceOnUse" x1="1.37" y1="29.05" x2="1.37" y2="74.16" gradientTransform="matrix(1 0 0 1 0 -21)">
	<stop  offset="0" style="stop-color:#4E4E4E"/>
	<stop  offset="0.14" style="stop-color:#9E9E9E"/>
	<stop  offset="0.41" style="stop-color:#C4C4C4"/>
	<stop  offset="0.68" style="stop-color:#919191"/>
	<stop  offset="0.76" style="stop-color:#7D7D7D"/>
	<stop  offset="0.87" style="stop-color:#8C8E90"/>
	<stop  offset="1" style="stop-color:#5F5F61"/>
</linearGradient>
<path class="st9" d="M1.4,19.5c0,0.5,0,0.9,0,1.4V19.5z"/>
<path class="st10" d="M1.4,19.2L1.4,19.2c0-0.7,0-1.4,0.1-2.2c0-0.9,0.1-1.8,0.3-2.6c0.2-1.4,1-5.1,4.3-6.5l0.2-0.1
	c1.5-0.6,3.1-1,4.7-1.2c3.5-0.4,6.9-0.7,10.4-0.8h7.2c3.5,0.1,6.9,0.3,10.4,0.8c1.6,0.2,3.2,0.6,4.7,1.2l0.2,0.1
	c3.1,1.3,4.1,4.6,4.3,6.1h0.1c0-0.2,0-0.4-0.1-0.6c-0.2-1.4-1-5.1-4.4-6.5l-0.2-0.1c-1.5-0.6-3.1-1-4.7-1.2
	c-3.5-0.4-6.9-0.7-10.4-0.8h-7.2C17.9,4.9,14.4,5.2,11,5.6C9.4,5.8,7.8,6.2,6.3,6.8L6,6.9c-3.4,1.4-4.2,5.1-4.3,6.5
	c-0.1,0.9-0.2,1.7-0.2,2.6c-0.1,1.1-0.1,2.3-0.1,3.4c0,0,0-0.1,0-0.1C1.4,19.3,1.4,19.2,1.4,19.2z"/>
<linearGradient id="SVGID_9_" gradientUnits="userSpaceOnUse" x1="1.3778" y1="29.05" x2="1.3778" y2="74.16" gradientTransform="matrix(1 0 0 1 0 -21)">
	<stop  offset="0" style="stop-color:#4E4E4E"/>
	<stop  offset="0.14" style="stop-color:#9E9E9E"/>
	<stop  offset="0.41" style="stop-color:#C4C4C4"/>
	<stop  offset="0.68" style="stop-color:#919191"/>
	<stop  offset="0.76" style="stop-color:#7D7D7D"/>
	<stop  offset="0.87" style="stop-color:#8C8E90"/>
	<stop  offset="1" style="stop-color:#5F5F61"/>
</linearGradient>
<path class="st11" d="M1.4,19.4C1.4,19.4,1.4,19.5,1.4,19.4v0.3C1.4,19.6,1.4,19.5,1.4,19.4z"/>
<path class="st3" d="M1.4,19.4C1.4,19.4,1.4,19.5,1.4,19.4v0.3C1.4,19.6,1.4,19.5,1.4,19.4z"/>
<linearGradient id="SVGID_10_" gradientUnits="userSpaceOnUse" x1="24.995" y1="29.05" x2="24.995" y2="74.16" gradientTransform="matrix(1 0 0 1 0 -21)">
	<stop  offset="0" style="stop-color:#4E4E4E"/>
	<stop  offset="0.14" style="stop-color:#9E9E9E"/>
	<stop  offset="0.41" style="stop-color:#C4C4C4"/>
	<stop  offset="0.68" style="stop-color:#919191"/>
	<stop  offset="0.76" style="stop-color:#7D7D7D"/>
	<stop  offset="0.87" style="stop-color:#8C8E90"/>
	<stop  offset="1" style="stop-color:#5F5F61"/>
</linearGradient>
<path class="st12" d="M43.9,7.9l-0.2-0.1c-1.5-0.6-3.1-1-4.7-1.2c-3.4-0.4-6.9-0.7-10.4-0.8h-7.2C17.9,5.9,14.5,6.2,11,6.6
	C9.4,6.7,7.8,7.1,6.3,7.8L6.1,7.8c-3.4,1.4-4.2,5.1-4.3,6.5c-0.1,0.9-0.2,1.8-0.3,2.6c0,0.8,0,1.5-0.1,2.3c0,0.2,0,0.4,0,0.5
	c0-0.5,0-1.1,0-1.6c0-0.9,0.1-1.8,0.3-2.6c0.2-1.5,1-5.1,4.3-6.6h0.3C7.8,8.4,9.4,8,11,7.8c1.5-0.2,3-0.3,4.6-0.5
	c0.5-0.1,1.4-0.1,2.4-0.2h1c0.8,0,1.6-0.1,2.4-0.1h7.2c3.5,0.1,6.9,0.3,10.4,0.7c0.2,0,0.3,0,0.5,0.1l0,0h0.1
	C41,8.1,42.4,8.5,43.7,9l0.2,0.1c3.4,1.4,4.2,5,4.4,6.5c0,0.2,0.1,0.4,0.1,0.6c0.1,1.5,0.2,3.1,0.2,4.6c0-0.1,0-0.2,0-0.4
	c0-0.5,0-1.1,0-1.6c0-1.3-0.1-2.6-0.2-3.9l0,0c0-0.2,0-0.4-0.1-0.6c0-0.1,0-0.2,0-0.3l0,0C48,12.4,47.1,9.2,43.9,7.9z"/>
<path class="st3" d="M43.9,7.9l-0.2-0.1c-1.5-0.6-3.1-1-4.7-1.2c-3.4-0.4-6.9-0.7-10.4-0.8h-7.2C17.9,5.9,14.5,6.2,11,6.6
	C9.4,6.7,7.8,7.1,6.3,7.8L6.1,7.8c-3.4,1.4-4.2,5.1-4.3,6.5c-0.1,0.9-0.2,1.8-0.3,2.6c0,0.8,0,1.5-0.1,2.3c0,0.2,0,0.4,0,0.5
	c0-0.5,0-1.1,0-1.6c0-0.9,0.1-1.8,0.3-2.6c0.2-1.5,1-5.1,4.3-6.6h0.3C7.8,8.4,9.4,8,11,7.8c1.5-0.2,3-0.3,4.6-0.5
	c0.5-0.1,1.4-0.1,2.4-0.2h1c0.8,0,1.6-0.1,2.4-0.1h7.2c3.5,0.1,6.9,0.3,10.4,0.7c0.2,0,0.3,0,0.5,0.1l0,0h0.1
	C41,8.1,42.4,8.5,43.7,9l0.2,0.1c3.4,1.4,4.2,5,4.4,6.5c0,0.2,0.1,0.4,0.1,0.6c0.1,1.5,0.2,3.1,0.2,4.6c0-0.1,0-0.2,0-0.4
	c0-0.5,0-1.1,0-1.6c0-1.3-0.1-2.6-0.2-3.9l0,0c0-0.2,0-0.4-0.1-0.6c0-0.1,0-0.2,0-0.3l0,0C48,12.4,47.1,9.2,43.9,7.9z"/>
<path class="st3" d="M7.8,42.4c-0.2-0.1-0.3-0.2-0.5-0.2c-0.9-0.4-1.8-1.1-2.4-1.9c-0.4-0.5-0.8-1.1-1-1.7c-0.4-0.9-0.7-1.8-0.9-2.7
	C2.2,32.9,1.8,30,1.6,27c-0.1-1.1-0.2-2.2-0.2-3.2v-0.2c0-0.9-0.1-1.8-0.1-2.6c0,0.9,0,1.8,0.1,2.6c0,0.1,0,0.1,0,0.2
	c0,1,0.1,2.1,0.2,3.2c0.2,3,0.6,5.9,1.3,8.8c0.2,0.9,0.5,1.8,0.9,2.7c0.2,0.6,0.6,1.2,1,1.7c0.7,0.8,1.5,1.4,2.4,1.9
	C7.4,42.2,7.6,42.3,7.8,42.4c2.7,1.3,5.8,1.4,8.7,1.6s5.7,0.3,8.6,0.3l0,0c-2.9,0-5.7-0.1-8.6-0.3S10.4,43.6,7.8,42.4z"/>
<linearGradient id="SVGID_11_" gradientUnits="userSpaceOnUse" x1="25.0112" y1="29.05" x2="25.0112" y2="74.16" gradientTransform="matrix(1 0 0 1 0 -21)">
	<stop  offset="0" style="stop-color:#4E4E4E"/>
	<stop  offset="0.14" style="stop-color:#9E9E9E"/>
	<stop  offset="0.41" style="stop-color:#C4C4C4"/>
	<stop  offset="0.68" style="stop-color:#919191"/>
	<stop  offset="0.76" style="stop-color:#7D7D7D"/>
	<stop  offset="0.87" style="stop-color:#8C8E90"/>
	<stop  offset="1" style="stop-color:#5F5F61"/>
</linearGradient>
<path class="st13" d="M48.6,20.8c0,0.2,0,0.3,0,0.5c0,1-0.1,2-0.2,3v0.5c-0.2,2.9-0.6,5.9-1.3,8.7c-0.2,0.9-0.5,1.8-0.9,2.7
	c-0.2,0.6-0.6,1.2-1,1.7c-0.7,0.8-1.5,1.4-2.4,1.9l-0.5,0.2c-2.7,1.2-5.8,1.3-8.7,1.5S27.9,42,25,42s-5.7-0.1-8.6-0.3
	s-6-0.3-8.7-1.5c-0.2-0.1-0.3-0.2-0.5-0.2c-0.9-0.4-1.8-1.1-2.4-1.9c-0.4-0.5-0.8-1.1-1-1.7c-0.4-0.9-0.7-1.8-0.9-2.7
	c-0.7-2.9-1.1-5.8-1.3-8.8c-0.1-1.1-0.2-2.2-0.2-3.2c0-0.1,0-0.1,0-0.2c0-0.5,0-1,0-1.6c0,0.2,0,0.4,0,0.6c0-0.2,0-0.5,0-0.7v1.2
	c0,0.9,0,1.8,0.1,2.6v0.2c0,1,0.1,2.1,0.2,3.2c0.1,3,0.6,5.9,1.2,8.8c0.2,0.9,0.5,1.8,0.9,2.7c0.2,0.6,0.6,1.2,1,1.7
	c0.7,0.8,1.5,1.4,2.4,1.9c0.2,0.1,0.3,0.2,0.5,0.2c2.7,1.2,5.8,1.3,8.7,1.5s5.7,0.3,8.6,0.3s5.7-0.1,8.6-0.3s6-0.3,8.7-1.5l0.5-0.2
	c0.9-0.5,1.8-1.1,2.4-1.9c0.4-0.5,0.8-1.1,1-1.7c0.4-0.9,0.7-1.8,0.9-2.7c0.7-2.9,1.1-5.8,1.3-8.8v-0.5c0.1-1,0.1-2,0.2-3
	c0-0.8,0-1.6,0-2.4C48.6,21,48.6,20.9,48.6,20.8z"/>
<path class="st3" d="M48.6,20.8c0,0.2,0,0.3,0,0.5c0,1-0.1,2-0.2,3v0.5c-0.2,2.9-0.6,5.9-1.3,8.7c-0.2,0.9-0.5,1.8-0.9,2.7
	c-0.2,0.6-0.6,1.2-1,1.7c-0.7,0.8-1.5,1.4-2.4,1.9l-0.5,0.2c-2.7,1.2-5.8,1.3-8.7,1.5S27.9,42,25,42s-5.7-0.1-8.6-0.3
	s-6-0.3-8.7-1.5c-0.2-0.1-0.3-0.2-0.5-0.2c-0.9-0.4-1.8-1.1-2.4-1.9c-0.4-0.5-0.8-1.1-1-1.7c-0.4-0.9-0.7-1.8-0.9-2.7
	c-0.7-2.9-1.1-5.8-1.3-8.8c-0.1-1.1-0.2-2.2-0.2-3.2c0-0.1,0-0.1,0-0.2c0-0.5,0-1,0-1.6c0,0.2,0,0.4,0,0.6c0-0.2,0-0.5,0-0.7v1.2
	c0,0.9,0,1.8,0.1,2.6v0.2c0,1,0.1,2.1,0.2,3.2c0.1,3,0.6,5.9,1.2,8.8c0.2,0.9,0.5,1.8,0.9,2.7c0.2,0.6,0.6,1.2,1,1.7
	c0.7,0.8,1.5,1.4,2.4,1.9c0.2,0.1,0.3,0.2,0.5,0.2c2.7,1.2,5.8,1.3,8.7,1.5s5.7,0.3,8.6,0.3s5.7-0.1,8.6-0.3s6-0.3,8.7-1.5l0.5-0.2
	c0.9-0.5,1.8-1.1,2.4-1.9c0.4-0.5,0.8-1.1,1-1.7c0.4-0.9,0.7-1.8,0.9-2.7c0.7-2.9,1.1-5.8,1.3-8.8v-0.5c0.1-1,0.1-2,0.2-3
	c0-0.8,0-1.6,0-2.4C48.6,21,48.6,20.9,48.6,20.8z"/>
<path class="st3" d="M1.4,19.2c0,0.1,0,0.1,0,0.2V19.2z"/>
<path class="st3" d="M1.4,19.2c0,0.1,0,0.1,0,0.2V19.2z"/>
<linearGradient id="SVGID_12_" gradientUnits="userSpaceOnUse" x1="1.38" y1="29.05" x2="1.38" y2="74.16" gradientTransform="matrix(1 0 0 1 0 -21)">
	<stop  offset="0" style="stop-color:#4E4E4E"/>
	<stop  offset="0.14" style="stop-color:#9E9E9E"/>
	<stop  offset="0.41" style="stop-color:#C4C4C4"/>
	<stop  offset="0.68" style="stop-color:#919191"/>
	<stop  offset="0.76" style="stop-color:#7D7D7D"/>
	<stop  offset="0.87" style="stop-color:#8C8E90"/>
	<stop  offset="1" style="stop-color:#5F5F61"/>
</linearGradient>
<path class="st14" d="M1.4,19.4c0,0.1,0,0.2,0,0.3s0,0.5,0,0.7c0-0.2,0-0.4,0-0.6s0-0.4,0-0.5V19.4z"/>
<path class="st3" d="M1.4,19.4c0,0.1,0,0.2,0,0.3s0,0.5,0,0.7c0-0.2,0-0.4,0-0.6s0-0.4,0-0.5V19.4z"/>
<path class="st3" d="M1.4,19.4c0,0.1,0,0.2,0,0.3s0,0.5,0,0.7c0-0.2,0-0.4,0-0.6s0-0.4,0-0.5V19.4z"/>
<linearGradient id="SVGID_13_" gradientUnits="userSpaceOnUse" x1="48.6122" y1="29.05" x2="48.6122" y2="74.16" gradientTransform="matrix(1 0 0 1 0 -21)">
	<stop  offset="0" style="stop-color:#4E4E4E"/>
	<stop  offset="0.14" style="stop-color:#9E9E9E"/>
	<stop  offset="0.41" style="stop-color:#C4C4C4"/>
	<stop  offset="0.68" style="stop-color:#919191"/>
	<stop  offset="0.76" style="stop-color:#7D7D7D"/>
	<stop  offset="0.87" style="stop-color:#8C8E90"/>
	<stop  offset="1" style="stop-color:#5F5F61"/>
</linearGradient>
<path class="st15" d="M48.6,20.8c0,0.1,0,0.1,0,0.2v-0.6C48.6,20.6,48.6,20.7,48.6,20.8z"/>
<path class="st3" d="M48.6,20.8c0,0.1,0,0.1,0,0.2v-0.6C48.6,20.6,48.6,20.7,48.6,20.8z"/>
<path class="st3" d="M48.6,20.8c0,0.1,0,0.1,0,0.2v-0.6C48.6,20.6,48.6,20.7,48.6,20.8z"/>
<linearGradient id="SVGID_14_" gradientUnits="userSpaceOnUse" x1="24.985" y1="29.05" x2="24.985" y2="74.16" gradientTransform="matrix(1 0 0 1 0 -21)">
	<stop  offset="0" style="stop-color:#4E4E4E"/>
	<stop  offset="0.14" style="stop-color:#9E9E9E"/>
	<stop  offset="0.41" style="stop-color:#C4C4C4"/>
	<stop  offset="0.68" style="stop-color:#919191"/>
	<stop  offset="0.76" style="stop-color:#7D7D7D"/>
	<stop  offset="0.87" style="stop-color:#8C8E90"/>
	<stop  offset="1" style="stop-color:#5F5F61"/>
</linearGradient>
<path class="st16" d="M31.8,40.1C31.4,39,30.5,36,30.5,36v-0.1c-0.1-0.3-0.2-0.7-0.4-1.1c-0.3-0.7-0.7-1.3-1.3-1.7
	c-0.3-0.2-0.5-0.3-0.8-0.4l-0.5-0.1c-0.3-0.1-0.6-0.1-0.9-0.1H25c-0.5,0-1.1,0-1.5,0s-0.6,0.1-0.9,0.1l-0.5,0.1
	c-0.3,0.1-0.6,0.2-0.8,0.4c-0.6,0.4-1.1,1-1.3,1.7c-0.2,0.4-0.3,0.8-0.4,1.1V36c0,0-0.9,2.9-1.3,4.1l-0.1,0.4v0.2c0,0,0,0.1,0.1,0.1
	l0,0c0.4-1.2,1.2-4,1.2-4v-0.1c0.1-0.3,0.2-0.7,0.4-1.1c0.3-0.7,0.7-1.3,1.3-1.7c0.3-0.2,0.5-0.3,0.8-0.4l0.5-0.1
	c0.3-0.1,0.6-0.1,0.9-0.1s0.9,0,1.5,0h1.5c0.3,0,0.6,0.1,0.9,0.1l0.5,0.1c0.3,0.1,0.6,0.2,0.8,0.4c0.6,0.4,1.1,1,1.4,1.8
	c0.2,0.4,0.3,0.8,0.4,1.1v0.1c0,0,0.9,2.8,1.2,4h0.1c0,0,0.1-0.1,0.1-0.1c0-0.1,0,0,0-0.2C31.8,40.4,31.8,40.3,31.8,40.1z"/>
<radialGradient id="SVGID_15_" cx="25" cy="14.355" r="5.6919" gradientTransform="matrix(1 0 0 -1 0 51)" gradientUnits="userSpaceOnUse">
	<stop  offset="0.24" style="stop-color:#FFFFFF"/>
	<stop  offset="0.46" style="stop-color:#FDFDFD"/>
	<stop  offset="0.57" style="stop-color:#F5F5F5"/>
	<stop  offset="0.66" style="stop-color:#E8E8E8"/>
	<stop  offset="0.74" style="stop-color:#D4D4D4"/>
	<stop  offset="0.81" style="stop-color:#BCBCBC"/>
	<stop  offset="0.87" style="stop-color:#9D9D9D"/>
	<stop  offset="0.93" style="stop-color:#797979"/>
	<stop  offset="0.99" style="stop-color:#505050"/>
	<stop  offset="1" style="stop-color:#454545"/>
</radialGradient>
<path class="st17" d="M31.8,40.1C31.4,39,30.5,36,30.5,36v-0.1c-0.1-0.3-0.2-0.7-0.4-1.1c-0.3-0.7-0.7-1.3-1.3-1.7
	c-0.3-0.2-0.5-0.3-0.8-0.4l-0.5-0.1c-0.3-0.1-0.6-0.1-0.9-0.1H25c-0.5,0-1.1,0-1.5,0s-0.6,0.1-0.9,0.1l-0.5,0.1
	c-0.3,0.1-0.6,0.2-0.8,0.4c-0.6,0.4-1.1,1-1.3,1.7c-0.2,0.4-0.3,0.8-0.4,1.1V36c0,0-0.9,2.9-1.3,4.1l-0.1,0.4v0.2c0,0,0,0.1,0.1,0.1
	l0,0c0.4-1.2,1.2-4,1.2-4v-0.1c0.1-0.3,0.2-0.7,0.4-1.1c0.3-0.7,0.7-1.3,1.3-1.7c0.3-0.2,0.5-0.3,0.8-0.4l0.5-0.1
	c0.3-0.1,0.6-0.1,0.9-0.1s0.9,0,1.5,0h1.5c0.3,0,0.6,0.1,0.9,0.1l0.5,0.1c0.3,0.1,0.6,0.2,0.8,0.4c0.6,0.4,1.1,1,1.4,1.8
	c0.2,0.4,0.3,0.8,0.4,1.1v0.1c0,0,0.9,2.8,1.2,4h0.1c0,0,0.1-0.1,0.1-0.1c0-0.1,0,0,0-0.2C31.8,40.4,31.8,40.3,31.8,40.1z"/>
<path class="st18" d="M32.3,19.8c-0.5,2.1-1.3,4-2.3,5.9c-0.6,0.9-1.6,1.6-2.7,1.9c-0.8,0.1-1.5,0.1-2.3,0.1c-0.8,0-1.5,0-2.3-0.1
	c-1.1-0.3-2.1-0.9-2.8-1.8c-1-1.9-1.8-3.9-2.3-6c-0.8-3-1.7-6.7-2.5-9.8h-0.1l0.1,0.4c0.8,3.2,1.8,6.9,2.6,10c0.5,2.1,1.3,4.1,2.3,6
	c0.6,0.9,1.6,1.6,2.7,1.8c0.7,0.1,1.5,0.1,2.3,0.1c0.8,0,1.5,0,2.3-0.1c1.1-0.3,2.1-0.9,2.7-1.8c1-1.9,1.8-3.8,2.3-5.9
	c0.8-3,1.8-6.9,2.6-10c0-0.1,0.1-0.2,0.1-0.4h-0.2C34,13.1,33.1,16.8,32.3,19.8z"/>
<linearGradient id="SVGID_16_" gradientUnits="userSpaceOnUse" x1="24.98" y1="29.05" x2="24.98" y2="74.16" gradientTransform="matrix(1 0 0 1 0 -21)">
	<stop  offset="0" style="stop-color:#4E4E4E"/>
	<stop  offset="0.14" style="stop-color:#9E9E9E"/>
	<stop  offset="0.41" style="stop-color:#C4C4C4"/>
	<stop  offset="0.68" style="stop-color:#919191"/>
	<stop  offset="0.76" style="stop-color:#7D7D7D"/>
	<stop  offset="0.87" style="stop-color:#8C8E90"/>
	<stop  offset="1" style="stop-color:#5F5F61"/>
</linearGradient>
<path class="st19" d="M32.3,20.4c-0.5,2.1-1.3,4-2.3,5.9c-0.6,0.9-1.6,1.6-2.7,1.9c-0.8,0.1-1.5,0.1-2.3,0.1c-0.8,0-1.5,0-2.3-0.1
	c-1.1-0.2-2.1-0.9-2.8-1.8c-1-1.9-1.8-3.9-2.3-6c-0.8-3.1-1.8-6.8-2.6-10L15,9.9h-0.2c-0.1,0-0.1,0.1-0.1,0.2l0.4,1.7
	c0.8,3.2,1.7,6.9,2.6,10c0.5,2.1,1.3,4.1,2.3,6c0.6,0.9,1.6,1.6,2.7,1.8c0.7,0.1,1.5,0.1,2.3,0.1c0.8,0,1.5,0,2.3-0.1
	c1.1-0.2,2.1-0.9,2.8-1.8c1-1.8,1.8-3.8,2.3-5.8c0.8-3,1.8-6.9,2.6-10c0.2-0.7,0.3-1.3,0.4-1.7c0-0.1-0.1-0.2-0.2-0.2L35,10
	c0,0.1-0.1,0.2-0.1,0.4C34.1,13.5,33.2,17.4,32.3,20.4z"/>
<radialGradient id="SVGID_17_" cx="24.98" cy="31.1527" r="10.1407" gradientTransform="matrix(1 0 0 -1 0 51)" gradientUnits="userSpaceOnUse">
	<stop  offset="0.24" style="stop-color:#FFFFFF"/>
	<stop  offset="0.46" style="stop-color:#FDFDFD"/>
	<stop  offset="0.58" style="stop-color:#F5F5F5"/>
	<stop  offset="0.67" style="stop-color:#E8E8E8"/>
	<stop  offset="0.75" style="stop-color:#D4D4D4"/>
	<stop  offset="0.82" style="stop-color:#BCBCBC"/>
	<stop  offset="0.89" style="stop-color:#9D9D9D"/>
	<stop  offset="0.95" style="stop-color:#7A7A7A"/>
	<stop  offset="1" style="stop-color:#525252"/>
</radialGradient>
<path class="st20" d="M32.3,20.4c-0.5,2.1-1.3,4-2.3,5.9c-0.6,0.9-1.6,1.6-2.7,1.9c-0.8,0.1-1.5,0.1-2.3,0.1c-0.8,0-1.5,0-2.3-0.1
	c-1.1-0.2-2.1-0.9-2.8-1.8c-1-1.9-1.8-3.9-2.3-6c-0.8-3.1-1.8-6.8-2.6-10L15,9.9h-0.2c-0.1,0-0.1,0.1-0.1,0.2l0.4,1.7
	c0.8,3.2,1.7,6.9,2.6,10c0.5,2.1,1.3,4.1,2.3,6c0.6,0.9,1.6,1.6,2.7,1.8c0.7,0.1,1.5,0.1,2.3,0.1c0.8,0,1.5,0,2.3-0.1
	c1.1-0.2,2.1-0.9,2.8-1.8c1-1.8,1.8-3.8,2.3-5.8c0.8-3,1.8-6.9,2.6-10c0.2-0.7,0.3-1.3,0.4-1.7c0-0.1-0.1-0.2-0.2-0.2L35,10
	c0,0.1-0.1,0.2-0.1,0.4C34.1,13.5,33.2,17.4,32.3,20.4z"/>
</svg>
