<svg id="Layer_1" data-name="Layer 1" xmlns="http://www.w3.org/2000/svg" xmlns:xlink="http://www.w3.org/1999/xlink" viewBox="0 0 50 50"><defs><style>.cls-1{fill:none;}.cls-2{fill:url(#radial-gradient);}.cls-3{fill:url(#radial-gradient-2);}.cls-4{fill:url(#radial-gradient-3);}.cls-5{fill:url(#radial-gradient-4);}.cls-6{fill:url(#radial-gradient-5);}.cls-7{clip-path:url(#clip-path);}.cls-8{clip-path:url(#clip-path-2);}.cls-9{clip-path:url(#clip-path-3);}.cls-10{fill:#fff;}.cls-11{fill:url(#linear-gradient);}.cls-12{fill:url(#linear-gradient-2);}.cls-13{fill:url(#linear-gradient-3);}.cls-14{fill:url(#linear-gradient-4);}.cls-15{fill:url(#linear-gradient-5);}.cls-16{fill:url(#linear-gradient-6);}.cls-17{fill:url(#linear-gradient-7);}.cls-18{fill:url(#linear-gradient-8);}.cls-19{fill:url(#linear-gradient-9);}.cls-20{fill:url(#linear-gradient-10);}.cls-21{fill:url(#linear-gradient-11);}.cls-22{fill:url(#linear-gradient-12);}.cls-23{fill:url(#linear-gradient-13);}.cls-24{fill:url(#linear-gradient-14);}.cls-25{fill:url(#linear-gradient-15);}.cls-26{fill:url(#linear-gradient-16);}.cls-27{fill:url(#linear-gradient-17);}.cls-28{fill:url(#linear-gradient-18);}.cls-29{fill:url(#linear-gradient-19);}.cls-30{fill:url(#linear-gradient-20);}.cls-31{fill:url(#linear-gradient-21);}.cls-32{fill:url(#linear-gradient-22);}.cls-33{fill:url(#linear-gradient-23);}.cls-34{fill:url(#linear-gradient-24);}.cls-35{fill:url(#linear-gradient-25);}.cls-36{fill:url(#linear-gradient-26);}.cls-37{fill:url(#linear-gradient-27);}.cls-38{fill:url(#linear-gradient-28);}.cls-39{fill:url(#linear-gradient-29);}.cls-40{fill:url(#linear-gradient-30);}</style><radialGradient id="radial-gradient" cx="49.63" cy="-11.29" r="22.59" gradientTransform="matrix(0.98, 0, 0, -0.98, -22.1, 6.16)" gradientUnits="userSpaceOnUse"><stop offset="0" stop-color="#8b9394"/><stop offset="1" stop-color="#727a79"/></radialGradient><radialGradient id="radial-gradient-2" cx="55.17" cy="-5.56" r="28.03" gradientTransform="matrix(0.98, 0, 0, -0.98, -28.81, 7.42)" gradientUnits="userSpaceOnUse"><stop offset="0" stop-color="#969d9d"/><stop offset="0.61" stop-color="#7a8182"/><stop offset="1" stop-color="#4b5050"/></radialGradient><radialGradient id="radial-gradient-3" cx="39.35" cy="-10.33" r="23.17" gradientTransform="matrix(0.98, 0, 0, -0.98, -22.1, 6.16)" gradientUnits="userSpaceOnUse"><stop offset="0" stop-color="#969d9d"/><stop offset="0.46" stop-color="#828b8a"/><stop offset="1" stop-color="#c2c9c8"/></radialGradient><radialGradient id="radial-gradient-4" cx="49.34" cy="-21.38" r="12.89" gradientTransform="matrix(0.98, 0, 0, -0.98, -22.1, 6.16)" gradientUnits="userSpaceOnUse"><stop offset="0" stop-color="#969d9d"/><stop offset="0.61" stop-color="#828b8a"/><stop offset="1" stop-color="#727a79"/></radialGradient><radialGradient id="radial-gradient-5" cx="60.79" cy="-7.69" r="18.55" gradientTransform="matrix(1, 0, 0, -1, -0.27, 25.92)" xlink:href="#radial-gradient-4"/><clipPath id="clip-path"><path class="cls-1" d="M25,36.54c12.81,0,23.19-5.3,23.19-11.83S37.82,12.87,25,12.87,1.82,18.17,1.82,24.71,12.22,36.54,25,36.54Zm4.35-5.8c-.37.89-1,2.8-2.58,3.56a3.58,3.58,0,0,1-1.54.35H25a40.61,40.61,0,0,1-11.4-1.54c-.25-.07-.78-.2-.78-.53a.47.47,0,0,1,.19-.37l.21-.19a26.53,26.53,0,0,1,7.45-4,38,38,0,0,1,5.46-1.72C27.36,26.06,31.68,25.4,29.36,30.74ZM41.09,18.81a.46.46,0,0,1,.39-.28.76.76,0,0,1,.47.16c2.73,1.67,4.35,3.75,4.35,6,0,4.09-5.27,7.59-12.8,9.13-.48.09-.8.09-.91,0a.32.32,0,0,1,0-.37,1.86,1.86,0,0,1,.21-.28c4.09-4.82,7.22-11.92,8.11-14A3,3,0,0,1,41.09,18.81Zm-20.37-.16c.38-.88,1.05-2.8,2.58-3.56a3.93,3.93,0,0,1,1.54-.35h.24A40.4,40.4,0,0,1,36.5,16.3c.25.07.77.17.77.51a.48.48,0,0,1-.2.37.76.76,0,0,1-.21.19,26.67,26.67,0,0,1-7.45,4A34.27,34.27,0,0,1,24,23.12C22.77,23.3,18.41,24,20.72,18.65Zm-4.2-3.07a1.76,1.76,0,0,1,1,0,.29.29,0,0,1,0,.37,3,3,0,0,1-.18.28c-4.11,4.81-7.23,11.92-8.11,14-.07.14-.14.29-.19.38a.48.48,0,0,1-.39.27.89.89,0,0,1-.48-.16c-2.72-1.67-4.4-3.76-4.4-6C3.73,20.62,9,17.11,16.52,15.58Z"/></clipPath><clipPath id="clip-path-2"><path class="cls-1" d="M25,36.3c-12.65,0-23-5.2-23-11.59s10.29-11.6,23-11.6S48,18.3,48,24.71,37.66,36.3,25,36.3ZM27.6,25.9a7.78,7.78,0,0,0-1.51.18,37.45,37.45,0,0,0-5.45,1.72h0a27.4,27.4,0,0,0-7.53,4l-.1.09-.12.11a.82.82,0,0,0-.26.54c0,.48.58.65.89.74h.06a40.53,40.53,0,0,0,11.47,1.55h.25a3.86,3.86,0,0,0,1.64-.37c1.47-.73,2.17-2.42,2.58-3.42l.11-.26c.77-1.79.89-3.12.34-4A2.62,2.62,0,0,0,27.6,25.9Zm13.93-7.6h-.09a.69.69,0,0,0-.56.4c-.07.1-.15.28-.2.37-1.41,3.34-4.32,9.57-8.07,13.93l-.25.3a.54.54,0,0,0,0,.64.7.7,0,0,0,.53.17A2.6,2.6,0,0,0,33.5,34c7.89-1.61,13-5.28,13-9.36,0-2.28-1.55-4.43-4.45-6.22A1.17,1.17,0,0,0,41.53,18.3Zm-24.4-3a4.78,4.78,0,0,0-.65.07c-7.89,1.6-13,5.27-13,9.36C3.48,27,5,29.13,8,30.94a1.19,1.19,0,0,0,.6.2.68.68,0,0,0,.59-.39,1.54,1.54,0,0,0,.17-.34V30.3a57,57,0,0,1,8.08-13.92,2.36,2.36,0,0,0,.22-.31.5.5,0,0,0,0-.65A.71.71,0,0,0,17.13,15.3Zm7.71-.78a4.37,4.37,0,0,0-1.64.38,6.15,6.15,0,0,0-2.57,3.4l-.13.28c-.77,1.79-.89,3.12-.34,4a2.59,2.59,0,0,0,2.33,1A6.94,6.94,0,0,0,24,23.3a35.18,35.18,0,0,0,5.5-1.75,26.54,26.54,0,0,0,7.52-4,2.25,2.25,0,0,0,.24-.21.74.74,0,0,0,.25-.53c0-.48-.55-.63-.84-.71h-.09a41.42,41.42,0,0,0-11.5-1.6Z"/></clipPath><clipPath id="clip-path-3"><path class="cls-1" d="M25,36.3c-12.65,0-22.92-5.21-22.92-11.59S12.36,13.12,25,13.12,47.93,18.3,47.93,24.71,37.66,36.3,25,36.3ZM27.6,25.9a8.63,8.63,0,0,0-1.52.17,38.63,38.63,0,0,0-5.44,1.73h0a26.88,26.88,0,0,0-7.51,4l-.11.09L12.9,32a.82.82,0,0,0-.25.54c0,.48.58.65.89.74h0A40.41,40.41,0,0,0,25,34.83h.25a4,4,0,0,0,1.64-.37c1.47-.73,2.16-2.42,2.57-3.42l.11-.26c.77-1.78.89-3.11.34-4A2.6,2.6,0,0,0,27.6,25.9Zm13.92-7.6h-.09a.69.69,0,0,0-.57.4c-.06.1-.15.28-.2.37C39.25,22.4,36.3,28.63,32.6,33a2.43,2.43,0,0,0-.24.32.52.52,0,0,0,0,.63.61.61,0,0,0,.53.18A2.6,2.6,0,0,0,33.5,34c7.86-1.61,13-5.28,13-9.35,0-2.27-1.53-4.42-4.44-6.21A1.19,1.19,0,0,0,41.52,18.3Zm-24.38-3a4.78,4.78,0,0,0-.65.07c-7.88,1.6-13,5.27-13,9.35,0,2.24,1.56,4.39,4.52,6.2a1.13,1.13,0,0,0,.6.2.74.74,0,0,0,.59-.38,2.53,2.53,0,0,0,.16-.33v-.09a57.14,57.14,0,0,1,8.07-13.9l.22-.31a.5.5,0,0,0,0-.65A.68.68,0,0,0,17.14,15.3Zm7.7-.77a4.18,4.18,0,0,0-1.64.37c-1.46.73-2.15,2.4-2.57,3.39l-.11.29c-.78,1.79-.89,3.12-.34,4a2.54,2.54,0,0,0,2.32,1A7,7,0,0,0,24,23.3a34.61,34.61,0,0,0,5.48-1.75,26.35,26.35,0,0,0,7.51-4,1.15,1.15,0,0,0,.23-.21.72.72,0,0,0,.26-.53c0-.48-.55-.63-.85-.71h-.09a41.12,41.12,0,0,0-11.47-1.56h-.24Z"/></clipPath><linearGradient id="linear-gradient" x1="24.71" y1="12.06" x2="25.85" y2="-9.81" gradientTransform="matrix(1, 0, 0, -1, -0.27, 25.92)" gradientUnits="userSpaceOnUse"><stop offset="0" stop-color="#fff"/><stop offset="0.4" stop-color="#fff"/><stop offset="0.57" stop-color="#a4aaaa"/><stop offset="0.63" stop-color="#8f9697"/><stop offset="0.66" stop-color="#878f90"/><stop offset="0.75" stop-color="#969d9d"/><stop offset="0.81" stop-color="#fff"/></linearGradient><linearGradient id="linear-gradient-2" x1="29.63" y1="-9.42" x2="31.75" y2="-1.13" gradientTransform="matrix(1, 0, 0, -1, -0.27, 25.92)" gradientUnits="userSpaceOnUse"><stop offset="0" stop-color="#fff"/><stop offset="0.63" stop-color="#fff"/><stop offset="0.68" stop-color="#f1f2f2"/><stop offset="0.9" stop-color="#b7bdbe"/><stop offset="1" stop-color="#a0a8aa"/></linearGradient><linearGradient id="linear-gradient-3" x1="23.07" y1="2.01" x2="18.8" y2="9.61" gradientTransform="matrix(1, 0, 0, -1, -0.27, 25.92)" gradientUnits="userSpaceOnUse"><stop offset="0" stop-color="#e5eeed"/><stop offset="0.28" stop-color="#cfd7d7"/><stop offset="0.55" stop-color="#b6bcbd"/><stop offset="1" stop-color="#a0a8aa"/></linearGradient><linearGradient id="linear-gradient-4" x1="26.79" y1="9.1" x2="30.39" y2="3.93" xlink:href="#linear-gradient-3"/><linearGradient id="linear-gradient-5" x1="11.99" y1="-3.01" x2="11.99" y2="8.77" gradientTransform="matrix(1, 0, 0, -1, -0.27, 25.92)" gradientUnits="userSpaceOnUse"><stop offset="0" stop-color="#fff"/><stop offset="0.06" stop-color="#f6f7f7"/><stop offset="0.16" stop-color="#dfe1e1"/><stop offset="0.29" stop-color="#b9bcbc"/><stop offset="0.43" stop-color="#858a8a"/><stop offset="0.53" stop-color="#5f6666"/><stop offset="0.77" stop-color="#4b5050"/><stop offset="1" stop-color="#404444"/></linearGradient><linearGradient id="linear-gradient-6" x1="31.93" y1="-5.51" x2="18.91" y2="-2.18" gradientTransform="matrix(1, 0, 0, -1, -0.27, 25.92)" gradientUnits="userSpaceOnUse"><stop offset="0" stop-color="#8b9394"/><stop offset="0.18" stop-color="#7a8182"/><stop offset="0.34" stop-color="#646a6b"/><stop offset="0.57" stop-color="#404444"/><stop offset="1" stop-color="#333737"/></linearGradient><linearGradient id="linear-gradient-7" x1="10.79" y1="-8.29" x2="28.76" y2="-8.29" gradientTransform="matrix(1, 0, 0, -1, -0.27, 25.92)" gradientUnits="userSpaceOnUse"><stop offset="0" stop-color="#fff"/><stop offset="0.93" stop-color="#fff"/><stop offset="1" stop-color="#fff"/></linearGradient><linearGradient id="linear-gradient-8" x1="40.78" y1="6.98" x2="31.46" y2="-7.44" gradientTransform="matrix(1, 0, 0, -1, -0.27, 25.92)" gradientUnits="userSpaceOnUse"><stop offset="0" stop-color="#abb3b3"/><stop offset="0.38" stop-color="#727a79"/><stop offset="0.42" stop-color="#575d5c"/><stop offset="0.45" stop-color="#464a4a"/><stop offset="0.47" stop-color="#404444"/><stop offset="1" stop-color="#333737"/></linearGradient><linearGradient id="linear-gradient-9" x1="37.65" y1="9.88" x2="23.59" y2="11.78" gradientTransform="matrix(1, 0, 0, -1, -0.27, 25.92)" gradientUnits="userSpaceOnUse"><stop offset="0" stop-color="#4b5050"/><stop offset="0.11" stop-color="#434747"/><stop offset="0.39" stop-color="#323534"/><stop offset="0.68" stop-color="#282a2a"/><stop offset="1" stop-color="#252726"/></linearGradient><linearGradient id="linear-gradient-10" x1="42.01" y1="9.29" x2="46.46" y2="1.88" gradientTransform="matrix(1, 0, 0, -1, -0.27, 25.92)" gradientUnits="userSpaceOnUse"><stop offset="0" stop-color="#252726"/><stop offset="0.07" stop-color="#2b2e2d"/><stop offset="0.33" stop-color="#404444"/><stop offset="0.43" stop-color="#4a4f4f"/><stop offset="0.69" stop-color="#5f6666"/><stop offset="0.74" stop-color="#666d6d"/><stop offset="0.82" stop-color="#798181"/><stop offset="0.87" stop-color="#8b9394"/><stop offset="1" stop-color="#a0a8aa"/></linearGradient><linearGradient id="linear-gradient-11" x1="33.26" y1="-9.39" x2="47.17" y2="-0.71" gradientTransform="matrix(1, 0, 0, -1, -0.27, 25.92)" gradientUnits="userSpaceOnUse"><stop offset="0" stop-color="#fff"/><stop offset="0.77" stop-color="#fff"/><stop offset="0.83" stop-color="#e8ebeb"/><stop offset="0.9" stop-color="#ccd4d3"/><stop offset="0.96" stop-color="#afb7b8"/><stop offset="1" stop-color="#a0a8aa"/></linearGradient><linearGradient id="linear-gradient-12" x1="38.3" y1="9.49" x2="38.38" y2="8.8" gradientTransform="matrix(1, 0, 0, -1, -0.27, 25.92)" gradientUnits="userSpaceOnUse"><stop offset="0" stop-color="#4b5050"/><stop offset="0.08" stop-color="#6d7373"/><stop offset="0.17" stop-color="#888f8f"/><stop offset="0.25" stop-color="#9ca3a3"/><stop offset="0.34" stop-color="#a7afaf"/><stop offset="0.42" stop-color="#abb3b3"/><stop offset="0.58" stop-color="#abb3b3"/><stop offset="0.92" stop-color="#a3abac"/><stop offset="1" stop-color="#a0a8aa"/></linearGradient><linearGradient id="linear-gradient-13" x1="12.23" y1="-6.22" x2="12.38" y2="-7.55" gradientTransform="matrix(1, 0, 0, -1, -0.27, 25.92)" gradientUnits="userSpaceOnUse"><stop offset="0" stop-color="#333737"/><stop offset="0.02" stop-color="#494e4e"/><stop offset="0.04" stop-color="#676e6d"/><stop offset="0.06" stop-color="#727a79"/><stop offset="0.22" stop-color="#808888"/><stop offset="0.4" stop-color="#8b9394"/><stop offset="0.48" stop-color="#9ba3a4"/><stop offset="0.5" stop-color="#a0a8aa"/><stop offset="0.79" stop-color="#abb3b3"/><stop offset="0.85" stop-color="#c2c8c8"/><stop offset="1" stop-color="#fdfefe"/><stop offset="1" stop-color="#fff"/></linearGradient><linearGradient id="linear-gradient-14" x1="40.76" y1="7.63" x2="41.69" y2="8.21" gradientTransform="matrix(1, 0, 0, -1, -0.27, 25.92)" gradientUnits="userSpaceOnUse"><stop offset="0" stop-color="#abb3b3"/><stop offset="0.42" stop-color="#a0a8aa"/><stop offset="0.52" stop-color="#a0a8aa"/><stop offset="0.59" stop-color="#9ba3a5"/><stop offset="0.68" stop-color="#8d9496"/><stop offset="0.77" stop-color="#777d7d"/><stop offset="0.88" stop-color="#575b5b"/><stop offset="0.98" stop-color="#2e3030"/><stop offset="1" stop-color="#252726"/></linearGradient><linearGradient id="linear-gradient-15" x1="23.37" y1="11.7" x2="21.95" y2="10.19" gradientTransform="matrix(1, 0, 0, -1, -0.27, 25.92)" gradientUnits="userSpaceOnUse"><stop offset="0" stop-color="#252726"/><stop offset="0.02" stop-color="#2d302f"/><stop offset="0.14" stop-color="#565b5b"/><stop offset="0.25" stop-color="#73797a"/><stop offset="0.34" stop-color="#858c8d"/><stop offset="0.4" stop-color="#8b9394"/><stop offset="0.81" stop-color="#98a0a2"/><stop offset="1" stop-color="#a0a8aa"/></linearGradient><linearGradient id="linear-gradient-16" x1="28.33" y1="-5.76" x2="25.42" y2="-9.73" gradientTransform="matrix(1, 0, 0, -1, -0.27, 25.92)" gradientUnits="userSpaceOnUse"><stop offset="0" stop-color="#828b8a"/><stop offset="0.51" stop-color="#f4fafc"/><stop offset="0.81" stop-color="#f8fcfd"/><stop offset="1" stop-color="#fff"/></linearGradient><linearGradient id="linear-gradient-17" x1="11.44" y1="-5.17" x2="16.96" y2="7.86" gradientTransform="matrix(1, 0, 0, -1, -0.27, 25.92)" gradientUnits="userSpaceOnUse"><stop offset="0" stop-color="#697070"/><stop offset="0.53" stop-color="#828b8a"/><stop offset="1" stop-color="#b2bcbc"/></linearGradient><linearGradient id="linear-gradient-18" x1="9.97" y1="-4.76" x2="8.35" y2="-5.95" gradientTransform="matrix(1, 0, 0, -1, -0.27, 25.92)" gradientUnits="userSpaceOnUse"><stop offset="0" stop-color="#697070"/><stop offset="0.08" stop-color="#8b9191"/><stop offset="0.2" stop-color="#bdc0c0"/><stop offset="0.31" stop-color="#e1e2e2"/><stop offset="0.4" stop-color="#f7f7f7"/><stop offset="0.45" stop-color="#fff"/><stop offset="0.63" stop-color="#fff"/><stop offset="0.64" stop-color="#fff"/><stop offset="0.98" stop-color="#fff"/><stop offset="1" stop-color="#fff"/></linearGradient><linearGradient id="linear-gradient-19" x1="18.62" y1="11.27" x2="19.14" y2="10.24" gradientTransform="matrix(1, 0, 0, -1, -0.27, 25.92)" gradientUnits="userSpaceOnUse"><stop offset="0" stop-color="#404444"/><stop offset="0.16" stop-color="#444848"/><stop offset="0.33" stop-color="#4f5454"/><stop offset="0.47" stop-color="#5f6666"/><stop offset="0.52" stop-color="#737b7a"/><stop offset="0.57" stop-color="#828b8a"/><stop offset="0.78" stop-color="#a3acac"/><stop offset="0.91" stop-color="#b2bcbc"/></linearGradient><linearGradient id="linear-gradient-20" x1="24.48" y1="12.13" x2="26.15" y2="-10.75" gradientTransform="matrix(1, 0, 0, -1, -0.27, 25.92)" gradientUnits="userSpaceOnUse"><stop offset="0" stop-color="#fff"/><stop offset="0.08" stop-color="#f8fafa"/><stop offset="0.18" stop-color="#e6eced"/><stop offset="0.26" stop-color="#d3dee0"/><stop offset="0.29" stop-color="#c9d4d6"/><stop offset="0.35" stop-color="#afb9ba"/><stop offset="0.42" stop-color="#858d8e"/><stop offset="0.5" stop-color="#4b5050"/><stop offset="0.69" stop-color="#3e4344"/><stop offset="0.73" stop-color="#2f3435"/><stop offset="0.82" stop-color="#0d1112"/><stop offset="1" stop-color="#0d1112"/></linearGradient><linearGradient id="linear-gradient-21" x1="19.38" y1="4.9" x2="23.66" y2="1.04" gradientTransform="matrix(1, 0, 0, -1, -0.27, 25.92)" gradientUnits="userSpaceOnUse"><stop offset="0.07" stop-color="#b6bcbd"/><stop offset="0.12" stop-color="#c9cece"/><stop offset="0.2" stop-color="#e1e3e4"/><stop offset="0.29" stop-color="#f2f3f3"/><stop offset="0.38" stop-color="#fcfcfc"/><stop offset="0.5" stop-color="#fff"/><stop offset="0.61" stop-color="#fcfcfc"/><stop offset="0.7" stop-color="#f2f3f3"/><stop offset="0.79" stop-color="#e1e4e4"/><stop offset="0.86" stop-color="#c9cece"/><stop offset="0.94" stop-color="#abb3b3"/></linearGradient><linearGradient id="linear-gradient-22" x1="30.1" y1="-3.34" x2="26.15" y2="1.71" gradientTransform="matrix(1, 0, 0, -1, -0.27, 25.92)" gradientUnits="userSpaceOnUse"><stop offset="0" stop-color="#828b8a"/><stop offset="0.12" stop-color="#7a8182"/><stop offset="0.17" stop-color="#6b7272"/><stop offset="0.28" stop-color="#545959"/><stop offset="0.37" stop-color="#454949"/><stop offset="0.44" stop-color="#404444"/><stop offset="0.71" stop-color="#404444"/><stop offset="1" stop-color="#333737"/></linearGradient><linearGradient id="linear-gradient-23" x1="30.7" y1="0.39" x2="31.42" y2="-0.59" gradientTransform="matrix(1, 0, 0, -1, -0.27, 25.92)" gradientUnits="userSpaceOnUse"><stop offset="0" stop-color="#3e4344"/><stop offset="0.02" stop-color="#555a5a"/><stop offset="0.05" stop-color="#7d8081"/><stop offset="0.09" stop-color="#a0a3a3"/><stop offset="0.13" stop-color="#bebfc0"/><stop offset="0.17" stop-color="#d6d7d7"/><stop offset="0.22" stop-color="#e8e9e9"/><stop offset="0.28" stop-color="#f5f6f6"/><stop offset="0.36" stop-color="#fdfdfd"/><stop offset="0.52" stop-color="#fff"/><stop offset="0.65" stop-color="#fdfdfd"/><stop offset="0.73" stop-color="#f4f5f5"/><stop offset="0.8" stop-color="#e7e8e8"/><stop offset="0.85" stop-color="#d3d5d5"/><stop offset="0.9" stop-color="#b9bdbd"/><stop offset="0.95" stop-color="#9a9f9f"/><stop offset="0.99" stop-color="#757c7c"/><stop offset="1" stop-color="#6a7171"/></linearGradient><linearGradient id="linear-gradient-24" x1="31.52" y1="-8.09" x2="31.95" y2="-8.97" gradientTransform="matrix(1, 0, 0, -1, -0.27, 25.92)" gradientUnits="userSpaceOnUse"><stop offset="0" stop-color="#333737"/><stop offset="0.06" stop-color="#5a5f5e"/><stop offset="0.14" stop-color="#8b9191"/><stop offset="0.22" stop-color="#b2bab9"/><stop offset="0.29" stop-color="#ced6d5"/><stop offset="0.35" stop-color="#dfe8e7"/><stop offset="0.39" stop-color="#e5eeed"/><stop offset="0.54" stop-color="#e9f1f0"/><stop offset="0.68" stop-color="#f5f8f8"/><stop offset="0.76" stop-color="#fff"/></linearGradient><linearGradient id="linear-gradient-25" x1="28.49" y1="3.88" x2="29.64" y2="12.68" gradientTransform="matrix(1, 0, 0, -1, -0.27, 25.92)" gradientUnits="userSpaceOnUse"><stop offset="0" stop-color="#fff"/><stop offset="0.25" stop-color="#f2f6f6"/><stop offset="0.57" stop-color="#e8f0ef"/><stop offset="1" stop-color="#e5eeed"/></linearGradient><linearGradient id="linear-gradient-26" x1="21.1" y1="11.64" x2="11.13" y2="-4.51" gradientTransform="matrix(1, 0, 0, -1, -0.27, 25.92)" gradientUnits="userSpaceOnUse"><stop offset="0" stop-color="#fff"/><stop offset="0.13" stop-color="#fcfcfc"/><stop offset="0.23" stop-color="#f3f4f4"/><stop offset="0.32" stop-color="#e3e5e5"/><stop offset="0.39" stop-color="#cdd0d0"/><stop offset="0.47" stop-color="#b0b5b5"/><stop offset="0.52" stop-color="#969d9d"/><stop offset="1" stop-color="#8b9394"/></linearGradient><linearGradient id="linear-gradient-27" x1="40.16" y1="8" x2="30.34" y2="-8.66" gradientTransform="matrix(1, 0, 0, -1, -0.27, 25.92)" gradientUnits="userSpaceOnUse"><stop offset="0" stop-color="#d7e0e0"/><stop offset="0.04" stop-color="#c5cdce"/><stop offset="0.1" stop-color="#b4bcbe"/><stop offset="0.17" stop-color="#a9b1b2"/><stop offset="0.27" stop-color="#a2aaac"/><stop offset="0.55" stop-color="#a0a8aa"/><stop offset="0.94" stop-color="#a0a8aa"/><stop offset="1" stop-color="#a0a8aa"/></linearGradient><linearGradient id="linear-gradient-28" x1="10.7" y1="-4.04" x2="31.92" y2="-4.04" gradientTransform="matrix(1, 0, 0, -1, -0.27, 25.92)" gradientUnits="userSpaceOnUse"><stop offset="0" stop-color="#8b9394"/><stop offset="0.24" stop-color="#8b9394"/><stop offset="0.36" stop-color="#858c8d"/><stop offset="0.53" stop-color="#737a7b"/><stop offset="0.6" stop-color="#6a7171"/><stop offset="1" stop-color="#a0a8aa"/></linearGradient><linearGradient id="linear-gradient-29" x1="13.37" y1="10.38" x2="7.37" y2="-4.34" gradientTransform="matrix(1, 0, 0, -1, -0.27, 25.92)" gradientUnits="userSpaceOnUse"><stop offset="0" stop-color="#fff"/><stop offset="0.24" stop-color="#f8fafa"/><stop offset="0.58" stop-color="#e6ebeb"/><stop offset="0.78" stop-color="#d7e0e0"/><stop offset="1" stop-color="#8b9394"/></linearGradient><linearGradient id="linear-gradient-30" x1="44.63" y1="6.57" x2="36.01" y2="-9.66" gradientTransform="matrix(1, 0, 0, -1, -0.27, 25.92)" gradientUnits="userSpaceOnUse"><stop offset="0" stop-color="#d7e0e0"/><stop offset="0.16" stop-color="#d1dad9"/><stop offset="0.26" stop-color="#ccd4d3"/><stop offset="1" stop-color="#a0a8aa"/></linearGradient></defs><title>hyundai</title><path class="cls-2" d="M22.49,23.42a6.83,6.83,0,0,0,1.5-.17,34.61,34.61,0,0,0,5.48-1.75,26.25,26.25,0,0,0,7.49-4,.74.74,0,0,0,.23-.2.63.63,0,0,0,.24-.49c0-.43-.49-.56-.79-.65h-.09a40.76,40.76,0,0,0-11.47-1.57h-.25a4.5,4.5,0,0,0-1.61.37,6.22,6.22,0,0,0-2.54,3.34.74.74,0,0,1-.12.29c-.76,1.77-.88,3.07-.34,3.89A2.53,2.53,0,0,0,22.49,23.42Zm-1.62-4.7c0-.09.08-.18.12-.29.4-.94,1.05-2.53,2.38-3.19a4,4,0,0,1,1.47-.33h.24a40.41,40.41,0,0,1,11.37,1.55h.1c.21,0,.55.15.55.32s0,.15-.15.26l-.2.17a25.65,25.65,0,0,1-7.39,4,34.3,34.3,0,0,1-5.43,1.73,6.15,6.15,0,0,1-1.43.16,2.2,2.2,0,0,1-2-.78C20,21.58,20.16,20.38,20.87,18.72Z"/><path class="cls-3" d="M25,12.67c-12.9,0-23.37,5.4-23.37,12s10.47,12,23.37,12,23.35-5.37,23.35-12S37.91,12.67,25,12.67Zm0,23.7c-12.69,0-23-5.23-23-11.66S12.36,13,25,13s23,5.23,23,11.67S37.7,36.37,25,36.37Z"/><path class="cls-4" d="M17.65,16.07a.45.45,0,0,0,0-.56c-.15-.19-.54-.21-1.13-.09-7.88,1.59-13,5.24-13,9.29,0,2.22,1.55,4.35,4.49,6.15a1,1,0,0,0,.57.19h0a.64.64,0,0,0,.53-.36l.15-.31.06-.08a57.4,57.4,0,0,1,8.09-13.93Zm-.29-.18-.18.26a57.14,57.14,0,0,0-8.13,14v.08a1.47,1.47,0,0,1-.14.28c-.09.14-.15.19-.25.19a.73.73,0,0,1-.39-.13C5.36,28.84,3.9,26.81,3.9,24.71c0-3.89,5-7.4,12.66-9a3.7,3.7,0,0,1,.57-.07c.19,0,.25,0,.25,0S17.36,15.82,17.36,15.89Z"/><path class="cls-5" d="M27.6,26a8.51,8.51,0,0,0-1.5.17,38.63,38.63,0,0,0-5.44,1.73h0a27.14,27.14,0,0,0-7.51,4l-.1.08-.11.11a.79.79,0,0,0-.24.49c0,.43.55.59.84.67h.06a41.06,41.06,0,0,0,11.45,1.54h.23a3.8,3.8,0,0,0,1.63-.36C28.36,33.68,29,32,29.46,31a.69.69,0,0,1,.1-.25c.77-1.77.88-3.08.35-3.9A2.56,2.56,0,0,0,27.6,26Zm1.63,4.7a.67.67,0,0,1-.12.26,5.73,5.73,0,0,1-2.38,3.22,3.51,3.51,0,0,1-1.71.33A40.37,40.37,0,0,1,13.66,33h0c-.18-.05-.61-.17-.61-.35a.33.33,0,0,1,.14-.26l.1-.08.1-.09a26.31,26.31,0,0,1,7.41-4h0a37.11,37.11,0,0,1,5.39-1.71,7.43,7.43,0,0,1,1.41-.16,2.21,2.21,0,0,1,2,.79C30.07,27.81,29.93,29,29.23,30.67Z"/><path class="cls-6" d="M42.05,18.54a1.2,1.2,0,0,0-.51-.18h-.06a.63.63,0,0,0-.53.35c-.07.13-.14.26-.2.39-1.39,3.34-4.39,9.58-8.09,13.95a1.94,1.94,0,0,0-.21.29.47.47,0,0,0,0,.57.58.58,0,0,0,.47.15,2.35,2.35,0,0,0,.6-.07c7.84-1.6,12.94-5.25,12.94-9.29C46.46,22.45,44.93,20.3,42.05,18.54ZM33.48,33.66a2,2,0,0,1-.54.07h-.21v-.17a.83.83,0,0,1,.18-.25c3.74-4.39,6.7-10.67,8.13-14a3,3,0,0,1,.19-.35.26.26,0,0,1,.25-.19h0a.78.78,0,0,1,.34.13c2.78,1.71,4.27,3.74,4.27,5.87C46.14,28.58,41.16,32.09,33.48,33.66Z"/><g class="cls-7"><g class="cls-8"><g class="cls-9"><path class="cls-10" d="M25,36.53c12.79,0,23.15-5.3,23.15-11.82S37.8,12.89,25,12.89,1.85,18.18,1.85,24.71,12.22,36.53,25,36.53Zm4.35-5.8c-.37.89-1,2.8-2.56,3.56a3.8,3.8,0,0,1-1.55.34H25A40.12,40.12,0,0,1,13.44,33h-.1c-.33-.11-.49-.25-.49-.43a.48.48,0,0,1,.19-.37l.21-.19a26.53,26.53,0,0,1,7.45-4,39.19,39.19,0,0,1,5.44-1.75C27.36,26.06,31.67,25.4,29.36,30.73ZM41.07,18.82a.46.46,0,0,1,.39-.28.7.7,0,0,1,.47.15c2.73,1.68,4.34,3.75,4.34,6,0,4.08-5.25,7.58-12.77,9.11-.48.1-.8.1-.91,0a.29.29,0,0,1,0-.37,1.56,1.56,0,0,1,.2-.27c4.09-4.82,7.22-11.91,8.1-14A2.79,2.79,0,0,1,41.07,18.82Zm-20.35-.16c.38-.88,1.05-2.8,2.58-3.56a4.32,4.32,0,0,1,1.54-.35h.24a40.14,40.14,0,0,1,11.58,1.61h.13c.31.1.46.24.47.42a.52.52,0,0,1-.19.37l-.22.19a26.84,26.84,0,0,1-7.43,4A35.24,35.24,0,0,1,24,23.08C22.77,23.3,18.42,24,20.72,18.66ZM16.53,15.6a1.59,1.59,0,0,1,1,0,.27.27,0,0,1,0,.36,3,3,0,0,1-.18.28c-4.1,4.81-7.22,11.91-8.11,14l-.19.38a.45.45,0,0,1-.39.27.86.86,0,0,1-.48-.16C5.47,29.06,3.8,27,3.8,24.73,3.76,20.63,9,17.12,16.53,15.6Z"/><path class="cls-11" d="M25,36.53c12.79,0,23.15-5.3,23.15-11.82S37.8,12.89,25,12.89,1.85,18.18,1.85,24.71,12.22,36.53,25,36.53Zm4.35-5.8c-.37.89-1,2.8-2.56,3.56a3.8,3.8,0,0,1-1.55.34H25A40.12,40.12,0,0,1,13.44,33h-.1c-.33-.11-.49-.25-.49-.43a.48.48,0,0,1,.19-.37l.21-.19a26.53,26.53,0,0,1,7.45-4,39.19,39.19,0,0,1,5.44-1.75C27.36,26.06,31.67,25.4,29.36,30.73ZM41.07,18.82a.46.46,0,0,1,.39-.28.7.7,0,0,1,.47.15c2.73,1.68,4.34,3.75,4.34,6,0,4.08-5.25,7.58-12.77,9.11-.48.1-.8.1-.91,0a.29.29,0,0,1,0-.37,1.56,1.56,0,0,1,.2-.27c4.09-4.82,7.22-11.91,8.1-14A2.79,2.79,0,0,1,41.07,18.82Zm-20.35-.16c.38-.88,1.05-2.8,2.58-3.56a4.32,4.32,0,0,1,1.54-.35h.24a40.14,40.14,0,0,1,11.58,1.61h.13c.31.1.46.24.47.42a.52.52,0,0,1-.19.37l-.22.19a26.84,26.84,0,0,1-7.43,4A35.24,35.24,0,0,1,24,23.08C22.77,23.3,18.42,24,20.72,18.66ZM16.53,15.6a1.59,1.59,0,0,1,1,0,.27.27,0,0,1,0,.36,3,3,0,0,1-.18.28c-4.1,4.81-7.22,11.91-8.11,14l-.19.38a.45.45,0,0,1-.39.27.86.86,0,0,1-.48-.16C5.47,29.06,3.8,27,3.8,24.73,3.76,20.63,9,17.12,16.53,15.6Z"/><path class="cls-1" d="M25,36.53c12.79,0,23.15-5.3,23.15-11.82S37.8,12.89,25,12.89,1.85,18.18,1.85,24.71,12.22,36.53,25,36.53Zm4.35-5.8c-.37.89-1,2.8-2.56,3.56a3.8,3.8,0,0,1-1.55.34H25A40.58,40.58,0,0,1,13.63,33.1c-.24-.08-.78-.2-.78-.53A.51.51,0,0,1,13,32.2l.21-.19a27.49,27.49,0,0,1,7.45-4,39.6,39.6,0,0,1,5.45-1.71C27.36,26.06,31.67,25.4,29.36,30.73ZM41.07,18.82a.46.46,0,0,1,.39-.28.7.7,0,0,1,.47.15c2.73,1.68,4.34,3.75,4.34,6,0,4.08-5.25,7.58-12.77,9.11-.48.1-.8.1-.91,0a.29.29,0,0,1,0-.37,1.31,1.31,0,0,1,.2-.28c4.09-4.81,7.22-11.9,8.1-14A2.68,2.68,0,0,1,41.07,18.82Zm-20.35-.16c.38-.88,1.05-2.8,2.58-3.56a4.32,4.32,0,0,1,1.54-.35h.24a40.26,40.26,0,0,1,11.4,1.55c.25.07.77.17.77.51a.47.47,0,0,1-.18.37l-.21.19a26.89,26.89,0,0,1-7.44,4A34.9,34.9,0,0,1,24,23.11C22.77,23.3,18.42,24,20.72,18.66ZM16.53,15.6a1.59,1.59,0,0,1,1,0,.27.27,0,0,1,0,.36,3,3,0,0,1-.18.28c-4.1,4.81-7.22,11.91-8.11,14l-.19.38a.45.45,0,0,1-.39.27.86.86,0,0,1-.48-.16C5.47,29.06,3.8,27,3.8,24.73,3.76,20.63,9,17.12,16.53,15.6Z"/></g></g><path id="_Path_13" data-name=" Path 13" class="cls-12" d="M31.84,33.19A55.18,55.18,0,0,0,37,25l-6,2a9.44,9.44,0,0,1-3.59,7.81,11.3,11.3,0,0,1-3.33.4l-.55.88a40,40,0,0,0,11.43-1h0l.52-1.21C33.84,34.48,29.85,35.61,31.84,33.19Z"/><path id="_Path_14" data-name=" Path 14" class="cls-13" d="M24.36,23l-.41.1a4.57,4.57,0,0,1-3.13-.24c-.82-.53-1.18-1.72-.11-4.2A7.42,7.42,0,0,1,23,15.24L21.56,14a1.55,1.55,0,0,0-.24.19,20.62,20.62,0,0,0-1.71,2.65,21.13,21.13,0,0,0-1.25,2.69,11.89,11.89,0,0,0-.78,2.86c-.12,1.17.16,2.25,1.44,2.64a1.11,1.11,0,0,0,.3.08c.75.19,2.17.33,5.38-.53Z"/><path id="_Path_15" data-name=" Path 15" class="cls-14" d="M39.57,16.55l-2.3.24h0a.59.59,0,0,1-.2.38l-.21.18a27,27,0,0,1-7.45,4c-1.05.41-2.3.88-3.62,1.27h0c-.46.13-.94.26-1.42.37l-.41.1A4.91,4.91,0,0,1,21,23L19,25l.26.07c.75.19,2.17.33,5.38-.53a56.24,56.24,0,0,0,5.57-1.9c3.91-1.53,8.51-4.16,9.31-6Z"/><path id="_Path_16" data-name=" Path 16" class="cls-15" d="M8.61,30.88a1,1,0,0,1-.48-.16c-2.72-1.67-4.4-3.76-4.4-6,0-4.09,5.27-7.6,12.79-9.13a1.76,1.76,0,0,1,1,0v.06L20.8,14c0-.06-.11-.09-.21-.09A33.6,33.6,0,0,0,9,17.08c-4.1,2.08-6.36,4.79-6.36,7.62S4.91,30.3,9,32.3l.55.27a.36.36,0,0,0,.32,0L8.76,30.84Z"/><path id="_Path_17" data-name=" Path 17" class="cls-16" d="M31.07,24.38c-.9-.28-3.12-.84-11.24,2.35-3.92,1.53-8.52,4.16-9.31,6a.15.15,0,0,0,0,.18l2.32-.26v-.06a.49.49,0,0,1,.18-.37l.21-.19a26.81,26.81,0,0,1,7.45-4,38.61,38.61,0,0,1,5.47-1.73c1.18-.25,5.53-.91,3.23,4.43-.38.88-1,2.74-2.52,3.52l1.64,1.14a.58.58,0,0,0,.23-.18,18.43,18.43,0,0,0,1.71-2.65,20,20,0,0,0,1.27-2.69A10.84,10.84,0,0,0,32.5,27C32.61,25.85,32.36,24.76,31.07,24.38Z"/><path id="_Path_18" data-name=" Path 18" class="cls-17" d="M26.8,34.3a3.65,3.65,0,0,1-1.55.35H25a40.15,40.15,0,0,1-11.59-1.6h-.1c-.3-.1-.45-.22-.49-.37l-2.32.26a.52.52,0,0,0,.32.26A38,38,0,0,0,25,35.73c.83,0,1.66,0,2.47-.07a2.43,2.43,0,0,0,1-.22L26.86,34.3Z"/><path id="_Path_19" data-name=" Path 19" class="cls-18" d="M32.59,33.43a2.47,2.47,0,0,1,.21-.27c4.09-4.83,7.22-11.93,8.11-14a3,3,0,0,1,.18-.36.49.49,0,0,1,.27-.26l-1.18-1.76a.23.23,0,0,0-.16.14,104.25,104.25,0,0,1-8.33,14.83c-.79,1.16-1.63,2.28-2.41,3.46-.05.09-.05.16,0,.2l3.3-1.65A.35.35,0,0,1,32.59,33.43Z"/><path id="_Path_20" data-name=" Path 20" class="cls-19" d="M23.31,15.09a3.84,3.84,0,0,1,1.53-.35h.24a40.5,40.5,0,0,1,11.59,1.61h.12c.3.1.45.23.47.4l2.3-.24c0-.12-.17-.22-.35-.3A38.19,38.19,0,0,0,25,13.68c-.83,0-1.64,0-2.46.07a2.42,2.42,0,0,0-1,.21L23,15.2Z"/><path id="_Path_21" data-name=" Path 21" class="cls-20" d="M47.36,24.7c0-2.83-2.25-5.54-6.36-7.62l-.55-.27a.34.34,0,0,0-.31,0l1.22,1.74h.12a.76.76,0,0,1,.47.16c2.73,1.67,4.35,3.75,4.35,6V25h1.06A1,1,0,0,0,47.36,24.7Z"/><path id="_Path_22" data-name=" Path 22" class="cls-21" d="M46.3,24.92c-.21,4-5.41,7.4-12.8,8.91-.48.09-.8.09-.91,0h0L29.3,35.48a.25.25,0,0,0,.19.05A33,33,0,0,0,41,32.3c4-2,6.23-4.66,6.35-7.41Z"/><path id="_Path_23" data-name=" Path 23" class="cls-22" d="M39.57,16.55c0-.12-.17-.22-.35-.3-.54-.22-1.1-.43-1.67-.62l-1,.69h.24c.3.1.45.23.47.4h0a.59.59,0,0,1-.2.38l-.21.18-.21.17,2,.35a4.36,4.36,0,0,0,.92-1.2A.11.11,0,0,1,39.57,16.55Z"/><path id="_Path_24" data-name=" Path 24" class="cls-23" d="M13.43,33.05c-.2-.08-.53-.16-.59-.41v-.06a.49.49,0,0,1,.18-.37l.21-.19.24-.2-1.89-.44a4.49,4.49,0,0,0-1.07,1.34.19.19,0,0,0,0,.18.58.58,0,0,0,.32.26c.5.2,1,.4,1.55.58l1.21-.64Z"/><path id="_Path_25" data-name=" Path 25" class="cls-24" d="M41,17.08l-.55-.27a.34.34,0,0,0-.31,0A.23.23,0,0,0,40,17l-.6,1.26,1.39,1.18.09-.2c.06-.12.12-.24.19-.36a.49.49,0,0,1,.27-.26h.12a.76.76,0,0,1,.47.16l.26.16.15-1.1C41.93,17.55,41.5,17.3,41,17.08Z"/><path id="_Path_26" data-name=" Path 26" class="cls-25" d="M22.56,13.79a2.42,2.42,0,0,0-1,.21,1.55,1.55,0,0,0-.24.19c-.27.35-.54.73-.79,1.11l1.41,1a4.47,4.47,0,0,1,1.08-1l.29-.15a3.72,3.72,0,0,1,1-.29V13.73C23.68,13.74,23.13,13.76,22.56,13.79Z"/><path id="_Path_27" data-name=" Path 27" class="cls-26" d="M26.86,34.3H26.8a3.65,3.65,0,0,1-1.55.35H25c-.79,0-1.57,0-2.34-.07l-.2,1c.84,0,1.69.08,2.54.08s1.66,0,2.47-.07a2.43,2.43,0,0,0,1-.22.58.58,0,0,0,.23-.18,18.43,18.43,0,0,0,1.71-2.65,1.19,1.19,0,0,0,.13-.25l-1.5-.88A5.43,5.43,0,0,1,26.86,34.3Z"/><path id="_Path_28" data-name=" Path 28" class="cls-27" d="M17.53,15.67a.29.29,0,0,1,0,.31,3,3,0,0,1-.18.28c-4.11,4.81-7.22,11.92-8.11,14l-.19.38a.53.53,0,0,1-.24.23l1.12,1.78a.29.29,0,0,0,.15-.14,103.3,103.3,0,0,1,8.28-14.86c.8-1.16,1.64-2.28,2.4-3.46,0-.07.06-.12,0-.16Z"/><path id="_Path_29" data-name=" Path 29" class="cls-28" d="M9.44,29.65c-.1.22-.18.41-.25.58a3.3,3.3,0,0,1-.19.38.45.45,0,0,1-.24.23H8.61a1,1,0,0,1-.48-.16c-.22-.13-.43-.27-.64-.41l.1,1.23c.44.27.92.54,1.42.79l.55.27a.36.36,0,0,0,.32,0,.23.23,0,0,0,.15-.14c.29-.63.59-1.25.89-1.87Z"/><path id="_Path_30" data-name=" Path 30" class="cls-29" d="M20.81,14c0-.06-.11-.09-.21-.09-1.26.12-2.49.31-3.67.53l-.82,1.2.42-.09a1.76,1.76,0,0,1,1,0v.06a.34.34,0,0,1,0,.31c-.05.08-.1.16-.19.28l-.08.08h2.06c.5-.71,1-1.42,1.48-2.15A.2.2,0,0,0,20.81,14Z"/><path class="cls-30" d="M25,12.87c-12.81,0-23.19,5.3-23.19,11.83S12.2,36.54,25,36.54,48.2,31.24,48.2,24.7,37.82,12.87,25,12.87ZM41.07,32.39a36.09,36.09,0,0,1-16,3.38,36,36,0,0,1-16-3.38c-4.1-2.1-6.36-4.83-6.36-7.68S5,19.13,9.07,17a36.17,36.17,0,0,1,16-3.38,36.23,36.23,0,0,1,16,3.38c4.09,2.1,6.36,4.82,6.36,7.68S45.16,30.3,41.07,32.39Z"/><path id="_Path_31" data-name=" Path 31" class="cls-31" d="M24.36,23l-.41.1a4.57,4.57,0,0,1-3.13-.24,2,2,0,0,1-.73-2.21l-2.4.86c-.06.3-.11.59-.14.89-.13,1.17.15,2.25,1.44,2.64a1,1,0,0,0,.29.08c.75.19,2.17.33,5.38-.53.33-.09.68-.19,1-.31l.08-1.65C25.36,22.75,24.85,22.88,24.36,23Z"/><path id="_Path_32" data-name=" Path 32" class="cls-32" d="M32.5,27c.11-1.17-.16-2.26-1.44-2.64-.79-.24-2.6-.71-8.49,1.33l.17,1.59a29.35,29.35,0,0,1,3.4-1c1.11-.24,5-.84,3.56,3.57l2.18-.44A9.93,9.93,0,0,0,32.5,27Z"/><path id="_Path_33" data-name=" Path 33" class="cls-33" d="M31.61,24.62l-2.48,1.84a1.66,1.66,0,0,1,.8,1l2.43-1.86A1.87,1.87,0,0,0,31.61,24.62Z"/><path id="_Path_34" data-name=" Path 34" class="cls-34" d="M33.5,33.83c-.48.09-.8.09-.91,0h0a.34.34,0,0,1,0-.34,2.47,2.47,0,0,1,.21-.27l.45-.56-2-.26c-.67,1-1.36,1.9-2,2.88-.06.09-.06.16,0,.2a.27.27,0,0,0,.19.05,38.87,38.87,0,0,0,4.45-.7v-1Z"/><path id="_Path_35" data-name=" Path 35" class="cls-1" d="M16.52,15.58C9,17.11,3.73,20.58,3.73,24.71c0,2.25,1.68,4.34,4.4,6a1,1,0,0,0,.48.16A.45.45,0,0,0,9,30.6c.05-.09.12-.24.19-.38.9-2,4-9.16,8.11-14,.09-.12.14-.2.19-.28a.29.29,0,0,0,0-.37A1.78,1.78,0,0,0,16.52,15.58Z"/><path id="_Path_36" data-name=" Path 36" class="cls-1" d="M36.8,16.39h-.12a40.6,40.6,0,0,0-11.59-1.61h-.24a3.85,3.85,0,0,0-1.54.35c-1.53.76-2.2,2.68-2.58,3.56C18.42,24,22.78,23.37,24,23.13a37.54,37.54,0,0,0,5.45-1.74,27,27,0,0,0,7.45-4l.21-.18a.59.59,0,0,0,.2-.38C37.27,16.63,37.11,16.49,36.8,16.39Z"/><path class="cls-35" d="M20.57,25.3h0A4.74,4.74,0,0,1,19,25.08c-1.13-.34-1.63-1.26-1.49-2.72a11.2,11.2,0,0,1,.79-2.88,21.45,21.45,0,0,1,1.28-2.7,19.6,19.6,0,0,1,1.71-2.65,1.72,1.72,0,0,1,1.29-.43c.83,0,1.66-.07,2.47-.07a38.22,38.22,0,0,1,14.22,2.54c.11,0,.49.22.36.52-.81,1.87-5.43,4.5-9.35,6C25.91,24.45,22.65,25.3,20.57,25.3ZM25,13.77c-.8,0-1.63,0-2.45.07a1.7,1.7,0,0,0-1.21.37,24.23,24.23,0,0,0-1.7,2.64,23.08,23.08,0,0,0-1.3,2.7,12.45,12.45,0,0,0-.79,2.85c-.13,1.38.34,2.25,1.39,2.57a5.19,5.19,0,0,0,1.56.21c2.06,0,5.31-.86,9.64-2.56,3.91-1.52,8.48-4.13,9.28-6,0-.09,0-.2-.3-.35A37.78,37.78,0,0,0,25,13.79Z"/><path id="_Path_37" data-name=" Path 37" class="cls-36" d="M19.36,16.17l-1,1.44a105.35,105.35,0,0,0-8,14.15l.13.06a102.47,102.47,0,0,1,8-14.13c.33-.49.68-1,1-1.44s.67-.94,1-1.42h-.15A11.75,11.75,0,0,0,19.36,16.17Z"/><path id="_Path_38" data-name=" Path 38" class="cls-37" d="M30.74,33.3c.34-.47.68-1,1-1.44a104.13,104.13,0,0,0,8-14H39.6a102.56,102.56,0,0,1-7.92,14c-.33.49-.67,1-1,1.44s-.61.85-.9,1.29h.16A4.82,4.82,0,0,1,30.74,33.3Z"/><path class="cls-38" d="M25,35.77a37.77,37.77,0,0,1-14.21-2.54c-.13,0-.49-.22-.36-.52.81-1.87,5.43-4.5,9.35-6,4.35-1.7,7.61-2.57,9.7-2.57a5.76,5.76,0,0,1,1.59.22c1.13.34,1.63,1.26,1.49,2.72a12.44,12.44,0,0,1-.8,2.88,21.47,21.47,0,0,1-1.27,2.7A21.29,21.29,0,0,1,28.8,35.3a1.76,1.76,0,0,1-1.3.43C26.68,35.74,25.84,35.77,25,35.77Zm4.47-11.53c-2.07,0-5.31.86-9.65,2.56-3.9,1.52-8.48,4.13-9.27,6,0,.09,0,.2.29.35A37.69,37.69,0,0,0,25,35.67c.82,0,1.65,0,2.47-.07a1.59,1.59,0,0,0,1.19-.37,18.54,18.54,0,0,0,1.68-2.68,21.26,21.26,0,0,0,1.28-2.68A11.69,11.69,0,0,0,32.42,27c.14-1.38-.33-2.25-1.39-2.57A5.72,5.72,0,0,0,29.49,24.24Z"/><path id="_Path_39" data-name=" Path 39" class="cls-39" d="M20.86,14a.28.28,0,0,0-.26-.11h0A33.53,33.53,0,0,0,9,17c-4.14,2.09-6.41,4.82-6.41,7.68S4.86,30.3,9,32.39l.55.27a.45.45,0,0,0,.23,0,.36.36,0,0,0,.34-.2c.1-.24.22-.46.33-.69l-.13-.06L10,32.4a.28.28,0,0,1-.38.09L9,32.3C5,30.2,2.72,27.51,2.72,24.7S5,19.21,9.05,17.14A33,33,0,0,1,20.61,14h.14s0,.06,0,.11c-.15.21-.3.43-.44.65h.14l.4-.6A.21.21,0,0,0,20.86,14Z"/><path id="_Path_40" data-name=" Path 40" class="cls-40" d="M41.07,17l-.55-.27a.41.41,0,0,0-.56.16h0c-.13.29-.27.57-.4.86h.14l.39-.83a.23.23,0,0,1,.21-.13.43.43,0,0,1,.16,0l.55.27c4.09,2.13,6.36,4.82,6.36,7.63S45.09,30.21,41,32.3a32.59,32.59,0,0,1-11.49,3.13c-.11,0-.27,0-.17-.15l.55-.8h-.16c-.17.24-.34.49-.49.73s-.07.2,0,.25a.65.65,0,0,0,.35.1A33.13,33.13,0,0,0,41.07,32.4c4.13-2.09,6.4-4.82,6.4-7.68S45.2,19.12,41.07,17Z"/></g></svg>