<?xml version="1.0" encoding="utf-8"?>
<!-- Generator: Adobe Illustrator 22.1.0, SVG Export Plug-In . SVG Version: 6.00 Build 0)  -->
<svg version="1.1" id="Layer_1" xmlns="http://www.w3.org/2000/svg" xmlns:xlink="http://www.w3.org/1999/xlink" x="0px" y="0px"
	 viewBox="0 0 50 50" style="enable-background:new 0 0 50 50;" xml:space="preserve">
<style type="text/css">
	.st0{fill:#747575;}
	.st1{fill:url(#SVGID_1_);}
	.st2{fill:url(#SVGID_2_);}
	.st3{fill:url(#SVGID_3_);}
	.st4{fill:url(#SVGID_4_);}
	.st5{fill:url(#SVGID_5_);}
</style>
<title>infiniti</title>
<path class="st0" d="M25,13.1c-12.3,0-25.6,4.5-22.9,14.2c2.3,8.3,17.1,9.6,17.1,9.6L25,22.4l5.8,14.5c0,0,17.4-1.2,17.4-11.8
	C48.2,17,36.8,13.1,25,13.1z M35.2,29L25,17.1L14.7,29c0,0-7.2-1.2-7.2-5.4c0-4,6.9-7.6,17.5-7.7c9.5-0.1,17,3.2,17.4,7.7
	C42.8,27.6,35.2,29,35.2,29z"/>
<linearGradient id="SVGID_1_" gradientUnits="userSpaceOnUse" x1="2.08" y1="26.3953" x2="48.04" y2="26.3953" gradientTransform="matrix(1 0 0 -1 0 51)">
	<stop  offset="0" style="stop-color:#FFFFFF"/>
	<stop  offset="0" style="stop-color:#E3E3E3"/>
	<stop  offset="1.000000e-02" style="stop-color:#BFBFBF"/>
	<stop  offset="1.000000e-02" style="stop-color:#9F9F9F"/>
	<stop  offset="2.000000e-02" style="stop-color:#838383"/>
	<stop  offset="3.000000e-02" style="stop-color:#6D6D6D"/>
	<stop  offset="4.000000e-02" style="stop-color:#5C5C5C"/>
	<stop  offset="5.000000e-02" style="stop-color:#515151"/>
	<stop  offset="6.000000e-02" style="stop-color:#4A4A4A"/>
	<stop  offset="0.11" style="stop-color:#484848"/>
	<stop  offset="0.12" style="stop-color:#3E3E3E"/>
	<stop  offset="0.16" style="stop-color:#282828"/>
	<stop  offset="0.2" style="stop-color:#161616"/>
	<stop  offset="0.25" style="stop-color:#090909"/>
	<stop  offset="0.32" style="stop-color:#020202"/>
	<stop  offset="0.49" style="stop-color:#000000"/>
	<stop  offset="0.6" style="stop-color:#040404"/>
	<stop  offset="0.72" style="stop-color:#121212"/>
	<stop  offset="0.85" style="stop-color:#272727"/>
	<stop  offset="0.93" style="stop-color:#393939"/>
	<stop  offset="0.94" style="stop-color:#3D3D3D"/>
	<stop  offset="0.95" style="stop-color:#4A4A4A"/>
	<stop  offset="0.96" style="stop-color:#5E5E5E"/>
	<stop  offset="0.97" style="stop-color:#7B7B7B"/>
	<stop  offset="0.98" style="stop-color:#A0A0A0"/>
	<stop  offset="0.99" style="stop-color:#CDCDCD"/>
	<stop  offset="1" style="stop-color:#FFFFFF"/>
</linearGradient>
<path class="st1" d="M47.8,24.6c0-0.9-1.8-10.6-23-11.2c-5.1,0-10.1,0.9-14.8,2.7c-4.8,2-8,6.1-7.7,8.9c0.9,9.1,14.2,10.3,15,10.3
	c0.5,0,0.9,0.2,1.2,0.5c0-0.2,0-0.5,0-0.7c0,0,4.3-10.5,5.3-11.8s1.8-1.3,3.1,1.6s4.5,10.4,4.5,10.4c0,0.2,0,0.3,0,0.5
	c0.2-0.2,0.5-0.4,0.8-0.4c0.5,0,7.2-0.8,11.1-3.5C45.9,30.3,47.5,27.6,47.8,24.6z M44.7,23.8c-0.2,4.8-7.2,6.3-9.4,6.7L25,18.3
	L14.8,30.6c0,0-8.9-1.2-9.4-6.7s8.8-9.7,19.7-9.8S44.9,18.7,44.7,23.8z"/>
<linearGradient id="SVGID_2_" gradientUnits="userSpaceOnUse" x1="21.53" y1="36.2761" x2="28.94" y2="36.2761" gradientTransform="matrix(1 0 0 -1 0 51)">
	<stop  offset="0" style="stop-color:#64655A"/>
	<stop  offset="0.16" style="stop-color:#626358"/>
	<stop  offset="0.26" style="stop-color:#5A5A51"/>
	<stop  offset="0.33" style="stop-color:#4D4C45"/>
	<stop  offset="0.4" style="stop-color:#3A3835"/>
	<stop  offset="0.46" style="stop-color:#231F20"/>
	<stop  offset="0.53" style="stop-color:#313033"/>
	<stop  offset="0.63" style="stop-color:#42464A"/>
	<stop  offset="0.73" style="stop-color:#4E565B"/>
	<stop  offset="0.85" style="stop-color:#565F65"/>
	<stop  offset="1" style="stop-color:#586268"/>
</linearGradient>
<path class="st2" d="M21.5,14.3c0,0,2.8,0.9,3.5,1.2c1.3-0.5,2.6-0.9,4-1.2C29,14.3,24.1,13.6,21.5,14.3z"/>
<linearGradient id="SVGID_3_" gradientUnits="userSpaceOnUse" x1="6.4436" y1="28.71" x2="6.4436" y2="26.03" gradientTransform="matrix(1 0 0 -1 0 51)">
	<stop  offset="0" style="stop-color:#C3D1E6;stop-opacity:0"/>
	<stop  offset="6.000000e-02" style="stop-color:#C3D1E6;stop-opacity:2.000000e-02"/>
	<stop  offset="0.14" style="stop-color:#C3D1E6;stop-opacity:9.000000e-02"/>
	<stop  offset="0.22" style="stop-color:#C3D1E6;stop-opacity:0.19"/>
	<stop  offset="0.3" style="stop-color:#C3D1E6;stop-opacity:0.34"/>
	<stop  offset="0.39" style="stop-color:#C3D1E6;stop-opacity:0.52"/>
	<stop  offset="0.46" style="stop-color:#C3D1E6;stop-opacity:0.7"/>
	<stop  offset="0.49" style="stop-color:#C3D1E6;stop-opacity:0.64"/>
	<stop  offset="0.57" style="stop-color:#C3D1E6;stop-opacity:0.44"/>
	<stop  offset="0.66" style="stop-color:#C3D1E6;stop-opacity:0.28"/>
	<stop  offset="0.75" style="stop-color:#C3D1E6;stop-opacity:0.16"/>
	<stop  offset="0.83" style="stop-color:#C3D1E6;stop-opacity:7.000000e-02"/>
	<stop  offset="0.92" style="stop-color:#C3D1E6;stop-opacity:2.000000e-02"/>
	<stop  offset="1" style="stop-color:#C3D1E6;stop-opacity:0"/>
</linearGradient>
<path class="st3" d="M7.7,24.4l-1.9,1.1c-1.3-1.7,0.1-4,0.1-4L7.6,23C7.5,23.5,7.6,23.9,7.7,24.4z"/>
<linearGradient id="SVGID_4_" gradientUnits="userSpaceOnUse" x1="2949.7002" y1="28.71" x2="2949.7002" y2="26.03" gradientTransform="matrix(-1 0 0 -1 2993.25 51)">
	<stop  offset="0" style="stop-color:#CACCBE;stop-opacity:0"/>
	<stop  offset="7.000000e-02" style="stop-color:#CACCBE;stop-opacity:2.000000e-02"/>
	<stop  offset="0.15" style="stop-color:#CACCBE;stop-opacity:0.1"/>
	<stop  offset="0.23" style="stop-color:#CACCBE;stop-opacity:0.21"/>
	<stop  offset="0.33" style="stop-color:#CACCBE;stop-opacity:0.38"/>
	<stop  offset="0.42" style="stop-color:#CACCBE;stop-opacity:0.59"/>
	<stop  offset="0.46" style="stop-color:#CACCBE;stop-opacity:0.7"/>
	<stop  offset="0.55" style="stop-color:#CACCBE;stop-opacity:0.5"/>
	<stop  offset="0.64" style="stop-color:#CACCBE;stop-opacity:0.32"/>
	<stop  offset="0.73" style="stop-color:#CACCBE;stop-opacity:0.18"/>
	<stop  offset="0.82" style="stop-color:#CACCBE;stop-opacity:8.000000e-02"/>
	<stop  offset="0.91" style="stop-color:#CACCBE;stop-opacity:2.000000e-02"/>
	<stop  offset="1" style="stop-color:#CACCBE;stop-opacity:0"/>
</linearGradient>
<path class="st4" d="M42.4,24.4l1.8,1c1.4-1.7-0.1-4-0.1-4L42.3,23C42.5,23.5,42.5,23.9,42.4,24.4z"/>
<linearGradient id="SVGID_5_" gradientUnits="userSpaceOnUse" x1="2.6298" y1="26.6665" x2="47.3415" y2="26.6665" gradientTransform="matrix(1 0 0 -1 0 51)">
	<stop  offset="2.000000e-02" style="stop-color:#878787"/>
	<stop  offset="5.000000e-02" style="stop-color:#9F9F9F"/>
	<stop  offset="0.1" style="stop-color:#BDBDBD"/>
	<stop  offset="0.15" style="stop-color:#D5D5D5"/>
	<stop  offset="0.21" style="stop-color:#E8E8E8"/>
	<stop  offset="0.28" style="stop-color:#F5F5F5"/>
	<stop  offset="0.36" style="stop-color:#FDFDFD"/>
	<stop  offset="0.53" style="stop-color:#FFFFFF"/>
	<stop  offset="0.64" style="stop-color:#FCFCFC"/>
	<stop  offset="0.72" style="stop-color:#F2F2F2"/>
	<stop  offset="0.79" style="stop-color:#E2E2E2"/>
	<stop  offset="0.86" style="stop-color:#CACACA"/>
	<stop  offset="0.92" style="stop-color:#ADADAD"/>
	<stop  offset="0.98" style="stop-color:#888888"/>
	<stop  offset="0.98" style="stop-color:#878787"/>
</linearGradient>
<path class="st5" d="M25.1,13.4C7,13.2-0.3,22.1,3.7,28c3.3,4.8,14.4,7.2,14.4,7.2L25,19.8l6.9,15.4c0,0,4.3-1.4,5.5-1.7
	s7.7-1.7,9.6-6.9S43.1,13.6,25.1,13.4z M44.7,23.8c-0.2,4.8-7.2,6.3-9.4,6.7L25,18.3L14.8,30.6c0,0-8.9-1.2-9.4-6.7
	s8.8-9.7,19.7-9.8S44.9,18.7,44.7,23.8z"/>
</svg>
