<?xml version="1.0" encoding="utf-8"?>
<!-- Generator: Adobe Illustrator 22.1.0, SVG Export Plug-In . SVG Version: 6.00 Build 0)  -->
<svg version="1.1" id="Layer_1" xmlns="http://www.w3.org/2000/svg" xmlns:xlink="http://www.w3.org/1999/xlink" x="0px" y="0px"
	 viewBox="0 0 50 50" style="enable-background:new 0 0 50 50;" xml:space="preserve">
<style type="text/css">
	.st0{fill:#C0C0C0;}
	.st1{fill:#7D7D7D;}
	.st2{fill:#505050;}
	.st3{fill:#959696;}
	.st4{fill:#A1A1A1;}
	.st5{fill:#474745;}
	.st6{fill:#BBBCBC;}
	.st7{fill:#B1B2B2;}
	.st8{fill:#212121;}
	.st9{fill:#353534;}
	.st10{fill:#B3B3B3;}
	.st11{fill:#999999;}
	.st12{fill:#6E6E6E;}
	.st13{fill:#202020;}
	.st14{fill:#9C9D9D;}
	.st15{fill:#ECECEC;}
	.st16{fill:#EAEAEA;}
	.st17{fill:#161614;}
	.st18{fill:#E9E9E9;}
	.st19{fill:#9F9F9F;}
	.st20{fill:#898989;}
	.st21{fill:#9C9C9C;}
	.st22{opacity:0.51;fill:#FCFCFC;enable-background:new    ;}
	.st23{fill:#323232;}
	.st24{opacity:0.41;fill:#FEFEFE;enable-background:new    ;}
	.st25{opacity:0.28;fill:#474745;enable-background:new    ;}
	.st26{fill:#2B2B2B;}
	.st27{opacity:0.55;fill:#2B2B2B;enable-background:new    ;}
	.st28{opacity:0.46;fill:#FEFEFE;enable-background:new    ;}
</style>
<title>jaguar</title>
<path class="st0" d="M2.2,19l0.2-0.3c0.1-0.1,0.1-0.3,0.2-0.5c0.1-0.2,0.2-0.4,0.3-0.5c0.2-0.2,0.5-0.4,0.8-0.5
	c0.3-0.1,0.7-0.2,1-0.4c1.6-0.4,3.2-0.6,4.8-0.5c1.1,0.1,2.2,0.2,3.3,0.5c1.6,0.4,3.2,0.8,4.8,1.3l1.2,0.3l5.2,1.8l4,1.6l4,1.7
	l2.2,1.2l2.2,1.3l5,2.6c0.7,0.4,1.3,0.7,2,1.1c0.8,0.4,1.6,0.6,2.5,0.6c0.3,0,0.5-0.1,0.7-0.2c0.2-0.1,0.4-0.3,0.6-0.4
	c0.2-0.1,0.5-0.2,0.7-0.2c0.3-0.1,0.6,0,0.8,0.2c0.1,0.1,0.1,0.2,0.1,0.3c0.1,1.1-1.2,1.7-2,1.9c-0.4,0.1-0.8,0.2-1.2,0.1
	c-0.3,0-0.7-0.1-1-0.2c0.1,0.2,0.1,0.3,0.1,0.5c0,0.2,0,0.3,0,0.5c-0.1,0.9-1.2,0.8-1.8,0.7c-0.6-0.1-1.2-0.5-1.7-0.9
	c-0.6-0.6-1.3-1.1-2.1-1.6c-0.4-0.2-0.9-0.4-1.4-0.3c-0.8,0-1.7,0-2.5,0.1c-0.8,0-1.7,0-2.5,0c-0.2,0-0.5,0-0.7-0.1
	c-0.5-0.1-1.1-0.4-1.5-0.7L30.4,30c-0.5-0.5-0.9-1.1-1.4-1.7c-0.2-0.3-0.4-0.6-0.6-0.9c-0.2-0.3-0.4-0.6-0.6-0.8
	c-0.4-0.3-1-0.4-1.5-0.4c-0.7-0.1-1.3-0.1-2,0c-0.8,0.1-1.6,0.3-2.4,0.4c-0.7,0.1-1.5,0-2.2-0.1c-0.7-0.1-1.3-0.4-2-0.5l-0.4,0.2
	c-0.3,0.1-0.7,0.2-1,0.2c-1.6,0-3.1-0.7-4.6-1.1l-0.2,0c-0.4-0.1-0.7-0.2-1.1-0.2l-0.8-0.1H9.3C9.2,24.9,9,25,8.9,25.1
	S8.4,25.7,8.1,26S7.4,26.7,7,26.5c-0.9-0.4-0.3-1.6,0-2.2c0.4-0.5,0.9-0.9,1.5-1.2c0.6-0.2,1.2-0.3,1.8-0.4h0.1l0.8,0h0.3
	c-0.1,0-0.3-0.2-0.4-0.3s-0.3-0.2-0.4-0.3c-0.2-0.2-0.5-0.3-0.8-0.4l-0.5-0.2c-0.3-0.1-0.5-0.2-0.8-0.2c-0.5-0.1-1,0-1.5,0
	c-0.7,0.2-1.3,0.6-1.8,1.2C5.2,22.7,5.1,22.9,5,23c-0.1,0.1-0.3,0.2-0.4,0.2c-0.2,0-0.3,0-0.5-0.1L3.9,23c-0.1-0.1-0.2-0.2-0.3-0.3
	c0-0.1,0-0.2,0-0.3l0.1-0.5h0.2c0.2,0,0.4-0.1,0.6-0.3c0.1-0.3,0.1-0.5,0.1-0.8c0-0.2-0.1-0.3-0.3-0.4c-0.1-0.1-0.3-0.1-0.4-0.1
	c-0.2,0-0.2,0.1-0.3,0.2c-0.1,0.1-0.1,0.2-0.1,0.3c0,0.2,0,0.4,0,0.6v0.3v0.1l-0.3-0.2c-0.1,0-0.2,0-0.3,0c-0.1,0-0.3,0-0.5,0
	c-0.2-0.1-0.3-0.2-0.4-0.3c-0.2-0.3-0.5-0.5-0.7-0.8l0,0c0,0,0,0,0-0.1c0-0.4,0.2-0.7,0.5-0.9L2,19.2C2.1,19.1,2.1,19.1,2.2,19z"/>
<path class="st1" d="M12,22.6c0.1,0,0.1,0,0.1-0.1c0,0,0-0.1,0-0.1c-0.2-0.7-0.6-1.2-1.3-1.5c-0.7-0.3-1.4-0.4-2.2-0.4
	c-0.2,0-1.7,0-1.7,0.2v-0.1l-0.6-0.4c-0.2,0-0.4,0-0.6,0c-0.1,0-0.1,0-0.2,0c-0.2-0.1-0.4-0.3-0.6-0.3c-0.1,0-0.1,0-0.2,0
	c0.2,0.4,0.3,0.7,0.3,1.1c0,0.2,0,0.5,0,0.7c0,0.2,0.1,0.4,0.1,0.7c0.3-0.4,0.7-0.7,1.2-0.9c0.6-0.2,1.2-0.3,1.8-0.3
	c0.3,0,0.5,0,0.8,0.1c0.6,0.1,1.2,0.3,1.8,0.6c0.3,0.2,0.8,0.5,0.6,0.9c0.1,0,0.1,0.1,0.1,0.1l0,0C11.6,22.7,11.8,22.6,12,22.6z"/>
<path class="st2" d="M34.1,26.3c0,0,2,0.8,2,0.8l2.6,1.1c-1.1,0.2-2.3,0.1-3.3-0.4c-0.3-0.2-0.6-0.4-0.8-0.7
	c-0.2-0.2-0.3-0.4-0.4-0.6L34.1,26.3z"/>
<path class="st3" d="M40.7,29.1c0.2,0.3,0.5,0.6,0.8,0.9c0.6,0.5,1.3,0.9,2,1.3c0.3,0.2,0.6,0.3,0.9,0.5c0.6,0.3,1.4,0.5,2.1,0.3
	c0.6-0.1,1.1-0.3,1.6-0.6c0.4-0.2,0.6-0.6,0.6-1.1v-0.3c-0.2,0.2-0.3,0.4-0.5,0.5c-0.8,0.5-1.8,0.7-2.7,0.6
	c-0.8-0.2-1.7-0.5-2.4-0.9c-0.3-0.1-0.5-0.3-0.8-0.4l-0.3-0.2L40.7,29.1z"/>
<path class="st3" d="M18.3,23.9c1.7,0.4,3.6,0.5,5.3,0.2c0.6-0.2,1.2-0.3,1.8-0.3c0.6,0,1.2,0.2,1.8,0.5c1,0.5,1.8,1.2,2.5,2
	c0.9,1.1,1.8,2.4,3.2,2.9c0.8,0.2,1.7,0.4,2.5,0.4c0.6,0,1.3,0.1,1.9,0c0.6-0.1,1.1,0,1.7,0.1c0.5,0.2,1,0.6,1.4,1
	c0.8,0.9,1.8,1.5,3,1.8c0.3,0,0.5,0,0.8,0.1c0.3,0.1,0.4,0.3,0.4,0.6c-0.8,0.6-1.9,0.5-2.7-0.1c-0.8-0.7-1.7-1.3-2.7-2
	c-1-0.4-2.1-0.6-3.2-0.4c-1.9,0.1-4.1,0.5-5.6-0.9c-0.5-0.5-0.9-1-1.3-1.6c-0.4-0.7-0.9-1.4-1.6-1.9c-0.5-0.2-1-0.3-1.6-0.3
	c-1.4,0-2.7,0.4-4.1,0.4c-1.2,0.1-2.5-0.1-3.6-0.5L18.3,23.9z"/>
<path class="st4" d="M30.3,24.8h-0.1c-0.6-0.2-1.1-0.4-1.6-0.8c-1.3-0.8-2.7-1.4-4.1-1.6c-0.7-0.1-1.4-0.1-2.1-0.2s-1.7-0.3-2.6-0.4
	c-0.1,0-0.2-0.1-0.3-0.1c-0.1-0.1-0.2-0.2-0.2-0.3c-0.3-0.5-0.5-1-0.6-1.5c0-0.1-0.2-0.7-0.1-0.8s0.8,0.2,1,0.3
	c2,0.8,4.1,1.6,6.1,2.5c1.1,0.5,2.2,1,3.4,1.3c1.1,0.3,2.1,0.8,3.1,1.3C31.5,24.7,30.9,24.8,30.3,24.8z"/>
<path class="st5" d="M12,22.5c-0.2,0.1-0.4,0.1-0.5,0.1c1.1,0,2.1,0.1,3.1,0.4c-0.3-0.3-0.6-0.5-1-0.7c-0.3-0.1-0.5-0.3-0.8-0.4
	c-0.2-0.2-0.4-0.4-0.6-0.6c-1.2-1.3-2.6-2.4-4-3.4c-0.1,0-0.1-0.1-0.2-0.1c-0.1-0.2-0.1-0.4,0-0.7C7.5,17.7,6.8,18,6,18
	c0.4,0.2,0.8,0.6,0.9,1.1C7,19.5,7,20,7,20.4l-0.4-0.9c-0.1-0.4-0.6-0.1-0.8-0.1H5.6c-0.4-0.1-0.9-0.3-1.2-0.1
	c-0.4,0.1-0.7,0.3-1,0.5c-0.1,0.1-0.1,0.3-0.1,0.4c0,0.1,0,0.3-0.1,0.4c-0.1,0.1-0.2,0.1-0.3,0.1c-0.1,0-0.2,0-0.3,0
	c-0.1,0-0.1-0.1-0.2-0.1c-0.1,0-0.3-0.1-0.4-0.1c0,0-0.1-0.1-0.1-0.1c-0.2-0.1-0.2,0.2-0.3,0.3l0,0c0,0,0.2,0.2,0.2,0.3
	c0.2,0.2,0.5,0.6,0.8,0.6c0.2,0,0.3,0,0.5,0c0.1,0,0.2,0,0.2,0c-0.1-0.1-0.2-0.1-0.3-0.2c-0.3-0.1-0.5-0.2-0.8-0.4l-0.1-0.1h0.7
	c0.3,0,0.5,0,0.6-0.3s0.2-0.5,0.5-0.5c0.2,0,0.5,0,0.7,0.1c0.1,0.2,0.2,0.4,0.2,0.6c0,0.4,0,0.7,0,1.1c0,0.2,0,0.3-0.1,0.5
	c-0.2,0-0.3,0-0.5,0c-0.1,0-0.2-0.1-0.3-0.2l-0.1-0.2c0,0.3-0.1,0.8,0.2,1C3.9,22.9,4,22.9,4,23c0.8,0.5,1.3-0.3,1.7-0.8l0.4-0.4
	l0.5-0.3l0.5-0.1L8,21.3c0.5,0,1,0.1,1.5,0.2c0.7,0.2,1.3,0.6,1.9,1.1c0.2-0.4-0.3-0.7-0.6-0.9c-0.5-0.3-1.1-0.5-1.7-0.6
	c-0.3,0-0.5-0.1-0.8-0.1c-0.6,0-1.2,0.1-1.8,0.3c-0.4,0.2-0.8,0.6-1.2,0.9c0-0.2,0-0.4-0.1-0.7c0-0.2,0-0.5,0-0.7
	c-0.1-0.4-0.2-0.8-0.3-1.1c0.1,0,0.1,0,0.2,0c0.2,0.1,0.4,0.3,0.7,0.3c0.1,0,0.1,0,0.2,0c0.2,0,0.4-0.1,0.6-0.1l0.6,0.4
	c0,0,0,0.1,0,0.1c0-0.2,1.5-0.2,1.7-0.2c0.8,0,1.5,0.1,2.2,0.4c0.6,0.3,1.1,0.8,1.3,1.5c0,0.1,0,0.1,0,0.2
	C12.2,22.5,12.1,22.6,12,22.5z"/>
<path class="st6" d="M38.9,28.5h-0.5c-0.4,0.1-0.7,0.1-1.1,0.1c-0.7,0-1.4-0.3-2.2-0.3H35c0.1,0.1,0.2,0.2,0.4,0.3
	c0.1,0.1,0.3,0.1,0.5,0.2c0.6,0.1,1.2,0.2,1.8,0.1c0.3,0,0.6-0.1,0.9-0.1c0.3,0,0.5-0.1,0.8-0.2c0,0,0.2-0.1,0.2-0.1
	C39.3,28.4,39.1,28.5,38.9,28.5z"/>
<path class="st6" d="M44,32c-0.1,0-0.2-0.1-0.3-0.1s-0.2-0.2-0.4-0.2c-0.3-0.2-0.6-0.3-0.9-0.5l-0.5-0.2c0.3,0.4,0.7,0.7,1.1,1
	C43.3,32.1,43.7,32.1,44,32z"/>
<path class="st7" d="M7.9,16.8c0.9-0.2,1.8-0.2,2.7,0l3.9,1c1,0.2,1.9,0.9,2.5,1.8c0.6,0.9,1,1.9,1.2,3c-0.1-0.2-0.5-0.6-0.6-0.8
	c-0.5-0.9-1.1-1.8-1.7-2.5c-0.9-0.8-2-1.3-3.2-1.4c-0.8-0.2-1.6-0.6-2.4-0.7c-0.4,0-0.8,0.1-1.2,0C8.7,17.2,8.2,17,7.9,16.8z"/>
<path class="st8" d="M34.1,26.3l0.8,0.5c0.4,0.2,0.8,0.4,1.3,0.6c0.5,0.2,1.1,0.4,1.7,0.6c0.3,0.1,0.6,0.2,0.9,0.2
	c-0.2-0.1-0.6-0.4-0.8-0.4s-0.5-0.2-0.6-0.3c-0.3-0.2-0.6-0.3-0.9-0.4C35.6,26.7,34.8,26.5,34.1,26.3z"/>
<path class="st9" d="M40.7,29.1l2.2,1.2c0.4,0.2,0.8,0.5,1.3,0.6c0.2,0.1,0.5,0.2,0.7,0.2c0.2,0.1,0.5,0.1,0.7,0.1
	c0.5,0,1-0.1,1.5-0.3c0.3-0.2,0.6-0.4,0.8-0.6c0.2-0.2,0.4-0.2,0.6-0.2c-0.1,0.2-0.2,0.5-0.3,0.7c-0.3,0.2-0.6,0.4-1,0.5
	c-0.4,0.1-0.9,0.2-1.3,0.2c-1,0-2-0.3-2.9-0.8l-0.3-0.2C42,30.2,41.3,29.6,40.7,29.1z"/>
<path class="st10" d="M33.2,24.4c1.5,0.8,3,1.5,4.5,2.4c1.3,0.7,2.7,1.4,4,2.1c0.8,0.4,1.5,0.8,2.3,1.2c0.3,0.1,0.7,0.2,1.1,0.3
	c0.5,0.2,1.1,0.1,1.6-0.1c0.3-0.2,0.6-0.4,1-0.5c0.4-0.1,0.8,0.1,0.9,0.5c-0.3,0-0.5,0-0.8,0c-0.5,0.1-0.9,0.3-1.4,0.4
	c-0.5,0.1-1.1,0.1-1.6,0c-1.3-0.4-2.5-1-3.6-1.7c-0.8-0.4-1.6-0.8-2.4-1.2l-3.7-1.9l-1.6-0.8l-0.5-0.3c-0.3-0.2-0.5-0.4-0.8-0.6
	L33.2,24.4z"/>
<path class="st11" d="M8.7,19.2c-0.4-0.3-0.9-0.4-1.4-0.4c0,0,0,0-0.1,0c0,0,0,0,0,0.1c0,0.2,0.2,0.9,0.4,0.9c0.6,0,1.3,0.1,1.9,0.3
	c0.5,0.1-0.3-0.6-0.4-0.7C8.9,19.3,8.8,19.3,8.7,19.2z"/>
<path class="st12" d="M3,18.6C3,18.6,2.9,18.6,3,18.6c-0.1,0-0.2,0-0.2-0.1c-0.1-0.1-0.1-0.2,0-0.3C2.9,18.1,3,18,3.1,18
	c0.4-0.2,0.9-0.3,1.4-0.3h0.1c0.1,0,0.2,0.1,0.3,0.2c0,0-0.1,0.1-0.2,0.1c-0.1,0.1-0.2,0.1-0.4,0.2S4,18.3,3.8,18.4
	c-0.1,0-0.2,0.1-0.3,0.2l-0.1,0.1c0,0-0.1,0.1-0.1,0.1s-0.1-0.1-0.1-0.1C3.1,18.6,3.1,18.6,3,18.6z"/>
<path class="st13" d="M4.8,17.7c-0.1,0-0.1,0-0.2,0c-0.2,0-0.3,0-0.5,0c-0.2,0-0.4,0.1-0.6,0.1c-0.2,0-0.4,0.1-0.6,0.3
	c-0.1,0.1-0.2,0.2-0.2,0.3c0,0.1,0,0.2,0.1,0.2c0.1,0,0.2,0,0.2,0c0.1,0,0.1,0,0.2,0.1c0,0,0,0.1,0,0.1h0.2c0.1,0,0.2,0,0.3,0
	c0.1-0.1,0.2-0.1,0.4-0.2c0.1-0.1,0.2-0.2,0.2-0.3l0.1-0.1c0,0-0.2,0-0.3,0H3.9c-0.2,0-0.4,0.1-0.5,0.3c0,0.1-0.1,0.2-0.1,0.4
	c0-0.1-0.1-0.1-0.2-0.1c-0.1,0-0.1,0-0.2,0c0,0,0,0-0.1,0l0,0c-0.1-0.2,0-0.5,0.2-0.6c0,0,0,0,0,0c0.3-0.1,0.6-0.2,0.9-0.2h0.5
	c0.1,0,0.2,0.1,0.3,0.1C4.8,18,4.7,18,4.6,18c-0.1,0-0.2,0.1-0.2,0.1c0.2,0,0.3-0.1,0.4-0.2C5,17.9,4.9,17.8,4.8,17.7z"/>
<path class="st14" d="M3.7,21.8l0.1,0.2c0.1,0.1,0.2,0.2,0.3,0.2c0.1,0,0.5,0,0.5,0c0.1-0.2,0.1-0.3,0.1-0.5c0-0.4,0-0.7,0-1.1
	c0-0.2-0.1-0.4-0.2-0.6C4.3,20,4,20,3.8,20c-0.3,0.1-0.3,0.3-0.5,0.6s-0.3,0.3-0.6,0.3H2.1L2.2,21c0.2,0.1,0.5,0.2,0.7,0.3
	s0.2,0.1,0.3,0.2l0.3,0.2v-0.1v-0.3c0-0.2,0-0.4,0-0.6c0-0.1,0.1-0.2,0.1-0.3c0.1-0.1,0.2-0.2,0.3-0.2c0.1,0,0.3,0,0.4,0.1
	c0.1,0.1,0.2,0.2,0.3,0.4c0.1,0.3,0.1,0.6-0.1,0.8c-0.1,0.2-0.3,0.3-0.6,0.3L3.7,21.8c-0.1-0.1-0.1,0.4-0.1,0.4c0,0.1,0,0.2,0,0.3
	c0.1,0.1,0.2,0.3,0.3,0.3l0,0l-0.1-0.1C3.7,22.6,3.7,22.1,3.7,21.8z"/>
<path class="st15" d="M6,17.5C6.3,17.2,6.6,17,7,17c0.3,0,0.7,0,1,0c-0.3,0.2-0.5,0.3-0.8,0.5l-0.3,0.2c-0.2,0.1-0.5,0.2-0.7,0.2
	C5.9,17.9,5.8,17.7,6,17.5z"/>
<path class="st16" d="M33.5,25.5c0,0-0.1-0.1-0.1-0.2l-0.6-1.1c0.7,0.7,1.6,1.3,2.5,1.8c2,1.1,4.1,2,6.1,3.1
	c0.1,0.1,0.3,0.2,0.4,0.2c0,0,3,1.5,3.5,1.6c0.1,0,0.2,0,0.3,0c0.5,0,1-0.2,1.4-0.5c0.2-0.1,1.2-0.8,1.3-0.6c0,0.1,0,0.1,0,0.2
	c-0.2,0.3-0.5,0.2-0.8,0.4c-0.3,0.2-0.7,0.3-1,0.5c-0.6,0.1-1.2,0.1-1.8-0.1c-1.6-0.6-3.2-1.4-4.6-2.2l-1.4-0.8
	c-1.5-0.8-3.2-1.5-4.8-2.2C33.6,25.6,33.6,25.6,33.5,25.5z"/>
<path class="st17" d="M6.2,17.7l0.2-0.1c0.1-0.1,0.2-0.1,0.3-0.1c0.2-0.1,0.4-0.1,0.7-0.1c-0.1,0-0.1,0.1-0.2,0.1
	c-0.2,0-0.5,0.1-0.7,0.2L6.2,17.7z"/>
<path class="st18" d="M1.7,19.8c0.1-0.2,0.3-0.3,0.5-0.4c0,0.2,0.2,0.3,0.4,0.3c0.1,0,0.2-0.1,0.2-0.1L3.7,19
	c-0.3,0.3-0.5,0.6-0.7,0.9C3,19.9,3,20,3,20c0,0,0,0.1,0,0.1c0,0.1-0.1,0.2-0.2,0.2c-0.3,0.1-0.6,0-0.9,0.1c0,0-0.1,0-0.1,0
	s0-0.2-0.1-0.3s-0.3,0-0.3,0S1.6,19.8,1.7,19.8z"/>
<path class="st17" d="M1.8,20.6l-0.1-0.4c0,0-0.1,0-0.1,0c0,0-0.1,0-0.1,0.1c0,0-0.1,0-0.1,0c-0.1,0-0.1-0.1-0.1-0.1c0,0,0,0,0,0
	c0.1-0.2,0.2-0.4,0.3-0.5l0.8-0.9l-0.6,0.6c-0.2,0.2-0.3,0.4-0.5,0.7c-0.1,0.2-0.1,0.4,0.1,0.6c0-0.1-0.1-0.1-0.1-0.2
	c0.1,0,0.2,0,0.3-0.1C1.7,20.4,1.7,20.5,1.8,20.6L1.8,20.6z"/>
<path class="st18" d="M5.7,17.6c0,0,0.1,0,0.1,0.1c0.1,0.1,0,0.3,0,0.4c0,0.2,0,0.4,0.2,0.6c0,0.1-0.1,0.1-0.2,0.1
	c-0.1,0-0.2,0-0.2,0c-0.1,0-0.3,0-0.4,0l-0.2-0.1c-0.3-0.1-0.6-0.1-0.9,0.1c0.2-0.2,0.3-0.5,0.5-0.7c0.1,0,0.3-0.1,0.4-0.1
	c0.1-0.1,0.2-0.2,0.3-0.2v-0.1c0-0.1-0.8-0.1-0.9-0.1c-0.3,0-0.6,0.1-0.9,0.2C4.1,17.3,4.9,17.3,5.7,17.6z"/>
<path class="st5" d="M3.3,18.7c0.1-0.1,0.2-0.1,0.3-0.2c0.1-0.1,0.2-0.1,0.3,0c0.1,0,0.1,0,0.2,0c-0.1,0.1-0.2,0.1-0.3,0.1
	c-0.1,0-0.2,0-0.3,0H3.5L3.3,18.7z"/>
<polygon class="st5" points="3.5,21.7 3.3,21.7 3.2,21.6 3,21.5 3.2,21.4 3.2,21.3 3.4,21.6 "/>
<path class="st5" d="M6.2,17.4c0.2-0.1,0.3-0.2,0.5-0.2c0.2,0,0.4,0,0.5,0c0.2,0,0.3-0.1,0.5-0.1s0.1,0,0.1,0s0,0,0,0
	c-0.1,0-0.2,0.1-0.2,0.1H7.3c-0.3,0-0.6,0-0.8,0.1C6.4,17.3,6.2,17.4,6.2,17.4z"/>
<path class="st18" d="M4.6,22c0,0-0.1,0.1-0.2,0.1c-0.2,0.1-0.4,0.1-0.6,0.1H4c0,0,0,0,0.1-0.1c0.1,0,0.2-0.3,0.3-0.4
	s0.2-0.1,0.4-0.1C4.7,21.8,4.7,21.9,4.6,22z"/>
<path class="st19" d="M10.3,24.2c0.5,0,1.1,0.1,1.6,0.2c1.7,0.5,3.4,0.8,5.2,0.9c0.3,0,0.6,0,0.8,0.2c-0.7,0.5-1.5,0.7-2.3,0.6
	c-0.8-0.1-1.6-0.3-2.4-0.6c-1.2-0.4-2.3-0.7-3.5-0.9c-0.3-0.1-0.7,0-0.9,0.2C9.2,24.4,9.8,24.3,10.3,24.2z"/>
<path class="st20" d="M4.5,17.3c0.5-0.1,1-0.2,1.6-0.1c-0.2,0.3-0.4,0.3-0.7,0.2C5.1,17.2,4.8,17.2,4.5,17.3z"/>
<path class="st21" d="M8.2,18.6l-0.3-0.2c-0.2-0.1-0.4-0.2-0.6-0.2c-0.2,0-0.4,0.1-0.6,0.1c0.1,0,0.2-0.1,0.3-0.1
	c0.1,0,0.2,0,0.2-0.1c0.3-0.1,0.5-0.3,0.7-0.5c-0.2,0.1-0.1,0.4,0,0.5c0.2,0.2,0.4,0.4,0.6,0.5l0.3,0.1c0.1,0,0.1,0.1,0.2,0.1
	c0,0,0,0,0,0C9.1,19,9,19,9,19c-0.1,0-0.2-0.1-0.3-0.1C8.5,18.8,8.3,18.7,8.2,18.6z"/>
<path class="st22" d="M13.4,21.5c0.6,0.4,1.1,0.9,1.6,1.4c0.2,0.2,0.5,0.6,0.2,0.9c-0.1,0.1-0.2,0.2-0.3,0.2
	c-1.7,0.5-3.5-0.3-5.3-0.6c-0.4-0.1-0.8-0.1-1.2,0c-0.5,0.1-0.9,0.4-1.1,0.8c-0.2,0.3-0.5,1.1-0.1,1.4c1,0.9,1.4-0.8,2.1-1.1
	c0.2-0.1,0.5-0.2,0.8-0.3c0.3,0,0.6,0,0.9,0l2.6,0.3c1.1,0.3,2.3,0.1,3.2-0.5c0.2-0.1,0.3-0.3,0.4-0.5c0.1-0.2,0.1-0.4,0-0.7
	c-0.2-0.9-0.5-1.8-0.9-2.6c-0.4-0.8-1.1-1.4-2-1.8c-0.4-0.1-0.8-0.2-1.2-0.3l-3.8-0.6c-0.1,0-0.2,0-0.4,0c-0.4,0.2,1.6,1.7,1.9,1.9
	L13.4,21.5z"/>
<path class="st23" d="M17.9,24.9c-0.1,0-0.2,0-0.3,0c-2.7,0.5-5.4-0.9-8.1-0.6c-0.4,0-0.7,0.2-1,0.4C8.2,25,8.1,25.5,8.1,26
	c0.1-0.5,0.5-1.4,1.1-1.5c0.5-0.1,1.1,0,1.6,0.1l4.4,0.8c0.8,0,1.6,0.1,2.3,0.2c0.2,0.1,0.2,0.4,0.5,0C18.2,25.4,18.2,25,17.9,24.9z
	"/>
<path class="st23" d="M8.1,26c0,0-0.1,0-0.1,0c-0.3-0.1-0.6-0.3-0.8-0.6c0-0.2-0.1-0.4-0.1-0.5c-0.1,0.3-0.1,0.6,0.1,0.9
	c0.1,0.1,0.3,0.2,0.4,0.3C7.8,26.2,8,26.1,8.1,26z"/>
<path class="st24" d="M18.5,23.1c0,0.2,0.1,0.3,0.1,0.5c0.4,0.5,2,0,2.5-0.1c0.9-0.2,1.9-0.3,2.9-0.3c1.6,0.2,3.2,0.7,4.6,1.6
	c0.3,0.2,0.6,0.3,0.9,0.3c-0.3-0.4-0.6-0.6-1-0.8c-0.5-0.1-0.9-0.3-1.3-0.6c-0.2-0.1-0.3-0.3-0.5-0.5c-0.5-0.3-1-0.4-1.6-0.4
	c-0.6-0.1-1.2-0.2-1.9-0.3c-1.2-0.2-2.5-0.5-3.6-0.8c-0.4-0.1-2.2-3-2.3-2.2c0,0.2,0.1,0.4,0.2,0.6c0.6,0.9,0.9,1.9,1,3
	C18.5,23,18.5,23.1,18.5,23.1z"/>
<path class="st25" d="M10.2,16.9c0.3,0,0.7,0.1,1,0.2c1,0.3,2,0.6,3,0.8c0.1,0,0.2,0,0.2,0s-0.1-0.2-0.2-0.3
	c-0.8-0.2-1.5-0.4-2.2-0.6c-0.2-0.1-0.5-0.2-0.7-0.3c-0.4-0.1-0.8-0.1-1.1-0.1l-1.1,0c-0.2,0-0.8-0.1-0.7,0.2
	C8.5,17.3,9.9,16.9,10.2,16.9z"/>
<path class="st22" d="M18.3,24.4c1.6,0.4,3.2,0.5,4.9,0.4c1-0.2,2-0.3,3-0.3c0.2,0.4,0.3,0.8,0.4,1.2c-2.2-0.2-4.5,0.6-6.7,0.3
	c-0.5,0-1-0.2-1.5-0.4C18.2,25.2,18.2,24.7,18.3,24.4z"/>
<path class="st26" d="M23,24.1c0.8-0.2,1.5-0.3,2.3-0.3c2,0,3.7,1.4,5,2.8c0.4,0.4,0.8,0.9,1.2,1.3c0.3,0.4,0.7,0.7,1.1,1
	c0.5,0.3,1,0.4,1.5,0.5c1.8,0.3,3.7,0,5.4,0.4c1.5,1.3,3.2,2.2,5,2.9c-0.7,0.2-1.4,0.1-2-0.2c-0.6-0.4-1.1-0.8-1.5-1.2
	c-0.4-0.4-0.9-0.7-1.4-0.9c-2.2-1-5,0.3-7.1-0.9c-1.4-0.8-2.1-2.4-3.3-3.4c-1-0.8-2.2-1.3-3.5-1.6c-0.2-0.1-0.4-0.1-0.5-0.1
	c-0.3,0-0.6,0-0.9,0.1c-1.5,0.3-3,0.3-4.5,0c-0.4,0-0.7-0.1-1.1-0.2c-0.2,0-0.9-0.1-0.5-0.4c0.2-0.1,0.8,0.1,1,0.1
	c0.4,0,0.8,0.1,1.1,0.1C21.3,24.3,22.1,24.2,23,24.1z"/>
<path class="st27" d="M32,29.5c-0.4,0.2-0.6,0.6-0.6,1.1c-1.3-0.5-1.7-2.1-2.7-3.1c-0.2-0.1-0.3-0.3-0.4-0.4
	c-0.1-0.1-0.2-0.3-0.2-0.5l-0.6-1.7c0.5-0.2,1.1,0,1.4,0.5c0.2,0.5,0.6,0.9,0.9,1.3c0.3,0.2,0.6,0.3,0.9,0.6c0.4,0.4,0.8,0.9,1,1.4
	c0.2,0.4,0.8,0.8,1.2,0.7C32.6,29.2,32.3,29.3,32,29.5z"/>
<path class="st28" d="M29,24.8c0.6,0.8,1.2,1.7,1.9,2.6c0.6,0.9,1.5,1.5,2.5,1.8c0.3,0.1,0.6,0.1,0.9,0.1c0.3-0.1,0.6-0.2,0.7-0.5
	c0.1-0.5,0-1-0.4-1.4c-0.4-0.3-0.7-0.7-1-1.1c-0.3-0.6-0.3-1.4-0.8-1.7c-0.4-0.2-0.9-0.2-1.4-0.1c-0.7,0.1-1.3,0.1-2,0.1
	c-1.1-0.1-2.1-0.6-3-1.3l1.8,1c0.5,0.2,0.9,0.5,1.1,1"/>
</svg>
