<?xml version="1.0" encoding="utf-8"?>
<!-- Generator: Adobe Illustrator 22.1.0, SVG Export Plug-In . SVG Version: 6.00 Build 0)  -->
<svg version="1.1" id="Layer_1" xmlns="http://www.w3.org/2000/svg" xmlns:xlink="http://www.w3.org/1999/xlink" x="0px" y="0px"
	 viewBox="0 0 50 50" style="enable-background:new 0 0 50 50;" xml:space="preserve">
<style type="text/css">
	.st0{fill:#005EA1;}
</style>
<title>jeep</title>
<g>
	<path class="st0" d="M13.1,25.4c0,4.4-2,6.1-6,6.1s-5.9-2.2-5.9-5.7v-2.2h4.4v1.8c0,1.2,0,2.3,1.3,2.3s1.2-1.6,1.2-2.2V15.2h5V25.4
		L13.1,25.4z"/>
	<path class="st0" d="M17.6,24c0-1.1,0.9-1.9,1.9-1.9l0,0l0,0c1,0,1.8,0.9,1.8,1.9l0,0H17.6z M25.2,26.4c0-4.5-1.8-7-6-7
		c-3.3,0-5.5,2.7-5.5,6.1c-0.2,3.1,2.1,5.8,5.2,6l0,0h0.7c2.4,0.2,4.6-1.3,5.4-3.6h-3.7c-0.4,0.5-1,0.8-1.7,0.8
		c-1.2,0-2-0.9-2.1-2.2L25.2,26.4z"/>
	<path class="st0" d="M29.4,24c0-1.1,0.9-1.9,2-1.9l0,0c1,0,1.8,0.9,1.8,1.9l0,0H29.4z M37,26.4c0-4.5-1.8-7-6-7
		c-3.3,0-5.5,2.7-5.5,6.1c-0.2,3.1,2.1,5.8,5.2,6l0,0h0.6c2.4,0.1,4.6-1.3,5.4-3.6H33c-0.4,0.5-1,0.8-1.7,0.8c-1.2,0-2-0.9-2.1-2.2
		L37,26.4z"/>
	<path class="st0" d="M41.3,25.3c0-1.4,0.3-2.8,1.7-2.8s1.8,1.4,1.8,2.8s-0.3,2.8-1.8,2.8S41.3,26.6,41.3,25.3z M37.5,34.8h4v-5l0,0
		c0.6,1,1.7,1.6,2.8,1.6c3.5,0,4.4-3.3,4.4-6s-1.3-6.1-4.3-6.1c-1.2-0.1-2.5,0.5-3.1,1.6l0,0v-1.2h-3.8
		C37.5,19.7,37.5,34.8,37.5,34.8z"/>
	<path class="st0" d="M47,32.7c0-0.4,0.3-0.8,0.8-0.9l0,0l0,0c0.4,0,0.8,0.3,0.8,0.8l0,0v0.1c0,0.4-0.3,0.8-0.8,0.8l0,0
		C47.4,33.5,47,33.2,47,32.7L47,32.7z M46.8,32.7c0,0.6,0.5,1,1,1s1-0.5,1-1s-0.4-1-0.9-1l0,0l0,0C47.3,31.7,46.8,32.1,46.8,32.7
		L46.8,32.7L46.8,32.7z M47.4,33.3h0.2v-0.5h0.2l0.3,0.5h0.2L48,32.8c0.2,0,0.3-0.1,0.3-0.4c0-0.2-0.1-0.3-0.4-0.3h-0.4L47.4,33.3
		L47.4,33.3z M47.6,32.3h0.3c0.1,0,0.2,0,0.2,0.2s-0.2,0.2-0.3,0.2h-0.2V32.3z"/>
</g>
</svg>
