<?xml version="1.0" encoding="utf-8"?>
<!-- Generator: Adobe Illustrator 22.1.0, SVG Export Plug-In . SVG Version: 6.00 Build 0)  -->
<svg version="1.1" id="Layer_1" xmlns="http://www.w3.org/2000/svg" xmlns:xlink="http://www.w3.org/1999/xlink" x="0px" y="0px"
	 viewBox="0 0 50 50" style="enable-background:new 0 0 50 50;" xml:space="preserve">
<style type="text/css">
	.st0{fill:url(#SVGID_1_);}
	.st1{clip-path:url(#SVGID_3_);}
	.st2{fill:url(#SVGID_4_);}
	.st3{fill:url(#SVGID_5_);}
	.st4{fill:#DFDFDF;}
</style>
<title>land_rover</title>
<linearGradient id="SVGID_1_" gradientUnits="userSpaceOnUse" x1="-91.04" y1="35.35" x2="-91.04" y2="10.65" gradientTransform="matrix(-1 0 0 -1 -66.04 48)">
	<stop  offset="0" style="stop-color:#006A48"/>
	<stop  offset="1" style="stop-color:#012A00"/>
</linearGradient>
<ellipse class="st0" cx="25" cy="25" rx="23.4" ry="12.3"/>
<g>
	<defs>
		<path id="SVGID_2_" d="M9.6,27l-0.5,1.4h3.6l0.5-1.3h-2.5l2.8-1l0.2-0.5L9.6,27z M16.5,26.2h0.9c0.3,0,0.4,0.1,0.4,0.3
			c0,0.2,0,0.3-0.1,0.4c-0.1,0.2-0.2,0.3-0.3,0.4c-0.2,0-0.3,0-0.5,0h-0.7L16.5,26.2z M15.2,25v0.1l0.1,0.1c0.1,0.1,0.1,0.2,0,0.5
			l-1.7,4.7h1.5l0.6-1.9h0.5l0.6,1.9h1.5l-0.7-1.9c0.3,0,0.6-0.2,0.8-0.4c0.3-0.3,0.5-0.7,0.6-1.1c0.2-0.5,0.1-1-0.1-1.4
			c-0.2-0.3-0.6-0.5-1.5-0.5L15.2,25z M28.7,25l-2,3.9l0,0L26.6,25h-1.7l-0.1,0.1l0.1,0.1c0.1,0.1,0.2,0.2,0.2,0.5l0.2,4.7h1.9
			l3-5.4L28.7,25z M36.6,26.2h0.9c0.3,0,0.3,0.1,0.4,0.3c0,0.2-0.1,0.3-0.1,0.4c-0.1,0.2-0.2,0.3-0.3,0.4c-0.2,0-0.3,0-0.5,0h-0.7
			L36.6,26.2z M35.2,25v0.1l0.1,0.1c0.1,0.1,0.1,0.2,0,0.5l-1.6,4.7h1.5l0.6-1.9h0.5l0.6,1.9h1.5l-0.7-1.9c0.3,0,0.6-0.2,0.8-0.4
			c0.3-0.3,0.5-0.7,0.6-1.1c0.2-0.5,0.2-1-0.1-1.4c-0.2-0.3-0.7-0.5-1.5-0.5L35.2,25z M30.7,25l-0.1,0.2l0.1,0.1
			c0.1,0.1,0.1,0.2,0,0.5l-1.6,4.7h3.7l0.4-1.2h-2.1l0.3-0.9h1.9l0.4-1.1h-1.9l0.3-0.9h2.1l0.5-1.2L30.7,25z M20.7,28.7
			c0-0.4,0.1-0.8,0.3-1.1c0.1-0.4,0.3-0.8,0.6-1.1c0.2-0.2,0.6-0.3,0.9-0.3c0.4,0,0.6,0.2,0.6,0.5c0,0.4-0.1,0.8-0.3,1.1
			c-0.1,0.4-0.3,0.8-0.5,1.1c-0.2,0.2-0.6,0.4-0.9,0.3C20.9,29.2,20.7,29,20.7,28.7 M22.5,24.9c-0.8-0.1-1.5,0.2-2.1,0.8
			c-0.7,0.9-1.1,2.1-1.2,3.2c0,0.9,0.6,1.6,1.9,1.6h0.1c0.8,0.1,1.5-0.2,2.1-0.8c0.7-0.9,1.1-2.1,1.1-3.2c0-0.9-0.6-1.6-1.9-1.6
			H22.5z M34.3,20.3l-0.5,1.3h2.5l-2.8,1L33.3,23l4.1-1.4l0.5-1.4L34.3,20.3z M13.4,18.3v0.1l0.1,0.1c0.1,0.1,0.1,0.2,0,0.5
			l-1.6,4.7h3.7l0.4-1.2h-2.1l1.4-4.1L13.4,18.3z M19.8,19.8L19.8,19.8v1.6h-0.9L19.8,19.8z M18.9,18.3v0.1l0.1,0.1
			c0.1,0.1,0.1,0.3-0.4,0.9L16,23.8h1.6l0.7-1.2h1.6v1.2h1.4L21,18.3H18.9z M30.1,19.6h0.6c0.4,0,0.6,0.1,0.6,0.5
			c0,0.4-0.1,0.7-0.3,1.1c-0.1,0.4-0.3,0.7-0.5,1.1c-0.2,0.2-0.4,0.3-0.9,0.3h-0.5L30.1,19.6z M28.8,18.3v0.1l0.1,0.1
			c0.1,0.1,0.1,0.2,0,0.5l-1.6,4.7h2.4c0.8,0.1,1.5-0.2,2.1-0.8c0.7-0.9,1.1-2,1.1-3.2c0-0.9-0.6-1.5-1.9-1.5L28.8,18.3z M26.8,18.3
			l-1,3l-0.6-3h-2v0.1l0.1,0.1c0.1,0.1,0.1,0.2,0,0.5l-1.6,4.7h1.4l1.2-3.5l0.7,3.5h1.4l1.9-5.4L26.8,18.3z"/>
	</defs>
	<clipPath id="SVGID_3_">
		<use xlink:href="#SVGID_2_"  style="overflow:visible;"/>
	</clipPath>
	<g class="st1">
		
			<radialGradient id="SVGID_4_" cx="-822.9977" cy="359.6974" r="0.27" gradientTransform="matrix(210.24 0 0 -121.15 173029.5469 43594.25)" gradientUnits="userSpaceOnUse">
			<stop  offset="0" style="stop-color:#F1F1F2"/>
			<stop  offset="0.25" style="stop-color:#F1F1F2"/>
			<stop  offset="0.42" style="stop-color:#F1F1F2"/>
			<stop  offset="0.62" style="stop-color:#C5C7C9"/>
			<stop  offset="0.74" style="stop-color:#E2E3E4"/>
			<stop  offset="1" style="stop-color:#E2E3E4"/>
		</radialGradient>
		<rect x="9.1" y="18.3" class="st2" width="30.3" height="12.1"/>
	</g>
</g>
<linearGradient id="SVGID_5_" gradientUnits="userSpaceOnUse" x1="3.51" y1="43.9999" x2="46.48" y2="43.9999" gradientTransform="matrix(1 0 0 1 0 -19)">
	<stop  offset="0" style="stop-color:#DFDFDF"/>
	<stop  offset="1" style="stop-color:#A2A2A2"/>
</linearGradient>
<path class="st3" d="M3.8,25h0.3c0-1.4,0.6-2.8,1.6-3.8c3.1-3.6,10.6-6.1,19.3-6.1c5.1-0.1,10.2,0.9,14.8,3c1.7,0.8,3.2,1.8,4.4,3.2
	c1,1,1.6,2.3,1.6,3.7c0,1.4-0.6,2.8-1.6,3.8c-3.1,3.6-10.6,6.1-19.3,6.1C19.9,35,14.8,34,10.2,32c-1.7-0.8-3.2-1.8-4.4-3.2
	c-1-1-1.6-2.4-1.6-3.8H3.5c0,1.6,0.7,3.1,1.8,4.2C8.6,33,16.2,35.6,25,35.6c5.2,0.1,10.3-0.9,15.1-3c1.7-0.8,3.3-1.9,4.6-3.3
	c1.1-1.1,1.7-2.7,1.8-4.2c0-1.6-0.7-3.1-1.8-4.2C41.4,17,33.8,14.4,25,14.4c-5.2-0.1-10.3,0.9-15.1,3c-1.8,0.8-3.3,2-4.6,3.4
	c-1.1,1.1-1.7,2.6-1.8,4.2H3.8z"/>
<path class="st4" d="M47.1,19.7c-2.4-2.7-5.4-4.6-8.8-5.7c-4.3-1.5-8.8-2.2-13.3-2.1c-5.8-0.1-11.6,1.1-16.9,3.7
	c-2,1-3.8,2.4-5.2,4.1c-1.3,1.5-2,3.3-2,5.3c0,1.9,0.7,3.8,2,5.3c2.4,2.7,5.4,4.6,8.8,5.7c4.3,1.5,8.8,2.2,13.3,2.1
	c5.8,0.1,11.6-1.1,16.9-3.7c2-1,3.8-2.4,5.2-4.1c1.3-1.5,2-3.3,2-5.3C49.1,23.1,48.4,21.2,47.1,19.7z M46,29.4
	c-2.2,2.4-5,4.2-8.2,5.2c-4.1,1.4-8.5,2.1-12.8,2.1c-5.6,0.1-11.2-1.1-16.2-3.5C7,32.2,5.3,30.9,4,29.4c-1-1.2-1.6-2.8-1.7-4.4
	c0-1.6,0.6-3.1,1.7-4.4c2.2-2.4,5-4.2,8.2-5.2c4.1-1.4,8.5-2.1,12.8-2.1c5.6-0.1,11.2,1.1,16.2,3.5c1.8,0.9,3.5,2.2,4.8,3.7
	c1,1.2,1.6,2.8,1.7,4.4C47.6,26.6,47,28.1,46,29.4z"/>
</svg>
