<?xml version="1.0" encoding="utf-8"?>
<!-- Generator: Adobe Illustrator 24.0.1, SVG Export Plug-In . SVG Version: 6.00 Build 0)  -->
<svg version="1.1" id="Layer_1" xmlns="http://www.w3.org/2000/svg" xmlns:xlink="http://www.w3.org/1999/xlink" x="0px" y="0px"
	 viewBox="0 0 32 32" style="enable-background:new 0 0 32 32;" xml:space="preserve">
<style type="text/css">
	.st0{fill:#FFFFFF;}
	.st1{fill-rule:evenodd;clip-rule:evenodd;fill:#494949;}
	.st2{opacity:0.53;fill:#FF00FF;}
	.st3{fill:#FF00FF;}
	.st4{fill:url(#SVGID_1_);}
	.st5{fill:url(#SVGID_2_);}
	.st6{fill:url(#SVGID_3_);}
	.st7{fill:url(#SVGID_4_);}
	.st8{fill:url(#SVGID_5_);}
	.st9{fill:url(#SVGID_6_);}
	.st10{fill:url(#SVGID_7_);}
	.st11{fill:url(#SVGID_8_);}
	.st12{opacity:0.5;fill:#FFFFFF;}
	.st13{opacity:0.53;fill:url(#SVGID_9_);}
	.st14{fill:url(#SVGID_10_);}
	.st15{fill:url(#SVGID_11_);}
	.st16{fill:url(#SVGID_12_);}
	.st17{fill:url(#SVGID_13_);}
	.st18{fill:url(#SVGID_14_);}
</style>
<rect x="422.9" y="-77.8" class="st0" width="221" height="155.5"/>
<title>1-16</title>
<g>
	<path class="st1" d="M0.4,23.2v5.9h8.3v-1.5H3.9v-4.4H0.4z M15.5,27.5h-2.5v-4.3H9.5v5.9h6c3.4,0,5.3-1.1,5.3-3s-2.1-2.9-4.3-2.9
		h-3.2v1.6h2.2c1.2,0,1.6,0.7,1.6,1.2C17.1,26.6,16.8,27.4,15.5,27.5L15.5,27.5z M20,23.2l3.9,5.9h3.7l3.9-5.9h-3.3l-2.5,3.7
		l-2.4-3.7L20,23.2z"/>
</g>
<polygon class="st2" points="16.2,8.6 17.9,10.3 16.2,8.6 "/>
<polygon class="st3" points="15.8,8.6 15.8,8.6 14.1,10.3 "/>
<linearGradient id="SVGID_1_" gradientUnits="userSpaceOnUse" x1="11.0607" y1="13.8587" x2="15.9014" y2="13.8587">
	<stop  offset="0" style="stop-color:#E2E2E2"/>
	<stop  offset="1" style="stop-color:#636162"/>
</linearGradient>
<polygon class="st4" points="11.1,13.8 15.9,17.4 15.9,14.7 11.5,10.3 11.1,10.3 "/>
<linearGradient id="SVGID_2_" gradientUnits="userSpaceOnUse" x1="10.7591" y1="11.9198" x2="5.4819" y2="16.1965">
	<stop  offset="0" style="stop-color:#F5F5F5"/>
	<stop  offset="0.7001" style="stop-color:#7F7D7E"/>
	<stop  offset="1" style="stop-color:#4D4A4B"/>
</linearGradient>
<path class="st5" d="M10.7,13.9v-3.5h-0.4l-4,5.3c0.3,0.2,0.5,0.4,0.8,0.6L10.7,13.9z"/>
<linearGradient id="SVGID_3_" gradientUnits="userSpaceOnUse" x1="21.4014" y1="13.2998" x2="25.7566" y2="13.2998">
	<stop  offset="0" style="stop-color:#DEDEDE"/>
	<stop  offset="1" style="stop-color:#514F50"/>
</linearGradient>
<path class="st6" d="M21.4,10.3v3.5l3.5,2.4c0.1-0.1,0.3-0.2,0.4-0.3c0.1-0.1,0.3-0.2,0.4-0.3l-4-5.3H21.4z"/>
<linearGradient id="SVGID_4_" gradientUnits="userSpaceOnUse" x1="20.1209" y1="12.6221" x2="16.314" y2="15.5912">
	<stop  offset="0" style="stop-color:#E0E0E0"/>
	<stop  offset="0.913" style="stop-color:#6E6C6D"/>
	<stop  offset="1" style="stop-color:#636162"/>
</linearGradient>
<polygon class="st7" points="16.2,14.7 16.2,17.4 21.1,13.8 21.1,10.3 20.6,10.3 "/>
<polygon class="st3" points="10.7,15 10.7,15 10.7,15 "/>
<linearGradient id="SVGID_5_" gradientUnits="userSpaceOnUse" x1="11.0607" y1="15.696" x2="15.9014" y2="15.696">
	<stop  offset="0" style="stop-color:#504D4E"/>
	<stop  offset="0.184" style="stop-color:#595657"/>
	<stop  offset="1" style="stop-color:#9D9B9C"/>
</linearGradient>
<polygon class="st8" points="11.1,15.1 15.9,17.6 15.9,17.4 11.1,13.8 "/>
<linearGradient id="SVGID_6_" gradientUnits="userSpaceOnUse" x1="7.1394" y1="15.4348" x2="10.7376" y2="15.4348">
	<stop  offset="0" style="stop-color:#9D9B9C"/>
	<stop  offset="0.3502" style="stop-color:#858384"/>
	<stop  offset="0.8855" style="stop-color:#595657"/>
	<stop  offset="1" style="stop-color:#504D4E"/>
</linearGradient>
<path class="st9" d="M8.3,17l2.4-2l0,0l0,0v-1.2l-3.6,2.5C7.5,16.6,7.9,16.8,8.3,17z"/>
<polygon class="st2" points="21.4,15 21.4,15 23.8,17 23.8,17 "/>
<polygon class="st3" points="21.4,15 21.4,15 21.4,15 "/>
<linearGradient id="SVGID_7_" gradientUnits="userSpaceOnUse" x1="21.4014" y1="15.4213" x2="24.9302" y2="15.4213">
	<stop  offset="0" style="stop-color:#9D9B9C"/>
	<stop  offset="0.3502" style="stop-color:#858384"/>
	<stop  offset="0.8855" style="stop-color:#595657"/>
	<stop  offset="1" style="stop-color:#504D4E"/>
</linearGradient>
<path class="st10" d="M21.4,15L21.4,15l2.4,1.9c0.4-0.2,0.8-0.5,1.1-0.7l-3.5-2.4L21.4,15L21.4,15z"/>
<linearGradient id="SVGID_8_" gradientUnits="userSpaceOnUse" x1="16.2246" y1="15.7008" x2="21.0524" y2="15.7008">
	<stop  offset="0" style="stop-color:#9D9B9C"/>
	<stop  offset="0.3502" style="stop-color:#858384"/>
	<stop  offset="0.8855" style="stop-color:#595657"/>
	<stop  offset="1" style="stop-color:#504D4E"/>
</linearGradient>
<polygon class="st11" points="16.2,17.6 21.1,15.1 21.1,13.8 16.2,17.4 "/>
<polygon class="st12" points="8.3,17.4 8.3,17.4 8.3,17.4 "/>
<linearGradient id="SVGID_9_" gradientUnits="userSpaceOnUse" x1="16.1699" y1="7.0512" x2="21.7665" y2="7.0512">
	<stop  offset="0" style="stop-color:#DCDCDC"/>
	<stop  offset="5.531085e-02" style="stop-color:#B7B7B7"/>
	<stop  offset="0.1285" style="stop-color:#8D8D8D"/>
	<stop  offset="0.208" style="stop-color:#676767"/>
	<stop  offset="0.2928" style="stop-color:#484848"/>
	<stop  offset="0.3844" style="stop-color:#2E2E2E"/>
	<stop  offset="0.4857" style="stop-color:#1A1A1A"/>
	<stop  offset="0.6017" style="stop-color:#0D0D0D"/>
	<stop  offset="0.7453" style="stop-color:#040404"/>
	<stop  offset="1" style="stop-color:#020202"/>
</linearGradient>
<path class="st13" d="M20.4,10.3h0.1h0.5h0.3h0.4l-5.4-6.6c-0.1,0-0.1,0-0.2,0v3.2L20.4,10.3z"/>
<linearGradient id="SVGID_10_" gradientUnits="userSpaceOnUse" x1="14.8547" y1="6.9241" x2="10.6076" y2="10.3987">
	<stop  offset="0" style="stop-color:#EFEFEF"/>
	<stop  offset="0.1317" style="stop-color:#E3E3E3"/>
	<stop  offset="0.3687" style="stop-color:#C4C4C5"/>
	<stop  offset="0.6838" style="stop-color:#919193"/>
	<stop  offset="1" style="stop-color:#57585A"/>
</linearGradient>
<path class="st14" d="M10.7,10.3h0.3h0.5h0l4.3-3.4v1.6l0,0V3.8c0,0-0.1,0-0.1,0l-5.3,6.6H10.7z"/>
<linearGradient id="SVGID_11_" gradientUnits="userSpaceOnUse" x1="11.5837" y1="8.6343" x2="15.8468" y2="8.6343">
	<stop  offset="0" style="stop-color:#9D9B9C"/>
	<stop  offset="0.4012" style="stop-color:#9B999A"/>
	<stop  offset="0.6205" style="stop-color:#7F7D7E"/>
	<stop  offset="0.8855" style="stop-color:#595657"/>
	<stop  offset="1" style="stop-color:#504D4E"/>
</linearGradient>
<polygon class="st15" points="11.6,10.3 14.1,10.3 15.8,8.6 15.8,6.9 "/>
<linearGradient id="SVGID_12_" gradientUnits="userSpaceOnUse" x1="19.1091" y1="10.4794" x2="16.4741" y2="7.1281">
	<stop  offset="0" style="stop-color:#9D9B9C"/>
	<stop  offset="0.3502" style="stop-color:#858384"/>
	<stop  offset="0.8855" style="stop-color:#595657"/>
	<stop  offset="1" style="stop-color:#504D4E"/>
</linearGradient>
<polygon class="st16" points="16.2,8.6 17.9,10.3 20.4,10.3 16.2,6.9 "/>
<linearGradient id="SVGID_13_" gradientUnits="userSpaceOnUse" x1="4.9631" y1="15.3175" x2="27.4354" y2="7.586">
	<stop  offset="0" style="stop-color:#565354"/>
	<stop  offset="0.1252" style="stop-color:#D3D3D3"/>
	<stop  offset="0.5434" style="stop-color:#BEBEBE"/>
	<stop  offset="1" style="stop-color:#7F7F7F"/>
</linearGradient>
<path class="st17" d="M16.1,2.8c-7.9,0-14.2,3.9-14.2,8.7s6.4,8.7,14.2,8.7c7.9,0,14.2-3.9,14.2-8.7S24,2.8,16.1,2.8z M16.1,19.5
	c-7.2,0-13.1-3.6-13.1-8c0-4.4,5.8-8,13.1-8c7.2,0,13.1,3.6,13.1,8C29.2,15.9,23.3,19.5,16.1,19.5z"/>
<linearGradient id="SVGID_14_" gradientUnits="userSpaceOnUse" x1="15.4371" y1="18.5527" x2="17.8876" y2="-7.4444">
	<stop  offset="0.1647" style="stop-color:#E3E3E3"/>
	<stop  offset="0.4121" style="stop-color:#4D4A4B"/>
</linearGradient>
<path class="st18" d="M16.1,3.5C8.9,3.5,3,7.1,3,11.5c0,4.4,5.8,8,13.1,8c7.2,0,13.1-3.6,13.1-8C29.2,7.1,23.3,3.5,16.1,3.5z M16,19
	c-6.6,0-11.9-3.4-11.9-7.5c0-0.3,0-0.5,0.1-0.7c0.5-3.9,5.6-6.9,11.7-6.9c2.9,0,5.6,0.7,7.7,1.8C26.3,7,28,9.1,28,11.5
	C28,15.6,22.6,19,16,19z"/>
</svg>
