<svg xmlns="http://www.w3.org/2000/svg" xmlns:xlink="http://www.w3.org/1999/xlink" viewBox="0 0 50 50"><defs><style>.a{mask:url(#a);filter:url(#ay);}.aa,.ac,.ae,.b,.d,.f,.h,.j,.l,.n,.p,.s,.u,.w,.y{mix-blend-mode:multiply;}.b{fill:url(#c);}.c{mask:url(#d);filter:url(#bp);}.d{fill:url(#f);}.e{mask:url(#g);filter:url(#bs);}.f{fill:url(#i);}.g{mask:url(#j);filter:url(#bx);}.h{fill:url(#l);}.i{mask:url(#m);filter:url(#ca);}.j{fill:url(#o);}.k,.q{mask:url(#p);}.k{filter:url(#cd);}.l{fill:url(#r);}.ab,.m{mask:url(#s);}.m{filter:url(#bb);}.n{fill:url(#u);}.o{mask:url(#v);filter:url(#ch);}.p{fill:url(#x);}.r{mask:url(#ab);filter:url(#cn);}.s{fill:url(#ad);}.t{mask:url(#ae);filter:url(#cr);}.u{fill:url(#ag);}.v{mask:url(#ah);filter:url(#cu);}.w{fill:url(#aj);}.x{mask:url(#ak);filter:url(#cx);}.y{fill:url(#am);}.z{mask:url(#an);filter:url(#bg);}.aa{fill:url(#ap);}.ab{filter:url(#bj);}.ac{fill:url(#as);}.ad{mask:url(#at);filter:url(#bm);}.ae{fill:url(#av);}.af{fill:url(#aw);}.ag{mask:url(#ax);}.ah{fill:url(#az);}.ai{mask:url(#ba);}.aj{fill:url(#bc);}.ak{fill:url(#bd);}.al{mask:url(#bf);}.am{fill:url(#bh);}.an{mask:url(#bi);}.ao{fill:url(#bk);}.ap{mask:url(#bl);}.aq{fill:url(#bn);}.ar{opacity:0.8;}.as{mask:url(#bo);}.at{fill:url(#bq);}.au{mask:url(#br);}.av{fill:url(#bt);}.aw{fill:#505050;}.ax{fill:url(#bu);}.ay{fill:url(#bv);}.az{mask:url(#bw);}.ba,.bh,.bm{opacity:0.5;}.ba,.be,.bh,.bj,.bm,.bo,.bq{isolation:isolate;}.ba{fill:url(#by);}.bb{mask:url(#bz);}.bc{fill:url(#cb);}.bd{mask:url(#cc);}.be,.bj,.bo{opacity:0.3;}.be{fill:url(#ce);}.bf{fill:url(#cf);}.bg{mask:url(#cg);}.bh{fill:url(#ci);}.bi{mask:url(#cm);}.bj{fill:url(#co);}.bk{fill:url(#cp);}.bl{mask:url(#cq);}.bm{fill:url(#cs);}.bn{mask:url(#ct);}.bo{fill:url(#cv);}.bp{mask:url(#cw);}.bq{opacity:0.6;fill:url(#cy);}.br{filter:url(#au);}.bs{filter:url(#ao);}.bt{filter:url(#al);}.bu{filter:url(#ai);}.bv{filter:url(#af);}.bw{filter:url(#ac);}.bx{filter:url(#w);}.by{filter:url(#t);}.bz{filter:url(#q);}.ca{filter:url(#n);}.cb{filter:url(#k);}.cc{filter:url(#h);}.cd{filter:url(#e);}.ce{filter:url(#b);}</style><filter id="b" x="5.5" y="-8217" width="35.02" height="32766" filterUnits="userSpaceOnUse" color-interpolation-filters="sRGB"><feFlood flood-color="#fff" result="bg"/><feBlend in="SourceGraphic" in2="bg"/></filter><mask id="a" x="5.5" y="-8217" width="35.02" height="32766" maskUnits="userSpaceOnUse"><g class="ce"/></mask><linearGradient id="c" x1="-8.81" y1="-412.86" x2="55.73" y2="-412.38" gradientTransform="matrix(0.65, 0, 0, -0.65, 9.51, -233.29)" gradientUnits="userSpaceOnUse"><stop offset="0" stop-color="#fff"/><stop offset="0.22" stop-color="#dfdfdf"/><stop offset="0.52" stop-color="#fff"/><stop offset="0.75" stop-color="#fff"/><stop offset="1" stop-color="#fff"/></linearGradient><filter id="e" x="21.65" y="-8217" width="5.86" height="32766" filterUnits="userSpaceOnUse" color-interpolation-filters="sRGB"><feFlood flood-color="#fff" result="bg"/><feBlend in="SourceGraphic" in2="bg"/></filter><mask id="d" x="21.65" y="-8217" width="5.86" height="32766" maskUnits="userSpaceOnUse"><g class="cd"/></mask><linearGradient id="f" x1="-605.83" y1="-435.28" x2="-608.31" y2="-429.54" gradientTransform="matrix(0.61, 0, 0, -0.62, 395.72, -258.56)" gradientUnits="userSpaceOnUse"><stop offset="0"/><stop offset="0.16" stop-color="#4d4d4d"/><stop offset="0.34" stop-color="#dfdfdf"/><stop offset="0.41" stop-color="#bfbfbf"/><stop offset="0.66"/><stop offset="1"/></linearGradient><filter id="h" x="12.74" y="-8217" width="23.74" height="32766" filterUnits="userSpaceOnUse" color-interpolation-filters="sRGB"><feFlood flood-color="#fff" result="bg"/><feBlend in="SourceGraphic" in2="bg"/></filter><mask id="g" x="12.74" y="-8217" width="23.74" height="32766" maskUnits="userSpaceOnUse"><g class="cc"/></mask><linearGradient id="i" x1="-601.91" y1="-454.57" x2="-605.1" y2="-444.63" gradientTransform="matrix(0.61, 0, 0, -0.62, 391.42, -253.49)" gradientUnits="userSpaceOnUse"><stop offset="0"/><stop offset="0.12" stop-color="#5e5e5e"/><stop offset="0.29" stop-color="#dfdfdf"/><stop offset="0.38" stop-color="#bfbfbf"/><stop offset="0.52" stop-color="#7f7f7f"/><stop offset="1"/></linearGradient><filter id="k" x="21.09" y="-8217" width="22.31" height="32766" filterUnits="userSpaceOnUse" color-interpolation-filters="sRGB"><feFlood flood-color="#fff" result="bg"/><feBlend in="SourceGraphic" in2="bg"/></filter><mask id="j" x="21.09" y="-8217" width="22.31" height="32766" maskUnits="userSpaceOnUse"><g class="cb"/></mask><linearGradient id="l" x1="385.37" y1="-412.61" x2="385.37" y2="-417.82" gradientTransform="matrix(0.65, 0, 0, -0.65, -218.4, -239.82)" gradientUnits="userSpaceOnUse"><stop offset="0" stop-color="#fff"/><stop offset="1"/></linearGradient><filter id="n" x="2.74" y="-8217" width="42.07" height="32766" filterUnits="userSpaceOnUse" color-interpolation-filters="sRGB"><feFlood flood-color="#fff" result="bg"/><feBlend in="SourceGraphic" in2="bg"/></filter><mask id="m" x="2.74" y="-8217" width="42.07" height="32766" maskUnits="userSpaceOnUse"><g class="ca"/></mask><linearGradient id="o" x1="350.43" y1="-376.62" x2="364.2" y2="-398.62" gradientTransform="matrix(0.65, 0, 0, -0.65, -218.69, -239.78)" xlink:href="#l"/><filter id="q" x="2.85" y="-8217" width="41.35" height="32766" filterUnits="userSpaceOnUse" color-interpolation-filters="sRGB"><feFlood flood-color="#fff" result="bg"/><feBlend in="SourceGraphic" in2="bg"/></filter><mask id="p" x="2.85" y="-8217" width="41.35" height="32766" maskUnits="userSpaceOnUse"><g class="bz"/></mask><linearGradient id="r" x1="1.82" y1="-568.68" x2="-15.07" y2="-574.48" gradientTransform="matrix(0.65, 0, 0, -0.65, 36.52, -349.87)" gradientUnits="userSpaceOnUse"><stop offset="0" stop-color="#fff"/><stop offset="0.25" stop-color="#e6e6e6"/><stop offset="0.5" stop-color="#7f7f7f"/><stop offset="1"/></linearGradient><filter id="t" x="3.9" y="-8217" width="43.87" height="32766" filterUnits="userSpaceOnUse" color-interpolation-filters="sRGB"><feFlood flood-color="#fff" result="bg"/><feBlend in="SourceGraphic" in2="bg"/></filter><mask id="s" x="3.9" y="-8217" width="43.87" height="32766" maskUnits="userSpaceOnUse"><g class="by"/></mask><linearGradient id="u" x1="-605.01" y1="-465.7" x2="-605.13" y2="-449.87" gradientTransform="matrix(0.65, 0, 0, -0.65, 418.79, -261.45)" xlink:href="#l"/><filter id="w" x="2.74" y="-8217" width="41.35" height="32766" filterUnits="userSpaceOnUse" color-interpolation-filters="sRGB"><feFlood flood-color="#fff" result="bg"/><feBlend in="SourceGraphic" in2="bg"/></filter><mask id="v" x="2.74" y="-8217" width="41.35" height="32766" maskUnits="userSpaceOnUse"><g class="bx"/></mask><linearGradient id="x" x1="347.34" y1="-430.71" x2="361.24" y2="-418.62" xlink:href="#l"/><filter id="ac" x="21.04" y="-8217" width="25.35" height="32766" filterUnits="userSpaceOnUse" color-interpolation-filters="sRGB"><feFlood flood-color="#fff" result="bg"/><feBlend in="SourceGraphic" in2="bg"/></filter><mask id="ab" x="21.04" y="-8217" width="25.35" height="32766" maskUnits="userSpaceOnUse"><g class="bw"/></mask><linearGradient id="ad" x1="377.11" y1="-398.5" x2="380.55" y2="-400.92" gradientTransform="matrix(0.65, 0, 0, -0.65, -218.4, -239.82)" gradientUnits="userSpaceOnUse"><stop offset="0" stop-color="#fff"/><stop offset="0.25" stop-color="#bfbfbf"/><stop offset="0.5" stop-color="#7f7f7f"/><stop offset="1"/></linearGradient><filter id="af" x="34.03" y="-8217" width="10.43" height="32766" filterUnits="userSpaceOnUse" color-interpolation-filters="sRGB"><feFlood flood-color="#fff" result="bg"/><feBlend in="SourceGraphic" in2="bg"/></filter><mask id="ae" x="34.03" y="-8217" width="10.43" height="32766" maskUnits="userSpaceOnUse"><g class="bv"/></mask><linearGradient id="ag" x1="385.96" y1="-389.76" x2="392.85" y2="-391.09" gradientTransform="matrix(0.65, 0, 0, -0.65, -218.4, -239.82)" gradientUnits="userSpaceOnUse"><stop offset="0"/><stop offset="0.11" stop-color="#f2f2f2"/><stop offset="0.22" stop-color="#e6e6e6"/><stop offset="0.51" stop-color="#7f7f7f"/><stop offset="1"/></linearGradient><filter id="ai" x="39.71" y="-8217" width="4.49" height="32766" filterUnits="userSpaceOnUse" color-interpolation-filters="sRGB"><feFlood flood-color="#fff" result="bg"/><feBlend in="SourceGraphic" in2="bg"/></filter><mask id="ah" x="39.71" y="-8217" width="4.49" height="32766" maskUnits="userSpaceOnUse"><g class="bu"/></mask><linearGradient id="aj" x1="8.37" y1="-590.44" x2="8.34" y2="-592.55" gradientTransform="matrix(0.65, 0, 0, -0.65, 36.52, -349.87)" gradientUnits="userSpaceOnUse"><stop offset="0" stop-color="#fff"/><stop offset="0.5" stop-color="#e6e6e6"/><stop offset="0.7" stop-color="#7f7f7f"/><stop offset="1"/></linearGradient><filter id="al" x="3.02" y="-8217" width="41.84" height="32766" filterUnits="userSpaceOnUse" color-interpolation-filters="sRGB"><feFlood flood-color="#fff" result="bg"/><feBlend in="SourceGraphic" in2="bg"/></filter><mask id="ak" x="3.02" y="-8217" width="41.84" height="32766" maskUnits="userSpaceOnUse"><g class="bt"/></mask><radialGradient id="am" cx="3.26" cy="-578.31" r="20.92" gradientTransform="matrix(0.12, 0.5, 0.64, -0.15, 392.79, -70.38)" gradientUnits="userSpaceOnUse"><stop offset="0" stop-color="#e6e6e6"/><stop offset="0.75" stop-color="#737373"/><stop offset="1"/></radialGradient><filter id="ao" x="3.92" y="-8217" width="43.86" height="32766" filterUnits="userSpaceOnUse" color-interpolation-filters="sRGB"><feFlood flood-color="#fff" result="bg"/><feBlend in="SourceGraphic" in2="bg"/></filter><mask id="an" x="3.92" y="-8217" width="43.86" height="32766" maskUnits="userSpaceOnUse"><g class="bs"/></mask><linearGradient id="ap" x1="343.94" y1="-137.4" x2="391.27" y2="-157.81" gradientTransform="matrix(0.65, 0, 0, -0.65, -218.4, -75.68)" gradientUnits="userSpaceOnUse"><stop offset="0"/><stop offset="0.39" stop-color="#f2f2f2"/><stop offset="0.47" stop-color="#e6e6e6"/><stop offset="0.7" stop-color="#7f7f7f"/><stop offset="1"/></linearGradient><linearGradient id="as" x1="-605.7" y1="-457.27" x2="-605.45" y2="-449.53" gradientTransform="matrix(0.65, 0, 0, -0.65, 418.79, -261.45)" xlink:href="#l"/><filter id="au" x="4.02" y="-8217" width="43.87" height="32766" filterUnits="userSpaceOnUse" color-interpolation-filters="sRGB"><feFlood flood-color="#fff" result="bg"/><feBlend in="SourceGraphic" in2="bg"/></filter><mask id="at" x="4.02" y="-8217" width="43.87" height="32766" maskUnits="userSpaceOnUse"><g class="br"/></mask><linearGradient id="av" x1="352.7" y1="-131.3" x2="359.17" y2="-138.13" gradientTransform="matrix(0.65, 0, 0, -0.65, -217.69, -76.39)" xlink:href="#l"/><linearGradient id="aw" x1="-114.84" y1="-574.01" x2="-51.65" y2="-615.05" gradientTransform="matrix(0.65, 0, 0, -0.65, 76.76, -353.81)" gradientUnits="userSpaceOnUse"><stop offset="0" stop-color="#000032"/><stop offset="0.25" stop-color="#646464"/><stop offset="0.42"/><stop offset="1" stop-color="#787878"/></linearGradient><filter id="ay" x="5.5" y="30.47" width="35.02" height="9.36" filterUnits="userSpaceOnUse" color-interpolation-filters="sRGB"><feFlood flood-color="#fff" result="bg"/><feBlend in="SourceGraphic" in2="bg"/></filter><mask id="ax" x="5.5" y="30.47" width="35.02" height="9.36" maskUnits="userSpaceOnUse"><g class="a"><path class="b" d="M21.49,39.8a32.25,32.25,0,0,1-6.18-1.34,37.28,37.28,0,0,1-3.83-1.67,28.29,28.29,0,0,1-3.09-2.3c-1.17-1-3.05-3.37-2.88-3.63a3.52,3.52,0,0,1,1-.39,2.81,2.81,0,0,1,.36.56,14.35,14.35,0,0,0,3.48,4,14,14,0,0,0,5.91,3,30.88,30.88,0,0,0,17.32-.2,13.29,13.29,0,0,0,4.87-2.64,5,5,0,0,1,2-.7c.14.14-.25.64-1.06,1.34a21.74,21.74,0,0,1-7.88,3.39,25.4,25.4,0,0,1-6.64.68c-1.65,0-3.19,0-3.42,0Z"/></g></mask><linearGradient id="az" x1="-8.81" y1="-412.86" x2="55.73" y2="-412.38" gradientTransform="matrix(0.65, 0, 0, -0.65, 9.51, -233.29)" gradientUnits="userSpaceOnUse"><stop offset="0" stop-color="#999"/><stop offset="0.22" stop-color="#3c3c3c"/><stop offset="0.52" stop-color="#969696"/><stop offset="0.75" stop-color="#828282"/><stop offset="1" stop-color="#5a5a5a"/></linearGradient><filter id="bb" x="3.9" y="9.47" width="43.87" height="27" filterUnits="userSpaceOnUse" color-interpolation-filters="sRGB"><feFlood flood-color="#fff" result="bg"/><feBlend in="SourceGraphic" in2="bg"/></filter><mask id="ba" x="3.9" y="9.47" width="43.87" height="27" maskUnits="userSpaceOnUse"><g class="m"><path class="n" d="M11.35,36.27A6.38,6.38,0,0,1,9,34.94a13.3,13.3,0,0,1-4.64-6.3,10.89,10.89,0,0,1-.46-4.23,9.06,9.06,0,0,1,.33-2.71A13.29,13.29,0,0,1,7,16.63c3-3.64,8.71-6.39,14.48-7a24.58,24.58,0,0,1,5,0,2,2,0,0,1,1.13,1.24.89.89,0,0,1-.12.86,5.24,5.24,0,0,1-.53.82L26,13.73c-.36.47-1.19,1.52-1.85,2.33s-1.73,2.23-2.39,3.14c-1.21,1.69-3.86,5.7-4.39,6.64a11.26,11.26,0,0,1-.63,1,9.89,9.89,0,0,0-.72,1.27,2.35,2.35,0,0,0-.33,1.55,2.15,2.15,0,0,0,1.2,2c1.28.83.11.77,13.68.77H42.71l1-1.13a6.77,6.77,0,0,0,1.4-1.91,15.11,15.11,0,0,0,1-3.26A12.88,12.88,0,0,0,46,22.3a15.83,15.83,0,0,0-2-4.6,19,19,0,0,0-7.46-6.49c-.6-.32-2.16-1.07-2.13-1.1A25.17,25.17,0,0,1,38,11.57a18.56,18.56,0,0,1,6.85,5.68,17.12,17.12,0,0,1,2.66,5.51,11.82,11.82,0,0,1,.3,3.17A11.9,11.9,0,0,1,46.14,32c-.8,1.56-1,1.76-2.19,2.4l-1.34.49L30.66,35c-12.18.08-12.22,0-13.41-.23-2.54-.49-3.58-1.1-4.24-2.47a5.11,5.11,0,0,1-.17-3c.55-2.18,4.29-8,9.53-14.77,1-1.29,1.87-2.44,1.92-2.54.28-.52,0-.86-.78-1a21.24,21.24,0,0,0-4.57.71,22.55,22.55,0,0,0-5.58,2.16A17.26,17.26,0,0,0,8,18.47a12.28,12.28,0,0,0-2.4,5.18,11,11,0,0,0,.16,4.73,13.06,13.06,0,0,0,5.63,7.41,9.08,9.08,0,0,1,.85.64c0,.09-.37,0-.93-.16Z"/></g></mask><linearGradient id="bc" x1="-605.01" y1="-465.7" x2="-605.13" y2="-449.87" gradientTransform="matrix(0.65, 0, 0, -0.65, 418.79, -261.45)" gradientUnits="userSpaceOnUse"><stop offset="0"/><stop offset="1"/></linearGradient><linearGradient id="bd" x1="-623.15" y1="-420.39" x2="-576.9" y2="-473.08" gradientTransform="matrix(0.65, 0, 0, -0.65, 419.16, -261.32)" gradientUnits="userSpaceOnUse"><stop offset="0" stop-color="#5a5a5a"/><stop offset="0.27" stop-color="#505050"/><stop offset="0.63" stop-color="#666"/><stop offset="0.67" stop-color="#666"/><stop offset="1" stop-color="#666"/></linearGradient><filter id="bg" x="3.92" y="9.47" width="43.86" height="25.53" filterUnits="userSpaceOnUse" color-interpolation-filters="sRGB"><feFlood flood-color="#fff" result="bg"/><feBlend in="SourceGraphic" in2="bg"/></filter><mask id="bf" x="3.92" y="9.47" width="43.86" height="25.53" maskUnits="userSpaceOnUse"><g class="z"><path class="aa" d="M3.92,24.41a9.06,9.06,0,0,1,.33-2.71A13.29,13.29,0,0,1,7,16.63c3-3.64,8.71-6.39,14.48-7a24.58,24.58,0,0,1,5,0,2,2,0,0,1,1.13,1.24.89.89,0,0,1-.12.86,5.24,5.24,0,0,1-.53.82L26,13.73c-.36.47-1.19,1.52-1.85,2.33s-1.73,2.23-2.39,3.14c-1.21,1.69-3.86,5.7-4.39,6.64a11.26,11.26,0,0,1-.63,1,9.89,9.89,0,0,0-.72,1.27,2.35,2.35,0,0,0-.33,1.55,2.15,2.15,0,0,0,1.2,2c1.28.83.11.77,13.68.77H42.71l1-1.13a6.77,6.77,0,0,0,1.4-1.91,15.11,15.11,0,0,0,1-3.26A12.88,12.88,0,0,0,46,22.3a15.36,15.36,0,0,0-2.17-4.41,19.05,19.05,0,0,0-7.45-6.48,16.15,16.15,0,0,1-1.94-1.3A25.17,25.17,0,0,1,38,11.57a18.56,18.56,0,0,1,6.85,5.68,17.12,17.12,0,0,1,2.66,5.51,11.82,11.82,0,0,1,.3,3.17A11.9,11.9,0,0,1,46.14,32c-.8,1.56-1,1.76-2.19,2.4l-1.34.49L30.66,35c-12.18.08-12.22,0-13.41-.23-2.54-.49-3.58-1.1-4.24-2.47a5.11,5.11,0,0,1-.17-3c.55-2.18,4.29-8,9.53-14.77,1-1.29,1.87-2.44,1.92-2.54.28-.52,0-.86-.78-1a21.24,21.24,0,0,0-4.57.71,22.55,22.55,0,0,0-5.58,2.16A17.26,17.26,0,0,0,8,18.47a12.28,12.28,0,0,0-2.4,5.18,11,11,0,0,0,.16,4.73,4.45,4.45,0,0,1-1.88-4Z"/></g></mask><linearGradient id="bh" x1="343.94" y1="-137.4" x2="391.27" y2="-157.81" gradientTransform="matrix(0.65, 0, 0, -0.65, -218.4, -75.68)" gradientUnits="userSpaceOnUse"><stop offset="0" stop-color="#323232"/><stop offset="0.39" stop-color="#323232"/><stop offset="0.47" stop-color="#323232"/><stop offset="0.7" stop-color="#e1e1e1"/><stop offset="1" stop-color="#c8c8c8"/></linearGradient><filter id="bj" x="3.9" y="9.47" width="43.87" height="25.53" filterUnits="userSpaceOnUse" color-interpolation-filters="sRGB"><feFlood flood-color="#fff" result="bg"/><feBlend in="SourceGraphic" in2="bg"/></filter><mask id="bi" x="3.9" y="9.47" width="43.87" height="25.53" maskUnits="userSpaceOnUse"><g class="ab"><path class="ac" d="M4.38,28.64a10.89,10.89,0,0,1-.46-4.23,9.06,9.06,0,0,1,.33-2.71A13.29,13.29,0,0,1,7,16.63c3-3.64,8.71-6.39,14.48-7a24.58,24.58,0,0,1,5,0,2,2,0,0,1,1.13,1.24.89.89,0,0,1-.12.86,5.24,5.24,0,0,1-.53.82L26,13.73c-.36.47-1.19,1.52-1.85,2.33s-1.73,2.23-2.39,3.14c-1.21,1.69-3.86,5.7-4.39,6.64a11.26,11.26,0,0,1-.63,1,9.89,9.89,0,0,0-.72,1.27,2.35,2.35,0,0,0-.33,1.55,2.15,2.15,0,0,0,1.2,2c1.28.83.11.77,13.68.77H42.71l1-1.13a6.77,6.77,0,0,0,1.4-1.91,15.11,15.11,0,0,0,1-3.26A12.88,12.88,0,0,0,46,22.3a15.83,15.83,0,0,0-2-4.6,19,19,0,0,0-7.46-6.49c-.6-.32-2.16-1.07-2.13-1.1A25.17,25.17,0,0,1,38,11.57a18.56,18.56,0,0,1,6.85,5.68,17.12,17.12,0,0,1,2.66,5.51,11.82,11.82,0,0,1,.3,3.17A11.9,11.9,0,0,1,46.14,32c-.8,1.56-1,1.76-2.19,2.4l-1.34.49L30.66,35c-12.18.08-12.22,0-13.41-.23-2.54-.49-3.58-1.1-4.24-2.47a5.11,5.11,0,0,1-.17-3c.55-2.18,4.29-8,9.53-14.77,1-1.29,1.87-2.44,1.92-2.54.28-.52,0-.86-.78-1a21.24,21.24,0,0,0-4.57.71,22.55,22.55,0,0,0-5.58,2.16A17.26,17.26,0,0,0,8,18.47a12.28,12.28,0,0,0-2.4,5.18,11,11,0,0,0,.16,4.73c-.48.28.81,2.25-1.42.26Z"/></g></mask><linearGradient id="bk" x1="-605.7" y1="-457.27" x2="-605.45" y2="-449.53" xlink:href="#bc"/><filter id="bm" x="4.02" y="9.36" width="43.87" height="25.53" filterUnits="userSpaceOnUse" color-interpolation-filters="sRGB"><feFlood flood-color="#fff" result="bg"/><feBlend in="SourceGraphic" in2="bg"/></filter><mask id="bl" x="4.02" y="9.36" width="43.87" height="25.53" maskUnits="userSpaceOnUse"><g class="ad"><path class="ae" d="M4.5,28.53A10.75,10.75,0,0,1,4,24.3a8.47,8.47,0,0,1,.33-2.72,13.31,13.31,0,0,1,2.71-5.06c3-3.65,8.71-6.4,14.48-7a24.74,24.74,0,0,1,5,0,2.07,2.07,0,0,1,1.13,1.25.89.89,0,0,1-.11.85,6.2,6.2,0,0,1-.53.83c-.17.2-.59.75-.95,1.22S25,15.14,24.3,16s-1.74,2.23-2.39,3.14c-1.21,1.69-3.86,5.7-4.39,6.64-.16.28-.45.73-.64,1A11.58,11.58,0,0,0,16.17,28a2.33,2.33,0,0,0-.34,1.56,2.2,2.2,0,0,0,1.2,2c1.29.83.12.76,13.69.76h12.1l1-1.13a6.9,6.9,0,0,0,1.41-1.9,15,15,0,0,0,1-3.27,12.9,12.9,0,0,0-.15-3.83,15.2,15.2,0,0,0-2.18-4.4,19.07,19.07,0,0,0-7.45-6.49A17.39,17.39,0,0,1,34.55,10a23.47,23.47,0,0,1,3.53,1.46,18.68,18.68,0,0,1,6.84,5.67,17.1,17.1,0,0,1,2.67,5.52,12.2,12.2,0,0,1,.3,3.17,12.1,12.1,0,0,1-1.63,6.08c-.8,1.56-1,1.76-2.2,2.4l-1.34.48-11.94.08c-12.19.07-12.22,0-13.41-.23-2.55-.49-3.59-1.1-4.25-2.47a5.12,5.12,0,0,1-.16-3c.54-2.18,4.29-8,9.53-14.77,1-1.29,1.86-2.44,1.92-2.55.27-.52,0-.86-.79-1a20.47,20.47,0,0,0-4.56.71,22.66,22.66,0,0,0-5.59,2.16,17.24,17.24,0,0,0-5.32,4.58,12.17,12.17,0,0,0-2.4,5.18,10.87,10.87,0,0,0,.17,4.73c-.49.28-.38.16-1.42.26Z"/></g></mask><linearGradient id="bn" x1="352.7" y1="-131.3" x2="359.17" y2="-138.13" gradientTransform="matrix(0.65, 0, 0, -0.65, -217.69, -76.39)" gradientUnits="userSpaceOnUse"><stop offset="0" stop-color="#28170b"/><stop offset="1" stop-color="#28170b"/></linearGradient><filter id="bp" x="21.65" y="9.57" width="5.86" height="5.34" filterUnits="userSpaceOnUse" color-interpolation-filters="sRGB"><feFlood flood-color="#fff" result="bg"/><feBlend in="SourceGraphic" in2="bg"/></filter><mask id="bo" x="21.65" y="9.57" width="5.86" height="5.34" maskUnits="userSpaceOnUse"><g class="c"><path class="d" d="M21.65,9.71a23.39,23.39,0,0,1,4.75,0,2,2,0,0,1,1.05,1.19.85.85,0,0,1-.1.82,5.08,5.08,0,0,1-.5.79L26,13.65c-2.42,2.44-2,1-1.63-1.66.26-.5,0-.82-.74-.94-.95-.74-.05-.62-1.94-1.34Z"/></g></mask><linearGradient id="bq" x1="-605.83" y1="-435.28" x2="-608.31" y2="-429.54" gradientTransform="matrix(0.61, 0, 0, -0.62, 395.72, -258.56)" gradientUnits="userSpaceOnUse"><stop offset="0" stop-color="#b3b3b3"/><stop offset="0.16" stop-color="#b3b3b3"/><stop offset="0.34" stop-color="#b3b3b3"/><stop offset="0.41" stop-color="#b3b3b3"/><stop offset="0.66" stop-color="#b3b3b3"/><stop offset="1" stop-color="#b3b3b3"/></linearGradient><filter id="bs" x="12.74" y="16.22" width="23.74" height="18.62" filterUnits="userSpaceOnUse" color-interpolation-filters="sRGB"><feFlood flood-color="#fff" result="bg"/><feBlend in="SourceGraphic" in2="bg"/></filter><mask id="br" x="12.74" y="16.22" width="23.74" height="18.62" maskUnits="userSpaceOnUse"><g class="e"><path class="f" d="M23.54,16.7c-.62.78-1.63,2.13-2.25,3-1.14,1.61-3.63,5.46-4.13,6.36-.15.27-.42.7-.6.95a10.8,10.8,0,0,0-.67,1.22,2.3,2.3,0,0,0-.32,1.49,2.12,2.12,0,0,0,1.13,1.92c1.21.79.11.73,12.88.73,1.66.74,14.61,2,.06,2.44-11.47.07-11.5,0-12.62-.22-2.39-.47-3.37-1.05-4-2.37a4.93,4.93,0,0,1-.15-2.83c2.83-9.84,12-14.8,10.67-12.7Z"/></g></mask><linearGradient id="bt" x1="-601.91" y1="-454.57" x2="-605.1" y2="-444.63" gradientTransform="matrix(0.61, 0, 0, -0.62, 391.42, -253.49)" gradientUnits="userSpaceOnUse"><stop offset="0" stop-color="#b3b3b3"/><stop offset="0.12" stop-color="#b3b3b3"/><stop offset="0.29" stop-color="#b3b3b3"/><stop offset="0.38" stop-color="#b3b3b3"/><stop offset="0.52" stop-color="#b3b3b3"/><stop offset="1" stop-color="#b3b3b3"/></linearGradient><linearGradient id="bu" x1="392.95" y1="-384.28" x2="402.47" y2="-412.7" gradientTransform="matrix(0.65, 0, 0, -0.65, -218.4, -239.82)" gradientUnits="userSpaceOnUse"><stop offset="0"/><stop offset="0.55" stop-color="#7d7d7d"/><stop offset="0.69" stop-color="#969696"/><stop offset="0.86" stop-color="#8a8a8a"/><stop offset="1" stop-color="#505050"/></linearGradient><linearGradient id="bv" x1="368.26" y1="-411.33" x2="399.56" y2="-418.73" gradientTransform="matrix(0.65, 0, 0, -0.65, -218.4, -239.82)" gradientUnits="userSpaceOnUse"><stop offset="0" stop-color="#323232"/><stop offset="0.11" stop-color="#b4b4b6"/><stop offset="0.25" stop-color="#b4b4b4"/><stop offset="1" stop-color="#aaa"/></linearGradient><filter id="bx" x="21.09" y="28.86" width="22.31" height="2.57" filterUnits="userSpaceOnUse" color-interpolation-filters="sRGB"><feFlood flood-color="#fff" result="bg"/><feBlend in="SourceGraphic" in2="bg"/></filter><mask id="bw" x="21.09" y="28.86" width="22.31" height="2.57" maskUnits="userSpaceOnUse"><g class="g"><path class="h" d="M22.12,31.28c-.54-.07-1-.42-1-.62a7.12,7.12,0,0,1,1.55-1.8c.06,0,.09.23.27.32s1.26.18,10,.22l9.65,0,.42.75a2.8,2.8,0,0,1,.42,1c-.06.16-5.94.26-15.52.24-5.7,0-5.57-.13-5.75-.15Z"/></g></mask><linearGradient id="by" x1="385.37" y1="-412.61" x2="385.37" y2="-417.82" gradientTransform="matrix(0.65, 0, 0, -0.65, -218.4, -239.82)" gradientUnits="userSpaceOnUse"><stop offset="0" stop-color="#505050"/><stop offset="1" stop-color="#fafafa"/></linearGradient><filter id="ca" x="2.74" y="8.39" width="42.07" height="32.13" filterUnits="userSpaceOnUse" color-interpolation-filters="sRGB"><feFlood flood-color="#fff" result="bg"/><feBlend in="SourceGraphic" in2="bg"/></filter><mask id="bz" x="2.74" y="8.39" width="42.07" height="32.13" maskUnits="userSpaceOnUse"><g class="i"><path class="j" d="M22.13,40.42c-10-.87-18-6.75-19.24-14.1-.74-4.59,1.23-9.07,5.57-12.67a15,15,0,0,1,3.82-2.46A25.7,25.7,0,0,1,24,8.41a30.14,30.14,0,0,1,6.27.39c1.76.3,2,.38,2.47.87s.44.52.44.81c0,.45-.49,1.14-3.11,4.33A116.94,116.94,0,0,0,22.53,24.9c-2.05,3.08-2.34,3.77-2,4.87a2,2,0,0,0,1.72,1.34c.94.18,2,.14,9.18.12,3.76,0,11.75,0,12,0a1.08,1.08,0,0,0,.73-.33c.74-.95,1-1.36,0,.39a2.83,2.83,0,0,1-1.76,1.46c-.82.17-22.27.09-23.44-.09a5.13,5.13,0,0,1-2.43-.92,2.27,2.27,0,0,1-.92-1,1.8,1.8,0,0,1-.22-1.26,5.28,5.28,0,0,1,1-2.41c.22-.32.55-.86.74-1.2s1-1.63,1.82-2.86a77.84,77.84,0,0,1,5.86-8,22.27,22.27,0,0,0,2.48-3.4A1.75,1.75,0,0,0,26.2,9.71a20,20,0,0,0-4.93.07C12.17,11,5.3,16.21,4.13,22.87a17.83,17.83,0,0,0,0,4.5,13.1,13.1,0,0,0,5.66,8.21,27.18,27.18,0,0,0,5.13,2.63,30,30,0,0,0,21.65-1,9.18,9.18,0,0,0,3.16-2.14l.84-.86L42,34.17c1.39-.06,2.15,0,2,.17a20.48,20.48,0,0,1-2.83,1.2,7.53,7.53,0,0,0-1.48.83,29.61,29.61,0,0,1-17.64,4.05Z"/></g></mask><linearGradient id="cb" x1="350.43" y1="-376.62" x2="364.2" y2="-398.62" gradientTransform="matrix(0.65, 0, 0, -0.65, -218.69, -239.78)" gradientUnits="userSpaceOnUse"><stop offset="0" stop-color="#8282a9"/><stop offset="1" stop-color="#a9a9a9"/></linearGradient><filter id="cd" x="2.85" y="8.39" width="41.35" height="32.12" filterUnits="userSpaceOnUse" color-interpolation-filters="sRGB"><feFlood flood-color="#fff" result="bg"/><feBlend in="SourceGraphic" in2="bg"/></filter><mask id="cc" x="2.85" y="8.39" width="41.35" height="32.12" maskUnits="userSpaceOnUse"><g class="k"><path class="l" d="M22.25,40.4c-10-.87-18-6.75-19.24-14.1-.75-4.59,1.22-9.07,5.57-12.67a15.24,15.24,0,0,1,3.81-2.46A25.83,25.83,0,0,1,24.06,8.39c-1.5.73-.68,1.28-2.67,1.37-9.11,1.18-16,6.43-17.14,13.09a17,17,0,0,0,0,4.51,13.07,13.07,0,0,0,5.66,8.2A26.88,26.88,0,0,0,15,38.19a29.88,29.88,0,0,0,21.64-1,9.18,9.18,0,0,0,3.16-2.14l.85-.86,1.45-.07c1.39-.06,2.16,0,2.06.17a21.3,21.3,0,0,1-2.84,1.2,8.14,8.14,0,0,0-1.48.83,29.59,29.59,0,0,1-17.63,4Z"/></g></mask><linearGradient id="ce" x1="1.82" y1="-568.68" x2="-15.07" y2="-574.48" gradientTransform="matrix(0.65, 0, 0, -0.65, 36.52, -349.87)" gradientUnits="userSpaceOnUse"><stop offset="0" stop-color="#fafafa"/><stop offset="0.25" stop-color="#fafafa"/><stop offset="0.5" stop-color="#e1e1e1"/><stop offset="1" stop-color="#c8c8c8"/></linearGradient><linearGradient id="cf" x1="372.81" y1="-379.06" x2="372.43" y2="-438.84" gradientTransform="matrix(0.65, 0, 0, -0.65, -218.4, -239.82)" gradientUnits="userSpaceOnUse"><stop offset="0" stop-color="#aaa"/><stop offset="0.1" stop-color="#bebebe"/><stop offset="0.21" stop-color="#bebebe"/><stop offset="0.55" stop-color="#b4b4b4"/><stop offset="0.67" stop-color="#878787"/><stop offset="0.78" stop-color="#969696"/><stop offset="1" stop-color="#aaa"/></linearGradient><filter id="ch" x="2.74" y="8.41" width="41.35" height="32.12" filterUnits="userSpaceOnUse" color-interpolation-filters="sRGB"><feFlood flood-color="#fff" result="bg"/><feBlend in="SourceGraphic" in2="bg"/></filter><mask id="cg" x="2.74" y="8.41" width="41.35" height="32.12" maskUnits="userSpaceOnUse"><g class="o"><path class="p" d="M22.13,40.42c-10-.87-18-6.75-19.24-14.1-.74-4.59,1.23-9.07,5.57-12.67a15,15,0,0,1,3.82-2.46A25.7,25.7,0,0,1,24,8.41c-.1,1-1.68,1.37-2.68,1.37C12.17,11,5.3,16.21,4.13,22.87a17.83,17.83,0,0,0,0,4.5,13.1,13.1,0,0,0,5.66,8.21,27.18,27.18,0,0,0,5.13,2.63,30,30,0,0,0,21.65-1,9.18,9.18,0,0,0,3.16-2.14l.84-.86L42,34.17c1.39-.06,2.15,0,2,.17a20.48,20.48,0,0,1-2.83,1.2,7.53,7.53,0,0,0-1.48.83,29.61,29.61,0,0,1-17.64,4.05Z"/></g></mask><linearGradient id="ci" x1="347.34" y1="-430.71" x2="361.24" y2="-418.62" gradientTransform="matrix(0.65, 0, 0, -0.65, -218.4, -239.82)" gradientUnits="userSpaceOnUse"><stop offset="0" stop-color="#e6e6e6"/><stop offset="1" stop-color="#fafafa"/></linearGradient><filter id="cn" x="21.04" y="9.99" width="25.35" height="21.82" filterUnits="userSpaceOnUse" color-interpolation-filters="sRGB"><feFlood flood-color="#fff" result="bg"/><feBlend in="SourceGraphic" in2="bg"/></filter><mask id="cm" x="21.04" y="9.99" width="25.35" height="21.82" maskUnits="userSpaceOnUse"><g class="r"><path class="s" d="M23.29,31.72A6.35,6.35,0,0,1,21,30.6c.87.73,4.5.67,11.6.65l10.77,0,.28-.26a6.42,6.42,0,0,0,.75-1.27,11,11,0,0,0,0-9.86,13,13,0,0,0-2.54-3.58,17,17,0,0,0-5.86-4.11c-1.82-.8-1.87-.63-1.8-1.13a2.38,2.38,0,0,0-.12-.48c-.24-.86-.13-.67,2,.46a21,21,0,0,1,6.29,4.45c4,4.2,5,9.62,2.68,14.49a3.21,3.21,0,0,1-1.82,1.78c-.32.1-2.2.11-9.71.1-5.39,0-6.1,0-10.32-.09Z"/></g></mask><linearGradient id="co" x1="377.11" y1="-398.5" x2="380.55" y2="-400.92" gradientTransform="matrix(0.65, 0, 0, -0.65, -218.4, -239.82)" gradientUnits="userSpaceOnUse"><stop offset="0" stop-color="#fafafa"/><stop offset="0.25" stop-color="#ededed"/><stop offset="0.5" stop-color="#e1e1e1"/><stop offset="1" stop-color="#c8c8c8"/></linearGradient><linearGradient id="cp" x1="374.12" y1="-422.92" x2="406.15" y2="-389.8" gradientTransform="matrix(0.65, 0, 0, -0.65, -218.4, -239.82)" gradientUnits="userSpaceOnUse"><stop offset="0" stop-color="#969696"/><stop offset="0.13" stop-color="#c0bebe"/><stop offset="0.5" stop-color="#b4b4b4"/><stop offset="1" stop-color="#bebebe"/></linearGradient><filter id="cr" x="34.03" y="10.09" width="10.43" height="9.74" filterUnits="userSpaceOnUse" color-interpolation-filters="sRGB"><feFlood flood-color="#fff" result="bg"/><feBlend in="SourceGraphic" in2="bg"/></filter><mask id="cq" x="34.03" y="10.09" width="10.43" height="9.74" maskUnits="userSpaceOnUse"><g class="t"><path class="u" d="M44.46,19.83a13,13,0,0,0-2.54-3.58,17,17,0,0,0-5.86-4.11c-1.82-.8-1.87-.63-1.8-1.13a2.38,2.38,0,0,0-.12-.48c-.24-.86-.27-.39,1.89.74,2.9,1.51,4.6,2.26,6.43,4.17,1.55,2.12.52,1,2,4.39Z"/></g></mask><linearGradient id="cs" x1="385.96" y1="-389.76" x2="392.85" y2="-391.09" gradientTransform="matrix(0.65, 0, 0, -0.65, -218.4, -239.82)" gradientUnits="userSpaceOnUse"><stop offset="0"/><stop offset="0.11" stop-color="#323232"/><stop offset="0.22" stop-color="#323232"/><stop offset="0.51" stop-color="#e1e1e1"/><stop offset="1" stop-color="#c8c8c8"/></linearGradient><filter id="cu" x="39.71" y="34.13" width="4.49" height="1.5" filterUnits="userSpaceOnUse" color-interpolation-filters="sRGB"><feFlood flood-color="#fff" result="bg"/><feBlend in="SourceGraphic" in2="bg"/></filter><mask id="ct" x="39.71" y="34.13" width="4.49" height="1.5" maskUnits="userSpaceOnUse"><g class="v"><path class="w" d="M39.84,35.08l.85-.86,1.45-.07c1.39-.06,2.16,0,2.06.17-1,1.11-5.3,1.89-4.36.76Z"/></g></mask><linearGradient id="cv" x1="8.37" y1="-590.44" x2="8.34" y2="-592.55" gradientTransform="matrix(0.65, 0, 0, -0.65, 36.52, -349.87)" gradientUnits="userSpaceOnUse"><stop offset="0" stop-color="#fafafa"/><stop offset="0.5" stop-color="#fafafa"/><stop offset="0.7" stop-color="#e1e1e1"/><stop offset="1" stop-color="#c8c8c8"/></linearGradient><filter id="cx" x="3.02" y="8.36" width="41.84" height="32.13" filterUnits="userSpaceOnUse" color-interpolation-filters="sRGB"><feFlood flood-color="#fff" result="bg"/><feBlend in="SourceGraphic" in2="bg"/></filter><mask id="cw" x="3.02" y="8.36" width="41.84" height="32.13" maskUnits="userSpaceOnUse"><g class="x"><path class="y" d="M22.18,40.39c-10-.87-17.81-6.36-19-13.7-.75-4.6,1.22-9,5.57-12.6a20.77,20.77,0,0,1,3.74-2.54A22.56,22.56,0,0,1,24,8.38a30.2,30.2,0,0,1,6.28.39c1.76.3,2,.38,2.46.87s.45.52.45.81c0,.45-.5,1.14-3.11,4.33a112.91,112.91,0,0,0-7.49,10.09c-2.06,3.08-2.34,3.77-2,4.87a2,2,0,0,0,1.71,1.34c.95.18,2,.14,9.18.13,3.77,0,11.76,0,12,0a1,1,0,0,0,.73-.33c.74-.95,1-1.35,0,.39a2.83,2.83,0,0,1-1.76,1.46c-.81.17-22.26.09-23.44-.09a5,5,0,0,1-2.42-.92,2.21,2.21,0,0,1-.92-1,1.75,1.75,0,0,1-.22-1.26,5.3,5.3,0,0,1,1-2.41c.22-.32.56-.86.75-1.2S18.21,24.2,19,23a79.54,79.54,0,0,1,5.87-8,21.78,21.78,0,0,0,2.48-3.4,1.76,1.76,0,0,0-1.11-1.91,20,20,0,0,0-4.93.07c-9.11,1.18-16,6.43-17.14,13.09a17,17,0,0,0,0,4.5,13.06,13.06,0,0,0,5.66,8.21A26.88,26.88,0,0,0,15,38.18a29.91,29.91,0,0,0,21.65-1,9.18,9.18,0,0,0,3.16-2.14l.84-.86,1.45-.07c1.39-.06,2.16,0,2.06.17a20.73,20.73,0,0,1-2.84,1.2,8.14,8.14,0,0,0-1.48.83,29.59,29.59,0,0,1-17.63,4Z"/></g></mask><radialGradient id="cy" cx="3.26" cy="-578.31" r="20.92" gradientTransform="matrix(0.12, 0.5, 0.64, -0.15, 392.79, -70.38)" gradientUnits="userSpaceOnUse"><stop offset="0" stop-color="#dcdcdc"/><stop offset="0.75" stop-color="#e1e1e1"/><stop offset="1" stop-color="#c8c8c8"/></radialGradient></defs><title>lexus</title><path class="af" d="M21.72,41.43a27.9,27.9,0,0,1-9.43-2.69,19.17,19.17,0,0,1-5.85-4.09A14.84,14.84,0,0,1,2.7,28.91a12.62,12.62,0,0,1,1-9.75A15.87,15.87,0,0,1,9.5,12.72a27.31,27.31,0,0,1,4.18-2.14c.46-.14-.23.12-1,.58-.49.28-.79.44-1.24.71A17.38,17.38,0,0,0,9,13.62,14.63,14.63,0,0,0,3.5,22.08a15,15,0,0,0,0,4.44c.79,3.81,3.07,6.93,7,9.51a24.29,24.29,0,0,0,7.87,3.31,23.17,23.17,0,0,0,7,.72,26.17,26.17,0,0,0,4.35-.19,28.43,28.43,0,0,0,9-2.9,24.83,24.83,0,0,0,2.67-1.59,8,8,0,0,1,1-.51,2.9,2.9,0,0,0,1.08-.72c.29-.35.31-.36,1.05-.36.44,0,1.12-.64,1.12-.58a17.47,17.47,0,0,1-3.09,3.22A19.15,19.15,0,0,1,38.6,38.8a25.92,25.92,0,0,1-8.86,2.6,36.47,36.47,0,0,1-8,0Z"/><g class="ag"><path class="ah" d="M21.49,39.8a32.25,32.25,0,0,1-6.18-1.34,37.28,37.28,0,0,1-3.83-1.67,28.29,28.29,0,0,1-3.09-2.3c-1.17-1-3.05-3.37-2.88-3.63a3.52,3.52,0,0,1,1-.39,2.81,2.81,0,0,1,.36.56,14.35,14.35,0,0,0,3.48,4,14,14,0,0,0,5.91,3,30.88,30.88,0,0,0,17.32-.2,13.29,13.29,0,0,0,4.87-2.64,5,5,0,0,1,2-.7c.14.14-.25.64-1.06,1.34a21.74,21.74,0,0,1-7.88,3.39,25.4,25.4,0,0,1-6.64.68c-1.65,0-3.19,0-3.42,0Z"/></g><g class="ai"><path class="aj" d="M11.35,36.27A6.38,6.38,0,0,1,9,34.94a13.3,13.3,0,0,1-4.64-6.3,10.89,10.89,0,0,1-.46-4.23,9.06,9.06,0,0,1,.33-2.71A13.29,13.29,0,0,1,7,16.63c3-3.64,8.71-6.39,14.48-7a24.58,24.58,0,0,1,5,0,2,2,0,0,1,1.13,1.24.89.89,0,0,1-.12.86,5.24,5.24,0,0,1-.53.82L26,13.73c-.36.47-1.19,1.52-1.85,2.33s-1.73,2.23-2.39,3.14c-1.21,1.69-3.86,5.7-4.39,6.64a11.26,11.26,0,0,1-.63,1,9.89,9.89,0,0,0-.72,1.27,2.35,2.35,0,0,0-.33,1.55,2.15,2.15,0,0,0,1.2,2c1.28.83.11.77,13.68.77H42.71l1-1.13a6.77,6.77,0,0,0,1.4-1.91,15.11,15.11,0,0,0,1-3.26A12.88,12.88,0,0,0,46,22.3a15.83,15.83,0,0,0-2-4.6,19,19,0,0,0-7.46-6.49c-.6-.32-2.16-1.07-2.13-1.1A25.17,25.17,0,0,1,38,11.57a18.56,18.56,0,0,1,6.85,5.68,17.12,17.12,0,0,1,2.66,5.51,11.82,11.82,0,0,1,.3,3.17A11.9,11.9,0,0,1,46.14,32c-.8,1.56-1,1.76-2.19,2.4l-1.34.49L30.66,35c-12.18.08-12.22,0-13.41-.23-2.54-.49-3.58-1.1-4.24-2.47a5.11,5.11,0,0,1-.17-3c.55-2.18,4.29-8,9.53-14.77,1-1.29,1.87-2.44,1.92-2.54.28-.52,0-.86-.78-1a21.24,21.24,0,0,0-4.57.71,22.55,22.55,0,0,0-5.58,2.16A17.26,17.26,0,0,0,8,18.47a12.28,12.28,0,0,0-2.4,5.18,11,11,0,0,0,.16,4.73,13.06,13.06,0,0,0,5.63,7.41,9.08,9.08,0,0,1,.85.64c0,.09-.37,0-.93-.16Z"/></g><path class="ak" d="M11.41,36.3A6.58,6.58,0,0,1,9.08,35a13.3,13.3,0,0,1-4.64-6.3A10.89,10.89,0,0,1,4,24.43a9.06,9.06,0,0,1,.33-2.71A13.37,13.37,0,0,1,7,16.65c3-3.64,8.71-6.39,14.48-7a24.59,24.59,0,0,1,5,0,2.08,2.08,0,0,1,1.13,1.24.89.89,0,0,1-.12.86,5.24,5.24,0,0,1-.53.82l-.94,1.22c-.36.47-1.19,1.52-1.85,2.34s-1.73,2.22-2.39,3.13c-1.21,1.69-3.86,5.7-4.39,6.64a11.26,11.26,0,0,1-.63,1,9.89,9.89,0,0,0-.72,1.27,2.43,2.43,0,0,0-.34,1.55,2.21,2.21,0,0,0,1.2,2c1.29.82.12.76,13.69.76H42.77l1-1.13a6.64,6.64,0,0,0,1.41-1.9,15.37,15.37,0,0,0,1-3.27,12.88,12.88,0,0,0-.16-3.83,15.53,15.53,0,0,0-2.13-4.46c-1.67-2.59-3.87-4.29-7.3-6.12C36,11.42,33,9.8,34.5,10.13A25.17,25.17,0,0,1,38,11.59a18.44,18.44,0,0,1,6.84,5.68,16.94,16.94,0,0,1,2.67,5.51,11.82,11.82,0,0,1,.3,3.17A12,12,0,0,1,46.2,32c-.8,1.55-1,1.75-2.19,2.39l-1.34.49-12,.07c-12.19.08-12.22,0-13.41-.23-2.54-.49-3.58-1.09-4.25-2.47a5.19,5.19,0,0,1-.16-3c.55-2.17,4.29-8,9.53-14.77,1-1.29,1.87-2.43,1.92-2.54.28-.52,0-.86-.78-1a21.89,21.89,0,0,0-4.57.71,22.55,22.55,0,0,0-5.58,2.16A17.15,17.15,0,0,0,8.1,18.5a12.17,12.17,0,0,0-2.4,5.18,11,11,0,0,0,.16,4.72,13.06,13.06,0,0,0,5.63,7.41,9.08,9.08,0,0,1,.85.64c0,.09-.37,0-.93-.15Z"/><path class="ak" d="M11.41,36.3A6.58,6.58,0,0,1,9.08,35a13.3,13.3,0,0,1-4.64-6.3A10.89,10.89,0,0,1,4,24.43a9.06,9.06,0,0,1,.33-2.71A13.37,13.37,0,0,1,7,16.65c3-3.64,8.71-6.39,14.48-7a24.59,24.59,0,0,1,5,0,2.08,2.08,0,0,1,1.13,1.24.89.89,0,0,1-.12.86,5.24,5.24,0,0,1-.53.82l-.94,1.22c-.36.47-1.19,1.52-1.85,2.34s-1.73,2.22-2.39,3.13c-1.21,1.69-3.86,5.7-4.39,6.64a11.26,11.26,0,0,1-.63,1,9.89,9.89,0,0,0-.72,1.27,2.43,2.43,0,0,0-.34,1.55,2.21,2.21,0,0,0,1.2,2c1.29.82.12.76,13.69.76H42.77l1-1.13a6.64,6.64,0,0,0,1.41-1.9,15.37,15.37,0,0,0,1-3.27,12.88,12.88,0,0,0-.16-3.83,16,16,0,0,0-2-4.6,19,19,0,0,0-7.46-6.49c-.6-.32-2.16-1.07-2.13-1.1A25.17,25.17,0,0,1,38,11.59a18.44,18.44,0,0,1,6.84,5.68,16.94,16.94,0,0,1,2.67,5.51,11.82,11.82,0,0,1,.3,3.17A12,12,0,0,1,46.2,32c-.8,1.55-1,1.75-2.19,2.39l-1.34.49-12,.07c-12.19.08-12.22,0-13.41-.23-2.54-.49-3.58-1.09-4.25-2.47a5.19,5.19,0,0,1-.16-3c.55-2.17,4.29-8,9.53-14.77,1-1.29,1.87-2.43,1.92-2.54.28-.52,0-.86-.78-1a21.89,21.89,0,0,0-4.57.71,22.55,22.55,0,0,0-5.58,2.16A17.15,17.15,0,0,0,8.1,18.5a12.17,12.17,0,0,0-2.4,5.18,11,11,0,0,0,.16,4.72,13.06,13.06,0,0,0,5.63,7.41,9.08,9.08,0,0,1,.85.64c0,.09-.37,0-.93-.15Z"/><g class="al"><path class="am" d="M3.92,24.41a9.06,9.06,0,0,1,.33-2.71A13.29,13.29,0,0,1,7,16.63c3-3.64,8.71-6.39,14.48-7a24.58,24.58,0,0,1,5,0,2,2,0,0,1,1.13,1.24.89.89,0,0,1-.12.86,5.24,5.24,0,0,1-.53.82L26,13.73c-.36.47-1.19,1.52-1.85,2.33s-1.73,2.23-2.39,3.14c-1.21,1.69-3.86,5.7-4.39,6.64a11.26,11.26,0,0,1-.63,1,9.89,9.89,0,0,0-.72,1.27,2.35,2.35,0,0,0-.33,1.55,2.15,2.15,0,0,0,1.2,2c1.28.83.11.77,13.68.77H42.71l1-1.13a6.77,6.77,0,0,0,1.4-1.91,15.11,15.11,0,0,0,1-3.26A12.88,12.88,0,0,0,46,22.3a15.36,15.36,0,0,0-2.17-4.41,19.05,19.05,0,0,0-7.45-6.48,16.15,16.15,0,0,1-1.94-1.3A25.17,25.17,0,0,1,38,11.57a18.56,18.56,0,0,1,6.85,5.68,17.12,17.12,0,0,1,2.66,5.51,11.82,11.82,0,0,1,.3,3.17A11.9,11.9,0,0,1,46.14,32c-.8,1.56-1,1.76-2.19,2.4l-1.34.49L30.66,35c-12.18.08-12.22,0-13.41-.23-2.54-.49-3.58-1.1-4.24-2.47a5.11,5.11,0,0,1-.17-3c.55-2.18,4.29-8,9.53-14.77,1-1.29,1.87-2.44,1.92-2.54.28-.52,0-.86-.78-1a21.24,21.24,0,0,0-4.57.71,22.55,22.55,0,0,0-5.58,2.16A17.26,17.26,0,0,0,8,18.47a12.28,12.28,0,0,0-2.4,5.18,11,11,0,0,0,.16,4.73,4.45,4.45,0,0,1-1.88-4Z"/></g><g class="an"><path class="ao" d="M4.38,28.64a10.89,10.89,0,0,1-.46-4.23,9.06,9.06,0,0,1,.33-2.71A13.29,13.29,0,0,1,7,16.63c3-3.64,8.71-6.39,14.48-7a24.58,24.58,0,0,1,5,0,2,2,0,0,1,1.13,1.24.89.89,0,0,1-.12.86,5.24,5.24,0,0,1-.53.82L26,13.73c-.36.47-1.19,1.52-1.85,2.33s-1.73,2.23-2.39,3.14c-1.21,1.69-3.86,5.7-4.39,6.64a11.26,11.26,0,0,1-.63,1,9.89,9.89,0,0,0-.72,1.27,2.35,2.35,0,0,0-.33,1.55,2.15,2.15,0,0,0,1.2,2c1.28.83.11.77,13.68.77H42.71l1-1.13a6.77,6.77,0,0,0,1.4-1.91,15.11,15.11,0,0,0,1-3.26A12.88,12.88,0,0,0,46,22.3a15.83,15.83,0,0,0-2-4.6,19,19,0,0,0-7.46-6.49c-.6-.32-2.16-1.07-2.13-1.1A25.17,25.17,0,0,1,38,11.57a18.56,18.56,0,0,1,6.85,5.68,17.12,17.12,0,0,1,2.66,5.51,11.82,11.82,0,0,1,.3,3.17A11.9,11.9,0,0,1,46.14,32c-.8,1.56-1,1.76-2.19,2.4l-1.34.49L30.66,35c-12.18.08-12.22,0-13.41-.23-2.54-.49-3.58-1.1-4.24-2.47a5.11,5.11,0,0,1-.17-3c.55-2.18,4.29-8,9.53-14.77,1-1.29,1.87-2.44,1.92-2.54.28-.52,0-.86-.78-1a21.24,21.24,0,0,0-4.57.71,22.55,22.55,0,0,0-5.58,2.16A17.26,17.26,0,0,0,8,18.47a12.28,12.28,0,0,0-2.4,5.18,11,11,0,0,0,.16,4.73c-.48.28.81,2.25-1.42.26Z"/></g><g class="ap"><path class="aq" d="M4.5,28.53A10.75,10.75,0,0,1,4,24.3a8.47,8.47,0,0,1,.33-2.72,13.31,13.31,0,0,1,2.71-5.06c3-3.65,8.71-6.4,14.48-7a24.74,24.74,0,0,1,5,0,2.07,2.07,0,0,1,1.13,1.25.89.89,0,0,1-.11.85,6.2,6.2,0,0,1-.53.83c-.17.2-.59.75-.95,1.22S25,15.14,24.3,16s-1.74,2.23-2.39,3.14c-1.21,1.69-3.86,5.7-4.39,6.64-.16.28-.45.73-.64,1A11.58,11.58,0,0,0,16.17,28a2.33,2.33,0,0,0-.34,1.56,2.2,2.2,0,0,0,1.2,2c1.29.83.12.76,13.69.76h12.1l1-1.13a6.9,6.9,0,0,0,1.41-1.9,15,15,0,0,0,1-3.27,12.9,12.9,0,0,0-.15-3.83,15.2,15.2,0,0,0-2.18-4.4,19.07,19.07,0,0,0-7.45-6.49A17.39,17.39,0,0,1,34.55,10a23.47,23.47,0,0,1,3.53,1.46,18.68,18.68,0,0,1,6.84,5.67,17.1,17.1,0,0,1,2.67,5.52,12.2,12.2,0,0,1,.3,3.17,12.1,12.1,0,0,1-1.63,6.08c-.8,1.56-1,1.76-2.2,2.4l-1.34.48-11.94.08c-12.19.07-12.22,0-13.41-.23-2.55-.49-3.59-1.1-4.25-2.47a5.12,5.12,0,0,1-.16-3c.54-2.18,4.29-8,9.53-14.77,1-1.29,1.86-2.44,1.92-2.55.27-.52,0-.86-.79-1a20.47,20.47,0,0,0-4.56.71,22.66,22.66,0,0,0-5.59,2.16,17.24,17.24,0,0,0-5.32,4.58,12.17,12.17,0,0,0-2.4,5.18,10.87,10.87,0,0,0,.17,4.73c-.49.28-.38.16-1.42.26Z"/></g><g class="ar"><g class="as"><path class="at" d="M21.65,9.71a23.39,23.39,0,0,1,4.75,0,2,2,0,0,1,1.05,1.19.85.85,0,0,1-.1.82,5.08,5.08,0,0,1-.5.79L26,13.65c-2.42,2.44-2,1-1.63-1.66.26-.5,0-.82-.74-.94-.95-.74-.05-.62-1.94-1.34Z"/></g></g><g class="au"><path class="av" d="M23.54,16.7c-.62.78-1.63,2.13-2.25,3-1.14,1.61-3.63,5.46-4.13,6.36-.15.27-.42.7-.6.95a10.8,10.8,0,0,0-.67,1.22,2.3,2.3,0,0,0-.32,1.49,2.12,2.12,0,0,0,1.13,1.92c1.21.79.11.73,12.88.73,1.66.74,14.61,2,.06,2.44-11.47.07-11.5,0-12.62-.22-2.39-.47-3.37-1.05-4-2.37a4.93,4.93,0,0,1-.15-2.83c2.83-9.84,12-14.8,10.67-12.7Z"/></g><path class="aw" d="M20.82,30.45a2.55,2.55,0,0,1-.05-2.68c.86-1.94,5.69-8.7,9.34-13.06,2.11-2.51,3-3.71,3-4.16a1.16,1.16,0,0,0-.38-.71L32,9.24l.59.18a12.53,12.53,0,0,1,1.74.67c.51.34.42,1.28-.1,2.2A28.77,28.77,0,0,1,32.14,15a110.66,110.66,0,0,0-7.81,10.53c-1.39,2.11-1.83,3-1.68,3.4a4.66,4.66,0,0,1-1.49,1.74.57.57,0,0,1-.34-.24Z"/><path class="ax" d="M43,31.16a6.17,6.17,0,0,1-.78-1.6c0-.08.23-.08.32-.16.29-.23.48-.69.76-1.8A10.88,10.88,0,0,0,42.49,20a13.85,13.85,0,0,0-7.93-6.81c-.49-.15-.64-.21-.74-.33s-.15-.27.13-.89c.22-.47.27-.71.42-.74a7.48,7.48,0,0,1,1.63.66c4.4,2.15,7.28,4.86,8.73,8.21a9.17,9.17,0,0,1,1,4.16,10.32,10.32,0,0,1-1.2,5.54c-.76,1.49-1.16,1.79-1.53,1.38Z"/><path class="ay" d="M22.12,31.28c-.54-.07-1-.42-1-.62a7.12,7.12,0,0,1,1.55-1.8c.06,0,.09.23.27.32s1.26.18,10,.22l9.65,0,.42.75a2.8,2.8,0,0,1,.42,1c-.06.16-5.94.26-15.52.24-5.7,0-5.57-.13-5.75-.15Z"/><g class="az"><path class="ba" d="M22.12,31.28c-.54-.07-1-.42-1-.62a7.12,7.12,0,0,1,1.55-1.8c.06,0,.09.23.27.32s1.26.18,10,.22l9.65,0,.42.75a2.8,2.8,0,0,1,.42,1c-.06.16-5.94.26-15.52.24-5.7,0-5.57-.13-5.75-.15Z"/></g><g class="bb"><path class="bc" d="M22.13,40.42c-10-.87-18-6.75-19.24-14.1-.74-4.59,1.23-9.07,5.57-12.67a15,15,0,0,1,3.82-2.46A25.7,25.7,0,0,1,24,8.41a30.14,30.14,0,0,1,6.27.39c1.76.3,2,.38,2.47.87s.44.52.44.81c0,.45-.49,1.14-3.11,4.33A116.94,116.94,0,0,0,22.53,24.9c-2.05,3.08-2.34,3.77-2,4.87a2,2,0,0,0,1.72,1.34c.94.18,2,.14,9.18.12,3.76,0,11.75,0,12,0a1.08,1.08,0,0,0,.73-.33c.74-.95,1-1.36,0,.39a2.83,2.83,0,0,1-1.76,1.46c-.82.17-22.27.09-23.44-.09a5.13,5.13,0,0,1-2.43-.92,2.27,2.27,0,0,1-.92-1,1.8,1.8,0,0,1-.22-1.26,5.28,5.28,0,0,1,1-2.41c.22-.32.55-.86.74-1.2s1-1.63,1.82-2.86a77.84,77.84,0,0,1,5.86-8,22.27,22.27,0,0,0,2.48-3.4A1.75,1.75,0,0,0,26.2,9.71a20,20,0,0,0-4.93.07C12.17,11,5.3,16.21,4.13,22.87a17.83,17.83,0,0,0,0,4.5,13.1,13.1,0,0,0,5.66,8.21,27.18,27.18,0,0,0,5.13,2.63,30,30,0,0,0,21.65-1,9.18,9.18,0,0,0,3.16-2.14l.84-.86L42,34.17c1.39-.06,2.15,0,2,.17a20.48,20.48,0,0,1-2.83,1.2,7.53,7.53,0,0,0-1.48.83,29.61,29.61,0,0,1-17.64,4.05Z"/></g><g class="bd"><path class="be" d="M22.25,40.4c-10-.87-18-6.75-19.24-14.1-.75-4.59,1.22-9.07,5.57-12.67a15.24,15.24,0,0,1,3.81-2.46A25.83,25.83,0,0,1,24.06,8.39c-1.5.73-.68,1.28-2.67,1.37-9.11,1.18-16,6.43-17.14,13.09a17,17,0,0,0,0,4.51,13.07,13.07,0,0,0,5.66,8.2A26.88,26.88,0,0,0,15,38.19a29.88,29.88,0,0,0,21.64-1,9.18,9.18,0,0,0,3.16-2.14l.85-.86,1.45-.07c1.39-.06,2.16,0,2.06.17a21.3,21.3,0,0,1-2.84,1.2,8.14,8.14,0,0,0-1.48.83,29.59,29.59,0,0,1-17.63,4Z"/></g><path class="bf" d="M22.18,40.42c-10-.88-17.81-6.36-19-13.71-.75-4.59,1.22-9,5.57-12.59a20.3,20.3,0,0,1,3.74-2.55A22.76,22.76,0,0,1,24,8.4a30.9,30.9,0,0,1,6.28.39c1.76.31,2,.38,2.46.87s.45.52.45.82-.5,1.13-3.11,4.33a111.4,111.4,0,0,0-7.49,10.08c-2.06,3.08-2.34,3.77-2,4.88a2,2,0,0,0,1.71,1.33c.95.18,2,.14,9.18.13,3.77,0,11.76,0,12,0a1,1,0,0,0,.73-.32c.74-1,1-1.36,0,.38a2.88,2.88,0,0,1-1.76,1.47c-.81.17-22.26.08-23.44-.09a5.16,5.16,0,0,1-2.42-.93,2.21,2.21,0,0,1-.92-1,1.73,1.73,0,0,1-.22-1.25,5.28,5.28,0,0,1,1-2.42c.22-.31.56-.86.75-1.2s1-1.63,1.81-2.85a79.54,79.54,0,0,1,5.87-8,21.78,21.78,0,0,0,2.48-3.4A1.76,1.76,0,0,0,26.25,9.7a21.1,21.1,0,0,0-4.93.07C12.21,11,5.34,16.2,4.18,22.86a17,17,0,0,0,0,4.51,13,13,0,0,0,5.66,8.2A26.88,26.88,0,0,0,15,38.2a29.91,29.91,0,0,0,21.65-1,9.18,9.18,0,0,0,3.16-2.14l.84-.86,1.45-.06c1.39-.07,2.16,0,2.06.17a21,21,0,0,1-2.84,1.19,8.8,8.8,0,0,0-1.48.83,29.67,29.67,0,0,1-17.63,4.06Z"/><g class="bg"><path class="bh" d="M22.13,40.42c-10-.87-18-6.75-19.24-14.1-.74-4.59,1.23-9.07,5.57-12.67a15,15,0,0,1,3.82-2.46A25.7,25.7,0,0,1,24,8.41c-.1,1-1.68,1.37-2.68,1.37C12.17,11,5.3,16.21,4.13,22.87a17.83,17.83,0,0,0,0,4.5,13.1,13.1,0,0,0,5.66,8.21,27.18,27.18,0,0,0,5.13,2.63,30,30,0,0,0,21.65-1,9.18,9.18,0,0,0,3.16-2.14l.84-.86L42,34.17c1.39-.06,2.15,0,2,.17a20.48,20.48,0,0,1-2.83,1.2,7.53,7.53,0,0,0-1.48.83,29.61,29.61,0,0,1-17.64,4.05Z"/></g><g class="bd"><path class="be" d="M22.25,40.4c-10-.87-18-6.75-19.24-14.1-.75-4.59,1.22-9.07,5.57-12.67a15.24,15.24,0,0,1,3.81-2.46A25.83,25.83,0,0,1,24.06,8.39c-1.5.73-.68,1.28-2.67,1.37-9.11,1.18-16,6.43-17.14,13.09a17,17,0,0,0,0,4.51,13.07,13.07,0,0,0,5.66,8.2A26.88,26.88,0,0,0,15,38.19a29.88,29.88,0,0,0,21.64-1,9.18,9.18,0,0,0,3.16-2.14l.85-.86,1.45-.07c1.39-.06,2.16,0,2.06.17a21.3,21.3,0,0,1-2.84,1.2,8.14,8.14,0,0,0-1.48.83,29.59,29.59,0,0,1-17.63,4Z"/></g><g class="bi"><path class="bj" d="M23.29,31.72A6.35,6.35,0,0,1,21,30.6c.87.73,4.5.67,11.6.65l10.77,0,.28-.26a6.42,6.42,0,0,0,.75-1.27,11,11,0,0,0,0-9.86,13,13,0,0,0-2.54-3.58,17,17,0,0,0-5.86-4.11c-1.82-.8-1.87-.63-1.8-1.13a2.38,2.38,0,0,0-.12-.48c-.24-.86-.13-.67,2,.46a21,21,0,0,1,6.29,4.45c4,4.2,5,9.62,2.68,14.49a3.21,3.21,0,0,1-1.82,1.78c-.32.1-2.2.11-9.71.1-5.39,0-6.1,0-10.32-.09Z"/></g><path class="bk" d="M23.29,31.45a4.79,4.79,0,0,1-2.62-1.1c.86.72,4.87.64,12,.63l10.77,0,.28-.26a5.83,5.83,0,0,0,.75-1.25,10.73,10.73,0,0,0,0-9.73,13,13,0,0,0-2.54-3.54,16.83,16.83,0,0,0-5.86-4.05c-1.82-.79-1.87-.62-1.8-1.12a2.49,2.49,0,0,0-.12-.47c-.24-.85,0-.22,2.14.89a19,19,0,0,1,5.95,4.17c4,4.15,5.26,9.28,2.91,14.08a3.22,3.22,0,0,1-1.82,1.77c-.32.09-2.2.1-9.71.09-5.39,0-6.1,0-10.32-.08Z"/><g class="bl"><path class="bm" d="M44.46,19.83a13,13,0,0,0-2.54-3.58,17,17,0,0,0-5.86-4.11c-1.82-.8-1.87-.63-1.8-1.13a2.38,2.38,0,0,0-.12-.48c-.24-.86-.27-.39,1.89.74,2.9,1.51,4.6,2.26,6.43,4.17,1.55,2.12.52,1,2,4.39Z"/></g><g class="bn"><path class="bo" d="M39.84,35.08l.85-.86,1.45-.07c1.39-.06,2.16,0,2.06.17-1,1.11-5.3,1.89-4.36.76Z"/></g><g class="bp"><path class="bq" d="M22.18,40.39c-10-.87-17.81-6.36-19-13.7-.75-4.6,1.22-9,5.57-12.6a20.77,20.77,0,0,1,3.74-2.54A22.56,22.56,0,0,1,24,8.38a30.2,30.2,0,0,1,6.28.39c1.76.3,2,.38,2.46.87s.45.52.45.81c0,.45-.5,1.14-3.11,4.33a112.91,112.91,0,0,0-7.49,10.09c-2.06,3.08-2.34,3.77-2,4.87a2,2,0,0,0,1.71,1.34c.95.18,2,.14,9.18.13,3.77,0,11.76,0,12,0a1,1,0,0,0,.73-.33c.74-.95,1-1.35,0,.39a2.83,2.83,0,0,1-1.76,1.46c-.81.17-22.26.09-23.44-.09a5,5,0,0,1-2.42-.92,2.21,2.21,0,0,1-.92-1,1.75,1.75,0,0,1-.22-1.26,5.3,5.3,0,0,1,1-2.41c.22-.32.56-.86.75-1.2S18.21,24.2,19,23a79.54,79.54,0,0,1,5.87-8,21.78,21.78,0,0,0,2.48-3.4,1.76,1.76,0,0,0-1.11-1.91,20,20,0,0,0-4.93.07c-9.11,1.18-16,6.43-17.14,13.09a17,17,0,0,0,0,4.5,13.06,13.06,0,0,0,5.66,8.21A26.88,26.88,0,0,0,15,38.18a29.91,29.91,0,0,0,21.65-1,9.18,9.18,0,0,0,3.16-2.14l.84-.86,1.45-.07c1.39-.06,2.16,0,2.06.17a20.73,20.73,0,0,1-2.84,1.2,8.14,8.14,0,0,0-1.48.83,29.59,29.59,0,0,1-17.63,4Z"/></g></svg>