<?xml version="1.0" encoding="utf-8"?>
<!-- Generator: Adobe Illustrator 22.1.0, SVG Export Plug-In . SVG Version: 6.00 Build 0)  -->
<svg version="1.1" id="Layer_1" xmlns="http://www.w3.org/2000/svg" xmlns:xlink="http://www.w3.org/1999/xlink" x="0px" y="0px"
	 viewBox="0 0 50 50" style="enable-background:new 0 0 50 50;" xml:space="preserve">
<style type="text/css">
	.st0{fill:#231F20;}
</style>
<title>maserati</title>
<path class="st0" d="M36.8,35.3h-2.9c0,1.7,1.1,2.5,2.9,2.1V35.3z M36.9,29.1c0.1-3.4,0.6-6.8,1.5-10.1c1.4-4.7,4.2-7.5,4-7.8
	s-2.5,0.2-4.2,1.4s-3.7,3.4-3.5,3.6s0.7-0.4,1.8-0.9c0.5-0.3,1.1-0.4,1.7-0.4c-1.3,2.2-2.3,4.5-3,6.9c-0.6,2.4-1,4.8-1.3,7.2
	L36.9,29.1z M13.1,29.1c-0.1-3.4-0.6-6.8-1.5-10.1c-1.4-4.7-4.2-7.5-4-7.8s2.5,0.2,4.2,1.4s3.7,3.4,3.6,3.6s-0.7-0.4-1.8-0.9
	c-0.5-0.3-1.1-0.4-1.7-0.4c1.3,2.2,2.3,4.5,3,6.9c0.6,2.4,1,4.8,1.3,7.2L13.1,29.1z M23.3,8.1c1.1-2.2,1.4-5.6,1.7-5.7
	s0.5,3.4,1.6,5.7s3.4,3.9,3.2,4.1s-1.4-0.4-2.1-0.7l-1.9-0.9c-0.2,3.5,0.1,7,0.9,10.4c0.9,2.9,2.2,5.6,3.9,8.1h-3.3l-0.3-0.5
	c-1-1.7-1.7-3.4-2.1-5.3c-0.5,1.8-1.2,3.6-2.1,5.3l-0.3,0.5h-3.3c1.7-2.5,3-5.2,3.9-8.1c0.8-3.4,1.1-6.9,0.9-10.4l-1.9,0.9
	c-0.6,0.3-1.9,1-2.1,0.7S22.2,10.2,23.3,8.1L23.3,8.1z M13.2,35.3h2.9c0,1.7-1.1,2.5-2.9,2.1V35.3z M29.1,36.6
	c-0.8,0.9-1.3,2.1-1.3,3.4h-5.7c0-1.2-0.5-2.4-1.3-3.4c-0.6-0.5-1.3-0.8-2-1c-0.7-0.2-0.7-0.2-0.7-0.3h13.8c0,0,0,0.1-0.7,0.3
	C30.4,35.8,29.7,36.1,29.1,36.6L29.1,36.6z M11.8,29.8h26.3v1H11.8V29.8z M11.8,33.5h26.3v1H11.9L11.8,33.5L11.8,33.5z M13.1,31.6
	h23.8v1H13.1L13.1,31.6L13.1,31.6z M22,43.5h6v4.1h-6V43.5z M21,40.8h8v2h-8V40.8z"/>
</svg>
