<?xml version="1.0" encoding="utf-8"?>
<!-- Generator: Adobe Illustrator 22.1.0, SVG Export Plug-In . SVG Version: 6.00 Build 0)  -->
<svg version="1.1" id="Layer_1" xmlns="http://www.w3.org/2000/svg" xmlns:xlink="http://www.w3.org/1999/xlink" x="0px" y="0px"
	 viewBox="0 0 50 50" style="enable-background:new 0 0 50 50;" xml:space="preserve">
<style type="text/css">
	.st0{fill:#FFFFFF;}
	.st1{fill:url(#SVGID_1_);}
	.st2{fill:url(#SVGID_2_);}
	.st3{fill:url(#SVGID_3_);}
	.st4{fill:url(#SVGID_4_);}
	.st5{opacity:0.74;fill:url(#SVGID_5_);enable-background:new    ;}
	.st6{fill:url(#SVGID_6_);}
	.st7{fill:url(#SVGID_7_);}
	.st8{fill:url(#SVGID_8_);}
	.st9{opacity:0.9;fill:url(#SVGID_9_);enable-background:new    ;}
	.st10{fill:#241D1E;}
	.st11{fill:#727172;}
	.st12{fill:#5C5B5B;}
	.st13{opacity:0.2;fill:url(#SVGID_10_);enable-background:new    ;}
	.st14{opacity:0.2;fill:url(#SVGID_11_);fill-opacity:0.42;enable-background:new    ;}
	.st15{opacity:0.5;fill:#C5C5C4;enable-background:new    ;}
	.st16{fill:none;}
	.st17{fill:url(#SVGID_12_);}
	.st18{opacity:0.9;fill:url(#SVGID_13_);enable-background:new    ;}
	.st19{fill:url(#SVGID_14_);}
	.st20{fill:url(#SVGID_15_);}
	.st21{fill:url(#SVGID_16_);}
	.st22{fill:url(#SVGID_17_);}
	.st23{fill:url(#SVGID_18_);}
	.st24{fill:#454242;}
	.st25{fill:#C5C5C4;}
	.st26{fill:url(#SVGID_19_);fill-opacity:0.8;}
	.st27{fill:url(#SVGID_20_);}
	.st28{fill:#DADBDA;}
	.st29{fill:url(#SVGID_21_);}
	.st30{fill:url(#SVGID_22_);}
	.st31{fill:url(#SVGID_23_);}
	.st32{fill:url(#SVGID_24_);}
</style>
<title>mazda</title>
<path class="st0" d="M25.1,44c-7.8,0-14.2-1.8-18-5s-5.6-7.7-5.8-14.1C1,19,3.4,13.4,7.5,10.3C11.4,7.3,17,6,25,6
	c8.2,0,13.8,1.4,17.6,4.4c4,3.2,6.4,8.9,6.3,14.6c-0.2,6.4-2.1,10.8-5.9,14S32.6,44,25.1,44z M25.1,8.7c-2,0-3.9,0.2-5.9,0.5
	c-2.2,0.3-4.3,1.2-6.1,2.4C8,15,7,20.6,7,24.8c0,6.2,2.1,10.8,6.2,13.6c2.6,1.7,6.2,2.5,11.9,2.5c5.2,0,8.5-0.7,11.5-2.4
	s6.5-5.5,6.5-13.6c0-6-2-10.4-6-13.1c-1.8-1.3-4-2.1-6.2-2.4C29,8.8,27,8.7,25.1,8.7L25.1,8.7z"/>
<path class="st0" d="M25.1,33.6c-0.4,0-0.5-0.2-0.8-1c-0.1-0.3-0.4-0.9-0.7-1.5c-1.4-2.8-3.8-5-6.7-6.2c-0.8-0.3-1.9-0.7-3-1l0,0
	c-2.3-0.6-4.5-1.4-6.7-2.5l-0.1-1.2v-3l2-1.4c0.8,0.5,1.6,0.9,2.5,1.3l2,0.9l0,0c2.2,0.8,4.3,1.9,6.3,3c1.9,1.4,3.5,3.2,4.7,5.3
	c0.2,0.3,0.3,0.4,0.4,0.4s0.2-0.1,0.4-0.4c1.2-2.1,2.8-4,4.7-5.4c2-1.2,4-2.1,6.2-2.9l0,0c1-0.4,2-0.8,2.7-1.1
	c0.7-0.3,1.4-0.7,2-1.1l1.9,1.2v3.1l-0.1,1.1c-1.6,1-3.4,1.6-5.2,2h-0.2c-5.8,1.5-9.5,4.1-10.9,7.8c-0.2,0.4-0.3,0.8-0.4,1.1v0.1
	C25.8,33.1,25.6,33.6,25.1,33.6z"/>
<linearGradient id="SVGID_1_" gradientUnits="userSpaceOnUse" x1="20.3786" y1="44.06" x2="29.907" y2="8.516" gradientTransform="matrix(1 0 0 -1 0 51)">
	<stop  offset="0.21" style="stop-color:#241D1E"/>
	<stop  offset="0.31" style="stop-color:#2E2829"/>
	<stop  offset="0.49" style="stop-color:#4A4747"/>
	<stop  offset="0.59" style="stop-color:#5C5B5B"/>
	<stop  offset="0.8" style="stop-color:#B2B2B2"/>
	<stop  offset="1" style="stop-color:#FFFFFF"/>
</linearGradient>
<path class="st1" d="M19.6,40.5c-5-0.7-12.7-3.3-12.7-16c0-7.2,3.2-15.9,18.1-15.9c13.5,0,18,7.2,18,15.9c0,11.9-6.9,15-12.6,16
	C26.9,41,23.2,41,19.6,40.5z M46.4,24.6C46.4,15,41.8,7,25.1,7C7.6,7,3.9,16.7,3.9,24.6c0,13.4,9,16.6,15.5,17.4
	c3.7,0.4,7.4,0.4,11.1,0C37,41.3,46.4,38,46.4,24.6z"/>
<linearGradient id="SVGID_2_" gradientUnits="userSpaceOnUse" x1="20.3786" y1="44.06" x2="29.907" y2="8.516" gradientTransform="matrix(1 0 0 -1 0 51)">
	<stop  offset="0" style="stop-color:#241D1E"/>
	<stop  offset="0.56" style="stop-color:#454242"/>
	<stop  offset="0.57" style="stop-color:#464343"/>
	<stop  offset="0.65" style="stop-color:#565555"/>
	<stop  offset="0.71" style="stop-color:#5C5B5B"/>
	<stop  offset="0.84" style="stop-color:#FFFFFF"/>
	<stop  offset="0.89" style="stop-color:#FFFFFF"/>
	<stop  offset="1" style="stop-color:#9CA2AB"/>
</linearGradient>
<path class="st2" d="M19.6,40.5c-5-0.7-12.7-3.3-12.7-16c0-7.2,3.2-15.9,18.1-15.9c13.5,0,18,7.2,18,15.9c0,11.9-6.9,15-12.6,16
	C26.9,41,23.2,41,19.6,40.5z M46.4,24.6C46.4,15,41.8,7,25.1,7C7.6,7,3.9,16.7,3.9,24.6c0,13.4,9,16.6,15.5,17.4
	c3.7,0.4,7.4,0.4,11.1,0C37,41.3,46.4,38,46.4,24.6z"/>
<linearGradient id="SVGID_3_" gradientUnits="userSpaceOnUse" x1="6.1926" y1="45.0739" x2="15.4517" y2="10.5375" gradientTransform="matrix(-1 0 0 -1 26.33 51)">
	<stop  offset="0" style="stop-color:#353131;stop-opacity:0"/>
	<stop  offset="0.61" style="stop-color:#353131"/>
	<stop  offset="0.64" style="stop-color:#383434"/>
	<stop  offset="0.67" style="stop-color:#413E3E"/>
	<stop  offset="0.7" style="stop-color:#514F4F"/>
	<stop  offset="0.71" style="stop-color:#5C5B5B"/>
	<stop  offset="0.87" style="stop-color:#EEEEEE"/>
	<stop  offset="1" style="stop-color:#DADBDA;stop-opacity:0"/>
</linearGradient>
<path class="st3" d="M25.1,7.3v1.2c-13.6,0-18.2,7.2-18.2,16.3c0,8.3,3.6,12.5,7.7,14.4c4.6,2.1,9.9,1.8,7.4,2.7
	c-1,0.5-2.2,0.6-3.3,0.4c-6.5-0.8-14.7-3.9-14.7-17.4C3.9,15.3,8.5,7.3,25.1,7.3z"/>
<linearGradient id="SVGID_4_" gradientUnits="userSpaceOnUse" x1="31.9089" y1="7.0514" x2="18.0296" y2="45.1693" gradientTransform="matrix(1 0 0 -1 0 51)">
	<stop  offset="4.000000e-02" style="stop-color:#414040"/>
	<stop  offset="0.19" style="stop-color:#454242"/>
	<stop  offset="0.37" style="stop-color:#8C8A8A"/>
	<stop  offset="0.54" style="stop-color:#CAC9C9"/>
	<stop  offset="0.66" style="stop-color:#F0F0F0"/>
	<stop  offset="0.73" style="stop-color:#FFFFFF"/>
	<stop  offset="1" style="stop-color:#767D82"/>
</linearGradient>
<path class="st4" d="M48.7,25c0,5.1-1.7,10.5-5.9,13.9C38.5,42.5,31.7,44,25,44c-7.2,0-13.4-1.4-18.2-5.3C3.1,35.5,1.3,29.9,1.3,25
	c0-5.5,1.7-11.2,6.3-14.7C11.7,7.2,19.1,6,25,6c6.7,0,13.2,1.1,17.5,4.6S48.7,19.7,48.7,25z M46.3,24.8C46.3,15.9,41,7.2,25,7.2
	C7.5,7.2,3.8,16.9,3.8,24.9c0,13.6,9.3,16.7,15.9,17.4c3.6,0.4,7.3,0.4,10.9,0C34.4,41.8,46.3,39.2,46.3,24.8L46.3,24.8z"/>
<linearGradient id="SVGID_5_" gradientUnits="userSpaceOnUse" x1="8.1767" y1="27.8173" x2="13.3515" y2="45.8539" gradientTransform="matrix(1 0 0 -1 0 51)">
	<stop  offset="0" style="stop-color:#FFFFFF;stop-opacity:0"/>
	<stop  offset="0.11" style="stop-color:#FFFFFF;stop-opacity:0.25"/>
	<stop  offset="0.28" style="stop-color:#FFFFFF;stop-opacity:0.65"/>
	<stop  offset="0.4" style="stop-color:#FFFFFF;stop-opacity:0.9"/>
	<stop  offset="0.46" style="stop-color:#FFFFFF"/>
	<stop  offset="0.81" style="stop-color:#BCBCBC;stop-opacity:0.34"/>
	<stop  offset="1" style="stop-color:#9A9A9A;stop-opacity:0"/>
</linearGradient>
<path class="st5" d="M4.3,20.4c0.8-2.3,1.8-6.2,4.8-8.8c3.4-3,9.3-4.1,11-4.3c-0.6-0.4-1.3-0.6-2-0.8c-4.9,0.7-9,2.1-12,5.2
	c-2.4,2.7-4,6-4.6,9.6C2.6,20.9,3,20.8,4.3,20.4z"/>
<linearGradient id="SVGID_6_" gradientUnits="userSpaceOnUse" x1="10.85" y1="40.345" x2="39.29" y2="40.345" gradientTransform="matrix(1 0 0 -1 0 51)">
	<stop  offset="0" style="stop-color:#241D1E"/>
	<stop  offset="5.000000e-02" style="stop-color:#393334;stop-opacity:0.89"/>
	<stop  offset="0.18" style="stop-color:#646262;stop-opacity:0.67"/>
	<stop  offset="0.32" style="stop-color:#7E7E7D;stop-opacity:0.54"/>
	<stop  offset="0.5" style="stop-color:#868786;stop-opacity:0.5"/>
	<stop  offset="1" style="stop-color:#241D1E"/>
</linearGradient>
<path class="st6" d="M24.9,8c5.7,0,11,1,14.4,5.3c-5.2-6.4-22.7-6.6-28.4,0C14.2,9.4,19.2,8,24.9,8z"/>
<linearGradient id="SVGID_7_" gradientUnits="userSpaceOnUse" x1="-245.6431" y1="136.2025" x2="-218.8674" y2="136.2025" gradientTransform="matrix(-1 0 0 1 -207 -97)">
	<stop  offset="0" style="stop-color:#241D1E"/>
	<stop  offset="0.24" style="stop-color:#484344"/>
	<stop  offset="0.5" style="stop-color:#727172"/>
	<stop  offset="1" style="stop-color:#241D1E"/>
</linearGradient>
<path class="st7" d="M25.1,41.4c-6.2,0-9.8-0.8-12.9-3.6c-0.4-0.3-0.4-0.3,0.1,0c1,0.7,2,1.3,3.2,1.8c3.1,1,6.4,1.4,9.7,1.3
	c2.9,0.1,5.9-0.3,8.7-1.1c1.6-0.6,3.2-1.4,4.5-2.5c0.5-0.3,0.5-0.3,0.1,0C35,40.2,31,41.4,25.1,41.4z"/>
<linearGradient id="SVGID_8_" gradientUnits="userSpaceOnUse" x1="-54.1605" y1="17.3456" x2="-55.5195" y2="13.6184" gradientTransform="matrix(-1 0 0 -1 -11 51)">
	<stop  offset="0.24" style="stop-color:#241D1E;stop-opacity:0"/>
	<stop  offset="0.3" style="stop-color:#241D1E;stop-opacity:0.14"/>
	<stop  offset="0.38" style="stop-color:#241D1E;stop-opacity:0.55"/>
	<stop  offset="0.44" style="stop-color:#241D1E"/>
	<stop  offset="0.69" style="stop-color:#241D1E;stop-opacity:0.74"/>
	<stop  offset="1" style="stop-color:#241D1E;stop-opacity:0"/>
</linearGradient>
<path class="st8" d="M46.9,33.2c0.2-0.3,0.3-0.7,0.4-1c0-0.2,0,0.1-0.2,0.3c-0.1,0.2-0.2,0.4-0.4,0.6c-0.2,0.3-0.5,0.5-0.8,0.7
	c-0.4,0.2-0.8,0.4-1.5,0.8c-0.2,0.1-0.3,0.2-0.7,0.7s-0.6,0.8-0.7,0.9c-0.5,0.5-1.7,1.5-2.4,2.1s-0.4,0.6,0.5,0.3s1.9-0.7,2.5-1
	c0.3-0.1,0.6-0.4,0.9-0.6C45.5,35.8,46.3,34.6,46.9,33.2z"/>
<linearGradient id="SVGID_9_" gradientUnits="userSpaceOnUse" x1="26.5685" y1="46.2518" x2="15.0344" y2="25.4524" gradientTransform="matrix(1 0 0 -1 -11.17 51)">
	<stop  offset="0" style="stop-color:#FFFFFF;stop-opacity:0"/>
	<stop  offset="5.000000e-02" style="stop-color:#FFFFFF;stop-opacity:0.11"/>
	<stop  offset="0.16" style="stop-color:#FFFFFF;stop-opacity:0.39"/>
	<stop  offset="0.31" style="stop-color:#FFFFFF;stop-opacity:0.84"/>
	<stop  offset="0.37" style="stop-color:#FFFFFF"/>
	<stop  offset="1" style="stop-color:#9A9A9A;stop-opacity:0"/>
</linearGradient>
<path class="st9" d="M3.9,24.8c0-4.3,1.5-9.9,5.2-13.2c3.4-3,9.1-4.1,10.9-4.3c-0.6-0.4-1.3-0.6-2-0.8c-4.9,0.7-9,2.1-12,5.2
	C2.8,15,1.4,20.5,1.3,24.1C2.1,24.4,2.8,24.5,3.9,24.8z"/>
<path class="st10" d="M25,8.7L25,8.7c2,0,3.9,0.1,5.8,0.5c2.2,0.3,4.3,1.2,6.1,2.4c4,2.7,6.1,7.1,6.1,13.1c0,8.2-3.5,11.9-6.5,13.6
	s-6.2,2.4-11.5,2.4c-5.6,0-9.3-0.8-11.9-2.4C9.1,35.6,7,31,7,24.8c0-4.1,1-9.8,6.1-13.1c1.8-1.3,3.9-2.1,6.1-2.4
	C21.1,8.9,23.1,8.7,25,8.7z M25,8.6c-2,0-4,0.2-5.9,0.5c-2.2,0.3-4.3,1.2-6.1,2.5c-4.8,3.2-6.1,8.5-6.1,13.2
	c0,6.4,2.2,10.9,6.3,13.6c3,2,7.2,2.5,11.9,2.5c4.8,0,8.3-0.6,11.5-2.4c3.8-2.2,6.5-6.4,6.5-13.7c0-5.5-1.8-10.2-6.1-13.1
	c-1.8-1.3-3.9-2.1-6.1-2.4C29,8.8,27,8.6,25,8.6z"/>
<path class="st11" d="M25,8.6c2,0,3.9,0.2,5.9,0.5c2.2,0.3,4.3,1.2,6.1,2.4c4.3,2.9,6.1,7.6,6.1,13.1c0,7.2-2.8,11.5-6.5,13.7
	c-3.2,1.9-6.7,2.4-11.5,2.4c-4.7,0-8.9-0.5-11.9-2.5C9,35.7,6.9,31.2,6.9,24.8c0-4.7,1.4-10,6.1-13.2c1.8-1.3,3.9-2.1,6.1-2.4
	C21.1,8.8,23.1,8.6,25,8.6z M25,8.5L25,8.5c-2,0-4,0.2-5.9,0.5c-2.2,0.4-4.3,1.2-6.1,2.5c-5.1,3.4-6.2,9.1-6.2,13.2
	c0,6.3,2.1,10.9,6.3,13.7c2.6,1.7,6.3,2.5,12,2.5c5.3,0,8.5-0.7,11.6-2.4s6.5-5.5,6.5-13.8c0-6-2-10.5-6.1-13.2
	c-1.8-1.3-4-2.1-6.2-2.5C29,8.7,27,8.5,25,8.5z"/>
<path class="st10" d="M25,6c6.9,0,13.3,1,17.5,4.4s6.4,9.4,6.2,14.6c-0.2,5.9-1.8,10.6-5.9,14c-4.3,3.6-11,5-17.7,5s-13.6-1.3-18-5
	c-3.9-3.3-5.6-8.2-5.8-14.1s2.1-11.4,6.3-14.6C12.2,6.8,18.8,6,25,6z M25,6c-8,0-13.6,1.3-17.5,4.3C3.4,13.4,1,19,1.2,24.9
	c0.2,6.4,2.1,11,5.9,14.1s10.2,5,18,5c7.5,0,13.9-1.8,17.8-5s5.8-7.6,5.9-14c0.2-5.7-2.3-11.5-6.3-14.6C38.8,7.3,33.2,6,25,6z"/>
<path class="st12" d="M25,6.1c8.2,0,13.8,1.4,17.5,4.3c3.9,3.2,6.4,8.8,6.2,14.5c-0.2,6.3-2.1,10.8-5.9,13.9s-10.2,5-17.7,5
	c-7.7,0-14.1-1.8-17.9-5s-5.6-7.7-5.8-14C1.2,19,3.6,13.5,7.7,10.4C11.5,7.5,17,6.1,25,6.1z M25,6c-6.1,0-12.8,0.8-17.4,4.3
	c-4.2,3.2-6.5,8.8-6.3,14.6S3.2,35.7,7.1,39c4.3,3.6,11.2,5,18,5s13.4-1.4,17.7-5c4.1-3.4,5.8-8.1,5.9-14c0.2-5.2-2-11.2-6.2-14.6
	S31.9,6,25,6z"/>
<linearGradient id="SVGID_10_" gradientUnits="userSpaceOnUse" x1="37.25" y1="40" x2="44.06" y2="40" gradientTransform="matrix(1 0 0 -1 0 51)">
	<stop  offset="0" style="stop-color:#241D1E"/>
	<stop  offset="7.000000e-02" style="stop-color:#241D1E;stop-opacity:0.83"/>
	<stop  offset="0.34" style="stop-color:#241D1E;stop-opacity:0.37"/>
	<stop  offset="0.63" style="stop-color:#241D1E;stop-opacity:9.000000e-02"/>
	<stop  offset="1" style="stop-color:#241D1E;stop-opacity:0"/>
</linearGradient>
<path class="st13" d="M37.2,9.4c2,0.3,4,0.9,5.8,1.7c1.2,0.7,1,0.7,1,0.7l-2.2,0.8C40.6,11.3,39,10.2,37.2,9.4z"/>
<linearGradient id="SVGID_11_" gradientUnits="userSpaceOnUse" x1="-134.8761" y1="41.8029" x2="-134.8761" y2="37.3929" gradientTransform="matrix(-1 0 0 -1 -126 51)">
	<stop  offset="0" style="stop-color:#241D1E"/>
	<stop  offset="0.33" style="stop-color:#241D1E;stop-opacity:0.45"/>
	<stop  offset="0.67" style="stop-color:#241D1E;stop-opacity:0.11"/>
	<stop  offset="1" style="stop-color:#241D1E;stop-opacity:0"/>
</linearGradient>
<path class="st14" d="M12.6,9.3c-2.1,0.5-5,1.2-6.2,2c-0.7,0.7-1.4,1.5-2,2.3l2.1-1.8c1-0.3,1.1-0.3,1.9-0.5
	c0.8-0.1,1.6-0.4,2.3-0.9C11.6,9.8,14.7,8.8,12.6,9.3z"/>
<path class="st0" d="M25.1,42.7c-2.3,0-4.6-0.2-6.8-0.5c-5.5-0.7-14.6-3.9-14.6-17.4c0-7.9,3.8-13.9,10.5-16.3
	c3.5-1.1,7.2-1.6,10.9-1.5c7.9,0,13.5,1.9,17.2,5.9c2.8,3,4.1,6.9,4.1,11.9c0,12.7-8.4,16.6-15.4,17.5C29,42.5,27.1,42.7,25.1,42.7z
	 M25.1,7.3c-3.7-0.1-7.3,0.4-10.9,1.6C7.7,11.2,4,17,4,24.8C4,37.3,11.8,41,18.3,41.9c4.2,0.7,8.4,0.7,12.6,0.1
	c6.9-0.9,15.1-4.7,15.1-17.2c0-5-1.3-8.8-4-11.7C38.4,9.2,32.9,7.3,25.1,7.3L25.1,7.3z"/>
<path class="st15" d="M25.1,42.7L25.1,42.7c-2.3,0-4.6-0.2-6.9-0.5c-3.6-0.4-7-1.8-9.7-4.2C5.3,35,3.6,30.6,3.6,24.8
	c0-8,3.8-13.9,10.5-16.3c3.6-1.1,7.3-1.7,11-1.6c7.9,0,13.5,1.9,17.2,5.9c2.8,3,4.1,6.9,4.1,12c0,12.7-8.5,16.6-15.5,17.5
	C29,42.6,27.1,42.7,25.1,42.7z M25.1,7c-3.7-0.1-7.4,0.4-10.9,1.6C7.5,11,3.7,16.9,3.7,24.8C3.7,30.5,5.4,35,8.6,38
	c2.7,2.4,6.1,3.8,9.6,4.2c2.3,0.3,4.5,0.5,6.8,0.5l0,0c2,0,3.9-0.2,5.9-0.4c7-1,15.4-4.7,15.4-17.4c0-5-1.3-8.9-4.1-11.9
	C38.6,9,33,7,25.1,7z"/>
<path class="st16" d="M25.1,7.3c-3.7-0.1-7.3,0.4-10.8,1.6C7.7,11.2,4,17,4,24.8C4,37.3,11.8,41,18.3,41.9c2.3,0.3,4.5,0.5,6.8,0.5
	l0,0c1.9,0,3.9-0.1,5.8-0.4c6.9-0.9,15.1-4.7,15.1-17.2c0-5-1.3-8.8-4-11.7C38.4,9.2,32.9,7.3,25.1,7.3z"/>
<linearGradient id="SVGID_12_" gradientUnits="userSpaceOnUse" x1="310.014" y1="15.7193" x2="308.094" y2="10.4393" gradientTransform="matrix(1 0 0 -1 -299.03 51)">
	<stop  offset="5.000000e-02" style="stop-color:#241D1E;stop-opacity:0"/>
	<stop  offset="8.000000e-02" style="stop-color:#2A2425;stop-opacity:0.19"/>
	<stop  offset="0.2" style="stop-color:#3E3A3A;stop-opacity:0.77"/>
	<stop  offset="0.26" style="stop-color:#454242"/>
	<stop  offset="0.34" style="stop-color:#403D3D;stop-opacity:0.98"/>
	<stop  offset="0.45" style="stop-color:#332E2F;stop-opacity:0.92"/>
	<stop  offset="0.53" style="stop-color:#241D1E;stop-opacity:0.85"/>
	<stop  offset="0.6" style="stop-color:#292324;stop-opacity:0.84"/>
	<stop  offset="0.66" style="stop-color:#393435;stop-opacity:0.81"/>
	<stop  offset="0.72" style="stop-color:#545252;stop-opacity:0.76"/>
	<stop  offset="0.74" style="stop-color:#5C5B5B;stop-opacity:0.74"/>
	<stop  offset="0.75" style="stop-color:#555353;stop-opacity:0.64"/>
	<stop  offset="0.77" style="stop-color:#433F40;stop-opacity:0.41"/>
	<stop  offset="0.8" style="stop-color:#353030;stop-opacity:0.22"/>
	<stop  offset="0.83" style="stop-color:#2B2526;stop-opacity:9.000000e-02"/>
	<stop  offset="0.87" style="stop-color:#261F20;stop-opacity:2.000000e-02"/>
	<stop  offset="1" style="stop-color:#241D1E;stop-opacity:0"/>
</linearGradient>
<path class="st17" d="M2.9,32.6c0.1,0.4,0.4,0.8,0.8,1c0.4,0.2,0.8,0.3,1.2,0.5c0.7,0.3,1.2,1.2,1.7,1.8c0.8,0.9,1.6,1.7,2.6,2.5
	c1.4,1.1,2.9,2,4.5,2.7c0.1,0,4.2,1.7,3.7,2.1c-1.4-0.3-2.7-0.6-4-1c-3.5-1-6.7-3.1-8.8-6.1c-0.7-1-1.2-2.1-1.7-3.3
	C2.7,32.2,2.8,32.2,2.9,32.6z"/>
<linearGradient id="SVGID_13_" gradientUnits="userSpaceOnUse" x1="-199.4247" y1="29.1399" x2="-194.6547" y2="45.77" gradientTransform="matrix(-1 0 0 -1 -158 51)">
	<stop  offset="0" style="stop-color:#FFFFFF;stop-opacity:0"/>
	<stop  offset="0.13" style="stop-color:#DCDCDC;stop-opacity:0.25"/>
	<stop  offset="0.4" style="stop-color:#858485;stop-opacity:0.87"/>
	<stop  offset="0.46" style="stop-color:#727172"/>
	<stop  offset="0.47" style="stop-color:#727172"/>
	<stop  offset="0.57" style="stop-color:#737373;stop-opacity:0.96"/>
	<stop  offset="0.67" style="stop-color:#787778;stop-opacity:0.85"/>
	<stop  offset="0.77" style="stop-color:#7F7F7F;stop-opacity:0.67"/>
	<stop  offset="0.87" style="stop-color:#898989;stop-opacity:0.41"/>
	<stop  offset="0.98" style="stop-color:#979697;stop-opacity:9.000000e-02"/>
	<stop  offset="1" style="stop-color:#9A9A9A;stop-opacity:0"/>
</linearGradient>
<path class="st18" d="M45.8,20.5C45,18.1,44,14.3,41,11.6c-3.4-3-9.3-4.1-11-4.3c0.6-0.4,1.3-0.6,2-0.8c4.9,0.7,9,2.1,12,5.2
	c2.1,2.3,3.5,5.1,4.1,8.2C47.2,20.2,47,20.2,45.8,20.5z"/>
<linearGradient id="SVGID_14_" gradientUnits="userSpaceOnUse" x1="6.64" y1="24.845" x2="43.82" y2="24.845" gradientTransform="matrix(1 0 0 -1 0 51)">
	<stop  offset="0" style="stop-color:#241D1E"/>
	<stop  offset="6.000000e-02" style="stop-color:#433F3F"/>
	<stop  offset="0.13" style="stop-color:#605D5E"/>
	<stop  offset="0.21" style="stop-color:#767575"/>
	<stop  offset="0.29" style="stop-color:#868686"/>
	<stop  offset="0.38" style="stop-color:#8F9090"/>
	<stop  offset="0.48" style="stop-color:#929393"/>
	<stop  offset="0.5" style="stop-color:#FFFFFF;stop-opacity:0.77"/>
	<stop  offset="0.5" style="stop-color:#241D1E;stop-opacity:0.9"/>
	<stop  offset="0.51" style="stop-color:#2C2626;stop-opacity:0.91"/>
	<stop  offset="0.53" style="stop-color:#413D3D;stop-opacity:0.95"/>
	<stop  offset="0.55" style="stop-color:#5C5B5B"/>
	<stop  offset="0.55" style="stop-color:#5D5C5C"/>
	<stop  offset="0.56" style="stop-color:#646262"/>
	<stop  offset="0.59" style="stop-color:#666464"/>
	<stop  offset="1" style="stop-color:#241D1E"/>
</linearGradient>
<path class="st19" d="M31.8,21.9L31.8,21.9c-1.2,0.6-6.6,6.5-6.8,6.6c-2.1-1.5-4.1-3.1-6-4.8C19,23.6,9.1,20,9.1,20l-2.4-0.2
	c0.2,0.5,0.4,1,0.8,1.5c2.5,1.6,7.4,2.7,9.9,3.7c2.7,1.3,4.9,3.4,6.3,6c0.8,1.3,0.9,2.5,1.4,2.5s0.8-1.2,1.2-2
	c1.7-4,3.9-6.4,11.3-8.3c4.6-1.2,5.3-2.1,5.3-2.1l1-2.3C43.9,18.8,33.2,21.3,31.8,21.9z"/>
<linearGradient id="SVGID_15_" gradientUnits="userSpaceOnUse" x1="-440.3417" y1="25.7074" x2="-456.6517" y2="28.8774" gradientTransform="matrix(-1 0 0 -1 -433.29 51)">
	<stop  offset="0" style="stop-color:#241D1E"/>
	<stop  offset="0.14" style="stop-color:#2D2728"/>
	<stop  offset="0.7" style="stop-color:#4F4D4D"/>
	<stop  offset="1" style="stop-color:#5C5B5B"/>
</linearGradient>
<path class="st20" d="M6.2,19.1c0.3,0.7,0.7,1.5,1.1,2.2c0.8,0.4,1.7,0.8,2.6,1.1c3.3,1.1,7.5,1.7,8.7,2.3c4.4,2.1,5.4,4,6.4,5.7
	c-0.5-1.5-1.4-2.9-2.4-4.1c-2.2-2.8-3.7-3.5-6.9-4.6c-1.1-0.4-2.6-1-4.5-1.7c-2-0.8-3.9-1.8-5.7-3C5.4,17,5.9,18.3,6.2,19.1z"/>
<linearGradient id="SVGID_16_" gradientUnits="userSpaceOnUse" x1="25.06" y1="29.37" x2="45.01" y2="29.37" gradientTransform="matrix(1 0 0 -1 0 51)">
	<stop  offset="0" style="stop-color:#241D1E"/>
	<stop  offset="3.000000e-02" style="stop-color:#413C3E"/>
	<stop  offset="6.000000e-02" style="stop-color:#626065"/>
	<stop  offset="0.1" style="stop-color:#808087"/>
	<stop  offset="0.14" style="stop-color:#999BA3"/>
	<stop  offset="0.19" style="stop-color:#ADB1BA"/>
	<stop  offset="0.25" style="stop-color:#BDC2CC"/>
	<stop  offset="0.31" style="stop-color:#C8CED9"/>
	<stop  offset="0.4" style="stop-color:#CED5E0"/>
	<stop  offset="0.61" style="stop-color:#D0D7E2"/>
	<stop  offset="0.82" style="stop-color:#FFFFFF"/>
</linearGradient>
<path class="st21" d="M27.8,23.1c0.9-1.1,2-2,3.2-2.6c3.1-1.8,7.8-2.8,11-5.2c1-0.7,1.9-1.5,2.7-2.4c0.2,0.5,0.2,1.1,0.3,1.6
	c0,0.5,0,1,0,1.6c0,0.3-0.1,0.7-0.2,1c-1.7,1.1-3.5,2.1-5.4,2.9c-1.9,0.7-3.7,1.3-4.8,1.7c-3.7,1.3-6.8,3.9-8.6,7.5
	c-0.2,0.5-0.5,1-0.9,1.5c0,0,0-3.1,0-3.6c0,0,0.1,0,0.3-0.4C26.1,25.3,26.9,24.2,27.8,23.1z"/>
<linearGradient id="SVGID_17_" gradientUnits="userSpaceOnUse" x1="33.4258" y1="30.5287" x2="36.3458" y2="20.9587" gradientTransform="matrix(1 0 0 -1 0 51)">
	<stop  offset="0" style="stop-color:#241D1E"/>
	<stop  offset="3.000000e-02" style="stop-color:#241D1E"/>
	<stop  offset="0.34" style="stop-color:#241D1E"/>
	<stop  offset="0.36" style="stop-color:#292223"/>
	<stop  offset="0.5" style="stop-color:#494647"/>
	<stop  offset="0.57" style="stop-color:#555454"/>
	<stop  offset="0.81" style="stop-color:#241D1E"/>
</linearGradient>
<path class="st22" d="M44.6,17c-1.8,1.1-3.8,2.1-5.8,2.8c-1.9,0.7-3,1-4.1,1.4c-3,0.9-5.5,2.8-7.4,5.2c-1,1.1-1.7,2.4-2.2,3.8
	c0,0.5,0,3.1,0,3.1c0.1,0,0.2-0.1,0.3-0.2c0-0.5,0-1,0-1.5c0-0.4,0.1-0.8,0.3-1.1c0.2-0.4,0.5-0.8,0.6-1.1c1.3-2,3.8-3.6,6.2-4.7
	c2.4-0.9,4.9-1.7,7.5-2.4c1-0.3,1.9-0.7,2.8-1.2c0.4-0.6,0.7-1.2,1-1.8C44.1,18.5,44.7,17,44.6,17z"/>
<linearGradient id="SVGID_18_" gradientUnits="userSpaceOnUse" x1="-458.35" y1="29.4559" x2="-438.45" y2="29.4559" gradientTransform="matrix(-1 0 0 -1 -433.29 51)">
	<stop  offset="0" style="stop-color:#241D1E"/>
	<stop  offset="4.000000e-02" style="stop-color:#423F42"/>
	<stop  offset="9.000000e-02" style="stop-color:#5B5C61"/>
	<stop  offset="0.13" style="stop-color:#6D7177"/>
	<stop  offset="0.17" style="stop-color:#787E84"/>
	<stop  offset="0.21" style="stop-color:#7C8289"/>
	<stop  offset="0.3" style="stop-color:#9EA2A8"/>
	<stop  offset="0.42" style="stop-color:#C1C4C7"/>
	<stop  offset="0.53" style="stop-color:#DCDEE0"/>
	<stop  offset="0.65" style="stop-color:#F0F0F1"/>
	<stop  offset="0.77" style="stop-color:#FBFBFC"/>
	<stop  offset="0.89" style="stop-color:#FFFFFF"/>
	<stop  offset="1" style="stop-color:#AFAFB0"/>
</linearGradient>
<path class="st23" d="M24.6,26.5c0.2,0.4,0.4,0.3,0.5,0.3c0,0.6,0,3.5,0,3.6s-0.1-0.2-0.8-1.5c-2.9-5.2-5.8-6.3-8.4-7.2l-5.1-1.9
	C8.8,18.9,7,18,5.2,16.8c-0.1-0.1,0-0.4,0-0.9c0-0.6,0-1.1,0-1.7c0-0.5,0.1-1,0.2-1.6c0.9,1.1,2,2.1,3.2,2.8c1.5,1,3,1.8,4.6,2.5
	c1.9,0.8,3.8,1.6,5.7,2.7c1.3,0.7,2.4,1.7,3.4,2.8C23.2,24.4,24,25.4,24.6,26.5z"/>
<path class="st24" d="M20.6,21.7c1.2,1.1,2.1,2.4,2.9,3.9c0.8,1.4,1.3,2.9,1.5,4.4l-0.2-3c0,0-1.1-1.8-1.8-2.6
	C22.3,23.4,21.5,22.5,20.6,21.7z"/>
<path class="st10" d="M25.1,33.6c-0.4,0-0.5-0.2-0.8-1c-0.2-0.4-0.4-0.9-0.7-1.5c-1.4-2.8-3.8-5-6.7-6.2c-0.8-0.3-1.9-0.6-3-1
	c-2.3-0.6-4.5-1.4-6.7-2.5l0.1-0.1c2.1,1.1,4.3,2,6.6,2.5c1.1,0.3,2.2,0.7,3,1c2.9,1.2,5.4,3.4,6.8,6.3c0.3,0.7,0.6,1.2,0.7,1.5
	c0.4,0.8,0.4,0.9,0.7,0.9s0.5-0.4,0.9-1.3c0.1-0.3,0.3-0.7,0.5-1.2c1.1-2.5,3.1-4.6,5.6-5.8c1.7-0.9,3.5-1.6,5.4-2h0.2
	c1.8-0.4,3.6-1,5.2-2l0,0.1c-1.6,1-3.4,1.6-5.2,2h-0.2c-5.7,1.5-9.4,4.1-10.9,7.8c-0.2,0.5-0.3,0.9-0.5,1.2
	C25.8,33.1,25.6,33.6,25.1,33.6z"/>
<path class="st11" d="M25.1,33.5c-0.4,0-0.5-0.2-0.8-1c-0.2-0.4-0.4-0.9-0.8-1.6c-1.4-2.8-3.8-5-6.7-6.2c-0.8-0.3-1.9-0.6-3-0.9
	c-2.4-0.6-4.6-1.4-6.7-2.6l0,0c2.1,1.2,4.4,2,6.7,2.6c1.1,0.3,2.2,0.6,3,0.9c2.9,1.2,5.3,3.4,6.8,6.2c0.4,0.7,0.6,1.2,0.8,1.6
	C24.7,33.3,24.8,33.5,25.1,33.5c0.3,0,0.5-0.4,0.8-1.2c0.1-0.3,0.3-0.8,0.5-1.3c1.1-2.5,3.1-4.6,5.6-5.8c1.7-0.9,3.5-1.6,5.4-2h0.2
	c1.9-0.4,3.7-1,5.3-2l0,0c-1.7,1-3.5,1.6-5.3,2h-0.2c-5.8,1.5-9.5,4.1-10.9,7.8c-0.2,0.5-0.4,0.9-0.5,1.3
	C25.7,33.1,25.6,33.5,25.1,33.5z"/>
<path class="st0" d="M25.1,30.5c-0.1,0-0.1,0-0.1-0.1c-0.6-1.2-1.2-2.4-2-3.4c-0.7-1-1.6-1.9-2.5-2.7h0c-1.2-1.1-2.7-1.9-4.2-2.3
	l-1.6-0.6c-1.4-0.5-3.1-1.1-4-1.5l-1.2-0.5c-1.4-0.6-2.7-1.3-4-2.2c-0.1,0-0.1-0.1-0.1-0.2s0.1-0.1,0.2-0.1c1.3,0.9,2.6,1.6,4,2.2
	l1.2,0.5c0.9,0.4,2.6,1,3.9,1.5l1.6,0.6c1.6,0.5,3.1,1.3,4.3,2.4l0,0c1,0.8,1.8,1.7,2.5,2.8c0.7,1,1.3,2.1,1.9,3.1
	c0.6-1.1,1.2-2.2,2-3.2c0.9-1.2,1.9-2.3,3.1-3.3c1.3-0.9,2.7-1.6,4.2-2.1c0.9-0.3,1.6-0.6,2.3-0.8c1.4-0.4,2.7-1,4-1.6
	c1.4-0.6,2.7-1.3,4-2.1c0.1-0.1,0.2-0.1,0.2,0c0.1,0.1,0.1,0.2,0,0.2c0,0,0,0,0,0c-1.3,0.8-2.6,1.5-4,2.1c-1.3,0.6-2.6,1.1-4,1.6
	c-0.7,0.2-1.4,0.5-2.3,0.8c-1.5,0.5-2.8,1.2-4.1,2.1c-1.2,0.9-2.2,2-3.1,3.2c-0.8,1.1-1.5,2.3-2,3.5c0,0.1-0.1,0.1-0.1,0.1
	L25.1,30.5z"/>
<path class="st11" d="M25,27c-0.1,0-0.3-0.2-0.5-0.5c-1.2-2.1-2.8-3.9-4.7-5.3c-2-1.2-4.1-2.2-6.3-3.1l-2-0.9
	c-0.9-0.4-1.8-0.9-2.6-1.5v-0.1c0.8,0.5,1.7,1,2.6,1.4l2,0.9c2.2,0.9,4.3,1.9,6.4,3.1c1.9,1.4,3.5,3.2,4.7,5.3
	c0.2,0.3,0.3,0.4,0.4,0.4s0.2-0.1,0.4-0.4c1.2-2.1,2.8-4,4.8-5.4c2-1.2,4-2.1,6.2-2.9c1-0.4,2-0.8,2.7-1.1c0.7-0.4,1.5-0.8,2.1-1.2
	l0.1,0.1c-0.7,0.5-1.4,0.9-2.2,1.2c-0.7,0.3-1.7,0.7-2.7,1.1c-2.1,0.8-4.2,1.7-6.1,2.9c-2,1.4-3.6,3.2-4.7,5.4
	C25.4,26.8,25.2,27,25,27z"/>
<path class="st10" d="M25,26.9c-0.1,0-0.3-0.2-0.5-0.5c-1.2-2.1-2.8-3.9-4.7-5.3c-2-1.2-4.1-2.2-6.3-3.1l-2-0.9
	c-0.9-0.4-1.7-0.8-2.5-1.3l0.1-0.1c0.8,0.5,1.6,0.9,2.5,1.3c0.6,0.3,1.3,0.6,2,0.9c2.2,0.9,4.3,1.9,6.4,3.1c1.9,1.4,3.5,3.2,4.7,5.3
	c0.2,0.3,0.3,0.4,0.4,0.4s0.2-0.1,0.4-0.4c1.2-2.1,2.8-4,4.8-5.4c1.9-1.2,4-2.1,6.1-2.9c1-0.4,2-0.8,2.7-1.1c0.7-0.3,1.4-0.7,2-1.1
	l0.1,0.1c-0.6,0.4-1.3,0.8-2,1.1c-0.7,0.3-1.7,0.7-2.7,1.1c-2.1,0.8-4.2,1.7-6.2,2.9c-2,1.4-3.6,3.2-4.7,5.4
	C25.4,26.7,25.2,26.9,25,26.9z"/>
<polygon class="st0" points="25.1,29.9 25,27 25.1,27 "/>
<path class="st0" d="M8.4,12.6c1.6-1.7,3.6-3,5.9-3.8c3.5-1.1,7.2-1.7,10.8-1.5c7.6,0,13,1.8,16.6,5.4l0.1,0.1
	c0.1-0.1,0.2-0.2,0.3-0.2S42,12.6,42,12.5C38.3,8.8,32.8,7,25.1,7c-3.7-0.1-7.4,0.4-11,1.6c-2.3,0.8-4.3,2.1-6,3.9l0,0l0.1,0.1
	C8.3,12.6,8.3,12.6,8.4,12.6C8.4,12.6,8.4,12.6,8.4,12.6z"/>
<path class="st25" d="M41.8,12.9L41.8,12.9L41.8,12.9L41.8,12.9c-3.7-3.7-9.1-5.5-16.7-5.5c-3.7-0.1-7.4,0.4-10.9,1.5
	c-2.2,0.8-4.2,2.1-5.8,3.7c0,0,0,0.1-0.1,0.1l0,0c0,0-0.1,0-0.1-0.1H8.2H8.1L8,12.5l0,0l0,0c0,0,0,0,0-0.1c1.7-1.8,3.8-3.1,6.1-3.9
	c3.6-1.1,7.3-1.7,11-1.6c7.7,0,13.2,1.8,16.9,5.6l0,0l0.1,0.1l0.1,0.1H42l-0.1,0.1C41.9,12.8,41.8,12.9,41.8,12.9L41.8,12.9z
	 M25.1,7.2c7.6,0,13,1.8,16.7,5.4l0,0l0,0l0.1-0.1l0.1-0.1l0,0l0,0C38.2,8.8,32.8,7,25.1,7c-3.7-0.1-7.4,0.4-10.9,1.6
	c-2.3,0.8-4.3,2.1-6,3.9l0,0h0.1l0,0h0.1l0,0l0,0c1.7-1.7,3.7-2.9,5.9-3.7C17.7,7.7,21.4,7.1,25.1,7.2z"/>
<path class="st0" d="M44.5,16.8c-1.3,0.8-2.6,1.5-3.9,2.1c-1.3,0.6-2.6,1.1-4,1.6c-0.7,0.2-1.4,0.5-2.3,0.8
	c-1.5,0.5-2.9,1.2-4.2,2.1c-1.2,0.9-2.2,2-3.1,3.3c-0.8,1-1.4,2.1-1.9,3.2c-0.5-1.1-1.2-2.2-1.9-3.1c-0.7-1-1.6-1.9-2.6-2.7h-0.1
	c-1.3-1.1-2.7-1.9-4.3-2.4L14.6,21c-1.4-0.5-3.1-1.1-3.9-1.5L9.5,19c-1.4-0.6-2.7-1.3-3.9-2.1c-0.2-0.1-0.3-0.1-0.4,0.1
	c-1,2.5-1.5,5.2-1.5,7.9C3.7,30.6,5.3,35,8.6,38c2.7,2.4,6.1,3.8,9.7,4.2c2.3,0.3,4.6,0.5,6.8,0.5l0,0c2,0,3.9-0.1,5.9-0.4
	c7-0.9,15.4-4.8,15.4-17.5c0.1-2.7-0.4-5.4-1.4-7.9C44.8,16.7,44.7,16.7,44.5,16.8z M30.9,42c-1.9,0.3-3.9,0.4-5.8,0.4l0,0
	c-2.3,0-4.5-0.2-6.8-0.5C11.8,41,4,37.3,4,24.8c0-2.6,0.5-5.3,1.5-7.7c1.2,0.8,2.5,1.6,3.9,2.1l1.2,0.5c0.9,0.4,2.6,1,4,1.5l1.6,0.6
	c1.6,0.5,3,1.3,4.2,2.3h0c0.9,0.8,1.8,1.7,2.5,2.7c0.8,1.1,1.4,2.2,2,3.4c0,0.1,0.1,0.1,0.1,0.1l0,0c0.1,0,0.1,0,0.1-0.1
	c0.5-1.2,1.2-2.4,2-3.5c0.9-1.2,1.9-2.3,3.1-3.2c1.3-0.9,2.6-1.6,4.1-2.1c0.9-0.3,1.6-0.6,2.3-0.8c1.4-0.5,2.7-1,4-1.6
	c1.4-0.6,2.7-1.3,3.9-2.1c1,2.4,1.5,5.1,1.4,7.7C46.1,37.3,37.8,41,30.9,42z"/>
<linearGradient id="SVGID_19_" gradientUnits="userSpaceOnUse" x1="3.95" y1="21.295" x2="46.13" y2="21.295" gradientTransform="matrix(1 0 0 -1 0 51)">
	<stop  offset="0" style="stop-color:#5C5B5B"/>
	<stop  offset="0.1" style="stop-color:#757474"/>
	<stop  offset="0.33" style="stop-color:#B4B3B3"/>
	<stop  offset="0.57" style="stop-color:#FFFFFF"/>
	<stop  offset="0.71" style="stop-color:#FDFDFD;stop-opacity:0.99"/>
	<stop  offset="0.76" style="stop-color:#F7F7F7;stop-opacity:0.96"/>
	<stop  offset="0.81" style="stop-color:#ECECEC;stop-opacity:0.91"/>
	<stop  offset="0.85" style="stop-color:#DDDCDC;stop-opacity:0.84"/>
	<stop  offset="0.88" style="stop-color:#C9C7C7;stop-opacity:0.75"/>
	<stop  offset="0.91" style="stop-color:#B0AEAE;stop-opacity:0.64"/>
	<stop  offset="0.93" style="stop-color:#939090;stop-opacity:0.51"/>
	<stop  offset="0.96" style="stop-color:#716C6D;stop-opacity:0.35"/>
	<stop  offset="0.98" style="stop-color:#4C4647;stop-opacity:0.18"/>
	<stop  offset="1" style="stop-color:#241D1E;stop-opacity:0"/>
</linearGradient>
<path class="st26" d="M25.1,42.4L25.1,42.4c-2.3,0-4.5-0.2-6.8-0.5C11.8,41,4,37.4,4,24.8c0-2.7,0.5-5.3,1.5-7.7V17l0,0
	c1.2,0.8,2.5,1.6,3.9,2.1l1.2,0.5c0.9,0.4,2.6,1,4,1.5l1.6,0.6c1.6,0.5,3,1.3,4.2,2.3l0,0c1,0.8,1.8,1.8,2.6,2.8
	c0.8,1.1,1.4,2.2,2,3.4c0,0,0.1,0.1,0.1,0.1c0,0,0.1,0,0.1-0.1c1.1-2.6,2.9-4.9,5.1-6.7c1.3-0.9,2.6-1.6,4.1-2.1
	c0.9-0.3,1.6-0.6,2.3-0.8c1.4-0.5,2.7-1,4-1.6c1.4-0.6,2.7-1.3,3.9-2.1l0,0v0.1c1,2.5,1.5,5.1,1.4,7.7C46.1,37.3,37.9,41.1,31,42
	C29,42.3,27.1,42.4,25.1,42.4z M5.5,17.2c-1,2.4-1.5,5-1.4,7.6c0,12.5,7.7,16.1,14.3,17c2.2,0.3,4.5,0.5,6.8,0.5l0,0
	c1.9,0,3.9-0.1,5.8-0.4C37.8,41,46,37.2,46,24.8c0.1-2.6-0.4-5.2-1.4-7.6c-1.2,0.8-2.5,1.5-3.9,2c-1.3,0.6-2.6,1.1-4,1.6
	c-0.7,0.2-1.4,0.5-2.3,0.8c-1.5,0.5-2.8,1.2-4.1,2.1c-1.2,0.9-2.2,2-3.1,3.2c-0.8,1.1-1.5,2.2-2,3.5c0,0.1-0.1,0.1-0.2,0.1l0,0
	c-0.1,0-0.2,0-0.2-0.1c-0.6-1.2-1.2-2.3-2-3.4c-0.7-1-1.6-1.9-2.5-2.7l0,0c-1.2-1.1-2.7-1.9-4.2-2.3l-1.6-0.6
	c-1.4-0.5-3.1-1.1-4-1.5l-1.2-0.5C8,18.7,6.7,18,5.5,17.2z"/>
<path class="st24" d="M42.9,21.1L42.9,21.1L42.9,21.1c0,0,0.6-1.1,0.9-1.7s0.8-2.2,0.8-2.2l0,0l0,0c0,0-0.6,1.6-0.8,2.2
	S43,21,42.9,21.1C43,21.1,43,21.1,42.9,21.1z"/>
<linearGradient id="SVGID_20_" gradientUnits="userSpaceOnUse" x1="5.2717" y1="34.19" x2="5.2717" y2="38.3276" gradientTransform="matrix(1 0 0 -1 0 51)">
	<stop  offset="0" style="stop-color:#F6F8F8"/>
	<stop  offset="0.94" style="stop-color:#F6F8F8"/>
	<stop  offset="1" style="stop-color:#F6F8F8"/>
</linearGradient>
<path class="st27" d="M5.3,12.8C5.3,12.6,5.4,12.6,5.3,12.8c-0.1,0.8-0.1,1.6-0.1,2.4c0,0.5,0.1,1,0.2,1.4c-0.1,0-0.2,0-0.3,0.1
	C5,15.5,5.1,14.1,5.3,12.8z"/>
<path class="st28" d="M44.8,13C44.8,12.8,44.7,12.8,44.8,13c0.1,0.8,0.2,1.6,0.2,2.4c0,0.5,0,0.9-0.1,1.4c0.1,0.1,0.1,0.1,0.2,0.2
	C45.1,15.7,45.1,14.3,44.8,13z"/>
<linearGradient id="SVGID_21_" gradientUnits="userSpaceOnUse" x1="281.53" y1="37.135" x2="285.74" y2="37.135" gradientTransform="matrix(1 0 0 -1 -241.06 51)">
	<stop  offset="0" style="stop-color:#241D1E"/>
	<stop  offset="0.23" style="stop-color:#292323"/>
	<stop  offset="0.52" style="stop-color:#373333"/>
	<stop  offset="0.85" style="stop-color:#4F4D4D"/>
	<stop  offset="1" style="stop-color:#5C5B5B"/>
</linearGradient>
<path class="st29" d="M43,14.4l-1.9,1.5l-0.7-1.1c0.5-0.6,1.2-1.8,1.3-1.9c0.1-0.2,0.3-0.3,0.5-0.3c0.2-0.1,1-0.4,1.6-0.7l0.8,0.9
	L43,14.4z"/>
<linearGradient id="SVGID_22_" gradientUnits="userSpaceOnUse" x1="155.08" y1="37.28" x2="159.28" y2="37.28" gradientTransform="matrix(-1 0 0 -1 164.75 51)">
	<stop  offset="0" style="stop-color:#241D1E"/>
	<stop  offset="0.23" style="stop-color:#292323"/>
	<stop  offset="0.52" style="stop-color:#373333"/>
	<stop  offset="0.85" style="stop-color:#4F4D4D"/>
	<stop  offset="1" style="stop-color:#5C5B5B"/>
</linearGradient>
<path class="st30" d="M7.1,14.2L9,15.7l0.7-1.1c-0.5-0.6-1.2-1.8-1.3-1.9c-0.1-0.2-0.3-0.3-0.5-0.3c-0.2-0.1-1-0.4-1.6-0.7l-0.8,0.9
	L7.1,14.2z"/>
<linearGradient id="SVGID_23_" gradientUnits="userSpaceOnUse" x1="-13.72" y1="37.205" x2="-9.41" y2="37.205" gradientTransform="matrix(1 0 0 -1 19.13 51)">
	<stop  offset="0" style="stop-color:#AFAFB0"/>
	<stop  offset="0.11" style="stop-color:#9A9A9B"/>
	<stop  offset="0.39" style="stop-color:#6D6D6D"/>
	<stop  offset="0.53" style="stop-color:#5C5B5B"/>
</linearGradient>
<path class="st31" d="M9.7,14.6l-0.4,0.6c-0.1,0.2-0.4,0.6-0.4,0.6c-0.7-0.5-1.4-1-2-1.6c-0.6-0.5-1.1-1-1.5-1.6l0.8-0.9
	c0,0,0,0.1,0.1,0.2c0.9,0.9,1.9,1.8,3,2.6C9.4,14.7,9.6,14.7,9.7,14.6z"/>
<path class="st0" d="M43.8,11.9c-0.3,0.1-1.4,0.5-1.6,0.6c-0.1,0-0.3,0-0.4-0.1C38.2,8.8,32.7,7,25.1,7c-3.7-0.1-7.4,0.4-11,1.6
	c-2.2,0.8-4.2,2-5.8,3.7c-0.1,0.1-0.2,0.1-0.3,0.1c-0.2-0.1-1.4-0.5-1.7-0.6l0,0c0.3,0.1,1.5,0.7,1.6,0.7c0.2,0.1,0.3,0.2,0.5,0.3
	c0,0.1,1.3,1.8,1.3,1.8l0,0l-1.2-1.8c-0.1-0.1-0.1-0.3,0-0.4c1.6-1.6,3.6-2.9,5.7-3.6c3.5-1.1,7.2-1.7,10.9-1.6
	c7.5,0,12.9,1.7,16.5,5.3c0.1,0.1,0.1,0.2,0,0.3c-0.1,0.2-0.9,1.4-1.2,1.8l0,0l1.3-1.9c0.1-0.1,0.3-0.2,0.5-0.3L43.8,11.9L43.8,11.9
	z"/>
<linearGradient id="SVGID_24_" gradientUnits="userSpaceOnUse" x1="-140.17" y1="37.13" x2="-135.9" y2="37.13" gradientTransform="matrix(-1 0 0 -1 -95.44 51)">
	<stop  offset="0" style="stop-color:#9A9A9A"/>
	<stop  offset="0.13" style="stop-color:#888787"/>
	<stop  offset="0.39" style="stop-color:#686767"/>
	<stop  offset="0.53" style="stop-color:#5C5B5B"/>
</linearGradient>
<path class="st32" d="M40.5,14.8l0.7,1.1c0.7-0.5,1.4-1,2-1.5c0.6-0.5,1.1-1,1.5-1.6l-0.8-1c0,0.1,0,0.3-0.2,0.4
	c-0.9,0.9-1.9,1.8-2.9,2.5C40.7,14.8,40.6,14.8,40.5,14.8z"/>
<path class="st24" d="M7.2,21.1L7.2,21.1c0,0-0.6-1.1-0.9-1.7s-0.8-2.2-0.8-2.2s0,0,0,0l0,0c0,0,0.6,1.6,0.8,2.2S7.2,21.1,7.2,21.1
	C7.2,21.1,7.2,21.1,7.2,21.1L7.2,21.1z"/>
</svg>
