<?xml version="1.0" encoding="utf-8"?>
<!-- Generator: Adobe Illustrator 22.1.0, SVG Export Plug-In . SVG Version: 6.00 Build 0)  -->
<svg version="1.1" id="Layer_1" xmlns="http://www.w3.org/2000/svg" xmlns:xlink="http://www.w3.org/1999/xlink" x="0px" y="0px"
	 viewBox="0 0 50 50" style="enable-background:new 0 0 50 50;" xml:space="preserve">
<style type="text/css">
	.st0{fill:#353535;}
	.st1{fill:url(#SVGID_1_);}
	.st2{fill:#98999A;}
	.st3{fill:url(#SVGID_2_);}
	.st4{fill:#686969;}
	.st5{fill:#D5D6D5;}
	.st6{fill:#787878;}
	.st7{fill:url(#SVGID_3_);}
	.st8{fill:url(#SVGID_4_);}
	.st9{fill:#F7F7F7;}
</style>
<title>mercedes-benz</title>
<path class="st0" d="M32.5,7L32.5,7c-2.4-1-5-1.6-7.6-1.6l0,0C14.1,5.4,5.3,14.2,5.3,25c0,0,0,0,0,0l0,0l0,0
	c0,10.8,8.7,19.5,19.5,19.5l0,0c10.8,0,19.5-8.7,19.6-19.5c0,0,0,0,0,0l0,0l0,0C44.4,17.1,39.7,10.1,32.5,7L32.5,7
	c7.2,3.1,11.9,10.2,11.9,18l0,0c0,10.7-8.7,19.5-19.5,19.5l0,0C14.1,44.5,5.4,35.7,5.4,25l0,0c0-10.7,8.7-19.5,19.5-19.5l0,0
	C27.5,5.5,30,6,32.5,7L32.5,7z"/>
<linearGradient id="SVGID_1_" gradientUnits="userSpaceOnUse" x1="-0.6902" y1="41.4636" x2="-0.6002" y2="41.4636" gradientTransform="matrix(518.58 0 0 518.58 359.6415 -21477.1816)">
	<stop  offset="0" style="stop-color:#CDCED0"/>
	<stop  offset="0.79" style="stop-color:#57585A"/>
	<stop  offset="1" style="stop-color:#404041"/>
</linearGradient>
<path class="st1" d="M42,13.5C35.6,4,22.8,1.5,13.3,7.9S1.4,27.1,7.8,36.6C14.2,46,27,48.5,36.4,42.1l0,0C45.9,35.8,48.4,23,42,13.5
	L42,13.5z M42.9,32.6c-4.2,10-15.6,14.7-25.6,10.5S2.6,27.5,6.8,17.5S22.4,2.9,32.4,7c7.3,3,12,10.1,12,18
	C44.4,27.6,43.9,30.2,42.9,32.6L42.9,32.6z"/>
<path class="st2" d="M42,13.5L42,13.5c-3.8-5.7-10.3-9.1-17.1-9.1l0,0C13.5,4.3,4.2,13.6,4.2,25c0,0,0,0,0,0l0,0l0,0
	c0,11.4,9.2,20.7,20.6,20.7c0,0,0,0,0,0l0,0c11.4,0,20.7-9.2,20.7-20.6c0,0,0,0,0,0v0l0,0C45.6,20.9,44.3,16.9,42,13.5L42,13.5
	c2.3,3.4,3.5,7.4,3.4,11.5l0,0c0,11.3-9.2,20.5-20.5,20.5c0,0,0,0,0,0l0,0C13.5,45.5,4.3,36.3,4.3,25l0,0l0,0
	c0-11.3,9.2-20.5,20.5-20.5l0,0c6.9,0,13.3,3.4,17.1,9.1V13.5z M42.9,32.6L42.9,32.6c-3.1,7.2-10.2,11.9-18,11.9l0,0
	C14.1,44.4,5.4,35.7,5.4,25l0,0c0-10.7,8.7-19.5,19.5-19.5l0,0c10.7,0,19.5,8.7,19.5,19.5l0,0C44.3,27.6,43.8,30.2,42.9,32.6
	L42.9,32.6c1-2.4,1.5-5,1.5-7.6l0,0c0-10.8-8.7-19.5-19.5-19.5c0,0,0,0,0,0l0,0C14.1,5.4,5.3,14.2,5.3,25c0,0,0,0,0,0l0,0l0,0
	c0,10.8,8.7,19.5,19.5,19.5l0,0C32.7,44.5,39.8,39.8,42.9,32.6L42.9,32.6z"/>
<linearGradient id="SVGID_2_" gradientUnits="userSpaceOnUse" x1="-0.7026" y1="41.4389" x2="-0.6126" y2="41.4389" gradientTransform="matrix(-392.1 392.1 -392.1 -392.1 16015.1094 16531.1934)">
	<stop  offset="0" style="stop-color:#CDCED0"/>
	<stop  offset="0.79" style="stop-color:#57585A"/>
	<stop  offset="1" style="stop-color:#404041"/>
</linearGradient>
<path class="st3" d="M16.6,45.5c8.2,3.3,17.6,1.4,23.9-4.9c2.1-2.1,3.8-4.6,4.9-7.3c3.3-8.2,1.4-17.6-4.9-23.8
	c-2.1-2.1-4.6-3.8-7.3-4.9C24.9,1.3,15.6,3.2,9.3,9.4c-2.1,2.1-3.8,4.6-4.9,7.3C0,28,5.4,40.8,16.6,45.5z M5.7,32.8
	c-4.3-10.6,0.7-22.7,11.3-27s22.7,0.7,27,11.3s-0.7,22.7-11.3,27c-7.7,3.2-16.6,1.4-22.5-4.5C8.3,37.7,6.8,35.3,5.7,32.8z"/>
<path class="st4" d="M16.6,45.5L16.6,45.5c2.6,1.1,5.5,1.6,8.3,1.7c1.4,0,2.8-0.2,4.2-0.4c7.3-1.4,13.5-6.4,16.3-13.3
	c1.1-2.7,1.6-5.5,1.6-8.4c0-1.4-0.2-2.8-0.4-4.2c-1.4-7.3-6.4-13.5-13.3-16.3c-2.7-1.1-5.5-1.6-8.4-1.6c-1.4,0-2.8,0.2-4.2,0.4
	C13.3,4.7,7.2,9.7,4.3,16.6c-1.1,2.7-1.6,5.5-1.6,8.4c0,1.4,0.2,2.8,0.4,4.2C4.6,36.6,9.6,42.7,16.6,45.5L16.6,45.5
	C5.2,40.8-0.1,27.9,4.6,16.6C8,8.4,16,3.1,24.9,3C37,2.5,47.2,12,47.7,24.1c0.4,11.2-7.6,20.9-18.6,22.6c-1.4,0.3-2.8,0.4-4.2,0.4
	C22.1,47.1,19.3,46.6,16.6,45.5L16.6,45.5z M5.7,32.8L5.7,32.8C1.4,22.2,6.5,10.2,17.1,5.9S39.7,6.7,44,17.2
	c4.3,10.6-0.8,22.6-11.3,26.9S10.1,43.3,5.7,32.8C5.8,32.8,5.8,32.8,5.7,32.8L5.7,32.8C10,43.5,22.1,48.6,32.8,44.3
	s15.8-16.4,11.5-27.1S27.9,1.4,17.2,5.7C9.3,8.9,4.2,16.5,4.2,25C4.2,27.7,4.7,30.3,5.7,32.8L5.7,32.8z"/>
<polygon class="st5" points="7.1,35.2 7.3,34.2 21.5,22.9 24.1,5 24.9,4.3 25.7,5.1 28.2,22.9 42.5,34.1 42.7,35.2 41.7,35.5 
	24.9,28.7 8.1,35.5 "/>
<polygon class="st6" points="7.1,35.2 7.2,35.2 7.3,34.2 21.6,23 24.1,5 24.9,4.4 25.7,5.1 28.2,22.9 42.4,34.1 42.7,35.1 
	41.7,35.5 24.9,28.7 8.1,35.5 7.1,35.1 7.1,35.2 7.2,35.2 7.1,35.2 7.1,35.2 8.1,35.5 24.9,28.8 41.7,35.5 42.7,35.2 42.5,34 
	28.2,22.8 25.8,5.1 24.9,4.3 24,5 21.5,22.9 7.3,34.2 7.1,35.2 7.1,35.2 "/>
<polygon class="st4" points="25,24.5 24.9,4.3 25.7,5 28.2,22.9 "/>
<linearGradient id="SVGID_3_" gradientUnits="userSpaceOnUse" x1="-0.2098" y1="41.1987" x2="-0.1298" y2="41.1987" gradientTransform="matrix(223.43 0 0 223.43 53.9996 -9174.6396)">
	<stop  offset="0" style="stop-color:#707174"/>
	<stop  offset="0.49" style="stop-color:#555557"/>
	<stop  offset="1" style="stop-color:#312F30"/>
</linearGradient>
<polygon class="st7" points="7.1,35.2 24.7,25.2 24.9,28.7 8,35.6 "/>
<linearGradient id="SVGID_4_" gradientUnits="userSpaceOnUse" x1="-0.736" y1="42.1149" x2="-0.656" y2="42.1149" gradientTransform="matrix(-66.75 153.8 -153.8 -66.75 6464.5903 2948.55)">
	<stop  offset="0" style="stop-color:#707174"/>
	<stop  offset="0.49" style="stop-color:#555557"/>
	<stop  offset="1" style="stop-color:#312F30"/>
</linearGradient>
<polygon class="st8" points="24.9,28.7 25,25.2 42.7,35.2 41.7,35.5 "/>
<polygon class="st9" points="7.2,35.1 7.2,34.5 22.5,23.5 24.8,25 "/>
<polygon class="st9" points="42.5,35 42.3,34.2 27.5,23.6 25,24.9 "/>
<polygon class="st9" points="24.8,4.3 24.3,4.7 22.5,23.2 24.7,24.5 "/>
</svg>
