<?xml version="1.0" encoding="utf-8"?>
<!-- Generator: Adobe Illustrator 22.1.0, SVG Export Plug-In . SVG Version: 6.00 Build 0)  -->
<svg version="1.1" id="Layer_1" xmlns="http://www.w3.org/2000/svg" xmlns:xlink="http://www.w3.org/1999/xlink" x="0px" y="0px"
	 viewBox="0 0 51 51" style="enable-background:new 0 0 51 51;" xml:space="preserve">
<title>mg</title>
<path d="M35.7,2.4H15.5L2.4,15.5v20l13,13.1h20l13.2-13.1V15.4L35.7,2.4L35.7,2.4z M44.6,33.7L33.7,44.6H17.3L6.4,33.7V17.3
	L17.3,6.4h16.5l10.8,10.8V33.7z"/>
<polygon points="15.7,20.3 12.9,14.6 8.8,18.5 8.8,32.4 12.8,36.5 12.8,22.9 16.2,30.6 20.1,20.4 20.1,41.9 24.6,41.9 24.6,9.1 
	19.9,9.1 15.7,20.3 15.7,20.3 "/>
<path d="M27.6,9.1v32.8h5l9.5-9.5v-6.9h-7.3v4h2.7c0.7-0.1,0.8,0.7,0.3,1.4S32,36.7,32,36.7l0,0V14.3l6.2,6.5v1.6h4v-3.7l-9.4-9.6
	H27.6z"/>
</svg>
