<?xml version="1.0" encoding="utf-8"?>
<!-- Generator: Adobe Illustrator 22.1.0, SVG Export Plug-In . SVG Version: 6.00 Build 0)  -->
<svg version="1.1" id="Layer_1" xmlns="http://www.w3.org/2000/svg" xmlns:xlink="http://www.w3.org/1999/xlink" x="0px" y="0px"
	 viewBox="0 0 50 50" style="enable-background:new 0 0 50 50;" xml:space="preserve">
<style type="text/css">
	.st0{fill:url(#SVGID_1_);}
	.st1{fill:url(#SVGID_2_);}
	.st2{fill:url(#SVGID_3_);}
	.st3{fill:url(#SVGID_4_);}
	.st4{fill:#FFFFFF;}
	.st5{fill:url(#SVGID_5_);}
	.st6{fill:url(#SVGID_6_);}
	.st7{fill:url(#SVGID_7_);}
	.st8{fill:#9C9EA1;}
	.st9{fill:#6D6E70;}
	.st10{fill:#4D4D4F;}
</style>
<title>nissan</title>
<linearGradient id="SVGID_1_" gradientUnits="userSpaceOnUse" x1="25.71" y1="32.77" x2="25.71" y2="64.7" gradientTransform="matrix(1 0 0 1 -0.75 -26.79)">
	<stop  offset="0.19" style="stop-color:#FFFFFF"/>
	<stop  offset="0.32" style="stop-color:#CDCCCC"/>
	<stop  offset="0.47" style="stop-color:#918F8F"/>
	<stop  offset="0.62" style="stop-color:#615F5F"/>
	<stop  offset="0.75" style="stop-color:#3F3C3D"/>
	<stop  offset="0.85" style="stop-color:#2B2728"/>
	<stop  offset="0.92" style="stop-color:#231F20"/>
</linearGradient>
<path class="st0" d="M46.3,20.3c-0.6-0.1-1.2-0.2-1.9-0.3c-4.1-0.2-14.3-0.6-19.4-0.6S9.7,19.8,5.6,20c-0.6,0-1.3,0.1-1.9,0.3
	c-1.3,0.3-1.6,0.8-1.6,1.7v6.3c0,0.9,1,1.5,1.7,1.7c0.6,0.1,1.2,0.2,1.8,0.2c3.7,0.2,12.2,0.7,19.4,0.7s15.7-0.5,19.4-0.7
	c0.7-0.1,1.2-0.1,1.8-0.2s1.7-0.8,1.7-1.7V22C47.9,21,47.6,20.6,46.3,20.3z"/>
<radialGradient id="SVGID_2_" cx="12.85" cy="24.31" r="31.94" gradientTransform="matrix(1 0 0 1 -0.75 -26.79)" gradientUnits="userSpaceOnUse">
	<stop  offset="0.2" style="stop-color:#FFFFFF"/>
	<stop  offset="0.39" style="stop-color:#FDFDFD"/>
	<stop  offset="0.5" style="stop-color:#F4F5F5"/>
	<stop  offset="0.59" style="stop-color:#E6E7E8"/>
	<stop  offset="0.66" style="stop-color:#D2D4D6"/>
	<stop  offset="0.69" style="stop-color:#CACCCE"/>
	<stop  offset="1" style="stop-color:#58595B"/>
</radialGradient>
<path class="st1" d="M8.5,20.5C10.7,13.2,17.4,8.3,25,8.3c7.6-0.1,14.4,4.9,16.6,12.1v0.1c1-0.1,2-0.3,3-0.5v-0.1
	C42,11.2,34,5.3,25,5.4C16,5.3,8,11.3,5.5,20C6.5,20.2,7.5,20.4,8.5,20.5z"/>
<radialGradient id="SVGID_3_" cx="90.15" cy="75.47" r="66.52" gradientTransform="matrix(1 0 0 1 -0.75 -26.79)" gradientUnits="userSpaceOnUse">
	<stop  offset="0.2" style="stop-color:#FFFFFF"/>
	<stop  offset="0.34" style="stop-color:#EAEBEC"/>
	<stop  offset="0.59" style="stop-color:#CACCCE"/>
	<stop  offset="1" style="stop-color:#58595B"/>
</radialGradient>
<path class="st2" d="M41.5,29.7c0,0.1,0,0.1-0.1,0.2c-2.3,7.1-9,11.9-16.5,11.8c-7.5,0.1-14.2-4.8-16.5-12c-1.3,0.2-1.7,0.3-3,0.5
	C8.1,38.8,16,44.7,25,44.6c9,0.1,16.9-5.8,19.5-14.4C43.4,30.1,42.7,30,41.5,29.7z"/>
<radialGradient id="SVGID_4_" cx="20.52" cy="40.79" r="20.42" gradientTransform="matrix(1 0 0 -1 0 51)" gradientUnits="userSpaceOnUse">
	<stop  offset="0.2" style="stop-color:#FFFFFF"/>
	<stop  offset="0.34" style="stop-color:#EAEBEC"/>
	<stop  offset="0.59" style="stop-color:#CACCCE"/>
	<stop  offset="1" style="stop-color:#58595B"/>
</radialGradient>
<path class="st3" d="M8.9,20.5c0.5-0.3,1.1-0.5,1.7-0.7c3.2-8,12.3-11.8,20.3-8.6c3.9,1.6,7,4.6,8.6,8.5v0.1
	c0.4,0.1,1.5,0.6,1.8,0.7h0.3v-0.1c-2.2-7.3-9-12.2-16.6-12.1c-7.6-0.1-14.3,4.9-16.5,12.2L8.9,20.5z"/>
<path class="st4" d="M24.9,8.8c7.4-0.1,14.1,4.6,16.4,11.7v0.1h0.3v-0.1c-2.2-7.3-9-12.2-16.6-12.1c-7.6-0.1-14.3,4.9-16.5,12.2h0.4
	C11.1,13.6,17.6,8.8,24.9,8.8z"/>
<radialGradient id="SVGID_5_" cx="37" cy="61.67" r="38.75" gradientTransform="matrix(1 0 0 -1 0 51)" gradientUnits="userSpaceOnUse">
	<stop  offset="0.2" style="stop-color:#FFFFFF"/>
	<stop  offset="0.34" style="stop-color:#EAEBEC"/>
	<stop  offset="0.59" style="stop-color:#CACCCE"/>
	<stop  offset="1" style="stop-color:#58595B"/>
</radialGradient>
<path class="st5" d="M41.1,29.8c-0.5,0.3-1.1,0.6-1.7,0.8c0,0-0.1,0.1-0.1,0.1c-3.4,7.9-12.6,11.5-20.5,8.1
	c-3.7-1.6-6.6-4.5-8.1-8.2C10,30.3,9.4,30,8.8,29.8H8.6c2.3,7.2,8.9,12,16.5,12c7.5,0.1,14.2-4.8,16.5-11.9v-0.1L41.1,29.8z"/>
<radialGradient id="SVGID_6_" cx="25.4" cy="36.23" r="30.79" gradientTransform="matrix(1 0 0 1 -0.75 -26.79)" gradientUnits="userSpaceOnUse">
	<stop  offset="0.2" style="stop-color:#FFFFFF"/>
	<stop  offset="0.4" style="stop-color:#FDFDFD"/>
	<stop  offset="0.52" style="stop-color:#F4F5F5"/>
	<stop  offset="0.62" style="stop-color:#E6E7E8"/>
	<stop  offset="0.7" style="stop-color:#D2D4D6"/>
	<stop  offset="0.73" style="stop-color:#CACCCE"/>
	<stop  offset="1" style="stop-color:#6D6E70"/>
</radialGradient>
<path class="st6" d="M45.9,20.7c-1.1-0.1-1.8-0.1-4.5-0.2h-0.4c-4.8-0.2-12-0.4-16.1-0.4s-11.3,0.2-16.1,0.4H8.5
	c-2.7,0.1-3.4,0.1-4.5,0.2s-1.9,0.6-1.9,1.4V28c0,0.8,1,1.5,1.9,1.5c0,0,11.6,0.7,21,0.7s21-0.7,21-0.7c0.9,0,1.9-0.6,1.9-1.5v-5.9
	C47.9,21.3,47,20.9,45.9,20.7z"/>
<radialGradient id="SVGID_7_" cx="26.11" cy="39.32" r="20.74" gradientTransform="matrix(1 0 0 1 -0.75 -26.79)" gradientUnits="userSpaceOnUse">
	<stop  offset="0.11" style="stop-color:#6D6E70"/>
	<stop  offset="0.25" style="stop-color:#6A6B6D"/>
	<stop  offset="0.35" style="stop-color:#616163"/>
	<stop  offset="0.44" style="stop-color:#525153"/>
	<stop  offset="0.53" style="stop-color:#3C3A3B"/>
	<stop  offset="0.61" style="stop-color:#231F20"/>
</radialGradient>
<path class="st7" d="M34.3,23.3c-0.4-0.9-0.2-0.8-1.1-0.8c-0.2,0-0.3,0-0.5,0c-0.2,0-0.3,0-0.5,0c-0.8,0-0.6,0-0.9,0.5
	c0,0-1.4,3-1.9,4.3l0,0c-0.1,0.2,0,0.2,0.1,0.2h1.2c0.1,0,0.1,0,0.2-0.1c0,0,0.2-0.4,0.4-0.9h3c0.2,0.5,0.4,0.9,0.4,0.9
	c0,0.1,0.1,0.1,0.2,0.1h1.2c0.2,0,0.2,0,0.2-0.1C36,27,34.6,23.8,34.3,23.3L34.3,23.3z M31.7,25.5c0.4-0.9,0.8-1.8,0.8-1.8
	c0,0,0.1-0.1,0.1-0.1h0.3c0.1,0,0.1,0,0.1,0.1l0,0c0.1,0.2,0.4,1,0.8,1.8L31.7,25.5z M15.5,22.5c0.1,0,0.1,0,0.1,0.1v4.8
	c0,0.1,0,0.2-0.2,0.2h-1.2c-0.1,0-0.1,0-0.1-0.2v-4.8c0-0.1,0-0.1,0.1-0.1L15.5,22.5z M13,22.5c0.1,0,0.2,0,0.2,0.2v4.8
	c0,0.1,0,0.2-0.2,0.2h-1.4c-0.8,0-0.9,0-1.1-0.5c-0.6-0.9-2.2-3.5-2.2-3.5v3.8c0,0.1,0,0.2-0.2,0.2h-1c-0.1,0-0.2,0-0.2-0.2v-4.7
	c0-0.1,0-0.2,0.2-0.2h1.2c0.9,0,1,0,1.3,0.4s2.3,3.5,2.3,3.5v-3.8c0-0.1,0-0.2,0.2-0.2L13,22.5z M43,22.5c0.1,0,0.2,0,0.2,0.2v4.8
	c0,0.1,0,0.2-0.2,0.2h-1.4c-0.8,0-0.9,0-1.1-0.5c-0.6-0.9-2.2-3.5-2.2-3.5v3.8c0,0.1,0,0.2-0.2,0.2h-1c-0.1,0-0.2,0-0.2-0.2v-4.7
	c0-0.1,0-0.2,0.2-0.2h1.2c0.9,0,1,0,1.3,0.4s2.3,3.5,2.3,3.5v-3.8c0-0.1,0-0.2,0.2-0.2L43,22.5z M20.7,24.5c0.9,0.1,1.5,0.2,1.7,1.1
	v0.5c0,0.2,0,0.4,0,0.5c-0.2,0.8-0.8,1-1.7,1h-3.8c-0.1,0-0.1,0-0.1-0.2v-0.9c0-0.1,0-0.1,0.1-0.1h3.8c0.2,0,0.2,0,0.2-0.2V26
	c0-0.1-0.1-0.2-0.2-0.2c-0.4,0-1.7-0.1-2.5-0.2c-1.1-0.1-1.4-0.6-1.4-1c0-0.2,0-0.3,0-0.5c0-0.2,0-0.3,0-0.5
	c0.1-0.7,0.7-1.1,1.6-1.1H22c0.1,0,0.2,0,0.2,0.1v0.8c0,0.1,0,0.1-0.2,0.1h-3.6c-0.1,0-0.2,0.1-0.2,0.2V24c0,0.1,0.1,0.2,0.2,0.2
	L20.7,24.5L20.7,24.5z M27.2,24.5c0.9,0.1,1.5,0.2,1.7,1.1v0.5c0,0.2,0,0.4,0,0.5c-0.2,0.8-0.8,1-1.7,1h-3.8c-0.1,0-0.2,0-0.2-0.2
	v-0.9c0-0.1,0-0.1,0.2-0.1h3.8c0.1,0,0.2,0,0.2-0.2V26c0-0.1-0.1-0.2-0.2-0.2c-0.4,0-1.7-0.1-2.5-0.2c-1.1-0.1-1.4-0.6-1.4-1
	c0-0.2,0-0.3,0-0.5c0-0.2,0-0.3,0-0.5c0.2-0.7,0.7-1.1,1.6-1.1h3.7c0.1,0,0.2,0,0.2,0.1v0.8c0,0.1,0,0.1-0.2,0.1h-3.6
	c-0.2,0-0.2,0.1-0.2,0.2V24c0,0.1,0,0.2,0.2,0.2C25.3,24.3,26.6,24.4,27.2,24.5L27.2,24.5z"/>
<path class="st4" d="M41.1,29.8C38,38.7,28.3,43.4,19.3,40.3c-4.9-1.7-8.8-5.6-10.5-10.5H8.6c2.3,7.2,8.9,12,16.5,12
	c7.5,0.1,14.2-4.8,16.5-12H41.1z"/>
<path class="st8" d="M41.1,29.8L41.1,29.8c-0.5,0.3-1.1,0.6-1.7,0.8c0,0-0.1,0.1-0.1,0.1c-0.7,1.7-1.7,3.3-3,4.7
	C38.3,33.8,39.9,31.9,41.1,29.8z"/>
<path class="st9" d="M14.2,35.7c-1.5-1.5-2.8-3.2-3.6-5.2C10,30.3,9.4,30,8.8,29.7c0.4,0.8,0.8,1.5,1.3,2.2c1,1.3,2.3,2.5,3.6,3.5
	L14.2,35.7z"/>
<path class="st10" d="M8.6,29.7L8.6,29.7c-1.3,0.2-1.7,0.3-3,0.5c0.1,0.4,0.2,0.7,0.3,1.1L8.6,29.7z"/>
</svg>
