<?xml version="1.0" encoding="utf-8"?>
<!-- Generator: Adobe Illustrator 22.1.0, SVG Export Plug-In . SVG Version: 6.00 Build 0)  -->
<svg version="1.1" id="Layer_1" xmlns="http://www.w3.org/2000/svg" xmlns:xlink="http://www.w3.org/1999/xlink" x="0px" y="0px"
	 viewBox="0 0 50 50" style="enable-background:new 0 0 50 50;" xml:space="preserve">
<style type="text/css">
	.st0{fill:url(#SVGID_1_);}
	.st1{fill:url(#SVGID_2_);}
	.st2{fill:url(#SVGID_3_);}
	.st3{fill:url(#SVGID_4_);}
	.st4{fill:url(#SVGID_5_);}
	.st5{fill:url(#SVGID_6_);}
	.st6{opacity:0.85;fill:url(#SVGID_7_);enable-background:new    ;}
	.st7{opacity:0.85;fill:url(#SVGID_8_);enable-background:new    ;}
	.st8{opacity:0.85;fill:url(#SVGID_9_);enable-background:new    ;}
	.st9{fill:url(#SVGID_10_);}
	.st10{fill:#7F7F7E;}
	.st11{fill:url(#SVGID_11_);}
	.st12{fill:url(#SVGID_12_);}
	.st13{fill:url(#SVGID_13_);}
	.st14{fill:url(#SVGID_14_);}
	.st15{fill:url(#SVGID_15_);}
	.st16{fill:url(#SVGID_16_);}
	.st17{fill:url(#SVGID_17_);}
	.st18{fill:url(#SVGID_18_);}
	.st19{fill:url(#SVGID_19_);}
	.st20{fill:url(#SVGID_20_);}
	.st21{fill:url(#SVGID_21_);}
	.st22{fill:url(#SVGID_22_);}
	.st23{fill:url(#SVGID_23_);}
	.st24{fill:url(#SVGID_24_);}
	.st25{fill:url(#SVGID_25_);}
	.st26{fill:url(#SVGID_26_);}
	.st27{fill:url(#SVGID_27_);}
</style>
<title>Peugeot</title>
<path d="M46.8,44.3c-1.8-4.4-4.1-8.5-6.9-12.4c-0.6-0.8-0.4-1.2,0-1.4c0.9-0.8,1.7-1.6,2.5-2.5c1.2-1.4,1.5-2.9,0.6-5.1
	s-3.6-7.4-4.2-9.2c-0.7-2-0.7-2.9-0.3-4c0.5-1.3,1.2-1.3,1.7-1.3c0.2,0,0.4,0.2,0.5,0.4c0,0.9,0.2,1.8,0.5,2.7
	c0.8,1.8,2.1,3.3,3.9,4.1c0.5,0.2,0.6-0.2,0.5-0.4s-0.8-3.1-1.3-5.2s-0.9-2.7-1.4-3.2c-0.9-0.8-2-1.2-3.1-1.2
	c-2.4,0.1-3.4,2.4-3.5,2.6S36,8.7,35.8,8.5C35.1,8,33.2,6.4,33,5.4c-0.1-0.6-0.2-0.7-0.8-0.9c-2.1-0.9-4.4-1.6-6.6-2.1
	c-0.7-0.2-1.3-0.2-2,0c-1.5,0.2-2.9,0.7-4.2,1.5c-0.4,0.2-0.8,0.5-1,0.8C18.2,4.8,18,5,17.8,5c-0.9,0.3-1.8,0.7-2.7,1.1
	c-0.4,0.2-0.6,0.4-0.4,0.8c0.5,0.9,1,1.8,1.7,2.5c0.3,0.2,0.6,0.3,1,0.4c0.1,0,0.3,0.1,0.3,0c0.1-0.2,0.2-0.4,0.4-0.5
	c0.5-0.3,1.1-0.5,1.7-0.6c0.2-0.1,0.5,0,0.7,0.1c0.3,0.3,0.6,0.6,0.7,1c0.1,0.4,0,0.6-0.2,0.7c-0.6,0.2-1.2,0.3-1.8,0.3
	c-0.8,0.1-1.1-0.2-1.1-0.2s-0.2-0.1-0.2,0c-0.2,0.2-0.4,0.4-0.7,0.5c-0.2,0.1-0.3,0.3-0.1,0.6c0.5,0.9,1.2,2,1.9,2.1s0.8,0,1.4-0.4
	s0.9-0.4,1-0.3s0.5,0.4,0.4,0.6c-0.3,0.6-0.7,1.2-1.2,1.7c-0.2,0.2-0.3,0.3-0.6,0.2s-7.1-3.7-8-4c-0.8-0.3-1.7-0.5-2.6-0.5
	c-0.8,0-1.6,0-2.4,0.1c-0.5,0.1-0.9,0.4-1.2,0.7c-0.6,0.5-1.1,1.1-1.3,1.9c0,0.5,0.2,1,0.5,1.4c0.1,0.2,0.3,0.3,0.4,0.2
	c0.5-0.2,1.1-0.3,1.7-0.2c0.7,0.1,0.8,0.7,0.8,1.1c0,0.1,0.1,0.2,0.3,0.2c0.4,0,0.9,0.1,1.2,0.3c0.7,0.4,1.4,0.9,2.1,1.5
	c0.2,0.2,0.1,0.3-0.1,0.4c-1.7,0.2-3.5,0.5-5.1,1C5.4,20,4.7,20.4,4.2,21c-0.5,0.8-0.8,1.6-1,2.5C3,24.1,3.8,25,4,25.2
	c0.2,0.2,0.2,0.2,0.5,0.1c0.7-0.4,1.4-0.7,2.2-0.9c0.5,0,0.8,0.5,0.9,0.7s0.3,0.1,0.8-0.1c2.5-0.2,5-0.2,7.4-0.1
	c0.9,0,1.8,0.2,2.7,0.6c0.8,0.5,1.5,1.1,2.2,1.8c0,0-1.9,3.2-2.9,5.1s-1.6,3.1-2,3.8c-0.4,0.8-0.5,1.6-0.5,2.5
	c0.1,0.7,0.1,1.5,0.1,2.2c0,0.5-0.4,0.5-1,0.7c-0.8,0.2-2.5,0.4-3.8,0.7S8.9,43,8.7,43.9c-0.2,1.1-0.4,2.3-0.4,3.4
	c0,0.3,0,0.5,0.4,0.4c0.2,0,1-0.2,1.9-0.2c1.1-0.1,2.3-0.1,3.3-0.1c1.7,0,6.9,0.3,7.2,0.3s0.5,0,0.5-0.3s-0.2-1.7-0.2-2.5
	c-0.2-0.8,0-1.7,0.6-2.3c0.7-0.8,5.9-6.6,6.2-6.9s0.4-0.5,0.8-0.2s4.7,3.5,5.6,4.1c0.8,0.6,1.7,0.9,2.7,0.9c0.7,0,0.9,1.2,0.3,1.4
	s-1.6,0.3-2.2,0.5c-0.7,0.1-1.4,0.6-1.6,1.3c-0.3,1.2-0.5,2.4-0.6,3.7c0,0.2,0,0.4,0.3,0.4c1.8-0.3,3.6-0.4,5.4-0.3
	c2.5,0.1,4.8,0.3,5.2,0.3s0.4,0,0.6-0.3c0.6-0.8,1.2-1.6,2-2.2C46.9,45,46.9,44.8,46.8,44.3z M37.4,27.1c-0.5,0.2-1,0.1-1.4-0.3
	c-0.3-0.3-2.8-3.3-3.6-4.2c-0.5-0.4-0.5-1.1-0.1-1.6c0,0,0,0,0,0l0,0c0.1-0.2,0.3-0.3,0.5-0.3c1-0.4,2.8-0.9,3.3-1.2
	c0.4-0.2,0.7-0.5,0.8-1v-1.3c0-0.2,0.2-0.3,0.4-0.1s0.5,1,1.1,2c0.8,1.3,1.6,2.7,2.2,4.2c0.3,0.7,0.2,1.5-0.3,2
	C39.4,26.1,38.4,26.7,37.4,27.1z"/>
<linearGradient id="SVGID_1_" gradientUnits="userSpaceOnUse" x1="47.8394" y1="40.0704" x2="34.2294" y2="19.2204" gradientTransform="matrix(1 0 0 -1 -1.79 48.41)">
	<stop  offset="0.2" style="stop-color:#CCCCCC"/>
	<stop  offset="0.23" style="stop-color:#A6A6A6"/>
	<stop  offset="0.26" style="stop-color:#7D7D7D"/>
	<stop  offset="0.29" style="stop-color:#5D5D5D"/>
	<stop  offset="0.32" style="stop-color:#464646"/>
	<stop  offset="0.34" style="stop-color:#383838"/>
	<stop  offset="0.37" style="stop-color:#333333"/>
	<stop  offset="0.44" style="stop-color:#393939"/>
	<stop  offset="0.53" style="stop-color:#4A4A4A"/>
	<stop  offset="0.64" style="stop-color:#656565"/>
	<stop  offset="0.75" style="stop-color:#8C8C8C"/>
	<stop  offset="0.81" style="stop-color:#A3A3A3"/>
	<stop  offset="1" style="stop-color:#000000"/>
</linearGradient>
<path class="st0" d="M39.9,6.2L39.9,6.2c-1.9,0-3.9,2.2-3.5,5.6c0.1,1.5,0.5,2.9,1.1,4.3c0.3,0.6,3.6,6.9,3.8,7.6
	c0.3,0.8,0,1.7-0.7,2.2c-0.9,0.8-1.9,1.4-3,1.9c-0.2,0.1-0.4,0.1-0.6,0.1c-0.2,0-0.7-0.1-1.7-1.3l4.2,5.7c-0.5-0.7-0.8-1.3-0.7-1.8
	s0.9-1,1.8-1.7c1-0.7,1.8-1.6,2.3-2.8c0.1-0.3,0.2-0.7,0.2-1c-0.1-1.3-0.6-2.6-1.2-3.8c-0.8-1.8-3.3-5.7-4-8.5
	c-0.2-0.6-0.3-1.2-0.3-1.8c-0.1-1.2,0.4-2.3,1.5-2.9c0.3-0.1,0.7-0.2,1-0.2c0.3,0,0.6,0,0.9,0.1c0.2,0.1,0.3,0.4,0.3,0.6l0,0
	c0,0.1,0,0.2,0,0.3c0,1.2,0.3,2.4,0.8,3.4c0.7,1.3,1.8,2.4,3.2,3c0.1,0-1.5-5.6-1.7-6.7C43.2,7.5,42.4,6.3,39.9,6.2z"/>
<linearGradient id="SVGID_2_" gradientUnits="userSpaceOnUse" x1="9.543" y1="24.9587" x2="12.013" y2="30.6087" gradientTransform="matrix(1 0 0 -1 -1.79 48.41)">
	<stop  offset="3.000000e-02" style="stop-color:#A6A6A6"/>
	<stop  offset="0.2" style="stop-color:#A6A6A6"/>
	<stop  offset="0.99" style="stop-color:#4C4D4D"/>
</linearGradient>
<path class="st1" d="M13.4,18.7c0.4,0.4-0.3,0.4-2.2,0.5c-1.7,0.1-3.4,0.5-5.1,1c-0.8,0.3-1.2,0.5-1.5,1.2c-0.3,0.6-0.5,1.3-0.7,1.9
	c-0.1,0.2,0,0.4,0.1,0.6C4,24.1,4.2,20.4,9,20.1c4.3-0.2,5.3-0.7,4.5-1.5L13.4,18.7z"/>
<linearGradient id="SVGID_3_" gradientUnits="userSpaceOnUse" x1="43.2623" y1="38.5642" x2="40.2223" y2="38.8542" gradientTransform="matrix(1 0 0 -1 -1.79 48.41)">
	<stop  offset="0.2" style="stop-color:#333333"/>
	<stop  offset="0.26" style="stop-color:#353535"/>
	<stop  offset="0.28" style="stop-color:#3C3C3C"/>
	<stop  offset="0.3" style="stop-color:#474747"/>
	<stop  offset="0.31" style="stop-color:#585858"/>
	<stop  offset="0.32" style="stop-color:#6E6E6E"/>
	<stop  offset="0.33" style="stop-color:#8A8A8A"/>
	<stop  offset="0.34" style="stop-color:#AAAAAA"/>
	<stop  offset="0.35" style="stop-color:#D0D0D0"/>
	<stop  offset="0.36" style="stop-color:#F9F9F9"/>
	<stop  offset="0.36" style="stop-color:#FFFFFF"/>
	<stop  offset="0.82" style="stop-color:#333333"/>
	<stop  offset="1" style="stop-color:#191A1A"/>
</linearGradient>
<path class="st2" d="M37.8,11c0-0.5,0.1-1,0.3-1.5C38.3,8.7,39,8,39.9,8c0.3,0,0.5,0.1,0.7,0.2c0.1,0.1,0.2,0.3,0.2,0.4
	c0,0.9,0.2,1.8,0.6,2.7c0,0.1,0.1,0.2,0.1,0.3C41.1,10.7,41,9.8,41,8.9V8.5C41,8.1,40.5,8,40.1,8c-0.3,0-0.6,0.1-0.9,0.2
	c-0.9,0.5-1.4,1.5-1.3,2.6L37.8,11z"/>
<linearGradient id="SVGID_4_" gradientUnits="userSpaceOnUse" x1="15.9235" y1="21.9685" x2="18.4235" y2="27.6885" gradientTransform="matrix(1 0 0 -1 -1.79 48.41)">
	<stop  offset="0" style="stop-color:#CCCCCC"/>
	<stop  offset="0.12" style="stop-color:#B9B9B9"/>
	<stop  offset="0.25" style="stop-color:#ABABAB"/>
	<stop  offset="0.37" style="stop-color:#A6A6A6"/>
	<stop  offset="0.99" style="stop-color:#000000"/>
</linearGradient>
<path class="st3" d="M13.6,18.9c0.1,0.4-0.4,0.3-2.4,0.5c-1.7,0.1-3.4,0.5-5.1,1c-0.8,0.3-1.2,0.5-1.5,1.2c-0.3,0.6-0.5,1.3-0.7,1.9
	c0,0.2,0,0.5,0.2,0.6c0.2,0.3,0.3,0.4,0.6,0.2c0.6-0.4,1.3-0.6,2-0.8c0.5,0,0.9,0.3,1,0.7C7.7,24.5,8,24.4,8,24.4
	c0.5-0.1,1-0.2,1.6-0.2c1.2-0.1,5.8,0,7.5,0c1.5,0,7.5,4.8,7.6,4.8l0.3-0.6C23,26.6,15.4,20.6,13.6,18.9L13.6,18.9z"/>
<linearGradient id="SVGID_5_" gradientUnits="userSpaceOnUse" x1="40.2278" y1="-5.0422" x2="-4.4322" y2="40.3978" gradientTransform="matrix(1 0 0 -1 -1.79 48.41)">
	<stop  offset="8.000000e-02" style="stop-color:#808080"/>
	<stop  offset="0.12" style="stop-color:#8C8C8C"/>
	<stop  offset="0.17" style="stop-color:#666666"/>
	<stop  offset="0.31" style="stop-color:#808080"/>
	<stop  offset="0.47" style="stop-color:#F2F2F2"/>
	<stop  offset="0.7" style="stop-color:#F2F2F2"/>
	<stop  offset="0.72" style="stop-color:#E3E3E3"/>
	<stop  offset="0.77" style="stop-color:#BBBBBB"/>
	<stop  offset="0.83" style="stop-color:#7A7A7A"/>
	<stop  offset="0.84" style="stop-color:#6B6B6B"/>
	<stop  offset="0.96" style="stop-color:#333333"/>
</linearGradient>
<path class="st4" d="M30.9,22.6c0.9,1.1,3.6,4.4,6,7.4c3.4,4.2,6.1,8.8,8.2,13.7c0.2,0.5,0,0.6-0.3,0.9c-0.7,0.6-0.6,0.8-1.1,1.8
	c-0.1,0.1-0.2,0.3-0.4,0.3c-0.5,0-4.4-0.4-6.9-0.3c-0.8,0-1.5,0.1-2.2,0.2c-0.3,0.1-0.4,0-0.4-0.3c0.1-0.8,0.3-1.5,0.5-2.2
	c0.1-0.5,0.6-0.9,1.1-1c0.5-0.1,1.9-0.4,2.5-0.5s0.6-0.7,0.5-1.1s-0.4-1-0.8-1c-0.5-0.1-1-0.2-1.4-0.4c-0.5-0.2-8.5-6.6-9.2-7.2
	c-0.2-0.2-0.3-0.3-0.4-0.2s0.1,0.2,0.2,0.3s1.3,1.4,1.6,1.6s0.1,0.3,0,0.4s-3.9,3.8-5.4,5.4s-2.7,2.6-2.7,3.8s0.1,2.3,0.1,2.5
	s-0.2,0.2-0.4,0.2c-0.5,0-4.2-0.4-6.3-0.5c-1.5-0.1-3.1,0.1-4.6,0.4c-0.2,0.1-0.3-0.1-0.3-0.3C9,45.6,9.2,44.8,9.5,44
	c0.1-0.5,0.6-0.9,1.1-1c0.7-0.2,3.4-0.7,4.6-0.8c0.6-0.1,0.8-0.3,0.8-0.9s-0.1-1.8-0.1-2.4c0-0.6,0.1-1.2,0.4-1.8
	c1.5-3.4,3.2-6.6,5.3-9.7c0.1-0.3,0.4-0.4,0.7-0.3c0.5,0.3,1.1,0.7,1.6,1.1c0.2,0.1,0.5,0,0.4-0.1c-0.7-0.7-2.8-2-4.1-3
	c-2.6-2.1-5.3-5-7.4-7c-0.9-0.9-2-1.6-3.2-2C9.1,16,8.8,16,8.5,16c-0.1,0-0.2-0.1-0.2-0.2c0,0,0,0,0,0l0,0c0-0.3-0.1-0.6-0.3-0.8
	c-0.3-0.2-0.6-0.3-1-0.3c-0.5,0-1.1,0.1-1.6,0.2c-0.1,0-0.3,0-0.4-0.1C5,14.6,5,14.4,4.9,14.2c0-0.2,0-0.3,0.1-0.5
	c0.4-0.5,0.9-1,1.4-1.4c0.3-0.3,0.6-0.4,1-0.4c1.1-0.2,2.2-0.1,3.3,0.1c0.9,0.2,1.7,0.6,2.5,1c0.9,0.4,6,3,6.6,3.4L30.9,22.6z"/>
<radialGradient id="SVGID_6_" cx="20.91" cy="34.48" r="10.19" gradientTransform="matrix(1 0 0 -1 -1.79 48.41)" gradientUnits="userSpaceOnUse">
	<stop  offset="4.000000e-02" style="stop-color:#FFFFFF"/>
	<stop  offset="0.47" style="stop-color:#FFFFFF"/>
	<stop  offset="0.52" style="stop-color:#FBFBFB"/>
	<stop  offset="0.57" style="stop-color:#EEEEEE"/>
	<stop  offset="0.62" style="stop-color:#DADADA"/>
	<stop  offset="0.68" style="stop-color:#BDBDBD"/>
	<stop  offset="0.73" style="stop-color:#989898"/>
	<stop  offset="0.75" style="stop-color:#8C8C8C"/>
	<stop  offset="0.85" style="stop-color:#666666"/>
	<stop  offset="1" style="stop-color:#333333"/>
</radialGradient>
<path class="st5" d="M22.5,13.4c0,0.5-0.2,1.1-0.5,1.4c-0.3,0.4-0.6,0.9-1,1.3c-0.2,0.3-0.6,0.4-0.9,0.3l4.6,2.3
	c0.7,0.3,1.7,0,2.4-1.3c0.2-0.3,1.2-2.5,1.5-3.2c0.4-0.8,0.4-1.8,0-2.7c-0.9-1.6-2-3.1-3.1-4.5c-0.5-0.5-1.1-0.8-1.8-0.8
	c-1.3,0-2.5,0.2-3.7,0.5c-1.2,0.3-2.5,0.8-3.7,1.2c0,0,0,0.1,0,0.1l0.2,0.4c0.1,0.2,0.2,0.3,0.4,0.4c0.2,0.1,0.4,0.2,0.7,0.3
	c0.1,0,0.1,0,0.1,0c0.3-0.5,0.8-0.8,1.4-0.9c0.4-0.1,0.8-0.2,1.1-0.2c0.4,0,0.7,0.2,1,0.4c0.4,0.4,0.7,0.8,0.9,1.4
	c0.1,0.3,0,0.6-0.3,0.8c-0.6,0.2-1.1,0.4-1.7,0.4c-0.5,0.1-1.1,0.1-1.6-0.1c0,0-0.1,0-0.1,0c-0.1,0.1-0.3,0.2-0.4,0.3
	c-0.1,0-0.1,0.1,0,0.2c0.3,0.6,0.7,1.1,1.2,1.6c0.4,0.3,0.6,0.2,1.1-0.1s0.8-0.6,1.4-0.6C22,12.5,22.4,12.9,22.5,13.4z"/>
<radialGradient id="SVGID_7_" cx="23.2" cy="38.6733" r="3.6" gradientTransform="matrix(1 0 0 -0.96 -1.79 48.96)" gradientUnits="userSpaceOnUse">
	<stop  offset="4.000000e-02" style="stop-color:#FFFFFF"/>
	<stop  offset="0.23" style="stop-color:#FFFFFF"/>
	<stop  offset="0.29" style="stop-color:#F6F6F6"/>
	<stop  offset="0.4" style="stop-color:#DCDCDC"/>
	<stop  offset="0.54" style="stop-color:#B3B3B3"/>
	<stop  offset="0.7" style="stop-color:#797979"/>
	<stop  offset="0.89" style="stop-color:#313131"/>
	<stop  offset="1" style="stop-color:#000000"/>
</radialGradient>
<path class="st6" d="M21.5,10.8c-0.6,0.2-1.1,0.3-1.7,0.4c-0.5,0.1-1,0-1.5-0.1c0,0-0.1,0-0.1,0c-0.1,0.1-0.3,0.2-0.4,0.3
	c0,0-0.1,0.1,0,0.2c0.3,0.5,0.7,1,1.1,1.4c0.4,0.3,0.6,0.2,1.2-0.1s0.9-0.6,1.4-0.6L21.5,10.8z"/>
<radialGradient id="SVGID_8_" cx="20.95" cy="42.19" r="4.23" gradientTransform="matrix(1 0 0 -1 -1.79 48.41)" gradientUnits="userSpaceOnUse">
	<stop  offset="0.23" style="stop-color:#FFFFFF"/>
	<stop  offset="0.57" style="stop-color:#F5F5F5"/>
	<stop  offset="0.86" style="stop-color:#000000"/>
</radialGradient>
<path class="st7" d="M19.7,6.9c-1.2,0.3-2.3,0.7-3.5,1.2v0.1l0.2,0.3c0.1,0.2,0.2,0.3,0.4,0.4c0.2,0.1,0.4,0.2,0.6,0.2
	c0.1,0,0.1,0,0.1-0.1c0.3-0.5,0.8-0.8,1.4-0.9c0.4-0.1,0.8-0.2,1.1-0.2L19.7,6.9z"/>
<radialGradient id="SVGID_9_" cx="28.04" cy="33.93" r="14.25" gradientTransform="matrix(1 0 0 -1 -1.79 48.41)" gradientUnits="userSpaceOnUse">
	<stop  offset="4.000000e-02" style="stop-color:#FFFFFF"/>
	<stop  offset="0.25" style="stop-color:#FFFFFF"/>
	<stop  offset="0.27" style="stop-color:#FBFBFB"/>
	<stop  offset="0.29" style="stop-color:#EEEEEE"/>
	<stop  offset="0.31" style="stop-color:#DADADA"/>
	<stop  offset="0.33" style="stop-color:#BDBDBD"/>
	<stop  offset="0.35" style="stop-color:#999999"/>
	<stop  offset="0.41" style="stop-color:#666666"/>
	<stop  offset="0.47" style="stop-color:#333333"/>
	<stop  offset="0.86" style="stop-color:#333333"/>
</radialGradient>
<path class="st8" d="M22.5,13.4c0,0.5-0.2,1.1-0.6,1.5c-0.3,0.4-0.6,0.9-1,1.3c-0.2,0.2-0.5,0.3-0.8,0.2l4.5,2.2
	c0.7,0.3,1.7,0.1,2.4-1.2c0.2-0.3,1.2-2.5,1.5-3.2L22.5,13.4z"/>
<linearGradient id="SVGID_10_" gradientUnits="userSpaceOnUse" x1="18.079" y1="25.8441" x2="11.099" y2="24.0941" gradientTransform="matrix(1 0 0 -1 -1.79 48.41)">
	<stop  offset="0" style="stop-color:#F2F2F2"/>
	<stop  offset="8.000000e-02" style="stop-color:#DDDDDD"/>
	<stop  offset="0.26" style="stop-color:#B2B3B2"/>
	<stop  offset="0.3" style="stop-color:#C6C6C6"/>
	<stop  offset="0.36" style="stop-color:#D9DAD9"/>
	<stop  offset="0.42" style="stop-color:#E7E7E7"/>
	<stop  offset="0.51" style="stop-color:#F0F0F0"/>
	<stop  offset="0.65" style="stop-color:#F2F2F2"/>
	<stop  offset="0.9" style="stop-color:#FFFFFF"/>
</linearGradient>
<path class="st9" d="M8.7,23.9c-0.1,0-0.1-0.2,0-0.4c0.4-0.4,0.8-0.6,1.3-0.8c0.5-0.1,2.1-0.3,2.8-0.3c0.2,0,2.8-0.2,3-0.2
	c0.2,0,0.8,0.9,1.5,1.7h-4.2c-1.9,0-3.4,0-4,0.1C9,23.9,8.8,23.9,8.7,23.9z"/>
<path class="st10" d="M8.7,23.9L8.7,23.9c-0.1,0-0.1-0.1-0.1-0.2l0,0c0-0.1,0.1-0.2,0.1-0.3l0,0c0.4-0.4,0.8-0.7,1.3-0.9l0,0
	c0.5-0.1,2.1-0.3,2.8-0.3l0,0c0.2,0,2.7-0.2,3-0.2l0,0c0.1,0,0.2,0.1,0.3,0.2l0,0c0.1,0.1,0.2,0.2,0.4,0.4l0,0
	c0.3,0.3,0.6,0.8,0.9,1.1h-4.2c-1.8,0-3.4,0-4,0.1H8.8C8.7,23.9,8.7,23.9,8.7,23.9L8.7,23.9z M8.8,23.9h0.4c0.6,0,2.2-0.1,4-0.1h4.1
	c-0.5-0.5-0.9-1.2-1.2-1.5l0,0c-0.1-0.1-0.1-0.1-0.2-0.1l0,0c-0.3,0-2.8,0.2-3,0.2l0,0c-1,0-1.9,0.1-2.8,0.3l0,0
	c-0.5,0.2-0.9,0.5-1.3,0.8l0,0c-0.1,0.1-0.1,0.1-0.1,0.2l0,0c0,0,0,0.1,0.1,0.1c0,0,0,0,0,0L8.8,23.9L8.8,23.9z"/>
<linearGradient id="SVGID_11_" gradientUnits="userSpaceOnUse" x1="577.5818" y1="206.7316" x2="650.4718" y2="117.9216" gradientTransform="matrix(0.44 0 0 -0.44 -237.98 96.3)">
	<stop  offset="0" style="stop-color:#FFFFFF"/>
	<stop  offset="7.000000e-02" style="stop-color:#DEDEDE"/>
	<stop  offset="0.16" style="stop-color:#FFFFFF"/>
	<stop  offset="0.2" style="stop-color:#FFFFFF"/>
	<stop  offset="0.28" style="stop-color:#DEDEDE"/>
	<stop  offset="0.33" style="stop-color:#CCCCCC"/>
	<stop  offset="0.34" style="stop-color:#D1D1D1"/>
	<stop  offset="0.36" style="stop-color:#E6E6E6"/>
	<stop  offset="0.4" style="stop-color:#F4F4F4"/>
	<stop  offset="0.44" style="stop-color:#FCFCFC"/>
	<stop  offset="0.5" style="stop-color:#FFFFFF"/>
	<stop  offset="0.89" style="stop-color:#FFFFFF"/>
	<stop  offset="0.98" style="stop-color:#B0B0B0"/>
</linearGradient>
<path class="st11" d="M45.8,43.9c-1.7-3.7-3.7-7.3-6-10.6c-3-4.4-8-10.2-8.6-11.2s-0.9-2,0.5-2.5c0.9-0.3,3.1-0.8,4-1s0.9-0.5,1-1.2
	c0-2.2-0.2-4.3-0.6-6.5c-0.1-0.4-0.3-0.8-0.7-1.1c-0.8-0.6-1.5-1.3-2.2-2c-0.6-0.7-1.1-1.5-1.2-2.4c0-0.1-0.1-0.2-0.2-0.3
	c-0.1-0.1-0.1-0.1-0.2-0.2c-2.2-1-4.6-1.7-7-2.2c-1.8,0.1-3.6,0.6-5.1,1.5c-0.6,0.4-0.6,0.8-1.1,1.1s-1.4,0.5-2.5,1
	c-0.6,0.3-0.6,0.3-0.4,0.6c0.1,0.1,0.4,0.8,0.6,0.8c0.2,0,0.4-0.1,0.6-0.2c1.3-0.5,2.6-0.9,4-1.3c1.8-0.4,3.8-0.4,4.5,0.3
	c1.3,1.5,2.5,3,3.5,4.7c0.5,0.8,0.5,1.8,0.1,2.7c-0.6,1.5-1.2,2.9-2,4.2c-0.4,0.5-0.8,0.9-1.9,0.4s-5.5-2.8-6.5-3.3L13,12.9
	c-0.6-0.3-1.3-0.6-2-0.8c-1.3-0.3-2.6-0.3-3.8-0.1c-0.3,0.1-0.6,0.6-0.5,0.8s0.8,0.1,1.5,0.1c1.1,0.1,2.3,0.3,3.4,0.7
	c1.1,0.4,6.6,3.4,8,4.2c10.6,5.8,15.2,9.5,23.4,23.3c0.4,0.6,0.5,1.4,0,1.5c-0.8,0.2-4.3,0.9-5.4,1.3c-0.9,0.3-1,0.4-1.1,0.8
	c-0.2,0.6-0.3,1.1-0.3,1.7c0,0.1,0,0.2,0.1,0.2c1,0,4.5,0,7.2,0.3c0.3,0,0.3,0,0.5-0.3c0.5-0.7,1.1-1.3,1.8-1.9
	C46,44.4,45.8,44,45.8,43.9z"/>
<linearGradient id="SVGID_12_" gradientUnits="userSpaceOnUse" x1="9.6012" y1="35.7713" x2="42.2512" y2="4.7613" gradientTransform="matrix(1 0 0 -1 -1.79 48.41)">
	<stop  offset="0" style="stop-color:#D9D9D9"/>
	<stop  offset="4.000000e-02" style="stop-color:#C3C3C3"/>
	<stop  offset="0.16" style="stop-color:#909090"/>
	<stop  offset="0.26" style="stop-color:#686868"/>
	<stop  offset="0.36" style="stop-color:#4B4B4B"/>
	<stop  offset="0.45" style="stop-color:#393939"/>
	<stop  offset="0.51" style="stop-color:#333333"/>
	<stop  offset="0.57" style="stop-color:#383838"/>
	<stop  offset="0.65" style="stop-color:#464646"/>
	<stop  offset="0.73" style="stop-color:#5E5E5E"/>
	<stop  offset="0.82" style="stop-color:#808080"/>
	<stop  offset="0.91" style="stop-color:#AAAAAA"/>
	<stop  offset="1" style="stop-color:#D9D9D9"/>
</linearGradient>
<path class="st12" d="M43.3,41.9c-0.3-1-0.8-2-1.5-2.8c-0.9-1.4-2.1-3.4-3.6-5.6c-2.4-3.6-5.4-6.8-8.8-9.5c-2.2-1.7-4.6-3.2-7-4.6
	c-1.9-1.1-9.9-5.5-11.1-5.9c-0.9-0.3-1.9-0.5-2.8-0.6c-0.5,0-1,0-1.5,0c-0.5,0-0.3-0.4-0.2-0.5c0,0.1-0.3,0.6,0.1,0.6h1.6
	c1,0.1,2,0.4,3,0.7c1.1,0.4,6.3,3.5,7.7,4.3c3.5,2,6.9,4.2,10.1,6.8c4.4,3.6,8.3,7.7,13.1,16.2c0.2,0.3,0.3,0.6,0.3,0.9
	c0,0.3-0.2,0.6-0.5,0.7c-0.8,0.2-4.2,1-5.2,1.4s-1,0.5-1.1,0.9c-0.1,0.4-0.2,0.8-0.4,1.2c-0.2,0.2-0.6,0.3-1,0.3s-0.4,0-0.4-0.3
	s0.2-1,0.3-1.5c0.1-0.4,0.3-0.8,0.7-1c0.8-0.3,1.7-0.5,2.6-0.7c0.8-0.2,0.8-0.6,0.8-1.2c0,0.6-0.2,0.8-1,1c-0.9,0.1-1.8,0.3-2.6,0.7
	c-0.3,0.2-0.6,0.6-0.7,1c-0.2,0.7-0.4,1.5-0.4,2.2c0,0.2,0.1,0.3,0.4,0.2s1-0.1,2-0.2c0.3,0,0.3-0.4,0.3-0.8c0-0.3,0-0.5,0.1-0.8
	c0.1-0.2,0.3-0.4,0.5-0.5c0.6-0.2,3.7-1,5.3-1.5C43,42.7,43.4,42.5,43.3,41.9z"/>
<linearGradient id="SVGID_13_" gradientUnits="userSpaceOnUse" x1="25.3634" y1="20.8077" x2="12.6434" y2="1.7877" gradientTransform="matrix(1 0 0 -1 -1.79 48.41)">
	<stop  offset="0" style="stop-color:#BFBFBF"/>
	<stop  offset="0.1" style="stop-color:#FFFFFF"/>
	<stop  offset="0.35" style="stop-color:#EDEDED"/>
	<stop  offset="0.42" style="stop-color:#F6F6F6"/>
	<stop  offset="0.54" style="stop-color:#FFFFFF"/>
	<stop  offset="0.54" style="stop-color:#F3F3F3"/>
	<stop  offset="0.58" style="stop-color:#B2B2B2"/>
	<stop  offset="0.61" style="stop-color:#7B7C7C"/>
	<stop  offset="0.65" style="stop-color:#515252"/>
	<stop  offset="0.67" style="stop-color:#323333"/>
	<stop  offset="0.7" style="stop-color:#202121"/>
	<stop  offset="0.71" style="stop-color:#191A1A"/>
	<stop  offset="0.72" style="stop-color:#373838"/>
	<stop  offset="0.74" style="stop-color:#6C6C6C"/>
	<stop  offset="0.76" style="stop-color:#999999"/>
	<stop  offset="0.77" style="stop-color:#BEBEBE"/>
	<stop  offset="0.79" style="stop-color:#DADADA"/>
	<stop  offset="0.81" style="stop-color:#EFEFEF"/>
	<stop  offset="0.82" style="stop-color:#FBFBFB"/>
	<stop  offset="0.84" style="stop-color:#FFFFFF"/>
	<stop  offset="0.85" style="stop-color:#FAFAFA"/>
	<stop  offset="0.86" style="stop-color:#EDEDED"/>
	<stop  offset="0.87" style="stop-color:#D6D6D6"/>
	<stop  offset="0.88" style="stop-color:#B7B7B7"/>
	<stop  offset="0.89" style="stop-color:#8E8E8E"/>
	<stop  offset="0.9" style="stop-color:#5D5D5D"/>
	<stop  offset="0.91" style="stop-color:#363636"/>
	<stop  offset="0.95" style="stop-color:#363636"/>
	<stop  offset="1" style="stop-color:#737373"/>
</linearGradient>
<path class="st13" d="M22.2,27.1c0.3,0.2,0.6,0.4,0.9,0.6l0.5,0.3c-2.3,2.9-4.4,6-6.3,9.2c-0.4,0.7-0.6,1.5-0.5,2.4
	c0,0.9,0.1,2,0.1,2.5s-0.4,0.7-0.9,0.9s-3.6,0.6-4.2,0.8c-0.5,0.1-0.9,0.5-0.9,1.1c-0.1,0.5-0.1,0.8-0.2,1s0,0.4-0.2,0.4l-0.9,0.1
	c-0.2,0-0.3,0-0.2-0.3c0.1-0.6,0.2-1.2,0.4-1.9c0.1-0.6,0.6-1.1,1.2-1.2c0.8-0.2,3.9-0.7,4.5-0.8c0.5,0,0.9-0.5,0.8-1c0,0,0,0,0,0
	c0,0,0,0,0-0.1c0-0.7-0.1-1.7-0.1-2.2c0-0.5,0-1.1,0.2-1.6c0.7-1.6,1.4-3.1,2.2-4.7c1-1.8,2-3.5,3.1-5.2
	C21.7,27.1,21.9,27,22.2,27.1z"/>
<linearGradient id="SVGID_14_" gradientUnits="userSpaceOnUse" x1="23.9585" y1="10.8975" x2="27.3185" y2="8.9275" gradientTransform="matrix(1 0 0 -1 -1.79 48.41)">
	<stop  offset="0.2" style="stop-color:#FFFFFF"/>
	<stop  offset="0.32" style="stop-color:#FDFDFD"/>
	<stop  offset="0.39" style="stop-color:#F4F4F4"/>
	<stop  offset="0.45" style="stop-color:#E6E6E6"/>
	<stop  offset="0.5" style="stop-color:#D2D2D2"/>
	<stop  offset="0.52" style="stop-color:#C7C7C7"/>
	<stop  offset="0.82" style="stop-color:#3B3B3B"/>
	<stop  offset="0.84" style="stop-color:#333333"/>
	<stop  offset="0.94" style="stop-color:#242525"/>
	<stop  offset="1" style="stop-color:#191A1A"/>
</linearGradient>
<path class="st14" d="M20.4,44.2c0-0.6,0.2-1.1,0.5-1.6c0.6-0.8,1.3-1.6,2.1-2.3c1.6-1.6,5.4-5.3,5.5-5.5s0.2-0.2,0-0.4
	c-0.4-0.4-0.6-0.6-1.2-1.2c-0.4-0.4-0.6-0.6-0.6-0.7s-4.2,4.8-5.6,8.3c-0.4,0.8-0.7,1.7-0.7,2.6C20.3,43.7,20.4,43.9,20.4,44.2z"/>
<linearGradient id="SVGID_15_" gradientUnits="userSpaceOnUse" x1="25.801" y1="19.9992" x2="29.341" y2="24.2292" gradientTransform="matrix(1 0 0 -1 -1.79 48.41)">
	<stop  offset="2.000000e-02" style="stop-color:#FFFFFF"/>
	<stop  offset="0.18" style="stop-color:#FFFFFF"/>
	<stop  offset="0.21" style="stop-color:#FFFFFF"/>
	<stop  offset="0.3" style="stop-color:#F7F7F7"/>
	<stop  offset="0.45" style="stop-color:#E2E2E2"/>
	<stop  offset="0.5" style="stop-color:#D9D9D9"/>
	<stop  offset="0.6" style="stop-color:#C5C5C5"/>
	<stop  offset="0.83" style="stop-color:#9C9C9C"/>
	<stop  offset="0.95" style="stop-color:#8C8C8C"/>
	<stop  offset="1" style="stop-color:#858585"/>
</linearGradient>
<path class="st15" d="M6.9,13c0.6,0,1.1,0,1.7,0c1,0.1,2,0.4,3,0.7c0.4,0.2,1.4,0.7,2.5,1.3c1.9,1.1,4.4,2.5,5.2,3
	c2.7,1.5,5.2,3.1,7.7,5c0.8,0.6,1.6,1.2,2.4,1.9c4.5,3.6,8.1,7.6,13,16.1c0.2,0.3,0.3,0.6,0.2,0.9c0,0.3-0.3,0.5-0.6,0.6L6.9,13z"/>
<linearGradient id="SVGID_16_" gradientUnits="userSpaceOnUse" x1="33.6091" y1="43.5689" x2="38.2091" y2="38.8589" gradientTransform="matrix(1 0 0 -1 -1.79 48.41)">
	<stop  offset="0" style="stop-color:#000000"/>
	<stop  offset="4.000000e-02" style="stop-color:#020202"/>
	<stop  offset="7.000000e-02" style="stop-color:#0B0B0B"/>
	<stop  offset="9.000000e-02" style="stop-color:#191919"/>
	<stop  offset="0.11" style="stop-color:#2C2C2C"/>
	<stop  offset="0.12" style="stop-color:#464646"/>
	<stop  offset="0.14" style="stop-color:#666666"/>
	<stop  offset="0.15" style="stop-color:#8C8C8C"/>
	<stop  offset="0.16" style="stop-color:#B7B7B7"/>
	<stop  offset="0.18" style="stop-color:#E7E7E7"/>
	<stop  offset="0.18" style="stop-color:#F2F2F2"/>
	<stop  offset="0.19" style="stop-color:#E4E4E4"/>
	<stop  offset="0.25" style="stop-color:#B2B2B2"/>
	<stop  offset="0.3" style="stop-color:#878787"/>
	<stop  offset="0.35" style="stop-color:#646464"/>
	<stop  offset="0.41" style="stop-color:#494949"/>
	<stop  offset="0.46" style="stop-color:#353535"/>
	<stop  offset="0.52" style="stop-color:#2A2A2A"/>
	<stop  offset="0.58" style="stop-color:#262626"/>
	<stop  offset="0.71" style="stop-color:#1F1F1F"/>
	<stop  offset="0.91" style="stop-color:#0B0B0B"/>
	<stop  offset="1" style="stop-color:#000000"/>
</linearGradient>
<path class="st16" d="M36,9L36,9c-0.1,0-0.3-0.1-0.4-0.1c-0.7-0.5-2.7-2.1-3-3.4c-0.2-0.6,0-0.3-0.6-0.7l-0.5-0.2l0.2,0.1
	c0.1,0,0.2,0.1,0.3,0.2c0.1,0.1,0.3,0.3,0.3,0.5c0.2,0.8,0.6,1.6,1.2,2.2c0.7,0.7,1.4,1.4,2.2,2c0.2,0.1,0.3,0.3,0.5,0.4
	c0.1-0.5,0.2-0.9,0.4-1.4l-0.1,0.2C36.4,8.9,36.2,9,36,9z"/>
<linearGradient id="SVGID_17_" gradientUnits="userSpaceOnUse" x1="34.1804" y1="24.0295" x2="39.4204" y2="27.4695" gradientTransform="matrix(1 0 0 -1 -1.79 48.41)">
	<stop  offset="0" style="stop-color:#000000"/>
	<stop  offset="4.000000e-02" style="stop-color:#020202"/>
	<stop  offset="7.000000e-02" style="stop-color:#0B0B0B"/>
	<stop  offset="9.000000e-02" style="stop-color:#191919"/>
	<stop  offset="0.11" style="stop-color:#2C2C2C"/>
	<stop  offset="0.12" style="stop-color:#464646"/>
	<stop  offset="0.14" style="stop-color:#666666"/>
	<stop  offset="0.15" style="stop-color:#8C8C8C"/>
	<stop  offset="0.16" style="stop-color:#B7B7B7"/>
	<stop  offset="0.18" style="stop-color:#E7E7E7"/>
	<stop  offset="0.18" style="stop-color:#F2F2F2"/>
	<stop  offset="0.19" style="stop-color:#E4E4E4"/>
	<stop  offset="0.25" style="stop-color:#B2B2B2"/>
	<stop  offset="0.3" style="stop-color:#878787"/>
	<stop  offset="0.35" style="stop-color:#646464"/>
	<stop  offset="0.41" style="stop-color:#494949"/>
	<stop  offset="0.46" style="stop-color:#353535"/>
	<stop  offset="0.52" style="stop-color:#2A2A2A"/>
	<stop  offset="0.58" style="stop-color:#262626"/>
	<stop  offset="0.71" style="stop-color:#1F1F1F"/>
	<stop  offset="0.91" style="stop-color:#0B0B0B"/>
	<stop  offset="1" style="stop-color:#000000"/>
</linearGradient>
<path class="st17" d="M31.7,19.9c-0.7,0.2-0.7,0.5-0.8,0.8l0,0c0,0.4,0.2,0.9,0.4,1.2c0.3,0.5,2,2.4,3.8,4.7
	c0.2,0.3,0.3,0.4,0.5,0.5c-0.1-0.1-2.7-3.4-3.5-4.3c-0.3-0.3-0.5-0.7-0.5-1.1c0-0.6,0.5-1.2,1.1-1.4c1-0.4,2.8-1,3.2-1.2
	s0.5-0.3,0.6-0.6c-0.2,0.2-0.5,0.3-0.8,0.4C34.9,19.2,32.6,19.7,31.7,19.9z"/>
<linearGradient id="SVGID_18_" gradientUnits="userSpaceOnUse" x1="38.39" y1="40.746" x2="45.26" y2="40.746" gradientTransform="matrix(1 0 0 -1 -1.79 48.41)">
	<stop  offset="0" style="stop-color:#4C4D4D"/>
	<stop  offset="0.29" style="stop-color:#CCCCCC"/>
	<stop  offset="0.3" style="stop-color:#BFC0C0"/>
	<stop  offset="0.35" style="stop-color:#969797"/>
	<stop  offset="0.4" style="stop-color:#767777"/>
	<stop  offset="0.45" style="stop-color:#5F6060"/>
	<stop  offset="0.49" style="stop-color:#515252"/>
	<stop  offset="0.53" style="stop-color:#4C4D4D"/>
	<stop  offset="0.76" style="stop-color:#191A1A"/>
	<stop  offset="1" style="stop-color:#000000"/>
</linearGradient>
<path class="st18" d="M36.6,9.1c0.4-1.5,1.7-2.6,3.3-2.7c2.3,0,3.3,0.9,3.6,2.2c-0.4-1.8-2-2.4-3.6-2.4C38.3,6.3,36.9,7.5,36.6,9.1z
	"/>
<linearGradient id="SVGID_19_" gradientUnits="userSpaceOnUse" x1="10.32" y1="4.98" x2="26.18" y2="4.98" gradientTransform="matrix(1 0 0 -1 -1.79 48.41)">
	<stop  offset="0" style="stop-color:#000000"/>
	<stop  offset="5.000000e-02" style="stop-color:#020202"/>
	<stop  offset="8.000000e-02" style="stop-color:#0B0B0B"/>
	<stop  offset="0.1" style="stop-color:#191919"/>
	<stop  offset="0.13" style="stop-color:#2C2C2C"/>
	<stop  offset="0.14" style="stop-color:#464646"/>
	<stop  offset="0.16" style="stop-color:#666666"/>
	<stop  offset="0.18" style="stop-color:#8B8B8B"/>
	<stop  offset="0.18" style="stop-color:#8F8F8F"/>
	<stop  offset="0.2" style="stop-color:#878787"/>
	<stop  offset="0.27" style="stop-color:#646464"/>
	<stop  offset="0.34" style="stop-color:#494949"/>
	<stop  offset="0.42" style="stop-color:#353535"/>
	<stop  offset="0.5" style="stop-color:#2A2A2A"/>
	<stop  offset="0.58" style="stop-color:#262626"/>
	<stop  offset="0.71" style="stop-color:#1F1F1F"/>
	<stop  offset="0.91" style="stop-color:#0B0B0B"/>
	<stop  offset="1" style="stop-color:#000000"/>
</linearGradient>
<path class="st19" d="M21.6,42.5c0.3-0.3,1.5-1.7,2.8-3l-1,1c-1.8,1.8-2.6,2.4-2.5,3.5c0,0.7,0.1,2.3,0.1,2.5c0,0.2-0.1,0.4-0.3,0.5
	c-0.2,0.1-0.3,0.1-0.5,0.1c-0.5,0-5.2-0.5-6.8-0.5c-1.3,0-2.6,0.1-3.9,0.4c-0.2,0-0.5,0-0.6-0.2c-0.1-0.1-0.1-0.2-0.1-0.3
	c0,0.3-0.1,0.7-0.1,0.9c0.6-0.1,1.3-0.2,1.9-0.2c1.1-0.1,2.4-0.1,3.3-0.1s7.3,0.3,7.3,0.3c0-0.5-0.1-1.7-0.1-2.4v-0.7
	C21,43.6,21.2,43,21.6,42.5z"/>
<linearGradient id="SVGID_20_" gradientUnits="userSpaceOnUse" x1="30.5" y1="11.105" x2="37.59" y2="11.105" gradientTransform="matrix(1 0 0 -1 -1.79 48.41)">
	<stop  offset="0" style="stop-color:#000000"/>
	<stop  offset="5.000000e-02" style="stop-color:#020202"/>
	<stop  offset="8.000000e-02" style="stop-color:#0B0B0B"/>
	<stop  offset="0.1" style="stop-color:#191919"/>
	<stop  offset="0.13" style="stop-color:#2C2C2C"/>
	<stop  offset="0.14" style="stop-color:#464646"/>
	<stop  offset="0.16" style="stop-color:#666666"/>
	<stop  offset="0.18" style="stop-color:#8B8B8B"/>
	<stop  offset="0.18" style="stop-color:#8F8F8F"/>
	<stop  offset="0.2" style="stop-color:#878787"/>
	<stop  offset="0.27" style="stop-color:#646464"/>
	<stop  offset="0.34" style="stop-color:#494949"/>
	<stop  offset="0.42" style="stop-color:#353535"/>
	<stop  offset="0.5" style="stop-color:#2A2A2A"/>
	<stop  offset="0.58" style="stop-color:#262626"/>
	<stop  offset="0.71" style="stop-color:#1F1F1F"/>
	<stop  offset="0.91" style="stop-color:#0B0B0B"/>
	<stop  offset="1" style="stop-color:#000000"/>
</linearGradient>
<path class="st20" d="M34.7,39.5c0.3,0.2,0.7,0.4,1.1,0.5c-0.3-0.2-0.7-0.5-1.3-1c-0.8-0.6-1.9-1.5-3-2.3c-0.9-0.7-1.8-1.4-2.6-2.1
	c0,0.2-0.1,0.4-0.2,0.5c0.2,0,0.3,0.1,0.5,0.3C29.5,35.7,33.9,38.8,34.7,39.5z"/>
<linearGradient id="SVGID_21_" gradientUnits="userSpaceOnUse" x1="35.24" y1="10.135" x2="48.27" y2="10.135" gradientTransform="matrix(1 0 0 -1 -1.79 48.41)">
	<stop  offset="0" style="stop-color:#000000"/>
	<stop  offset="5.000000e-02" style="stop-color:#020202"/>
	<stop  offset="8.000000e-02" style="stop-color:#0B0B0B"/>
	<stop  offset="0.1" style="stop-color:#191919"/>
	<stop  offset="0.13" style="stop-color:#2C2C2C"/>
	<stop  offset="0.14" style="stop-color:#464646"/>
	<stop  offset="0.16" style="stop-color:#666666"/>
	<stop  offset="0.18" style="stop-color:#8B8B8B"/>
	<stop  offset="0.18" style="stop-color:#8F8F8F"/>
	<stop  offset="0.2" style="stop-color:#878787"/>
	<stop  offset="0.27" style="stop-color:#646464"/>
	<stop  offset="0.34" style="stop-color:#494949"/>
	<stop  offset="0.42" style="stop-color:#353535"/>
	<stop  offset="0.5" style="stop-color:#2A2A2A"/>
	<stop  offset="0.58" style="stop-color:#262626"/>
	<stop  offset="0.71" style="stop-color:#1F1F1F"/>
	<stop  offset="0.91" style="stop-color:#0B0B0B"/>
	<stop  offset="1" style="stop-color:#000000"/>
</linearGradient>
<path class="st21" d="M46.3,45c0.2-0.1,0.2-0.1,0.2-0.2c0-0.1-0.1-0.3-0.1-0.4c-1.8-4.3-4.1-8.4-6.8-12.2c-0.2-0.3-0.4-0.7-0.4-1.1
	c0-0.3,0.2-0.6,0.4-0.9c0.2-0.1,0.6-0.5,1.2-1.1c-0.6,0.4-1.2,0.9-1.6,1.4c-0.1,0.2-0.1,0.3-0.1,0.5c0,0.4,0.2,0.8,0.4,1.2
	c0.2,0.3,0.4,0.6,0.6,0.9c2.3,3.4,4.3,7,5.9,10.8c0.2,0.5,0.1,0.7,0,0.9c0,0-1.6,1.6-1.8,1.9c-0.1,0.1-0.2,0.2-0.2,0.3
	c-0.2,0.1-0.4,0.2-0.7,0.1c-2.3-0.2-4.8-0.3-6.1-0.3c-1.6,0-2.6,0.2-3.2,0.2c-0.2,0-0.4,0-0.5-0.1l0,0v0.5c1.3-0.2,2.5-0.3,3.8-0.3
	h1.5c2.5,0.1,5.3,0.3,5.3,0.3C44.8,46.6,45.5,45.8,46.3,45z"/>
<linearGradient id="SVGID_22_" gradientUnits="userSpaceOnUse" x1="9.63" y1="22.8532" x2="23.2" y2="22.8532" gradientTransform="matrix(1 0 0 -1 -1.79 48.41)">
	<stop  offset="0" style="stop-color:#666666"/>
	<stop  offset="6.000000e-02" style="stop-color:#686868"/>
	<stop  offset="9.000000e-02" style="stop-color:#717171"/>
	<stop  offset="0.12" style="stop-color:#7F7F7F"/>
	<stop  offset="0.14" style="stop-color:#929292"/>
	<stop  offset="0.16" style="stop-color:#ACACAC"/>
	<stop  offset="0.18" style="stop-color:#CBCBCB"/>
	<stop  offset="0.18" style="stop-color:#CCCCCC"/>
	<stop  offset="0.21" style="stop-color:#BEBEBE"/>
	<stop  offset="0.32" style="stop-color:#8C8C8C"/>
	<stop  offset="0.43" style="stop-color:#616161"/>
	<stop  offset="0.54" style="stop-color:#3E3E3E"/>
	<stop  offset="0.65" style="stop-color:#232323"/>
	<stop  offset="0.76" style="stop-color:#0F0F0F"/>
	<stop  offset="0.88" style="stop-color:#040404"/>
	<stop  offset="1" style="stop-color:#000000"/>
</linearGradient>
<path class="st22" d="M21.4,26.8c-0.7-0.5-1.5-1-2.2-1.5c-0.6-0.5-1.3-0.8-2.1-1c-2.8,0-2.8,0-4.5,0c-1.3,0-2.5,0-3,0.1
	c-0.5,0-1.1,0.1-1.6,0.2c-0.1,0-0.1,0-0.2,0l0.1,0.1h0.1c1.2-0.2,2.4-0.3,3.6-0.3c1.6,0,3.3,0,4.2,0.1c1,0,1.9,0.2,2.8,0.6
	C19.5,25.6,21.4,26.9,21.4,26.8z"/>
<linearGradient id="SVGID_23_" gradientUnits="userSpaceOnUse" x1="9.93" y1="31.1096" x2="14.76" y2="31.1096" gradientTransform="matrix(1 0 0 -1 -1.79 48.41)">
	<stop  offset="0" style="stop-color:#262626"/>
	<stop  offset="5.000000e-02" style="stop-color:#282828"/>
	<stop  offset="8.000000e-02" style="stop-color:#313131"/>
	<stop  offset="0.1" style="stop-color:#3F3F3F"/>
	<stop  offset="0.12" style="stop-color:#525252"/>
	<stop  offset="0.14" style="stop-color:#6C6C6C"/>
	<stop  offset="0.15" style="stop-color:#8C8C8C"/>
	<stop  offset="0.17" style="stop-color:#B1B1B1"/>
	<stop  offset="0.18" style="stop-color:#CCCCCC"/>
	<stop  offset="0.21" style="stop-color:#BEBEBE"/>
	<stop  offset="0.32" style="stop-color:#8C8C8C"/>
	<stop  offset="0.43" style="stop-color:#616161"/>
	<stop  offset="0.54" style="stop-color:#3E3E3E"/>
	<stop  offset="0.65" style="stop-color:#232323"/>
	<stop  offset="0.76" style="stop-color:#0F0F0F"/>
	<stop  offset="0.88" style="stop-color:#040404"/>
	<stop  offset="1" style="stop-color:#000000"/>
</linearGradient>
<path class="st23" d="M12.9,18.6c-1-1-2.2-1.8-3.5-2.3c-0.3-0.1-0.7-0.1-1-0.1c-0.2,0-0.2-0.3-0.3-0.3s0,0.5,0.2,0.5
	c0.4,0,0.9,0,1.3,0.2c1,0.6,2,1.3,2.8,2C12.8,18.9,13.2,18.9,12.9,18.6z"/>
<linearGradient id="SVGID_24_" gradientUnits="userSpaceOnUse" x1="5.8" y1="24.065" x2="8.98" y2="24.065" gradientTransform="matrix(1 0 0 -1 -1.79 48.41)">
	<stop  offset="0" style="stop-color:#666666"/>
	<stop  offset="6.000000e-02" style="stop-color:#686868"/>
	<stop  offset="0.1" style="stop-color:#707170"/>
	<stop  offset="0.13" style="stop-color:#7E7F7E"/>
	<stop  offset="0.15" style="stop-color:#929292"/>
	<stop  offset="0.17" style="stop-color:#ABACAB"/>
	<stop  offset="0.18" style="stop-color:#B2B3B2"/>
	<stop  offset="0.18" style="stop-color:#B0B1B0"/>
	<stop  offset="0.32" style="stop-color:#868786"/>
	<stop  offset="0.45" style="stop-color:#636463"/>
	<stop  offset="0.58" style="stop-color:#494949"/>
	<stop  offset="0.72" style="stop-color:#353535"/>
	<stop  offset="0.86" style="stop-color:#2A2A2A"/>
	<stop  offset="1" style="stop-color:#262626"/>
</linearGradient>
<path class="st24" d="M6.7,24c0.2,0,0.3,0,0.5,0.1c-0.1-0.2-0.2-0.3-0.6-0.3c-0.7,0.2-1.4,0.4-2,0.8c-0.3,0.2-0.4,0.2-0.6,0
	c0.1,0.2,0.2,0.3,0.4,0.3C5.1,24.5,5.9,24.2,6.7,24z"/>
<linearGradient id="SVGID_25_" gradientUnits="userSpaceOnUse" x1="22.5427" y1="43.7812" x2="22.8927" y2="43.0112" gradientTransform="matrix(1 0 0 -1 -1.79 48.41)">
	<stop  offset="0" style="stop-color:#FFFFFF"/>
	<stop  offset="0.12" style="stop-color:#EBEBEB"/>
	<stop  offset="0.91" style="stop-color:#404040"/>
</linearGradient>
<path class="st25" d="M21.7,4.5c0.2,0,0.4-0.1,0.5,0.1c0,0.1,0,0.2,0,0.3C22.1,4.9,22,5,22,5c-0.2,0.1-1.6,0.6-1.9,0.7
	c-0.1,0.1-0.2,0.1-0.3,0c0,0,0,0,0,0l0,0c0,0,0-0.1,0-0.1c0-0.2,0-0.4,0.1-0.5C20,5,20.1,4.9,20.2,4.9C20.7,4.7,21.2,4.6,21.7,4.5z"
	/>
<path d="M21.6,4.6c0.2,0,0.2,0,0.2,0.1c0,0.1,0,0.1,0,0.2c0,0,0,0.1-0.1,0.1s-1.2,0.4-1.4,0.5S20,5.4,20,5.4c0-0.1,0-0.2,0-0.3
	C20,5,20.1,5,20.2,4.9L21.6,4.6z"/>
<linearGradient id="SVGID_26_" gradientUnits="userSpaceOnUse" x1="18.15" y1="35.8838" x2="31" y2="35.8838" gradientTransform="matrix(1 0 0 -1 -1.79 48.41)">
	<stop  offset="0.69" style="stop-color:#FFFFFF"/>
	<stop  offset="0.72" style="stop-color:#FAFAFA"/>
	<stop  offset="0.75" style="stop-color:#EAEAEA"/>
	<stop  offset="0.79" style="stop-color:#D1D1D1"/>
	<stop  offset="0.84" style="stop-color:#ADADAD"/>
	<stop  offset="0.88" style="stop-color:#7F7F7F"/>
	<stop  offset="0.93" style="stop-color:#474747"/>
	<stop  offset="0.98" style="stop-color:#070707"/>
	<stop  offset="0.98" style="stop-color:#000000"/>
</linearGradient>
<path class="st26" d="M27.3,17.8c0.2-0.3,1.3-2.7,1.6-3.4c0.2-0.4,0.3-0.9,0.4-1.4c0-0.5-0.1-1-0.4-1.4c-1-1.7-2.1-3.2-3.4-4.7
	c-0.6-0.7-1.5-1-2.4-0.9c-2.4,0.2-4.7,0.8-6.8,1.9c2-0.8,4-1.3,6.1-1.5c1.5-0.1,2.1,0,2.6,0.7c1.2,1.4,2.3,3,3.3,4.6
	c0.2,0.4,0.3,0.9,0.3,1.3c-0.1,0.5-0.2,0.9-0.4,1.4c-0.3,0.7-1.3,2.8-1.5,3.1c-0.8,1.3-1.5,1.3-2.3,1.1l0.7,0.3
	C26.2,19.3,26.8,18.8,27.3,17.8z"/>
<linearGradient id="SVGID_27_" gradientUnits="userSpaceOnUse" x1="17.3437" y1="4.049" x2="22.1037" y2="20.889" gradientTransform="matrix(1 0 0 -1 -1.79 48.41)">
	<stop  offset="0" style="stop-color:#E5E6E5"/>
	<stop  offset="7.000000e-02" style="stop-color:#404040"/>
	<stop  offset="8.000000e-02" style="stop-color:#434343"/>
	<stop  offset="0.26" style="stop-color:#6F6F6F"/>
	<stop  offset="0.35" style="stop-color:#808080"/>
	<stop  offset="0.49" style="stop-color:#9A9A9A"/>
	<stop  offset="0.6" style="stop-color:#ABABAB"/>
	<stop  offset="0.73" style="stop-color:#898989"/>
	<stop  offset="0.88" style="stop-color:#666666"/>
	<stop  offset="0.96" style="stop-color:#595959"/>
	<stop  offset="1" style="stop-color:#A6A6A6"/>
</linearGradient>
<path class="st27" d="M23.8,28.2l-0.4-0.2c-1.3,1.6-2.6,3.3-3.7,5c-1,1.6-2.5,4-2.7,4.6c-0.2,0.5-0.3,1-0.3,1.5l0.1,2.6
	c0.1,0.5-0.3,1.1-0.8,1.1h-0.2c-0.6,0.1-3.5,0.5-4.2,0.7c-0.6,0.1-1,0.5-1.2,1.1c-0.1,0.4-0.2,0.8-0.3,1.3V46c0,0.3,0.1,0.3,0.1,0.3
	c1.7-0.2,3.4-0.2,5.2-0.2c2,0.1,4.7,0.4,4.7,0.4s-2.9-0.5-4.8-0.7s-4.5,0.1-4.5,0c-0.1-0.1-0.1-0.3-0.1-0.5c0-0.2,0.1-0.3,0.1-0.5
	c0.1-0.6,0.5-1,1.1-1.1c0.7-0.2,3.5-0.7,4-0.8s0.9-0.3,0.9-0.8v-0.7c0-0.6-0.1-2-0.1-2.1c-0.1-0.9,0.1-1.7,0.6-2.4
	c1.8-3,3.9-5.9,6.1-8.6C23.6,28.2,23.6,28.2,23.8,28.2L23.8,28.2z"/>
</svg>
