<?xml version="1.0" encoding="utf-8"?>
<!-- Generator: Adobe Illustrator 22.1.0, SVG Export Plug-In . SVG Version: 6.00 Build 0)  -->
<svg version="1.1" id="Layer_1" xmlns="http://www.w3.org/2000/svg" xmlns:xlink="http://www.w3.org/1999/xlink" x="0px" y="0px"
	 viewBox="0 0 50 50" style="enable-background:new 0 0 50 50;" xml:space="preserve">
<style type="text/css">
	.st0{fill:#BFBFBF;}
	.st1{fill:none;}
	.st2{fill:url(#SVGID_1_);}
	.st3{fill:url(#SVGID_2_);}
	.st4{fill:url(#SVGID_3_);}
	.st5{fill:url(#SVGID_4_);}
	.st6{fill:url(#SVGID_5_);}
	.st7{fill:url(#SVGID_6_);}
	.st8{fill:url(#SVGID_7_);}
	.st9{fill:url(#SVGID_8_);}
	.st10{fill:url(#SVGID_9_);}
	.st11{fill:url(#SVGID_10_);}
	.st12{fill:url(#SVGID_11_);}
	.st13{fill:url(#SVGID_12_);}
	.st14{fill:url(#SVGID_13_);}
	.st15{fill:url(#SVGID_14_);}
</style>
<title>porsche-01</title>
<path class="st0" d="M25,2.1c-6.1,0-10.4,0.8-17.6,2.4l2,25.7c0.4,7.3,7.3,13.5,15.7,17.8c8.4-4.3,15.3-10.5,15.7-17.8l2-25.7
	C35.4,2.8,31.1,2.1,25,2.1z"/>
<line class="st1" x1="7.4" y1="4.5" x2="9.3" y2="29.1"/>
<path d="M25,47.9C16.6,43.6,9.7,37.5,9.4,30.1l-2-25.7C14.6,2.8,18.9,2.1,25,2.1"/>
<path d="M25,47.9c8.4-4.3,15.3-10.5,15.7-17.8l2-25.7C35.5,2.8,31.1,2.1,25,2.1"/>
<linearGradient id="SVGID_1_" gradientUnits="userSpaceOnUse" x1="8.15" y1="44.875" x2="41.86" y2="44.875" gradientTransform="matrix(1 0 0 -1 0 51)">
	<stop  offset="0" style="stop-color:#A47C41"/>
	<stop  offset="4.000000e-02" style="stop-color:#AD884B"/>
	<stop  offset="0.12" style="stop-color:#BC9E5C"/>
	<stop  offset="0.22" style="stop-color:#C8AF6A"/>
	<stop  offset="0.34" style="stop-color:#D1BA73"/>
	<stop  offset="0.52" style="stop-color:#D6C178"/>
	<stop  offset="1" style="stop-color:#D7C37A"/>
</linearGradient>
<path class="st2" d="M25,2.8c5.7,0.1,11.4,0.9,16.9,2.3l-0.3,4.4C36.2,8,30.6,7.2,25,7.2C19.4,7.2,13.9,8,8.5,9.5L8.1,5.1
	C13.7,3.6,19.3,2.9,25,2.8z"/>
<linearGradient id="SVGID_2_" gradientUnits="userSpaceOnUse" x1="27.8165" y1="80.7492" x2="41.6265" y2="19.8192" gradientTransform="matrix(1 0 0 1 0 -21)">
	<stop  offset="0" style="stop-color:#6A000E"/>
	<stop  offset="1" style="stop-color:#BA0004"/>
</linearGradient>
<polygon class="st3" points="31.6,21.5 31.6,26.4 40.2,26.4 40.6,21.5 "/>
<linearGradient id="SVGID_3_" gradientUnits="userSpaceOnUse" x1="23.0858" y1="79.679" x2="36.8858" y2="18.749" gradientTransform="matrix(1 0 0 1 0 -21)">
	<stop  offset="0" style="stop-color:#6A000E"/>
	<stop  offset="1" style="stop-color:#BA0004"/>
</linearGradient>
<polygon class="st4" points="41,16.7 41.3,11.7 25.4,11.6 25.4,16.5 31.6,16.5 31.6,16.7 "/>
<path d="M18.4,21.5c-0.2,0.2-0.4,0.5-0.5,0.8c0.2,0.1,0.4,0.3,0.5,0.5V21.5z"/>
<linearGradient id="SVGID_4_" gradientUnits="userSpaceOnUse" x1="17.3975" y1="78.3894" x2="31.2075" y2="17.4594" gradientTransform="matrix(1 0 0 1 0 -21)">
	<stop  offset="0" style="stop-color:#6A000E"/>
	<stop  offset="1" style="stop-color:#BA0004"/>
</linearGradient>
<path class="st5" d="M16.2,41.1c2.6,2.3,5.4,4.2,8.5,5.8v-5.8L16.2,41.1z"/>
<linearGradient id="SVGID_5_" gradientUnits="userSpaceOnUse" x1="12.2991" y1="77.2298" x2="26.0991" y2="16.3098" gradientTransform="matrix(1 0 0 1 0 -21)">
	<stop  offset="0" style="stop-color:#6A000E"/>
	<stop  offset="1" style="stop-color:#BA0004"/>
</linearGradient>
<path class="st6" d="M24.7,36.1v-2.1c-2.1-0.1-4-1.1-5.1-2.8h-9.4c0.3,1.7,0.9,3.4,1.9,4.9H24.7z"/>
<linearGradient id="SVGID_6_" gradientUnits="userSpaceOnUse" x1="33.3356" y1="53.1843" x2="14.4956" y2="33.8543" gradientTransform="matrix(1 0 0 1 0 -21)">
	<stop  offset="0" style="stop-color:#A47C41"/>
	<stop  offset="4.000000e-02" style="stop-color:#AD884B"/>
	<stop  offset="0.12" style="stop-color:#BC9E5C"/>
	<stop  offset="0.22" style="stop-color:#C8AF6A"/>
	<stop  offset="0.34" style="stop-color:#D1BA73"/>
	<stop  offset="0.52" style="stop-color:#D6C178"/>
	<stop  offset="1" style="stop-color:#D7C37A"/>
</linearGradient>
<path class="st7" d="M25,17.4h-5.9v10.1c0,3.3,2.7,5.9,5.9,5.9s5.9-2.7,5.9-5.9c0,0,0,0,0,0V17.4H25z"/>
<linearGradient id="SVGID_7_" gradientUnits="userSpaceOnUse" x1="36.06" y1="61.73" x2="19.4" y2="42.73" gradientTransform="matrix(1 0 0 1 0 -21)">
	<stop  offset="0" style="stop-color:#A47C41"/>
	<stop  offset="4.000000e-02" style="stop-color:#AD884B"/>
	<stop  offset="0.12" style="stop-color:#BC9E5C"/>
	<stop  offset="0.22" style="stop-color:#C8AF6A"/>
	<stop  offset="0.34" style="stop-color:#D1BA73"/>
	<stop  offset="0.52" style="stop-color:#D6C178"/>
	<stop  offset="1" style="stop-color:#D7C37A"/>
</linearGradient>
<path class="st8" d="M29.1,32.7c1.5-1.2,2.5-2.9,2.6-4.8v-0.9h8.6l-0.3,4.2c-1.1,7-8.3,12.4-14.5,15.7V34.1c0.9,0,1.9-0.3,2.7-0.7
	v0.2c-0.1,0.3-0.2,0.7-0.2,1c0,0.2-0.2,0.3-0.4,0.3c-0.1,0-0.2-0.1-0.2-0.1c-0.3,0-0.5,0.2-0.5,0.5l0,0l0,0c0,0,0,0.1,0,0.1
	c-0.2,0.1-0.3,0.2-0.3,0.4c0,0.2,0.2,0.5,0.4,0.5c0,0,0,0,0,0h0.3c0.1,0.1,0.2,0.2,0.4,0.2c0.3,0,0.4-0.1,0.4-0.6
	c1.8-0.9,3.7-1.5,5.8-1.6c1,0.2,1.9,0.7,2.5,1.5c0.1,0.1,0.2,0.1,0.2-0.1c-0.1-1-0.7-1.8-1.6-2.2c0.1-0.4,0.7-0.4,0.9-0.5
	s0.1-0.2,0-0.2c-0.6-0.1-1.2,0.1-1.7,0.4c-0.3,0-0.6-0.1-0.9-0.1c0.1-0.5,0.4-0.8,0.8-1.1c-0.1,0,0.1-0.1,0-0.1
	c-0.8,0.1-1.4,0.7-1.7,1.4c-0.1,0-1.2,0.2-1.3,0.2c0.2-0.8,0.8-1.4,1.5-1.8c0.1-0.1,0.2-0.2,0-0.2c-1.5,0-2.6,2-2.6,2.4
	c-0.3,0.1-0.5,0.2-0.8,0.3c-0.1-0.5-0.1-0.9,0.1-1.4L29.1,32.7z"/>
<path d="M27.6,39.3c0,0.4-0.1,0.5-0.3,0.5c-0.1,0-0.2,0-0.3-0.1h-0.2c-0.2,0-0.4-0.2-0.4-0.3c0,0,0,0,0,0l0,0c0-0.1,0.1-0.3,0.2-0.3
	c0,0,0-0.1,0-0.1c0-0.2,0.2-0.4,0.4-0.4c0.1,0,0.1,0,0.2,0.1c0,0,0.3,0,0.4-0.2s0.5-2,1.7-2.2c0.1,0,0.1,0.1,0,0.1
	c-0.5,0.4-0.9,1.1-1,1.7c0.2-0.1,0.5-0.2,0.7-0.3c0.4-0.9,1.2-1.6,2.2-1.8c0.1,0,0.1,0.1,0,0.1s-1.1,0.6-1.2,1.4l0.9-0.2
	c0.3-0.6,1-1.1,1.7-1.1c0.1,0,0,0.2,0,0.1c-0.3,0.3-0.9,0.6-1,1c0.2,0,0.5,0,0.7,0c0.4-0.3,0.9-0.5,1.4-0.4c0.1,0,0.1,0.1,0,0.1
	s-0.5,0.2-0.6,0.5c0.6,0.3,1,0.8,1.1,1.4c0,0.1,0,0.1-0.1,0c-0.5-0.5-1.3-0.8-2-0.9C30.6,38.1,29,38.5,27.6,39.3z"/>
<path d="M27.2,42.3c0,0.3-0.1,0.4-0.3,0.4c-0.1,0-0.2,0-0.2-0.1c0,0-0.1,0-0.1,0c-0.1,0-0.2-0.1-0.2-0.3c0,0,0,0,0,0l0,0
	c0-0.1,0-0.2,0.1-0.2V42c0-0.1,0.1-0.3,0.3-0.3l0,0l0,0c0,0,0.1,0,0.1,0c0,0,0.2,0,0.2-0.2s0.1-1.4,0.8-1.5c0.1,0,0.1,0,0,0.1
	c-0.3,0.4-0.4,0.8-0.3,1.2c0.1-0.1,0.3-0.1,0.4-0.2c0-0.2,0.3-1.2,1.1-1.3c0.1,0,0.1,0.1,0,0.1c-0.3,0.3-0.4,0.6-0.5,1
	c0.1-0.1,0.4-0.1,0.5-0.1s0.6-0.9,1.2-0.9c0.1,0,0,0.1,0,0.1c-0.3,0.2-0.5,0.4-0.6,0.7c0.1,0,0.3,0,0.4,0c0.2-0.3,0.5-0.4,0.8-0.3
	c0.1,0,0,0.1,0,0.1c-0.1,0.1-0.2,0.2-0.3,0.3c0.6,0.3,0.8,0.5,0.9,0.8c0,0.1,0,0.1-0.1,0c-0.4-0.3-0.9-0.4-1.3-0.4
	C29.1,41.4,28.1,41.7,27.2,42.3z"/>
<path d="M20.1,26.4c0.1-0.2,0.2-0.4,0.2-0.5c0-0.1,0-0.2,0.1-0.3c0.1-0.1,0.2-0.2,0.3-0.4c0.1-0.1,0.3-0.1,0.4,0
	c0,0,0.1,0.1,0.1,0.1c0.1,0.3,0.3,0.9,0.8,1c-0.2,0.1-0.5,0.2-0.8,0.3c-0.2,0-0.4,0.1-0.3,0.6c0.1,0.3,0.1,0.6,0.1,0.9
	c-0.1,0.3,0,0.6,0.3,0.8l0.3,0.4c0.1,0.1,0.4,0.2,0.4,0s0.1-0.4-0.1-0.5c-0.2-0.1-0.3-0.2-0.3-0.4c0-0.2,0-0.4-0.1-0.5
	c-0.1-0.2-0.1-0.3-0.1-0.5c0-0.2,0.2-0.3,0.4-0.2s1.2,0.4,1.5,0c0.7,0.3,1.4,0.5,2.2,0.5c0.2,0.3,0.4,0.6,0.6,0.9
	c0.2,0.2,0.2,0.5,0,0.8c-0.2,0.2-0.5,0.4-0.8,0.6c-0.2,0-0.4,0.1-0.6,0.3c-0.1,0.1-0.2,0.1-0.3,0.3s-0.3,0.5,0,0.5s0.4-0.2,0.4-0.2
	s0-0.3,0.1-0.3c0.3,0,0.6-0.1,0.8-0.4c0.3-0.3,0.6-0.4,1-0.5c0.1,0,0.2-0.2,0.2-0.3l0,0c0-0.2,0-0.3,0.1-0.5c0.4,0.1,0.7,0.2,1,0.5
	c0,0.1,0.1,0.2,0.1,0.2c-0.1,0.1-0.2,0.3-0.3,0.4c-0.1,0.2-0.2,0.4-0.4,0.5c-0.2,0.1-0.4,0.3-0.6,0.5c-0.1,0.2-0.2,0.4-0.2,0.6
	c0,0.2,0.1,0.1,0.2,0.1s0.4-0.1,0.4-0.3s-0.1-0.2,0.2-0.3c0.3-0.1,0.5-0.4,0.7-0.6c0.1-0.3,0.3-0.5,0.6-0.7c0.2-0.1,0.2-0.3,0.1-0.5
	s-0.4-0.6-0.4-1s0.4-0.5,0.5-1c0.1-0.3,0.1-0.6,0-0.9c0.2,0,0.4,0,0.5,0.1c0.2,0.1,0.8,0.1,0.9-0.1c0-0.2,0-0.4,0-0.5
	c0.1-0.1,0.3-0.4,0.2-0.5c-0.1-0.1-0.1-0.3-0.1-0.5c-0.2,0-0.3-0.1-0.2-0.2c0.2-0.1,0.3-0.4,0.2-0.6c0-0.2,0-0.4-0.3-0.4
	c0-0.1-0.1-0.5-0.6-0.2c-0.1,0.1-0.2-0.1,0-0.1s0.7-0.2,0.8-0.4c0.1-0.1,0.1-0.3,0-0.4c0-0.1,0-0.2,0-0.3c0-0.1-0.2-0.1-0.3,0.2
	s-0.1,0.3-0.4,0.4s-0.6,0-0.8,0.4c-0.1,0.1-0.1,0.2-0.2,0.3c-0.1,0.1-0.2,0.2-0.3,0.4c0,0.2,0.1,0.3,0.1,0.5c-0.1,0.3,0,0.6,0.3,0.8
	c0.2,0.2,0.5,0.5,0.3,0.7s-0.4,0-0.6-0.1c-0.3-0.2-0.7-0.3-1.1-0.3c-0.6,0-1.2-0.2-1.8-0.5c-0.3-0.2-0.1-0.4,0-0.4
	c0.1,0,0.2-0.1,0.2-0.2c0-0.1,0.1-0.1,0.2-0.1c0.1,0,0.2,0,0.3-0.2s0.2-0.1,0.3-0.2c0.1,0,0.1-0.1,0.1-0.2c0-0.1-0.1-0.1-0.1-0.1
	c-0.2-0.1-0.3-0.1-0.3-0.2c0-0.1,0.2-0.2,0.3-0.2c0.2,0,0.2-0.1,0.2-0.2c0-0.1,0-0.2,0.1-0.2c0.1-0.1,0.1-0.2-0.1-0.2
	s-0.5-0.1-0.5-0.2c0-0.1,0.1-0.2,0.2-0.3c0.1,0,0.2-0.2-0.1-0.2s-0.4,0-0.5-0.1s-0.1-0.3,0.2-0.4c0.1,0,0.1-0.2-0.1-0.2
	s-0.5,0.1-0.5,0s-0.1-0.1,0-0.2c0,0,0-0.1,0-0.1c0,0,0,0-0.1,0c-0.1,0-0.5,0.2-0.6,0c-0.1-0.1-0.3-0.2-0.4-0.1
	c-0.1,0-0.1,0.2-0.1,0.2c0,0,0,0,0,0l0,0c0,0,0,0.1,0,0.1c0,0-0.1,0-0.1,0l0,0c0-0.1,0-0.1,0-0.2c0-0.1-0.1-0.1-0.1-0.2
	c-0.1,0-0.1-0.2,0-0.2s-0.1-0.2-0.2-0.1c-0.2,0.1-0.2,0.2-0.2,0.4c-0.1,0-0.5,0.1-0.5,0.2c0,0.1,0,0.2,0,0.3c0,0-0.1,0-0.2,0.1
	s-0.5,0.4-0.6,0.5c-0.1,0.1-0.2,0.2-0.2,0.3c-0.1,0.1-0.1,0.2-0.1,0.3c0.1,0.2,0.2,0.1,0.3,0.2s0.1,0.1,0.1,0.2s0.1,0.2,0.3,0
	s0.3-0.3,0.5-0.1s0,0.3-0.1,0.4c-0.2,0.2-0.4,0.5-0.6,0.7c-0.2,0.2-0.3,0.4-0.3,0.7c0,0.1-0.1,0.3-0.2,0.4c-0.3-0.1-0.5-0.2-0.7-0.4
	c-0.1-0.1-0.3-0.1-0.5,0l0,0c-0.2,0.3-0.4,0.6-0.6,0.9c-0.1,0.2-0.3,0.1-0.3,0.6c0,0.2-0.1,0.2-0.2,0.5c0,0.1-0.2,0.5,0,0.5
	C19.7,27,19.9,27,20,27C20.1,26.8,20.1,26.6,20.1,26.4z"/>
<linearGradient id="SVGID_8_" gradientUnits="userSpaceOnUse" x1="9.209" y1="43.1989" x2="30.379" y2="23.8589" gradientTransform="matrix(1 0 0 1 0 -21)">
	<stop  offset="0" style="stop-color:#A47C41"/>
	<stop  offset="4.000000e-02" style="stop-color:#AD884B"/>
	<stop  offset="0.12" style="stop-color:#BC9E5C"/>
	<stop  offset="0.22" style="stop-color:#C8AF6A"/>
	<stop  offset="0.34" style="stop-color:#D1BA73"/>
	<stop  offset="0.52" style="stop-color:#D6C178"/>
	<stop  offset="1" style="stop-color:#D7C37A"/>
</linearGradient>
<path class="st9" d="M18.4,16.7h6.3V8c-5.4,0-10.9,0.8-16.1,2.3l1.2,16.1h8.6v-3c-0.5-0.4-1.1-0.6-1.7-0.5c-1.4,0.2-2.7,0.9-3.6,1.9
	c0,0.5-0.3,0.6-0.5,0.6c-0.1,0-0.2-0.1-0.3-0.1c-0.2,0.1-0.4,0.1-0.6-0.1c0-0.1-0.1-0.2-0.1-0.2c0-0.2,0.1-0.3,0.3-0.4
	c0,0,0-0.1,0-0.1c0-0.2,0.2-0.4,0.4-0.4c0.1,0,0.1,0,0.2,0.1c0,0,0.2,0.1,0.2-0.1s0-2.6,1.2-2.9c0.1,0,0.1,0.1,0,0.1
	c-0.4,0.7-0.6,1.4-0.5,2.2c0.2-0.1,0.4-0.3,0.7-0.4c0.1-0.3,0.5-2.2,1.5-2.2c0.1,0,0.1,0.1,0,0.1c-0.4,0.4-0.6,1-0.6,1.5
	c0.2,0,0.4-0.1,0.6-0.1c0.1-0.2,0.5-1.5,1.3-1.6c0.1,0,0.1,0.1,0,0.2c-0.3,0.4-0.5,0.8-0.6,1.3c0.2,0,0.4,0,0.6,0
	c0.4-0.5,0.9-0.9,1.4-1.1v-2.6c-0.2-0.2-0.6-0.3-0.9-0.2c-1.6,0.2-3.1,0.7-4.3,1.7c0,0.6-0.4,0.8-0.7,0.8c-0.2,0-0.3-0.1-0.4-0.2
	c-0.1,0.1-0.2,0.1-0.3,0.1c-0.3,0-0.5-0.2-0.5-0.5l0,0l0,0c0-0.2,0.1-0.4,0.4-0.5v-0.1c0-0.3,0.2-0.6,0.5-0.6c0,0,0,0,0,0
	c0.1,0,0.2,0,0.3,0.1c0.1,0,0.4,0.1,0.4-0.2s0.5-3.1,2.2-3.3c0.2,0,0.1,0.1,0,0.2c-0.8,0.7-1.3,1.7-1.3,2.8c0.4-0.2,0.7-0.4,1.1-0.5
	c0.1-0.3,0.8-2.4,2.2-2.4c0.2,0,0.1,0.1,0,0.2c-0.6,0.4-1,1.2-1.1,1.9c0.2-0.1,0.8-0.2,0.9-0.2c0.2-0.8,0.9-1.4,1.7-1.6
	c0.1,0,0.1,0.1,0,0.2c-0.4,0.3-0.7,0.8-0.8,1.3c0.2,0,0.4,0,0.6,0.1L18.4,16.7z"/>
<path d="M12.9,15.1c0,0.7-0.4,0.9-0.8,0.9c-0.2,0-0.3-0.1-0.5-0.2c-0.1,0.1-0.2,0.1-0.4,0.1c-0.3,0-0.6-0.3-0.6-0.6
	c0-0.3,0.2-0.5,0.4-0.6c0,0,0-0.1,0-0.1c0-0.3,0.3-0.6,0.6-0.6c0.1,0,0.2,0,0.3,0.1c0.1,0,0.4,0.2,0.4-0.2s0.5-3.6,2.4-3.9
	c0.2,0,0.1,0.1,0,0.2c-0.9,0.8-1.5,2-1.4,3.2c0.2-0.1,1-0.5,1.3-0.6c0.1-0.5,0.8-2.9,2.4-2.9c0.2,0,0.1,0.1,0,0.2
	c-0.7,0.6-1.2,1.4-1.2,2.3c0.2-0.1,0.9-0.2,1-0.2c0.1-0.3,0.8-1.9,2-2.1c0.1,0,0.1,0.1,0,0.2c-0.5,0.4-0.9,1-1,1.7c0.3,0,0.7,0,1,0
	c0.4-0.6,1.1-0.9,1.8-1c0.1,0,0.1,0.1,0,0.2c-0.4,0.3-0.6,0.6-0.8,1.1c0.3,0.2,1.3,0.8,1.4,1.5c0,0.2-0.1,0.2-0.2,0.1
	c-0.7-0.5-1.5-0.9-2.3-0.9C16.7,13.2,14.7,13.9,12.9,15.1z"/>
<path d="M22.6,6.1v0.5h-0.8V6.2c0-0.3-0.2-0.7-0.5-0.7c0,0,0,0,0,0h-0.1L19,5.6v1.2h-0.8l-0.1-3l3.2-0.2c0.6,0,1.1,0.1,1.1,0.9
	c0,0.2-0.1,0.5-0.2,0.7C22.5,5.4,22.6,5.7,22.6,6.1z"/>
<path d="M9,8.7L8.8,5.7L12,5c0.4-0.1,1,0,1,0.7s-0.1,1-0.6,1.1L9.8,7.4l0.1,1.2L9,8.7z"/>
<linearGradient id="SVGID_9_" gradientUnits="userSpaceOnUse" x1="8.248" y1="28.2554" x2="26.758" y2="20.1454" gradientTransform="matrix(1 0 0 1 0 -21)">
	<stop  offset="0" style="stop-color:#A47C41"/>
	<stop  offset="0.51" style="stop-color:#D7C37A"/>
	<stop  offset="1" style="stop-color:#956730"/>
</linearGradient>
<path class="st10" d="M9.6,6.2v0.4l2.2-0.5C12,6.1,12.1,6,12,5.8c0-0.1-0.1-0.2-0.3-0.2L9.6,6.2z"/>
<path d="M13.4,5.3c0-0.3,0-0.7,0.8-0.8L16.8,4c0.3,0,1,0.2,1,0.7v1.5c0,0.3,0,0.7-0.8,0.8l-2.4,0.4c-0.4,0.1-1.1,0-1.1-0.8L13.4,5.3
	z"/>
<linearGradient id="SVGID_10_" gradientUnits="userSpaceOnUse" x1="8.8887" y1="29.7171" x2="27.3987" y2="21.6071" gradientTransform="matrix(1 0 0 1 0 -21)">
	<stop  offset="0" style="stop-color:#D7C37A"/>
	<stop  offset="1" style="stop-color:#956730"/>
</linearGradient>
<path class="st11" d="M14.2,5.6L14.2,5.6c0-0.2,0-0.5,0.4-0.5l2-0.3c0.2,0,0.4,0.1,0.4,0.3l0,0L17,6c0,0.2-0.2,0.4-0.4,0.4l-1.9,0.3
	c-0.3,0-0.4,0-0.5-0.3L14.2,5.6z"/>
<path d="M24.2,4.7c-0.1,0-0.3-0.1-0.3-0.2c0-0.1,0.1-0.3,0.2-0.3c0,0,0,0,0,0c0,0,0.1,0,0.1,0h3.1V3.5h-3.5c-0.2,0-0.8,0-0.8,0.9
	s0.6,0.9,0.8,0.9h2.4c0.1,0,0.3,0.1,0.3,0.3c0,0.1-0.1,0.2-0.2,0.2h-3.1v0.7h3.5c0.2,0,0.8,0,0.8-0.9s-0.6-0.9-0.8-0.9L24.2,4.7z"/>
<polygon points="32.8,3.9 32.6,7 33.3,7.1 33.4,5.8 36,6.3 35.9,7.6 36.6,7.7 36.8,4.6 36.1,4.4 36,5.7 33.5,5.2 33.5,4 "/>
<polygon points="37.3,7.8 37.5,4.7 41,5.4 41,6.1 38.2,5.5 38.2,6.1 40.9,6.6 40.9,7.3 38.1,6.7 38.1,7.3 40.8,7.9 40.8,8.5 "/>
<path d="M32.1,4.5V3.8l-3.2-0.3c-0.3,0-0.8,0-0.9,0.9s0,1.3,0,1.3c0,0.4,0.3,0.8,0.8,0.9L32,6.9V6.2L29.3,6c-0.3,0-0.5-0.1-0.5-0.6
	V4.8c0-0.3,0.1-0.5,0.5-0.5L32.1,4.5z"/>
<linearGradient id="SVGID_11_" gradientUnits="userSpaceOnUse" x1="20.5449" y1="29.1204" x2="20.0849" y2="23.2404" gradientTransform="matrix(1 0 0 1 0 -21)">
	<stop  offset="0" style="stop-color:#FFFAA6"/>
	<stop  offset="1" style="stop-color:#956730"/>
</linearGradient>
<path class="st12" d="M21.3,4.8L19,4.9V4.4l2.3-0.1c0.2,0,0.2,0.1,0.3,0.2S21.5,4.8,21.3,4.8z"/>
<path d="M19.9,19.3c0,0.2,0.1,0.3,0.3,0.3s0.2-0.1,0.2-0.2s0-0.1-0.1-0.1l-0.4-0.2c-0.2-0.1-0.3-0.2-0.3-0.4c0-0.3,0.2-0.5,0.4-0.5
	c0,0,0,0,0,0h0.1c0.3,0,0.5,0.2,0.5,0.4c0,0,0,0,0,0v0.1h-0.3c0-0.1-0.1-0.2-0.2-0.2c0,0,0,0-0.1,0c-0.1,0-0.2,0.1-0.2,0.2
	c0,0,0,0,0,0l0,0c0,0,0,0.1,0.1,0.1l0.4,0.2c0.2,0.1,0.3,0.2,0.3,0.4c0,0.3-0.2,0.5-0.4,0.5c0,0,0,0,0,0h-0.1
	c-0.2,0-0.4-0.1-0.5-0.2c-0.1-0.1-0.1-0.2-0.1-0.3L19.9,19.3z"/>
<polygon points="21.9,18.2 21.9,18.5 21.5,18.5 21.5,19.8 21.2,19.8 21.2,18.5 20.8,18.5 20.8,18.2 "/>
<path d="M23.1,18.2v1c0,0.4-0.1,0.6-0.5,0.6S22,19.6,22,19.2v-1h0.3v1c0,0.3,0.1,0.4,0.3,0.4s0.3-0.1,0.3-0.4v-1H23.1z"/>
<polygon points="24.3,18.2 24.3,18.5 23.9,18.5 23.9,19.8 23.7,19.8 23.7,18.5 23.3,18.5 23.3,18.2 "/>
<path d="M26.1,19h0.5v0.9h-0.2v-0.2c-0.1,0.1-0.2,0.2-0.4,0.2c-0.4,0-0.6-0.4-0.6-0.8s0.3-0.9,0.6-0.9c0.3,0,0.6,0.2,0.6,0.5h-0.3
	c0-0.2-0.1-0.2-0.3-0.2s-0.4,0.2-0.4,0.5s0.1,0.5,0.4,0.5s0.3-0.1,0.3-0.3h-0.3L26.1,19z"/>
<polygon points="27.3,18.2 27.6,18.2 28.1,19.8 27.8,19.8 27.7,19.5 27.2,19.5 27.1,19.8 26.9,19.8 "/>
<path d="M28.8,18.2c0.2,0,0.3,0,0.3,0.1c0.1,0.1,0.2,0.2,0.1,0.4c0,0.2-0.1,0.3-0.2,0.4c0.1,0.1,0.1,0.1,0.2,0.4c0,0.1,0,0.2,0,0.4
	H29c0-0.1,0-0.2,0-0.2c0-0.2,0-0.4-0.2-0.4h-0.2v0.6h-0.3v-1.6H28.8z"/>
<polygon points="30.5,18.2 30.5,18.5 30.1,18.5 30.1,19.8 29.9,19.8 29.9,18.5 29.5,18.5 29.5,18.2 "/>
<polygon points="25.5,18.2 25.5,18.5 25.1,18.5 25.1,19.8 24.9,19.8 24.9,18.5 24.5,18.5 24.5,18.2 "/>
<linearGradient id="SVGID_12_" gradientUnits="userSpaceOnUse" x1="30.1574" y1="41.6741" x2="24.8874" y2="38.3241" gradientTransform="matrix(1 0 0 1 0 -21)">
	<stop  offset="0" style="stop-color:#FFFAA6"/>
	<stop  offset="1" style="stop-color:#956730"/>
</linearGradient>
<polygon class="st13" points="27.6,19.2 27.5,18.6 27.3,19.2 "/>
<linearGradient id="SVGID_13_" gradientUnits="userSpaceOnUse" x1="27.9762" y1="38.0017" x2="29.3262" y2="41.0317" gradientTransform="matrix(1 0 0 1 0 -21)">
	<stop  offset="0" style="stop-color:#FFFAA6"/>
	<stop  offset="1" style="stop-color:#956730"/>
</linearGradient>
<path class="st14" d="M28.5,18.9h0.3c0.2,0,0.2,0,0.2-0.2s-0.1-0.2-0.2-0.2h-0.3V18.9z"/>
<linearGradient id="SVGID_14_" gradientUnits="userSpaceOnUse" x1="24.7344" y1="47.0818" x2="25.5244" y2="36.2918" gradientTransform="matrix(1 0 0 1 0 -21)">
	<stop  offset="0" style="stop-color:#A47C41"/>
	<stop  offset="0.51" style="stop-color:#D7C37A"/>
	<stop  offset="1" style="stop-color:#956730"/>
</linearGradient>
<path class="st15" d="M25.3,22.6c0.1,0.4,0.1,0.9-0.1,1.2c0,0,0,0,0,0.1h-0.1c-0.1,0-0.1,0-0.2,0v-0.1c-0.2-0.4,0.1-0.8,0.1-1.2
	c0-0.1,0-0.2-0.1-0.3c-0.1-0.2-0.2-0.4-0.3-0.6c0-0.2,0.1-0.3,0.3-0.2C25.1,21.8,25.3,22.3,25.3,22.6z"/>
</svg>
