<?xml version="1.0" encoding="utf-8"?>
<!-- Generator: Adobe Illustrator 22.1.0, SVG Export Plug-In . SVG Version: 6.00 Build 0)  -->
<svg version="1.1" id="Layer_1" xmlns="http://www.w3.org/2000/svg" xmlns:xlink="http://www.w3.org/1999/xlink" x="0px" y="0px"
	 viewBox="0 0 50 50" style="enable-background:new 0 0 50 50;" xml:space="preserve">
<style type="text/css">
	.st0{fill:none;}
	.st1{clip-path:url(#SVGID_2_);}
	.st2{fill:url(#SVGID_3_);}
	.st3{clip-path:url(#SVGID_6_);}
	.st4{clip-path:url(#SVGID_7_);}
	.st5{clip-path:url(#SVGID_9_);}
	.st6{fill:url(#SVGID_10_);}
	.st7{fill:url(#SVGID_11_);}
	.st8{clip-path:url(#SVGID_13_);}
	.st9{fill:url(#SVGID_14_);}
	.st10{clip-path:url(#SVGID_16_);}
	.st11{fill:url(#SVGID_17_);}
	.st12{clip-path:url(#SVGID_19_);}
	.st13{fill:url(#SVGID_20_);}
	.st14{clip-path:url(#SVGID_22_);}
	.st15{fill:url(#SVGID_23_);}
	.st16{clip-path:url(#SVGID_25_);}
	.st17{fill:url(#SVGID_26_);}
	.st18{clip-path:url(#SVGID_28_);}
	.st19{fill:url(#SVGID_29_);}
	.st20{clip-path:url(#SVGID_31_);}
	.st21{fill:url(#SVGID_32_);}
	.st22{clip-path:url(#SVGID_34_);}
	.st23{fill:url(#SVGID_35_);}
	.st24{clip-path:url(#SVGID_37_);}
	.st25{fill:url(#SVGID_38_);}
	.st26{clip-path:url(#SVGID_40_);}
	.st27{fill:url(#SVGID_41_);}
	.st28{clip-path:url(#SVGID_43_);}
	.st29{fill:url(#SVGID_44_);}
	.st30{clip-path:url(#SVGID_46_);}
	.st31{fill:url(#SVGID_47_);}
	.st32{clip-path:url(#SVGID_49_);}
	.st33{clip-path:url(#SVGID_51_);}
	.st34{clip-path:url(#SVGID_53_);}
	.st35{fill:url(#SVGID_54_);}
</style>
<title>renault</title>
<line class="st0" x1="7.4" y1="4.5" x2="9.3" y2="29.1"/>
<g>
	<defs>
		<path id="SVGID_1_" d="M24.7,36.1c-1.9-3.6-3.2-6.1-5-10.2c-0.2-0.3-0.2-0.6-0.3-0.9c0-0.3,0.1-0.6,0.3-0.9c1.8-4,3.1-6.5,5-10.2
			c0.1-0.2,0.2-0.3,0.3-0.3l0,0c0.1,0,0.2,0.1,0.3,0.3c1.9,3.6,3.2,6.1,5,10.2c0.2,0.3,0.2,0.6,0.3,0.9c0,0.3-0.1,0.6-0.3,0.9
			c-1.8,4-3.1,6.5-5,10.2c-0.1,0.2-0.2,0.3-0.3,0.3S24.8,36.3,24.7,36.1 M19.9,2.5c-0.1,0-0.2,0-0.3,0.1c-0.1,0.1-0.2,0.2-0.3,0.3
			c-0.4,0.6-4.6,7.6-7.3,12.4c-1.9,3.5-3.8,7.1-4.6,8.8c-0.1,0.3-0.2,0.6-0.2,0.9c0,0.3,0.1,0.6,0.2,0.9c0.8,1.7,2.7,5.4,4.6,8.8
			c2.7,4.9,6.9,11.8,7.3,12.4c0.1,0.1,0.1,0.2,0.2,0.2c0.1,0.1,0.2,0.2,0.3,0.2c0.2,0,0.3,0,0.5,0h0.3c1.1,0,2.7,0.1,4.5,0.1
			c2.2,0,4.7-0.1,5.1-0.1h0.1c0.1,0,0.2,0,0.3-0.1c0.1,0,0.2-0.1,0.3-0.4c0.4-0.6,4.6-7.5,7.3-12.4c1.9-3.5,3.8-7.1,4.6-8.8
			c0.1-0.3,0.2-0.6,0.2-0.9c0-0.3-0.1-0.6-0.2-0.8c-0.8-1.7-2.7-5.4-4.6-8.8c-2.7-4.9-6.9-11.8-7.3-12.4c-0.1-0.1-0.2-0.2-0.3-0.3
			c0,0-0.1-0.1-0.2-0.1c-0.2,0-0.3,0-0.5,0h-0.3c-0.9,0-2.7-0.1-4.5-0.1C22.8,2.4,20.2,2.4,19.9,2.5"/>
	</defs>
	<clipPath id="SVGID_2_">
		<use xlink:href="#SVGID_1_"  style="overflow:visible;"/>
	</clipPath>
	<g class="st1">
		
			<linearGradient id="SVGID_3_" gradientUnits="userSpaceOnUse" x1="-462.951" y1="-255.3302" x2="-461.911" y2="-255.3302" gradientTransform="matrix(0 -43.28 43.28 0 11075.6895 -19988.1094)">
			<stop  offset="0" style="stop-color:#E5E5E8"/>
			<stop  offset="0.69" style="stop-color:#FFFFFF"/>
			<stop  offset="0.99" style="stop-color:#A5A8AF"/>
			<stop  offset="1" style="stop-color:#A2A5AC"/>
		</linearGradient>
		<rect x="7.1" y="2.4" class="st2" width="35.8" height="45.2"/>
	</g>
</g>
<g>
	<g>
		<defs>
			<rect id="SVGID_4_" x="7.1" y="2.4" width="35.8" height="45.2"/>
		</defs>
		<defs>
			<path id="SVGID_5_" d="M17.7,25c-0.3,0.2-0.7,0.3-1.1,0.3h-8c-0.4,0-0.8,0-0.8,0.5c0.2,0.7,0.5,1.5,0.9,2.1
				c3.2,6.2,6.7,12.4,10.5,18.4c0,0,0.6,0.9,0.6,1c0.1,0.1,0.2,0.1,0.3,0.1c1.6-3,3-6,4.3-9.2c-2.1-4-4.1-7.9-6-11.8
				c-0.2-0.4-0.4-0.9-0.5-1.4c0,0,0-0.1,0-0.1v-0.1L17.7,25"/>
		</defs>
		<clipPath id="SVGID_6_">
			<use xlink:href="#SVGID_4_"  style="overflow:visible;"/>
		</clipPath>
		<clipPath id="SVGID_7_" class="st3">
			<use xlink:href="#SVGID_5_"  style="overflow:visible;"/>
		</clipPath>
		<g class="st4">
			<g>
				<defs>
					<path id="SVGID_8_" d="M25,13.6c0.1,0,0.2,0.1,0.3,0.4c1.9,3.6,3.2,6.2,5,10.2c0.2,0.3,0.2,0.6,0.3,0.9c0,0.3-0.1,0.6-0.3,0.9
						c-1.8,4-3.1,6.5-5,10.2c-0.1,0.2-0.2,0.3-0.3,0.3s-0.2-0.1-0.3-0.3c-1.9-3.6-3.2-6.1-5-10.2c-0.2-0.3-0.2-0.6-0.3-0.9
						c0-0.3,0.1-0.6,0.3-0.9c1.8-4,3.1-6.5,5-10.2C24.8,13.7,24.9,13.6,25,13.6L25,13.6z M19.9,2.5c-0.1,0-0.2,0-0.3,0.1
						c-0.1,0.1-0.2,0.2-0.3,0.3c-0.4,0.6-4.6,7.6-7.3,12.4c-1.9,3.5-3.8,7.1-4.6,8.8c-0.1,0.3-0.2,0.6-0.2,0.9
						c0,0.3,0.1,0.6,0.2,0.9c0.8,1.7,2.7,5.4,4.6,8.8c2.7,4.9,6.9,11.8,7.3,12.4c0.1,0.1,0.1,0.2,0.2,0.2c0.1,0.1,0.2,0.2,0.3,0.2
						c0.2,0,0.3,0,0.5,0h0.3c1.1,0,2.7,0.1,4.4,0.1H25c2.2,0,4.7-0.1,5.1-0.1h0.1c0.1,0,0.2,0,0.3-0.1c0.1,0,0.2-0.1,0.3-0.4
						c0.4-0.6,4.6-7.5,7.3-12.4c1.9-3.5,3.8-7.1,4.6-8.8c0.1-0.3,0.2-0.6,0.2-0.9c0-0.3-0.1-0.6-0.2-0.8c-0.8-1.7-2.7-5.4-4.6-8.8
						c-2.7-4.9-6.9-11.8-7.3-12.4c-0.1-0.1-0.2-0.2-0.3-0.3c0,0-0.1-0.1-0.2-0.1c-0.2,0-0.3,0-0.5,0h-0.3c-0.9,0-2.7-0.1-4.5-0.1
						C22.8,2.4,20.2,2.4,19.9,2.5"/>
				</defs>
				<clipPath id="SVGID_9_">
					<use xlink:href="#SVGID_8_"  style="overflow:visible;"/>
				</clipPath>
				<g class="st5">
					
						<radialGradient id="SVGID_10_" cx="-461.7173" cy="-241.1683" r="1.05" gradientTransform="matrix(21.58 0 0 21.66 9986.0498 5237.54)" gradientUnits="userSpaceOnUse">
						<stop  offset="0" style="stop-color:#FFFFFF"/>
						<stop  offset="0.4" style="stop-color:#FFFFFF"/>
						<stop  offset="0.98" style="stop-color:#A5A8AF"/>
						<stop  offset="1" style="stop-color:#A2A5AC"/>
					</radialGradient>
					<rect x="7.1" y="2.4" class="st6" width="35.8" height="45.2"/>
				</g>
			</g>
		</g>
		<g class="st4">
			
				<linearGradient id="SVGID_11_" gradientUnits="userSpaceOnUse" x1="-469.0891" y1="-257.7692" x2="-468.0391" y2="-257.7692" gradientTransform="matrix(0 -21.32 21.32 0 5511.6899 -9953.0898)">
				<stop  offset="0" style="stop-color:#E5E5E8"/>
				<stop  offset="1.000000e-02" style="stop-color:#E5E5E8"/>
				<stop  offset="0.34" style="stop-color:#B1B5BB"/>
				<stop  offset="0.54" style="stop-color:#7F8288"/>
				<stop  offset="0.69" style="stop-color:#55585E"/>
				<stop  offset="0.85" style="stop-color:#3C3E42"/>
				<stop  offset="0.9" style="stop-color:#313337"/>
				<stop  offset="0.95" style="stop-color:#242529"/>
				<stop  offset="0.96" style="stop-color:#27292D"/>
				<stop  offset="0.97" style="stop-color:#323438"/>
				<stop  offset="0.98" style="stop-color:#44464B"/>
				<stop  offset="0.99" style="stop-color:#5D6065"/>
				<stop  offset="1" style="stop-color:#7D8187"/>
				<stop  offset="1" style="stop-color:#81858B"/>
			</linearGradient>
			<rect x="7.8" y="24.9" class="st7" width="16.6" height="22.6"/>
		</g>
	</g>
	<g>
		<defs>
			<path id="SVGID_12_" d="M42.5,25.1c-0.3,0.2-0.6,0.2-0.9,0.2H35c-3,0-2.7-0.1-3.5,1.5c-0.3,0.7-0.7,1.5-1.1,2.2
				c-2.6,5.5-9.1,16.6-9.9,18c-0.3,0.5-0.4,0.5-0.1,0.5c0,0,2.2,0.1,4.6,0.1c3.8,0,5.1-0.1,5.1-0.1c2.2-3.4,7.4-12.1,11.2-19.6
				C42.2,26.2,42.6,25.4,42.5,25.1L42.5,25.1C42.5,25.1,42.5,25.1,42.5,25.1"/>
		</defs>
		<clipPath id="SVGID_13_">
			<use xlink:href="#SVGID_12_"  style="overflow:visible;"/>
		</clipPath>
		<g class="st8">
			
				<linearGradient id="SVGID_14_" gradientUnits="userSpaceOnUse" x1="-469.0686" y1="-257.716" x2="-468.0286" y2="-257.716" gradientTransform="matrix(0 -21.34 21.34 0 5531.0498 -9961.7803)">
				<stop  offset="0" style="stop-color:#E5E5E8"/>
				<stop  offset="1.000000e-02" style="stop-color:#E5E5E8"/>
				<stop  offset="0.34" style="stop-color:#B1B5BB"/>
				<stop  offset="0.54" style="stop-color:#7F8288"/>
				<stop  offset="0.69" style="stop-color:#55585E"/>
				<stop  offset="0.85" style="stop-color:#3C3E42"/>
				<stop  offset="0.9" style="stop-color:#313337"/>
				<stop  offset="0.95" style="stop-color:#242529"/>
				<stop  offset="0.96" style="stop-color:#27292D"/>
				<stop  offset="0.97" style="stop-color:#323438"/>
				<stop  offset="0.98" style="stop-color:#44464B"/>
				<stop  offset="0.99" style="stop-color:#5D6065"/>
				<stop  offset="1" style="stop-color:#7D8187"/>
				<stop  offset="1" style="stop-color:#81858B"/>
			</linearGradient>
			<rect x="20.1" y="25" class="st9" width="22.5" height="22.6"/>
		</g>
	</g>
	<g>
		<defs>
			<path id="SVGID_15_" d="M30,2.5c-0.2,0-0.3,0.1-0.5,0.5c-1.9,2.9-8.3,15-10.9,20.6c-0.3,0.4-0.4,0.9-0.5,1.4h1.4
				c0-0.3,0.1-0.6,0.3-0.9c1.8-4,3.1-6.5,5-10.2c0.1-0.2,0.2-0.3,0.3-0.3l0.5-1.6C27.4,7.4,30,2.5,30,2.5L30,2.5"/>
		</defs>
		<clipPath id="SVGID_16_">
			<use xlink:href="#SVGID_15_"  style="overflow:visible;"/>
		</clipPath>
		<g class="st10">
			
				<linearGradient id="SVGID_17_" gradientUnits="userSpaceOnUse" x1="-468.9456" y1="-257.6897" x2="-467.9055" y2="-257.6897" gradientTransform="matrix(0 -21.48 21.48 0 5559.2002 -10047.1299)">
				<stop  offset="0" style="stop-color:#55585E"/>
				<stop  offset="1.000000e-02" style="stop-color:#494B50"/>
				<stop  offset="2.000000e-02" style="stop-color:#3F4146"/>
				<stop  offset="4.000000e-02" style="stop-color:#3C3E42"/>
				<stop  offset="0.11" style="stop-color:#3A3C3F"/>
				<stop  offset="0.16" style="stop-color:#323337"/>
				<stop  offset="0.19" style="stop-color:#242528"/>
				<stop  offset="0.23" style="stop-color:#111213"/>
				<stop  offset="0.25" style="stop-color:#000000"/>
				<stop  offset="1" style="stop-color:#000000"/>
			</linearGradient>
			<rect x="18.1" y="2.5" class="st11" width="11.9" height="22.5"/>
		</g>
	</g>
	<g>
		<defs>
			<path id="SVGID_18_" d="M25,13.6L25,13.6c0.1,0,0.2,0.1,0.3,0.3c1.9,3.6,3.2,6.2,5,10.2c0.2,0.3,0.2,0.6,0.3,0.9h1.4
				c-0.1-0.5-0.2-0.9-0.5-1.4c-1.8-3.9-3.7-7.6-5.9-11.6L25,13.6z"/>
		</defs>
		<clipPath id="SVGID_19_">
			<use xlink:href="#SVGID_18_"  style="overflow:visible;"/>
		</clipPath>
		<g class="st12">
			
				<linearGradient id="SVGID_20_" gradientUnits="userSpaceOnUse" x1="-477.6445" y1="-261.2353" x2="-476.5945" y2="-261.2353" gradientTransform="matrix(0 -12.43 12.43 0 3275.6099 -5913.1099)">
				<stop  offset="0" style="stop-color:#8B8E94"/>
				<stop  offset="0.16" style="stop-color:#86898F"/>
				<stop  offset="0.35" style="stop-color:#797B81"/>
				<stop  offset="0.55" style="stop-color:#626569"/>
				<stop  offset="0.76" style="stop-color:#434549"/>
				<stop  offset="0.8" style="stop-color:#3C3E42"/>
				<stop  offset="0.83" style="stop-color:#383A3E"/>
				<stop  offset="0.86" style="stop-color:#2D2E31"/>
				<stop  offset="0.89" style="stop-color:#1A1B1D"/>
				<stop  offset="0.92" style="stop-color:#000000"/>
				<stop  offset="1" style="stop-color:#000000"/>
			</linearGradient>
			<rect x="25" y="12" class="st13" width="6.9" height="13"/>
		</g>
	</g>
	<g>
		<defs>
			<path id="SVGID_21_" d="M18.6,26.4c1.8,3.9,3.7,7.6,5.9,11.6l0.6-1.6c-0.1,0-0.2-0.1-0.3-0.3c-1.9-3.6-3.2-6.1-5-10.2
				c-0.2-0.3-0.2-0.6-0.3-0.9h-1.3C18.1,25.5,18.3,25.9,18.6,26.4"/>
		</defs>
		<clipPath id="SVGID_22_">
			<use xlink:href="#SVGID_21_"  style="overflow:visible;"/>
		</clipPath>
		<g class="st14">
			
				<linearGradient id="SVGID_23_" gradientUnits="userSpaceOnUse" x1="-477.6739" y1="-261.16" x2="-476.6339" y2="-261.16" gradientTransform="matrix(0 -12.44 12.44 0 3270.3699 -5903.9702)">
				<stop  offset="0" style="stop-color:#C6C8CC"/>
				<stop  offset="0.36" style="stop-color:#C6C8CC"/>
				<stop  offset="0.49" style="stop-color:#C1C3C8"/>
				<stop  offset="0.65" style="stop-color:#B4B6BB"/>
				<stop  offset="0.81" style="stop-color:#9DA0A5"/>
				<stop  offset="0.96" style="stop-color:#81858B"/>
				<stop  offset="1" style="stop-color:#55585E"/>
			</linearGradient>
			<rect x="18.1" y="25" class="st15" width="6.9" height="13"/>
		</g>
	</g>
	<g>
		<defs>
			<path id="SVGID_24_" d="M18.6,26.4c1.8,3.9,3.7,7.6,5.9,11.6l0.6-1.6c-0.1,0-0.2-0.1-0.3-0.3c-1.9-3.6-3.2-6.1-5-10.2
				c-0.2-0.3-0.2-0.6-0.3-0.9h-1.3C18.1,25.5,18.3,25.9,18.6,26.4"/>
		</defs>
		<clipPath id="SVGID_25_">
			<use xlink:href="#SVGID_24_"  style="overflow:visible;"/>
		</clipPath>
		<g class="st16">
			<g>
				
					<linearGradient id="SVGID_26_" gradientUnits="userSpaceOnUse" x1="-458.0349" y1="-275.3246" x2="-456.9949" y2="-275.3246" gradientTransform="matrix(-11.3123 -5.1029 5.1029 -11.3123 -3750.8677 -5418.5552)">
					<stop  offset="0" style="stop-color:#F1F2F1"/>
					<stop  offset="1.000000e-02" style="stop-color:#F1F2F1"/>
					<stop  offset="0.11" style="stop-color:#EEEDEE"/>
					<stop  offset="1" style="stop-color:#EEEDEE"/>
				</linearGradient>
				<polygon class="st17" points="13.2,35.8 19.2,22.4 29.9,27.2 23.8,40.6 				"/>
			</g>
		</g>
	</g>
	<g>
		<defs>
			<path id="SVGID_27_" d="M30.5,25c0,0.3-0.1,0.6-0.3,0.9c-1.8,4-3.1,6.5-5,10.2c-0.1,0.2-0.2,0.3-0.3,0.3L24.5,38
				c-1.3,3.2-2.8,6.4-4.5,9.5c0.2,0,0.3-0.2,0.5-0.5l0.2-0.4c1.4-2.4,8.2-14.9,10.7-20.2c0.3-0.4,0.4-0.9,0.5-1.4H30.5"/>
		</defs>
		<clipPath id="SVGID_28_">
			<use xlink:href="#SVGID_27_"  style="overflow:visible;"/>
		</clipPath>
		<g class="st18">
			
				<linearGradient id="SVGID_29_" gradientUnits="userSpaceOnUse" x1="-468.9955" y1="-257.7461" x2="-467.9456" y2="-257.7461" gradientTransform="matrix(0 -21.48 21.48 0 5562.3403 -10027.04)">
				<stop  offset="0" style="stop-color:#FFFFFF"/>
				<stop  offset="0.23" style="stop-color:#F9F9FA"/>
				<stop  offset="0.55" style="stop-color:#E8E9EA"/>
				<stop  offset="0.91" style="stop-color:#CCCED1"/>
				<stop  offset="0.97" style="stop-color:#C6C8CC"/>
				<stop  offset="0.99" style="stop-color:#8B8E94"/>
				<stop  offset="1" style="stop-color:#8B8E94"/>
			</linearGradient>
			<rect x="20" y="25" class="st19" width="11.9" height="22.5"/>
		</g>
	</g>
	<g>
		<defs>
			<path id="SVGID_30_" d="M6.2,25c0,0.4,0.1,0.9,0.3,1.3c0.6,1.4,2.4,4.8,4.6,8.9c2.4,4.5,6.9,11.9,7.4,12.5
				c0.1,0.2,0.3,0.4,0.5,0.5l0.4-0.8c-0.1-0.1-0.1-0.1-0.2-0.2c-0.4-0.6-4.6-7.5-7.3-12.4c-1.9-3.5-3.8-7.1-4.6-8.8
				c-0.1-0.3-0.2-0.6-0.2-0.9H6.2z"/>
		</defs>
		<clipPath id="SVGID_31_">
			<use xlink:href="#SVGID_30_"  style="overflow:visible;"/>
		</clipPath>
		<g class="st20">
			
				<linearGradient id="SVGID_32_" gradientUnits="userSpaceOnUse" x1="-468.6104" y1="-257.5878" x2="-467.5604" y2="-257.5878" gradientTransform="matrix(0 -22.2 22.2 0 5731.25 -10354.5098)">
				<stop  offset="0" style="stop-color:#81858B"/>
				<stop  offset="0.12" style="stop-color:#7D8086"/>
				<stop  offset="0.56" style="stop-color:#707379"/>
				<stop  offset="0.97" style="stop-color:#6C6F75"/>
				<stop  offset="0.99" style="stop-color:#8E9197"/>
				<stop  offset="1" style="stop-color:#9EA2A8"/>
			</linearGradient>
			<rect x="6.2" y="25" class="st21" width="13.2" height="23.2"/>
		</g>
	</g>
	<g>
		<defs>
			<path id="SVGID_33_" d="M19.1,48.2c0.2,0.1,0.5,0.2,0.7,0.2c0.7,0,3.6,0.1,5.2,0.1s4.8-0.1,5.2-0.1c0.2,0,0.4-0.1,0.6-0.1
				l-0.4-0.8c-0.1,0-0.2,0.1-0.3,0.1h-0.1c-0.4,0-2.9,0.1-5.1,0.1c-1.8,0-3.4,0-4.5-0.1h-0.3c-0.2,0-0.3,0-0.5,0
				c-0.1,0-0.2-0.1-0.3-0.2L19.1,48.2z"/>
		</defs>
		<clipPath id="SVGID_34_">
			<use xlink:href="#SVGID_33_"  style="overflow:visible;"/>
		</clipPath>
		<g class="st22">
			
				<linearGradient id="SVGID_35_" gradientUnits="userSpaceOnUse" x1="-452.9307" y1="-225.3176" x2="-451.8807" y2="-225.3176" gradientTransform="matrix(8.5477 4.935 -4.935 8.5477 2780.4863 4206.7866)">
				<stop  offset="0" style="stop-color:#81858B"/>
				<stop  offset="2.000000e-02" style="stop-color:#81858B"/>
				<stop  offset="4.000000e-02" style="stop-color:#6E7277"/>
				<stop  offset="6.000000e-02" style="stop-color:#595C61"/>
				<stop  offset="8.000000e-02" style="stop-color:#4C4F54"/>
				<stop  offset="0.1" style="stop-color:#484A4F"/>
				<stop  offset="1" style="stop-color:#484A4F"/>
			</linearGradient>
			<polygon class="st23" points="18.6,48.2 22,42.3 31.3,47.7 27.9,53.6 			"/>
		</g>
	</g>
	<g>
		<defs>
			<path id="SVGID_36_" d="M30.5,2.5c0.1,0.1,0.2,0.2,0.3,0.3c0.4,0.6,4.6,7.6,7.3,12.4c1.9,3.5,3.8,7.1,4.6,8.8
				c0.1,0.3,0.2,0.5,0.2,0.8l0.9,0.1l0,0c0-0.4-0.1-0.9-0.3-1.3c-0.7-1.4-2.8-5.6-4.6-8.9C36.5,10.5,32,3,31.5,2.3
				c-0.2-0.3-0.4-0.5-0.7-0.6L30.5,2.5z"/>
		</defs>
		<clipPath id="SVGID_37_">
			<use xlink:href="#SVGID_36_"  style="overflow:visible;"/>
		</clipPath>
		<g class="st24">
			
				<linearGradient id="SVGID_38_" gradientUnits="userSpaceOnUse" x1="-455.4383" y1="-240.3953" x2="-454.3883" y2="-240.3953" gradientTransform="matrix(18.9464 10.3728 -10.3728 18.9464 6163.439 9287.2227)">
				<stop  offset="0" style="stop-color:#787A80"/>
				<stop  offset="1" style="stop-color:#8B8E94"/>
			</linearGradient>
			<polygon class="st25" points="20.7,19.6 33.5,-3.9 53.6,7.1 40.7,30.6 			"/>
		</g>
	</g>
	<g>
		<defs>
			<path id="SVGID_39_" d="M19.7,1.6c-0.2,0-0.4,0.1-0.5,0.1l0.4,0.8c0.1-0.1,0.2-0.1,0.3-0.1c0.3,0,3-0.1,5.1-0.1
				c1.8,0,3.6,0,4.5,0.1h0.3c0.2,0,0.3,0,0.5,0c0.1,0,0.1,0,0.2,0.1l0.3-0.8c-0.2-0.1-0.4-0.1-0.6-0.1c-0.7-0.1-3.6-0.1-5.2-0.1
				C23.6,1.5,20.5,1.5,19.7,1.6"/>
		</defs>
		<clipPath id="SVGID_40_">
			<use xlink:href="#SVGID_39_"  style="overflow:visible;"/>
		</clipPath>
		<g class="st26">
			
				<linearGradient id="SVGID_41_" gradientUnits="userSpaceOnUse" x1="-454.4887" y1="-278.5725" x2="-453.4388" y2="-278.5725" gradientTransform="matrix(-10.2663 -2.9438 2.9438 -10.2663 -3814.8342 -4194.084)">
				<stop  offset="0" style="stop-color:#787A80"/>
				<stop  offset="1.000000e-02" style="stop-color:#787A80"/>
				<stop  offset="2.000000e-02" style="stop-color:#85888E"/>
				<stop  offset="4.000000e-02" style="stop-color:#9DA1A7"/>
				<stop  offset="6.000000e-02" style="stop-color:#ACB0B6"/>
				<stop  offset="7.000000e-02" style="stop-color:#B1B5BB"/>
				<stop  offset="0.5" style="stop-color:#C4C8CB"/>
				<stop  offset="1" style="stop-color:#C6C8CC"/>
			</linearGradient>
			<polygon class="st27" points="18.9,2.5 20.1,-1.6 31.1,1.6 29.9,5.6 			"/>
		</g>
	</g>
	<g>
		<defs>
			<path id="SVGID_42_" d="M18.5,2.4c-0.5,0.7-5,8.2-7.4,12.5c-1.7,3-4.4,8.3-4.6,8.9c-0.2,0.4-0.3,0.8-0.3,1.3h0.9
				c0-0.3,0.1-0.6,0.2-0.9c0.8-1.7,2.7-5.4,4.6-8.8c2.7-4.9,6.9-11.8,7.3-12.4c0.1-0.1,0.2-0.2,0.3-0.3l-0.4-0.8
				C18.9,1.9,18.7,2.1,18.5,2.4"/>
		</defs>
		<clipPath id="SVGID_43_">
			<use xlink:href="#SVGID_42_"  style="overflow:visible;"/>
		</clipPath>
		<g class="st28">
			
				<linearGradient id="SVGID_44_" gradientUnits="userSpaceOnUse" x1="-466.5655" y1="-242.5966" x2="-465.5155" y2="-242.5966" gradientTransform="matrix(18.3075 -7.0276 7.0276 18.3075 10248.3408 1180.1122)">
				<stop  offset="0" style="stop-color:#9EA2A8"/>
				<stop  offset="0.99" style="stop-color:#8B8E94"/>
				<stop  offset="1" style="stop-color:#C6C8CC"/>
			</linearGradient>
			<polygon class="st29" points="-1.6,4.7 17.8,-2.7 27.3,22 7.9,29.5 			"/>
		</g>
	</g>
	<g>
		<defs>
			<path id="SVGID_45_" d="M30.5,47.5L30.5,47.5 M42.7,25.9c-0.8,1.7-2.7,5.4-4.6,8.8c-2.7,4.9-6.9,11.8-7.3,12.4
				c-0.2,0.2-0.2,0.3-0.3,0.4l0.4,0.8c0.3-0.1,0.5-0.4,0.7-0.6C32,47,36.8,39,38.9,35.1s4.4-8.3,4.6-8.9c0.2-0.4,0.3-0.8,0.3-1.3
				l-0.9-0.1C42.9,25.3,42.8,25.6,42.7,25.9"/>
		</defs>
		<clipPath id="SVGID_46_">
			<use xlink:href="#SVGID_45_"  style="overflow:visible;"/>
		</clipPath>
		<g class="st30">
			
				<linearGradient id="SVGID_47_" gradientUnits="userSpaceOnUse" x1="-468.548" y1="-257.5466" x2="-467.498" y2="-257.5466" gradientTransform="matrix(0 -22.32 22.32 0 5785.5698 -10410.04)">
				<stop  offset="0" style="stop-color:#484A4F"/>
				<stop  offset="2.000000e-02" style="stop-color:#484A4F"/>
				<stop  offset="0.24" style="stop-color:#52555A"/>
				<stop  offset="0.6" style="stop-color:#5D6165"/>
				<stop  offset="0.97" style="stop-color:#616569"/>
				<stop  offset="0.99" style="stop-color:#7A7D82"/>
				<stop  offset="1" style="stop-color:#8B8E94"/>
			</linearGradient>
			<rect x="30.5" y="24.9" class="st31" width="13.4" height="23.3"/>
		</g>
	</g>
	<g>
		<defs>
			<path id="SVGID_48_" d="M25.1,14.1c0.2,0.3,1.5,2.8,2.7,5.3c1.1,2.3,2.1,4.5,2.2,4.8c0.3,0.5,0.3,1.1,0,1.6l0,0
				c0,0-1,2.4-2.2,4.8c-1.1,2.2-2.2,4.4-2.7,5.3l0,0c0,0.1-0.1,0.1-0.1,0.1c0,0-0.1-0.1-0.1-0.1l-0.1-0.1c-1.3-2.4-2.1-4.2-2.6-5.2
				C21,28.3,20,26,19.9,25.8l0,0c-0.1-0.2-0.2-0.5-0.2-0.8c0-0.3,0.1-0.6,0.2-0.8l0.1-0.1c0.7-1.6,1.5-3.2,2.2-4.7
				c1-2.1,2.2-4.4,2.6-5.1c-6,3.9-7.7,12-3.8,18c2.4,3.7,6.5,5.9,10.8,5.9c2.2,0,4.4-0.6,6.3-1.7l0.8-1.4c2.1-3.8,4.3-8.3,4.6-8.9
				c0.4-0.8,0.4-1.8,0-2.5c-0.7-1.4-2.8-5.6-4.6-8.9l-0.4-0.8C34.4,11.6,29.2,11.6,25.1,14.1"/>
		</defs>
		<clipPath id="SVGID_49_">
			<use xlink:href="#SVGID_48_"  style="overflow:visible;"/>
		</clipPath>
		<g class="st32">
			<g>
				<g>
					<defs>
						<rect id="SVGID_50_" x="18.9" y="12.2" width="26" height="26"/>
					</defs>
					<clipPath id="SVGID_51_">
						<use xlink:href="#SVGID_50_"  style="overflow:visible;"/>
					</clipPath>
					<g class="st33">
						<g>
							<defs>
								<path id="SVGID_52_" d="M18.9,25.2c0,7.2,5.8,13,13,13s13-5.8,13-13s-5.8-13-13-13S18.9,18,18.9,25.2"/>
							</defs>
							<clipPath id="SVGID_53_">
								<use xlink:href="#SVGID_52_"  style="overflow:visible;"/>
							</clipPath>
							<g class="st34">
								<g>
									
										<radialGradient id="SVGID_54_" cx="-465.1613" cy="-232.3248" r="1.05" gradientTransform="matrix(12.42 0 0 12.42 5807.9297 2909.7)" gradientUnits="userSpaceOnUse">
										<stop  offset="0" style="stop-color:#FFFFFF"/>
										<stop  offset="0.59" style="stop-color:#FFFFFF"/>
										<stop  offset="1" style="stop-color:#FFFFFF"/>
									</radialGradient>
									<rect x="18.9" y="12.2" class="st35" width="26" height="26"/>
								</g>
							</g>
						</g>
					</g>
				</g>
				<path d="M30.3,24.1c-0.1-0.2-1.1-2.4-2.2-4.8c-1.3-2.6-2.7-5.3-2.7-5.4s-0.2-0.4-0.3-0.4s-0.2,0.1-0.3,0.4s-1.5,2.9-2.7,5.4
					s-2.2,4.7-2.2,4.8c-0.1,0.3-0.2,0.6-0.3,0.9c0,0.3,0.1,0.6,0.3,0.9c0.1,0.2,1.1,2.5,2.2,4.8c1.3,2.6,2.7,5.2,2.7,5.4
					s0.2,0.3,0.3,0.3s0.2-0.1,0.3-0.3s1.5-2.8,2.7-5.4c1.1-2.4,2.2-4.6,2.2-4.8c0.2-0.3,0.2-0.6,0.3-0.9
					C30.5,24.7,30.4,24.4,30.3,24.1 M30.1,25.8L30.1,25.8c0,0-1,2.4-2.2,4.8c-1.1,2.2-2.2,4.4-2.7,5.3l0,0c0,0.1-0.1,0.1-0.1,0.1
					c0,0-0.1-0.1-0.1-0.1l-0.1-0.1c-1.3-2.4-2.1-4.2-2.6-5.2C21,28.3,20,26,19.9,25.8l0,0c-0.1-0.2-0.2-0.5-0.2-0.8
					c0-0.3,0.1-0.6,0.2-0.8l0.1-0.1c0.7-1.6,1.5-3.2,2.2-4.7c1.3-2.6,2.7-5.3,2.7-5.4s0.1-0.1,0.1-0.1s0.1,0.1,0.1,0.1
					s1.4,2.7,2.7,5.4c1.2,2.3,2.2,4.5,2.2,4.8C30.4,24.7,30.4,25.3,30.1,25.8"/>
				<path d="M43.5,23.7c-0.7-1.4-2.8-5.6-4.6-8.9C36.4,10.4,32,3,31.5,2.3c-0.2-0.5-0.7-0.7-1.2-0.7h-0.1c-0.7-0.1-3.5-0.1-5.2-0.1
					c-1.5,0-4.5,0-5.3,0.1c-0.5,0-1,0.3-1.2,0.8c-0.5,0.7-5,8.3-7.4,12.5c-1.7,3-4.4,8.3-4.6,8.9c-0.2,0.4-0.3,0.8-0.3,1.3
					c0,0.4,0.1,0.9,0.3,1.3c0.6,1.2,2.3,4.6,4.6,8.9c2.5,4.5,6.9,11.9,7.4,12.5c0.3,0.5,0.7,0.8,1.3,0.8c0.7,0.1,3.6,0.1,5.2,0.1
					s4.8-0.1,5.2-0.1c0.5,0,1-0.3,1.3-0.8c0.5-0.6,5.2-8.6,7.4-12.5c2.1-3.8,4.3-8.3,4.6-8.9C43.9,25.5,43.9,24.5,43.5,23.7
					 M43.2,26.2c-0.3,0.6-2.5,5.1-4.6,8.9c-2.2,3.9-6.9,11.9-7.4,12.5c-0.2,0.4-0.6,0.7-1.1,0.7c-0.4,0-3.5,0.1-5.2,0.1
					s-4.5,0-5.2-0.1c-0.5,0-0.9-0.2-1.1-0.7c-0.5-0.6-4.9-8-7.4-12.5c-2.3-4.3-4-7.6-4.6-8.9c-0.2-0.4-0.3-0.8-0.3-1.2
					c0-0.4,0.1-0.8,0.3-1.2C7,23.3,9.7,18,11.4,15c2.3-4.2,6.8-11.8,7.3-12.4c0.4-0.5,0.5-0.6,1.1-0.7c0.7-0.1,3.8-0.1,5.2-0.1
					c1.7,0,4.5,0,5.2,0.1h0.1c0.4,0,0.8,0.2,1,0.6c0.5,0.7,4.9,8,7.4,12.5c1.8,3.3,3.9,7.4,4.6,8.9c0.2,0.4,0.3,0.8,0.3,1.2
					C43.5,25.4,43.4,25.8,43.2,26.2"/>
			</g>
		</g>
	</g>
</g>
</svg>
