<?xml version="1.0" encoding="utf-8"?>
<!-- Generator: Adobe Illustrator 22.1.0, SVG Export Plug-In . SVG Version: 6.00 Build 0)  -->
<svg version="1.1" id="Layer_1" xmlns="http://www.w3.org/2000/svg" xmlns:xlink="http://www.w3.org/1999/xlink" x="0px" y="0px"
	 viewBox="0 0 50 50" style="enable-background:new 0 0 50 50;" xml:space="preserve">
<style type="text/css">
	.st0{fill:#FFFFFF;}
	.st1{fill:#292526;}
	.st2{fill:url(#SVGID_1_);}
	.st3{fill:url(#SVGID_2_);}
	.st4{fill:url(#SVGID_3_);}
	.st5{fill:url(#SVGID_4_);}
	.st6{fill:url(#SVGID_5_);}
	.st7{fill:url(#SVGID_6_);}
	.st8{fill:url(#SVGID_7_);}
	.st9{fill:#A4A6A9;}
	.st10{fill:url(#SVGID_8_);}
	.st11{fill:#919295;}
	.st12{fill:url(#SVGID_9_);}
	.st13{fill:url(#SVGID_10_);}
	.st14{fill:url(#SVGID_11_);}
	.st15{fill:url(#SVGID_12_);}
	.st16{fill:url(#SVGID_13_);}
	.st17{fill:url(#SVGID_14_);}
	.st18{fill:url(#SVGID_15_);}
	.st19{fill:url(#SVGID_16_);}
	.st20{fill:url(#SVGID_17_);}
	.st21{opacity:0.1;fill:url(#SVGID_18_);enable-background:new    ;}
	.st22{fill:#808083;}
	.st23{fill:#434344;}
</style>
<title>seat</title>
<path class="st0" d="M46.7,28L3.3,20.3c0,0,0.1-4.9,0.2-7.4s0.6-4.1,1.7-5.1C6.7,6.5,8.4,6.2,12.5,6c10.4-0.5,20.8-0.4,31.1,0.4
	c0.7,0,1.4,0.2,2,0.5c0.5,0.4,0.6,0.8,0.7,2.9c0.1,1.7,0.4,7.5,0.4,7.5s-14.2-0.5-21.2-0.5c-2,0-3.5,0-4.9,0c-0.5,0-1.1,0.1-1.6,0.3
	l27.7,4.7L46.7,28z"/>
<path class="st0" d="M3.3,22l43.4,7.7c0,0-0.1,4.9-0.2,7.4s-0.6,4.1-1.7,5.1c-1.5,1.3-3.2,1.6-7.3,1.8c-10.4,0.5-20.8,0.4-31.1-0.4
	c-0.7,0-1.4-0.2-2-0.5c-0.5-0.4-0.6-0.8-0.7-2.9c-0.1-1.7-0.4-7.5-0.4-7.5s14.2,0.5,21.2,0.5c2,0,3.5,0,4.9,0c0.5,0,1.1-0.1,1.6-0.3
	L3.3,28.2V22z"/>
<path class="st1" d="M46.7,28L3.3,20.3c0,0,0.1-4.9,0.2-7.4s0.6-4.1,1.7-5.1C6.7,6.5,8.4,6.2,12.5,6c10.4-0.5,20.8-0.4,31.1,0.4
	c0.7,0,1.4,0.2,2,0.5c0.5,0.4,0.6,0.8,0.7,2.9c0.1,1.7,0.4,7.5,0.4,7.5s-14.2-0.5-21.2-0.5c-2,0-3.5,0-4.9,0c-0.5,0-1.1,0.1-1.6,0.3
	l27.7,4.7L46.7,28z M3.3,22l43.4,7.7c0,0-0.1,4.9-0.2,7.4s-0.6,4.1-1.7,5.1c-1.5,1.3-3.2,1.6-7.3,1.8c-10.4,0.5-20.8,0.4-31.1-0.4
	c-0.7,0-1.4-0.2-2-0.5c-0.5-0.4-0.6-0.8-0.7-2.9c-0.1-1.7-0.4-7.5-0.4-7.5s14.2,0.5,21.2,0.5c2,0,3.5,0,4.9,0c0.5,0,1.1-0.1,1.6-0.3
	L3.3,28.2V22z M3.7,22.5v5.3L32,32.6c-0.2,0.3-0.5,0.5-0.8,0.7c-0.6,0.2-1.2,0.3-1.8,0.3c-1.3,0-2.9,0-4.9,0
	c-6.2,0-18.2-0.4-20.8-0.5c0.1,1.4,0.3,5.6,0.4,7c0.1,2.1,0.2,2.3,0.5,2.6c0.5,0.3,1.1,0.4,1.8,0.4c7,0.5,13.2,0.7,19.2,0.7
	c4,0,7.9-0.1,11.9-0.3s5.6-0.5,7-1.7c1-0.9,1.5-2.4,1.5-4.8c0.1-2.1,0.2-5.8,0.2-7L3.7,22.5z M46.3,27.5v-5.4L18,17.4
	c0.2-0.3,0.5-0.5,0.8-0.7c0.6-0.2,1.2-0.3,1.8-0.3c1.3,0,2.9,0,4.9,0c6.2,0,18.2,0.4,20.8,0.5c-0.1-1.4-0.3-5.6-0.4-7
	c-0.1-2.1-0.2-2.3-0.5-2.6c-0.5-0.3-1.1-0.4-1.8-0.4c-7-0.5-13.2-0.7-19.2-0.7c-4,0-7.9,0.1-11.9,0.3S6.9,7,5.5,8.2
	C4.6,9,4.1,10.5,4,12.9c-0.1,2.1-0.2,5.8-0.2,7L46.3,27.5z"/>
<path class="st0" d="M26.1,35.5h-1.8c-5.8,0-11.9,0-19.5-0.5l-1.1-1.9h0.3l1.2,1.5c6.5,0.3,12.5,0.4,19,0.4h1.8c0.9,0,2,0,3,0
	c3.3-0.1,4.3-0.5,6.6-2.8l0.8-0.1l-0.3,0.3c-2.5,2.5-3.5,2.8-7,2.9C28.2,35.5,27.2,35.5,26.1,35.5L26.1,35.5z"/>
<polygon class="st0" points="46.2,30.1 3.7,22.5 3.7,22.8 4.5,23.2 4.5,26.7 3.7,27.5 3.7,27.8 4.9,26.9 4.9,23 45.6,30.2 "/>
<radialGradient id="SVGID_1_" cx="22.0899" cy="51.6705" r="21.98" gradientTransform="matrix(0.9637 0.2671 0.1683 -0.6071 -6.4143 67.8301)" gradientUnits="userSpaceOnUse">
	<stop  offset="0.33" style="stop-color:#7A7C7F"/>
	<stop  offset="0.56" style="stop-color:#919396"/>
	<stop  offset="0.8" style="stop-color:#A4A6A9"/>
	<stop  offset="1" style="stop-color:#CED0D1"/>
</radialGradient>
<path class="st2" d="M45.2,30.1c0,0.7-0.1,1.6-0.1,2.4s0,1.3-0.1,1.8c0,0.8-0.1,1.5-0.1,2.5c-0.1,2.7-0.7,3.5-1.8,4.2
	s-2.4,0.8-6.3,1s-8.2,0.3-12.5,0.3h-1c-5.1,0-9.8-0.3-15.7-0.8c-0.7,0-1.3-0.1-1.9-0.3c-0.3-0.2-0.4-0.3-0.5-1.5c0-0.2,0-0.4,0-0.5
	c0-0.5-0.1-0.9-0.1-1.5S5,36.5,4.9,35.1l-0.4-0.7c0.1,1.5,0.1,2.8,0.2,3.5s0,1,0.1,1.5v0v0.5c0.1,1.3,0.2,1.5,0.7,1.8
	c0.7,0.3,1.4,0.4,2.1,0.4c5.9,0.5,10.6,0.7,15.7,0.7h1c4.4,0,8.6-0.2,12.6-0.3s5.3-0.3,6.5-1s1.9-1.7,2.1-4.5c0-1,0.1-1.8,0.1-2.5
	l0,0c0-1.2,0.1-2.5,0.2-4.2L45.2,30.1z"/>
<linearGradient id="SVGID_2_" gradientUnits="userSpaceOnUse" x1="18.21" y1="34.9081" x2="45.12" y2="34.9081" gradientTransform="matrix(1 0 0 -1 0 51)">
	<stop  offset="0" style="stop-color:#4F4F51"/>
	<stop  offset="0.35" style="stop-color:#575759"/>
	<stop  offset="0.45" style="stop-color:#5A5A5C"/>
	<stop  offset="0.75" style="stop-color:#373435"/>
	<stop  offset="0.91" style="stop-color:#292526"/>
</linearGradient>
<path class="st3" d="M45.2,15.6H45c-6.2-0.3-12.5-0.3-19.7-0.3h-1.6c-1.4,0-2.8,0-4.2,0.2c-1.9,0.3-1.8,1.3-1.1,1.4
	c0.1-0.1,0.2-0.2,0.4-0.3c0.6-0.2,1.2-0.3,1.8-0.3c1.3,0,2.9,0,4.9,0c6,0,17.6,0.4,20.5,0.5L45.2,15.6z"/>
<path class="st0" d="M44.3,9.1l0.2-0.4l-0.1-0.1c-0.6-0.3-1.3-0.4-2-0.4C37,7.9,30.8,7.7,26.5,7.7h-0.9H23c-4.2,0-7.5,0.1-9.9,0.2
	h-0.6C9,8.1,7.3,8.2,5.9,9.4c-0.9,0.8-1.3,1.9-1.4,4.1v1c-0.1,1.6-0.1,2.7-0.2,4.8l-0.5,0.3v0.4l1-0.4V19c0.1-1.9,0.1-3,0.2-4.5v-1
	c0.1-2,0.4-3,1.2-3.8c1.2-1.1,2.9-1.2,6.3-1.4h0.6c2.4-0.1,5.7-0.2,9.9-0.2h2.6h0.9c4.3,0,10.5,0.2,16,0.6
	C43.1,8.8,43.7,8.9,44.3,9.1L44.3,9.1L44.3,9.1z"/>
<linearGradient id="SVGID_3_" gradientUnits="userSpaceOnUse" x1="7.181" y1="32.1748" x2="4.801" y2="42.8048" gradientTransform="matrix(1 0 0 -1 0 51)">
	<stop  offset="0" style="stop-color:#919295"/>
	<stop  offset="0.48" style="stop-color:#9C9EA1"/>
	<stop  offset="1" style="stop-color:#A4A6A9"/>
</linearGradient>
<path class="st4" d="M4.5,14.5v-1c0.1-2.1,0.4-3.2,1.4-4.1C6.1,9.3,6.3,9.1,6.5,9C6.3,8.7,6.3,8.3,6.4,7.9c0.4-0.5,1-0.9,1.6-1
	C7.1,7.1,6.2,7.5,5.5,8.1C4.6,9,4.1,10.5,4,12.9c-0.1,1.9-0.2,5.2-0.2,6.7l0.6-0.2C4.4,17.2,4.4,16.1,4.5,14.5z"/>
<linearGradient id="SVGID_4_" gradientUnits="userSpaceOnUse" x1="6.55" y1="43.175" x2="45.86" y2="43.175" gradientTransform="matrix(1 0 0 -1 0 51)">
	<stop  offset="6.000000e-02" style="stop-color:#BFBFBF"/>
	<stop  offset="0.28" style="stop-color:#BCBCBC"/>
	<stop  offset="0.44" style="stop-color:#B3B3B3"/>
	<stop  offset="0.59" style="stop-color:#A3A3A3"/>
	<stop  offset="0.72" style="stop-color:#8C8C8C"/>
	<stop  offset="0.85" style="stop-color:#6F6F6F"/>
	<stop  offset="0.97" style="stop-color:#4C4C4C"/>
	<stop  offset="1" style="stop-color:#404040"/>
</linearGradient>
<path class="st5" d="M44.8,9c0.3-0.4,0.7-0.4,1.1,0.5c-0.1-1.8-0.2-2-0.5-2.2c-0.5-0.3-1.1-0.4-1.8-0.4c-7-0.5-13.2-0.7-19.2-0.7
	c-4,0-7.9,0.1-11.9,0.3c-1.5,0-3,0.2-4.4,0.5c-0.6,0.1-1.2,0.5-1.6,1C6.3,8.3,6.3,8.7,6.5,9c1.3-0.8,3-0.9,5.9-1H13
	c2.4-0.1,5.7-0.2,9.9-0.2h2.6h0.9c4.4,0,10.5,0.2,16.1,0.6c0.7,0,1.4,0.1,2,0.4l0.1,0.1C44.6,8.9,44.7,9,44.8,9z"/>
<linearGradient id="SVGID_5_" gradientUnits="userSpaceOnUse" x1="45.28" y1="41.97" x2="45.28" y2="34.36" gradientTransform="matrix(1 0 0 -1 0 51)">
	<stop  offset="1.000000e-02" style="stop-color:#FFFFFF"/>
	<stop  offset="0.12" style="stop-color:#CCCCCC"/>
	<stop  offset="0.5" style="stop-color:#CACACA"/>
	<stop  offset="0.63" style="stop-color:#C3C3C3"/>
	<stop  offset="0.73" style="stop-color:#B8B8B8"/>
	<stop  offset="0.81" style="stop-color:#A7A7A7"/>
	<stop  offset="0.87" style="stop-color:#919191"/>
	<stop  offset="0.93" style="stop-color:#757575"/>
	<stop  offset="0.99" style="stop-color:#565656"/>
	<stop  offset="1" style="stop-color:#4D4D4D"/>
</linearGradient>
<path class="st6" d="M46.2,16.5l-0.8-1.4c0-1.1-0.1-3.5-0.2-4.5S45.1,9.3,44.8,9c-0.1-0.1-0.1-0.1-0.2-0.2l-0.2,0.4
	c0.3,0.2,0.3,0.4,0.4,1.5s0.2,3.6,0.3,4.6l1,1.5h0.2L46.2,16.5z"/>
<path class="st1" d="M45.8,9.5c-0.4-1-0.8-0.9-1.1-0.5c0.3,0.3,0.3,0.7,0.4,1.6s0.2,3.4,0.2,4.5l0.8,1.4c-0.1-1.6-0.3-5.4-0.4-6.7"
	/>
<radialGradient id="SVGID_6_" cx="44.72" cy="8.56" r="52.43" gradientTransform="matrix(1 0 0 -1 0 51)" gradientUnits="userSpaceOnUse">
	<stop  offset="0.14" style="stop-color:#808083"/>
	<stop  offset="0.24" style="stop-color:#8F9093"/>
	<stop  offset="0.46" style="stop-color:#AEAFB1"/>
	<stop  offset="0.59" style="stop-color:#B9BBBD"/>
	<stop  offset="0.64" style="stop-color:#C5C7C9"/>
	<stop  offset="0.74" style="stop-color:#D7D8DA"/>
	<stop  offset="0.84" style="stop-color:#E2E3E4"/>
	<stop  offset="0.96" style="stop-color:#E5E6E7"/>
</radialGradient>
<path class="st7" d="M45,15.3c-5.8-0.3-12-0.4-19.7-0.4c-1.5,0-4.5,0.1-5.9,0.1c-2.3,0.1-2.7,1.5-2.7,2l28.5,6.6v3.5l1,0.4L3.8,19.9
	l1-0.4V19c0,0,0.1-3,0.2-4.5v-1c0.1-2,0.4-3,1.2-3.8c1.2-1.1,2.9-1.2,6.3-1.4H13c2.4-0.1,5.7-0.2,9.9-0.2h2.6h0.9
	c4.3,0,10.5,0.2,16,0.6c0.6,0,1.3,0.1,1.8,0.4h0.1l0,0l0,0l0,0l0,0l0,0l0,0l0,0l0,0l0,0c0.2,0.2,0.2,0.4,0.3,1.2c0,0.1,0,0.1,0,0.2
	c0.1,1,0.2,3.6,0.3,4.6"/>
<radialGradient id="SVGID_7_" cx="64.04" cy="0" r="54.7" gradientTransform="matrix(1 0 0 -1 0 51)" gradientUnits="userSpaceOnUse">
	<stop  offset="0.14" style="stop-color:#808083"/>
	<stop  offset="0.24" style="stop-color:#8F9093"/>
	<stop  offset="0.46" style="stop-color:#AEAFB1"/>
	<stop  offset="0.59" style="stop-color:#B9BBBD"/>
	<stop  offset="0.62" style="stop-color:#C6C8CA"/>
	<stop  offset="0.69" style="stop-color:#DFE0E1"/>
	<stop  offset="0.77" style="stop-color:#F1F1F2"/>
	<stop  offset="0.85" style="stop-color:#FCFCFC"/>
	<stop  offset="0.94" style="stop-color:#FFFFFF"/>
</radialGradient>
<path class="st8" d="M45,15.3c-5.8-0.3-12-0.4-19.7-0.4c-1.5,0-4.5,0.1-5.9,0.1c-2.3,0.1-2.7,1.5-2.7,2l28.5,6.6v3.5l1,0.4L3.8,19.9
	l1-0.4V19c0,0,0.1-3,0.2-4.5v-1c0.1-2,0.4-3,1.2-3.8c1.2-1.1,2.9-1.2,6.3-1.4H13c2.4-0.1,5.7-0.2,9.9-0.2h2.6h0.9
	c4.3,0,10.5,0.2,16,0.6c0.6,0,1.3,0.1,1.8,0.4h0.1l0,0l0,0l0,0l0,0l0,0l0,0l0,0l0,0l0,0c0.2,0.2,0.2,0.4,0.3,1.2c0,0.1,0,0.1,0,0.2
	c0.1,1,0.2,3.6,0.3,4.6"/>
<polygon class="st9" points="3.7,22.8 4.5,23.2 4.5,26.7 3.7,27.5 "/>
<linearGradient id="SVGID_8_" gradientUnits="userSpaceOnUse" x1="4.22" y1="8.375" x2="42.4844" y2="8.375" gradientTransform="matrix(1 0 0 -1 0 51)">
	<stop  offset="0" style="stop-color:#6E6F70;stop-opacity:0.91"/>
	<stop  offset="0.42" style="stop-color:#4F4E4F;stop-opacity:0.95"/>
	<stop  offset="1" style="stop-color:#292526"/>
</linearGradient>
<path class="st10" d="M41.9,43.1c0.2-0.1,0.4-0.3,0.5-0.5c0.1-0.2,0-0.4-0.2-0.7c-1.8,0.4-3.6,0.6-5.5,0.6c-4,0.2-8.2,0.3-12.6,0.3
	h-1c-5.1,0-9.8-0.3-15.7-0.7c-0.7,0-1.5-0.1-2.1-0.4c-0.1-0.1-0.2-0.2-0.3-0.2l-0.2,0.2c-0.4,0.3-0.6,0.3-0.7-0.3
	c0.1,1.1,0.2,1.2,0.5,1.4c0.5,0.3,1.1,0.4,1.8,0.4c7,0.5,13.2,0.7,19.2,0.7c4,0,7.9-0.1,11.9-0.3C39,43.5,40.5,43.4,41.9,43.1z"/>
<path class="st11" d="M4.7,39.4L4.7,39.4c0-0.5,0-0.9-0.1-1.5s-0.1-2-0.2-3.5l-0.7-1.2c0.1,1.4,0.3,5.6,0.4,7l0.1,1.2
	c0.1,0.5,0.3,0.6,0.7,0.3l0.2-0.2c-0.2-0.3-0.3-0.7-0.4-1.6L4.7,39.4z"/>
<linearGradient id="SVGID_9_" gradientUnits="userSpaceOnUse" x1="43.693" y1="9.2119" x2="46.663" y2="19.9519" gradientTransform="matrix(1 0 0 -1 0 51)">
	<stop  offset="0.27" style="stop-color:#5A5A5C"/>
	<stop  offset="0.36" style="stop-color:#504F51"/>
	<stop  offset="0.6" style="stop-color:#3A3839"/>
	<stop  offset="0.81" style="stop-color:#2D2A2B"/>
	<stop  offset="1" style="stop-color:#292526"/>
</linearGradient>
<path class="st12" d="M45.6,30.2c-0.1,1.8-0.1,3-0.2,4.2l0,0c0,0.7-0.1,1.5-0.1,2.5c-0.1,2.8-0.8,3.8-2.1,4.5
	c-0.3,0.2-0.6,0.3-1,0.4c0.2,0.2,0.3,0.4,0.2,0.7c-0.1,0.2-0.3,0.4-0.5,0.5c0.9-0.2,1.8-0.6,2.5-1.2c1-0.9,1.5-2.4,1.5-4.8
	c0.1-2.1,0.2-5.8,0.2-7L45.6,30.2z"/>
<radialGradient id="SVGID_10_" cx="62.96" cy="-98.51" r="169.53" gradientTransform="matrix(1 0 0 -1 0 51)" gradientUnits="userSpaceOnUse">
	<stop  offset="0" style="stop-color:#77787B"/>
	<stop  offset="0.24" style="stop-color:#A3A5A7"/>
	<stop  offset="0.45" style="stop-color:#C2C4C5"/>
	<stop  offset="0.56" style="stop-color:#CED0D1"/>
	<stop  offset="0.64" style="stop-color:#D9DBDC"/>
	<stop  offset="0.87" style="stop-color:#F5F5F5"/>
	<stop  offset="1" style="stop-color:#FFFFFF"/>
</radialGradient>
<path class="st13" d="M45,34.4c0,0.8-0.1,1.5-0.1,2.5c-0.1,2.7-0.7,3.5-1.8,4.2s-2.4,0.8-6.3,1s-8.2,0.3-12.5,0.3h-1
	c-5.1,0-9.8-0.3-15.7-0.8c-0.7,0-1.3-0.1-1.9-0.3c-0.3-0.2-0.4-0.3-0.5-1.5c0-0.2,0-0.4,0-0.5c0-0.5-0.1-0.9-0.1-1.5
	S5,36.5,4.9,35.1c7.6,0.4,13.7,0.5,19.5,0.5h1.8c0.9,0,2,0,3,0c3.6-0.1,4.6-0.4,7-2.9l0.3-0.3L4.9,26.9V23l40.3,7.1l0,0
	c0,0.7-0.1,1.6-0.1,2.4C45.1,33.4,45,33.8,45,34.4z"/>
<linearGradient id="SVGID_11_" gradientUnits="userSpaceOnUse" x1="33.3512" y1="19.5673" x2="32.4612" y2="15.9773" gradientTransform="matrix(1 0 0 -1 0 51)">
	<stop  offset="6.000000e-02" style="stop-color:#6E6F70"/>
	<stop  offset="7.000000e-02" style="stop-color:#737475"/>
	<stop  offset="0.18" style="stop-color:#939495"/>
	<stop  offset="0.3" style="stop-color:#ADAFB0"/>
	<stop  offset="0.42" style="stop-color:#C2C3C4"/>
	<stop  offset="0.56" style="stop-color:#D0D2D3"/>
	<stop  offset="0.73" style="stop-color:#D8DADB"/>
	<stop  offset="1" style="stop-color:#DBDDDE"/>
</linearGradient>
<path class="st14" d="M32,34.4c0,0.2-0.2,0.4-0.9,0.5c1.9-0.2,2.9-0.8,4.7-2.6L32,32.6c-0.2,0.3-0.5,0.5-0.8,0.7
	c-0.3,0.1-0.7,0.2-1,0.3c0.5,0.1,0.9,0.2,1.4,0.4C31.8,34.1,32,34.3,32,34.4z"/>
<linearGradient id="SVGID_12_" gradientUnits="userSpaceOnUse" x1="4.05" y1="16.945" x2="31.9404" y2="16.945" gradientTransform="matrix(1 0 0 -1 0 51)">
	<stop  offset="0" style="stop-color:#9C9C9C"/>
	<stop  offset="0.2" style="stop-color:#949494"/>
	<stop  offset="0.51" style="stop-color:#7E7E7F"/>
	<stop  offset="0.89" style="stop-color:#5B5B5C"/>
	<stop  offset="1" style="stop-color:#4F4F51"/>
</linearGradient>
<path class="st15" d="M31,34.9c0.7-0.2,0.9-0.4,0.9-0.5s-0.2-0.3-0.4-0.4c-0.4-0.2-0.9-0.3-1.4-0.4h-0.8c-1.3,0-2.9,0-4.9,0
	c-6,0-17.4-0.4-20.5-0.5l0,0l1.2,1.5c6.5,0.3,12.5,0.4,19,0.4h1.8c0.9,0,2,0,3,0C29.8,35,30.5,35,31,34.9z"/>
<linearGradient id="SVGID_13_" gradientUnits="userSpaceOnUse" x1="20.45" y1="30.575" x2="45.84" y2="30.575" gradientTransform="matrix(1 0 0 -1 0 51)">
	<stop  offset="0" style="stop-color:#A4A6A9"/>
	<stop  offset="0.27" style="stop-color:#ACAEB0"/>
	<stop  offset="0.69" style="stop-color:#C2C3C4"/>
	<stop  offset="1" style="stop-color:#D6D6D6"/>
</linearGradient>
<path class="st16" d="M45.1,23.1l0.7-1l-25.4-4.3c2.6,0.9,9.7,2.5,15.1,3.7L45.1,23.1z"/>
<linearGradient id="SVGID_14_" gradientUnits="userSpaceOnUse" x1="4.4396" y1="23.4675" x2="31.4296" y2="18.7875" gradientTransform="matrix(1 0 0 -1 0 51)">
	<stop  offset="0" style="stop-color:#808083"/>
	<stop  offset="0.9" style="stop-color:#292526"/>
</linearGradient>
<path class="st17" d="M29.1,31.4c-0.7-0.1-1.2-0.2-1.8-0.3c-0.2,0-13.8-2.3-22.8-3.9l-0.8,0.7L32,32.6C31.1,32,30.2,31.6,29.1,31.4z
	"/>
<linearGradient id="SVGID_15_" gradientUnits="userSpaceOnUse" x1="4.7499" y1="23.4897" x2="35.9299" y2="18.3697" gradientTransform="matrix(1 0 0 -1 0 51)">
	<stop  offset="0" style="stop-color:#636467"/>
	<stop  offset="1" style="stop-color:#4F4F51"/>
</linearGradient>
<path class="st18" d="M29.1,31.4c-0.7-0.1-1.2-0.2-1.8-0.3c-0.2,0-13.8-2.3-22.8-3.9l0.4-0.3l31.6,5.4L32,32.6
	C31.2,32,30.2,31.6,29.1,31.4z"/>
<path class="st1" d="M45,15.3c-5.8-0.3-12-0.4-19.7-0.4c-1.5,0-4.5,0.1-5.9,0.1c-2.3,0-4.4,1.1-5.8,2.9l-0.2,0.2l4.7-0.8
	c0.1-0.1,0.2-0.2,0.3-0.3c-0.7-0.1-0.8-1.1,1.1-1.4c1.4-0.2,2.8-0.2,4.2-0.2h1.6c7.1,0,13.5,0,19.7,0.3h0.2L45,15.3z"/>
<linearGradient id="SVGID_16_" gradientUnits="userSpaceOnUse" x1="14.16" y1="31.63" x2="35.51" y2="31.63" gradientTransform="matrix(1 0 0 -1 0 51)">
	<stop  offset="0.22" style="stop-color:#5A5A5C"/>
	<stop  offset="0.41" style="stop-color:#606062"/>
	<stop  offset="0.66" style="stop-color:#707072"/>
	<stop  offset="0.93" style="stop-color:#8A8B8D"/>
	<stop  offset="1" style="stop-color:#919295"/>
</linearGradient>
<path class="st19" d="M14.2,17.9l21.4,3.5c-5.4-1.2-12.4-2.9-15.1-3.7l-2.3-0.5L14.2,17.9z"/>
<radialGradient id="SVGID_17_" cx="45.13" cy="8.93" r="52.63" gradientTransform="matrix(1 0 0 -1 0 51)" gradientUnits="userSpaceOnUse">
	<stop  offset="0" style="stop-color:#808083"/>
	<stop  offset="0.11" style="stop-color:#8F9093"/>
	<stop  offset="0.37" style="stop-color:#AEAFB1"/>
	<stop  offset="0.51" style="stop-color:#B9BBBD"/>
	<stop  offset="0.56" style="stop-color:#C6C8CA"/>
	<stop  offset="0.66" style="stop-color:#DFE0E1"/>
	<stop  offset="0.76" style="stop-color:#F1F1F2"/>
	<stop  offset="0.87" style="stop-color:#FCFCFC"/>
	<stop  offset="1" style="stop-color:#FFFFFF"/>
</radialGradient>
<path class="st20" d="M45,34.4c0,0.8-0.1,1.5-0.1,2.5c-0.1,2.7-0.7,3.5-1.8,4.2s-2.4,0.8-6.3,1s-8.2,0.3-12.5,0.3h-1
	c-5.1,0-9.8-0.3-15.7-0.8c-0.7,0-1.3-0.1-1.9-0.3c-0.3-0.2-0.4-0.3-0.5-1.5c0-0.2,0-0.4,0-0.5c0-0.5-0.1-0.9-0.1-1.5
	S5,36.5,4.9,35.1c7.6,0.4,13.7,0.5,19.5,0.5h1.8c0.9,0,2,0,3,0c3.6-0.1,4.6-0.4,7-2.9l0.3-0.3L4.9,26.9V23l40.3,7.1l0,0
	c0,0.7-0.1,1.6-0.1,2.4C45.1,33.4,45,33.8,45,34.4z"/>
<path class="st0" d="M13.4,18.1l0.8-0.1c3.1,0.5,28.7,4.8,31,5.1l0.7-1l0.4,0.1l-1,1.4L13.4,18.1z"/>
<radialGradient id="SVGID_18_" cx="44.02" cy="8.19" r="18.19" gradientTransform="matrix(1 0 0 -1 0 51)" gradientUnits="userSpaceOnUse">
	<stop  offset="0" style="stop-color:#292526"/>
	<stop  offset="0.19" style="stop-color:#524F50"/>
	<stop  offset="0.62" style="stop-color:#ABABAC"/>
	<stop  offset="0.81" style="stop-color:#CED0D1"/>
	<stop  offset="0.85" style="stop-color:#D9DBDC"/>
	<stop  offset="0.94" style="stop-color:#F5F5F5"/>
	<stop  offset="1" style="stop-color:#FFFFFF"/>
</radialGradient>
<path class="st21" d="M43,41.1c1.1-0.7,1.8-1.5,1.8-4.2c0-1,0.1-1.8,0.1-2.5c0-0.6,0-1.2,0.1-1.8s0.1-1.7,0.1-2.4l0,0l-11.4-2
	c-1.9,0.6-3.7,1.6-5.2,2.8l8,1.4l-0.3,0.3c-2.5,2.5-3.5,2.8-7,2.9c-1,0-2,0-3,0h-1.4c-0.5,1.2-0.8,2.4-0.8,3.7
	c0,1.1,0.2,2.2,0.6,3.3c4.3,0,8.4-0.2,12.2-0.3S42,41.8,43,41.1z"/>
<polygon class="st11" points="45.2,27.1 45.6,27 45.6,23 45.2,23.5 "/>
<polygon class="st22" points="45.2,27.1 45.6,27 46.3,27.3 46.3,27.5 "/>
<polygon class="st23" points="46.3,22.2 45.6,23 45.6,27 46.3,27.3 "/>
</svg>
