<?xml version="1.0" encoding="utf-8"?>
<!-- Generator: Adobe Illustrator 22.1.0, SVG Export Plug-In . SVG Version: 6.00 Build 0)  -->
<svg version="1.1" id="Layer_1" xmlns="http://www.w3.org/2000/svg" xmlns:xlink="http://www.w3.org/1999/xlink" x="0px" y="0px"
	 viewBox="0 0 50 50" style="enable-background:new 0 0 50 50;" xml:space="preserve">
<style type="text/css">
	.st0{fill:#06238C;}
	.st1{fill:#001849;}
	.st2{fill:#989EAD;}
	.st3{fill:#979DAE;}
	.st4{fill:#F5F2F9;}
	.st5{fill:#F8F5FA;}
	.st6{fill:#CBD3DD;}
</style>
<title>subaru</title>
<path class="st0" d="M26.9,22.3h9.3l2.6,0.3h8.8c-1.8-5.2-11.1-9.1-22.4-9.1s-20.5,4-22.3,9.2l7.2-0.3L26.9,22.3z"/>
<path class="st1" d="M38.7,22.6l-2.6-0.3H9.9l-7.2,0.3c-0.2,0.6-0.3,1.2-0.3,1.8c0,6,10.2,10.9,22.7,10.9s22.8-4.9,22.8-11
	c0-0.6-0.1-1.2-0.3-1.8L38.7,22.6z"/>
<path class="st2" d="M44.2,22.6h-2.4c-0.7-0.1-1.3,0-2,0.1c-0.2,0-0.4,0.2-0.6,0.2h-0.2c-0.5-0.2-1-0.3-1.5-0.4
	c-1.1-0.1-2.3-0.1-3.4-0.1H30l-8.4,0.5L20.8,23c-0.6,0.2-1.3,0.3-1.9,0.4c-0.6,0-1.2-0.1-1.8-0.2c-0.6-0.1-1.2-0.1-1.9-0.2l-2.9-0.2
	c-1.7-0.1-3.4-0.1-5.1-0.3l-2.9-0.1l0,0c0,0.2,0.3,0.2,0.5,0.2c1,0.1,2.1,0.2,3.1,0.2L9.5,23l4.2,0.4h0.2l1.6,0.2
	c0.8,0.1,1.5,0.7,1.9,1.5c0.2,0.5,0.3,1,0.5,1.6l0.5,1.8l0.3,1.4l0.4-1.2l0.3-1.1c0.2-0.9,0.5-1.8,0.8-2.7c0.1-0.3,0.3-0.5,0.5-0.8
	c0.2-0.2,0.4-0.3,0.7-0.4c0.5-0.2,0.9-0.2,1.4-0.3c0.5-0.1,1-0.1,1.5-0.2l2-0.1l5.5-0.5c0.7-0.1,1.4-0.1,2.1-0.1l1.5,0.1l1,0.1
	l1.8,0.2c0.2,0,0.4,0,0.5,0.2c0.1,0.1,0.2,0.3,0.3,0.5c0.1,0.3,0.2,0.5,0.3,0.8l0.3,0.7l0.1-0.3c0.2-0.4,0.3-0.8,0.4-1.2
	s0.2-0.5,0.5-0.5c0.2-0.1,0.5-0.1,0.8-0.1h3.6c0.3,0,0.7,0,1,0c0.1,0,0.1,0,0.1-0.1v-0.1L44.2,22.6z"/>
<path class="st3" d="M41.9,26.2c-0.2,0.1-0.4,0.1-0.6,0c-0.7-0.2-1.4-0.3-2.2-0.2l-1.4-0.1L33.7,26h-0.4c-1.3,0-2.7-0.1-4-0.2
	l-1.7-0.1l0,0c0,0,0.1,0.1,0.1,0.1h0.2l0.4,0.1l0.9,0.2l1.7,0.3c0.2,0,0.5,0.2,0.6,0.4c0.3,0.4,0.5,0.9,0.6,1.4l0.2,0.7l0.1-0.3
	v-0.1l0.2-0.8c0.1-0.3,0.2-0.5,0.3-0.8c0-0.1,0.1-0.2,0.2-0.4c0.1-0.1,0.2-0.2,0.3-0.2c0.3-0.1,0.5-0.1,0.8-0.2l1.2-0.1l1-0.1h0.9
	l2,0.3l0.8,0.1c0.3,0,0.7,0.1,0.9,0.4c0.1,0.2,0.2,0.3,0.2,0.5l0.4,1l0.2-0.7c0.1-0.2,0.2-0.5,0.2-0.7c0-0.2,0.1-0.3,0.3-0.4
	c0.2-0.1,0.4-0.2,0.6-0.2l1.3-0.1h1.5c0.1,0,0.2,0,0.2-0.1h-3.4C42.4,26.2,42.2,26.2,41.9,26.2z"/>
<path class="st4" d="M46.2,26.1C46.1,26,45.9,26,45.8,26h-0.4c-0.3-0.1-0.7-0.1-1-0.1l-1-0.1h-0.4c-0.2,0-0.4-0.1-0.6-0.2
	c-0.3-0.2-0.4-0.6-0.5-0.9l-0.3-0.8l-0.3,0.8c-0.1,0.2-0.2,0.4-0.3,0.6c-0.2,0.2-0.4,0.3-0.7,0.4c-0.3,0.1-0.5,0.1-0.8,0.1l-1.5,0.1
	h-1l-1.4-0.2c-0.7-0.1-1.4-0.2-2.1-0.3c-0.1,0-0.2,0-0.2-0.1c-0.1-0.1-0.2-0.1-0.3-0.2c-0.1-0.2-0.2-0.3-0.2-0.5L32.3,23l-0.2,0.5
	c0,0.2-0.1,0.3-0.2,0.5c-0.1,0.2-0.2,0.4-0.3,0.6c-0.1,0.2-0.3,0.4-0.6,0.5l-0.5,0.1l-1.8,0.3l-0.6,0.1h-0.5c0,0-0.1,0-0.1,0.1
	l1.7,0.1c1.3,0.2,2.7,0.2,4,0.2h0.5l4.1-0.1l1.4,0.1c0.7,0,1.5,0.1,2.2,0.2c0.1,0,0.2,0.1,0.3,0.1c0.1,0,0.2,0,0.3-0.1
	c0.2-0.1,0.5-0.1,0.8-0.1l3.4,0.1C46.2,26.2,46.2,26.2,46.2,26.1L46.2,26.1z"/>
<path class="st2" d="M38.7,29.9h-0.9c-0.3,0-0.7,0-1-0.1l-2-0.2c-0.8,0-1.5-0.1-2.3-0.1c-1.1,0-2.2,0-3.4,0.1
	c-1.1,0.1-2.2,0.2-3.4,0.1c-0.4,0-0.8-0.1-1.2-0.2l-1.5-0.1l-3.4-0.1c0,0.1,0,0.1,0.1,0.1l1.1,0.2l1.1,0.1l0.6,0.1l1.2,0.2l0.4,0.1
	c0.3,0,0.5,0.2,0.8,0.3c0.1,0.1,0.2,0.2,0.2,0.3c0,0.1,0.1,0.1,0.1,0.2c0.1,0.2,0.2,0.5,0.2,0.7l0.2,0.7l0.3,0.9l0.1-0.2l0.4-1.4
	c0.1-0.4,0.2-0.8,0.5-1.1c0.1-0.1,0.3-0.2,0.5-0.2c0.2-0.1,0.4-0.1,0.6-0.1l1.2-0.2l1.2-0.2l1.7-0.2l1.4,0.2l0.7,0.1
	c0.6,0.1,1.2,0.1,1.8,0.3c0.2,0,0.4,0.1,0.5,0.2c0.2,0.2,0.3,0.4,0.4,0.6c0.1,0.2,0.2,0.5,0.2,0.8l0.2,0.5v-0.1
	c0.1-0.3,0.2-0.6,0.3-0.9c0.1-0.3,0.2-0.5,0.4-0.7c0.3-0.2,0.7-0.3,1.1-0.3l1.1-0.1l1.4-0.1l0.7-0.1c0.2,0,0.4,0,0.6-0.1
	C41.7,29.9,40.2,29.8,38.7,29.9z"/>
<path class="st5" d="M24.6,29.6c0.4,0,0.8,0.1,1.2,0.2c1.1,0,2.2,0,3.4-0.1c1.1-0.1,2.2-0.2,3.3-0.1c0.8,0,1.5,0,2.3,0.1l2,0.2
	c0.3,0.1,0.7,0.1,1,0.1h5.4c0.1,0,0.2-0.1,0.2-0.1s-0.1,0-0.1,0l-0.8-0.1l-1.3-0.2l-1.2-0.2L39.4,29l-0.5,0c-0.3,0-0.5-0.1-0.7-0.3
	c-0.1-0.1-0.1-0.2-0.1-0.2l-0.2-0.4c-0.1-0.2-0.1-0.5-0.2-0.7l-0.2-0.5V27l-0.2,0.5c0,0.2-0.1,0.3-0.1,0.5c-0.1,0.2-0.1,0.5-0.2,0.7
	c-0.1,0.1-0.1,0.2-0.2,0.2c-0.1,0.1-0.3,0.1-0.4,0.1L35.9,29l-1.2,0.1l-1.5,0.1l-0.7,0.1l-2.9-0.4l-0.6-0.1c-0.6,0-1.2-0.2-1.7-0.5
	c-0.2-0.1-0.3-0.3-0.3-0.5l-0.5-1.3c-0.1-0.3-0.2-0.6-0.3-0.9c-0.1,0.2-0.2,0.5-0.3,0.8l-0.4,1.2c-0.1,0.2-0.2,0.5-0.4,0.6
	c-0.2,0.2-0.4,0.3-0.6,0.3c-0.4,0.1-0.8,0.2-1.2,0.2L22,29.1l-2.2,0.3v0.1l3.4,0.1L24.6,29.6z"/>
<path class="st6" d="M47.7,25h-0.6c-0.1,1.4-0.7,2.8-1.7,3.9c-2.2,2.2-4.9,3.7-7.9,4.6c-4,1.3-8.3,1.9-12.5,1.9
	c-5.4,0.1-10.8-0.9-15.8-3.1c-1.8-0.8-3.3-2-4.7-3.4c-1-1.1-1.6-2.4-1.7-3.9c0.1-1.4,0.7-2.8,1.7-3.9c2.2-2.2,4.9-3.7,7.9-4.6
	c4.1-1.3,8.3-1.9,12.5-1.8c5.4-0.1,10.8,0.9,15.8,3.1c1.8,0.8,3.3,2,4.7,3.4c1,1,1.6,2.4,1.6,3.8h1.2c0-1.7-0.7-3.4-1.9-4.6
	c-2.4-2.4-5.3-4.1-8.5-5c-4.2-1.3-8.5-1.9-12.9-1.8c-5.6-0.1-11.2,1-16.3,3.3c-1.9,0.9-3.6,2.1-5.1,3.6c-1.2,1.2-1.9,2.9-1.9,4.6
	c0,1.7,0.7,3.4,1.9,4.6c2.3,2.4,5.3,4.1,8.5,5c4.2,1.3,8.5,1.9,12.9,1.9c5.6,0.1,11.2-1,16.3-3.2c1.9-0.9,3.6-2.1,5.1-3.6
	c1.2-1.3,1.9-2.9,1.9-4.7H47.7z"/>
<path class="st4" d="M12.3,22.7l2.9,0.2c0.6,0,1.3,0.1,1.9,0.2c0.6,0.1,1.2,0.2,1.8,0.2c0.6,0,1.2-0.3,1.9-0.4l0.7-0.1l8.5-0.5h4.3
	c1.1,0,2.3,0,3.4,0.1c0.5,0,1,0.2,1.5,0.4h0.1c0.2,0,0.4-0.2,0.6-0.2c0.6-0.1,1.3-0.1,1.9-0.1h4.1c0,0,0-0.1-0.1-0.1l-2.3-0.2
	l-0.9-0.1c-0.7,0-1.3-0.1-2-0.2c-0.2,0-0.5-0.1-0.7-0.2c-0.2-0.2-0.4-0.4-0.4-0.7l-0.1-0.4l-0.2-0.8l-0.1,0.5
	c-0.1,0.3-0.1,0.5-0.2,0.8c-0.1,0.1-0.1,0.3-0.2,0.4l-0.2,0.1C38.4,21.9,38.2,22,38,22h-1.2h-1.3h-2.1c-0.2,0-0.4,0-0.6,0H32
	l-1.2-0.1l-2.7-0.2l-1.6-0.2l-1.7-0.2L22.6,21c-0.2,0-0.4-0.1-0.6-0.1c-0.4-0.1-0.8-0.4-1.1-0.6c-0.3-0.3-0.6-0.7-0.8-1.1
	c-0.2-0.5-0.3-1-0.5-1.5L19.1,16c0-0.1-0.1-0.3-0.2-0.4s-0.2,0-0.2,0.1l-0.2,0.5l-0.4,1.1l-0.4,1.1l-0.4,0.9l-0.2,0.4L16.9,20
	l-0.4,0.4c-0.3,0.3-0.7,0.6-1.1,0.8c-0.4,0.1-0.8,0.1-1.2,0.2l-1.7,0.1L11,21.6l-1.4,0.1l-0.9,0.1c-0.3,0-0.6,0.1-0.8,0.1L6.2,22
	c-0.5,0-1.1,0.1-1.6,0.2c-0.1,0-0.2,0.1-0.2,0.1v0.1l2.9,0.1C8.9,22.6,10.6,22.6,12.3,22.7z"/>
</svg>
