<?xml version="1.0" encoding="utf-8"?>
<!-- Generator: Adobe Illustrator 22.1.0, SVG Export Plug-In . SVG Version: 6.00 Build 0)  -->
<svg version="1.1" id="Layer_1" xmlns="http://www.w3.org/2000/svg" xmlns:xlink="http://www.w3.org/1999/xlink" x="0px" y="0px"
	 viewBox="0 0 50 50" style="enable-background:new 0 0 50 50;" xml:space="preserve">
<style type="text/css">
	.st0{fill:#FF0016;}
</style>
<title>suzuki</title>
<path class="st0" d="M2,16c0.9-0.3,1.7-0.6,2.5-1c1.3-0.5,2.6-1.1,3.9-1.7c5.9-2.8,11.2-6.6,15.9-11.2c0.1-0.1,0.7-0.8,0.7-0.7
	l23.1,16.4c-3.8,2.3-8.2,4.2-12.7,3.6c-5.8-0.8-10.1-5.7-15.2-8.5c-0.3-0.2-0.7-0.3-1.1-0.3c-0.4,0-0.8,0.4-0.7,0.8L48,34
	c-8.7,3-16.7,8-23.1,14.6L1.8,32.2c4.3-2.6,9.4-4.6,14.2-3.3c2.5,0.8,4.8,2.1,6.9,3.7l6.2,4.3c0.4,0.3,0.8,0.5,1.3,0.6
	c0.5,0,1-0.3,1.1-0.8c0-0.3-1.9-1.3-2.2-1.5l-2.3-1.6l-4.6-3.2L13.4,24l-5.8-4l-2.8-2l-1.5-1C2.9,16.7,2.4,16.4,2,16z"/>
</svg>
