<?xml version="1.0" encoding="utf-8"?>
<!-- Generator: Adobe Illustrator 22.1.0, SVG Export Plug-In . SVG Version: 6.00 Build 0)  -->
<svg version="1.1" id="Layer_1" xmlns="http://www.w3.org/2000/svg" xmlns:xlink="http://www.w3.org/1999/xlink" x="0px" y="0px"
	 viewBox="0 0 50 50" style="enable-background:new 0 0 50 50;" xml:space="preserve">
<style type="text/css">
	.st0{fill:url(#SVGID_1_);}
	.st1{fill:#E31937;}
</style>
<title>tesla</title>
<radialGradient id="SVGID_1_" cx="18.87" cy="12.42" r="32.72" gradientTransform="matrix(1 0 0 -1 0 30)" gradientUnits="userSpaceOnUse">
	<stop  offset="0.3" style="stop-color:#FFFFFF"/>
	<stop  offset="0.81" style="stop-color:#808080"/>
	<stop  offset="0.88" style="stop-color:#858585"/>
	<stop  offset="0.97" style="stop-color:#929292"/>
	<stop  offset="1" style="stop-color:#999999"/>
</radialGradient>
<path class="st0" d="M17.2,6.7l-1.4,0.9l-0.1,2.8l2.6,1.3l1.6-0.9L17,9.5L17.2,6.7z"/>
<path class="st1" d="M25,47l6.2-34.7c5.9,0,7.7,0.6,8,3.3c2.3-0.9,4.4-2.5,5.9-4.5c-4.9-2.2-10.2-3.5-15.6-3.8L25,12.9l0,0l-4.6-5.6
	C15.1,7.6,9.8,8.9,4.9,11.1c1.5,2,3.6,3.5,5.9,4.5c0.3-2.6,2.1-3.3,8-3.3L25,47"/>
<path class="st1" d="M25,5.7C32.2,5.6,39.3,7,45.8,9.9c0.5-0.8,0.9-1.7,1.2-2.6C40.1,4.5,32.6,3,25,3S9.9,4.5,2.9,7.3
	C3.3,8.2,3.7,9,4.2,9.9C10.7,7,17.8,5.6,25,5.7L25,5.7"/>
</svg>
