<?xml version="1.0" encoding="utf-8"?>
<!-- Generator: Adobe Illustrator 22.1.0, SVG Export Plug-In . SVG Version: 6.00 Build 0)  -->
<svg version="1.1" id="Layer_1" xmlns="http://www.w3.org/2000/svg" xmlns:xlink="http://www.w3.org/1999/xlink" x="0px" y="0px"
	 viewBox="0 0 50 50" style="enable-background:new 0 0 50 50;" xml:space="preserve">
<style type="text/css">
	.st0{fill:url(#SVGID_1_);}
	.st1{fill:url(#SVGID_2_);}
	.st2{fill:url(#SVGID_3_);}
	.st3{fill:url(#SVGID_4_);}
	.st4{fill:url(#SVGID_5_);}
	.st5{fill:url(#SVGID_6_);}
	.st6{fill:url(#SVGID_7_);}
	.st7{fill:url(#SVGID_8_);}
	.st8{fill:#2D2F34;}
	.st9{fill:url(#SVGID_9_);}
	.st10{fill:url(#SVGID_10_);}
	.st11{fill:url(#SVGID_11_);}
	.st12{fill:url(#SVGID_12_);}
</style>
<title>toyota</title>
<path d="M2.1,25c0,7.9,10.2,14.3,22.9,14.3S47.9,32.9,47.9,25S37.6,10.7,25,10.7S2.1,17.1,2.1,25z M2.8,25c0-7.5,9.9-13.6,22.2-13.6
	S47.2,17.5,47.2,25S37.2,38.6,25,38.6S2.8,32.5,2.8,25z"/>
<path d="M22.8,13.3c-5.4,0.3-9.2,1.8-9.9,3.6c-0.1,0.2-0.1,0.4-0.1,0.6c0,0.3,0.1,0.7,0.3,0.9c0.7,1.3,3,2.3,6.3,2.9l0.4,0l0.1-0.3
	c0.5-3.3,1.7-5.9,3.2-7.1l0.9-0.7L22.8,13.3z M13.7,18.1c-0.1-0.2-0.2-0.4-0.2-0.6c0-0.1,0-0.2,0.1-0.4l0,0c0.5-1.4,3.9-2.7,8.3-3.1
	c-1.5,1.9-2.4,4.1-2.7,6.5C16.4,20,14.3,19.1,13.7,18.1z"/>
<path d="M21.9,21.2l-0.1,0.4h0.4c0.9,0.1,1.9,0.1,2.8,0.1s1.9,0,2.8-0.1h0.4l-0.1-0.4c-0.5-3-1.7-4.7-3.1-4.7S22.4,18.2,21.9,21.2z
	 M25,17.2c1,0,1.9,1.5,2.4,3.8c-0.8,0-1.6,0-2.4,0s-1.6,0-2.4-0.1C23.1,18.6,24,17.2,25,17.2L25,17.2z"/>
<path d="M26.9,13.9c1.5,1.2,2.7,3.8,3.2,7.1l0.1,0.3l0.4,0c3.3-0.6,5.6-1.6,6.3-2.9c0.3-0.5,0.3-1,0.2-1.5c-0.7-1.9-4.5-3.3-9.9-3.6
	l-1.1-0.1L26.9,13.9z M28.1,14.1c4.4,0.4,7.8,1.6,8.3,3.1c0,0.1,0.1,0.2,0.1,0.4c0,0.2-0.1,0.4-0.2,0.6c-0.6,1-2.7,1.9-5.5,2.5
	C30.5,18.2,29.5,16,28.1,14.1z"/>
<path d="M9.6,18.3c-2.2,1.6-3.6,4.2-3.7,6.9c0,5.9,7.2,10.9,16.8,11.6l1.1,0.1l-0.8-0.7c-2.1-1.8-3.4-6-3.4-11.1v-1.2l-0.3-0.1
	c-5-0.9-8.6-3-9.1-5.4L10,17.9L9.6,18.3z M6.6,25.2c0.1-2.3,1.2-4.5,3-6c0.9,2.4,4.3,4.4,9.2,5.3c0,0.3,0,0.6,0,0.6
	c0,4.7,1.1,8.7,3,10.9C13,35.1,6.6,30.6,6.6,25.2L6.6,25.2z"/>
<path d="M21.6,24.6v0.1c0,4.7,1.5,8.3,3.4,8.3s3.4-3.5,3.4-8.2v-0.5h-0.4c-1,0.1-2,0.1-3,0.1s-2,0-3-0.1h-0.4L21.6,24.6z M27.7,25
	c0,4.4-1.4,7.3-2.7,7.3s-2.7-2.9-2.7-7.2c0.9,0.1,1.8,0.1,2.7,0.1S26.8,25,27.7,25L27.7,25z"/>
<path d="M39.9,18.5c-0.5,2.4-4.1,4.5-9.1,5.4l-0.3,0v1.2c0,5.1-1.3,9.3-3.4,11.1l-0.8,0.7l1.1-0.1c9.6-0.7,16.8-5.7,16.8-11.6
	c-0.1-2.7-1.5-5.3-3.7-6.9L40,17.9L39.9,18.5z M40.4,19.2c1.8,1.5,2.9,3.7,3,6c0,5.4-6.5,9.9-15.2,10.8c1.8-2.2,3-6.2,3-10.9
	c0,0,0-0.4,0-0.6C36,23.6,39.5,21.6,40.4,19.2z"/>
<linearGradient id="SVGID_1_" gradientUnits="userSpaceOnUse" x1="25" y1="15" x2="25" y2="30.9" gradientTransform="matrix(1 0 0 -1 0 51)">
	<stop  offset="0" style="stop-color:#F0F3F5"/>
	<stop  offset="6.000000e-02" style="stop-color:#E2E5E8"/>
	<stop  offset="0.14" style="stop-color:#D4D8DD"/>
	<stop  offset="0.24" style="stop-color:#CCD0D6"/>
	<stop  offset="0.44" style="stop-color:#CACED4"/>
	<stop  offset="0.57" style="stop-color:#B3B7BD"/>
	<stop  offset="0.84" style="stop-color:#797C83"/>
	<stop  offset="1" style="stop-color:#52545C"/>
</linearGradient>
<path class="st0" d="M40.1,16.7c0,0.1,0.1,0.2,0.1,0.3c0.1,0.5,0.1,1-0.1,1.5c2.2,1.6,3.5,4,3.6,6.7c0,6.3-8.4,11.4-18.8,11.4
	S6.2,31.5,6.2,25.2c0.1-2.7,1.5-5.1,3.6-6.7c-0.2-0.5-0.2-1-0.1-1.5c0-0.1,0.1-0.2,0.1-0.3c-3.1,2.2-5,5.1-5,8.3
	c0,7,9,12.6,20.1,12.6S45.1,31.9,45.1,25C45.1,21.8,43.2,18.9,40.1,16.7z"/>
<linearGradient id="SVGID_2_" gradientUnits="userSpaceOnUse" x1="25" y1="27.12" x2="25" y2="35.74" gradientTransform="matrix(1 0 0 -1 0 51)">
	<stop  offset="0" style="stop-color:#F0F3F5"/>
	<stop  offset="6.000000e-02" style="stop-color:#E2E5E8"/>
	<stop  offset="0.14" style="stop-color:#D4D8DD"/>
	<stop  offset="0.24" style="stop-color:#CCD0D6"/>
	<stop  offset="0.44" style="stop-color:#CACED4"/>
	<stop  offset="0.57" style="stop-color:#B3B7BD"/>
	<stop  offset="0.84" style="stop-color:#797C83"/>
	<stop  offset="1" style="stop-color:#52545C"/>
</linearGradient>
<path class="st1" d="M27.8,21.3c-0.9,0.1-1.8,0.1-2.8,0.1s-1.9,0-2.8-0.1l0,0l-0.6,0.4c1.1,0.1,2.2,0.1,3.4,0.1s2.3,0,3.4-0.1
	L27.8,21.3L27.8,21.3z M38.1,16.9c-0.7-2.3-6.5-4.1-13.1-4.1s-12.4,1.7-13.1,4.1c-0.6,2,2.7,3.9,8,4.6L19.5,21l0,0
	c-4.3-0.7-6.8-2.3-6.2-3.9C14,15,19.1,13.6,25,13.6S36,15,36.7,17c0.6,1.6-2,3.2-6.2,3.9l0,0l-0.5,0.6
	C35.3,20.8,38.7,18.9,38.1,16.9z"/>
<linearGradient id="SVGID_3_" gradientUnits="userSpaceOnUse" x1="27.8594" y1="28.6993" x2="22.4794" y2="33.2193" gradientTransform="matrix(1 0 0 -1 0 51)">
	<stop  offset="0" style="stop-color:#F0F3F5"/>
	<stop  offset="6.000000e-02" style="stop-color:#E2E5E8"/>
	<stop  offset="0.14" style="stop-color:#D4D8DD"/>
	<stop  offset="0.24" style="stop-color:#CCD0D6"/>
	<stop  offset="0.44" style="stop-color:#CACED4"/>
	<stop  offset="0.57" style="stop-color:#B3B7BD"/>
	<stop  offset="0.84" style="stop-color:#797C83"/>
	<stop  offset="1" style="stop-color:#52545C"/>
</linearGradient>
<path class="st2" d="M22.2,21.3c0.5-2.7,1.6-4.4,2.8-4.4s2.3,1.7,2.8,4.4l0,0l0.6,0.4c-0.5-3.6-1.8-5.9-3.4-5.9s-2.9,2.3-3.4,5.9
	L22.2,21.3L22.2,21.3z"/>
<linearGradient id="SVGID_4_" gradientUnits="userSpaceOnUse" x1="28.4155" y1="21.1995" x2="20.5654" y2="25.7295" gradientTransform="matrix(1 0 0 -1 0 51)">
	<stop  offset="0" style="stop-color:#F0F3F5"/>
	<stop  offset="6.000000e-02" style="stop-color:#E2E5E8"/>
	<stop  offset="0.14" style="stop-color:#D4D8DD"/>
	<stop  offset="0.24" style="stop-color:#CCD0D6"/>
	<stop  offset="0.44" style="stop-color:#CACED4"/>
	<stop  offset="0.57" style="stop-color:#B3B7BD"/>
	<stop  offset="0.84" style="stop-color:#797C83"/>
	<stop  offset="1" style="stop-color:#52545C"/>
</linearGradient>
<path class="st3" d="M28.5,23.7l-0.5,0.9l0,0c0,0.1,0,0.1,0,0.2c0,4.5-1.4,7.9-3.1,7.9s-3.1-3.4-3.1-7.9c0-0.1,0-0.1,0-0.2l-0.5-0.8
	c0,0.3,0,0.7,0,1c0,5.1,1.6,9,3.6,9s3.6-3.9,3.6-9C28.6,24.4,28.6,24.1,28.5,23.7z"/>
<linearGradient id="SVGID_5_" gradientUnits="userSpaceOnUse" x1="22.295" y1="39.96" x2="22.295" y2="26.29" gradientTransform="matrix(1 0 0 -1 0 51)">
	<stop  offset="0" style="stop-color:#F0F3F5"/>
	<stop  offset="6.000000e-02" style="stop-color:#E2E5E8"/>
	<stop  offset="0.14" style="stop-color:#D4D8DD"/>
	<stop  offset="0.24" style="stop-color:#CCD0D6"/>
	<stop  offset="0.44" style="stop-color:#CACED4"/>
	<stop  offset="0.57" style="stop-color:#B3B7BD"/>
	<stop  offset="0.84" style="stop-color:#797C83"/>
	<stop  offset="1" style="stop-color:#52545C"/>
</linearGradient>
<path class="st4" d="M20,21.5c0.7-5,2.7-8.7,5-8.7c-2.5,0-4.7,3.3-5.5,8.1C19.5,21,20,21.5,20,21.5z"/>
<linearGradient id="SVGID_6_" gradientUnits="userSpaceOnUse" x1="27.75" y1="39.96" x2="27.75" y2="26.29" gradientTransform="matrix(1 0 0 -1 0 51)">
	<stop  offset="0" style="stop-color:#F0F3F5"/>
	<stop  offset="6.000000e-02" style="stop-color:#E2E5E8"/>
	<stop  offset="0.14" style="stop-color:#D4D8DD"/>
	<stop  offset="0.24" style="stop-color:#CCD0D6"/>
	<stop  offset="0.44" style="stop-color:#CACED4"/>
	<stop  offset="0.57" style="stop-color:#B3B7BD"/>
	<stop  offset="0.84" style="stop-color:#797C83"/>
	<stop  offset="1" style="stop-color:#52545C"/>
</linearGradient>
<path class="st5" d="M30,21.5L30,21.5l0.5-0.5c-0.8-4.9-3-8.1-5.5-8.1C27.4,12.8,29.4,16.5,30,21.5z"/>
<linearGradient id="SVGID_7_" gradientUnits="userSpaceOnUse" x1="27.92" y1="40.07" x2="27.92" y2="17.26" gradientTransform="matrix(1 0 0 -1 0 51)">
	<stop  offset="0" style="stop-color:#F0F3F5"/>
	<stop  offset="6.000000e-02" style="stop-color:#E2E5E8"/>
	<stop  offset="0.14" style="stop-color:#D4D8DD"/>
	<stop  offset="0.24" style="stop-color:#CCD0D6"/>
	<stop  offset="0.44" style="stop-color:#CACED4"/>
	<stop  offset="0.57" style="stop-color:#B3B7BD"/>
	<stop  offset="0.84" style="stop-color:#797C83"/>
	<stop  offset="1" style="stop-color:#52545C"/>
</linearGradient>
<path class="st6" d="M30.8,24.2l-0.6-0.7l0,0c0,0.5,0,1.1,0,1.7c0,6.8-2.4,12.4-5.3,12.4c3.3,0,5.8-5.1,5.8-12.4
	C30.8,24.9,30.8,24.5,30.8,24.2z"/>
<linearGradient id="SVGID_8_" gradientUnits="userSpaceOnUse" x1="22.1" y1="40.07" x2="22.1" y2="17.26" gradientTransform="matrix(1 0 0 -1 0 51)">
	<stop  offset="0" style="stop-color:#F0F3F5"/>
	<stop  offset="6.000000e-02" style="stop-color:#E2E5E8"/>
	<stop  offset="0.14" style="stop-color:#D4D8DD"/>
	<stop  offset="0.24" style="stop-color:#CCD0D6"/>
	<stop  offset="0.44" style="stop-color:#CACED4"/>
	<stop  offset="0.57" style="stop-color:#B3B7BD"/>
	<stop  offset="0.84" style="stop-color:#797C83"/>
	<stop  offset="1" style="stop-color:#52545C"/>
</linearGradient>
<path class="st7" d="M19.7,25.2c0-0.6,0-1.1,0-1.7l0,0l-0.6,0.7c0,0.3,0,0.6,0,1c0,7.2,2.6,12.4,5.8,12.4
	C22.1,37.5,19.7,32,19.7,25.2z"/>
<path class="st8" d="M40.1,18.5c0.8,0.7,1.6,1.5,2.2,2.3c-0.2-1.3-0.7-2.6-1.5-3.6c-0.2-0.2-0.4-0.3-0.7-0.5c0,0.1,0.1,0.2,0.1,0.3
	C40.3,17.5,40.3,18,40.1,18.5z"/>
<path class="st8" d="M9.9,18.5c-0.2-0.5-0.2-1-0.1-1.5c0-0.1,0.1-0.2,0.1-0.3c-0.2,0.2-0.5,0.3-0.7,0.5c-0.8,1.1-1.3,2.3-1.5,3.6
	C8.3,20,9,19.2,9.9,18.5z"/>
<linearGradient id="SVGID_9_" gradientUnits="userSpaceOnUse" x1="25" y1="39.96" x2="25" y2="12.05" gradientTransform="matrix(1 0 0 -1 0 51)">
	<stop  offset="0" style="stop-color:#F0F3F5"/>
	<stop  offset="0.25" style="stop-color:#EDF0F3"/>
	<stop  offset="0.41" style="stop-color:#E5E8EA"/>
	<stop  offset="0.53" style="stop-color:#D7DADC"/>
	<stop  offset="0.64" style="stop-color:#C3C5C9"/>
	<stop  offset="0.74" style="stop-color:#A9ABAF"/>
	<stop  offset="0.84" style="stop-color:#888B90"/>
	<stop  offset="0.93" style="stop-color:#63656B"/>
	<stop  offset="1" style="stop-color:#3D3F46"/>
</linearGradient>
<path class="st9" d="M2.5,25c0-7.7,10.1-14,22.5-14s22.5,6.2,22.5,14S37.4,39,25,39S2.5,32.7,2.5,25z M25,37.5
	c11.1,0,20.1-5.6,20.1-12.6s-9-12.6-20.1-12.6S4.9,18,4.9,25S13.9,37.5,25,37.5z"/>
<linearGradient id="SVGID_10_" gradientUnits="userSpaceOnUse" x1="25" y1="39.96" x2="25" y2="12.05" gradientTransform="matrix(1 0 0 -1 0 51)">
	<stop  offset="0" style="stop-color:#F0F3F5"/>
	<stop  offset="0.25" style="stop-color:#EDF0F3"/>
	<stop  offset="0.41" style="stop-color:#E5E8EA"/>
	<stop  offset="0.53" style="stop-color:#D7DADC"/>
	<stop  offset="0.64" style="stop-color:#C3C5C9"/>
	<stop  offset="0.74" style="stop-color:#A9ABAF"/>
	<stop  offset="0.84" style="stop-color:#888B90"/>
	<stop  offset="0.93" style="stop-color:#63656B"/>
	<stop  offset="1" style="stop-color:#3D3F46"/>
</linearGradient>
<path class="st10" d="M19.7,25.2c0-6.8,2.4-12.4,5.3-12.4s5.3,5.6,5.3,12.4S27.9,37.5,25,37.5S19.7,32,19.7,25.2z M25,33.8
	c2,0,3.6-3.9,3.6-9c0-5.3-1.6-9-3.6-9s-3.6,3.7-3.6,9C21.4,29.9,23,33.8,25,33.8z"/>
<linearGradient id="SVGID_11_" gradientUnits="userSpaceOnUse" x1="25" y1="39.95" x2="25" y2="12.04" gradientTransform="matrix(1 0 0 -1 0 51)">
	<stop  offset="0" style="stop-color:#F0F3F5"/>
	<stop  offset="0.25" style="stop-color:#EDF0F3"/>
	<stop  offset="0.41" style="stop-color:#E5E8EA"/>
	<stop  offset="0.53" style="stop-color:#D7DADC"/>
	<stop  offset="0.64" style="stop-color:#C3C5C9"/>
	<stop  offset="0.74" style="stop-color:#A9ABAF"/>
	<stop  offset="0.84" style="stop-color:#888B90"/>
	<stop  offset="0.93" style="stop-color:#63656B"/>
	<stop  offset="1" style="stop-color:#3D3F46"/>
</linearGradient>
<path class="st11" d="M9.8,17c0.6-2.3,7.6-5.6,15.2-5.6s14.4,2.3,15.2,5.6c0.9,3.6-5.8,6.9-15.2,6.9S8.9,20.6,9.8,17z M25,12.8
	c-6.5,0-12.4,1.7-13.1,4c-0.8,2.6,5,5,13.1,5s13.8-2.4,13.1-5C37.4,14.5,31.5,12.8,25,12.8z"/>
<linearGradient id="SVGID_12_" gradientUnits="userSpaceOnUse" x1="25" y1="34.17" x2="25" y2="26.21" gradientTransform="matrix(1 0 0 -1 0 51)">
	<stop  offset="0" style="stop-color:#CACED4"/>
	<stop  offset="1" style="stop-color:#52545C"/>
</linearGradient>
<path class="st12" d="M21.5,23.7L21.5,23.7l0.5,0.9c1,0.1,2,0.1,3.1,0.1s2.1,0,3.1-0.1l0.5-0.9l0,0c-1.1,0.1-2.3,0.2-3.5,0.2
	S22.6,23.8,21.5,23.7z M40.3,17.7c-0.1,2.6-4.1,4.9-10,5.8l0,0l0.6,0.7C36.6,23.2,40.4,20.6,40.3,17.7L40.3,17.7z M9.7,17.7
	c-0.1,2.9,3.7,5.4,9.5,6.5l0.6-0.7l0,0C13.8,22.6,9.8,20.3,9.7,17.7L9.7,17.7z"/>
</svg>
