<?xml version="1.0" encoding="utf-8"?>
<!-- Generator: Adobe Illustrator 23.0.1, SVG Export Plug-In . SVG Version: 6.00 Build 0)  -->
<svg version="1.1" id="Layer_1" xmlns="http://www.w3.org/2000/svg" xmlns:xlink="http://www.w3.org/1999/xlink" x="0px" y="0px"
	 viewBox="0 0 50 50" style="enable-background:new 0 0 50 50;" xml:space="preserve">
<style type="text/css">
	.st0{fill:url(#SVGID_1_);}
	.st1{fill:url(#SVGID_2_);}
	.st2{fill:url(#SVGID_3_);}
	.st3{fill:url(#SVGID_4_);}
	.st4{opacity:0.77;fill:url(#SVGID_5_);enable-background:new    ;}
	.st5{fill:url(#SVGID_6_);}
</style>
<title>vauxhall</title>
<linearGradient id="SVGID_1_" gradientUnits="userSpaceOnUse" x1="4.8" y1="5.8" x2="46.4" y2="5.8" gradientTransform="matrix(1 0 0 -1 0 31)">
	<stop  offset="0" style="stop-color:#BE2026"/>
	<stop  offset="0.36" style="stop-color:#BC2026"/>
	<stop  offset="0.57" style="stop-color:#B31E24"/>
	<stop  offset="0.74" style="stop-color:#A51B22"/>
	<stop  offset="0.89" style="stop-color:#92181F"/>
	<stop  offset="1" style="stop-color:#7F141C"/>
</linearGradient>
<circle class="st0" cx="25.6" cy="25.2" r="20.8"/>
<radialGradient id="SVGID_2_" cx="25.6" cy="5.853" r="19.9361" gradientTransform="matrix(1 0 0 -1 0 31)" gradientUnits="userSpaceOnUse">
	<stop  offset="0" style="stop-color:#FFFFFF"/>
	<stop  offset="0.29" style="stop-color:#FDFDFD"/>
	<stop  offset="0.45" style="stop-color:#F4F4F4"/>
	<stop  offset="0.59" style="stop-color:#E6E6E6"/>
	<stop  offset="0.71" style="stop-color:#D2D2D2"/>
	<stop  offset="0.81" style="stop-color:#B9B9B9"/>
	<stop  offset="0.91" style="stop-color:#999999"/>
	<stop  offset="0.95" style="stop-color:#898989"/>
	<stop  offset="1" style="stop-color:#3C3C3C"/>
</radialGradient>
<path class="st1" d="M32.4,5.4l-0.5-0.1c-2.1-0.1-4.2,0.1-6.3,0.6c-1,0.3-2,0.7-3,1.2c-0.9,0.5-1.8,1.2-2.6,1.8
	c-0.1,0.1-0.2,0.4-0.3,0.4h0.1l0.5-0.1c3-0.8,6.2-0.9,9.2-0.1c1.3,0.4,2.5,0.9,3.7,1.6c0.2,0.1,0.5,0.3,0.7,0.5
	c1.1,0.8,2.2,1.8,3,2.9c2.2,2.7,3.3,6.1,3.1,9.6c-0.4,3.7-2.6,6.9-5.8,8.6C33,33,31.1,30.8,30.5,30c-1.5-1.9-4.1-9.3,0.5-9l0.8,0.1
	C31.9,21,32,21,32,20.8l0,0c-0.1-0.2-0.3-0.4-0.6-0.5L31,20l-0.9-0.5l0.3-0.1c0.4,0,0.9-0.1,1.3-0.1c0.3,0,0.7,0,1,0.1
	s0.5,0.3,0.7,0.5s0.2,0.5,0.4,0.7c0.2-0.2,0.3-0.5,0.4-0.8c0.4-0.7,0.5-1.5,0.3-2.3c-0.1-0.2-0.1-0.4-0.3-0.6c-0.5-0.6-1.2-0.9-2-1
	c-0.2,0-0.4-0.1-0.6-0.1l-0.1-0.2c-0.1-0.3-0.2-0.5-0.4-0.8c-0.2-0.2-0.4-0.3-0.7-0.3c-0.2,0-0.4-0.1-0.6-0.1c-0.3,0-0.7-0.1-1-0.1
	s-0.5,0-0.8-0.1c-0.2,0-0.5-0.1-0.7-0.2c-0.1-0.1-0.2-0.2-0.3-0.3c0-0.2,0-0.4,0-0.6c0.1-0.5,0.2-0.9,0.3-1.4l-0.1,0.1L27,12.2
	l-1.1,0.6c-0.7,0.3-1.3,0.8-1.7,1.4l-0.4,0.7c-0.1,0.1-0.2,0.2-0.3,0.2c-0.8,0.5-1.5,1.2-2.2,1.9L20,18.5l0.6-0.1l-0.3,0.4
	c-0.8,0.9-1.5,1.8-2.1,2.8c-0.2,0.4-0.4,0.7-0.6,1.1c0,0.1-0.2,0.7-0.4,0.7l0.8-0.2c-1,2.1-1.7,4.2-2.2,6.4l1.6-0.5l-0.1,1.5h-6.1
	c-0.3-0.3-0.7-0.6-1.2-0.8c-0.4-0.1-0.9-0.1-1.4-0.1l-0.3-1.3L8,26.6l0-1.3v-2.7c0-0.5,0.1-0.9,0.2-1.4c0.1-0.4,0.1-0.9,0.3-1.3h8.2
	c0.1,0.1,0.3,0,0.4-0.1c0,0,0,0,0-0.1l3.9-7L12.7,13c-0.3,0-0.6,0-0.9-0.1c-0.1,0-0.2-0.1-0.2-0.1c-0.1,0-0.2,0-0.3,0
	c-0.6,0-1,0.6-1.3,1.1l-0.4,0.7c-0.8,1.2-1.5,2.5-2,3.8c-0.5,1.4-0.8,2.9-1,4.4s-0.1,3,0.1,4.5C6.8,28.1,7,29,7.1,29.9l-0.8,0.4
	l-0.7,0.3c0.6,2.1,1.5,4,2.8,5.8h0.4c0.7,0,1.4-0.4,2.1-0.5c0.7-0.1,1.5,0.1,2.1,0.5c0.9,0.6,1.9,1.2,2.9,1.5l1,0.3l-0.3-1.3l1.4,1
	l0.7,2l0.9,2.2l-2,1.6h-0.1c2.4,1,5.1,1.4,7.7,1.4c11.3,0,20.4-9.2,20.4-20.5C45.6,16,40.3,8.4,32.4,5.4z M14.1,13.9l0.9,3.7
	l2.1-3.7H19L16,19h-2.5l-1.2-5.1H14.1z M28.2,15.6c0.1,0,0.2,0,0.4,0c0.5,0,1.1,0.2,1.5,0.4l0.1,0.1v0.1c-0.2,0.2-0.5,0.4-0.8,0.5
	c-0.3,0.2-0.5,0-0.8-0.1S28,16.2,27.7,16C27.9,15.9,28,15.6,28.2,15.6z"/>
<linearGradient id="SVGID_3_" gradientUnits="userSpaceOnUse" x1="14.0136" y1="-7.9072" x2="48.7437" y2="36.4428" gradientTransform="matrix(1 0 0 -1 0 31)">
	<stop  offset="0" style="stop-color:#B1B1B1"/>
	<stop  offset="0.34" style="stop-color:#BEBEBE"/>
	<stop  offset="0.38" style="stop-color:#E1E1E1"/>
	<stop  offset="0.42" style="stop-color:#C0C1C3"/>
	<stop  offset="0.95" style="stop-color:#898989"/>
	<stop  offset="1" style="stop-color:#3C3C3C"/>
</linearGradient>
<path class="st2" d="M46.2,16C41.3,4.3,27.8-1.2,16.1,3.7S-1.1,22.1,3.8,33.8S22.2,51,33.9,46.1c8.5-3.6,14.1-12,14.1-21.2
	C48,21.8,47.4,18.8,46.2,16z M44,32.8c-4.4,10.5-16.5,15.4-27,11S1.6,27.4,6,16.9s16.5-15.4,27-11c7.6,3.2,12.6,10.7,12.6,19
	C45.6,27.6,45.1,30.3,44,32.8z"/>
<linearGradient id="SVGID_4_" gradientUnits="userSpaceOnUse" x1="25.0578" y1="-0.1518" x2="17.3078" y2="9.2982" gradientTransform="matrix(1 0 0 -1 0 31)">
	<stop  offset="1.000000e-02" style="stop-color:#E1E1E1;stop-opacity:0"/>
	<stop  offset="0.28" style="stop-color:#E1E1E1;stop-opacity:1.000000e-02"/>
	<stop  offset="0.42" style="stop-color:#DFDFDF;stop-opacity:5.000000e-02"/>
	<stop  offset="0.54" style="stop-color:#DDDDDD;stop-opacity:0.12"/>
	<stop  offset="0.64" style="stop-color:#DADADA;stop-opacity:0.22"/>
	<stop  offset="0.74" style="stop-color:#D5D6D6;stop-opacity:0.36"/>
	<stop  offset="0.82" style="stop-color:#D0D1D2;stop-opacity:0.52"/>
	<stop  offset="0.9" style="stop-color:#CACACC;stop-opacity:0.71"/>
	<stop  offset="0.98" style="stop-color:#C3C4C5;stop-opacity:0.92"/>
	<stop  offset="1" style="stop-color:#C0C1C3"/>
</linearGradient>
<path class="st3" d="M25.4,13.9c-1.1,2.9-1.8,5.9-2.2,9c-0.4,4.1,0.1,8.2,1.5,12c0.3,0.7,1.7,3,1.3,3.5c-0.4,0.8-3,1.5-3.7,1.9
	l-3,1.5c0.1,0-1.6-5.7-1.7-6.3c-0.3-2.3-0.3-4.6,0-6.9L16,29.1l2.3-6.4l-0.6,0.1l2.8-3.8l0.6-0.9L20.5,18L25.4,13.9z"/>
<linearGradient id="SVGID_5_" gradientUnits="userSpaceOnUse" x1="28.0724" y1="0.6903" x2="31.3324" y2="12.6803" gradientTransform="matrix(1 0 0 -1 0 31)">
	<stop  offset="1.000000e-02" style="stop-color:#E1E1E1;stop-opacity:0"/>
	<stop  offset="0.42" style="stop-color:#E0E0E0;stop-opacity:1.000000e-02"/>
	<stop  offset="0.57" style="stop-color:#DCDCDC;stop-opacity:6.000000e-02"/>
	<stop  offset="0.68" style="stop-color:#D6D6D6;stop-opacity:0.14"/>
	<stop  offset="0.76" style="stop-color:#CCCDCE;stop-opacity:0.25"/>
	<stop  offset="0.83" style="stop-color:#C0C1C2;stop-opacity:0.4"/>
	<stop  offset="0.9" style="stop-color:#B1B2B4;stop-opacity:0.59"/>
	<stop  offset="0.96" style="stop-color:#A0A1A4;stop-opacity:0.8"/>
	<stop  offset="1" style="stop-color:#8F9194"/>
</linearGradient>
<path class="st4" d="M24.6,17.5h3c1.6,0,3.6-0.3,5.1,0.3c1.4,0.6,1.3,1.7,1.1,2.9l-0.5-0.8c-0.7-1.2-2.4,0.1-3.3-0.4l1.8,1l0.4,0.5
	c-0.4,0-0.8,0-1.1,0.1c-0.7,0-1.4,0.3-1.9,0.7c-1.5,1.5-0.7,4.3,0,6c0.8,2,2.2,3.7,4.1,4.8c0.9,0.5,0.5,1.9,0.4,2.7
	c-0.2,3.1-1.2,6.2-2.9,8.8l-2.3-2.3c-1.1-1.4-2-2.9-2.9-4.4c-0.8-1.5-1.4-3.1-2-4.8c-1.3-4.4-1.2-9.2,0.2-13.6l0.5-1.4L24.6,17.5z"
	/>
<linearGradient id="SVGID_6_" gradientUnits="userSpaceOnUse" x1="24.4397" y1="-1.6624" x2="29.7597" y2="1.4376" gradientTransform="matrix(1 0 0 -1 0 31)">
	<stop  offset="0" style="stop-color:#C0C1C3"/>
	<stop  offset="1" style="stop-color:#E1E1E1;stop-opacity:0"/>
</linearGradient>
<path class="st5" d="M24.6,17.5h3c1.6,0,3.6-0.3,5.1,0.3c1.4,0.6,1.3,1.7,1.1,2.9l-0.5-0.8c-0.7-1.2-2.4,0.1-3.3-0.4l1.8,1l0.4,0.5
	c-0.4,0-0.8,0-1.1,0.1c-0.7,0-1.4,0.3-1.9,0.7c-1.5,1.5-0.7,4.3,0,6c0.8,2,2.2,3.7,4.1,4.8c0.9,0.5,0.5,1.9,0.4,2.7
	c-0.2,3.1-1.2,6.2-2.9,8.8l-2.3-2.3c-1.1-1.4-2-2.9-2.9-4.4c-0.8-1.5-1.4-3.1-2-4.8c-1.3-4.4-1.2-9.2,0.2-13.6l0.5-1.4L24.6,17.5z"
	/>
</svg>
