<?xml version="1.0" encoding="utf-8"?>
<!-- Generator: Adobe Illustrator 22.1.0, SVG Export Plug-In . SVG Version: 6.00 Build 0)  -->
<svg version="1.1" id="Layer_1" xmlns="http://www.w3.org/2000/svg" xmlns:xlink="http://www.w3.org/1999/xlink" x="0px" y="0px"
	 viewBox="0 0 50 50" style="enable-background:new 0 0 50 50;" xml:space="preserve">
<style type="text/css">
	.st0{fill:url(#SVGID_1_);}
	.st1{fill:url(#SVGID_2_);}
	.st2{clip-path:url(#SVGID_4_);}
	.st3{fill:url(#SVGID_5_);}
</style>
<title>volkswagen</title>
<linearGradient id="SVGID_1_" gradientUnits="userSpaceOnUse" x1="297.3549" y1="-597.6558" x2="345.2349" y2="-597.6558" gradientTransform="matrix(0.7071 0.7071 0.7071 -0.7071 220.4167 -624.7963)">
	<stop  offset="0" style="stop-color:#1579FF"/>
	<stop  offset="1" style="stop-color:#00255B"/>
</linearGradient>
<circle class="st0" cx="25" cy="25" r="23.9"/>
<linearGradient id="SVGID_2_" gradientUnits="userSpaceOnUse" x1="23.7777" y1="40.8998" x2="26.4077" y2="8.3898" gradientTransform="matrix(1 0 0 -1 0 51)">
	<stop  offset="0" style="stop-color:#F8F8F8"/>
	<stop  offset="0.52" style="stop-color:#F6F6F6"/>
	<stop  offset="0.71" style="stop-color:#EFEFEF"/>
	<stop  offset="0.85" style="stop-color:#E4E4E4"/>
	<stop  offset="0.95" style="stop-color:#D3D3D3"/>
	<stop  offset="1" style="stop-color:#C9C9C9"/>
</linearGradient>
<path class="st1" d="M25,3.9c11.8,0,20.9,9.3,21.1,21.1C45.9,36.8,36.8,46.1,25,46.1c-5.6,0-11-2.2-14.9-6.2C6.1,36,3.9,30.6,3.9,25
	C3.8,13.5,13,4.1,24.6,3.9C24.7,3.9,24.9,3.9,25,3.9z M43,24.9c0-1.9-0.3-3.7-0.9-5.5v-0.1L42,19.5c-2.8,7.5-6.1,14.9-9.8,22
	l-0.1,0.1l0.1-0.1C39.2,38,42.9,32.3,43,24.9L43,24.9z M24.9,43c1.8,0,3.6-0.3,5.4-0.8h0.1l0,0c-1.7-3.6-3.5-7.5-5.4-11.6v-0.1v0.1
	c-1.9,4.1-3.7,7.9-5.4,11.5v0.1h0.1C21.3,42.8,23.1,43,24.9,43z M6.9,24.9c0,7.1,4.1,13.6,10.6,16.5l0.1,0.1l-0.1-0.1
	c-3.8-7.1-7-14.4-9.7-21.9l-0.1-0.1v0.1C7.2,21.2,6.9,23,6.9,24.9z M24.9,6.9c-1.8,0-3.6,0.3-5.3,0.8h-0.1v0.1
	c1.7,3.6,3.4,7.4,5.2,11.5l0,0.1v-0.1c1.2-2.9,3.7-8.1,5.3-11.5l0,0h-0.1C28.4,7.2,26.6,6.9,24.9,6.9L24.9,6.9z M10.3,14.4
	L10.3,14.4c2.2,6.1,5,12.8,8.1,19.4v0.1l0-0.1c1.3-2.9,2.4-5.5,3.6-8.2h5.6c1.2,2.8,2.5,5.6,3.6,8.3V34l0-0.1
	c3-6.5,5.9-13.4,8.2-19.5l0,0c-1.5-2-3.3-3.7-5.4-5l0,0l0,0c-1.9,4.6-4.1,9.5-6.5,14.7h-5.6c-2.3-5.2-4.4-10.1-6.4-14.6V9.4l0,0
	C13.6,10.7,11.7,12.4,10.3,14.4L10.3,14.4z"/>
<g>
	<defs>
		<path id="SVGID_3_" d="M25,3.9c11.8,0,20.9,9.3,21.1,21.1C45.9,36.8,36.8,46.1,25,46.1c-5.6,0-11-2.2-14.9-6.2
			C6.1,36,3.9,30.6,3.9,25C3.8,13.5,13,4.1,24.6,3.9C24.7,3.9,24.9,3.9,25,3.9z M43,24.9c0-1.9-0.3-3.7-0.9-5.5v-0.1L42,19.5
			c-2.8,7.5-6.1,14.9-9.8,22l-0.1,0.1l0.1-0.1C39.2,38,42.9,32.3,43,24.9L43,24.9z M24.9,43c1.8,0,3.6-0.3,5.4-0.8h0.1l0,0
			c-1.7-3.6-3.5-7.5-5.4-11.6v-0.1v0.1c-1.9,4.1-3.7,7.9-5.4,11.5v0.1h0.1C21.3,42.8,23.1,43,24.9,43z M6.9,24.9
			c0,7.1,4.1,13.6,10.6,16.5l0.1,0.1l-0.1-0.1c-3.8-7.1-7-14.4-9.7-21.9l-0.1-0.1v0.1C7.2,21.2,6.9,23,6.9,24.9z M24.9,6.9
			c-1.8,0-3.6,0.3-5.3,0.8h-0.1v0.1c1.7,3.6,3.4,7.4,5.2,11.5l0,0.1v-0.1c1.2-2.9,3.7-8.1,5.3-11.5l0,0h-0.1
			C28.4,7.2,26.6,6.9,24.9,6.9L24.9,6.9z M10.3,14.4L10.3,14.4c2.2,6.1,5,12.8,8.1,19.4v0.1l0-0.1c1.3-2.9,2.4-5.5,3.6-8.2h5.6
			c1.2,2.8,2.5,5.6,3.6,8.3V34l0-0.1c3-6.5,5.9-13.4,8.2-19.5l0,0c-1.5-2-3.3-3.7-5.4-5l0,0l0,0c-1.9,4.6-4.1,9.5-6.5,14.7h-5.6
			c-2.3-5.2-4.4-10.1-6.4-14.6V9.4l0,0C13.6,10.7,11.7,12.4,10.3,14.4L10.3,14.4z"/>
	</defs>
	<clipPath id="SVGID_4_">
		<use xlink:href="#SVGID_3_"  style="overflow:visible;"/>
	</clipPath>
	<g class="st2">
		
			<linearGradient id="SVGID_5_" gradientUnits="userSpaceOnUse" x1="23.7634" y1="40.8903" x2="26.4034" y2="8.3903" gradientTransform="matrix(1 0 0 -1 0 51)">
			<stop  offset="0" style="stop-color:#F8F8F8"/>
			<stop  offset="0.52" style="stop-color:#F6F6F6"/>
			<stop  offset="0.71" style="stop-color:#EFEFEF"/>
			<stop  offset="0.85" style="stop-color:#E4E4E4"/>
			<stop  offset="0.95" style="stop-color:#D3D3D3"/>
			<stop  offset="1" style="stop-color:#C9C9C9"/>
		</linearGradient>
		<rect x="3.9" y="3.9" class="st3" width="42.2" height="42.2"/>
	</g>
</g>
</svg>
