<?xml version="1.0" encoding="utf-8"?>
<!-- Generator: Adobe Illustrator 22.1.0, SVG Export Plug-In . SVG Version: 6.00 Build 0)  -->
<svg version="1.1" id="Layer_1" xmlns="http://www.w3.org/2000/svg" xmlns:xlink="http://www.w3.org/1999/xlink" x="0px" y="0px"
	 viewBox="0 0 50 50" style="enable-background:new 0 0 50 50;" xml:space="preserve">
<style type="text/css">
	.st0{fill:url(#SVGID_1_);}
	.st1{fill:#1C2A57;}
	.st2{fill:url(#SVGID_2_);}
	.st3{fill:url(#SVGID_3_);}
	.st4{fill:url(#SVGID_4_);}
	.st5{fill:url(#SVGID_5_);}
	.st6{fill:url(#SVGID_6_);}
	.st7{fill:#7B7B7B;}
	.st8{fill:url(#SVGID_7_);}
</style>
<title>volvo</title>
<linearGradient id="SVGID_1_" gradientUnits="userSpaceOnUse" x1="-450.8416" y1="-234.8815" x2="-450.7716" y2="-234.8815" gradientTransform="matrix(114.69 219.83 -219.83 114.69 95.1009 126066.3125)">
	<stop  offset="0" style="stop-color:#E8E9EA"/>
	<stop  offset="0.24" style="stop-color:#E8E9EA"/>
	<stop  offset="1" style="stop-color:#9B9DA0"/>
</linearGradient>
<rect x="6.6" y="20.1" class="st0" width="36.9" height="9.8"/>
<path class="st1" d="M4.7,20.6h40.4c0.4,0,0.8,0.4,0.8,0.8v7.3c0,0.4-0.4,0.8-0.8,0.8H4.7c-0.4,0-0.8-0.4-0.8-0.8v-7.3
	C3.9,20.9,4.3,20.6,4.7,20.6z"/>
<linearGradient id="SVGID_2_" gradientUnits="userSpaceOnUse" x1="-452.7985" y1="-234.1456" x2="-452.7385" y2="-234.1456" gradientTransform="matrix(0 162.73 -162.73 0 -38077.0078 73708.2188)">
	<stop  offset="0" style="stop-color:#E8E9EA"/>
	<stop  offset="0.24" style="stop-color:#E8E9EA"/>
	<stop  offset="1" style="stop-color:#9B9DA0"/>
</linearGradient>
<path class="st2" d="M22.6,27.1h5.9v-2h-0.6c0,0.7-0.6,1.3-1.3,1.3c0,0-0.1,0-0.1,0h-0.9v-2.9h1v-0.6h-4v0.6h1v2.9h-1V27.1z"/>
<linearGradient id="SVGID_3_" gradientUnits="userSpaceOnUse" x1="-452.7985" y1="-234.6783" x2="-452.7385" y2="-234.6783" gradientTransform="matrix(0 162.73 -162.73 0 -38169.8984 73708.2188)">
	<stop  offset="0" style="stop-color:#E8E9EA"/>
	<stop  offset="0.24" style="stop-color:#E8E9EA"/>
	<stop  offset="1" style="stop-color:#9B9DA0"/>
</linearGradient>
<path class="st3" d="M19.3,27.2c2,0,3-1,3-2.2s-1.1-2.2-3-2.2s-3,1-3,2.2S17.3,27.2,19.3,27.2z M18.2,25c0-0.8,0.4-1.5,1.1-1.5
	s1,0.7,1,1.6s-0.3,1.6-1.1,1.6S18.2,25.8,18.2,25z"/>
<linearGradient id="SVGID_4_" gradientUnits="userSpaceOnUse" x1="-452.7985" y1="-233.6358" x2="-452.7385" y2="-233.6358" gradientTransform="matrix(0 162.73 -162.73 0 -37988.1094 73708.2188)">
	<stop  offset="0" style="stop-color:#E8E9EA"/>
	<stop  offset="0.24" style="stop-color:#E8E9EA"/>
	<stop  offset="1" style="stop-color:#9B9DA0"/>
</linearGradient>
<polygon class="st4" points="31.6,22.9 27.4,22.9 27.4,23.5 28.3,23.5 30.3,27.1 32.6,27.1 34.5,23.5 35.5,23.5 35.5,22.9 
	32.6,22.9 32.6,23.5 33.4,23.5 32,26.1 30.6,23.5 31.6,23.5 "/>
<linearGradient id="SVGID_5_" gradientUnits="userSpaceOnUse" x1="-452.7985" y1="-235.254" x2="-452.7385" y2="-235.254" gradientTransform="matrix(0 162.73 -162.73 0 -38270.2969 73708.2188)">
	<stop  offset="0" style="stop-color:#E8E9EA"/>
	<stop  offset="0.24" style="stop-color:#E8E9EA"/>
	<stop  offset="1" style="stop-color:#9B9DA0"/>
</linearGradient>
<polygon class="st5" points="12.8,22.9 8.5,22.9 8.5,23.5 9.5,23.5 11.5,27.1 13.8,27.1 15.7,23.5 16.7,23.5 16.7,22.9 13.7,22.9 
	13.7,23.5 14.6,23.5 13.2,26.1 11.7,23.5 12.8,23.5 "/>
<linearGradient id="SVGID_6_" gradientUnits="userSpaceOnUse" x1="-452.7985" y1="-233.0607" x2="-452.7385" y2="-233.0607" gradientTransform="matrix(0 162.73 -162.73 0 -37887.8086 73708.2188)">
	<stop  offset="0" style="stop-color:#E8E9EA"/>
	<stop  offset="0.24" style="stop-color:#E8E9EA"/>
	<stop  offset="1" style="stop-color:#9B9DA0"/>
</linearGradient>
<path class="st6" d="M38.2,27.2c2,0,3-1,3-2.2s-1-2.2-3-2.2s-3,1-3,2.2S36.1,27.2,38.2,27.2z M37.1,25c0-0.8,0.4-1.5,1.1-1.5
	s1,0.7,1,1.6s-0.3,1.6-1.1,1.6S37.1,25.8,37.1,25z"/>
<path class="st7" d="M48.2,25L48.2,25c0-4.9-1.5-9.6-4.4-13.5l0.4-0.4c0.6,0.9,1.2,1.8,1.7,2.7l0.1,0.2h1.6V2.4H36V4l0.2,0.1l0,0
	c0.9,0.5,1.8,1.1,2.7,1.7l-0.4,0.4C34.6,3.4,29.9,1.8,25,1.8l0,0C12.2,1.8,1.8,12.2,1.8,25c0,0,0,0,0,0l0,0
	c0,12.8,10.4,23.2,23.2,23.2c0,0,0,0,0,0l0,0C37.8,48.2,48.2,37.8,48.2,25C48.2,25,48.2,25,48.2,25L48.2,25z M25,47.2
	C12.7,47.2,2.7,37.3,2.7,25c0-5.9,2.3-11.6,6.5-15.8l0,0c7.8-7.8,20.1-8.7,29-2.1l0.3,0.2l1.7-1.7l-0.4-0.3c-1-0.7-2-1.4-3-2V3.3
	h9.8v9.8h-0.1c-0.6-1-1.3-2-2-3l-0.3-0.4l-1.7,1.7l0.2,0.3c7.3,9.8,5.3,23.8-4.5,31.1C34.4,45.7,29.8,47.2,25,47.2z"/>
<path class="st7" d="M42.7,25L42.7,25c0-9.8-7.9-17.7-17.7-17.7c0,0,0,0,0,0l0,0C15.2,7.3,7.3,15.2,7.3,25c0,0,0,0,0,0l0,0
	c0,9.7,7.8,17.6,17.5,17.7h0.3C34.9,42.6,42.7,34.7,42.7,25z M25,41.8c-9.3,0-16.8-7.5-16.8-16.8c0-9.3,7.5-16.8,16.8-16.8
	c9.3,0,16.8,7.5,16.8,16.8c0,4.4-1.8,8.7-4.9,11.8C33.7,40,29.4,41.8,25,41.8z"/>
<linearGradient id="SVGID_7_" gradientUnits="userSpaceOnUse" x1="-449.5664" y1="-233.8432" x2="-449.4964" y2="-233.8432" gradientTransform="matrix(532.17 806.32 -806.32 532.17 50709.3398 486943)">
	<stop  offset="0" style="stop-color:#C8CACB"/>
	<stop  offset="0.24" style="stop-color:#C8CACB"/>
	<stop  offset="1" style="stop-color:#6E7072"/>
</linearGradient>
<path class="st8" d="M43.1,11.4l1.1-1.1c0.8,1,1.4,2.1,2,3.2h0.8V2.8H36.4v0.8c1.1,0.6,2.2,1.3,3.2,2l-1.1,1.1
	C28.4-0.7,14.2,1.4,6.7,11.4s-5.4,24.3,4.6,31.8s24.3,5.4,31.8-4.6C49.1,30.5,49.1,19.5,43.1,11.4z M24.9,42.2
	c-9.5,0-17.2-7.7-17.2-17.2S15.4,7.7,24.9,7.7S42.2,15.4,42.2,25c0,0,0,0,0,0C42.2,34.5,34.4,42.2,24.9,42.2z"/>
</svg>
