<svg xmlns="http://www.w3.org/2000/svg" xmlns:xlink="http://www.w3.org/1999/xlink" width="238.491" height="155.73" viewBox="0 0 238.491 155.73"><defs><linearGradient id="a" x1="0.5" y1="1.104" x2="0.5" y2="-0.04" gradientUnits="objectBoundingBox"><stop offset="0" stop-color="#84bf63"/><stop offset="0.183" stop-color="#69b761"/><stop offset="0.557" stop-color="#38a95f"/><stop offset="0.841" stop-color="#19a05e"/><stop offset="1" stop-color="#0e9d5e"/></linearGradient><linearGradient id="b" x1="0.5" y1="1" x2="0.5" y2="0" xlink:href="#a"/></defs><g transform="translate(1430.981 -718.71)"><path d="M-1192.49,783.256a24.944,24.944,0,0,1-24.944,24.942h-3.91a22.243,22.243,0,0,1-22.183,20.729,22.246,22.246,0,0,1-22.184-20.729h-85.6a22.246,22.246,0,0,1-22.184,20.729,22.243,22.243,0,0,1-22.184-20.729h-10.362a24.943,24.943,0,0,1-24.942-24.942,24.944,24.944,0,0,1,24.942-24.944h35.622l39.426-39.6h66.078l32.353,39.6h15.125A24.944,24.944,0,0,1-1192.49,783.256Z" transform="translate(0 0)" fill="url(#a)"/><path d="M-1225.346,800.207l-17.421-17.425a2.741,2.741,0,0,0-3.877,0,2.741,2.741,0,0,0,0,3.877l12.612,12.614h-175.649l12.612-12.614a2.741,2.741,0,0,0,0-3.877,2.741,2.741,0,0,0-3.878,0l-17.164,17.164a2.743,2.743,0,0,0-.8,1.94,2.743,2.743,0,0,0,.8,1.938l17.423,17.422a2.735,2.735,0,0,0,1.938.8,2.736,2.736,0,0,0,1.94-.8,2.741,2.741,0,0,0,0-3.877l-12.612-12.61h175.649l-12.612,12.61a2.741,2.741,0,0,0,0,3.877,2.736,2.736,0,0,0,1.94.8,2.735,2.735,0,0,0,1.938-.8l17.162-17.16A2.74,2.74,0,0,0-1225.346,800.207Z" transform="translate(9.992 52.391)" fill="url(#b)"/></g></svg>