<svg xmlns="http://www.w3.org/2000/svg" xmlns:xlink="http://www.w3.org/1999/xlink" width="270.287" height="150.7" viewBox="0 0 270.287 150.7"><defs><linearGradient id="a" x1="0.5" y1="1" x2="0.5" gradientUnits="objectBoundingBox"><stop offset="0" stop-color="#84bf63"/><stop offset="0.183" stop-color="#69b761"/><stop offset="0.557" stop-color="#38a95f"/><stop offset="0.841" stop-color="#19a05e"/><stop offset="1" stop-color="#0e9d5e"/></linearGradient></defs><path d="M-323.388,935.89a38.42,38.42,0,0,0-27.254-11.283h-10.418c-17.238-11.827-22.175-40.786-77.712-40.786s-74.338,28.959-92.156,40.786h-12.928a38.539,38.539,0,0,0-38.536,38.536,38.386,38.386,0,0,0,10.9,26.851,38.387,38.387,0,0,0,26.449,11.65v5.825a27.052,27.052,0,0,0,27.052,27.052,27.007,27.007,0,0,0,19.132-7.92,27.007,27.007,0,0,0,7.92-19.132v-5.789h84.579v5.789a27.052,27.052,0,0,0,27.052,27.052,27.008,27.008,0,0,0,19.132-7.92,27.007,27.007,0,0,0,7.92-19.132v-5.789h1.61a38.532,38.532,0,0,0,38.536-38.536A38.42,38.42,0,0,0-323.388,935.89Zm-108.731,59.669v.32h-13.816V934.031H-500.7l-8.181,17.534h39.211l-5.02,10.04h-38.88l-11.318,24.247h49.961l-5.008,10.028h-63.185l35.328-75.664h75.676v58.829l48.268-58.829h13.544Z" transform="translate(582.393 -883.821)" fill="url(#a)"/></svg>