<svg xmlns="http://www.w3.org/2000/svg" xmlns:xlink="http://www.w3.org/1999/xlink" width="235.491" height="124.631" viewBox="0 0 235.491 124.631"><defs><linearGradient id="a" x1="0.5" y1="1" x2="0.5" gradientUnits="objectBoundingBox"><stop offset="0" stop-color="#84bf63"/><stop offset="0.183" stop-color="#69b761"/><stop offset="0.557" stop-color="#38a95f"/><stop offset="0.841" stop-color="#19a05e"/><stop offset="1" stop-color="#0e9d5e"/></linearGradient></defs><g transform="translate(1165.769 -722.566)"><path d="M-1048.883,754.245a12.15,12.15,0,0,0-4.139-4.536,11.407,11.407,0,0,0-6.256-1.631,11.359,11.359,0,0,0-9.955,5.155q-3.526,5.153-3.524,16.165a43.349,43.349,0,0,0,.792,8.589,22.147,22.147,0,0,0,2.423,6.741,12.3,12.3,0,0,0,4.185,4.4,11.29,11.29,0,0,0,6.079,1.586,11.454,11.454,0,0,0,9.955-5.021q3.524-5.023,3.524-16.3a44.206,44.206,0,0,0-.749-8.369A23.317,23.317,0,0,0-1048.883,754.245Z" transform="translate(56.449 15.483)" fill="url(#a)"/><path d="M-1099.709,722.566a66.055,66.055,0,0,0-66.06,66.044V847.2h169.432a66.059,66.059,0,0,0,66.06-66.06V722.566Zm17.327,93.15h-37v-61.67h36.562V764.8h-24.491v14.359h22.288V789.9h-22.288v15.065h24.931Zm43.565.36a45.491,45.491,0,0,1-8.942.874,32.029,32.029,0,0,1-10.528-1.719,22.513,22.513,0,0,1-8.766-5.55,27.289,27.289,0,0,1-6.036-9.955,43.265,43.265,0,0,1-2.246-14.844,40.205,40.205,0,0,1,2.511-15.2,27.566,27.566,0,0,1,6.519-9.868,24.067,24.067,0,0,1,8.942-5.373,31.289,31.289,0,0,1,9.866-1.629,48.245,48.245,0,0,1,8.942.7,32.812,32.812,0,0,1,6.036,1.674l-2.378,10.218a17.565,17.565,0,0,0-4.8-1.408,43.753,43.753,0,0,0-6.74-.442,14.7,14.7,0,0,0-11.761,5.209q-4.449,5.209-4.448,16.156a33.467,33.467,0,0,0,1.056,8.695,18.715,18.715,0,0,0,3.215,6.709,14.826,14.826,0,0,0,5.373,4.326,16.979,16.979,0,0,0,7.445,1.546,24.317,24.317,0,0,0,6.7-.794,19.567,19.567,0,0,0,4.758-2.026l2.467,9.81A18.5,18.5,0,0,1-1038.818,816.076Zm55.326-7.451q-6.828,8.325-19.338,8.325a27.394,27.394,0,0,1-11.629-2.291,21.365,21.365,0,0,1-8.15-6.519,28.913,28.913,0,0,1-4.8-10.13,50.515,50.515,0,0,1-1.586-13.128q0-15.417,6.784-23.744t19.381-8.324a27.168,27.168,0,0,1,11.541,2.29,21.765,21.765,0,0,1,8.194,6.519,28.512,28.512,0,0,1,4.845,10.131,50.58,50.58,0,0,1,1.586,13.127Q-976.664,800.3-983.492,808.625Z" transform="translate(0 0)" fill="url(#a)"/></g></svg>