<svg xmlns="http://www.w3.org/2000/svg" xmlns:xlink="http://www.w3.org/1999/xlink" width="44.803" height="44.803" viewBox="0 0 44.803 44.803"><defs><linearGradient id="a" x1="0.5" x2="0.5" y2="1" gradientUnits="objectBoundingBox"><stop offset="0" stop-color="#626afa"/><stop offset="1" stop-color="#26eafd"/></linearGradient></defs><g transform="translate(0)"><g transform="translate(0 0)"><path d="M288.746-121.78h0a22.4,22.4,0,0,1-22.4-22.4h0a22.4,22.4,0,0,1,22.4-22.4h0a22.4,22.4,0,0,1,22.4,22.4h0A22.4,22.4,0,0,1,288.746-121.78Z" transform="translate(-266.345 166.583)" opacity="0.75" fill="url(#a)"/><path d="M295.039-125.316h5.453v-13.656h3.8l.405-4.572h-4.21v-2.6c0-1.078.216-1.5,1.259-1.5H304.7V-152.4h-3.776c-4.058,0-5.887,1.787-5.887,5.208v3.645H292.2v4.63h2.836Z" transform="translate(-276.051 161.258)" fill="#fff"/></g></g></svg>