<svg xmlns="http://www.w3.org/2000/svg" xmlns:xlink="http://www.w3.org/1999/xlink" width="203.122" height="177.585" viewBox="0 0 203.122 177.585"><defs><linearGradient id="a" x1="0.5" y1="1.104" x2="0.5" y2="-0.04" gradientUnits="objectBoundingBox"><stop offset="0" stop-color="#fd875a"/><stop offset="0.145" stop-color="#fd975e"/><stop offset="0.509" stop-color="#fdba69"/><stop offset="0.807" stop-color="#fdd070"/><stop offset="1" stop-color="#fdd873"/></linearGradient></defs><g transform="translate(-777.031 -420.854)"><path d="M966.137,461.737V431.593h-6.972v30.144H945.846V431.593h-6.973v30.144H924.857v25.344a27.651,27.651,0,0,0,23.073,27.264h-1.17v42.431a17.678,17.678,0,0,1-35.356,0v-42.24a29.212,29.212,0,0,0-23.96-28.694V429.625a8.77,8.77,0,0,0-8.772-8.771H795.237a8.778,8.778,0,0,0-8.772,8.771V586.271h-3.35a6.084,6.084,0,0,0,0,12.168H890.689a6.084,6.084,0,0,0,0-12.168h-3.245V497.643a17.71,17.71,0,0,1,12.469,16.893v42.24a29.169,29.169,0,1,0,58.338,0V514.345H957.08a27.651,27.651,0,0,0,23.073-27.264V461.737Zm-163.6-21.515a7.7,7.7,0,0,1,7.7-7.712h53.445a7.7,7.7,0,0,1,7.7,7.712v46.231a7.7,7.7,0,0,1-7.7,7.7H810.238a7.7,7.7,0,0,1-7.7-7.7Z" fill="url(#a)"/></g></svg>