<svg xmlns="http://www.w3.org/2000/svg" xmlns:xlink="http://www.w3.org/1999/xlink" width="235.491" height="185.273" viewBox="0 0 235.491 185.273"><defs><linearGradient id="a" x1="0.5" x2="0.5" y2="1" gradientUnits="objectBoundingBox"><stop offset="0" stop-color="#fd535a"/><stop offset="0.517" stop-color="#fd515a"/><stop offset="0.703" stop-color="#fd4a5e"/><stop offset="0.836" stop-color="#fd3e64"/><stop offset="0.942" stop-color="#fd2d6c"/><stop offset="1" stop-color="#fd2173"/></linearGradient></defs><path d="M-975.24,1098.177h-25.925v11.36h13.695v110.39H-1122.1v-110.39h18.708v-11.36h-30.939l-24.078,17.772v27.693h-28.247v40.794h28.247V1213.5l24.078,17.785H-975.24l24.078-17.785v-97.553Zm-183.166,74.9h-16.888V1155h16.888Zm29.356,46.85h-1.544l-16.452-12.165v-86.075l16.452-12.151h1.544Zm166.529-12.165-16.452,12.165h-1.543v-110.39h1.543l16.452,12.151Zm-68.7-161.749-22.027,52.159h43.991l-26.093,28.6v2.147h-1.958l-47.586,52.158,22.026-52.158h-43.991Z" transform="translate(1186.653 -1046.014)" fill="url(#a)"/></svg>