<svg xmlns="http://www.w3.org/2000/svg" xmlns:xlink="http://www.w3.org/1999/xlink" width="284.488" height="153" viewBox="0 0 284.488 153"><defs><linearGradient id="a" x1="0.5" y1="1" x2="0.5" gradientUnits="objectBoundingBox"><stop offset="0" stop-color="#fd875a"/><stop offset="0.145" stop-color="#fd975e"/><stop offset="0.509" stop-color="#fdba69"/><stop offset="0.807" stop-color="#fdd070"/><stop offset="1" stop-color="#fdd873"/></linearGradient></defs><path d="M-1086.955,1024.3c.021-.3.021-.615.021-.911a30.744,30.744,0,0,0-30.71-30.71,30.763,30.763,0,0,0-30.731,30.71c0,.3,0,.615.021.911h-4.239l-5.722-10.131V995.986l23.377-16.7h57.1l51.735-40.247h5.574V930.56h-8.478l-51.756,40.247h-56.906l-29.121,20.813v24.8l9.262,16.362h10.618a30.788,30.788,0,0,0,29.269,21.342,30.762,30.762,0,0,0,29.248-21.342h67.948a18.13,18.13,0,0,1-.084-1.865,20.679,20.679,0,0,1,1.06-6.612Zm-30.689,21.342a22.226,22.226,0,0,1-20.156-12.865,22,22,0,0,1-2.077-8.478c-.021-.3-.021-.615-.021-.911a22.274,22.274,0,0,1,22.254-22.233,22.255,22.255,0,0,1,22.232,22.233c0,.3,0,.615-.021.911a22.351,22.351,0,0,1-2.056,8.478A22.249,22.249,0,0,1-1117.644,1045.643Zm194.71-89.587-35.246-25.5H-978v8.478h17.061l35.267,25.5h34.885v49.318l-9.855,10.449H-911.32c.021-.3.021-.615.021-.911a30.749,30.749,0,0,0-30.731-30.71,30.744,30.744,0,0,0-30.71,30.71c0,.3,0,.615.021.911h-6.337a21.278,21.278,0,0,1,1.06,6.612,17.992,17.992,0,0,1-.085,1.865h6.8a30.762,30.762,0,0,0,29.248,21.342,30.769,30.769,0,0,0,29.269-21.342h15.789l14.667-15.557V956.056Zm-19.1,89.587a22.218,22.218,0,0,1-20.134-12.865,22,22,0,0,1-2.077-8.478c-.021-.3-.021-.615-.021-.911a22.269,22.269,0,0,1,22.232-22.233,22.274,22.274,0,0,1,22.254,22.233c0,.3,0,.615-.021.911a21.987,21.987,0,0,1-2.077,8.478A22.226,22.226,0,0,1-942.03,1045.643Zm-44.1-129.326v71.17c0,8.372-5.875,15.175-13.147,15.175a12.269,12.269,0,0,1-9.293-4.451,16.33,16.33,0,0,1-3.855-10.724v-71.17c0-8.393,5.894-15.2,13.149-15.2C-992,901.121-986.129,907.924-986.129,916.317Zm-1.32,108.865a13.029,13.029,0,0,1,1.32,5.731,11.628,11.628,0,0,1-.11,1.615,13.125,13.125,0,0,1-13.037,11.532,13.142,13.142,0,0,1-13.039-11.532,11.666,11.666,0,0,1-.11-1.615,13,13,0,0,1,1.323-5.731,13.114,13.114,0,0,1,11.826-7.437A13.1,13.1,0,0,1-987.449,1025.182Z" transform="translate(1166.793 -901.121)" fill="url(#a)"/></svg>