<svg xmlns="http://www.w3.org/2000/svg" xmlns:xlink="http://www.w3.org/1999/xlink" width="44.803" height="44.803" viewBox="0 0 44.803 44.803"><defs><linearGradient id="a" x1="0.5" x2="0.5" y2="1" gradientUnits="objectBoundingBox"><stop offset="0" stop-color="#626afa"/><stop offset="1" stop-color="#26eafd"/></linearGradient></defs><g transform="translate(0)"><g transform="translate(0 0)"><path d="M79.868-121.78h0a22.4,22.4,0,0,1-22.4-22.4h0a22.4,22.4,0,0,1,22.4-22.4h0a22.4,22.4,0,0,1,22.4,22.4h0A22.4,22.4,0,0,1,79.868-121.78Z" transform="translate(-57.467 166.583)" opacity="0.75" fill="url(#a)"/><path d="M74.222-129.049a13.86,13.86,0,0,0,7.507,2.2,13.852,13.852,0,0,0,13.92-14.568,9.928,9.928,0,0,0,2.444-2.535,9.758,9.758,0,0,1-2.812.771,4.906,4.906,0,0,0,2.152-2.709,9.822,9.822,0,0,1-3.109,1.189,4.891,4.891,0,0,0-3.575-1.546,4.9,4.9,0,0,0-4.77,6.013,13.9,13.9,0,0,1-10.094-5.118,4.9,4.9,0,0,0,1.516,6.539,4.885,4.885,0,0,1-2.219-.613,4.9,4.9,0,0,0,3.928,4.865,4.9,4.9,0,0,1-2.211.084,4.9,4.9,0,0,0,4.574,3.4A9.842,9.842,0,0,1,74.222-129.049Z" transform="translate(-63.756 158.95)" fill="#fff"/></g></g></svg>