<svg xmlns="http://www.w3.org/2000/svg" xmlns:xlink="http://www.w3.org/1999/xlink" width="302.382" height="159.287" viewBox="0 0 302.382 159.287"><defs><linearGradient id="a" x1="0.5" y1="1.104" x2="0.5" y2="-0.04" gradientUnits="objectBoundingBox"><stop offset="0" stop-color="#fd875a"/><stop offset="0.145" stop-color="#fd975e"/><stop offset="0.509" stop-color="#fdba69"/><stop offset="0.807" stop-color="#fdd070"/><stop offset="1" stop-color="#fdd873"/></linearGradient></defs><path d="M-352.9,824.918A25.741,25.741,0,0,1-378.492,850.8h-4.014a22.934,22.934,0,0,1-22.762,21.513A22.935,22.935,0,0,1-428.03,850.8h-87.833a22.934,22.934,0,0,1-22.762,21.513A22.936,22.936,0,0,1-561.387,850.8h-10.631a25.739,25.739,0,0,1-25.593-25.885,25.739,25.739,0,0,1,25.593-25.885h36.552l40.455-41.1h67.8l33.2,41.1h15.521A25.741,25.741,0,0,1-352.9,824.918ZM-592.1,718.026h-9.1V781.6h9.1l13.783-17.119,1.484-1.842h27.266V736.986h-27.266l-1.484-1.841L-592.1,718.026m2.349-5,15.267,18.959h29.859v35.65h-29.859L-589.754,786.6h-16.388v-73.57Zm-22.336,50.215c-.2-.1-4.9-2.622-4.9-13.429,0-11.22,5.249-16.264,5.3-16.312l-2.217-2.467c-.26.24-6.379,5.982-6.379,18.779,0,13.119,6.515,16.313,6.794,16.443Zm-13.793,6.123c-.071-.033-7.088-3.488-7.088-19.059,0-15.78,7.432-22.87,7.508-22.94l-2.215-2.467c-.351.32-8.587,8.049-8.587,25.407,0,17.68,8.633,21.913,9,22.084Zm-15.491,9.81c-.107-.05-10.614-5.219-10.614-28.081,0-23.066,10.921-33.435,11.033-33.536l-1.108-1.233,1.105,1.236-2.21-2.472c-.494.452-12.113,11.355-12.113,36,0,24.971,12.016,30.866,12.528,31.106Z" transform="translate(655.281 -713.029)" fill="url(#a)"/></svg>