<svg xmlns="http://www.w3.org/2000/svg" width="175.102" height="177.605" viewBox="0 0 175.102 177.605"><path d="M-1242.585,1156.41a87.325,87.325,0,0,0-29.812-65.789l12.487-15.716-6.308-5.012-12.468,15.692a87.145,87.145,0,0,0-51.458-16.733,87.552,87.552,0,0,0-87.543,87.559,87.3,87.3,0,0,0,30.194,66.119l-12.87,16.2,6.309,5.014,12.881-16.212a87.2,87.2,0,0,0,23.729,12.067l2.766-9.9a76.9,76.9,0,0,1-20.095-10.218l13.229-16.651h61.979v-11.786h-50.1v-3.169l25.234-31.76h24.862v-11.786h-15.5l36.273-45.654a77.079,77.079,0,0,1,25.931,57.741,77.271,77.271,0,0,1-43.324,69.435l-3.214-11.82-18.541,18.68-5.13,5.176,13.643,3.6,18.85,4.975-2.874-10.553A87.525,87.525,0,0,0-1242.585,1156.41Zm-107.078,18.505v-18.807h14.942Zm24.307-30.592h-24.307v-33.839h50.1V1098.7h-66.654v97.058l-14.879,18.726a77.055,77.055,0,0,1-26.312-58.073,77.272,77.272,0,0,1,77.269-77.284,76.926,76.926,0,0,1,45.06,14.51Z" transform="translate(1417.687 -1068.851)" fill="#feffff"/></svg>