<svg xmlns="http://www.w3.org/2000/svg" width="225.479" height="178.02" viewBox="0 0 225.479 178.02"><path d="M-609.341,985.234c.031,7.806-11.746,7.765-11.824,0l-.443-46.193s-.338-1.113-1.063-1.047a1.108,1.108,0,0,0-1.04.941l.958,116.193a9.86,9.86,0,0,1-14.984-.078l-.12-63.824s-.361-1.252-.843-1.22c-.466.027-1.027.817-1.027,1.241q-.021,31.872-.044,63.743c-3.612,4.615-12.69,4.833-15.675-.011l-.65-115.568a1.439,1.439,0,0,0-1.15-1.1c-.873.225-.939.82-.939,1.008q-.007,22.961-.016,45.917c0,7.866-12.566,7.811-12.555,0l.075-51.114s1.1-8.734,12.066-12.837c12.613-.284,36.912-.118,36.912-.118s10.074,1.731,12.157,11.628Q-609.44,959.019-609.341,985.234Zm-30.295-67.774a14.718,14.718,0,0,0,14.672-14.7,14.715,14.715,0,0,0-14.672-14.7,14.711,14.711,0,0,0-14.662,14.7A14.714,14.714,0,0,0-639.635,917.46Zm-41.8,71.155-71.349,77.46h22.862l56.962-77.46Zm74.3,0,56.962,77.46h22.862l-71.349-77.46Z" transform="translate(752.787 -888.054)" fill="#fff"/></svg>