<svg xmlns="http://www.w3.org/2000/svg" width="196.893" height="162.153" viewBox="0 0 196.893 162.153"><path d="M-740.372,1006.147h-14.308v32.907H-937.265V925.071h61.116v12.455H-924.81V1026.6h157.674V937.526h-22.2V925.071h34.422v4.218h.236v32.906h14.308ZM-808,911.609V900.256h-30.815V885.9a9,9,0,0,0-9-9,9,9,0,0,0-9,9v87.9c0,.081.01.159.011.239a16.112,16.112,0,0,0-7.141,13.393,16.13,16.13,0,0,0,16.13,16.13,16.13,16.13,0,0,0,16.131-16.13,16.11,16.11,0,0,0-7.142-13.393c0-.08.012-.157.012-.239V961.238H-808V949.886h-30.815V936.424H-808V925.071h-30.815V911.609Z" transform="translate(937.265 -876.902)" fill="#fff"/></svg>