<svg xmlns="http://www.w3.org/2000/svg" xmlns:xlink="http://www.w3.org/1999/xlink" width="177.048" height="177.243" viewBox="0 0 177.048 177.243"><defs><linearGradient id="a" x1="0.5" y1="1" x2="0.5" gradientUnits="objectBoundingBox"><stop offset="0" stop-color="#fd875a"/><stop offset="0.145" stop-color="#fd975e"/><stop offset="0.509" stop-color="#fdba69"/><stop offset="0.807" stop-color="#fdd070"/><stop offset="1" stop-color="#fdd873"/></linearGradient></defs><path d="M-1281.889,936.653V920.424a4.369,4.369,0,0,1,4.37-4.37h37.8a36.437,36.437,0,0,0-34.783-25.6,36.4,36.4,0,0,0-36.4,36.4,36.178,36.178,0,0,0,1.515,10.4v0l-105.152,104.965a7.573,7.573,0,0,0-.009,10.712l12.518,12.541a7.575,7.575,0,0,0,10.712.009l104.532-104.348a36.436,36.436,0,0,0,12.289,2.129,36.413,36.413,0,0,0,33.55-22.255h-36.563A4.354,4.354,0,0,1-1281.889,936.653Z" transform="translate(1416.77 -890.451)" fill="url(#a)"/></svg>