<svg xmlns="http://www.w3.org/2000/svg" xmlns:xlink="http://www.w3.org/1999/xlink" width="177.667" height="177.667" viewBox="0 0 177.667 177.667"><defs><linearGradient id="a" x1="0.5" y1="1" x2="0.5" gradientUnits="objectBoundingBox"><stop offset="0" stop-color="#fd875a"/><stop offset="0.145" stop-color="#fd975e"/><stop offset="0.509" stop-color="#fdba69"/><stop offset="0.807" stop-color="#fdd070"/><stop offset="1" stop-color="#fdd873"/></linearGradient></defs><path d="M-787.561,710.626a88.836,88.836,0,0,0-88.832,88.832,88.826,88.826,0,0,0,88.832,88.834,88.838,88.838,0,0,0,88.834-88.834A88.847,88.847,0,0,0-787.561,710.626Zm0,162.29a73.463,73.463,0,0,1-73.456-73.457A73.462,73.462,0,0,1-787.561,726,73.463,73.463,0,0,1-714.1,799.458,73.465,73.465,0,0,1-787.561,872.916Zm8.315-104.575c26.013,0,33.886,27.947,34.074,29.267s17.283,7.362,17.249,10.775c-.024,2.279-9.238,2.325-17.908-1.727,1.131,11.028-4.1,20.452-6.6,20.452-2.684,0-6.409-12.253-10.838-12.253s-6.44,3.717-17.468,3.717-12.034-4.376-17.029-4.376-8.578,12.912-15.269,12.912c-4.5,0,.9-12.914-7.029-20.452-3.635-3.457-9.419-8.715-16.535-10.934-21.772-6.786-7.256-21.019,1.886-21.019s17.811,15.268,21.2,15.268C-813.507,789.971-808.18,768.341-779.245,768.341Z" transform="translate(876.393 -710.626)" fill="url(#a)"/></svg>