<?xml version="1.0" encoding="UTF-8" standalone="no"?>
<!DOCTYPE svg PUBLIC "-//W3C//DTD SVG 1.1//EN" "http://www.w3.org/Graphics/SVG/1.1/DTD/svg11.dtd">
<svg width="100%" height="100%" viewBox="0 0 40 29" version="1.1" xmlns="http://www.w3.org/2000/svg" xmlns:xlink="http://www.w3.org/1999/xlink" xml:space="preserve" xmlns:serif="http://www.serif.com/" style="fill-rule:evenodd;clip-rule:evenodd;stroke-miterlimit:10;">
    <g transform="matrix(1,0,0,1,-30,-20)">
        <path d="M32.629,41.773C33.319,40.131 34.95,38.392 37.522,36.557C39.754,34.959 41.197,33.817 41.855,33.125C42.862,32.049 43.367,30.871 43.367,29.59C43.367,28.549 43.078,27.683 42.5,26.992C41.923,26.301 41.097,25.955 40.021,25.955C38.548,25.955 37.546,26.504 37.013,27.603C36.706,28.238 36.526,29.246 36.47,30.626L31.763,30.626C31.841,28.53 32.222,26.837 32.903,25.546C34.195,23.089 36.491,21.86 39.791,21.86C42.399,21.86 44.475,22.581 46.016,24.026C47.557,25.469 48.329,27.38 48.329,29.758C48.329,31.582 47.784,33.203 46.694,34.617C45.98,35.558 44.804,36.605 43.172,37.762L41.232,39.138C40.016,39.998 39.186,40.621 38.739,41.006C38.292,41.392 37.915,41.838 37.609,42.349L48.364,42.349L48.364,46.614L31.49,46.614C31.535,44.849 31.914,43.235 32.629,41.773Z" style="fill:none;stroke:rgb(5,116,119);stroke-width:1px;"/>
    </g>
    <g transform="matrix(1,0,0,1,-30,-20)">
        <path d="M51.756,36.03C52.381,34.909 53.295,34.065 54.5,33.5C53.307,32.707 52.53,31.849 52.172,30.925C51.814,30.003 51.635,29.14 51.635,28.335C51.635,26.545 52.311,25.019 53.661,23.756C55.011,22.493 56.918,21.862 59.383,21.862C61.846,21.862 63.752,22.493 65.104,23.756C66.454,25.019 67.131,26.545 67.131,28.335C67.131,29.14 66.951,30.003 66.594,30.925C66.239,31.849 65.465,32.65 64.276,33.329C65.494,34.009 66.41,34.909 67.024,36.03C67.639,37.153 67.946,38.403 67.946,39.786C67.946,41.858 67.178,43.623 65.642,45.077C64.105,46.534 61.959,47.263 59.204,47.263C56.449,47.263 54.363,46.534 52.946,45.077C51.529,43.623 50.82,41.858 50.82,39.786C50.819,38.403 51.131,37.153 51.756,36.03ZM56.791,42.282C57.42,42.952 58.289,43.286 59.399,43.286C60.509,43.286 61.378,42.952 62.007,42.282C62.636,41.614 62.949,40.675 62.949,39.463C62.949,38.206 62.63,37.252 61.989,36.601C61.349,35.949 60.485,35.623 59.398,35.623C58.31,35.623 57.447,35.948 56.807,36.601C56.166,37.252 55.846,38.206 55.846,39.463C55.848,40.675 56.162,41.614 56.791,42.282ZM57.1,31.069C57.651,31.635 58.413,31.92 59.392,31.92C60.379,31.92 61.143,31.636 61.682,31.069C62.221,30.504 62.492,29.772 62.492,28.879C62.492,27.903 62.221,27.144 61.682,26.593C61.143,26.044 60.379,25.769 59.392,25.769C58.413,25.769 57.651,26.044 57.1,26.593C56.549,27.144 56.274,27.904 56.274,28.879C56.273,29.772 56.549,30.504 57.1,31.069Z" style="fill:none;stroke:rgb(5,116,119);stroke-width:1px;"/>
    </g>
</svg>
