<svg xmlns="http://www.w3.org/2000/svg" viewBox="0 0 39 26.06"><defs><style>.a{fill:#097577;}</style></defs><title>29</title><path class="a" d="M678.93,224.33c.43-.35,1.3-1,2.56-1.8l2-1.35A17.27,17.27,0,0,0,687.3,218a7.81,7.81,0,0,0,1.81-5.08,7.6,7.6,0,0,0-2.58-6,10,10,0,0,0-6.82-2.25,10.21,10.21,0,0,0-4.6,1,7,7,0,0,0-3,2.92,11.52,11.52,0,0,0-1.25,5.2l0,.53h5.9l0-.48a7.15,7.15,0,0,1,.51-2.76,2.21,2.21,0,0,1,1-1,3.75,3.75,0,0,1,1.71-.35,2.81,2.81,0,0,1,2.21.85,3.21,3.21,0,0,1,.78,2.22,4.35,4.35,0,0,1-1.43,3.11,38.14,38.14,0,0,1-4.44,3.31c-2.71,1.81-4.47,3.55-5.27,5.3h0v0h0a11.11,11.11,0,0,0-1.23,4.94l0,.51h18.61v-5.18H678.48A4.62,4.62,0,0,1,678.93,224.33Zm9.22,4.61H671.6a10,10,0,0,1,1.09-4v0h0c.65-1.46,2.28-3.13,4.92-4.9a37.41,37.41,0,0,0,4.59-3.43h0a5.36,5.36,0,0,0,1.72-3.82,4.2,4.2,0,0,0-1-2.88,3.81,3.81,0,0,0-3-1.19,4.78,4.78,0,0,0-2.17.46,3.3,3.3,0,0,0-1.41,1.43,7.22,7.22,0,0,0-.59,2.7h-3.9A10.18,10.18,0,0,1,673,209a6,6,0,0,1,2.6-2.51,9.15,9.15,0,0,1,4.15-.85,9,9,0,0,1,6.16,2,6.6,6.6,0,0,1,2.24,5.25,6.74,6.74,0,0,1-1.59,4.44h0a16.47,16.47,0,0,1-3.56,3l-2,1.35c-1.27.85-2.14,1.46-2.63,1.86A6,6,0,0,0,677,225l-.49.77h11.63Z" transform="translate(-670.54 -204.58)"/><polygon class="a" points="16.75 13.41 16.75 13.41 16.75 13.41 16.75 13.41"/><path class="a" d="M700,208.55a4.14,4.14,0,0,0-2.51.78A3.7,3.7,0,0,0,696.2,211a6.4,6.4,0,0,0-.4,2.37,5.3,5.3,0,0,0,1.05,3.55,4.12,4.12,0,0,0,3.24,1.25,4.24,4.24,0,0,0,2.23-.64h0a3.82,3.82,0,0,0,1.48-1.63,5.56,5.56,0,0,0,.48-2.38,5.37,5.37,0,0,0-1.14-3.57A4,4,0,0,0,700,208.55Zm2.93,6.9a2.77,2.77,0,0,1-1.1,1.2h0a3.56,3.56,0,0,1-4.19-.4,4.37,4.37,0,0,1-.81-2.9,5.37,5.37,0,0,1,.33-2,2.66,2.66,0,0,1,.92-1.22h0a3.13,3.13,0,0,1,1.92-.58,3,3,0,0,1,2.41,1,4.44,4.44,0,0,1,.9,2.93A4.57,4.57,0,0,1,702.9,215.45Z" transform="translate(-670.54 -204.58)"/><path class="a" d="M708.25,209.76a8.36,8.36,0,0,0-3.29-3.88,9.9,9.9,0,0,0-5.21-1.3,8.82,8.82,0,0,0-6.54,2.56h0a9.07,9.07,0,0,0-2.53,6.64,7.54,7.54,0,0,0,2.55,6.12A8.68,8.68,0,0,0,699,222a7.57,7.57,0,0,0,3.74-.86,5.12,5.12,0,0,0,.63-.44,11.31,11.31,0,0,1-.56,2.76,3.81,3.81,0,0,1-1.22,1.72,2.91,2.91,0,0,1-1.83.55,2.55,2.55,0,0,1-1.74-.54,2.3,2.3,0,0,1-.79-1.44l-.07-.41h-6l.06.55a6.74,6.74,0,0,0,2.85,5,9.28,9.28,0,0,0,5.47,1.69,9.42,9.42,0,0,0,5.39-1.48,9.29,9.29,0,0,0,3.4-4.41,20,20,0,0,0,1.23-7.5A18.42,18.42,0,0,0,708.25,209.76Zm-.86,14.61a8.37,8.37,0,0,1-3,4,8.46,8.46,0,0,1-4.84,1.31,8.36,8.36,0,0,1-4.9-1.51,5.59,5.59,0,0,1-2.34-3.78h4.06a3.28,3.28,0,0,0,1,1.61,3.5,3.5,0,0,0,2.39.78,4,4,0,0,0,2.43-.74,4.78,4.78,0,0,0,1.55-2.17h0a14.43,14.43,0,0,0,.72-4.33l.08-1.48-1,1.13a4.91,4.91,0,0,1-1.33,1.14h0A6.57,6.57,0,0,1,699,221a7.66,7.66,0,0,1-5.11-1.87,6.57,6.57,0,0,1-2.2-5.36,8.07,8.07,0,0,1,2.24-5.94l-.36-.35.36.35a7.85,7.85,0,0,1,5.83-2.26,9,9,0,0,1,4.69,1.15,7.42,7.42,0,0,1,2.9,3.44h0a17.46,17.46,0,0,1,1.2,7.08A19.08,19.08,0,0,1,707.39,224.37Z" transform="translate(-670.54 -204.58)"/><polygon class="a" points="32.19 16.56 32.19 16.57 32.18 16.57 32.19 16.56"/><polygon class="a" points="26.91 4.75 26.91 4.75 26.91 4.75 26.91 4.75"/><polygon class="a" points="37.71 5.18 37.71 5.18 37.71 5.18 37.71 5.18"/></svg>