<svg xmlns="http://www.w3.org/2000/svg" height="35.3" viewBox="0 0 35.3 35.3"><g><path d="M34.2,32.3c.1,0,.1,0,.2-.1V32a.349.349,0,0,0-.2-.1H34v.3h.2Zm-.3.3v.7h-.4V31.5h.6c.2,0,.3.1.4.1a.5.5,0,0,1,0,.8.1.1,0,0,0-.1.1l.5.8h-.4l-.5-.7Zm.3,1.2a1.3,1.3,0,1,0-1.3-1.3,1.324,1.324,0,0,0,1.3,1.3m0-2.9a1.6,1.6,0,1,1-1.6,1.6,1.58,1.58,0,0,1,1.6-1.6" fill="#fff"></path><path d="M18.6,0h-1A17.647,17.647,0,0,0,0,17.7a17.416,17.416,0,0,0,3.1,10A174,174,0,0,1,18.6,0" fill="#fff"></path><path d="M14,25c8-4,18-5.8,21.2-6.3,0-.4.1-.7.1-1.1A17.688,17.688,0,0,0,26.5,2.3,163.618,163.618,0,0,0,14,25" fill="#fff"></path><path d="M11.3,31H6.1a17.636,17.636,0,0,0,28.5-8.5C18.1,25.3,11.3,31,11.3,31" fill="#fff"></path></g></svg>