<?xml version="1.0" encoding="UTF-8" standalone="no"?><!DOCTYPE svg PUBLIC "-//W3C//DTD SVG 1.1//EN" "http://www.w3.org/Graphics/SVG/1.1/DTD/svg11.dtd"><svg width="100%" height="100%" viewBox="0 0 124 122" version="1.1" xmlns="http://www.w3.org/2000/svg" xmlns:xlink="http://www.w3.org/1999/xlink" xml:space="preserve" xmlns:serif="http://www.serif.com/" style="fill-rule:evenodd;clip-rule:evenodd;stroke-linejoin:round;stroke-miterlimit:1.41421;"><path d="M14.156,45.6c0,-17.363 14.075,-31.444 31.444,-31.444c17.362,0 31.444,14.081 31.444,31.444c0,17.369 -14.081,31.444 -31.444,31.444c-17.369,0 -31.444,-14.075 -31.444,-31.444m107.4,62.062l-37.55,-37.55c4.531,-7.081 7.188,-15.481 7.194,-24.512c-0.006,-25.181 -20.413,-45.594 -45.6,-45.6c-25.188,0.006 -45.6,20.419 -45.6,45.6c0,25.187 20.413,45.6 45.6,45.6c10.294,0 19.756,-3.45 27.388,-9.2l37.112,37.112c2.606,2.607 6.831,2.607 9.438,0l2.018,-2.018c2.607,-2.607 2.607,-6.825 0,-9.432" style="fill:#595959;fill-rule:nonzero;"/></svg>