<svg xmlns="http://www.w3.org/2000/svg" width="320.542" height="249.812" viewBox="0 0 320.542 249.812">
  <g id="Group_438" data-name="Group 438" transform="translate(-799.76 -2882.291)">
    <g id="Group_355" data-name="Group 355" transform="translate(-9.224 2256.917)">
      <g id="Group_352" data-name="Group 352">
        <path id="Path_578" data-name="Path 578" d="M839.835,674.853c-16.2,0-29.351-10.8-29.351-24.028s13.045-23.951,29.351-23.951,29.352,10.723,29.352,23.951a21.967,21.967,0,0,1-8.819,17.088c-.574,4.331,1.905,8.688,6.705,13.2,0,0-19.541-7.149-20.872-6.914A35.8,35.8,0,0,1,839.835,674.853Z" fill="none" stroke="#3b3b3b" stroke-miterlimit="10" stroke-width="3"/>
        <path id="Path_579" data-name="Path 579" d="M826.373,663.87a15.655,15.655,0,0,1-6.966-12.524c0-7.8,6.575-14.323,15.445-16.149" fill="none" stroke="#3b3b3b" stroke-miterlimit="10" stroke-width="3"/>
      </g>
      <rect id="Rectangle_2512" data-name="Rectangle 2512" width="185.116" height="111.673" transform="translate(875.332 735.244)" fill="none" stroke="#3b3b3b" stroke-miterlimit="10" stroke-width="3"/>
      <path id="Path_580" data-name="Path 580" d="M1000.324,683.836V667.9a32.434,32.434,0,0,0-64.868,0v15.939a32.416,32.416,0,0,0,1.659,10.239h61.551A32.387,32.387,0,0,0,1000.324,683.836Z" fill="none"/>
      <rect id="Rectangle_2513" data-name="Rectangle 2513" width="3.364" height="7.577" transform="translate(891.709 823.419)" fill="#054048"/>
      <rect id="Rectangle_2514" data-name="Rectangle 2514" width="3.364" height="7.577" transform="translate(900.534 823.419)" fill="#0094c6"/>
      <rect id="Rectangle_2515" data-name="Rectangle 2515" width="3.364" height="7.577" transform="translate(909.358 823.419)" fill="#0a676b"/>
      <g id="Group_353" data-name="Group 353">
        <path id="Path_581" data-name="Path 581" d="M811.733,875.186h316.285a1.87,1.87,0,0,0,0-3.67H811.733a1.87,1.87,0,0,0,0,3.67" fill="#3b3b3b"/>
      </g>
      <path id="Path_582" data-name="Path 582" d="M978.6,727.168a26.819,26.819,0,0,0,2.413-1.661,56.168,56.168,0,0,0,18.609-25.343,34.744,34.744,0,0,0,2.208-10.81,22.042,22.042,0,0,0,.12-3.333c-5.435-2.717-10.28-6.374-15.322-9.735l1.185,2.709,4.317,3.979a.139.139,0,0,0-.04-.016c-3.611-1.358-7.417-2.476-10.705-4.537a31.787,31.787,0,0,1-7.65-6.927,46.636,46.636,0,0,1-3.46-4.912c-.288-.466-3.052-4.9-2.828-5.09l-1.092,1.326c-.417.588-.827,1.18-1.262,1.755a49.236,49.236,0,0,1-8.861,8.857,59.8,59.8,0,0,1-10.246,6.87l-4.839,2.341,3.2-3.121a40.621,40.621,0,0,0,7.8-9.085,53.542,53.542,0,0,0,3.676-8.007l-1.561,2.42a45.406,45.406,0,0,1-9.464,9.529,56.417,56.417,0,0,1-6.7,4.055c-.714.374-6.449,2.715-6.449,3.132,0,3.586-.285,7.186.4,10.729q.2,1,.435,1.988a45.942,45.942,0,0,0,2.476,7.381,54.076,54.076,0,0,0,10.851,15.985,54.633,54.633,0,0,0,7.3,6.461,28.258,28.258,0,0,0,4.111,2.444v.687l-.109,7.993h21.552l-.069-5.067Z" fill="none"/>
      <path id="Path_583" data-name="Path 583" d="M957.222,727.239v-.687a28.258,28.258,0,0,1-4.111-2.444,54.633,54.633,0,0,1-7.3-6.461,54.076,54.076,0,0,1-10.851-15.985,45.942,45.942,0,0,1-2.476-7.381q-.24-.99-.435-1.988c-.688-3.543-.4-7.143-.4-10.729,0-.417,5.735-2.758,6.449-3.132a56.417,56.417,0,0,0,6.7-4.055,45.406,45.406,0,0,0,9.464-9.529l1.561-2.42a53.542,53.542,0,0,1-3.676,8.007,40.621,40.621,0,0,1-7.8,9.085l-3.2,3.121,4.839-2.341a59.8,59.8,0,0,0,10.246-6.87,49.236,49.236,0,0,0,8.861-8.857c.435-.575.845-1.167,1.262-1.755l1.092-1.326c-.224.192,2.54,4.624,2.828,5.09a46.636,46.636,0,0,0,3.46,4.912,31.787,31.787,0,0,0,7.65,6.927c3.288,2.061,7.094,3.179,10.705,4.537a.139.139,0,0,1,.04.016l-4.317-3.979-1.185-2.709c5.042,3.361,9.887,7.018,15.322,9.735a22.042,22.042,0,0,1-.12,3.333,34.744,34.744,0,0,1-2.208,10.81,56.168,56.168,0,0,1-18.609,25.343,26.819,26.819,0,0,1-2.413,1.661v3l.069,5.067h35.946l-4.972-55.492q-.03-1.348-.118-2.709c-.123-1.859-.334-3.686-.616-5.482l-.028-.315-.023.019c-3.991-24.64-22.475-42.753-43.368-41.369-11.046.732-20.7,6.784-27.46,16.005-6.893,1.623-12.2,11.338-12.2,23.114a37.058,37.058,0,0,0,.641,6.886l-5.317,59.343h35.959Z" fill="#3b3b3b"/>
      <path id="Path_584" data-name="Path 584" d="M1003.866,662.768a36.1,36.1,0,0,0-71.465-.027,15.714,15.714,0,0,0-1.169,31.22c3.847,13.91,13.506,24.689,25.58,28.241a3.621,3.621,0,0,0,3.572,3.148h12.671a3.631,3.631,0,0,0,3.62-3.621v-1.354a3.631,3.631,0,0,0-3.62-3.62H960.384a3.6,3.6,0,0,0-2.684,1.216,31.515,31.515,0,0,1-15.129-10.148,39.915,39.915,0,0,1-7.394-13.653h2.214c-.011-.032-.024-.063-.035-.095a32.388,32.388,0,0,1-1.658-10.239V667.9a32.434,32.434,0,0,1,64.868,0v15.939a32.416,32.416,0,0,1-1.659,10.239h3.352v.073a15.732,15.732,0,0,0,1.607-31.38Z" fill="#9bd1d1"/>
      <g id="Group_354" data-name="Group 354">
        <path id="Path_585" data-name="Path 585" d="M968.511,756.4c-.217-.013-.433-.033-.655-.033a12.091,12.091,0,0,0-9.985,18.912,123.02,123.02,0,0,1,10.64-18.879" fill="#aa0707"/>
        <path id="Path_586" data-name="Path 586" d="M965.392,773.5a53.151,53.151,0,0,1,14.522-4.285c.013-.253.036-.5.036-.759A12.075,12.075,0,0,0,973.914,758a107.1,107.1,0,0,0-8.522,15.5" fill="#aa0707"/>
        <path id="Path_587" data-name="Path 587" d="M963.489,777.574h-3.561a12.074,12.074,0,0,0,19.544-5.771c-11.272,1.864-15.983,5.771-15.983,5.771" fill="#aa0707"/>
      </g>
      <rect id="Rectangle_2516" data-name="Rectangle 2516" width="164.048" height="91.409" transform="translate(886.07 745.631)" fill="none" stroke="#d6d6d6" stroke-miterlimit="10" stroke-width="3"/>
      <path id="Path_588" data-name="Path 588" d="M928.6,864.044l16.575-70.095H990.3l16.882,70.406Z" fill="#d6d6d6"/>
      <rect id="Rectangle_2517" data-name="Rectangle 2517" width="102.352" height="8.948" transform="translate(916.57 864.417)" fill="none" stroke="#3b3b3b" stroke-miterlimit="10" stroke-width="3"/>
    </g>
  </g>
</svg>
