<svg xmlns="http://www.w3.org/2000/svg" width="319.692" height="252.027" viewBox="0 0 319.692 252.027">
  <g id="Group_437" data-name="Group 437" transform="translate(-367 -2880)">
    <path id="Path_601" data-name="Path 601" d="M454.721,1093.033l-15.758-15.758a1.452,1.452,0,0,0-1.039-.428h-1.258a25.139,25.139,0,1,0-1.417,1.43v1.246a1.5,1.5,0,0,0,.427,1.038l15.759,15.758a1.466,1.466,0,0,0,2.077,0l1.209-1.209A1.468,1.468,0,0,0,454.721,1093.033Zm-36.709-11.922a21.5,21.5,0,1,1,21.5-21.5A21.484,21.484,0,0,1,418.012,1081.111Z" transform="translate(-25.604 1845.798)" fill="#3b3b3b"/>
    <g id="Group_365" data-name="Group 365" transform="translate(-25.604 1845.798)">
      <path id="Path_602" data-name="Path 602" d="M394.5,1286.229H710.787a1.87,1.87,0,0,0,0-3.67H394.5a1.87,1.87,0,0,0,0,3.67" fill="#3b3b3b"/>
    </g>
    <rect id="Rectangle_2521" data-name="Rectangle 2521" width="42.618" height="26.736" transform="translate(507.555 2974.204)" fill="#fff" stroke="#3b3b3b" stroke-miterlimit="10" stroke-width="3"/>
    <path id="Path_603" data-name="Path 603" d="M558.384,1172.2l-7.857-.043-6.833-15.62,21.693-.134Z" transform="translate(-25.604 1845.798)" fill="#9bd1d1"/>
    <path id="Path_604" data-name="Path 604" d="M550.686,1172.1l-6.614,9.473-3.74,14.284,27.664-.143-2.985-14.141-6.719-9.478Z" transform="translate(-25.604 1845.798)" fill="#9bd1d1"/>
    <path id="Path_605" data-name="Path 605" d="M526.511,1137.791l10.222,39.913,17.445-22.279Z" transform="translate(-25.604 1845.798)" fill="#fff"/>
    <path id="Path_606" data-name="Path 606" d="M582.57,1137.791,572.347,1177.7,554.9,1155.426Z" transform="translate(-25.604 1845.798)" fill="#fff"/>
    <path id="Path_607" data-name="Path 607" d="M583.331,1140.319l-1.7-3.549-27.092,17.268-27-17.212-1.746,3.652,10.308,40.25,18.441-23.551,18.441,23.551Zm-45.963,34.362L528.69,1140.8l23.487,14.97Zm19.536-18.913,23.487-14.97-8.678,33.883Z" transform="translate(-25.604 1845.798)" fill="#3b3b3b"/>
    <path id="Path_608" data-name="Path 608" d="M654.572,1242.814l-36.366-83.726-.012,0c-.515-4.7-4.861-8.372-10.148-8.372l-25.818-10.835L561.9,1217.861H546.367l-19.39-77.77-29.734,10.627c-5.259,0-9.585,3.633-10.137,8.3l-.041-.005-36.347,83.8c-.039.61-.066,1.222-.066,1.841a28.523,28.523,0,0,0,28.486,28.559c.555,0,1.105-.02,1.651-.051H496.92c.108,0,.214.015.323.015h110.8c.11,0,.215-.012.324-.015H624.5c.547.031,1.1.051,1.651.051a28.523,28.523,0,0,0,28.486-28.559C654.637,1244.036,654.61,1243.424,654.572,1242.814Z" transform="translate(-25.604 1845.798)" fill="#3b3b3b"/>
    <path id="Path_609" data-name="Path 609" d="M617.821,1278.274H490.834l-8.946-82.222H626.935Z" transform="translate(-25.604 1845.798)" fill="#fff" stroke="#3b3b3b" stroke-miterlimit="10" stroke-width="3"/>
    <g id="Group_366" data-name="Group 366" transform="translate(-25.604 1845.798)">
      <ellipse id="Ellipse_35" data-name="Ellipse 35" cx="32.383" cy="45.762" rx="32.383" ry="45.762" transform="translate(522.085 1051.191)" fill="#fff" stroke="#3b3b3b" stroke-miterlimit="10" stroke-width="3"/>
      <path id="Path_610" data-name="Path 610" d="M522.293,1113.453c0-1.152-1.032-2.881-1.421-3.975-.464-1.306-.917-2.616-1.371-3.926a63.866,63.866,0,0,1-2.917-12.054,61.626,61.626,0,0,1-.551-6.189c-.031-.809-.616-4.362,0-4.965l-2.313,2.24,2.844-13.831,6.454-16.267-5.5,2.524,10.233-8.063c5.543-4.367,11.285-8.99,18.31-10.435,6.818-1.4,15.58-.258,20.972,4.547.5.445,2.6,2.932,3.239,2.883,5.817-.447,11.448-1.035,16.13,3.3a25.789,25.789,0,0,1,7.639,14.889c.389,2.606.733,5.244,1.122,7.86.006.043.007.263.043.291l-2.352-1.878c.883,2.781,2.552,6.065,2.339,9.009-.3,4.109-2.1,7.423-3.311,11.229-.765,2.411-1.591,4.8-2.385,7.206l-4.813,14.54a2.138,2.138,0,0,0-.18.541l-.1-13.192c-.025-3.442.027-6.889-.2-10.326a59.4,59.4,0,0,0-1.79-10.269L579,1082.642l.57-6.991-8.73,1.942-4.174.583,9.678-7.573-27.9,7.961,5.883-6.6-27.325,11.651c-1.153.5-1.111,3.808-1.345,4.921A176.575,176.575,0,0,0,522.293,1113.453Z" fill="#3b3b3b"/>
    </g>
    <rect id="Rectangle_2522" data-name="Rectangle 2522" width="126.907" height="8.141" transform="translate(465.366 3121.624)" fill="#fff" stroke="#3b3b3b" stroke-miterlimit="10" stroke-width="3"/>
    <circle id="Ellipse_36" data-name="Ellipse 36" cx="11.011" cy="11.011" r="11.011" transform="translate(517.567 3071.063)" fill="#d6d6d6"/>
  </g>
</svg>
