<?xml version="1.0" encoding="UTF-8" standalone="no"?>
<!DOCTYPE svg PUBLIC "-//W3C//DTD SVG 1.1//EN" "http://www.w3.org/Graphics/SVG/1.1/DTD/svg11.dtd">
<svg width="100%" height="100%" viewBox="0 0 128 104" version="1.1" xmlns="http://www.w3.org/2000/svg" xmlns:xlink="http://www.w3.org/1999/xlink" xml:space="preserve" xmlns:serif="http://www.serif.com/" style="fill-rule:evenodd;clip-rule:evenodd;stroke-linejoin:round;stroke-miterlimit:1.41421;">
    <g transform="matrix(4.16667,0,0,4.16667,122.679,63.2042)">
        <path d="M0,-5.394C-0.003,-3.707 -1.368,-2.341 -3.056,-2.338L-12.009,-2.338L-12.009,-3.313C-12.009,-4.397 -12.887,-5.275 -13.971,-5.275L-14.38,-5.275C-15.464,-5.275 -16.342,-4.397 -16.343,-3.313L-16.343,-2.338L-25.263,-2.338C-26.968,-2.341 -28.348,-3.721 -28.351,-5.425L-28.351,-10.033L0,-10.033L0,-5.394ZM-15.25,-1.07L-15.25,-1.245L-15.25,-2.338L-15.25,-3.313C-15.249,-3.793 -14.86,-4.182 -14.38,-4.183L-13.971,-4.183C-13.491,-4.182 -13.102,-3.793 -13.102,-3.313L-13.102,-1.07C-13.102,-0.59 -13.49,-0.201 -13.971,-0.201L-14.38,-0.201C-14.86,-0.201 -15.249,-0.59 -15.25,-1.07M0,6.46C-0.002,7.687 -0.996,8.68 -2.223,8.682L-26.073,8.682C-27.331,8.68 -28.348,7.662 -28.351,6.404L-28.351,-2.629C-27.586,-1.786 -26.492,-1.246 -25.263,-1.245L-16.343,-1.245L-16.343,-1.07C-16.342,0.014 -15.464,0.892 -14.38,0.893L-13.971,0.893C-12.887,0.892 -12.009,0.014 -12.009,-1.07L-12.009,-1.245L-3.056,-1.245C-1.841,-1.246 -0.759,-1.777 0,-2.609L0,6.46ZM-19.027,-13.019C-19.026,-13.603 -18.554,-14.076 -17.97,-14.077L-10.381,-14.077C-9.797,-14.076 -9.325,-13.603 -9.324,-13.019L-9.324,-11.126L-19.027,-11.126L-19.027,-13.019ZM0.897,-10.969L0.738,-11.126L-8.231,-11.126L-8.231,-13.019C-8.231,-14.207 -9.193,-15.169 -10.381,-15.169L-17.97,-15.169C-19.157,-15.169 -20.12,-14.207 -20.12,-13.019L-20.12,-11.126L-29.092,-11.126L-29.283,-10.935L-29.443,-10.774L-29.443,6.404C-29.443,8.266 -27.935,9.775 -26.073,9.775L-2.223,9.775C-0.392,9.775 1.092,8.291 1.093,6.46L1.093,-5.394L1.093,-10.323L1.093,-10.777L0.897,-10.969Z" style="fill:rgb(10,116,120);fill-rule:nonzero;"/>
    </g>
</svg>
