<svg xmlns="http://www.w3.org/2000/svg" width="322.543" height="291.048" viewBox="0 0 322.543 291.048">
  <g id="Group_439" data-name="Group 439" transform="translate(-1233.5 -2867)">
    <g id="Group_421" data-name="Group 421" transform="translate(-344)">
      <g id="Group_367" data-name="Group 367" transform="translate(319.876 1845.212)">
        <path id="Path_611" data-name="Path 611" d="M1262.374,1286.544h316.285a1.87,1.87,0,0,0,0-3.67H1262.374a1.87,1.87,0,0,0,0,3.67" fill="#3b3b3b"/>
      </g>
      <rect id="Rectangle_2523" data-name="Rectangle 2523" width="3.163" height="34.375" transform="translate(1737.608 3081.378)" fill="#3b3b3b"/>
      <rect id="Rectangle_2524" data-name="Rectangle 2524" width="129.4" height="236.674" transform="translate(1675.693 2878.755)" fill="none" stroke="#3b3b3b" stroke-miterlimit="10" stroke-width="3"/>
      <rect id="Rectangle_2525" data-name="Rectangle 2525" width="147.68" height="10.159" transform="translate(1666.553 2867)" fill="#d6d6d6"/>
      <rect id="Rectangle_2526" data-name="Rectangle 2526" width="29.774" height="34.715" transform="translate(1724.302 3080.707)" fill="none" stroke="#3b3b3b" stroke-miterlimit="10" stroke-width="3"/>
      <rect id="Rectangle_2527" data-name="Rectangle 2527" width="12.756" height="13.752" transform="translate(1687.701 2893.839)" fill="#d6d6d6"/>
      <rect id="Rectangle_2528" data-name="Rectangle 2528" width="12.756" height="13.752" transform="translate(1710.259 2893.839)" fill="#d6d6d6"/>
      <rect id="Rectangle_2529" data-name="Rectangle 2529" width="12.756" height="13.752" transform="translate(1732.817 2893.839)" fill="#d6d6d6"/>
      <rect id="Rectangle_2530" data-name="Rectangle 2530" width="12.756" height="13.752" transform="translate(1755.375 2893.839)" fill="#d6d6d6"/>
      <rect id="Rectangle_2531" data-name="Rectangle 2531" width="12.756" height="13.752" transform="translate(1777.933 2893.839)" fill="#d6d6d6"/>
      <rect id="Rectangle_2532" data-name="Rectangle 2532" width="12.756" height="13.752" transform="translate(1687.701 2920.156)" fill="#d6d6d6"/>
      <rect id="Rectangle_2533" data-name="Rectangle 2533" width="12.756" height="13.752" transform="translate(1710.259 2920.156)" fill="#d6d6d6"/>
      <rect id="Rectangle_2534" data-name="Rectangle 2534" width="12.756" height="13.752" transform="translate(1732.817 2920.156)" fill="#d6d6d6"/>
      <rect id="Rectangle_2535" data-name="Rectangle 2535" width="12.756" height="13.752" transform="translate(1755.375 2920.156)" fill="#d6d6d6"/>
      <rect id="Rectangle_2536" data-name="Rectangle 2536" width="12.756" height="13.752" transform="translate(1777.933 2920.156)" fill="#d6d6d6"/>
      <rect id="Rectangle_2537" data-name="Rectangle 2537" width="12.756" height="13.752" transform="translate(1687.701 2946.472)" fill="#d6d6d6"/>
      <rect id="Rectangle_2538" data-name="Rectangle 2538" width="12.756" height="13.752" transform="translate(1710.259 2946.472)" fill="#d6d6d6"/>
      <rect id="Rectangle_2539" data-name="Rectangle 2539" width="12.756" height="13.752" transform="translate(1732.817 2946.472)" fill="#d6d6d6"/>
      <rect id="Rectangle_2540" data-name="Rectangle 2540" width="12.756" height="13.752" transform="translate(1755.375 2946.472)" fill="#d6d6d6"/>
      <rect id="Rectangle_2541" data-name="Rectangle 2541" width="12.756" height="13.752" transform="translate(1777.933 2946.472)" fill="#d6d6d6"/>
      <rect id="Rectangle_2542" data-name="Rectangle 2542" width="12.756" height="13.752" transform="translate(1687.701 2972.789)" fill="#d6d6d6"/>
      <rect id="Rectangle_2543" data-name="Rectangle 2543" width="12.756" height="13.752" transform="translate(1710.259 2972.789)" fill="#d6d6d6"/>
      <rect id="Rectangle_2544" data-name="Rectangle 2544" width="12.756" height="13.752" transform="translate(1732.817 2972.789)" fill="#d6d6d6"/>
      <rect id="Rectangle_2545" data-name="Rectangle 2545" width="12.756" height="13.752" transform="translate(1755.375 2972.789)" fill="#d6d6d6"/>
      <rect id="Rectangle_2546" data-name="Rectangle 2546" width="12.756" height="13.752" transform="translate(1777.933 2972.789)" fill="#d6d6d6"/>
      <rect id="Rectangle_2547" data-name="Rectangle 2547" width="12.756" height="13.752" transform="translate(1687.701 2999.105)" fill="#d6d6d6"/>
      <rect id="Rectangle_2548" data-name="Rectangle 2548" width="12.756" height="13.752" transform="translate(1710.259 2999.105)" fill="#d6d6d6"/>
      <rect id="Rectangle_2549" data-name="Rectangle 2549" width="12.756" height="13.752" transform="translate(1732.817 2999.105)" fill="#d6d6d6"/>
      <rect id="Rectangle_2550" data-name="Rectangle 2550" width="12.756" height="13.752" transform="translate(1755.375 2999.105)" fill="#d6d6d6"/>
      <rect id="Rectangle_2551" data-name="Rectangle 2551" width="12.756" height="13.752" transform="translate(1777.933 2999.105)" fill="#d6d6d6"/>
      <rect id="Rectangle_2552" data-name="Rectangle 2552" width="12.756" height="13.752" transform="translate(1687.701 3025.422)" fill="#d6d6d6"/>
      <rect id="Rectangle_2553" data-name="Rectangle 2553" width="12.756" height="13.752" transform="translate(1710.259 3025.422)" fill="#d6d6d6"/>
      <rect id="Rectangle_2554" data-name="Rectangle 2554" width="12.756" height="13.752" transform="translate(1732.817 3025.422)" fill="#d6d6d6"/>
      <rect id="Rectangle_2555" data-name="Rectangle 2555" width="12.756" height="13.752" transform="translate(1755.375 3025.422)" fill="#d6d6d6"/>
      <rect id="Rectangle_2556" data-name="Rectangle 2556" width="12.756" height="13.752" transform="translate(1777.933 3025.422)" fill="#d6d6d6"/>
      <g id="Group_368" data-name="Group 368" transform="translate(319.876 1845.212)">
        <rect id="Rectangle_2557" data-name="Rectangle 2557" width="12.756" height="13.752" transform="translate(1367.824 1206.526)" fill="#d6d6d6"/>
        <rect id="Rectangle_2558" data-name="Rectangle 2558" width="12.756" height="13.752" transform="translate(1390.382 1206.526)" fill="#d6d6d6"/>
        <rect id="Rectangle_2559" data-name="Rectangle 2559" width="12.756" height="13.752" transform="translate(1412.941 1206.526)" fill="#d6d6d6"/>
        <rect id="Rectangle_2560" data-name="Rectangle 2560" width="12.756" height="13.752" transform="translate(1435.499 1206.526)" fill="#d6d6d6"/>
        <rect id="Rectangle_2561" data-name="Rectangle 2561" width="12.756" height="13.752" transform="translate(1458.057 1206.526)" fill="#d6d6d6"/>
      </g>
      <g id="Group_369" data-name="Group 369" transform="translate(319.876 1836.212)">
        <circle id="Ellipse_37" data-name="Ellipse 37" cx="28.402" cy="28.402" r="28.402" transform="translate(1259.124 1032.979)" fill="none" stroke="#3b3b3b" stroke-miterlimit="10" stroke-width="3"/>
        <circle id="Ellipse_38" data-name="Ellipse 38" cx="17.041" cy="17.041" r="17.041" transform="translate(1270.484 1044.34)" fill="none" stroke="#3b3b3b" stroke-miterlimit="10" stroke-width="3"/>
        <circle id="Ellipse_39" data-name="Ellipse 39" cx="5.68" cy="5.68" r="5.68" transform="translate(1281.845 1055.7)" fill="none" stroke="#3b3b3b" stroke-miterlimit="10" stroke-width="3"/>
        <line id="Line_66" data-name="Line 66" y1="11.361" transform="translate(1287.526 1044.34)" fill="none" stroke="#3b3b3b" stroke-miterlimit="10" stroke-width="3"/>
        <line id="Line_67" data-name="Line 67" x1="10.805" y1="3.512" transform="translate(1271.318 1056.114)" fill="none" stroke="#3b3b3b" stroke-miterlimit="10" stroke-width="3"/>
        <line id="Line_68" data-name="Line 68" x1="6.68" y2="9.192" transform="translate(1277.508 1065.976)" fill="none" stroke="#3b3b3b" stroke-miterlimit="10" stroke-width="3"/>
        <line id="Line_69" data-name="Line 69" x2="6.678" y2="9.192" transform="translate(1290.866 1065.976)" fill="none" stroke="#3b3b3b" stroke-miterlimit="10" stroke-width="3"/>
        <line id="Line_70" data-name="Line 70" y1="3.512" x2="10.805" transform="translate(1292.928 1056.114)" fill="none" stroke="#3b3b3b" stroke-miterlimit="10" stroke-width="3"/>
      </g>
      <g id="Group_370" data-name="Group 370" transform="translate(319.876 1845.212)">
        <path id="Path_612" data-name="Path 612" d="M1473.946,1306.229h-7.884l-4.73-6.132,2.628-11.037,2.453-2.1,12.789-3.854,15.767-5.08,20.672.175,19.8,9.11,22.074,6.307,3.153,2.628,1.4,10.686-10.511.175-.433-2.71-.092-2.37-.454-1.686-1.9-1.516-2.275-.885-3.917.885-3.412,2.022-.505,3.285-.505,3.664h-50.922l.758-2.527-.253-2.274-1.137-1.9-1.264-2.022-2.653-.885-2.78.126-2.78.379-1.9,2.653Z" fill="#9bd1d1"/>
        <path id="Path_613" data-name="Path 613" d="M1486.823,1308.651h51.933v-2.4h-51.933" fill="#3b3b3b"/>
        <path id="Path_614" data-name="Path 614" d="M1487.157,1304.8h-1.2a5.642,5.642,0,1,1-5.642-5.642,5.648,5.648,0,0,1,5.642,5.642h2.4a8.041,8.041,0,1,0-8.041,8.041,8.041,8.041,0,0,0,8.041-8.041Z" fill="#3b3b3b"/>
        <path id="Path_615" data-name="Path 615" d="M1551.642,1304.64h-1.2A5.642,5.642,0,1,1,1544.8,1299a5.65,5.65,0,0,1,5.642,5.642h2.4a8.041,8.041,0,1,0-8.041,8.042,8.041,8.041,0,0,0,8.041-8.042Z" fill="#3b3b3b"/>
        <path id="Path_616" data-name="Path 616" d="M1473.118,1305.432h-7.079v1.2l.932-.755-4.529-5.595,1.793-10.412,2.488-2.126,5.812-1.346,22.282-6.893,20.073.266,17.8,8.338,22.6,5.665,3.261,2.869,1.1,9.673-8.05.037.011,2.4,10.726-.05-1.512-13.25-4.392-3.864-22.943-5.75-18.055-8.459-20.969-.278-22.561,6.98-6.3,1.458-3.592,3.07-2.125,12.338,5.574,6.884h7.651v-2.4Z" fill="#3b3b3b"/>
      </g>
      <g id="Group_375" data-name="Group 375" transform="translate(319.876 1845.212)">
        <g id="Group_371" data-name="Group 371">
          <path id="Path_617" data-name="Path 617" d="M1337.315,1234.188a12.254,12.254,0,0,0-23.125,0,8.289,8.289,0,1,0,6.169,15.062,12.261,12.261,0,0,0,10.787,0,8.288,8.288,0,1,0,6.169-15.062Z" fill="#9bd1d1"/>
          <path id="Path_618" data-name="Path 618" d="M1335.636,1241.382l-8.081,4.493-1.257-13.519h-1.091l-1.257,13.519-8.081-4.493-.646.776,8.1,6.623v20.612h4.86v-20.612l8.1-6.623Z" fill="#3b3b3b"/>
        </g>
        <g id="Group_372" data-name="Group 372">
          <path id="Path_619" data-name="Path 619" d="M1296.214,1233.267a12.255,12.255,0,0,0-23.126,0,8.289,8.289,0,1,0,6.17,15.062,12.261,12.261,0,0,0,10.787,0,8.288,8.288,0,1,0,6.169-15.062Z" fill="#9bd1d1"/>
          <path id="Path_620" data-name="Path 620" d="M1294.535,1240.461l-8.081,4.493-1.257-13.519h-1.091l-1.257,13.519-8.081-4.493-.646.776,8.1,6.623v20.612h4.86V1247.86l8.1-6.623Z" fill="#3b3b3b"/>
        </g>
        <g id="Group_373" data-name="Group 373">
          <path id="Path_621" data-name="Path 621" d="M1567.944,1234.958a12.254,12.254,0,0,0-23.125,0,8.289,8.289,0,1,0,6.169,15.062,12.261,12.261,0,0,0,10.787,0,8.288,8.288,0,1,0,6.169-15.062Z" fill="#9bd1d1"/>
          <path id="Path_622" data-name="Path 622" d="M1566.265,1242.152l-8.081,4.493-1.257-13.519h-1.091l-1.257,13.519-8.081-4.493-.646.776,8.1,6.624v20.612h4.859v-20.612l8.1-6.624Z" fill="#3b3b3b"/>
        </g>
        <g id="Group_374" data-name="Group 374">
          <path id="Path_623" data-name="Path 623" d="M1526.843,1234.037a12.255,12.255,0,0,0-23.126,0,8.289,8.289,0,1,0,6.17,15.062,12.261,12.261,0,0,0,10.787,0,8.288,8.288,0,1,0,6.169-15.062Z" fill="#9bd1d1"/>
          <path id="Path_624" data-name="Path 624" d="M1525.164,1241.231l-8.081,4.493-1.257-13.519h-1.091l-1.257,13.519-8.081-4.493-.646.776,8.1,6.623v20.612h4.86v-20.612l8.1-6.623Z" fill="#3b3b3b"/>
        </g>
      </g>
    </g>
  </g>
</svg>
