<?xml version="1.0" encoding="UTF-8" standalone="no"?><!DOCTYPE svg PUBLIC "-//W3C//DTD SVG 1.1//EN" "http://www.w3.org/Graphics/SVG/1.1/DTD/svg11.dtd"><svg width="100%" height="100%" viewBox="0 0 1009 373" version="1.1" xmlns="http://www.w3.org/2000/svg" xmlns:xlink="http://www.w3.org/1999/xlink" xml:space="preserve" xmlns:serif="http://www.serif.com/" style="fill-rule:evenodd;clip-rule:evenodd;stroke-linejoin:round;stroke-miterlimit:1.41421;"><path d="M47.937,324.785l53.338,0c7.406,0 13.544,-1.8 18.412,-5.4c4.869,-3.594 7.3,-8.781 7.3,-15.556c0,-3.382 -0.843,-6.45 -2.537,-9.207c-1.694,-2.75 -3.919,-5.081 -6.669,-6.981c-2.75,-1.906 -5.875,-3.387 -9.362,-4.444c-3.494,-1.062 -6.938,-1.593 -10.319,-1.593l-50.163,0l0,43.181Zm46.988,-86.038c2.112,0 4.231,-0.581 6.35,-1.743c2.112,-1.163 3.969,-2.7 5.556,-4.607c1.588,-1.9 2.856,-4.018 3.806,-6.35c0.957,-2.325 1.432,-4.762 1.432,-7.3c0,-5.5 -1.588,-10 -4.763,-13.493c-3.175,-3.494 -7.3,-5.238 -12.381,-5.238l-46.988,0l0,38.731l46.988,0Zm-0.956,-86.356c9.531,0 18.206,1.488 26.037,4.444c7.825,2.975 14.544,7.144 20.156,12.544c5.607,5.4 9.95,11.8 13.019,19.206c3.069,7.412 4.606,15.556 4.606,24.45c0,10.156 -1.643,18.519 -4.925,25.075c-3.281,6.569 -7.25,11.856 -11.906,15.875c4.019,1.7 7.988,4.181 11.906,7.462c3.919,3.288 7.35,7.25 10.319,11.907c2.963,4.656 5.344,10.05 7.144,16.187c1.794,6.144 2.7,12.913 2.7,20.319c0,20.531 -6.775,36.031 -20.319,46.512c-13.55,10.475 -31.856,15.713 -54.925,15.713l-97.781,0l0,-219.694l93.969,0Z" style="fill:#004c97;fill-rule:nonzero;"/><path d="M227.946,372.087l-78.419,-219.693l53.975,0l44.444,136.831l44.762,-136.831l53.338,0l-78.732,219.693l-39.368,0Z" style="fill:#004c97;fill-rule:nonzero;"/><path d="M401.603,247.637l45.081,0c8.044,0 14.65,-1.906 19.844,-5.713c5.181,-3.812 7.775,-9.95 7.775,-18.412c0,-8.256 -2.594,-14.238 -7.775,-17.938c-5.194,-3.706 -11.8,-5.556 -19.844,-5.556l-45.081,0l0,47.619Zm31.431,45.712l-31.112,0l0,78.738l-48.894,0l0,-219.694l92.069,0c11.212,0 21.431,1.488 30.637,4.444c9.2,2.969 17.088,7.306 23.65,13.019c6.557,5.712 11.638,12.756 15.238,21.112c3.6,8.363 5.4,18.044 5.4,29.05c0,9.313 -1.113,17.513 -3.331,24.6c-2.225,7.094 -5.138,13.338 -8.732,18.738c-3.606,5.393 -7.731,9.837 -12.381,13.331c-4.656,3.494 -9.525,6.194 -14.606,8.094l49.525,87.306l-57.463,0l-40,-78.738Z" style="fill:#004c97;fill-rule:nonzero;"/><path d="M537.479,152.394l48.888,0l0,171.438l93.656,0l0,48.256l-142.544,0l0,-219.694Z" style="fill:#004c97;fill-rule:nonzero;"/><path d="M767.329,287.004l37.144,0l-18.732,-58.418l-18.412,58.418Zm-0.95,-134.612l39.362,0l78.738,219.694l-53.656,0l-12.7,-38.732l-64.125,0l-12.382,38.732l-53.656,0l78.419,-219.694Z" style="fill:#004c97;fill-rule:nonzero;"/><path d="M136.314,114.928c0,0 118.137,-45.6 209.637,-69.762c84.925,-22.432 227.988,-48.482 337.769,-44.819c109.8,3.669 225.562,9.506 291.688,62.444c55.431,44.375 34.299,98.237 -8.269,130.475c-42.582,32.243 -91.381,49.375 -91.381,49.375c0,0 47.387,-21.625 57.274,-46.388c13.65,-34.2 15.613,-84.237 -75.068,-115.156c-91.819,-31.3 -187.375,-41.469 -256.869,-38.519c-25.4,1.075 -128.281,7.125 -222.806,21.606c-120.156,18.407 -241.975,50.744 -241.975,50.744" style="fill:#ee402e;fill-rule:nonzero;"/></svg>