<?xml version="1.0" encoding="UTF-8"?>
<svg width="22px" height="26px" viewBox="0 0 22 26" version="1.1" xmlns="http://www.w3.org/2000/svg" xmlns:xlink="http://www.w3.org/1999/xlink">
    <!-- Generator: Sketch 50.2 (55047) - http://www.bohemiancoding.com/sketch -->
    <title>call - icon</title>
    <desc>Created with Sketch.</desc>
    <defs></defs>
    <g id="Page-1" stroke="none" stroke-width="1" fill="none" fill-rule="evenodd">
        <path d="M20.860657,22.3410502 L21.340657,22.2510502 C21.2216033,21.7899528 21.0291443,21.3510113 20.770657,20.9510502 C20.3900643,20.2408645 19.9158264,19.5850035 19.360657,19.0010502 C18.76469,18.3825254 17.9492919,18.0233192 17.090657,18.0010502 L17.030657,18.0010502 C16.2514838,18.0734363 15.502442,18.3380061 14.850657,18.7710502 C14.3384123,19.118732 13.746923,19.3319433 13.130657,19.3910502 L13.070657,19.3910502 C12.1708446,19.2405443 11.3471841,18.7935149 10.730657,18.1210502 C10.0067349,17.4265645 9.36883443,16.6476544 8.83065703,15.8010502 C8.71065703,15.5710502 6.36065703,11.8010502 6.36065703,11.8010502 L5.95065703,12.0510502 L6.38065703,11.8210502 C6.23065703,11.5510502 6.04065703,11.2910502 5.88065703,11.0310502 C5.74873355,10.8355174 5.65069488,10.6191562 5.59065703,10.3910502 L5.59065703,10.1910502 C5.60143065,9.75830131 5.75231805,9.34072921 6.02065703,9.00105018 C6.29712231,8.63780607 6.63567316,8.32633928 7.02065703,8.08105018 C7.58678852,7.77508632 8.10001206,7.38003925 8.54065703,6.91105018 C8.89506057,6.48046706 9.08627285,5.93869894 9.08065703,5.38105018 C9.09510164,5.21469648 9.09510164,5.04740387 9.08065703,4.88105018 C8.88132832,3.97809856 8.54403641,3.11125834 8.08065703,2.31105018 C7.80652408,1.68996884 7.41229826,1.1292166 6.92065703,0.661050176 C6.4665605,0.220207862 5.85326007,-0.0178970099 5.22065703,0.00105017603 C4.49396304,0.0381288003 3.78709849,0.25087444 3.16065703,0.621050176 C2.43703741,1.0577829 1.82166134,1.65264644 1.36065703,2.36105018 C0.876224945,3.01624988 0.501350704,3.74573489 0.250657032,4.52105018 C0.0757513317,5.17304889 -0.00837496433,5.84605925 0.000657032107,6.52105018 C0.122483002,8.87743282 0.703356316,11.1873384 1.71065703,13.3210502 C3.13981247,16.7200679 5.3051551,19.7597445 8.05065703,22.2210502 C10.4678197,24.4763309 13.6082824,25.7984445 16.910657,25.9510502 L16.980657,25.9510502 C18.0316737,26.0048152 19.0752047,25.7474109 19.980657,25.2110502 C20.8302553,24.666058 21.3488383,23.730354 21.360657,22.7210502 C21.3759066,22.5647546 21.3759066,22.4073458 21.360657,22.2510502 L20.880657,22.3410502 L20.410657,22.4410502 C20.415973,22.5343078 20.415973,22.6277925 20.410657,22.7210502 C20.3693399,23.4074019 19.9961838,24.0305725 19.410657,24.3910502 C18.6718363,24.8103722 17.8292155,25.0114915 16.980657,24.9710502 L16.910657,24.9710502 C13.8433283,24.8199996 10.9297053,23.5829505 8.69065703,21.4810502 C6.05610691,19.1140212 3.97662091,16.1945458 2.60065703,12.9310502 C1.65078928,10.9153298 1.09740814,8.73575499 0.970657032,6.51105018 C0.964743147,5.93033946 1.03877088,5.35157716 1.19065703,4.79105018 C1.41800954,4.11965557 1.75600108,3.49099131 2.19065703,2.93105018 C2.57156404,2.35645008 3.07322459,1.87185282 3.66065703,1.51105018 C4.14568962,1.21589131 4.69428501,1.04102653 5.26065703,1.00105018 C5.63237091,0.994130019 5.99177545,1.13429779 6.26065703,1.39105018 C6.65333897,1.7819362 6.96884404,2.24331995 7.19065703,2.75105018 C7.59796006,3.45354477 7.90112157,4.21144856 8.09065703,5.00105018 C8.10012475,5.11752476 8.10012475,5.23457559 8.09065703,5.35105018 C8.09429444,5.68257157 7.98099312,6.00477221 7.77065703,6.26105018 C7.40551892,6.64885795 6.97579986,6.97030134 6.50065703,7.21105018 C6.00617615,7.52378495 5.57249532,7.92358446 5.22065703,8.39105018 C4.80775216,8.88684768 4.57198164,9.50618518 4.55065703,10.1510502 C4.54035512,10.2775074 4.54035512,10.404593 4.55065703,10.5310502 C4.63286696,10.8874712 4.7785195,11.226198 4.98065703,11.5310502 C5.15065703,11.8210502 5.34065703,12.0810502 5.45065703,12.2810502 L6.64065703,14.1910502 C7.25065703,15.1910502 7.86065703,16.1910502 7.91065703,16.1910502 C8.48828894,17.1117776 9.17677201,17.958108 9.96065703,18.7110502 C10.7536575,19.5526011 11.8138251,20.0932865 12.960657,20.2410502 L13.060657,20.2410502 C13.8391952,20.1875797 14.5904467,19.9325677 15.240657,19.5010502 C15.7616197,19.1508548 16.3576891,18.9281851 16.980657,18.8510502 C17.59054,18.8832353 18.162581,19.1566637 18.570657,19.6110502 C19.0729894,20.1461343 19.5032944,20.7445271 19.850657,21.3910502 C20.0597332,21.6958041 20.2152972,22.0339867 20.310657,22.3910502 L20.860657,22.3410502 Z" id="call---icon" fill="#FFFFFF" fill-rule="nonzero"></path>
    </g>
</svg>