<?xml version="1.0" encoding="utf-8"?>
<!-- Generator: Adobe Illustrator 16.0.0, SVG Export Plug-In . SVG Version: 6.00 Build 0)  -->
<!DOCTYPE svg PUBLIC "-//W3C//DTD SVG 1.1//EN" "http://www.w3.org/Graphics/SVG/1.1/DTD/svg11.dtd">
<svg version="1.1" id="Layer_1" xmlns="http://www.w3.org/2000/svg" xmlns:xlink="http://www.w3.org/1999/xlink" x="0px" y="0px"
	 width="102.5px" height="37.75px" viewBox="0 0 102.5 37.75" enable-background="new 0 0 102.5 37.75" xml:space="preserve">
<g>
	<defs>
		<path id="SVGID_1_" d="M15.687,28.596c0.007-3.042,2.468-5.506,5.51-5.513c3.042,0.007,5.506,2.471,5.513,5.513
			c-0.007,3.042-2.471,5.501-5.513,5.513C18.155,34.097,15.694,31.638,15.687,28.596 M78.683,28.443
			c0.005-3.044,2.464-5.508,5.511-5.508c3.042,0,5.506,2.464,5.51,5.508c-0.004,3.04-2.468,5.509-5.51,5.513
			C81.146,33.952,78.688,31.483,78.683,28.443 M3.736,24.188l1.753-10.172l2.43-2.076l5.676-1.313l21.77-6.738l19.607,0.263
			l17.385,8.145l22.083,5.536l3.186,2.799l1.077,9.452l-6.84,0.031c0.118-0.54,0.184-1.098,0.184-1.67
			c0-4.337-3.514-7.854-7.854-7.854s-7.856,3.517-7.856,7.854c0,0.54,0.055,1.066,0.159,1.575H28.909
			c0.086-0.461,0.145-0.938,0.145-1.423c0-4.34-3.516-7.856-7.856-7.856c-4.337,0-7.854,3.517-7.854,7.856
			c0,0.211,0.048,0.415,0.062,0.624H7.813L3.736,24.188z M12.985,8.359l-6.15,1.427l-3.512,3L1.247,24.834l5.447,6.727h0.558h3.006
			h3.673c1.17,2.868,3.979,4.889,7.266,4.889c2.965,0,5.518-1.662,6.854-4.088h49.37c1.361,2.344,3.868,3.937,6.772,3.937
			c2.865,0,5.345-1.548,6.717-3.839l10.418-0.045l-1.479-12.945l-4.287-3.775l-22.412-5.617L55.511,1.814L35.027,1.542L12.985,8.359
			z"/>
	</defs>
	<clipPath id="SVGID_2_">
		<use xlink:href="#SVGID_1_"  overflow="visible"/>
	</clipPath>
	
		<linearGradient id="SVGID_3_" gradientUnits="userSpaceOnUse" x1="-535.7705" y1="1990.957" x2="-533.4473" y2="1990.957" gradientTransform="matrix(43.0804 0 0 -43.0804 23082.4375 85790.1563)">
		<stop  offset="0" style="stop-color:#057477"/>
		<stop  offset="1" style="stop-color:#057477"/>
	</linearGradient>
	<rect x="1.247" y="1.542" clip-path="url(#SVGID_2_)" fill="url(#SVGID_3_)" width="100.081" height="34.91"/>
</g>
</svg>
