<svg id="Layer_1" data-name="Layer 1" xmlns="http://www.w3.org/2000/svg" viewBox="0 0 40.55 14.14"><defs><style>.cls-1{fill:#3a3a3a;}</style></defs><title>symbol</title><path class="cls-1" d="M40.55,12.51,40,7.26,38.21,5.73,29.13,3.46,22,.11,13.68,0,4.76,2.76l-2.5.58L.84,4.55,0,9.44l2.21,2.72H5.14a3.17,3.17,0,0,0,5.72.33h20a3.16,3.16,0,0,0,2.74,1.59,3.2,3.2,0,0,0,2.73-1.55Zm-32.47.68A2.23,2.23,0,1,1,10.32,11,2.23,2.23,0,0,1,8.08,13.19ZM30.42,10.9a2.73,2.73,0,0,0,.07.64H11.21a3.68,3.68,0,0,0,0-.58A3.18,3.18,0,1,0,4.9,11l0,.25H2.66L1,9.17l.71-4.12,1-.84L5,3.68,13.82,1l8,.11,7,3.3,9,2.24,1.29,1.13.43,3.83-2.77,0a3.08,3.08,0,0,0,.08-.68,3.19,3.19,0,0,0-6.37,0Zm3.18,2.23a2.23,2.23,0,1,1,2.24-2.23A2.23,2.23,0,0,1,33.6,13.13Z"/><polygon class="cls-1" points="26.35 4.8 26.46 4.59 21.7 2.16 13.95 2.1 7.66 4.28 13.93 4.95 27.35 5.04 26.46 4.59 26.35 4.8 26.35 4.56 13.96 4.48 9.82 4.04 14.03 2.58 21.58 2.63 26.24 5.01 26.35 4.8 26.35 4.56 26.35 4.8"/></svg>