<?xml version="1.0" encoding="UTF-8" standalone="no"?>
<!DOCTYPE svg PUBLIC "-//W3C//DTD SVG 1.1//EN" "http://www.w3.org/Graphics/SVG/1.1/DTD/svg11.dtd">
<svg width="100%" height="100%" viewBox="0 0 174 193" version="1.1" xmlns="http://www.w3.org/2000/svg" xmlns:xlink="http://www.w3.org/1999/xlink" xml:space="preserve" xmlns:serif="http://www.serif.com/" style="fill-rule:evenodd;clip-rule:evenodd;stroke-linejoin:round;stroke-miterlimit:1.41421;">
    <g transform="matrix(5.55556,0,0,5.55556,104.222,67.5111)">
        <path d="M0,10.41L-2.407,8.647L-2.407,6.488L-0.302,7.635L0,10.41ZM-6.142,10.409L-5.829,7.535L-3.907,6.488L-3.907,8.773L-6.142,10.409ZM-9.213,5.091L-6.871,4.058L-4.725,5.225L-6.597,6.245L-9.213,5.091ZM-6.142,-0.229L-3.907,1.407L-3.907,3.964L-5.797,2.934L-6.142,-0.229ZM0,-0.228L-0.333,2.835L-2.407,3.964L-2.407,1.534L0,-0.228ZM3.071,5.091L0.36,6.287L-1.588,5.225L0.634,4.016L3.071,5.091ZM11.293,8.261L10.956,6.971L4.646,8.62L1.838,7.092L6.376,5.091L2.113,3.212L4.722,1.791L11.033,3.44L11.371,2.15L6.433,0.859L12.446,-2.413L11.728,-3.732L5.702,-0.45L7.311,-5.304L6.046,-5.724L3.988,0.482L1.092,2.058L1.652,-3.09L-2.407,-0.118L-2.407,-3.358L2.059,-8.112L1.087,-9.025L-2.407,-5.305L-2.407,-12.152L-3.907,-12.152L-3.907,-5.289L-7.4,-9.025L-8.374,-8.112L-3.907,-3.337L-3.907,-0.245L-7.794,-3.091L-7.631,-1.588L-7.224,2.158L-10.302,0.482L-12.36,-5.724L-13.626,-5.304L-12.016,-0.45L-18.043,-3.732L-18.76,-2.413L-12.747,0.859L-17.685,2.15L-17.348,3.44L-11.037,1.791L-8.35,3.253L-12.518,5.091L-8.075,7.05L-10.959,8.62L-17.27,6.971L-17.607,8.261L-12.67,9.552L-18.76,12.867L-18.043,14.184L-11.938,10.861L-13.548,15.715L-12.283,16.135L-10.224,9.928L-7.255,8.31L-7.794,13.272L-3.907,10.427L-3.907,13.681L-8.374,18.434L-7.401,19.348L-3.907,15.629L-3.907,22.562L-2.407,22.562L-2.407,15.612L1.086,19.348L2.06,18.436L-2.407,13.66L-2.407,10.3L1.652,13.272L1.124,8.41L3.91,9.928L5.968,16.135L7.234,15.715L5.624,10.861L11.728,14.184L12.446,12.867L6.356,9.552L11.293,8.261Z" style="fill:rgb(2,97,97);fill-rule:nonzero;"/>
    </g>
</svg>
