<?xml version="1.0" encoding="UTF-8" standalone="no"?><!DOCTYPE svg PUBLIC "-//W3C//DTD SVG 1.1//EN" "http://www.w3.org/Graphics/SVG/1.1/DTD/svg11.dtd"><svg width="100%" height="100%" viewBox="0 0 137 137" version="1.1" xmlns="http://www.w3.org/2000/svg" xmlns:xlink="http://www.w3.org/1999/xlink" xml:space="preserve" xmlns:serif="http://www.serif.com/" style="fill-rule:evenodd;clip-rule:evenodd;stroke-linejoin:round;stroke-miterlimit:1.41421;"><path d="M136.238,68.119c0,37.625 -30.5,68.118 -68.119,68.118c-37.619,0 -68.119,-30.493 -68.119,-68.118c0,-37.619 30.5,-68.119 68.119,-68.119c37.619,0 68.119,30.5 68.119,68.119" style="fill:#fff;fill-rule:nonzero;"/><path d="M100.911,103.022l-39.888,0l0,-34.9l14.956,0l0,-14.963l24.932,0l0,49.863Zm-29.919,-47.794l0,7.906l-7.906,0l7.906,-7.906Zm-39.888,27.85l0,-34.9l14.957,0l0,-14.962l24.931,0l0,14.962l-14.956,14.956l0,19.944l-24.932,0Zm9.969,-47.794l0,7.907l-7.906,0l7.906,-7.907Zm34.906,12.894l0,-19.95l-34.906,0l-14.956,14.963l0,44.875l29.919,0l0,19.943l49.862,0l0,-59.831l-29.919,0Z" style="fill:#5b5b5b;fill-rule:nonzero;"/></svg>