<svg xmlns="http://www.w3.org/2000/svg" viewBox="0 0 32.02 32.37"><defs><style>.a{fill:#057477;}</style></defs><title>1</title><polygon class="a" points="0.63 31.74 1.25 31.74 1.25 13.68 16.16 1.61 30.77 13.63 30.77 31.11 25.03 31.11 25.03 16.22 6.96 16.22 6.96 31.11 0.63 31.11 0.63 31.74 1.25 31.74 0.63 31.74 0.63 32.36 8.21 32.37 8.21 17.47 23.78 17.47 23.78 32.37 32.02 32.37 32.02 13.04 16.16 0 0 13.08 0 32.36 0.63 32.36 0.63 31.74"/><polyline class="a" points="9.38 20.07 22.65 20.07 22.65 18.82 9.38 18.82"/><polyline class="a" points="9.38 22.52 22.65 22.52 22.65 21.27 9.38 21.27"/><polyline class="a" points="9.38 24.97 22.65 24.97 22.65 23.72 9.38 23.72"/><polyline class="a" points="9.38 27.42 22.65 27.42 22.65 26.16 9.38 26.16"/><polyline class="a" points="9.38 29.87 22.65 29.87 22.65 28.61 9.38 28.61"/><polyline class="a" points="9.38 32.31 22.65 32.31 22.65 31.06 9.38 31.06"/></svg>