<?xml version="1.0" encoding="UTF-8" standalone="no"?><!DOCTYPE svg PUBLIC "-//W3C//DTD SVG 1.1//EN" "http://www.w3.org/Graphics/SVG/1.1/DTD/svg11.dtd"><svg width="100%" height="100%" viewBox="0 0 160 162" version="1.1" xmlns="http://www.w3.org/2000/svg" xmlns:xlink="http://www.w3.org/1999/xlink" xml:space="preserve" xmlns:serif="http://www.serif.com/" style="fill-rule:evenodd;clip-rule:evenodd;stroke-linejoin:round;stroke-miterlimit:1.41421;"><path d="M3.125,158.487l3.125,0l0,-90.175l74.444,-60.243l72.975,60.018l0,87.294l-28.688,0l0,-74.4l-90.225,0l0,74.394l-31.631,-0.013l0,3.125l3.125,0l-3.125,0l0,3.125l37.881,0.019l0,-74.4l77.725,0l0,74.4l41.188,0l0,-96.5l-79.194,-65.131l-80.725,65.331l0,96.281l3.125,0l0,-3.125Z" style="fill:#066c72;fill-rule:nonzero;"/><path d="M46.839,100.223l66.275,0l0,-6.25l-66.275,0" style="fill:#066c72;fill-rule:nonzero;"/><path d="M46.839,112.452l66.275,0l0,-6.25l-66.275,0" style="fill:#066c72;fill-rule:nonzero;"/><path d="M46.839,124.683l66.275,0l0,-6.25l-66.275,0" style="fill:#066c72;fill-rule:nonzero;"/><path d="M46.839,136.912l66.275,0l0,-6.25l-66.275,0" style="fill:#066c72;fill-rule:nonzero;"/><path d="M46.839,149.143l66.275,0l0,-6.25l-66.275,0" style="fill:#066c72;fill-rule:nonzero;"/><path d="M46.839,161.371l66.275,0l0,-6.25l-66.275,0" style="fill:#066c72;fill-rule:nonzero;"/></svg>