<?xml version="1.0" encoding="UTF-8"?>
<svg width="26px" height="26px" viewBox="0 0 26 26" version="1.1" xmlns="http://www.w3.org/2000/svg" xmlns:xlink="http://www.w3.org/1999/xlink">
    <!-- Generator: Sketch 50.2 (55047) - http://www.bohemiancoding.com/sketch -->
    <title>contact - icon</title>
    <desc>Created with Sketch.</desc>
    <defs></defs>
    <g id="Page-1" stroke="none" stroke-width="1" fill="none" fill-rule="evenodd">
        <g id="contact---icon" fill="#FFFFFF" fill-rule="nonzero">
            <path d="M15,14.45 C14.65,14.45 14.65,13.45 14.65,13.45 C15.2682491,12.7946426 15.693843,11.9815162 15.88,11.1 C16.47,11.1 16.83,9.68 16.24,9.18 C16.24,8.65 17,5.03 13.24,5.03 C9.48,5.03 10.24,8.65 10.24,9.18 C9.64,9.68 10.01,11.1 10.6,11.1 C10.7816468,11.9831311 11.2078534,12.7974283 11.83,13.45 C11.83,13.45 11.83,14.39 11.48,14.45 C10.37,14.63 6.25,16.45 6.25,18.45 L20.15,18.45 C20.22,16.45 16.09,14.63 15,14.45 Z" id="Shape"></path>
            <path d="M25.45,12.83 L25,12.83 C24.9900032,18.3669158 21.0714404,23.1262764 15.6394328,24.1990444 C10.2074253,25.2718123 4.77376752,22.3594231 2.65964382,17.2420001 C0.545520108,12.1245772 2.33931709,6.22636216 6.94462225,3.15248816 C11.5499274,0.0786141614 17.6850277,0.684578092 21.6,4.6 C23.7840211,6.78114344 25.0077849,9.74337169 25,12.83 L26,12.83 C26,5.8656893 20.3543107,0.22 13.39,0.22 C6.4256893,0.22 0.78,5.8656893 0.78,12.83 C0.78,19.7943107 6.4256893,25.44 13.39,25.44 C20.3520252,25.4344855 25.9944855,19.7920252 26,12.83 L25.45,12.83 Z" id="Shape"></path>
        </g>
    </g>
</svg>