<svg id="Layer_1" data-name="Layer 1" xmlns="http://www.w3.org/2000/svg" xmlns:xlink="http://www.w3.org/1999/xlink" viewBox="0 0 142.5 28.38"><defs><style>.cls-1{fill:url(#linear-gradient);}.cls-2{fill:url(#linear-gradient-2);}.cls-3{fill:#353535;}</style><linearGradient id="linear-gradient" x1="-1413.37" y1="321.94" x2="-1412.37" y2="321.94" gradientTransform="matrix(43.08, 0, 0, -43.08, 60888.3, 13882.93)" gradientUnits="userSpaceOnUse"><stop offset="0" stop-color="#057477"/><stop offset="1" stop-color="#057477"/></linearGradient><linearGradient id="linear-gradient-2" x1="-1413.37" y1="321.94" x2="-1412.37" y2="321.94" gradientTransform="matrix(20.92, 0, 0, -20.92, 29575.1, 6744.79)" xlink:href="#linear-gradient"/></defs><title>symbol</title><path class="cls-1" d="M43,19.47l-.64-5.57-1.84-1.63L30.9,9.85,23.31,6.3l-8.82-.12L5,9.12l-2.65.61L.84,11,0,16.21,2.29,19.1H5.41a3.37,3.37,0,0,0,6.08.35H32.74a3.36,3.36,0,0,0,5.81,0ZM8.54,20.2a2.38,2.38,0,1,1,2.37-2.37A2.38,2.38,0,0,1,8.54,20.2Zm23.73-2.44a3.82,3.82,0,0,0,.07.68H11.86a4.07,4.07,0,0,0,.06-.61,3.38,3.38,0,1,0-6.76,0c0,.09,0,.17,0,.26H2.77L1,15.93l.76-4.38,1-.89,2.45-.57,9.37-2.9,8.44.11,7.48,3.51,9.51,2.38,1.37,1.21.46,4.07H39a2.84,2.84,0,0,0,.08-.72,3.38,3.38,0,0,0-6.76,0Zm3.38,2.37A2.37,2.37,0,1,1,38,17.76,2.37,2.37,0,0,1,35.65,20.13Z"/><path class="cls-2" d="M23,8.48l-8.23-.07L8.09,10.73l6.66.71,14.26.1-1-.48Zm-12.62,2,4.47-1.55,8,.06,4,2-12.1-.08Z"/><path class="cls-3" d="M64,.3A3.58,3.58,0,0,1,65.8,1.68a5,5,0,0,1,.78,1.76,8.32,8.32,0,0,1,.21,1.81,7.29,7.29,0,0,1-.88,3.68,3.94,3.94,0,0,1-3.65,2H57.57V.07h4.69A6,6,0,0,1,64,.3ZM59.77,2V9.07h2.11a2.28,2.28,0,0,0,2.25-1.59,5.67,5.67,0,0,0,.34-2.08A5.06,5.06,0,0,0,64,2.85,2.19,2.19,0,0,0,61.88,2Z"/><path class="cls-3" d="M73.57,3.07A3.25,3.25,0,0,1,75,4.26a3.85,3.85,0,0,1,.64,1.66,10,10,0,0,1,.07,1.6H69.81a1.91,1.91,0,0,0,.84,1.7,2.15,2.15,0,0,0,1.16.3A1.76,1.76,0,0,0,73,9.15a1.65,1.65,0,0,0,.43-.55h2.15a2.57,2.57,0,0,1-.78,1.46,3.92,3.92,0,0,1-3,1.17,4.38,4.38,0,0,1-2.83-1A3.9,3.9,0,0,1,67.69,7,4.35,4.35,0,0,1,68.8,3.81a3.86,3.86,0,0,1,2.88-1.12A4.59,4.59,0,0,1,73.57,3.07ZM70.42,4.89a2.17,2.17,0,0,0-.56,1.24h3.63a1.78,1.78,0,0,0-.56-1.27,1.86,1.86,0,0,0-1.25-.43A1.67,1.67,0,0,0,70.42,4.89Z"/><rect class="cls-3" x="76.78" y="0.07" width="2.11" height="10.89"/><path class="cls-3" d="M83.11,1.94H81V0h2.14ZM81,2.9h2.14V11H81Z"/><polygon class="cls-3" points="90.11 2.9 92.37 2.9 89.46 10.96 87.24 10.96 84.35 2.9 86.72 2.9 88.39 8.84 90.11 2.9"/><path class="cls-3" d="M98.81,3.07a3.31,3.31,0,0,1,1.39,1.19,4,4,0,0,1,.64,1.66,10,10,0,0,1,.07,1.6H95.05a1.91,1.91,0,0,0,.84,1.7,2.15,2.15,0,0,0,1.16.3,1.76,1.76,0,0,0,1.17-.37,1.65,1.65,0,0,0,.43-.55h2.15a2.64,2.64,0,0,1-.78,1.46,3.92,3.92,0,0,1-3,1.17,4.36,4.36,0,0,1-2.83-1A3.9,3.9,0,0,1,92.93,7,4.38,4.38,0,0,1,94,3.81a3.9,3.9,0,0,1,2.88-1.12A4.6,4.6,0,0,1,98.81,3.07ZM95.66,4.89a2.11,2.11,0,0,0-.56,1.24h3.63a1.75,1.75,0,0,0-.57-1.27,1.82,1.82,0,0,0-1.24-.43A1.67,1.67,0,0,0,95.66,4.89Z"/><path class="cls-3" d="M106.45,2.72h.18V4.88l-.35,0H106a1.75,1.75,0,0,0-1.71.82,3.26,3.26,0,0,0-.25,1.44V11H102V2.9h2V4.31a4.4,4.4,0,0,1,.85-1.1,2.34,2.34,0,0,1,1.54-.5Z"/><path class="cls-3" d="M113.11,3.07a3.25,3.25,0,0,1,1.39,1.19,4,4,0,0,1,.65,1.66,11.32,11.32,0,0,1,.07,1.6h-5.87a1.91,1.91,0,0,0,.84,1.7,2.15,2.15,0,0,0,1.16.3,1.76,1.76,0,0,0,1.17-.37A1.67,1.67,0,0,0,113,8.6h2.15a2.66,2.66,0,0,1-.79,1.46,3.92,3.92,0,0,1-3,1.17,4.38,4.38,0,0,1-2.83-1A3.9,3.9,0,0,1,107.23,7a4.35,4.35,0,0,1,1.11-3.21,3.86,3.86,0,0,1,2.88-1.12A4.59,4.59,0,0,1,113.11,3.07ZM110,4.89a2.17,2.17,0,0,0-.56,1.24H113a1.78,1.78,0,0,0-.56-1.27,1.84,1.84,0,0,0-1.25-.43A1.67,1.67,0,0,0,110,4.89Z"/><path class="cls-3" d="M120.55,3a2.53,2.53,0,0,1,.92.89V.08h2.14V11h-2V9.84a2.61,2.61,0,0,1-2.46,1.37,3,3,0,0,1-2.37-1.14,4.35,4.35,0,0,1-1-2.93,5.07,5.07,0,0,1,.95-3.25,3.12,3.12,0,0,1,2.54-1.18A2.64,2.64,0,0,1,120.55,3Zm.52,5.74a2.94,2.94,0,0,0,.46-1.72,2.65,2.65,0,0,0-.74-2.11,1.6,1.6,0,0,0-1.07-.39,1.47,1.47,0,0,0-1.35.7A3.19,3.19,0,0,0,117.94,7a3.25,3.25,0,0,0,.43,1.79,1.52,1.52,0,0,0,1.34.67A1.57,1.57,0,0,0,121.07,8.77Z"/><path class="cls-3" d="M128.9,4.48V3H130V.73h2.09V3h1.3v1.5h-1.3V8.73a1,1,0,0,0,.12.62,1.42,1.42,0,0,0,.77.12h.41V11l-1,0a2.68,2.68,0,0,1-2-.52A1.51,1.51,0,0,1,130,9.44v-5Z"/><path class="cls-3" d="M141.48,10a4.43,4.43,0,0,1-6.19,0,4.66,4.66,0,0,1-1-3,4.69,4.69,0,0,1,1-3,4.41,4.41,0,0,1,6.19,0,4.69,4.69,0,0,1,1,3A4.66,4.66,0,0,1,141.48,10ZM139.8,8.81a3.06,3.06,0,0,0,.49-1.87,3,3,0,0,0-.49-1.86,1.88,1.88,0,0,0-2.84,0,2.94,2.94,0,0,0-.5,1.86,3,3,0,0,0,.5,1.87,1.88,1.88,0,0,0,2.84,0Z"/><polygon class="cls-3" points="63.78 17.21 66.36 17.21 62.72 24.02 62.72 28.11 60.44 28.11 60.44 24.02 56.67 17.21 59.35 17.21 61.61 21.96 63.78 17.21"/><path class="cls-3" d="M73.09,27.12a4.43,4.43,0,0,1-6.19,0,5,5,0,0,1,0-6.05,4.38,4.38,0,0,1,6.19,0,5,5,0,0,1,0,6.05ZM71.4,26a3.06,3.06,0,0,0,.5-1.87,3,3,0,0,0-.5-1.86A1.66,1.66,0,0,0,70,21.57a1.7,1.7,0,0,0-1.43.66,3,3,0,0,0-.5,1.86,3.06,3.06,0,0,0,.5,1.87,1.71,1.71,0,0,0,1.43.65A1.68,1.68,0,0,0,71.4,26Z"/><path class="cls-3" d="M77.71,20.05v4.86a2.7,2.7,0,0,0,.16,1,1.13,1.13,0,0,0,1.13.61,1.46,1.46,0,0,0,1.47-.87,3.09,3.09,0,0,0,.21-1.25V20.05h2.13v8.06h-2V27s-.06.1-.14.22a1.43,1.43,0,0,1-.28.32,2.89,2.89,0,0,1-1,.61,3.15,3.15,0,0,1-1.08.16A2.39,2.39,0,0,1,75.9,27a5,5,0,0,1-.34-2.09V20.05Z"/><path class="cls-3" d="M89.33,19.86l.18,0V22l-.35,0h-.25a1.75,1.75,0,0,0-1.71.82A3.28,3.28,0,0,0,87,24.26v3.85H84.84V20.05h2v1.41a4,4,0,0,1,.85-1.1,2.29,2.29,0,0,1,1.53-.5Z"/><path class="cls-3" d="M101.5,17.45a3.6,3.6,0,0,1,1.86,1.38,4.76,4.76,0,0,1,.77,1.76,8.3,8.3,0,0,1,.21,1.8,7.24,7.24,0,0,1-.87,3.68,3.94,3.94,0,0,1-3.65,2h-4.7V17.22h4.7A5.67,5.67,0,0,1,101.5,17.45Zm-4.17,1.66v7.1h2.1a2.25,2.25,0,0,0,2.25-1.58,5.7,5.7,0,0,0,.35-2.08,5.17,5.17,0,0,0-.52-2.55,2.2,2.2,0,0,0-2.08-.89Z"/><path class="cls-3" d="M112.59,27.12a4.43,4.43,0,0,1-6.19,0,5,5,0,0,1,0-6.05,4.38,4.38,0,0,1,6.19,0,5,5,0,0,1,0,6.05ZM110.91,26a3.06,3.06,0,0,0,.49-1.87,3,3,0,0,0-.49-1.86,1.86,1.86,0,0,0-2.84,0,3,3,0,0,0-.5,1.86,3.06,3.06,0,0,0,.5,1.87,1.88,1.88,0,0,0,2.84,0Z"/><path class="cls-3" d="M121.84,27.12a4.43,4.43,0,0,1-6.19,0,5,5,0,0,1,0-6.05,4.38,4.38,0,0,1,6.19,0,5,5,0,0,1,0,6.05ZM120.15,26a3.06,3.06,0,0,0,.5-1.87,3,3,0,0,0-.5-1.86,1.86,1.86,0,0,0-2.84,0,3,3,0,0,0-.5,1.86,3.06,3.06,0,0,0,.5,1.87,1.88,1.88,0,0,0,2.84,0Z"/><path class="cls-3" d="M128.84,19.86l.18,0V22l-.36,0h-.25a1.76,1.76,0,0,0-1.71.82,3.28,3.28,0,0,0-.24,1.44v3.85h-2.12V20.05h2v1.41a4.4,4.4,0,0,1,.85-1.1,2.32,2.32,0,0,1,1.54-.5Z"/></svg>