<?xml version="1.0" encoding="UTF-8" standalone="no"?><!DOCTYPE svg PUBLIC "-//W3C//DTD SVG 1.1//EN" "http://www.w3.org/Graphics/SVG/1.1/DTD/svg11.dtd"><svg width="100%" height="100%" viewBox="0 0 82 51" version="1.1" xmlns="http://www.w3.org/2000/svg" xmlns:xlink="http://www.w3.org/1999/xlink" xml:space="preserve" xmlns:serif="http://www.serif.com/" style="fill-rule:evenodd;clip-rule:evenodd;stroke-linejoin:round;stroke-miterlimit:1.41421;"><path d="M4.331,46.612l-2.206,2.213c1.425,1.419 3.294,2.119 5.138,2.119c1.843,0 3.725,-0.7 5.143,-2.125l28.263,-28.263l28.269,28.269c1.425,1.419 3.3,2.119 5.137,2.119c1.844,0 3.719,-0.7 5.138,-2.119c1.425,-1.419 2.131,-3.306 2.125,-5.144c0.006,-1.844 -0.707,-3.725 -2.119,-5.137l-30.481,-30.475l-8.069,-8.069l-8.069,8.069l-30.481,30.475c-1.413,1.418 -2.119,3.293 -2.119,5.137c0,1.856 0.713,3.725 2.119,5.138l2.212,-2.207Z" style="fill:#3a3b3a;fill-rule:nonzero;"/></svg>