<svg id="Layer_1" data-name="Layer 1" xmlns="http://www.w3.org/2000/svg" xmlns:xlink="http://www.w3.org/1999/xlink" viewBox="0 0 47.29 50.81"><defs><style>.cls-1{fill:url(#linear-gradient);}.cls-2{fill:url(#linear-gradient-2);}.cls-3{fill:url(#linear-gradient-3);}.cls-4{fill:#231f20;}.cls-5{fill:url(#linear-gradient-4);}.cls-6{fill:url(#linear-gradient-5);}.cls-7{fill:url(#linear-gradient-6);}.cls-8{fill:url(#linear-gradient-7);}.cls-9{fill:url(#linear-gradient-8);}.cls-10{fill:url(#linear-gradient-9);}.cls-11{fill:url(#linear-gradient-10);}</style><linearGradient id="linear-gradient" x1="33.69" y1="18.76" x2="33.69" y2="49.66" gradientUnits="userSpaceOnUse"><stop offset="0.04" stop-color="#9d9fa2"/><stop offset="0.15" stop-color="#b6b8ba"/><stop offset="0.39" stop-color="#ebebec"/><stop offset="0.51" stop-color="#fff"/><stop offset="0.57" stop-color="#fafafa"/><stop offset="0.65" stop-color="#ebecec"/><stop offset="0.73" stop-color="#d3d4d5"/><stop offset="0.82" stop-color="#b2b2b4"/><stop offset="0.91" stop-color="#87888a"/><stop offset="0.96" stop-color="#6d6e71"/></linearGradient><linearGradient id="linear-gradient-2" x1="-668.31" y1="81.91" x2="-667.56" y2="90.46" gradientTransform="translate(704.75 -47.51)" gradientUnits="userSpaceOnUse"><stop offset="0" stop-color="#c7c8ca"/><stop offset="0.21" stop-color="#808285"/><stop offset="0.27" stop-color="#747679"/><stop offset="0.51" stop-color="#494749"/><stop offset="0.7" stop-color="#2d2a2b"/><stop offset="0.81" stop-color="#231f20"/></linearGradient><linearGradient id="linear-gradient-3" x1="33.64" y1="1.15" x2="33.64" y2="31.96" xlink:href="#linear-gradient"/><linearGradient id="linear-gradient-4" x1="37.67" y1="31.94" x2="37.67" y2="2.85" gradientUnits="userSpaceOnUse"><stop offset="0.04" stop-color="#6d6e71"/><stop offset="0.06" stop-color="#818285"/><stop offset="0.09" stop-color="#a3a3a5"/><stop offset="0.13" stop-color="#c0c0c1"/><stop offset="0.17" stop-color="#d7d7d8"/><stop offset="0.21" stop-color="#e9e9ea"/><stop offset="0.27" stop-color="#f6f6f6"/><stop offset="0.34" stop-color="#fdfdfd"/><stop offset="0.51" stop-color="#fff"/><stop offset="0.64" stop-color="#fdfdfd"/><stop offset="0.71" stop-color="#f5f5f5"/><stop offset="0.77" stop-color="#e7e7e7"/><stop offset="0.82" stop-color="#d3d4d4"/><stop offset="0.87" stop-color="#bababc"/><stop offset="0.91" stop-color="#9b9c9e"/><stop offset="0.95" stop-color="#77787a"/><stop offset="0.96" stop-color="#6d6e71"/></linearGradient><linearGradient id="linear-gradient-5" x1="29.66" y1="47.96" x2="29.66" y2="18.76" xlink:href="#linear-gradient-4"/><linearGradient id="linear-gradient-6" x1="9.72" y1="31.76" x2="9.72" y2="2.36" gradientUnits="userSpaceOnUse"><stop offset="0.04" stop-color="#4d4d4d"/><stop offset="0.05" stop-color="#5a5a5a"/><stop offset="0.08" stop-color="gray"/><stop offset="0.11" stop-color="#a3a3a3"/><stop offset="0.14" stop-color="silver"/><stop offset="0.18" stop-color="#d7d7d7"/><stop offset="0.23" stop-color="#e9e9e9"/><stop offset="0.28" stop-color="#f6f6f6"/><stop offset="0.35" stop-color="#fdfdfd"/><stop offset="0.51" stop-color="#fff"/><stop offset="0.63" stop-color="#fdfdfd"/><stop offset="0.7" stop-color="#f5f5f5"/><stop offset="0.76" stop-color="#e7e7e7"/><stop offset="0.8" stop-color="#d3d3d3"/><stop offset="0.85" stop-color="#bababa"/><stop offset="0.89" stop-color="#9b9b9b"/><stop offset="0.93" stop-color="#777"/><stop offset="0.96" stop-color="#4d4d4d"/></linearGradient><linearGradient id="linear-gradient-7" x1="1404.52" y1="17.7" x2="1405.27" y2="26.27" gradientTransform="matrix(-1, 0, 0, 1, 1435.25, 0)" xlink:href="#linear-gradient-2"/><linearGradient id="linear-gradient-8" x1="13.61" y1="1.15" x2="13.61" y2="32.98" xlink:href="#linear-gradient"/><linearGradient id="linear-gradient-9" x1="16.41" y1="17.71" x2="17.16" y2="26.27" gradientTransform="matrix(1, 0, 0, 1, 0, 0)" xlink:href="#linear-gradient-2"/><linearGradient id="linear-gradient-10" x1="-1.43" y1="5.1" x2="11.5" y2="27.51" gradientUnits="userSpaceOnUse"><stop offset="0.02" stop-color="#f3f4f4"/><stop offset="0.37" stop-color="#eeefef"/><stop offset="0.73" stop-color="#e2e3e4"/><stop offset="0.96" stop-color="#bcbec0"/></linearGradient></defs><title>DS</title><path class="cls-1" d="M43.17,32.94c-.18-.17-1-.89-1-.89L25.08,18.76c3,2.91,7.27,7.64,8.65,11.8a10.39,10.39,0,0,1,.55,3.19,7.68,7.68,0,0,1-.56,2.76,20,20,0,0,1-4.31,6.13c-.76.81-4,4-5.08,5.13h0a1.75,1.75,0,0,0-.46.91.17.17,0,0,1,0,.07.2.2,0,0,1,0,.07s0,.08,0,.12a.15.15,0,0,0,0,.07.53.53,0,0,0,0,.13v.07a1.48,1.48,0,0,0,0,.21v.24L43,34.75a1.38,1.38,0,0,0,.62-1A1.24,1.24,0,0,0,43.17,32.94Z"/><path class="cls-2" d="M30.85,43.5c-.13-.13,3.65-2.79,5.76-7.36.6-1.29.87-1.81,2.1-1.93s2.85-.23,3.6-.24c.3,0,.45,0,.49.19s-.07.28-.3.44c-2,1.41-4.92,3.77-8.94,7A31.17,31.17,0,0,1,30.85,43.5Z"/><path class="cls-3" d="M33.6,20.25a10.39,10.39,0,0,1-.55-3.19,7.92,7.92,0,0,1,.55-2.76,20,20,0,0,1,4.33-6.14c.7-.74,3.6-3.64,5.07-5.11h0a1.71,1.71,0,0,0,.46-.94,4,4,0,0,0,.06-.72V1.15L24.38,16.06a1.67,1.67,0,0,0-.57.71.88.88,0,0,0,0,.58,1.52,1.52,0,0,0,.35.52c.14.13,1,.83,1,.83L42.15,32C39.18,29,35,24.37,33.6,20.25Z"/><path class="cls-4" d="M32.68,20a8.71,8.71,0,0,1-.51-2.94,7.09,7.09,0,0,1,.61-2.68c1.57-3.81,8.89-10.33,10.39-11.53,0,0,0,0,0,0-1.31.94-6.7,5.61-8.12,7-2.29,2.28-4,4.78-4,7.23,0,2.7,1.87,5.44,4,7.94a47.16,47.16,0,0,0,3.9,4.15c1.35,1.24,2.27,2.06,3.23,2.81C41.05,31,34.44,25.05,32.68,20Z"/><path class="cls-5" d="M33.6,20.25a10.39,10.39,0,0,1-.55-3.19,7.92,7.92,0,0,1,.55-2.76,20,20,0,0,1,4.33-6.14c.7-.74,3.6-3.64,5.07-5.11h0a1.63,1.63,0,0,0,.17-.2c-1.5,1.2-8.82,7.72-10.39,11.53a7.09,7.09,0,0,0-.61,2.68A8.71,8.71,0,0,0,32.68,20c1.75,5,8.29,10.91,9.45,11.94C39.16,29,35,24.36,33.6,20.25Z"/><path class="cls-6" d="M34.65,30.81c-1.75-5-8.46-11.06-9.56-12h0c3,2.91,7.26,7.64,8.64,11.8a10.39,10.39,0,0,1,.55,3.19,7.68,7.68,0,0,1-.56,2.76,20,20,0,0,1-4.31,6.13c-.76.81-4,4-5.08,5.13h0a1,1,0,0,0-.16.19c1.51-1.21,8.81-7.72,10.38-11.52a7.18,7.18,0,0,0,.61-2.69A8.71,8.71,0,0,0,34.65,30.81Z"/><path class="cls-4" d="M32.32,25.82a48.71,48.71,0,0,0-3.91-4.15c-1.35-1.24-2.36-2.15-3.32-2.91,1.1,1,7.81,7,9.56,12a8.71,8.71,0,0,1,.51,2.94,7.18,7.18,0,0,1-.61,2.69C33,40.24,25.68,46.75,24.17,48l0,0c1.32-1,6.7-5.6,8.12-7,2.29-2.27,4-4.77,4-7.23C36.31,31.06,34.44,28.31,32.32,25.82Z"/><path class="cls-4" d="M16.57,17.06c0,2.66-1.84,5.37-4.23,7.83A51,51,0,0,1,7.79,29C6.27,30.21,5.11,31,4,31.76c1.24-1,8.79-6.82,10.77-11.79a7.85,7.85,0,0,0,.62-2.91,7.8,7.8,0,0,0-.62-2.9c-2-5-9.53-10.82-10.77-11.8,1.08.74,2.24,1.55,3.76,2.77a51,51,0,0,1,4.55,4.1C14.73,11.69,16.57,14.4,16.57,17.06Z"/><path class="cls-7" d="M4,31.76c1.24-1,8.79-6.82,10.77-11.79a7.85,7.85,0,0,0,.62-2.91,7.8,7.8,0,0,0-.62-2.9c-2-5-9.53-10.82-10.77-11.8,1.14,1,8.12,6.82,10,11.8a8.57,8.57,0,0,1,.56,2.9A8.63,8.63,0,0,1,14,20C12.15,24.94,5.17,30.78,4,31.76Z"/><path class="cls-4" d="M43.29,32.81c-1.41-1.33-7.8-7.41-9.52-12.61a9.92,9.92,0,0,1-.54-3.14,7.47,7.47,0,0,1,.54-2.7,20.5,20.5,0,0,1,4.28-6.08c.76-.79,4-4,5.09-5.12a1.83,1.83,0,0,0,.47-.9,4.18,4.18,0,0,0,.09-.86V.78L24.27,15.92a1.83,1.83,0,0,0-.65.85,1.76,1.76,0,0,0-.64-.85L3.54.78V33.34L23,18.2a1.76,1.76,0,0,0,.64-.85A1.63,1.63,0,0,0,24,18c1.41,1.33,7.8,7.41,9.52,12.61a9.92,9.92,0,0,1,.54,3.14,7.47,7.47,0,0,1-.54,2.7,20.33,20.33,0,0,1-4.28,6.07c-.75.8-4,4.06-5.08,5.14a1.8,1.8,0,0,0-.48.9,4.37,4.37,0,0,0-.09.86V50L43.05,34.89a1.55,1.55,0,0,0,.7-1.14A1.44,1.44,0,0,0,43.29,32.81ZM22.87,18.06,3.72,33V1.15L22.87,16.07a1.4,1.4,0,0,1,.62,1A1.36,1.36,0,0,1,22.87,18.06Zm.94-.71a.88.88,0,0,1,0-.58,1.67,1.67,0,0,1,.57-.71L43.53,1.15v.24a4,4,0,0,1-.06.72,1.71,1.71,0,0,1-.46.94c-1.47,1.47-4.37,4.37-5.07,5.11A20,20,0,0,0,33.6,14.3a7.92,7.92,0,0,0-.55,2.76,10.39,10.39,0,0,0,.55,3.19C35,24.37,39.18,29,42.15,32l-17-13.26s-.83-.7-1-.83A1.52,1.52,0,0,1,23.81,17.35ZM43,34.75,23.81,49.66v-.24a4,4,0,0,1,.06-.72,1.71,1.71,0,0,1,.46-.93c1.07-1.08,4.32-4.32,5.08-5.13a20,20,0,0,0,4.31-6.13,7.68,7.68,0,0,0,.56-2.76,10.39,10.39,0,0,0-.55-3.19c-1.38-4.16-5.68-8.89-8.65-11.8L42.15,32.05s.84.72,1,.89a1.24,1.24,0,0,1,.4.81A1.38,1.38,0,0,1,43,34.75Z"/><path class="cls-8" d="M36.15,26.81c.05,0-1.93-2-2.18-2.21a25.55,25.55,0,0,1-4-5.22c-.66-1.26-.87-1.81-2.1-1.93s-2.14-.16-2.89-.17c-.31,0-.45,0-.5.19s.08.28.31.45c2,1.4,4.92,3.76,8.94,7C34,25.09,36.08,26.88,36.15,26.81Z"/><path class="cls-9" d="M3.72,32,4,31.76H4C5.12,31,6.27,30.21,7.79,29a51,51,0,0,0,4.55-4.1c2.39-2.46,4.23-5.17,4.23-7.83s-1.84-5.37-4.23-7.83a51,51,0,0,0-4.55-4.1C6.27,3.91,5.11,3.1,4,2.36l-.31-.23v-1L22.87,16.07a1.4,1.4,0,0,1,.62,1,1.36,1.36,0,0,1-.62,1L3.72,33Z"/><path class="cls-10" d="M10.88,26.81s.49-.48,1.63-1.51c.27-.23.52-.47.76-.7a25.37,25.37,0,0,0,4-5.22c.66-1.26.87-1.81,2.1-1.93s2.14-.16,2.89-.17c.31,0,.45,0,.49.19s-.07.28-.3.45c-2,1.4-4.87,3.82-8.94,7l-.78.6A12.49,12.49,0,0,1,10.88,26.81Z"/><path class="cls-11" d="M14,20c-1.83,5-8.81,10.82-9.95,11.79L3.72,32V2.13L4,2.36c1.14,1,8.12,6.82,10,11.8a8.33,8.33,0,0,1,.56,2.9A8.39,8.39,0,0,1,14,20Z"/></svg>