<?xml version="1.0" encoding="UTF-8" standalone="no"?><!DOCTYPE svg PUBLIC "-//W3C//DTD SVG 1.1//EN" "http://www.w3.org/Graphics/SVG/1.1/DTD/svg11.dtd"><svg width="100%" height="100%" viewBox="0 0 204 228" version="1.1" xmlns="http://www.w3.org/2000/svg" xmlns:xlink="http://www.w3.org/1999/xlink" xml:space="preserve" xmlns:serif="http://www.serif.com/" style="fill-rule:evenodd;clip-rule:evenodd;stroke-linejoin:round;stroke-miterlimit:1.41421;"><path d="M132.394,49.675c-0.007,2.031 -1.719,3.744 -3.75,3.75l-99.432,0c-2.025,-0.006 -3.737,-1.713 -3.743,-3.75l0,-36.069c0.006,-2.031 1.718,-3.744 3.743,-3.75l99.432,0c2.031,0.006 3.743,1.719 3.75,3.75l0,36.069Zm-3.75,-49.675l-99.432,0c-7.512,0.019 -13.581,6.094 -13.6,13.606l0,36.069c0.019,7.519 6.088,13.587 13.6,13.6l99.432,0c7.512,-0.013 13.581,-6.081 13.606,-13.6l0,-36.069c-0.025,-7.519 -6.094,-13.587 -13.606,-13.606" style="fill:#066c72;fill-rule:nonzero;"/><path d="M56.753,154.356l36.613,-49.462l-13.375,37.319l21.118,0l-36.787,49.812l13.731,-37.844l-21.3,0.175Z" style="fill:#066c72;fill-rule:nonzero;"/><path d="M139.694,218.022l-121.556,0l0,-126.431c0.012,-6.55 5.306,-11.844 11.856,-11.857l97.85,0c6.481,0.013 11.837,5.363 11.85,11.857l0,126.431Zm58.462,-165.256l0,-11.094l-7.725,0l0,11.094l-4.918,0l0,-11.094l-7.732,0l0,11.094l-5.237,0l0,23.712c0,1.044 0.112,2.063 0.312,3.044c1.082,5.294 4.869,9.575 9.857,11.362l0,100.125c-0.007,4.15 -3.519,7.607 -7.738,7.613c-4.225,-0.006 -7.737,-3.463 -7.744,-7.613l0,-34.343l-0.006,0l0,-9.044c-0.025,-9.606 -7.919,-17.381 -17.675,-17.456l0,-38.575c-0.019,-11.982 -9.731,-21.694 -21.706,-21.713l-97.85,0c-11.994,0.006 -21.706,9.713 -21.713,21.713l0,126.431l-8.281,0l0,9.856l8.281,0l0,0.006l141.269,0l0,-0.006l8.038,0l0,-9.856l-8.038,0l0,-77.988c4.181,0.063 7.638,3.469 7.644,7.588l0,9.794l0.012,0l0,33.593c0.013,9.638 7.957,17.444 17.769,17.469c9.8,-0.025 17.744,-7.831 17.763,-17.469l0,-100.068c5.125,-1.732 9.062,-6.032 10.156,-11.419c0.206,-0.981 0.312,-2 0.312,-3.044l0,-15.412l0,-0.525l0,-7.775l-5.05,0Z" style="fill:#066c72;fill-rule:nonzero;"/></svg>