<svg xmlns="http://www.w3.org/2000/svg" viewBox="0 0 21.67 21.71"><defs><style>.a{fill:#595959;}</style></defs><title>1</title><path class="a" d="M10.84,0A10.81,10.81,0,0,0,1.67,16.57L0,21.71l5.21-1.65a10.69,10.69,0,0,0,5.63,1.6A10.83,10.83,0,1,0,10.84,0Zm7.07,17.9A10,10,0,0,1,5.35,19.17l0,0h0l-4,1.27,1-3h0l.32-1A10,10,0,1,1,17.91,17.9Z"/><path class="a" d="M11.92,12.63H10c0-.28,0-.45,0-.51a3.47,3.47,0,0,1,.31-1.58,4.7,4.7,0,0,1,1.23-1.39,8.8,8.8,0,0,0,1.11-1,1.42,1.42,0,0,0-.22-1.91,1.9,1.9,0,0,0-1.33-.45,1.94,1.94,0,0,0-1.34.47A2.54,2.54,0,0,0,9,7.68L7.07,7.43A3.34,3.34,0,0,1,8.22,5.09a4,4,0,0,1,2.79-1,4.16,4.16,0,0,1,2.9,1A3,3,0,0,1,15,7.37a2.5,2.5,0,0,1-.4,1.36,8.29,8.29,0,0,1-1.69,1.74,3.43,3.43,0,0,0-.83.92A3.1,3.1,0,0,0,11.92,12.63Z"/><path class="a" d="M12.42,15.5a1.42,1.42,0,0,1-.42,1A1.33,1.33,0,0,1,11,17a1.31,1.31,0,0,1-.56-.12,1.49,1.49,0,0,1-.46-.31,1.33,1.33,0,0,1-.31-.46,1.31,1.31,0,0,1-.12-.56,1.37,1.37,0,0,1,.43-1,1.45,1.45,0,0,1,1-.41,1.4,1.4,0,0,1,1,.42A1.39,1.39,0,0,1,12.42,15.5Z"/></svg>