<?xml version="1.0" encoding="UTF-8"?>
<svg width="25px" height="23px" viewBox="0 0 25 23" version="1.1" xmlns="http://www.w3.org/2000/svg" xmlns:xlink="http://www.w3.org/1999/xlink">
    <!-- Generator: Sketch 50.2 (55047) - http://www.bohemiancoding.com/sketch -->
    <title>favorite-icon</title>
    <desc>Created with Sketch.</desc>
    <defs></defs>
    <g id="Page-1" stroke="none" stroke-width="1" fill="none" fill-rule="evenodd">
        <path d="M24.34,6.6 C24.3419838,6.23216007 24.3185949,5.86462129 24.27,5.5 C23.9081391,3.29541483 22.4665878,1.41839488 20.43,0.5 C19.6653036,0.171848981 18.8421302,0.00177183518 18.01,0 C16.9649593,0.00115024948 15.9356996,0.255034302 15.01,0.74 L14.92,0.8 C14.4064933,1.07228553 13.9293924,1.40827208 13.5,1.8 C13.251625,2.04314761 13.0210319,2.30381805 12.81,2.58 L12.48,3.01 L12.38,3.13 L12.27,3.25 L12.17,3.37 L12.12,3.32 L12.01,3.18 L11.87,3.02 C11.76,2.87 11.66,2.73 11.54,2.59 C11.3254983,2.31369619 11.0915721,2.05303551 10.84,1.81 C10.4159464,1.41620272 9.94186896,1.07997756 9.43,0.81 L9.34,0.75 C8.41430041,0.265034302 7.38504074,0.0111502495 6.34,0.01 C5.50401207,0.00555668012 4.67632128,0.175863428 3.91,0.51 C1.87612486,1.42955272 0.438131978,3.30682802 0.08,5.51 C0.0280600784,5.8743897 0.00132990665,6.24192957 0,6.61 C0.00392420823,7.43627162 0.125133583,8.25780182 0.36,9.05 C0.582999368,9.8948685 0.912295598,10.7080286 1.34,11.47 C2.68559315,13.3917814 4.28701914,15.1210523 6.1,16.61 L10.1,20.4 L11.1,21.33 L11.58,21.77 L11.81,21.98 L12.09,22.22 L14.09,20.4 L18.09,16.61 C19.9029809,15.1210523 21.5044069,13.3917814 22.85,11.47 C23.3097133,10.7094008 23.6693499,9.89265583 23.92,9.04 C24.1753406,8.25078291 24.3167658,7.42916985 24.34,6.6 Z M23.19,8.8 C22.9546633,9.58666793 22.6185402,10.3395836 22.19,11.04 C20.8801132,12.9054375 19.3263026,14.5870507 17.57,16.04 L13.57,19.83 L12.14,21.14 L10.72,19.83 L6.72,16.04 C4.96118569,14.589706 3.40704166,12.9077319 2.1,11.04 C1.67331096,10.3386108 1.33729686,9.58593925 1.1,8.8 C0.885720747,8.08614004 0.774596596,7.34531236 0.77,6.6 C0.773016888,6.26555494 0.796393468,5.93160379 0.84,5.6 C1.15564553,3.69888402 2.39648729,2.07941683 4.15,1.28 C4.80862756,0.990021424 5.52036273,0.84018244 6.24,0.84 C7.1816399,0.840503204 8.10755504,1.08144766 8.93,1.54 C9.38123127,1.7919819 9.7980147,2.10120831 10.17,2.46 C10.3995436,2.67857628 10.6102872,2.91608088 10.8,3.17 C10.91,3.3 11.01,3.44 11.12,3.59 L11.27,3.76 L11.33,3.83 L11.46,4 L11.71,4.32 L12,4.7 L12.62,4.07 L12.78,3.86 L12.88,3.75 L12.99,3.62 L12.81,3.45 L13,3.6 L13.32,3.18 C13.509374,2.9287724 13.7165755,2.69149336 13.94,2.47 C14.3141786,2.11380603 14.730619,1.80483418 15.18,1.55 C16.002445,1.09144766 16.9283601,0.850503204 17.87,0.85 C18.5864206,0.850107215 19.2949072,0.999979368 19.95,1.29 L20.12,0.91 L19.95,1.29 C21.7348431,2.09038585 22.9948923,3.73785305 23.3,5.67 C23.348689,6.0010726 23.37209,6.33537287 23.37,6.67 C23.3948094,7.38673333 23.3207804,8.10346843 23.15,8.8 L23.19,8.8 Z" id="favorite-icon" fill="#FFFFFF" fill-rule="nonzero"></path>
    </g>
</svg>