<?xml version="1.0" encoding="UTF-8" standalone="no"?><!DOCTYPE svg PUBLIC "-//W3C//DTD SVG 1.1//EN" "http://www.w3.org/Graphics/SVG/1.1/DTD/svg11.dtd"><svg width="100%" height="100%" viewBox="0 0 336 117" version="1.1" xmlns="http://www.w3.org/2000/svg" xmlns:xlink="http://www.w3.org/1999/xlink" xml:space="preserve" xmlns:serif="http://www.serif.com/" style="fill-rule:evenodd;clip-rule:evenodd;stroke-linejoin:round;stroke-miterlimit:1.41421;"><path d="M88.161,103.288l170.018,0l0,-7.85l-170.018,0" style="fill:#009b97;fill-rule:nonzero;"/><path d="M89.253,90.666l-3.925,0c-0.019,10.2 -8.275,18.456 -18.475,18.475c-10.2,-0.019 -18.45,-8.275 -18.469,-18.475c0.019,-10.2 8.269,-18.457 18.469,-18.475c10.2,0.018 18.456,8.275 18.475,18.475l7.85,0c0,-14.544 -11.781,-26.325 -26.325,-26.325c-14.537,0.006 -26.319,11.781 -26.325,26.325c0.006,14.537 11.788,26.318 26.325,26.325c14.544,-0.007 26.325,-11.788 26.325,-26.325l-3.925,0Z" style="fill:#009b97;fill-rule:nonzero;"/><path d="M300.362,90.159l-3.925,0c-0.019,10.2 -8.275,18.457 -18.469,18.475c-10.206,-0.018 -18.456,-8.275 -18.475,-18.475c0.019,-10.2 8.269,-18.456 18.475,-18.475c10.194,0.019 18.45,8.275 18.469,18.475l7.85,0c0,-14.543 -11.781,-26.318 -26.319,-26.325c-14.544,0.007 -26.325,11.782 -26.331,26.325c0.006,14.544 11.787,26.319 26.331,26.325c14.538,-0.006 26.319,-11.781 26.319,-26.325l-3.925,0Z" style="fill:#009b97;fill-rule:nonzero;"/><path d="M43.294,92.75l-23.175,0l0,3.925l3.05,-2.469l-14.825,-18.312l5.869,-34.088l8.143,-6.962l19.032,-4.406l72.943,-22.569l65.713,0.875l58.262,27.294l74,18.55l10.675,9.387l3.613,31.669l-26.356,0.119l0.037,7.856l35.113,-0.163l-4.95,-43.381l-14.375,-12.644l-75.113,-18.825l-59.112,-27.693l-68.644,-0.913l-73.857,22.85l-20.625,4.775l-11.756,10.05l-6.956,40.394l18.244,22.537l25.05,0l0,-7.856Z" style="fill:#009b97;fill-rule:nonzero;"/><path d="M217.943,39.714l0.894,-1.75l-39.388,-20.094l-64.081,-0.488l-52.006,18.057l51.869,5.518l110.993,0.782l-7.387,-3.775l-0.894,1.75l0.013,-1.963l-102.5,-0.719l-34.225,-3.643l34.787,-12.075l62.475,0.475l38.556,19.675l0.894,-1.75l0.013,-1.963l-0.013,1.963Z" style="fill:#009b97;fill-rule:nonzero;"/></svg>