<?xml version="1.0" encoding="UTF-8" standalone="no"?><!DOCTYPE svg PUBLIC "-//W3C//DTD SVG 1.1//EN" "http://www.w3.org/Graphics/SVG/1.1/DTD/svg11.dtd"><svg width="100%" height="100%" viewBox="0 0 320 320" version="1.1" xmlns="http://www.w3.org/2000/svg" xmlns:xlink="http://www.w3.org/1999/xlink" xml:space="preserve" xmlns:serif="http://www.serif.com/" style="fill-rule:evenodd;clip-rule:evenodd;stroke-linejoin:round;stroke-miterlimit:1.41421;"><path d="M319.075,159.538c0,88.112 -71.431,159.537 -159.538,159.537c-88.112,0 -159.537,-71.425 -159.537,-159.537c0,-88.113 71.425,-159.538 159.538,-159.538c88.106,0 159.537,71.425 159.537,159.538" style="fill:#066c72;fill-rule:nonzero;"/><path d="M194.631,199.076l0,16.125l-69.825,0l-3.175,-10.512c4.325,-4.125 7.468,-8.369 9.437,-12.744c1.963,-4.362 2.95,-9.806 2.95,-16.337c0,-0.669 -0.1,-1.775 -0.294,-3.307l-15.831,0l0,-13.825l11.806,0c-1.825,-6.05 -2.737,-11.712 -2.737,-16.987c0,-10.269 3.119,-18.213 9.356,-23.831c6.244,-5.613 14.619,-8.425 25.125,-8.425c10.513,0 18.525,2.981 24.044,8.931c5.519,5.95 8.325,13.531 8.425,22.744l-18.575,0c0,-9.982 -4.75,-14.969 -14.256,-14.969c-4.7,0 -8.375,1.344 -11.007,4.025c-2.643,2.694 -3.962,6.556 -3.962,11.594c0,5.037 1.006,10.681 3.019,16.918l27.356,0l0,13.825l-23.463,0c0.194,1.532 0.282,2.688 0.282,3.457c0,9.206 -3.213,16.981 -9.644,23.318l50.969,0Z" style="fill:#fff;fill-rule:nonzero;"/><path d="M94.206,62.745l98.688,0l0,34.2l33.5,0l0,149.219l-132.188,0l0,-183.419Zm107.732,4.581l20.831,20.575l-20.831,0l0,-20.575Zm-0.919,-13.625l-115.857,0l0,201.507l150.276,0l0,-4.519l0,-162.994l-34.419,-33.994Z" style="fill:#fff;fill-rule:nonzero;"/></svg>