<?xml version="1.0" encoding="UTF-8" standalone="no"?><!DOCTYPE svg PUBLIC "-//W3C//DTD SVG 1.1//EN" "http://www.w3.org/Graphics/SVG/1.1/DTD/svg11.dtd"><svg width="100%" height="100%" viewBox="0 0 313 313" version="1.1" xmlns="http://www.w3.org/2000/svg" xmlns:xlink="http://www.w3.org/1999/xlink" xml:space="preserve" xmlns:serif="http://www.serif.com/" style="fill-rule:evenodd;clip-rule:evenodd;stroke-linejoin:round;stroke-miterlimit:1.41421;"><path d="M312.15,156.075c0,86.2 -69.875,156.081 -156.075,156.081c-86.2,0 -156.075,-69.881 -156.075,-156.081c0,-86.194 69.875,-156.075 156.075,-156.075c86.2,0 156.075,69.881 156.075,156.075" style="fill:#066c72;fill-rule:nonzero;"/><path d="M267.838,157.388l-4.425,0c0,29.15 -11.8,55.506 -30.9,74.612c-19.112,19.1 -45.462,30.906 -74.619,30.906c-29.15,0 -55.5,-11.806 -74.606,-30.906c-19.1,-19.106 -30.906,-45.462 -30.912,-74.612c0.006,-29.15 11.812,-55.5 30.912,-74.613c19.106,-19.1 45.456,-30.9 74.606,-30.9c29.157,0 55.507,11.8 74.619,30.9c19.1,19.113 30.9,45.463 30.9,74.613l8.85,0c0,-63.163 -51.2,-114.363 -114.369,-114.363c-63.162,0 -114.362,51.2 -114.362,114.363c0,63.162 51.2,114.362 114.362,114.368c63.169,-0.006 114.369,-51.206 114.369,-114.368l-4.425,0Z" style="fill:#fff;fill-rule:nonzero;"/><path d="M201.89,193.013l0,18.494l-80.062,0l-3.638,-12.056c4.956,-4.732 8.563,-9.6 10.819,-14.613c2.25,-5 3.387,-11.244 3.387,-18.737c0,-0.769 -0.118,-2.032 -0.337,-3.794l-18.156,0l0,-15.844l13.537,0c-2.087,-6.944 -3.137,-13.431 -3.137,-19.481c0,-11.775 3.575,-20.888 10.731,-27.325c7.156,-6.438 16.756,-9.656 28.806,-9.656c12.056,0 21.244,3.412 27.569,10.231c6.325,6.825 9.55,15.525 9.656,26.087l-21.294,0c0,-11.45 -5.443,-17.168 -16.343,-17.168c-5.394,0 -9.6,1.543 -12.632,4.618c-3.025,3.082 -4.537,7.513 -4.537,13.294c0,5.775 1.156,12.244 3.462,19.4l31.369,0l0,15.844l-26.906,0c0.219,1.762 0.331,3.081 0.331,3.969c0,10.562 -3.687,19.475 -11.062,26.737l58.437,0Z" style="fill:#fff;fill-rule:nonzero;"/></svg>