<?xml version="1.0" encoding="UTF-8" standalone="no"?><!DOCTYPE svg PUBLIC "-//W3C//DTD SVG 1.1//EN" "http://www.w3.org/Graphics/SVG/1.1/DTD/svg11.dtd"><svg width="100%" height="100%" viewBox="0 0 313 313" version="1.1" xmlns="http://www.w3.org/2000/svg" xmlns:xlink="http://www.w3.org/1999/xlink" xml:space="preserve" xmlns:serif="http://www.serif.com/" style="fill-rule:evenodd;clip-rule:evenodd;stroke-linejoin:round;stroke-miterlimit:1.41421;"><path d="M312.15,156.075c0,86.2 -69.875,156.081 -156.075,156.081c-86.2,0 -156.075,-69.881 -156.075,-156.081c0,-86.2 69.875,-156.075 156.075,-156.075c86.2,0 156.075,69.875 156.075,156.075" style="fill:#066c72;fill-rule:nonzero;"/><path d="M91.935,64.827l96.55,0l0,33.457l32.769,0l0,145.981l-129.319,0l0,-179.438Zm105.394,4.475l20.381,20.132l-20.381,0l0,-20.132Zm-0.894,-13.325l-113.344,0l0,197.138l147.013,0l0,-4.425l0,-159.456l-33.669,-33.257Z" style="fill:#fff;fill-rule:nonzero;"/><rect x="110.014" y="118.041" width="93.169" height="8.85" style="fill:#fff;"/><rect x="110.014" y="197.872" width="93.169" height="8.85" style="fill:#fff;"/><rect x="110.014" y="144.654" width="93.169" height="8.85" style="fill:#fff;"/><rect x="110.014" y="171.266" width="93.169" height="8.844" style="fill:#fff;"/></svg>