<?xml version="1.0" encoding="UTF-8" standalone="no"?><!DOCTYPE svg PUBLIC "-//W3C//DTD SVG 1.1//EN" "http://www.w3.org/Graphics/SVG/1.1/DTD/svg11.dtd"><svg width="100%" height="100%" viewBox="0 0 320 320" version="1.1" xmlns="http://www.w3.org/2000/svg" xmlns:xlink="http://www.w3.org/1999/xlink" xml:space="preserve" xmlns:serif="http://www.serif.com/" style="fill-rule:evenodd;clip-rule:evenodd;stroke-linejoin:round;stroke-miterlimit:1.41421;"><path d="M319.075,159.538c0,88.112 -71.425,159.537 -159.538,159.537c-88.112,0 -159.537,-71.425 -159.537,-159.537c0,-88.113 71.425,-159.538 159.538,-159.538c88.112,0 159.537,71.425 159.537,159.538" style="fill:#066c72;fill-rule:nonzero;"/><path d="M145.488,172.303c-23.531,0 -42.606,-19.075 -42.606,-42.606c0,-23.538 19.075,-42.613 42.606,-42.613c23.538,0 42.613,19.075 42.613,42.613c0,23.531 -19.075,42.606 -42.613,42.606m102.925,41.488l-50.875,-50.875c6.138,-9.607 9.744,-20.982 9.744,-33.219c0,-34.131 -27.663,-61.794 -61.794,-61.794c-34.131,0 -61.787,27.663 -61.787,61.794c0,34.125 27.662,61.787 61.787,61.787c13.95,0 26.775,-4.675 37.113,-12.468l50.293,50.293c3.532,3.532 9.263,3.532 12.788,0l2.731,-2.731c3.531,-3.531 3.531,-9.256 0,-12.787" style="fill:#fff;fill-rule:nonzero;"/></svg>