<?xml version="1.0" encoding="UTF-8" standalone="no"?><!DOCTYPE svg PUBLIC "-//W3C//DTD SVG 1.1//EN" "http://www.w3.org/Graphics/SVG/1.1/DTD/svg11.dtd"><svg width="100%" height="100%" viewBox="0 0 313 313" version="1.1" xmlns="http://www.w3.org/2000/svg" xmlns:xlink="http://www.w3.org/1999/xlink" xml:space="preserve" xmlns:serif="http://www.serif.com/" style="fill-rule:evenodd;clip-rule:evenodd;stroke-linejoin:round;stroke-miterlimit:1.41421;"><path d="M312.15,156.075c0,86.2 -69.881,156.075 -156.075,156.075c-86.2,0 -156.075,-69.875 -156.075,-156.075c0,-86.2 69.875,-156.075 156.075,-156.075c86.194,0 156.075,69.875 156.075,156.075" style="fill:#066c72;fill-rule:nonzero;"/><path d="M228.111,223.623c-0.775,-3.787 -2.594,-6.825 -4.125,-9.5c-2.838,-4.887 -6.244,-10.219 -10.6,-14.506c-4.325,-4.263 -9.869,-7.613 -16.569,-7.613l-0.475,0.007c-6.288,0.187 -11.356,3.143 -15.95,5.618c-4.6,2.557 -8.694,4.607 -12.556,4.569l-0.482,-0.006c-5.05,-0.138 -11.425,-3.938 -17.112,-9.313c-5.7,-5.325 -10.756,-11.993 -13.863,-16.968c-0.712,-1.144 -18,-28.782 -18,-28.782l-0.012,0c-1.069,-1.906 -2.388,-3.787 -3.494,-5.593c-1.156,-1.838 -2,-3.613 -2.187,-4.682l-0.132,-1.493c-0.025,-2.625 1.313,-5.775 3.475,-8.625c2.132,-2.85 5.019,-5.344 7.388,-6.763c4.031,-2.45 8.062,-4.875 11.106,-8.562c2.394,-2.888 3.981,-6.713 3.95,-11.2c0,-1.175 -0.094,-2.388 -0.3,-3.65c-1.175,-7.319 -4.925,-13.257 -7.6,-18.769c-2.512,-5.063 -5.15,-9.144 -8.469,-12.119c-3.281,-2.987 -7.418,-4.712 -11.937,-4.681c-4.644,0.012 -9.531,1.619 -15.075,4.544c-4.956,2.65 -9.425,7.356 -13.2,12.556c-3.738,5.219 -6.7,10.881 -8.094,15.812c-1.306,4.657 -1.85,9.55 -1.85,14.544c0.031,17.344 6.494,35.925 12.488,49.788c10.625,24.5 25.95,47.112 46.437,65.131c17.825,15.662 40.588,27.062 64.819,27.256l0.519,0c7.243,-0.006 15.05,-1.094 21.706,-5.4c5.994,-3.944 10.469,-10.644 10.531,-18.175c0,-1.131 -0.112,-2.281 -0.337,-3.425" style="fill:#fff;fill-rule:nonzero;"/></svg>