<?xml version="1.0" encoding="UTF-8" standalone="no"?><!DOCTYPE svg PUBLIC "-//W3C//DTD SVG 1.1//EN" "http://www.w3.org/Graphics/SVG/1.1/DTD/svg11.dtd"><svg width="100%" height="100%" viewBox="0 0 320 320" version="1.1" xmlns="http://www.w3.org/2000/svg" xmlns:xlink="http://www.w3.org/1999/xlink" xml:space="preserve" xmlns:serif="http://www.serif.com/" style="fill-rule:evenodd;clip-rule:evenodd;stroke-linejoin:round;stroke-miterlimit:1.41421;"><path d="M319.075,159.537c0,88.113 -71.431,159.532 -159.538,159.532c-88.112,0 -159.537,-71.419 -159.537,-159.532c0,-88.112 71.425,-159.537 159.538,-159.537c88.106,0 159.537,71.425 159.537,159.537" style="fill:#066c72;fill-rule:nonzero;"/><path d="M268.159,182.957l-3.668,0c-0.019,9.537 -7.738,17.256 -17.269,17.275c-9.531,-0.019 -17.25,-7.744 -17.269,-17.275c0.019,-9.531 7.738,-17.25 17.269,-17.263c9.537,0.013 17.25,7.732 17.269,17.263l7.337,0c-0.006,-13.588 -11.012,-24.606 -24.606,-24.606c-13.588,0 -24.606,11.012 -24.613,24.606c0.007,13.594 11.019,24.612 24.613,24.612c13.594,0 24.6,-11.018 24.606,-24.612l-3.669,0Z" style="fill:#fff;fill-rule:nonzero;"/><path d="M100.395,182.957l-3.669,0c-0.018,9.537 -7.731,17.256 -17.268,17.275c-9.532,-0.019 -17.244,-7.738 -17.263,-17.275c0.019,-9.531 7.731,-17.25 17.263,-17.263c9.537,0.013 17.25,7.732 17.268,17.263l7.338,0c0,-13.588 -11.013,-24.606 -24.606,-24.606c-13.588,0 -24.607,11.012 -24.607,24.606c0,13.594 11.019,24.612 24.607,24.612c13.593,0 24.606,-11.018 24.606,-24.612l-3.669,0Z" style="fill:#fff;fill-rule:nonzero;"/><path d="M100.807,191.007l121.213,0l0,-7.338l-121.213,0" style="fill:#fff;fill-rule:nonzero;"/><path d="M270.754,189.408l22.506,0l0,-28.962l-11.494,-17.963l-50.981,-18.087l-59.544,-27.95l-87.481,0l-36.806,35.7l-8.231,18.75l-3.05,15.206l1.487,14.162l18.488,10.007l3.5,-6.463l-15.088,-8.162l-0.969,-9.194l2.675,-13.331l7.332,-16.707l33.637,-32.631l82.869,0l58.387,27.413l48.95,17.362l8.975,14.038l0,19.475l-15.162,0l0,7.337Z" style="fill:#fff;fill-rule:nonzero;"/><path d="M168.52,113.932l0,-1.838l-33.063,0l0,24.738l80.394,0l-46.881,-24.738l-0.45,0l0,1.838l-0.856,1.625l33.368,17.606l-61.906,0l0,-17.394l29.394,0l0,-1.837l-0.856,1.625l0.856,-1.625Z" style="fill:#fff;fill-rule:nonzero;"/><path d="M93.233,134.989l0,1.837l33.063,0l0,-24.687l-35.088,0l-9.687,10.262l10.793,14.425l0.919,0l0,-1.837l1.469,-1.1l-8.388,-11.219l6.475,-6.862l29.832,0l0,17.343l-29.388,0l0,1.838l1.469,-1.1l-1.469,1.1Z" style="fill:#fff;fill-rule:nonzero;"/></svg>