<svg xmlns="http://www.w3.org/2000/svg" viewBox="0 0 15.9 15.9"><defs><style>.a{fill:#fff;}</style></defs><title>1</title><path class="a" d="M15.49,2.74a4.13,4.13,0,0,0-.92-1.41A3.87,3.87,0,0,0,13.16.42,5.79,5.79,0,0,0,11.23.05C10.39,0,10.11,0,8,0H7.87C5.79,0,5.51,0,4.67.05A5.84,5.84,0,0,0,2.74.42,4,4,0,0,0,.42,2.74,5.84,5.84,0,0,0,.05,4.67C0,5.52,0,5.79,0,8s0,2.43.05,3.28a5.79,5.79,0,0,0,.37,1.93,3.87,3.87,0,0,0,.91,1.41,4.13,4.13,0,0,0,1.41.92,5.87,5.87,0,0,0,1.93.36c.64,0,1,.05,2,.05H9.26c1,0,1.34,0,2-.05a5.81,5.81,0,0,0,1.93-.36,4.09,4.09,0,0,0,2.33-2.33,5.81,5.81,0,0,0,.36-1.93c0-.85.05-1.12.05-3.28s0-2.43-.05-3.28A5.87,5.87,0,0,0,15.49,2.74Zm-1.07,8.42a4.26,4.26,0,0,1-.27,1.48,2.71,2.71,0,0,1-1.51,1.51,4.26,4.26,0,0,1-1.48.27c-.83,0-1.09.05-3.21.05s-2.37,0-3.21-.05a4.26,4.26,0,0,1-1.48-.27,2.41,2.41,0,0,1-.91-.6,2.45,2.45,0,0,1-.6-.91,4.26,4.26,0,0,1-.27-1.48c0-.83-.05-1.09-.05-3.21s0-2.37.05-3.21a4.26,4.26,0,0,1,.27-1.48,2.54,2.54,0,0,1,.6-.91,2.54,2.54,0,0,1,.91-.6,4.26,4.26,0,0,1,1.48-.27c.84,0,1.09-.05,3.21-.05s2.38,0,3.21.05a4.26,4.26,0,0,1,1.48.27,2.45,2.45,0,0,1,.91.6,2.41,2.41,0,0,1,.6.91,4.26,4.26,0,0,1,.27,1.48c0,.84.05,1.09.05,3.21S14.46,10.33,14.42,11.16Z"/><path class="a" d="M8,3.87A4.08,4.08,0,1,0,12,8,4.08,4.08,0,0,0,8,3.87ZM8,10.6A2.65,2.65,0,1,1,10.6,8,2.65,2.65,0,0,1,8,10.6Z"/><path class="a" d="M12.2,2.75a1,1,0,1,0,1,1A1,1,0,0,0,12.2,2.75Z"/></svg>