<?xml version="1.0" encoding="utf-8"?>
<!-- Generator: Adobe Illustrator 23.0.3, SVG Export Plug-In . SVG Version: 6.00 Build 0)  -->
<svg version="1.1" id="Layer_1" xmlns:serif="http://www.serif.com/"
	 xmlns="http://www.w3.org/2000/svg" xmlns:xlink="http://www.w3.org/1999/xlink" x="0px" y="0px" viewBox="0 0 595.3 419.5"
	 style="enable-background:new 0 0 595.3 419.5;" xml:space="preserve">
<style type="text/css">
	.st0{fill:#066C72;}
	.st1{fill:#FFFFFF;}
</style>
<path class="st0" d="M506.8,209.4c0,115.7-93.8,209.4-209.4,209.4c-115.7,0-209.4-93.8-209.4-209.4C87.9,93.8,181.6,0,297.3,0
	C413,0,506.8,93.8,506.8,209.4"/>
<path class="st1" d="M360.3,172.8l3.8-3.8c-2.5-2.5-5.7-3.7-8.9-3.7c-3.2,0-6.5,1.2-8.9,3.7l-49,49l-49-49c-2.5-2.5-5.7-3.7-8.9-3.7
	c-3.2,0-6.5,1.2-8.9,3.7c-2.5,2.5-3.7,5.7-3.7,8.9c0,3.2,1.2,6.5,3.7,8.9l52.9,52.9l14,14l14-14l52.9-52.9c2.5-2.5,3.7-5.7,3.7-8.9
	c0-3.2-1.2-6.5-3.7-8.9L360.3,172.8L360.3,172.8z"/>
</svg>
