<svg xmlns="http://www.w3.org/2000/svg" viewBox="0 0 15.68 15.68"><defs><style>.a{fill:#fff;}</style></defs><title>1</title><path class="a" d="M13.4,0H2.28A2.28,2.28,0,0,0,0,2.28V13.4a2.28,2.28,0,0,0,2.28,2.28H13.4a2.28,2.28,0,0,0,2.28-2.28V2.28A2.28,2.28,0,0,0,13.4,0ZM5,12.78H2.81V6.12H5ZM3.92,5.21h0a1.15,1.15,0,1,1,0-2.3,1.15,1.15,0,1,1,0,2.3ZM13,12.78H10.79V9.21c0-.89-.32-1.5-1.12-1.5a1.22,1.22,0,0,0-1.14.81,1.73,1.73,0,0,0-.07.54v3.72H6.25s0-6,0-6.66H8.46v.94a2.2,2.2,0,0,1,2-1.1C11.91,6,13,6.91,13,9Z"/></svg>