<svg xmlns="http://www.w3.org/2000/svg" width="36.087" height="36.13" viewBox="0 0 36.087 36.13">
  <g id="Group_1326" data-name="Group 1326" transform="translate(-1802 -921.32)">
    <path id="Path_831" data-name="Path 831" d="M19.021.049C18.7.031,18.375,0,18.043,0a18.066,18.066,0,0,0-14.9,28.251A183.923,183.923,0,0,1,19.021.049" transform="translate(1802 921.32)" fill="#fff"/>
    <path id="Path_832" data-name="Path 832" d="M14.036,25.544c8.236-4.125,18.375-5.9,21.668-6.4.019-.379.053-.749.053-1.134A18.042,18.042,0,0,0,26.752,2.39,160.1,160.1,0,0,0,14.036,25.544" transform="translate(1802.33 921.376)" fill="#fff"/>
    <path id="Path_833" data-name="Path 833" d="M11.385,31.156H6.071a18.006,18.006,0,0,0,29.16-8.621c-16.818,2.785-23.846,8.621-23.846,8.621" transform="translate(1802.143 921.85)" fill="#fff"/>
  </g>
</svg>
