<svg id="Layer_1" data-name="Layer 1" xmlns="http://www.w3.org/2000/svg" viewBox="0 0 422 125"><defs><style>.cls-1{fill:#fff;}.cls-2{fill:#3d3d3a;}.cls-3{fill:#e6352e;}</style></defs><title>lo-logo</title><rect class="cls-1" width="422" height="125"/><polygon class="cls-2" points="138.22 50.9 142.29 50.9 142.29 68.4 151.2 68.4 151.2 72.02 138.22 72.02 138.22 50.9"/><path class="cls-2" d="M1713,62.82a2.92,2.92,0,0,0-2.9-2.57,3.17,3.17,0,0,0-3.14,2.57h6Zm3.65,6.88a7.94,7.94,0,0,1-6,2.63,7.32,7.32,0,0,1-7.67-7.61c0-4.07,2.78-7.64,7.12-7.64,4,0,6.91,3.41,6.91,7.49a6.48,6.48,0,0,1-.09,1.11h-10.14a3.85,3.85,0,0,0,4,3.47,5.18,5.18,0,0,0,3.68-1.69Z" transform="translate(-1550.26)"/><path class="cls-2" d="M1730.13,62.52a4.49,4.49,0,0,0-3.62-1.81,4,4,0,0,0,.09,8,4.28,4.28,0,0,0,3.53-1.81V62.52ZM1734,72h-3.77V70.85a6.12,6.12,0,0,1-4.08,1.48,7.36,7.36,0,0,1-5.52-2.47,7.85,7.85,0,0,1-1.87-5.13,7.35,7.35,0,0,1,7.18-7.64,6.73,6.73,0,0,1,4.29,1.48V57.39H1734V72Z" transform="translate(-1550.26)"/><path class="cls-2" d="M1737.82,67.56a6.17,6.17,0,0,0,4,1.45c1.06,0,1.87-.51,1.87-1.24,0-2.2-7.09-1.42-7.09-6.13,0-2.81,2.72-4.56,5.61-4.56a9.08,9.08,0,0,1,5,1.48l-1.84,2.84a4.93,4.93,0,0,0-2.81-1c-1.09,0-2,.42-2,1.18,0,1.9,7.09,1.15,7.09,6.22,0,2.81-2.74,4.53-5.82,4.53a10.12,10.12,0,0,1-5.88-2Z" transform="translate(-1550.26)"/><path class="cls-2" d="M1753.37,72h-3.92V57.39h3.92V72Zm-2-22.33a2.51,2.51,0,1,1-2.57,2.5,2.51,2.51,0,0,1,2.57-2.5" transform="translate(-1550.26)"/><path class="cls-2" d="M1755.48,72V57.39h3.77v1.17a6.46,6.46,0,0,1,4.13-1.48,6.59,6.59,0,0,1,5.07,2.36c1,1.15,1.51,2.63,1.51,5.13V72H1766V64.27a3.55,3.55,0,0,0-.87-2.75,3.09,3.09,0,0,0-2.2-.81,4.67,4.67,0,0,0-3.56,1.81V72h-3.92Z" transform="translate(-1550.26)"/><path class="cls-2" d="M1783.09,62.52a4.5,4.5,0,0,0-3.62-1.81,4,4,0,0,0,.09,8,4.29,4.29,0,0,0,3.53-1.81V62.52Zm3.92,8.69c0,2.63-.45,4.2-1.33,5.43a7.8,7.8,0,0,1-6.49,2.93,9.6,9.6,0,0,1-7-3l2.47-2.56a5.92,5.92,0,0,0,4.56,2.11,3.78,3.78,0,0,0,3-1.18c0.6-.66.91-1.57,0.91-3.44V71a6.18,6.18,0,0,1-3.92,1.33,7.42,7.42,0,0,1-5.55-2.47,7.84,7.84,0,0,1-1.84-5.13,7.35,7.35,0,0,1,7.18-7.64,6.72,6.72,0,0,1,4.29,1.48V57.39H1787V71.21Z" transform="translate(-1550.26)"/><path class="cls-2" d="M1800.9,69.46c4.31,0,7.54-3.41,7.54-8s-3.23-8-7.54-8-7.55,3.44-7.55,8,3.23,8,7.55,8m0-18.86a10.53,10.53,0,0,1,10.56,10.87,10.57,10.57,0,1,1-21.12,0,10.53,10.53,0,0,1,10.56-10.87" transform="translate(-1550.26)"/><path class="cls-2" d="M1816.74,67.59a4.92,4.92,0,0,0,3.89,2,4.63,4.63,0,0,0,4.71-4.68,4.54,4.54,0,0,0-4.56-4.68,5.11,5.11,0,0,0-4,2v5.31Zm0,11.68h-2.87V57.84h2.78v1.3a6.64,6.64,0,0,1,4.44-1.6,6.75,6.75,0,0,1,3.47.91,7.58,7.58,0,0,1,0,12.95,7.29,7.29,0,0,1-3.56.94,6.37,6.37,0,0,1-4.29-1.54v8.48Z" transform="translate(-1550.26)"/><path class="cls-2" d="M1840,72a7.92,7.92,0,0,1-2.23.3,5.12,5.12,0,0,1-4-1.66,5.43,5.43,0,0,1-1.15-3.77V60.4H1829V57.84h3.62V53.91h2.87v3.92H1840V60.4h-4.53V67a2.75,2.75,0,0,0,.42,1.81,2.64,2.64,0,0,0,2,.76,7,7,0,0,0,1.57-.18Z" transform="translate(-1550.26)"/><path class="cls-2" d="M1842.09,57.84H1845V72h-2.87V57.84Zm1.42-6.94a1.89,1.89,0,0,1,1.9,1.9,1.87,1.87,0,0,1-1.9,1.87,1.84,1.84,0,0,1-1.87-1.87,1.87,1.87,0,0,1,1.87-1.9" transform="translate(-1550.26)"/><path class="cls-2" d="M1855,69.61a4.68,4.68,0,1,0-4.47-4.68,4.47,4.47,0,0,0,4.47,4.68m0-12.07a7.4,7.4,0,1,1-7.33,7.39,7.19,7.19,0,0,1,7.33-7.39" transform="translate(-1550.26)"/><path class="cls-2" d="M1867.84,59.2a6.15,6.15,0,0,1,4.26-1.66,6.54,6.54,0,0,1,5.16,2.51c0.91,1.15,1.39,2.6,1.39,5V72h-2.87V64.93a4.78,4.78,0,0,0-.85-3.29,3.73,3.73,0,0,0-2.93-1.39,5.24,5.24,0,0,0-4.07,2V72h-2.87V57.84h2.78V59.2Z" transform="translate(-1550.26)"/><path class="cls-2" d="M1882.39,68.25a6.9,6.9,0,0,0,4.19,1.57c1.24,0,2.47-.66,2.47-1.78,0-1.63-2.35-1.72-4.43-2.42-1.72-.57-3.26-1.66-3.26-3.65,0-3,2.72-4.44,5.25-4.44a7.21,7.21,0,0,1,4.71,1.57l-1.48,2.05a5,5,0,0,0-3-1.12c-1.39,0-2.57.66-2.57,1.78,0,1,1.12,1.3,2.54,1.66,2.23,0.58,5.16,1.57,5.16,4.5,0,2.69-2.5,4.35-5.28,4.35a8.86,8.86,0,0,1-5.73-2Z" transform="translate(-1550.26)"/><path class="cls-3" d="M1647.7,71.46c9.8-4.9,21.87-7,25.79-7.61,0-.45.06-0.89,0.06-1.35a21.45,21.45,0,0,0-10.72-18.57,190.38,190.38,0,0,0-15.14,27.53" transform="translate(-1550.26)"/><path class="cls-3" d="M1644.32,78.69H1638a21.44,21.44,0,0,0,34.71-10.25c-20,3.31-28.38,10.25-28.38,10.25" transform="translate(-1550.26)"/><path class="cls-3" d="M1653.24,41.08c-0.39,0-.77-0.06-1.16-0.06a21.47,21.47,0,0,0-17.73,33.59c6.39-14.72,15.52-28.6,18.9-33.53" transform="translate(-1550.26)"/><path class="cls-3" d="M1672.25,80.35a0.23,0.23,0,0,0,.21-0.07,0.2,0.2,0,0,0,0-.12,0.2,0.2,0,0,0,0-.12,0.25,0.25,0,0,0-.21-0.08H1672v0.39h0.29Zm-0.29.4v0.91h-0.49V79.51h0.76a0.73,0.73,0,0,1,.54.17,0.63,0.63,0,0,1,.21.48,0.56,0.56,0,0,1-.27.49l-0.13.06,0.64,0.94h-0.53l-0.6-.91H1672Zm0.27,1.4a1.56,1.56,0,1,0-1.56-1.56,1.56,1.56,0,0,0,1.56,1.56m0-3.52a2,2,0,1,1-2,2,2,2,0,0,1,2-2" transform="translate(-1550.26)"/></svg>