<?xml version="1.0" encoding="utf-8"?>
<!-- Generator: Adobe Illustrator 23.0.6, SVG Export Plug-In . SVG Version: 6.00 Build 0)  -->
<svg version="1.1" id="Layer_1" xmlns="http://www.w3.org/2000/svg" xmlns:xlink="http://www.w3.org/1999/xlink" x="0px" y="0px"
	 viewBox="0 0 190.1 41.1" style="enable-background:new 0 0 190.1 41.1;" xml:space="preserve">
<style type="text/css">
	.st0{enable-background:new    ;}
	.st1{fill:#F0F0F0;}
	.st2{fill:#0094C6;}
</style>
<g transform="matrix(1, 0, 0, 1, 0, 0)">
	<g class="st0">
		<path class="st1" d="M8.6,0.9v32h19.1v7.3H0V0.9H8.6z"/>
		<path class="st1" d="M32.2,12.6c0.9-2.5,2.1-4.7,3.8-6.6s3.7-3.3,6.1-4.4C44.5,0.5,47.2,0,50.2,0c3,0,5.8,0.5,8.1,1.6
			c2.4,1.1,4.4,2.5,6,4.4s2.9,4.1,3.8,6.6c0.9,2.5,1.3,5.2,1.3,8.2c0,2.9-0.4,5.5-1.3,8c-0.9,2.5-2.1,4.6-3.8,6.5
			c-1.6,1.8-3.7,3.3-6,4.3c-2.4,1-5.1,1.6-8.1,1.6c-3,0-5.7-0.5-8.1-1.6c-2.4-1-4.4-2.5-6.1-4.3c-1.6-1.8-2.9-4-3.8-6.5
			c-0.9-2.5-1.3-5.1-1.3-8C30.9,17.8,31.3,15.1,32.2,12.6z M40.1,25.5c0.4,1.6,1,3,1.8,4.2c0.8,1.2,1.9,2.2,3.3,3
			c1.4,0.8,3,1.1,5,1.1c1.9,0,3.6-0.4,5-1.1c1.4-0.8,2.5-1.8,3.3-3c0.8-1.2,1.5-2.6,1.8-4.2c0.4-1.6,0.6-3.2,0.6-4.8
			c0-1.7-0.2-3.4-0.6-5c-0.4-1.6-1-3.1-1.8-4.3c-0.8-1.3-1.9-2.3-3.3-3c-1.4-0.8-3-1.1-5-1.1c-1.9,0-3.6,0.4-5,1.1
			c-1.4,0.8-2.5,1.8-3.3,3c-0.8,1.3-1.5,2.7-1.8,4.3c-0.4,1.6-0.6,3.3-0.6,5C39.5,22.4,39.7,24,40.1,25.5z"/>
	</g>
	<g class="st0">
		<path class="st2" d="M103,0.9v7.3H84v9.1h16.4V24H84v16.2h-8.6V0.9H103z"/>
		<path class="st2" d="M116.7,0.9v32h19.1v7.3H108V0.9H116.7z"/>
		<path class="st2" d="M149.3,0.9v39.3h-8.6V0.9H149.3z"/>
		<path class="st2" d="M153.8,0.9h10l7.7,12.5l8-12.5h9.5l-12.6,18.8l13.7,20.5h-10.3l-8.6-13.6l-8.7,13.6h-9.7l13.7-20.6L153.8,0.9
			z"/>
	</g>
</g>
</svg>
