<svg id="Layer_1" data-name="Layer 1" xmlns="http://www.w3.org/2000/svg" viewBox="0 0 304.69 50.03"><defs><style>.cls-1{fill:#b20202;}.cls-2{fill:#252829;}</style></defs><title>symbol</title><path class="cls-1" d="M48.8,45.81a.27.27,0,0,0,.24-.09l0-.13,0-.15a.3.3,0,0,0-.24-.09h-.34v.46Zm-.34.46v1.06h-.57v-2.5h.89a.82.82,0,0,1,.62.2.71.71,0,0,1,.25.56.66.66,0,0,1-.32.57l-.16.07.75,1.1H49.3l-.69-1.06Zm.31,1.63A1.82,1.82,0,1,0,47,46.08a1.81,1.81,0,0,0,1.82,1.82m0-4.1a2.28,2.28,0,1,1-2.28,2.28,2.27,2.27,0,0,1,2.28-2.28"/><path class="cls-1" d="M26.69.07c-.45,0-.9-.07-1.36-.07A25,25,0,0,0,4.71,39.12C12.14,22,22.76,5.81,26.69.07"/><path class="cls-1" d="M20.24,35.45c11.41-5.71,25.44-8.18,30-8.87,0-.52.08-1,.08-1.57A25,25,0,0,0,37.85,3.39,222.26,222.26,0,0,0,20.24,35.45"/><path class="cls-1" d="M16.31,43.87H9A24.92,24.92,0,0,0,49.33,31.94c-23.29,3.85-33,11.93-33,11.93"/><polygon class="cls-2" points="67.68 11.5 67.68 36.1 82.78 36.1 82.78 31.89 72.42 31.89 72.42 11.5 67.68 11.5"/><path class="cls-2" d="M96.19,25.38a3.39,3.39,0,0,0-3.37-3,3.69,3.69,0,0,0-3.65,3Zm4.25,8a9.23,9.23,0,0,1-7,3.05,8.52,8.52,0,0,1-8.92-8.85c0-4.75,3.23-8.9,8.29-8.9,4.7,0,8,4,8,8.72a7.42,7.42,0,0,1-.11,1.3H89a4.46,4.46,0,0,0,4.6,4,6.05,6.05,0,0,0,4.28-2Z"/><path class="cls-2" d="M116.13,25a5.25,5.25,0,0,0-4.21-2.11,4.46,4.46,0,0,0-4.39,4.68A4.45,4.45,0,0,0,112,32.24a5,5,0,0,0,4.11-2.11Zm4.56,11.08h-4.38V34.73a7.12,7.12,0,0,1-4.75,1.73,8.56,8.56,0,0,1-6.42-2.89,9.14,9.14,0,0,1-2.17-6c0-5,3.72-8.9,8.35-8.9a7.83,7.83,0,0,1,5,1.73V19.06h4.38Z"/><path class="cls-2" d="M125.08,30.9a7.14,7.14,0,0,0,4.67,1.69c1.23,0,2.18-.6,2.18-1.44,0-2.57-8.25-1.66-8.25-7.14,0-3.27,3.16-5.31,6.53-5.31A10.51,10.51,0,0,1,136,20.43l-2.14,3.3a5.72,5.72,0,0,0-3.26-1.16c-1.27,0-2.32.49-2.32,1.37,0,2.22,8.25,1.34,8.25,7.24,0,3.27-3.19,5.28-6.77,5.28a11.74,11.74,0,0,1-6.85-2.29Z"/><path class="cls-2" d="M143.16,36.11H138.6v-17h4.56Zm-2.28-26a2.92,2.92,0,1,1-3,2.92,2.92,2.92,0,0,1,3-2.92"/><path class="cls-2" d="M145.62,36.11v-17H150v1.37a7.53,7.53,0,0,1,4.81-1.73,7.65,7.65,0,0,1,5.89,2.75c1.13,1.33,1.76,3.06,1.76,6v8.69h-4.56v-9a4.16,4.16,0,0,0-1-3.2,3.62,3.62,0,0,0-2.56-.95A5.46,5.46,0,0,0,150.18,25V36.11Z"/><path class="cls-2" d="M177.74,25a5.24,5.24,0,0,0-4.21-2.11,4.46,4.46,0,0,0-4.39,4.68,4.45,4.45,0,0,0,4.5,4.64,5,5,0,0,0,4.1-2.11Zm4.57,10.12c0,3.06-.53,4.89-1.55,6.33a9,9,0,0,1-7.55,3.41A11.21,11.21,0,0,1,165,41.38l2.88-3a6.9,6.9,0,0,0,5.3,2.46,4.4,4.4,0,0,0,3.48-1.37c.7-.77,1.05-1.83,1.05-4v-.56a7.19,7.19,0,0,1-4.56,1.55,8.63,8.63,0,0,1-6.46-2.89,9.12,9.12,0,0,1-2.14-6c0-5,3.72-8.9,8.35-8.9a7.8,7.8,0,0,1,5,1.73V19.06h4.39Z"/><path class="cls-2" d="M198.46,33.12c5,0,8.77-4,8.77-9.32s-3.75-9.31-8.77-9.31-8.78,4-8.78,9.31,3.76,9.32,8.78,9.32m0-22c6.95,0,12.28,5.48,12.28,12.65s-5.33,12.65-12.28,12.65S186.17,31,186.17,23.8s5.33-12.65,12.29-12.65"/><path class="cls-2" d="M216.89,30.94a5.71,5.71,0,0,0,4.53,2.35,5.38,5.38,0,0,0,5.47-5.45,5.28,5.28,0,0,0-5.3-5.44,6,6,0,0,0-4.7,2.35Zm0,13.6h-3.34v-25h3.23v1.51a7.72,7.72,0,0,1,5.16-1.86,7.81,7.81,0,0,1,4,1.06,8.83,8.83,0,0,1,0,15.08,8.49,8.49,0,0,1-4.13,1.09,7.41,7.41,0,0,1-5-1.8Z"/><path class="cls-2" d="M243.92,36.11a9.5,9.5,0,0,1-2.6.35,6,6,0,0,1-4.67-1.94,6.34,6.34,0,0,1-1.33-4.39V22.57h-4.21v-3h4.21V15h3.34v4.57h5.26v3h-5.26V30.3a3.21,3.21,0,0,0,.49,2.11,3,3,0,0,0,2.28.88,8.07,8.07,0,0,0,1.82-.21Z"/><path class="cls-2" d="M246.38,19.58h3.33V36.11h-3.33ZM248,11.5a2.2,2.2,0,0,1,2.21,2.21A2.17,2.17,0,0,1,248,15.89a2.15,2.15,0,0,1-2.18-2.18A2.17,2.17,0,0,1,248,11.5"/><path class="cls-2" d="M261.4,33.29a5.2,5.2,0,0,0,5.2-5.45,5.2,5.2,0,1,0-10.39,0,5.2,5.2,0,0,0,5.19,5.45m0-14.06a8.37,8.37,0,0,1,8.54,8.61,8.54,8.54,0,1,1-17.07,0,8.37,8.37,0,0,1,8.53-8.61"/><path class="cls-2" d="M276.32,21.16a7.18,7.18,0,0,1,4.95-1.93,7.61,7.61,0,0,1,6,2.92c1.05,1.33,1.61,3,1.61,5.87v8.09h-3.33V27.84c0-2.1-.39-3.09-1-3.83a4.34,4.34,0,0,0-3.4-1.61,6.07,6.07,0,0,0-4.74,2.35V36.11H273.1V19.58h3.22Z"/><path class="cls-2" d="M293.25,31.71a8,8,0,0,0,4.88,1.83c1.44,0,2.88-.77,2.88-2.08,0-1.89-2.74-2-5.16-2.81-2-.67-3.79-1.93-3.79-4.25,0-3.55,3.15-5.17,6.1-5.17a8.4,8.4,0,0,1,5.48,1.83l-1.72,2.39a5.87,5.87,0,0,0-3.55-1.3c-1.61,0-3,.77-3,2.07,0,1.13,1.3,1.51,2.95,1.93,2.6.67,6,1.83,6,5.24,0,3.13-2.91,5.07-6.14,5.07a10.27,10.27,0,0,1-6.67-2.29Z"/></svg>