<svg xmlns="http://www.w3.org/2000/svg" xmlns:xlink="http://www.w3.org/1999/xlink" width="239.583" height="73.411" viewBox="0 0 239.583 73.411">
  <defs>
    <filter id="Rectangle_3417" x="0" y="0" width="226.879" height="73.411" filterUnits="userSpaceOnUse">
      <feOffset dy="3" input="SourceAlpha"/>
      <feGaussianBlur stdDeviation="3" result="blur"/>
      <feFlood flood-color="#747474" flood-opacity="0.404"/>
      <feComposite operator="in" in2="blur"/>
      <feComposite in="SourceGraphic"/>
    </filter>
  </defs>
  <g id="Group_1325" data-name="Group 1325" transform="translate(-184.403 -1896.144)">
    <g transform="matrix(1, 0, 0, 1, 184.4, 1896.14)" filter="url(#Rectangle_3417)">
      <rect id="Rectangle_3417-2" data-name="Rectangle 3417" width="206.826" height="44.648" rx="2" transform="translate(9 16.82) rotate(-3)" fill="#0094c6"/>
    </g>
    <path id="Path_1050" data-name="Path 1050" d="M9.426-3.75H9.47l1.289-6.914h2.5L10.818,0H8.489L6.694-6.584H6.65L4.871,0H2.542L.088-10.664H2.6L3.889-3.743l.044.007,1.809-6.929H7.61Zm7.046-3.193a2.626,2.626,0,0,1,.875-.831,2.246,2.246,0,0,1,1.139-.3,2.366,2.366,0,0,1,1.934.857,4.151,4.151,0,0,1,.7,2.659V0H18.647V-4.57a2.377,2.377,0,0,0-.234-1.252.8.8,0,0,0-.71-.344,1.978,1.978,0,0,0-.725.121,1.312,1.312,0,0,0-.505.341V0H14V-11.426h2.476ZM27.078-.007a2.99,2.99,0,0,1-.238-.564,4.324,4.324,0,0,1-.15-.659,3.028,3.028,0,0,1-.795,1.007,1.918,1.918,0,0,1-1.234.377,2.744,2.744,0,0,1-1.937-.641,2.264,2.264,0,0,1-.692-1.747,2.113,2.113,0,0,1,.886-1.82,4.594,4.594,0,0,1,2.688-.641h1.018v-.564a1.129,1.129,0,0,0-.242-.776.941.941,0,0,0-.74-.271A.893.893,0,0,0,25-6.1a.835.835,0,0,0-.209.626l-2.4-.007-.015-.044a2.067,2.067,0,0,1,.9-1.813A4.053,4.053,0,0,1,25.8-8.071a3.691,3.691,0,0,1,2.384.732A2.531,2.531,0,0,1,29.1-5.244v2.988a6.1,6.1,0,0,0,.106,1.172A6.276,6.276,0,0,0,29.524,0Zm-1.743-1.6a1.508,1.508,0,0,0,.8-.212,1.216,1.216,0,0,0,.487-.505V-3.376h-1a1.119,1.119,0,0,0-.857.286,1.027,1.027,0,0,0-.264.725.7.7,0,0,0,.231.546A.856.856,0,0,0,25.334-1.611ZM33.3-9.9v1.97h1.252v1.714H33.3v3.633a.889.889,0,0,0,.172.612.6.6,0,0,0,.465.187,2.488,2.488,0,0,0,.3-.015,2.632,2.632,0,0,0,.289-.059l.168,1.831a5.976,5.976,0,0,1-.674.135,5.427,5.427,0,0,1-.71.04A2.474,2.474,0,0,1,31.454-.5a2.877,2.877,0,0,1-.634-2.065V-6.211H29.714V-7.925H30.82V-9.9Zm9.258,6.4.007.059H42.6l1.311-4.49h2.637L43.4,1.179a4.367,4.367,0,0,1-.945,1.45,2.536,2.536,0,0,1-1.838.571,2.822,2.822,0,0,1-.527-.04q-.205-.04-.645-.15l.3-1.765.154.033a.648.648,0,0,0,.132.011,1.645,1.645,0,0,0,.857-.172,1.02,1.02,0,0,0,.4-.516l.2-.513L38.745-7.925h2.629Zm4.2-.542a4.189,4.189,0,0,1,1.011-2.911,3.6,3.6,0,0,1,2.82-1.124,3.606,3.606,0,0,1,2.827,1.124,4.189,4.189,0,0,1,1.011,2.911v.154A4.186,4.186,0,0,1,53.416-.967,3.594,3.594,0,0,1,50.6.154,3.621,3.621,0,0,1,47.769-.967a4.186,4.186,0,0,1-1.011-2.915Zm2.476.154a3.276,3.276,0,0,0,.311,1.564A1.107,1.107,0,0,0,50.6-1.75a1.1,1.1,0,0,0,1.04-.571,3.248,3.248,0,0,0,.315-1.56v-.154a3.26,3.26,0,0,0-.315-1.549,1.1,1.1,0,0,0-1.055-.582,1.088,1.088,0,0,0-1.044.586,3.3,3.3,0,0,0-.311,1.545Zm11.06,2.7a2.6,2.6,0,0,1-.912.992,2.4,2.4,0,0,1-1.293.348,2.347,2.347,0,0,1-1.93-.864,4.213,4.213,0,0,1-.7-2.673V-7.925h2.468v4.556a2.4,2.4,0,0,0,.238,1.274.833.833,0,0,0,.736.344,2.021,2.021,0,0,0,.7-.11,1.345,1.345,0,0,0,.513-.33V-7.925h2.476V0H60.593Zm6.079-7.324L65.625-6.68H64.4v-3.984h1.97Zm6.182,2.7-.806-.007a1.372,1.372,0,0,0-.7.157.971.971,0,0,0-.4.443V0H68.174V-7.925H70.5l.088,1.165a2.39,2.39,0,0,1,.659-.967,1.447,1.447,0,0,1,.959-.344,1.841,1.841,0,0,1,.3.022,2.271,2.271,0,0,1,.278.066ZM76.838.154A3.679,3.679,0,0,1,74.015-.937,3.881,3.881,0,0,1,72.993-3.7v-.278a4.434,4.434,0,0,1,.963-2.959,3.421,3.421,0,0,1,2.787-1.135,3.209,3.209,0,0,1,2.487.959,3.735,3.735,0,0,1,.883,2.629v1.3H75.571l-.015.044a1.539,1.539,0,0,0,.461,1.007,1.611,1.611,0,0,0,1.157.385,5.016,5.016,0,0,0,1.183-.117,7.456,7.456,0,0,0,1.08-.374l.593,1.509a4.53,4.53,0,0,1-1.377.63A6.355,6.355,0,0,1,76.838.154Zm-.1-6.321a1.021,1.021,0,0,0-.875.377,1.893,1.893,0,0,0-.326,1.022l.015.037H77.7v-.19a1.647,1.647,0,0,0-.216-.93A.828.828,0,0,0,76.743-6.167ZM87.488,0H85V-11.426h2.483Zm1.187-4.036a4.189,4.189,0,0,1,1.011-2.911A3.6,3.6,0,0,1,92.5-8.071a3.606,3.606,0,0,1,2.827,1.124,4.189,4.189,0,0,1,1.011,2.911v.154A4.186,4.186,0,0,1,95.332-.967,3.594,3.594,0,0,1,92.52.154,3.621,3.621,0,0,1,89.685-.967a4.186,4.186,0,0,1-1.011-2.915Zm2.476.154a3.276,3.276,0,0,0,.311,1.564,1.107,1.107,0,0,0,1.058.568,1.1,1.1,0,0,0,1.04-.571,3.248,3.248,0,0,0,.315-1.56v-.154a3.26,3.26,0,0,0-.315-1.549A1.1,1.1,0,0,0,92.5-6.167a1.088,1.088,0,0,0-1.044.586,3.3,3.3,0,0,0-.311,1.545ZM97.1-4.036a4.189,4.189,0,0,1,1.011-2.911,3.6,3.6,0,0,1,2.82-1.124,3.606,3.606,0,0,1,2.827,1.124,4.189,4.189,0,0,1,1.011,2.911v.154a4.186,4.186,0,0,1-1.011,2.915A3.594,3.594,0,0,1,100.95.154,3.621,3.621,0,0,1,98.115-.967,4.186,4.186,0,0,1,97.1-3.882Zm2.476.154a3.276,3.276,0,0,0,.311,1.564,1.107,1.107,0,0,0,1.058.568,1.1,1.1,0,0,0,1.04-.571,3.248,3.248,0,0,0,.315-1.56v-.154a3.26,3.26,0,0,0-.315-1.549,1.1,1.1,0,0,0-1.055-.582,1.088,1.088,0,0,0-1.044.586,3.3,3.3,0,0,0-.311,1.545Zm9.207.732h-.447V0h-2.476V-11.426h2.476v6.409h.352l1.67-2.908H113.2l-2.439,3.574L113.6,0h-2.82ZM116.653,0H114.17V-7.925h2.483Zm0-9.763H114.17v-1.663h2.483Zm3.794,1.838.1,1.113a2.869,2.869,0,0,1,.959-.927,2.483,2.483,0,0,1,1.274-.333,2.234,2.234,0,0,1,1.82.791,3.913,3.913,0,0,1,.656,2.512V0h-2.476V-4.775a1.816,1.816,0,0,0-.242-1.073.828.828,0,0,0-.7-.319,1.74,1.74,0,0,0-.71.139,1.419,1.419,0,0,0-.527.4V0h-2.468V-7.925Zm5.815,3.977a5.039,5.039,0,0,1,.809-2.988,2.639,2.639,0,0,1,2.281-1.135,2.034,2.034,0,0,1,1.1.3,2.619,2.619,0,0,1,.82.839l.161-.989h2.183V-.088a2.935,2.935,0,0,1-1.073,2.428,4.6,4.6,0,0,1-2.955.861,5.315,5.315,0,0,1-1.289-.168,7.2,7.2,0,0,1-1.289-.454l.425-1.831a5.884,5.884,0,0,0,1.022.348,4.947,4.947,0,0,0,1.117.114,1.832,1.832,0,0,0,1.176-.315,1.214,1.214,0,0,0,.385-1V-.718a2.263,2.263,0,0,1-.78.652,2.254,2.254,0,0,1-1.014.22A2.664,2.664,0,0,1,127.068-.93a4.686,4.686,0,0,1-.806-2.864Zm2.468.154a3.291,3.291,0,0,0,.282,1.505.992.992,0,0,0,.956.538,1.744,1.744,0,0,0,.692-.125,1.129,1.129,0,0,0,.472-.374V-5.581a1.232,1.232,0,0,0-.469-.436,1.446,1.446,0,0,0-.681-.15,1,1,0,0,0-.956.612,3.706,3.706,0,0,0-.3,1.608ZM139.3,0V-6.211h-1.143V-7.925H139.3v-.82a2.673,2.673,0,0,1,.82-2.1,3.359,3.359,0,0,1,2.322-.736,4.165,4.165,0,0,1,.575.04q.289.04.648.114L143.481-9.6q-.205-.037-.359-.055a3.228,3.228,0,0,0-.374-.018.989.989,0,0,0-.718.242.915.915,0,0,0-.249.688v.82h1.567v1.714h-1.567V0Zm4.512-4.036a4.189,4.189,0,0,1,1.011-2.911,3.6,3.6,0,0,1,2.82-1.124,3.606,3.606,0,0,1,2.827,1.124,4.189,4.189,0,0,1,1.011,2.911v.154a4.186,4.186,0,0,1-1.011,2.915A3.594,3.594,0,0,1,147.656.154a3.621,3.621,0,0,1-2.834-1.121,4.186,4.186,0,0,1-1.011-2.915Zm2.476.154a3.276,3.276,0,0,0,.311,1.564,1.107,1.107,0,0,0,1.058.568,1.1,1.1,0,0,0,1.04-.571,3.248,3.248,0,0,0,.315-1.56v-.154a3.26,3.26,0,0,0-.315-1.549,1.1,1.1,0,0,0-1.055-.582,1.088,1.088,0,0,0-1.044.586,3.3,3.3,0,0,0-.311,1.545Zm10.664-1.934-.806-.007a1.372,1.372,0,0,0-.7.157.971.971,0,0,0-.4.443V0h-2.476V-7.925H154.9l.088,1.165a2.39,2.39,0,0,1,.659-.967,1.447,1.447,0,0,1,.959-.344,1.841,1.841,0,0,1,.3.022,2.271,2.271,0,0,1,.278.066Z" transform="translate(209.61 1939.405) rotate(-3)" fill="#fff"/>
    <path id="Path_979" data-name="Path 979" d="M10.313,0,9.106,9.106,0,7.9" transform="matrix(0.978, 0.208, -0.208, 0.978, 413.009, 1899.866)" fill="none" stroke="#000" stroke-linecap="round" stroke-linejoin="round" stroke-width="1.5"/>
    <path id="Path_980" data-name="Path 980" d="M0,10.4a12.991,12.991,0,0,1,25.414-.211" transform="translate(393.669 1900.754) rotate(-3)" fill="none" stroke="#000" stroke-linecap="round" stroke-linejoin="round" stroke-width="1.5"/>
    <line id="Line_48" data-name="Line 48" y1="9.051" x2="9.051" transform="translate(385.286 1920.921) rotate(-3)" fill="none" stroke="#fff" stroke-linecap="round" stroke-linejoin="round" stroke-width="2"/>
    <line id="Line_49" data-name="Line 49" x1="9.051" y1="9.051" transform="translate(385.286 1920.921) rotate(-3)" fill="none" stroke="#fff" stroke-linecap="round" stroke-linejoin="round" stroke-width="2"/>
    <path id="Path_978" data-name="Path 978" d="M19.813,6.187V3.71a2.477,2.477,0,0,0-4.953,0V2.477a2.477,2.477,0,0,0-4.953,0V3.715a2.477,2.477,0,0,0-4.953,0v8.668A4.953,4.953,0,0,0,0,17.337a11.59,11.59,0,0,0,2.16,6.738l1.816,2.534a7.431,7.431,0,0,0,6.04,3.111h6.3a8.456,8.456,0,0,0,8.455-8.455V6.187a2.477,2.477,0,1,0-4.953,0Z" transform="translate(387.752 1937.169) rotate(-3)" fill="#fff" stroke="#000" stroke-linecap="round" stroke-linejoin="round" stroke-width="1.5"/>
    <line id="Line_68" data-name="Line 68" y1="6.192" transform="translate(397.839 1940.356) rotate(-3)" fill="none" stroke="#000" stroke-linecap="round" stroke-linejoin="round" stroke-width="1.5"/>
    <line id="Line_69" data-name="Line 69" y1="6.192" transform="translate(402.786 1940.097) rotate(-3)" fill="none" stroke="#000" stroke-linecap="round" stroke-linejoin="round" stroke-width="1.5"/>
    <line id="Line_70" data-name="Line 70" y1="3.715" transform="translate(407.862 1942.311) rotate(-3)" fill="none" stroke="#000" stroke-linecap="round" stroke-linejoin="round" stroke-width="1.5"/>
    <line id="Line_67" data-name="Line 67" y2="3.715" transform="translate(393.347 1949.271) rotate(-3)" fill="none" stroke="#000" stroke-linecap="round" stroke-linejoin="round" stroke-width="1.5"/>
  </g>
</svg>
