<?xml version="1.0" encoding="UTF-8"?>
<svg width="26px" height="26px" viewBox="0 0 26 26" version="1.1" xmlns="http://www.w3.org/2000/svg" xmlns:xlink="http://www.w3.org/1999/xlink">
    <!-- Generator: Sketch 50.2 (55047) - http://www.bohemiancoding.com/sketch -->
    <title>message - icon</title>
    <desc>Created with Sketch.</desc>
    <defs></defs>
    <g id="Page-1" stroke="none" stroke-width="1" fill="none" fill-rule="evenodd">
        <g id="message---icon" fill="#FFFFFF" fill-rule="nonzero">
            <path d="M13.34,0.47 C10.0141849,0.467346777 6.82353264,1.78597768 4.46995086,4.13580873 C2.11636909,6.48563978 0.792651108,9.67418489 0.79,13 C0.786592189,15.3552775 1.45620621,17.6624968 2.72,19.65 L0.78,25.65 L6.78,23.73 C8.74226286,24.9419456 11.0036434,25.5826123 13.31,25.58 C20.1005165,25.3882609 25.5057755,19.8282229 25.5057755,13.035 C25.5057755,6.24177707 20.1005165,0.681739126 13.31,0.49 L13.34,0.47 Z M21.52,21.2 C17.6408677,25.0689108 11.5799511,25.6866902 7,22.68 L2.36,24.15 L3.48,20.69 L3.85,19.57 C0.39332476,14.5210395 1.46129412,7.65416753 6.28808679,3.89349229 C11.1148795,0.132817053 18.0344374,0.776406153 22.0848723,5.36275363 C26.1353072,9.9491011 25.9185354,16.8951431 21.59,21.22 L21.52,21.2 Z" id="Shape"></path>
            <path d="M10.13,10.45 L12.59,10.45 C12.8325382,11.2370562 12.9539269,12.0564304 12.95,12.88 C12.9866109,13.6072681 12.7473261,14.3215508 12.28,14.88 C11.7608912,15.4202178 11.0268674,15.6991468 10.28,15.64 L10.28,14.45 C10.98,14.45 11.34,14.02 11.34,13.15 L11.34,12.75 L10.13,12.75 L10.13,10.45 Z M13.71,10.45 L16.18,10.45 C16.4225382,11.2370562 16.5439269,12.0564304 16.54,12.88 C16.571729,13.6065894 16.3330206,14.3191517 15.87,14.88 C15.3500934,15.4190101 14.6166618,15.6977142 13.87,15.64 L13.87,14.45 C14.58,14.45 14.94,14.02 14.94,13.15 L14.94,12.75 L13.71,12.75 L13.71,10.45 Z" id="Shape"></path>
        </g>
    </g>
</svg>