<svg id="Layer_1" data-name="Layer 1" xmlns="http://www.w3.org/2000/svg" viewBox="0 0 47.29 50.81"><defs><style>.cls-1{fill:#4c4c4c;fill-rule:evenodd;}</style></defs><title>MG</title><path class="cls-1" d="M33.83,2.31H13.68L.56,15.43v20l13,13.07h20L46.74,35.38V15.33l-12.91-13Zm8.92,31.28L31.83,44.51H15.46L4.54,33.64V17.22L15.46,6.35H32L42.75,17.11V33.59Z"/><polygon class="cls-1" points="13.84 20.21 11.06 14.54 6.91 18.43 6.91 32.33 10.9 36.37 10.9 22.83 14.37 30.55 18.3 20.26 18.3 41.83 22.71 41.83 22.71 8.98 18.04 8.98 13.84 20.21 13.84 20.21 13.84 20.21"/><path class="cls-1" d="M25.79,9V41.83h5l9.55-9.5V25.41H33v4h2.73c.73-.1.78.74.26,1.37s-5.83,5.82-5.83,5.82h0V14.23l6.19,6.45v1.58h4V18.58L30.94,9Z"/></svg>