<?xml version="1.0" encoding="UTF-8" standalone="no"?>
<!DOCTYPE svg PUBLIC "-//W3C//DTD SVG 1.1//EN" "http://www.w3.org/Graphics/SVG/1.1/DTD/svg11.dtd">
<svg width="100%" height="100%" viewBox="0 0 138 138" version="1.1" xmlns="http://www.w3.org/2000/svg" xmlns:xlink="http://www.w3.org/1999/xlink" xml:space="preserve" xmlns:serif="http://www.serif.com/" style="fill-rule:evenodd;clip-rule:evenodd;stroke-linejoin:round;stroke-miterlimit:1.41421;">
    <g transform="matrix(4.16667,0,0,4.16667,135.217,68.9458)">
        <path d="M0,-0.001L-0.64,-0.001C-0.64,4.217 -2.347,8.029 -5.111,10.794C-7.875,13.558 -11.688,15.265 -15.906,15.266C-20.123,15.265 -23.936,13.558 -26.701,10.794C-29.464,8.029 -31.171,4.217 -31.172,-0.001C-31.171,-4.219 -29.464,-8.031 -26.701,-10.795C-23.936,-13.559 -20.123,-15.267 -15.906,-15.267C-11.688,-15.267 -7.875,-13.559 -5.111,-10.795C-2.347,-8.031 -0.64,-4.219 -0.64,-0.001L0.64,-0.001C0.64,-9.14 -6.767,-16.547 -15.906,-16.547C-25.044,-16.547 -32.451,-9.14 -32.452,-0.001C-32.451,9.138 -25.044,16.545 -15.906,16.546C-6.767,16.545 0.64,9.138 0.64,-0.001L0,-0.001Z" style="fill:rgb(10,116,120);fill-rule:nonzero;"/>
    </g>
    <g transform="matrix(4.16667,0,0,4.16667,74.6454,28.1213)">
        <path d="M0,13L-2.932,13C-2.94,12.568 -2.944,12.305 -2.944,12.21C-2.944,11.236 -2.787,10.435 -2.473,9.806C-2.158,9.178 -1.529,8.471 -0.586,7.685C0.355,6.899 0.919,6.385 1.104,6.141C1.387,5.756 1.529,5.331 1.529,4.868C1.529,4.224 1.278,3.671 0.775,3.212C0.273,2.752 -0.403,2.522 -1.254,2.522C-2.074,2.522 -2.76,2.763 -3.312,3.241C-3.863,3.721 -4.243,4.451 -4.45,5.434L-7.417,5.057C-7.332,3.65 -6.748,2.456 -5.663,1.474C-4.578,0.492 -3.155,0 -1.392,0C0.464,0 1.939,0.497 3.035,1.491C4.131,2.485 4.679,3.643 4.679,4.962C4.679,5.693 4.478,6.385 4.075,7.036C3.673,7.689 2.813,8.577 1.494,9.7C0.812,10.282 0.389,10.749 0.224,11.103C0.059,11.456 -0.016,12.089 0,13" style="fill:rgb(10,116,120);fill-rule:nonzero;"/>
    </g>
    <g transform="matrix(4.16667,0,0,4.16667,77.7908,100.617)">
        <path d="M0,-0.025C0,0.578 -0.211,1.098 -0.633,1.537C-1.055,1.976 -1.576,2.196 -2.195,2.196C-2.505,2.196 -2.794,2.136 -3.06,2.015C-3.328,1.895 -3.56,1.735 -3.758,1.537C-3.957,1.339 -4.115,1.107 -4.236,0.84C-4.356,0.573 -4.417,0.285 -4.417,-0.025C-4.417,-0.645 -4.197,-1.167 -3.758,-1.588C-3.319,-2.009 -2.798,-2.221 -2.195,-2.221C-1.593,-2.221 -1.077,-2.005 -0.646,-1.575C-0.216,-1.144 0,-0.629 0,-0.025" style="fill:rgb(10,116,120);fill-rule:nonzero;"/>
    </g>
</svg>
