<?xml version="1.0" encoding="UTF-8" standalone="no"?>
<!DOCTYPE svg PUBLIC "-//W3C//DTD SVG 1.1//EN" "http://www.w3.org/Graphics/SVG/1.1/DTD/svg11.dtd">
<svg width="100%" height="100%" viewBox="0 0 138 138" version="1.1" xmlns="http://www.w3.org/2000/svg" xmlns:xlink="http://www.w3.org/1999/xlink" xml:space="preserve" xmlns:serif="http://www.serif.com/" style="fill-rule:evenodd;clip-rule:evenodd;stroke-linejoin:round;stroke-miterlimit:1.41421;">
    <g transform="matrix(4.16667,0,0,4.16667,135.217,68.9417)">
        <path d="M0,0L-0.64,0C-0.64,4.217 -2.347,8.03 -5.111,10.795C-7.875,13.558 -11.688,15.266 -15.906,15.266C-20.123,15.266 -23.936,13.558 -26.701,10.795C-29.464,8.03 -31.171,4.217 -31.172,0C-31.171,-4.218 -29.464,-8.03 -26.701,-10.795C-23.936,-13.559 -20.123,-15.266 -15.906,-15.266C-11.688,-15.266 -7.875,-13.559 -5.111,-10.795C-2.347,-8.03 -0.64,-4.218 -0.64,0L0.64,0C0.64,-9.139 -6.767,-16.546 -15.906,-16.546C-25.044,-16.546 -32.451,-9.139 -32.452,0C-32.451,9.139 -25.044,16.546 -15.906,16.546C-6.767,16.546 0.64,9.139 0.64,0L0,0Z" style="fill:rgb(10,116,120);fill-rule:nonzero;"/>
    </g>
    <g transform="matrix(4.16667,0,0,4.16667,95.4646,39.4638)">
        <path d="M0,12.229L0,14.904L-11.584,14.904L-12.109,13.161C-11.393,12.476 -10.872,11.771 -10.545,11.047C-10.219,10.322 -10.055,9.419 -10.055,8.335C-10.055,8.224 -10.072,8.041 -10.104,7.787L-12.73,7.787L-12.73,5.493L-10.772,5.493C-11.074,4.49 -11.226,3.551 -11.226,2.675C-11.226,0.972 -10.708,-0.346 -9.673,-1.278C-8.638,-2.209 -7.249,-2.675 -5.505,-2.675C-3.762,-2.675 -2.433,-2.181 -1.517,-1.194C-0.602,-0.207 -0.136,1.051 -0.12,2.58L-3.2,2.58C-3.2,0.923 -3.989,0.096 -5.565,0.096C-6.346,0.096 -6.955,0.319 -7.392,0.764C-7.831,1.21 -8.049,1.851 -8.049,2.687C-8.049,3.523 -7.882,4.458 -7.548,5.493L-3.01,5.493L-3.01,7.787L-6.903,7.787C-6.871,8.041 -6.855,8.232 -6.855,8.36C-6.855,9.888 -7.388,11.178 -8.455,12.229L0,12.229Z" style="fill:rgb(10,116,120);fill-rule:nonzero;"/>
    </g>
</svg>
