<?xml version="1.0" encoding="UTF-8" standalone="no"?>
<!DOCTYPE svg PUBLIC "-//W3C//DTD SVG 1.1//EN" "http://www.w3.org/Graphics/SVG/1.1/DTD/svg11.dtd">
<svg width="100%" height="100%" viewBox="0 0 190 89" version="1.1" xmlns="http://www.w3.org/2000/svg" xmlns:xlink="http://www.w3.org/1999/xlink" xml:space="preserve" xmlns:serif="http://www.serif.com/" style="fill-rule:evenodd;clip-rule:evenodd;stroke-linejoin:round;stroke-miterlimit:1.41421;">
    <g transform="matrix(4.16667,0,0,4.16667,-70.9692,-949.88)">
        <g transform="matrix(1,0,0,1,28.6899,246.092)">
            <path d="M0,0L-0.477,0C-0.479,1.238 -1.481,2.24 -2.72,2.243C-3.958,2.24 -4.96,1.238 -4.962,0C-4.96,-1.238 -3.958,-2.241 -2.72,-2.243C-1.481,-2.241 -0.479,-1.238 -0.477,0L0.477,0C0.476,-1.766 -0.955,-3.196 -2.72,-3.196C-4.485,-3.196 -5.916,-1.765 -5.916,0C-5.916,1.765 -4.485,3.195 -2.72,3.196C-0.955,3.195 0.476,1.765 0.477,0L0,0Z" style="fill:rgb(10,116,120);fill-rule:nonzero;"/>
        </g>
        <g transform="matrix(1,0,0,1,58.2134,246.092)">
            <path d="M0,0L-0.477,0C-0.479,1.238 -1.481,2.24 -2.719,2.243C-3.958,2.24 -4.96,1.238 -4.962,0C-4.96,-1.238 -3.958,-2.241 -2.719,-2.243C-1.481,-2.241 -0.479,-1.238 -0.477,0L0.477,0C0.476,-1.765 -0.954,-3.196 -2.719,-3.196C-4.485,-3.196 -5.916,-1.766 -5.916,0C-5.916,1.765 -4.485,3.195 -2.719,3.196C-0.954,3.195 0.476,1.765 0.477,0L0,0Z" style="fill:rgb(10,116,120);fill-rule:nonzero;"/>
        </g>
        <g transform="matrix(1,0,0,1,52.7744,246.568)">
            <path d="M0,-0.953L-24.084,-0.953L-24.084,0L0,0" style="fill:rgb(10,116,120);fill-rule:nonzero;"/>
        </g>
        <g transform="matrix(1,0,0,1,23.2856,228.923)">
            <path d="M0,16.693L-5.3,16.3L-5.3,14.041L-4.903,13.551L-4.796,13.42L-4.796,6.13L-4.556,5.741L-4.485,5.626L-4.485,1.068L-4.485,0.002L20.822,0.002L21.917,0.276L23.645,1.139L25.559,2.212L26.79,3.032L29.563,5.651L32.932,8.545L37.237,10.195L38.017,11.432L38.343,13.414L38.343,15.99L37.257,16.692L34.928,16.692L34.928,17.645L37.539,17.645L39.296,16.508L39.296,13.337L38.927,11.087L37.875,9.419L33.428,7.714L30.202,4.943L27.386,2.284L26.057,1.398L24.091,0.297L22.25,-0.624L20.939,-0.952L-5.438,-0.952L-5.438,5.356L-5.678,5.745L-5.749,5.86L-5.749,13.082L-6.146,13.571L-6.253,13.702L-6.253,17.186L-0.07,17.644L0,16.693Z" style="fill:rgb(10,116,120);fill-rule:nonzero;"/>
        </g>
        <g transform="matrix(1,0,0,1,55.3872,231.518)">
            <path d="M0,6.808L0.189,6.663L-0.977,5.146L-2.32,3.978L-6.903,0.075L-7.137,-0.075L-7.168,-0.095L-7.913,-0.294L-7.943,-0.301L-10.703,-0.301L-10.703,0.756L-10.201,4.593L-9.485,5.246L-6.357,6.316L0.532,7.109L0.189,6.663L0,6.808L0.027,6.571L-6.251,5.849L-9.237,4.828L-9.751,4.358L-10.226,0.725L-10.226,0.175L-8.005,0.175L-7.363,0.347L-7.187,0.459L-2.628,4.341L-2.474,4.16L-2.63,4.34L-1.325,5.475L-0.189,6.954L0,6.808L0.027,6.571L0,6.808Z" style="fill:rgb(10,116,120);fill-rule:nonzero;"/>
        </g>
    </g>
</svg>
