<?xml version="1.0" encoding="UTF-8" standalone="no"?>
<!DOCTYPE svg PUBLIC "-//W3C//DTD SVG 1.1//EN" "http://www.w3.org/Graphics/SVG/1.1/DTD/svg11.dtd">
<svg width="100%" height="100%" viewBox="0 0 149 149" version="1.1" xmlns="http://www.w3.org/2000/svg" xmlns:xlink="http://www.w3.org/1999/xlink" xml:space="preserve" xmlns:serif="http://www.serif.com/" style="fill-rule:evenodd;clip-rule:evenodd;stroke-linejoin:round;stroke-miterlimit:1.41421;">
    <g transform="matrix(4.16667,0,0,4.16667,84.1967,51.9908)">
        <path d="M0,7.684C-0.486,7.607 -0.498,6.27 -0.498,6.27C-0.498,6.27 0.931,4.856 1.243,2.955C2.08,2.955 2.598,0.933 1.76,0.221C1.795,-0.527 2.836,-5.657 -2.437,-5.657C-7.71,-5.657 -6.668,-0.527 -6.634,0.221C-7.471,0.933 -6.954,2.955 -6.117,2.955C-5.806,4.857 -4.376,6.271 -4.376,6.271C-4.376,6.271 -4.388,7.608 -4.874,7.685C-6.439,7.935 -12.288,10.513 -12.288,13.341L7.414,13.341C7.414,10.513 1.566,7.935 0,7.684" style="fill:white;fill-rule:nonzero;"/>
    </g>
    <g transform="matrix(4.16667,0,0,4.16667,145.962,74.4167)">
        <path d="M0,0.001L-0.691,0.001C-0.691,4.553 -2.534,8.669 -5.518,11.653C-8.501,14.636 -12.617,16.479 -17.17,16.48C-21.723,16.479 -25.838,14.636 -28.823,11.653C-31.805,8.669 -33.648,4.553 -33.649,0.001C-33.648,-4.553 -31.805,-8.668 -28.823,-11.652C-25.838,-14.636 -21.723,-16.478 -17.17,-16.478C-12.617,-16.478 -8.501,-14.636 -5.518,-11.652C-2.534,-8.668 -0.691,-4.553 -0.691,0.001L0.691,0.001C0.691,-9.864 -7.305,-17.86 -17.17,-17.86C-27.035,-17.86 -35.03,-9.864 -35.031,0.001C-35.03,9.865 -27.035,17.861 -17.17,17.861C-7.305,17.861 0.691,9.865 0.691,0.001L0,0.001Z" style="fill:white;fill-rule:nonzero;"/>
    </g>
</svg>
