<?xml version="1.0" encoding="UTF-8" standalone="no"?>
<!DOCTYPE svg PUBLIC "-//W3C//DTD SVG 1.1//EN" "http://www.w3.org/Graphics/SVG/1.1/DTD/svg11.dtd">
<svg width="100%" height="100%" viewBox="0 0 195 68" version="1.1" xmlns="http://www.w3.org/2000/svg" xmlns:xlink="http://www.w3.org/1999/xlink" xml:space="preserve" xmlns:serif="http://www.serif.com/" style="fill-rule:evenodd;clip-rule:evenodd;stroke-linejoin:round;stroke-miterlimit:1.41421;">
    <g transform="matrix(4.16667,0,0,4.16667,-68.6337,-489.534)">
        <g transform="matrix(1,0,0,1,28.7402,130.767)">
            <path d="M0,1.093L23.658,1.093L23.658,0L0,0" style="fill:rgb(10,116,120);fill-rule:nonzero;"/>
        </g>
        <g transform="matrix(1,0,0,1,28.8921,130.103)">
            <path d="M0,0L-0.546,0C-0.549,1.419 -1.697,2.568 -3.117,2.57C-4.536,2.568 -5.685,1.419 -5.687,0C-5.685,-1.419 -4.536,-2.568 -3.117,-2.57C-1.697,-2.568 -0.549,-1.419 -0.546,0L0.546,0C0.546,-2.023 -1.093,-3.663 -3.117,-3.663C-5.14,-3.663 -6.779,-2.023 -6.78,0C-6.779,2.023 -5.14,3.663 -3.117,3.663C-1.093,3.663 0.546,2.023 0.546,0L0,0Z" style="fill:rgb(10,116,120);fill-rule:nonzero;"/>
        </g>
        <g transform="matrix(1,0,0,1,58.2681,130.033)">
            <path d="M0,0L-0.546,0C-0.549,1.419 -1.697,2.568 -3.117,2.57C-4.536,2.568 -5.684,1.419 -5.687,0C-5.684,-1.419 -4.536,-2.568 -3.117,-2.57C-1.697,-2.568 -0.549,-1.419 -0.546,0L0.546,0C0.546,-2.023 -1.093,-3.663 -3.117,-3.663C-5.14,-3.663 -6.779,-2.023 -6.78,0C-6.779,2.023 -5.14,3.663 -3.117,3.663C-1.093,3.663 0.546,2.023 0.546,0L0,0Z" style="fill:rgb(10,116,120);fill-rule:nonzero;"/>
        </g>
        <g transform="matrix(1,0,0,1,22.4971,119)">
            <path d="M0,11.394L-3.225,11.394L-3.225,11.94L-2.8,11.597L-4.864,9.048L-4.047,4.305L-2.914,3.336L-0.266,2.723L9.885,-0.418L19.029,-0.296L27.136,3.502L37.433,6.083L38.918,7.39L39.421,11.796L35.754,11.813L35.759,12.906L40.645,12.884L39.957,6.848L37.956,5.087L27.504,2.468L19.279,-1.386L9.727,-1.512L-0.551,1.667L-3.42,2.331L-5.057,3.73L-6.025,9.351L-3.486,12.487L0,12.487L0,11.394Z" style="fill:rgb(10,116,120);fill-rule:nonzero;"/>
        </g>
        <g transform="matrix(1,0,0,1,46.7998,120.188)">
            <path d="M0,2.826L0.124,2.583L-5.356,-0.214L-14.273,-0.281L-21.51,2.231L-14.292,2.999L1.152,3.107L0.124,2.583L0,2.826L0.002,2.553L-14.262,2.453L-19.024,1.946L-14.184,0.265L-5.49,0.331L-0.125,3.069L0,2.826L0.002,2.553L0,2.826Z" style="fill:rgb(10,116,120);fill-rule:nonzero;"/>
        </g>
    </g>
</svg>
