<?xml version="1.0" encoding="UTF-8" standalone="no"?>
<!DOCTYPE svg PUBLIC "-//W3C//DTD SVG 1.1//EN" "http://www.w3.org/Graphics/SVG/1.1/DTD/svg11.dtd">
<svg width="100%" height="100%" viewBox="0 0 145 132" version="1.1" xmlns="http://www.w3.org/2000/svg" xmlns:xlink="http://www.w3.org/1999/xlink" xml:space="preserve" xmlns:serif="http://www.serif.com/" style="fill-rule:evenodd;clip-rule:evenodd;stroke-linejoin:round;stroke-miterlimit:1.41421;">
    <g transform="matrix(4.16667,0,0,4.16667,137.246,79.2208)">
        <path d="M0,-6.488C-0.326,-5.38 -0.796,-4.312 -1.394,-3.325L-1.395,-3.324C-2.994,-0.667 -5.49,1.42 -7.937,3.716C-9.835,5.503 -11.734,7.291 -13.632,9.079L-15.653,10.938C-16.207,10.432 -17.203,9.518 -17.667,9.081C-19.566,7.293 -21.465,5.504 -23.364,3.716C-25.811,1.42 -28.307,-0.667 -29.907,-3.324C-30.505,-4.313 -30.975,-5.38 -31.301,-6.488C-31.6,-7.502 -31.759,-8.556 -31.759,-9.602C-31.759,-10.073 -31.727,-10.542 -31.661,-11.005L-31.661,-11.006C-31.29,-13.673 -29.394,-16.137 -26.917,-17.221C-25.986,-17.634 -24.977,-17.834 -23.958,-17.834C-22.642,-17.835 -21.313,-17.496 -20.148,-16.855L-20.145,-16.853C-19.517,-16.509 -18.93,-16.061 -18.384,-15.548C-18.091,-15.272 -17.797,-14.918 -17.497,-14.536L-17.493,-14.531C-17.343,-14.341 -17.193,-14.141 -17.041,-13.936L-17.026,-13.917L-16.822,-13.677L-16.737,-13.57L-16.718,-13.535L-16.526,-13.286L-16.178,-12.836L-15.768,-12.306L-14.884,-13.19L-14.848,-13.228L-14.836,-13.241L-14.599,-13.53L-14.599,-13.529L-14.591,-13.54L-14.579,-13.554L-14.573,-13.563L-14.443,-13.719L-14.284,-13.907L-14.538,-14.141L-14.261,-13.936C-14.109,-14.141 -13.958,-14.341 -13.808,-14.531L-13.804,-14.536C-13.503,-14.918 -13.21,-15.272 -12.917,-15.548C-12.372,-16.061 -11.784,-16.508 -11.157,-16.853L-11.153,-16.855C-9.989,-17.496 -8.66,-17.835 -7.343,-17.834C-6.325,-17.834 -5.315,-17.633 -4.384,-17.221L-4.146,-17.761L-4.384,-17.221C-1.908,-16.137 -0.011,-13.673 0.359,-11.006L0.36,-11.005C0.426,-10.542 0.458,-10.073 0.458,-9.602C0.458,-8.556 0.299,-7.502 0,-6.488M1.638,-9.602C1.638,-10.127 1.602,-10.651 1.528,-11.171C1.083,-14.272 -1.048,-17.037 -3.908,-18.301C-4.998,-18.782 -6.17,-19.013 -7.343,-19.013C-8.804,-19.013 -10.262,-18.646 -11.566,-17.962L-11.589,-17.962L-11.721,-17.889C-12.455,-17.486 -13.121,-16.976 -13.726,-16.407C-14.086,-16.066 -14.401,-15.681 -14.704,-15.299L-14.709,-15.294L-14.73,-15.266C-14.889,-15.066 -15.043,-14.861 -15.196,-14.655L-15.347,-14.477L-15.349,-14.474L-15.493,-14.302L-15.506,-14.286L-15.514,-14.274L-15.661,-14.095L-15.723,-14.175L-15.744,-14.216L-15.901,-14.416L-15.909,-14.425L-16.106,-14.656C-16.258,-14.861 -16.411,-15.065 -16.57,-15.266L-16.592,-15.294L-16.596,-15.298C-16.899,-15.681 -17.215,-16.066 -17.575,-16.407C-18.181,-16.976 -18.847,-17.486 -19.58,-17.889L-19.712,-17.962L-19.736,-17.962C-21.04,-18.646 -22.497,-19.013 -23.958,-19.013C-25.131,-19.013 -26.304,-18.782 -27.393,-18.301C-30.253,-17.037 -32.385,-14.272 -32.829,-11.171C-32.903,-10.651 -32.939,-10.127 -32.939,-9.602C-32.939,-8.437 -32.762,-7.272 -32.433,-6.155C-32.078,-4.949 -31.567,-3.79 -30.917,-2.714C-29.172,0.169 -26.578,2.31 -24.172,4.575C-22.273,6.364 -20.375,8.152 -18.476,9.941C-18.142,10.255 -17.556,10.794 -17.042,11.266C-16.786,11.501 -16.547,11.72 -16.367,11.884C-16.184,12.051 -16.077,12.149 -16.034,12.186L-15.637,12.525L-12.827,9.942L-12.826,9.941C-10.926,8.152 -9.027,6.363 -7.128,4.575C-4.724,2.31 -2.129,0.169 -0.385,-2.714C0.267,-3.789 0.777,-4.949 1.132,-6.155C1.461,-7.272 1.638,-8.437 1.638,-9.602" style="fill:white;fill-rule:nonzero;"/>
    </g>
</svg>
