<?xml version="1.0" encoding="UTF-8" standalone="no"?><!DOCTYPE svg PUBLIC "-//W3C//DTD SVG 1.1//EN" "http://www.w3.org/Graphics/SVG/1.1/DTD/svg11.dtd"><svg width="100%" height="100%" viewBox="0 0 149 149" version="1.1" xmlns="http://www.w3.org/2000/svg" xmlns:xlink="http://www.w3.org/1999/xlink" xml:space="preserve" xmlns:serif="http://www.serif.com/" style="fill-rule:evenodd;clip-rule:evenodd;stroke-linejoin:round;stroke-miterlimit:1.41421;"><clipPath id="_clip1"><rect id="mobile_message" x="-0.089" y="29.667" width="148.534" height="90.157"/></clipPath><g clip-path="url(#_clip1)"><path d="M142.82,112.709l-36.189,-40.876l36.189,-35.327l0,76.203Zm-136.962,1.309l37.523,-42.379l9.513,9.287c6.11,5.964 14.175,8.95 22.213,8.95c8.034,0 16.099,-2.986 22.209,-8.95l8.351,-8.152l36.507,41.244l-136.316,0Zm-0.492,-79.022l0.476,0l36.567,35.695l-37.043,41.844l0,-77.539Zm131.285,0l-43.192,42.162c-5.046,4.93 -11.687,7.389 -18.352,7.389c-6.669,0 -13.31,-2.459 -18.353,-7.389l-43.195,-42.162l123.092,0Zm5.459,-5.329l-134.01,0l-7.717,0l-0.472,0l0,89.68l148.364,0l0,-2.664l0,-85.502l0,-1.514l-6.165,0Z" style="fill:#fff;fill-rule:nonzero;"/></g></svg>