<?xml version="1.0" encoding="UTF-8" standalone="no"?>
<!DOCTYPE svg PUBLIC "-//W3C//DTD SVG 1.1//EN" "http://www.w3.org/Graphics/SVG/1.1/DTD/svg11.dtd">
<svg width="100%" height="100%" viewBox="0 0 149 149" version="1.1" xmlns="http://www.w3.org/2000/svg" xmlns:xlink="http://www.w3.org/1999/xlink" xml:space="preserve" xmlns:serif="http://www.serif.com/" style="fill-rule:evenodd;clip-rule:evenodd;stroke-linejoin:round;stroke-miterlimit:1.41421;">
    <g transform="matrix(4.16667,0,0,4.16667,122.467,26.1208)">
        <path d="M0,23.107C-2.97,26.076 -7.067,27.91 -11.598,27.911C-14.932,27.91 -18.025,26.912 -20.613,25.205L-20.673,25.167L-20.68,25.174L-20.68,25.169L-27.256,27.254L-25.662,22.354L-25.659,22.359L-25.133,20.767C-26.94,18.131 -28,14.947 -28,11.508C-28,6.977 -26.166,2.88 -23.196,-0.089C-20.226,-3.059 -16.13,-4.894 -11.598,-4.894C-7.067,-4.894 -2.97,-3.059 0,-0.089C2.969,2.88 4.803,6.977 4.804,11.508C4.803,16.04 2.969,20.136 0,23.107M-11.598,-6.269C-21.417,-6.269 -29.376,1.69 -29.376,11.508C-29.376,14.976 -28.365,18.197 -26.646,20.93L-29.392,29.376L-20.841,26.664C-18.147,28.316 -14.991,29.286 -11.598,29.287C-1.779,29.286 6.179,21.328 6.18,11.508C6.179,1.69 -1.779,-6.269 -11.598,-6.269" style="fill:white;fill-rule:nonzero;"/>
    </g>
    <g transform="matrix(4.16667,0,0,4.16667,76.365,89.6112)">
        <path d="M0,-7.369L3.489,-7.369C3.83,-6.266 4,-5.118 4,-3.926C4,-2.732 3.684,-1.779 3.053,-1.068C2.421,-0.356 1.484,0 0.241,0L0.241,-1.684C1.243,-1.684 1.745,-2.296 1.745,-3.519L1.745,-4.091L0,-4.091L0,-7.369ZM-5.083,-7.369L-1.594,-7.369C-1.253,-6.266 -1.083,-5.118 -1.083,-3.926C-1.083,-2.732 -1.398,-1.779 -2.031,-1.068C-2.662,-0.356 -3.6,0 -4.842,0L-4.842,-1.684C-3.84,-1.684 -3.339,-2.296 -3.339,-3.519L-3.339,-4.091L-5.083,-4.091L-5.083,-7.369Z" style="fill:white;fill-rule:nonzero;"/>
    </g>
</svg>
