<?xml version="1.0" encoding="UTF-8" standalone="no"?>
<!DOCTYPE svg PUBLIC "-//W3C//DTD SVG 1.1//EN" "http://www.w3.org/Graphics/SVG/1.1/DTD/svg11.dtd">
<svg width="100%" height="100%" viewBox="0 0 127 153" version="1.1" xmlns="http://www.w3.org/2000/svg" xmlns:xlink="http://www.w3.org/1999/xlink" xml:space="preserve" xmlns:serif="http://www.serif.com/" style="fill-rule:evenodd;clip-rule:evenodd;stroke-linejoin:round;stroke-miterlimit:1.41421;">
    <g transform="matrix(4.16667,0,0,4.16667,123.15,21.1879)">
        <path d="M0,26.533L0.675,26.398C0.525,25.665 0.173,25.076 -0.124,24.558C-0.673,23.613 -1.332,22.581 -2.176,21.75C-3.013,20.925 -4.085,20.277 -5.383,20.277L-5.477,20.278L-5.484,20.279L-5.475,20.278C-6.691,20.313 -7.675,20.887 -8.562,21.366C-9.453,21.86 -10.246,22.258 -10.992,22.25L-11.086,22.248C-12.064,22.222 -13.299,21.487 -14.399,20.446C-15.504,19.416 -16.481,18.124 -17.083,17.162C-17.222,16.939 -20.568,11.59 -20.568,11.59L-21.151,11.954L-20.549,11.622C-20.76,11.241 -21.026,10.866 -21.247,10.506C-21.47,10.15 -21.635,9.807 -21.67,9.599L-21.696,9.311C-21.701,8.803 -21.441,8.193 -21.022,7.641C-20.609,7.091 -20.051,6.607 -19.593,6.332C-18.812,5.858 -18.031,5.388 -17.442,4.676C-16.979,4.116 -16.672,3.375 -16.678,2.507C-16.678,2.279 -16.696,2.045 -16.734,1.801C-16.963,0.383 -17.689,-0.767 -18.208,-1.833C-18.693,-2.814 -19.204,-3.604 -19.846,-4.18C-20.481,-4.757 -21.283,-5.092 -22.158,-5.085C-23.057,-5.083 -24.003,-4.773 -25.076,-4.206C-26.035,-3.693 -26.9,-2.781 -27.631,-1.776C-28.355,-0.766 -28.929,0.332 -29.199,1.286C-29.45,2.186 -29.556,3.136 -29.556,4.101C-29.551,7.459 -28.3,11.055 -27.14,13.739C-25.081,18.481 -22.115,22.86 -18.148,26.348C-14.698,29.381 -10.292,31.587 -5.601,31.625L-5.5,31.625C-4.099,31.623 -2.588,31.413 -1.299,30.579C-0.139,29.815 0.729,28.519 0.74,27.06C0.74,26.841 0.719,26.619 0.675,26.397L0,26.533L-0.675,26.668C-0.648,26.798 -0.636,26.929 -0.636,27.06C-0.624,27.928 -1.225,28.896 -2.049,29.426C-2.993,30.044 -4.234,30.252 -5.5,30.25L-5.591,30.249C-9.844,30.221 -13.974,28.189 -17.24,25.315C-21.033,21.98 -23.888,17.776 -25.878,13.191C-27.007,10.6 -28.186,7.115 -28.181,4.101C-28.181,3.235 -28.085,2.411 -27.874,1.657C-27.675,0.934 -27.161,-0.078 -26.515,-0.972C-25.873,-1.868 -25.082,-2.654 -24.434,-2.99C-23.474,-3.499 -22.723,-3.712 -22.158,-3.709C-21.607,-3.703 -21.206,-3.541 -20.763,-3.154C-20.325,-2.766 -19.882,-2.121 -19.442,-1.225C-18.872,-0.083 -18.252,0.959 -18.094,2.012C-18.066,2.192 -18.054,2.356 -18.054,2.507C-18.06,3.078 -18.216,3.438 -18.508,3.805C-18.88,4.267 -19.529,4.691 -20.304,5.154C-20.928,5.533 -21.587,6.107 -22.121,6.813C-22.649,7.518 -23.067,8.366 -23.072,9.311C-23.072,9.492 -23.056,9.675 -23.021,9.857C-22.917,10.379 -22.667,10.818 -22.418,11.227C-22.168,11.633 -21.906,12.007 -21.754,12.286L-21.744,12.303L-21.734,12.319C-21.732,12.321 -20.897,13.656 -20.044,15.021C-19.189,16.387 -18.318,17.78 -18.249,17.891C-17.588,18.946 -16.561,20.307 -15.34,21.451C-14.115,22.584 -12.705,23.544 -11.142,23.623L-10.992,23.626C-9.776,23.618 -8.792,23.053 -7.901,22.573C-7.008,22.077 -6.205,21.664 -5.443,21.654L-5.436,21.654L-5.441,21.654L-5.383,21.653C-4.562,21.653 -3.838,22.051 -3.14,22.731C-2.449,23.408 -1.836,24.345 -1.314,25.248C-1.014,25.762 -0.759,26.23 -0.675,26.668L0,26.533Z" style="fill:white;fill-rule:nonzero;"/>
    </g>
</svg>
