<?xml version="1.0" encoding="UTF-8" standalone="no"?><!DOCTYPE svg PUBLIC "-//W3C//DTD SVG 1.1//EN" "http://www.w3.org/Graphics/SVG/1.1/DTD/svg11.dtd"><svg width="100%" height="100%" viewBox="0 0 234 234" version="1.1" xmlns="http://www.w3.org/2000/svg" xmlns:xlink="http://www.w3.org/1999/xlink" xml:space="preserve" xmlns:serif="http://www.serif.com/" style="fill-rule:evenodd;clip-rule:evenodd;stroke-linejoin:round;stroke-miterlimit:1.41421;"><path d="M0,116.819c0,-64.519 52.3,-116.819 116.813,-116.819c64.525,0 116.824,52.3 116.824,116.819c0,64.518 -52.299,116.818 -116.824,116.818c-64.513,0 -116.813,-52.3 -116.813,-116.818" style="fill:#066c72;fill-rule:nonzero;"/><path d="M81.659,137.271l-2.131,2.144c1.375,1.369 3.188,2.044 4.969,2.044c1.781,0.006 3.606,-0.675 4.981,-2.057l27.338,-27.343l27.343,27.35c1.382,1.375 3.194,2.05 4.975,2.05c1.782,0.006 3.6,-0.675 4.975,-2.05c1.375,-1.369 2.057,-3.194 2.05,-4.975c0.007,-1.782 -0.681,-3.6 -2.05,-4.969l-29.487,-29.488l-7.806,-7.8l-7.807,7.8l-29.487,29.488c-1.369,1.369 -2.056,3.187 -2.05,4.969c-0.006,1.793 0.687,3.606 2.05,4.968l2.137,-2.131Z" style="fill:#fff;fill-rule:nonzero;"/></svg>