<?xml version="1.0" encoding="UTF-8" standalone="no"?>
<!DOCTYPE svg PUBLIC "-//W3C//DTD SVG 1.1//EN" "http://www.w3.org/Graphics/SVG/1.1/DTD/svg11.dtd">
<svg width="100%" height="100%" viewBox="0 0 91 122" version="1.1" xmlns="http://www.w3.org/2000/svg" xmlns:xlink="http://www.w3.org/1999/xlink" xml:space="preserve" xmlns:serif="http://www.serif.com/" style="fill-rule:evenodd;clip-rule:evenodd;stroke-linejoin:round;stroke-miterlimit:1.41421;">
    <g transform="matrix(4.16667,0,0,4.16667,-121.7,-1645.01)">
        <g transform="matrix(1,0,0,1,30.522,422.766)">
            <path d="M0,-26.651L14.338,-26.651L14.338,-21.681L19.206,-21.681L19.206,-0.002L0,-0.002L0,-26.651ZM15.653,-25.985L18.68,-22.996L15.653,-22.996L15.653,-25.985ZM15.519,-27.964L-1.314,-27.964L-1.314,1.313L20.52,1.313L20.52,0.656L20.52,-23.025L15.519,-27.964Z" style="fill:rgb(10,116,120);fill-rule:nonzero;"/>
        </g>
        <g transform="matrix(1,0,0,1,0,234.547)">
            <rect x="33.207" y="167.501" width="13.837" height="1.314" style="fill:rgb(10,116,120);"/>
        </g>
        <g transform="matrix(1,0,0,1,0,258.258)">
            <rect x="33.207" y="155.646" width="13.837" height="1.313" style="fill:rgb(10,116,120);"/>
        </g>
        <g transform="matrix(1,0,0,1,0,242.451)">
            <rect x="33.207" y="163.549" width="13.837" height="1.314" style="fill:rgb(10,116,120);"/>
        </g>
        <g transform="matrix(1,0,0,1,0,250.355)">
            <rect x="33.207" y="159.597" width="13.837" height="1.314" style="fill:rgb(10,116,120);"/>
        </g>
    </g>
</svg>
