<svg xmlns="http://www.w3.org/2000/svg" viewBox="0 0 17.32 22.45"><defs><style>.a{fill:#595959;}</style></defs><title>1</title><path class="a" d="M9.06,8.29a1.8,1.8,0,1,0-.79,0L2.16,21.93a.35.35,0,0,0,.09.42.35.35,0,0,0,.42,0l6-3.49,6,3.49a.41.41,0,0,0,.18.05.39.39,0,0,0,.25-.1.38.38,0,0,0,.09-.42Zm2.52,7.41L9.2,14.14l1.29-.88ZM7.65,6.52A1.08,1.08,0,1,1,8.73,7.6,1.07,1.07,0,0,1,7.65,6.52Zm1,2.65,1.53,3.41L8.55,13.71l-1.48-1ZM6.77,13.41l1.13.74L5.78,15.61ZM3.28,21.2l1.84-4.1L8,18.46Zm2.4-4.64,2.88-2,3,2L8.72,18Zm3.71,1.93,2.81-1.41L14,21.2Z"/><path class="a" d="M2.92,12.71a.5.5,0,0,0,.35-.15.49.49,0,0,0,0-.69,7.79,7.79,0,0,1,0-11,.5.5,0,0,0,0-.7.5.5,0,0,0-.7,0,8.79,8.79,0,0,0,0,12.42A.49.49,0,0,0,2.92,12.71Z"/><path class="a" d="M4.11,11a.45.45,0,0,0,.34.14A.47.47,0,0,0,4.8,11a.49.49,0,0,0,0-.69,5.64,5.64,0,0,1,0-8,.49.49,0,1,0-.69-.69,6.6,6.6,0,0,0,0,9.35Z"/><path class="a" d="M5.74,9.4a.46.46,0,0,0,.34.15.5.5,0,0,0,.35-.84A3.32,3.32,0,0,1,6.43,4a.49.49,0,0,0-.69-.69,4.29,4.29,0,0,0,0,6.09Z"/><path class="a" d="M16.34,6.35a7.75,7.75,0,0,1-2.28,5.52.49.49,0,0,0,0,.69.46.46,0,0,0,.34.15.49.49,0,0,0,.35-.15,8.79,8.79,0,0,0,0-12.42.49.49,0,0,0-.69,0,.5.5,0,0,0,0,.7A7.75,7.75,0,0,1,16.34,6.35Z"/><path class="a" d="M12.52,10.34a.49.49,0,0,0,0,.69.47.47,0,0,0,.35.14.49.49,0,0,0,.35-.14,6.63,6.63,0,0,0,0-9.35.5.5,0,0,0-.7,0,.49.49,0,0,0,0,.69A5.64,5.64,0,0,1,12.52,10.34Z"/><path class="a" d="M10.89,9.4a.48.48,0,0,0,.7,0,4.31,4.31,0,0,0,0-6.09.5.5,0,0,0-.7,0,.49.49,0,0,0,0,.69,3.32,3.32,0,0,1,0,4.71A.49.49,0,0,0,10.89,9.4Z"/></svg>