<?xml version="1.0" encoding="UTF-8" standalone="no"?>
<!DOCTYPE svg PUBLIC "-//W3C//DTD SVG 1.1//EN" "http://www.w3.org/Graphics/SVG/1.1/DTD/svg11.dtd">
<svg width="100%" height="100%" viewBox="0 0 154 174" version="1.1" xmlns="http://www.w3.org/2000/svg" xmlns:xlink="http://www.w3.org/1999/xlink" xml:space="preserve" xmlns:serif="http://www.serif.com/" style="fill-rule:evenodd;clip-rule:evenodd;stroke-linejoin:round;stroke-miterlimit:1.41421;">
    <g transform="matrix(5.55556,0,0,5.55556,-1100.1,-2849.61)">
        <g transform="matrix(1,0,0,1,201.615,533.481)">
            <path d="M0,-10.15L-0.5,-10.15L-0.5,-5.297L1.695,-5.297C2.945,-5.302 3.77,-5.364 4.325,-5.571C4.818,-5.762 5.235,-6.082 5.524,-6.508C5.818,-6.936 5.964,-7.446 5.962,-7.983C5.966,-8.637 5.759,-9.242 5.342,-9.7L5.332,-9.711L5.341,-9.701C4.943,-10.144 4.413,-10.431 3.814,-10.537L3.818,-10.537C3.37,-10.619 2.628,-10.648 1.496,-10.65L0,-10.65L-0.5,-10.65L-0.5,-10.15L0,-10.15L0,-9.65L1.496,-9.65C2.597,-9.651 3.341,-9.611 3.633,-9.553L3.636,-9.553L3.637,-9.552C4.043,-9.477 4.341,-9.311 4.6,-9.03L4.599,-9.03C4.837,-8.761 4.958,-8.446 4.962,-7.983C4.96,-7.615 4.873,-7.33 4.699,-7.073C4.521,-6.816 4.292,-6.633 3.961,-6.504C3.694,-6.39 2.887,-6.292 1.695,-6.297L0.5,-6.297L0.5,-10.15L0,-10.15L0,-9.65L0,-10.15ZM-3.097,2.595L-2.597,2.595L-2.597,-12.245L1.873,-12.245C3.735,-12.248 4.969,-12.16 5.427,-12.032L5.43,-12.031C6.201,-11.826 6.831,-11.402 7.368,-10.708C7.88,-10.041 8.152,-9.168 8.154,-8.026C8.154,-7.143 7.993,-6.436 7.699,-5.885C7.388,-5.302 7.007,-4.866 6.553,-4.548C6.071,-4.214 5.597,-4.003 5.126,-3.9L5.232,-3.412L5.135,-3.902C4.453,-3.766 3.403,-3.691 2.02,-3.691L-0.5,-3.691L-0.5,2.095L-3.097,2.095L-3.097,2.595L-2.597,2.595L-3.097,2.595L-3.097,3.095L0.5,3.095L0.5,-2.691L2.02,-2.691C3.44,-2.692 4.532,-2.764 5.33,-2.921L5.333,-2.921L5.339,-2.922C5.955,-3.057 6.551,-3.33 7.124,-3.727L7.125,-3.728C7.722,-4.143 8.209,-4.714 8.582,-5.416C8.972,-6.148 9.154,-7.024 9.154,-8.026C9.155,-9.325 8.834,-10.444 8.161,-11.318C7.512,-12.165 6.67,-12.742 5.683,-12.999L5.686,-12.998C5,-13.175 3.778,-13.241 1.873,-13.245L-3.597,-13.245L-3.597,3.095L-3.097,3.095L-3.097,2.595Z" style="fill:rgb(2,97,97);fill-rule:nonzero;"/>
        </g>
        <g transform="matrix(1,0,0,1,219.453,541.488)">
            <path d="M0,-25.941C3.021,-22.611 4.901,-17.999 4.9,-12.892C4.901,-7.785 3.021,-3.172 0,0.158C-0.527,0.737 -1.099,1.262 -1.689,1.759L-0.634,2.616C-0.068,2.126 0.479,1.613 0.986,1.054C4.235,-2.525 6.234,-7.457 6.234,-12.892C6.234,-18.327 4.235,-23.258 0.986,-26.837C0.424,-27.459 -0.19,-28.022 -0.826,-28.557L-1.881,-27.701C-1.22,-27.16 -0.583,-26.583 0,-25.941" style="fill:rgb(2,97,97);fill-rule:nonzero;"/>
        </g>
        <g transform="matrix(1,0,0,1,215.409,539.085)">
            <path d="M0,-21.303C2.464,-18.589 3.997,-14.825 3.997,-10.657C3.997,-6.49 2.464,-2.727 0,-0.013C-0.4,0.428 -0.833,0.83 -1.279,1.212L-0.224,2.069C0.198,1.695 0.605,1.303 0.987,0.884C3.677,-2.08 5.33,-6.161 5.33,-10.657C5.33,-15.155 3.677,-19.236 0.987,-22.199C0.61,-22.615 0.207,-23.002 -0.209,-23.372L-1.265,-22.516C-0.824,-22.137 -0.396,-21.739 0,-21.303" style="fill:rgb(2,97,97);fill-rule:nonzero;"/>
        </g>
        <g transform="matrix(1,0,0,1,211.901,536.353)">
            <path d="M0,-15.84C1.829,-13.825 2.971,-11.028 2.971,-7.926C2.971,-4.825 1.829,-2.027 0,-0.013C-0.382,0.407 -0.8,0.784 -1.236,1.132L-0.181,1.989C0.229,1.645 0.625,1.283 0.987,0.884C3.043,-1.381 4.304,-4.497 4.304,-7.926C4.304,-11.357 3.043,-14.472 0.987,-16.736C0.63,-17.131 0.239,-17.489 -0.165,-17.829L-1.221,-16.973C-0.79,-16.628 -0.378,-16.256 0,-15.84" style="fill:rgb(2,97,97);fill-rule:nonzero;"/>
        </g>
    </g>
</svg>
