<?xml version="1.0" encoding="utf-8"?>
<!-- Generator: Adobe Illustrator 16.0.0, SVG Export Plug-In . SVG Version: 6.00 Build 0)  -->
<!DOCTYPE svg PUBLIC "-//W3C//DTD SVG 1.1//EN" "http://www.w3.org/Graphics/SVG/1.1/DTD/svg11.dtd">
<svg version="1.1" id="Layer_1" xmlns="http://www.w3.org/2000/svg" xmlns:xlink="http://www.w3.org/1999/xlink" x="0px" y="0px"
	 width="30.833px" height="32.084px" viewBox="0 0 30.833 32.084" enable-background="new 0 0 30.833 32.084" xml:space="preserve">
<path fill="#057477" d="M27.368,16.865c0,6.603-5.352,11.957-11.956,11.957c-3.534,0-6.711-1.536-8.9-3.977l4.302-4.302H0.697
	v10.117l3.861-3.862c2.691,2.938,6.558,4.781,10.854,4.781c8.126,0,14.716-6.589,14.716-14.715H27.368z"/>
<path fill="#057477" d="M3.457,15.242c0-6.603,5.352-11.956,11.955-11.956c3.536,0,6.713,1.536,8.901,3.975l-4.303,4.302h10.117
	V1.447l-3.861,3.861c-2.691-2.937-6.557-4.78-10.854-4.78c-8.126,0-14.715,6.588-14.715,14.714H3.457z"/>
</svg>
