<svg id="Layer_1" data-name="Layer 1" xmlns="http://www.w3.org/2000/svg" viewBox="0 0 156.02 37.44"><defs><style>.cls-1{fill:#353535;}.cls-2{fill:#057477;}</style></defs><title>symbol</title><path class="cls-1" d="M59.37,8.3a4.17,4.17,0,0,1-2.73.79H54.37V13H52.11V2.12h4.67A3.78,3.78,0,0,1,59.36,3a3.29,3.29,0,0,1,1,2.61A3.37,3.37,0,0,1,59.37,8.3ZM57.63,4.37A1.84,1.84,0,0,0,56.42,4H54.37V7.22h2.05a1.74,1.74,0,0,0,1.21-.39,1.6,1.6,0,0,0,.43-1.24A1.52,1.52,0,0,0,57.63,4.37Z"/><path class="cls-1" d="M65.17,8.11A3.63,3.63,0,0,0,66,7.93a.64.64,0,0,0,.45-.6.7.7,0,0,0-.34-.68,2.2,2.2,0,0,0-1-.19A1.33,1.33,0,0,0,64,6.83a1.52,1.52,0,0,0-.3.74h-2a3.12,3.12,0,0,1,.59-1.74,3.46,3.46,0,0,1,2.88-1.06,5.09,5.09,0,0,1,2.36.52,2,2,0,0,1,1,2V11c0,.26,0,.57,0,.94a1.26,1.26,0,0,0,.12.56.73.73,0,0,0,.32.24V13H66.72a2.18,2.18,0,0,1-.14-.46q0-.21-.06-.48a4.4,4.4,0,0,1-1,.8,3,3,0,0,1-1.54.39,2.69,2.69,0,0,1-1.82-.62,2.23,2.23,0,0,1-.72-1.77,2.29,2.29,0,0,1,1.16-2.15,5.08,5.08,0,0,1,1.86-.52Zm1.29,1a2.28,2.28,0,0,1-.41.21,3.38,3.38,0,0,1-.57.14L65,9.53a3.14,3.14,0,0,0-1,.29.94.94,0,0,0-.5.89.94.94,0,0,0,.3.78,1.15,1.15,0,0,0,.74.24,2.15,2.15,0,0,0,1.27-.4,1.69,1.69,0,0,0,.61-1.45Z"/><path class="cls-1" d="M74.87,4.77h.18V6.94l-.36,0h-.25a1.75,1.75,0,0,0-1.7.83,3.1,3.1,0,0,0-.25,1.43V13H70.37V5h2v1.4a4.6,4.6,0,0,1,.85-1.1,2.33,2.33,0,0,1,1.54-.49Z"/><path class="cls-1" d="M75.46,6.53V5h1.12V2.79h2.08V5H80v1.5H78.66v4.26c0,.33,0,.53.13.61s.34.13.77.13H80v1.57l-1,0a2.67,2.67,0,0,1-2-.52,1.55,1.55,0,0,1-.35-1.11v-5Z"/><polygon class="cls-1" points="93.75 4.05 87.99 4.05 87.99 6.36 93.28 6.36 93.28 8.25 87.99 8.25 87.99 11.05 94.01 11.05 94.01 13.01 85.76 13.01 85.76 2.12 93.75 2.12 93.75 4.05"/><polygon class="cls-1" points="94.82 13.01 97.56 8.93 94.93 4.97 97.51 4.97 98.86 7.3 100.17 4.97 102.68 4.97 100.03 8.9 102.78 13.01 100.16 13.01 98.77 10.59 97.37 13.01 94.82 13.01"/><path class="cls-1" d="M108.85,7.85a2,2,0,0,0-.3-.82,1.3,1.3,0,0,0-1.11-.48,1.46,1.46,0,0,0-1.46,1,4.39,4.39,0,0,0-.2,1.49,4,4,0,0,0,.2,1.42,1.43,1.43,0,0,0,1.43,1,1.25,1.25,0,0,0,1-.4,2.11,2.11,0,0,0,.38-1H111a3.54,3.54,0,0,1-.7,1.81,3.38,3.38,0,0,1-2.94,1.38,3.43,3.43,0,0,1-2.86-1.15,4.66,4.66,0,0,1-.92-3,4.69,4.69,0,0,1,1-3.22,3.5,3.5,0,0,1,2.79-1.15,4.15,4.15,0,0,1,2.48.68A3.14,3.14,0,0,1,111,7.85Z"/><path class="cls-1" d="M118.24,5a2.39,2.39,0,0,1,1,.79,2.13,2.13,0,0,1,.41.93,11.55,11.55,0,0,1,.07,1.56V13h-2.15V8.11a2.1,2.1,0,0,0-.22-1,1.09,1.09,0,0,0-1.08-.57,1.48,1.48,0,0,0-1.26.56,2.56,2.56,0,0,0-.43,1.6V13h-2.11V2.16h2.11V6a2.52,2.52,0,0,1,1.06-1,3,3,0,0,1,1.26-.28A3.49,3.49,0,0,1,118.24,5Z"/><path class="cls-1" d="M124.88,8.11a3.63,3.63,0,0,0,.84-.18.65.65,0,0,0,.46-.6.7.7,0,0,0-.35-.68,2.2,2.2,0,0,0-1-.19,1.33,1.33,0,0,0-1.07.37,1.52,1.52,0,0,0-.3.74h-2a3,3,0,0,1,.6-1.74,3.44,3.44,0,0,1,2.88-1.06,5.15,5.15,0,0,1,2.36.52,2,2,0,0,1,1,2V11c0,.26,0,.57,0,.94a1.23,1.23,0,0,0,.13.56.7.7,0,0,0,.31.24V13h-2.29a2.18,2.18,0,0,1-.14-.46q0-.21-.06-.48a4.2,4.2,0,0,1-1,.8,3,3,0,0,1-1.54.39,2.69,2.69,0,0,1-1.82-.62,2.23,2.23,0,0,1-.72-1.77,2.29,2.29,0,0,1,1.16-2.15,5.08,5.08,0,0,1,1.86-.52Zm1.29,1a2,2,0,0,1-.41.21,3.38,3.38,0,0,1-.57.14l-.47.09a3.23,3.23,0,0,0-1,.29,1,1,0,0,0-.5.89.94.94,0,0,0,.3.78,1.17,1.17,0,0,0,.74.24,2.15,2.15,0,0,0,1.27-.4,1.69,1.69,0,0,0,.61-1.45Z"/><path class="cls-1" d="M136.6,5.42a2.66,2.66,0,0,1,.79,2.17V13h-2.16V8.11a2.27,2.27,0,0,0-.16-1,1.19,1.19,0,0,0-1.18-.62,1.45,1.45,0,0,0-1.46.91,3.24,3.24,0,0,0-.2,1.22V13h-2.11V5h2V6.15a3.66,3.66,0,0,1,.77-.9,2.66,2.66,0,0,1,1.64-.48A3.05,3.05,0,0,1,136.6,5.42Z"/><path class="cls-1" d="M143.33,5a2.5,2.5,0,0,1,1.24,1.17V5h2.06V12.6A4.28,4.28,0,0,1,146.1,15c-.6.9-1.75,1.36-3.46,1.36a4.69,4.69,0,0,1-2.51-.61,2.21,2.21,0,0,1-1.08-1.81h2.29a1,1,0,0,0,.28.53,1.81,1.81,0,0,0,1.15.29,1.52,1.52,0,0,0,1.52-.76,3.83,3.83,0,0,0,.25-1.64v-.52a2.49,2.49,0,0,1-.65.78,2.61,2.61,0,0,1-1.63.48A3.12,3.12,0,0,1,139.78,12a4.4,4.4,0,0,1-.93-3,4.94,4.94,0,0,1,.9-3,2.93,2.93,0,0,1,2.53-1.22A2.82,2.82,0,0,1,143.33,5Zm.72,5.77A2.56,2.56,0,0,0,144.56,9a2.74,2.74,0,0,0-.48-1.75,1.58,1.58,0,0,0-1.3-.59,1.52,1.52,0,0,0-1.52,1A3.62,3.62,0,0,0,141,9a3.06,3.06,0,0,0,.24,1.25,1.53,1.53,0,0,0,1.53,1A1.59,1.59,0,0,0,144.05,10.72Z"/><path class="cls-1" d="M153.84,5.12a3.25,3.25,0,0,1,1.39,1.19A3.89,3.89,0,0,1,155.87,8a9.91,9.91,0,0,1,.07,1.6h-5.86a1.91,1.91,0,0,0,.84,1.69,2.07,2.07,0,0,0,1.16.31,1.82,1.82,0,0,0,1.17-.37,1.69,1.69,0,0,0,.43-.56h2.15a2.55,2.55,0,0,1-.78,1.46,3.92,3.92,0,0,1-3,1.17,4.38,4.38,0,0,1-2.83-1A3.89,3.89,0,0,1,148,9.07a4.35,4.35,0,0,1,1.11-3.21A3.9,3.9,0,0,1,152,4.74,4.59,4.59,0,0,1,153.84,5.12Zm-3.15,1.82a2.2,2.2,0,0,0-.56,1.25h3.63a1.8,1.8,0,0,0-.56-1.28A1.86,1.86,0,0,0,152,6.48,1.67,1.67,0,0,0,150.69,6.94Z"/><path class="cls-1" d="M55.17,19.27h2.58L61.6,30.16H59.13l-.72-2.24h-4l-.74,2.24H51.28ZM55,26h2.79l-1.38-4.28Z"/><polygon class="cls-1" points="67.22 22.11 69.48 22.11 66.57 30.16 64.35 30.16 61.47 22.11 63.83 22.11 65.51 28.05 67.22 22.11"/><path class="cls-1" d="M73.86,25.26a3.62,3.62,0,0,0,.85-.18.64.64,0,0,0,.45-.6.73.73,0,0,0-.35-.69,2.27,2.27,0,0,0-1-.18,1.33,1.33,0,0,0-1.07.37,1.48,1.48,0,0,0-.3.73h-2A3,3,0,0,1,71,23a3.46,3.46,0,0,1,2.88-1.07,5.13,5.13,0,0,1,2.36.53,2,2,0,0,1,1,2v3.69c0,.26,0,.57,0,.93a1.15,1.15,0,0,0,.12.57.78.78,0,0,0,.31.24v.31H75.41a2.31,2.31,0,0,1-.13-.46,3.12,3.12,0,0,1-.06-.49,4.18,4.18,0,0,1-1,.81,3.08,3.08,0,0,1-1.55.39,2.67,2.67,0,0,1-1.81-.62A2.23,2.23,0,0,1,70.13,28a2.29,2.29,0,0,1,1.15-2.15,5.08,5.08,0,0,1,1.86-.52Zm1.29,1a1.77,1.77,0,0,1-.41.21,3,3,0,0,1-.56.14l-.48.09a3,3,0,0,0-1,.29,1,1,0,0,0-.5.89.94.94,0,0,0,.31.78,1.15,1.15,0,0,0,.74.24,2.17,2.17,0,0,0,1.27-.4,1.66,1.66,0,0,0,.6-1.45Z"/><path class="cls-1" d="M81.26,21.15H79.12V19.2h2.14Zm-2.14,1h2.14v8.05H79.12Z"/><rect class="cls-1" x="83.34" y="19.27" width="2.11" height="10.89"/><path class="cls-1" d="M90.69,25.26a3.63,3.63,0,0,0,.84-.18.64.64,0,0,0,.45-.6.71.71,0,0,0-.35-.69,2.27,2.27,0,0,0-1-.18,1.33,1.33,0,0,0-1.07.37,1.48,1.48,0,0,0-.3.73h-2A3.11,3.11,0,0,1,87.8,23a3.46,3.46,0,0,1,2.88-1.07,5.13,5.13,0,0,1,2.36.53,2,2,0,0,1,1,2v3.69c0,.26,0,.57,0,.93a1.27,1.27,0,0,0,.12.57.86.86,0,0,0,.31.24v.31H92.23a3.25,3.25,0,0,1-.13-.46c0-.14,0-.3-.06-.49A4.18,4.18,0,0,1,91,30a3,3,0,0,1-1.54.39,2.69,2.69,0,0,1-1.82-.62A2.23,2.23,0,0,1,87,28a2.29,2.29,0,0,1,1.16-2.15A5.08,5.08,0,0,1,90,25.35Zm1.29,1a2.28,2.28,0,0,1-.41.21,3.38,3.38,0,0,1-.57.14l-.48.09a3,3,0,0,0-1,.29,1,1,0,0,0-.49.89.94.94,0,0,0,.3.78,1.15,1.15,0,0,0,.74.24,2.17,2.17,0,0,0,1.27-.4A1.69,1.69,0,0,0,92,27Z"/><path class="cls-1" d="M102.79,23.07a4.66,4.66,0,0,1,.9,3,5.13,5.13,0,0,1-.89,3.11,2.89,2.89,0,0,1-2.49,1.23A3,3,0,0,1,98.7,30a3.34,3.34,0,0,1-.78-.83v1H95.84V19.28H98v3.88a3,3,0,0,1,.88-.86,2.62,2.62,0,0,1,1.46-.37A3,3,0,0,1,102.79,23.07ZM101,28a3,3,0,0,0,.45-1.73,3.89,3.89,0,0,0-.22-1.42,1.54,1.54,0,0,0-1.56-1.06,1.59,1.59,0,0,0-1.59,1,3.87,3.87,0,0,0-.22,1.43A3,3,0,0,0,98.35,28a1.6,1.6,0,0,0,1.41.68A1.46,1.46,0,0,0,101,28Z"/><rect class="cls-1" x="105.2" y="19.27" width="2.11" height="10.89"/><path class="cls-1" d="M114.61,22.27A3.31,3.31,0,0,1,116,23.46a4,4,0,0,1,.64,1.67,9.84,9.84,0,0,1,.07,1.59h-5.87a1.94,1.94,0,0,0,.85,1.7,2.07,2.07,0,0,0,1.16.31,1.62,1.62,0,0,0,1.6-.93h2.15a2.67,2.67,0,0,1-.78,1.46,3.92,3.92,0,0,1-3,1.17,4.41,4.41,0,0,1-2.84-1,3.89,3.89,0,0,1-1.23-3.22A4.35,4.35,0,0,1,109.83,23a3.86,3.86,0,0,1,2.88-1.12A4.64,4.64,0,0,1,114.61,22.27Zm-3.15,1.82a2.14,2.14,0,0,0-.56,1.25h3.62a1.73,1.73,0,0,0-.56-1.28,1.83,1.83,0,0,0-1.25-.43A1.65,1.65,0,0,0,111.46,24.09Z"/><path class="cls-2" d="M29.68,18A13.25,13.25,0,0,1,6.57,26.81l4.77-4.76H.14v11.2L4.41,29A16.29,16.29,0,0,0,32.73,18Z"/><path class="cls-2" d="M3.19,16.17a13.24,13.24,0,0,1,23.1-8.84L21.53,12.1h11.2V.89L28.45,5.17a16.29,16.29,0,0,0-28.31,11Z"/></svg>