<svg id="Layer_1" data-name="Layer 1" xmlns="http://www.w3.org/2000/svg" viewBox="0 0 45.14 21.12"><defs><style>.cls-1{fill:#057477;}</style></defs><title>symbol</title><path class="cls-1" d="M11.55,18h-.47a2.22,2.22,0,1,1-2.22-2.23A2.23,2.23,0,0,1,11.08,18H12a3.17,3.17,0,1,0-3.16,3.16A3.16,3.16,0,0,0,12,18Z"/><path class="cls-1" d="M40.81,18h-.47a2.23,2.23,0,1,1-2.22-2.23A2.23,2.23,0,0,1,40.34,18h.94a3.17,3.17,0,1,0-3.16,3.16A3.17,3.17,0,0,0,41.28,18Z"/><polyline class="cls-1" points="35.42 17.48 11.55 17.48 11.55 18.43 35.42 18.43"/><polygon class="cls-1" points="6.2 17.49 0.94 17.1 0.94 14.86 1.34 14.37 1.45 14.24 1.45 7.02 1.68 6.63 1.75 6.52 1.75 2 1.75 0.94 26.83 0.94 27.92 1.22 29.63 2.07 31.53 3.13 32.74 3.95 35.49 6.54 38.83 9.41 43.1 11.05 43.87 12.27 44.19 14.24 44.19 16.79 43.12 17.48 40.81 17.48 40.81 18.43 43.4 18.43 45.14 17.3 45.14 14.16 44.77 11.93 43.73 10.28 39.32 8.59 36.13 5.84 33.34 3.21 32.02 2.33 30.07 1.24 28.25 0.32 26.95 0 0.81 0 0.81 2 0.81 6.25 0.57 6.64 0.5 6.75 0.5 13.91 0.11 14.39 0 14.52 0 17.97 6.13 18.43 6.2 17.49"/><polygon class="cls-1" points="38.01 10.26 38.2 10.12 37.04 8.61 35.71 7.46 31.17 3.59 30.94 3.44 30.91 3.42 30.17 3.22 30.14 3.22 27.4 3.22 27.4 4.25 27.4 4.26 27.9 8.07 28.61 8.71 31.71 9.77 38.54 10.56 38.2 10.12 38.01 10.26 38.04 10.03 31.81 9.31 28.86 8.3 28.35 7.83 27.88 4.23 27.88 3.69 30.07 3.69 30.71 3.86 30.89 3.97 35.41 7.82 35.56 7.64 35.4 7.82 36.7 8.94 37.82 10.4 38.01 10.26 38.04 10.03 38.01 10.26"/></svg>