<?xml version="1.0" encoding="UTF-8" standalone="no"?><!DOCTYPE svg PUBLIC "-//W3C//DTD SVG 1.1//EN" "http://www.w3.org/Graphics/SVG/1.1/DTD/svg11.dtd"><svg width="100%" height="100%" viewBox="0 0 162 162" version="1.1" xmlns="http://www.w3.org/2000/svg" xmlns:xlink="http://www.w3.org/1999/xlink" xml:space="preserve" xmlns:serif="http://www.serif.com/" style="fill-rule:evenodd;clip-rule:evenodd;stroke-linejoin:round;stroke-miterlimit:1.41421;"><path d="M91.841,89.924c-2.212,-0.356 -2.256,-6.425 -2.256,-6.425c0,0 6.488,-6.425 7.9,-15.069c3.806,0 6.163,-9.181 2.35,-12.419c0.163,-3.393 4.894,-26.7 -19.062,-26.7c-23.957,0 -19.232,23.307 -19.069,26.707c-3.806,3.231 -1.456,12.418 2.35,12.418c1.412,8.638 7.906,15.063 7.906,15.063c0,0 -0.05,6.075 -2.262,6.425c-7.113,1.137 -33.682,12.85 -33.682,25.7l89.513,0c0,-12.85 -26.569,-24.563 -33.688,-25.7" style="fill:#066c72;fill-rule:nonzero;"/><path d="M158.419,80.769l-3.125,0c0,20.587 -8.332,39.2 -21.825,52.693c-13.494,13.488 -32.107,21.825 -52.694,21.825c-20.587,0 -39.2,-8.337 -52.694,-21.825c-13.494,-13.493 -21.825,-32.106 -21.831,-52.693c0.006,-20.588 8.337,-39.2 21.831,-52.694c13.494,-13.494 32.107,-21.825 52.694,-21.825c20.587,0 39.2,8.331 52.694,21.825c13.493,13.494 21.825,32.106 21.825,52.694l6.25,0c0,-44.613 -36.163,-80.769 -80.769,-80.769c-44.612,0 -80.769,36.156 -80.775,80.769c0.006,44.612 36.163,80.768 80.775,80.768c44.606,0 80.769,-36.156 80.769,-80.768l-3.125,0Z" style="fill:#066c72;fill-rule:nonzero;"/></svg>