<?xml version="1.0" encoding="UTF-8" standalone="no"?><!DOCTYPE svg PUBLIC "-//W3C//DTD SVG 1.1//EN" "http://www.w3.org/Graphics/SVG/1.1/DTD/svg11.dtd"><svg width="100%" height="100%" viewBox="0 0 162 162" version="1.1" xmlns="http://www.w3.org/2000/svg" xmlns:xlink="http://www.w3.org/1999/xlink" xml:space="preserve" xmlns:serif="http://www.serif.com/" style="fill-rule:evenodd;clip-rule:evenodd;stroke-linejoin:round;stroke-miterlimit:1.41421;"><path d="M62.42,44.236l52.494,36.532l-52.494,36.537l0,-73.069Z" style="fill:#fff;fill-rule:nonzero;"/><path d="M158.419,80.769l-3.125,0c0,20.587 -8.332,39.2 -21.825,52.693c-13.494,13.488 -32.107,21.825 -52.694,21.825c-20.588,0 -39.2,-8.337 -52.694,-21.825c-13.494,-13.493 -21.825,-32.106 -21.831,-52.693c0.006,-20.588 8.337,-39.2 21.831,-52.694c13.494,-13.494 32.106,-21.825 52.694,-21.825c20.587,0 39.2,8.331 52.694,21.825c13.493,13.494 21.825,32.106 21.825,52.694l6.25,0c0,-44.613 -36.163,-80.769 -80.769,-80.769c-44.613,0 -80.769,36.156 -80.775,80.769c0.006,44.612 36.162,80.768 80.775,80.768c44.606,0 80.769,-36.156 80.769,-80.768l-3.125,0Z" style="fill:#fff;fill-rule:nonzero;"/></svg>