<?xml version="1.0" encoding="UTF-8" standalone="no"?><!DOCTYPE svg PUBLIC "-//W3C//DTD SVG 1.1//EN" "http://www.w3.org/Graphics/SVG/1.1/DTD/svg11.dtd"><svg width="100%" height="100%" viewBox="0 0 90 90" version="1.1" xmlns="http://www.w3.org/2000/svg" xmlns:xlink="http://www.w3.org/1999/xlink" xml:space="preserve" xmlns:serif="http://www.serif.com/" style="fill-rule:evenodd;clip-rule:evenodd;stroke-linejoin:round;stroke-miterlimit:1.41421;"><path d="M0,44.725c0,24.684 20.041,44.725 44.725,44.725c24.684,0 44.725,-20.041 44.725,-44.725c0,-24.684 -20.041,-44.725 -44.725,-44.725c-24.684,0 -44.725,20.041 -44.725,44.725Z" style="fill:url(#_Linear1);"/><path d="M48.748,54.13l-8.612,0c-0.019,-1.269 -0.032,-2.044 -0.032,-2.319c0,-2.862 0.457,-5.212 1.382,-7.062c0.925,-1.844 2.768,-3.919 5.537,-6.231c2.769,-2.307 4.425,-3.813 4.969,-4.532c0.831,-1.131 1.244,-2.381 1.244,-3.737c0,-1.894 -0.738,-3.513 -2.213,-4.863c-1.475,-1.35 -3.456,-2.025 -5.956,-2.025c-2.413,0 -4.425,0.7 -6.044,2.113c-1.619,1.406 -2.737,3.55 -3.344,6.437l-8.712,-1.106c0.25,-4.137 1.969,-7.644 5.15,-10.525c3.187,-2.881 7.369,-4.325 12.544,-4.325c5.45,0 9.781,1.456 13,4.375c3.218,2.925 4.831,6.319 4.831,10.194c0,2.15 -0.594,4.181 -1.775,6.094c-1.181,1.912 -3.713,4.525 -7.581,7.825c-2.007,1.706 -3.244,3.075 -3.732,4.112c-0.487,1.044 -0.7,2.9 -0.656,5.575" style="fill:#111;fill-rule:nonzero;"/><path d="M50.964,66.975c0,1.769 -0.619,3.3 -1.857,4.588c-1.237,1.287 -2.768,1.931 -4.587,1.931c-0.913,0 -1.756,-0.169 -2.538,-0.525c-0.787,-0.356 -1.475,-0.825 -2.056,-1.406c-0.581,-0.582 -1.05,-1.263 -1.4,-2.044c-0.356,-0.788 -0.531,-1.631 -0.531,-2.544c0,-1.819 0.644,-3.35 1.931,-4.587c1.288,-1.244 2.825,-1.863 4.594,-1.863c1.769,0 3.281,0.638 4.55,1.9c1.262,1.263 1.894,2.781 1.894,4.55" style="fill:#111;fill-rule:nonzero;"/><defs><linearGradient id="_Linear1" x1="0" y1="0" x2="1" y2="0" gradientUnits="userSpaceOnUse" gradientTransform="matrix(89.4575,0,0,89.4575,-0.00043625,44.7248)"><stop offset="0" style="stop-color:#ededed;stop-opacity:1"/><stop offset="0.6" style="stop-color:#ededed;stop-opacity:1"/><stop offset="1" style="stop-color:#d9dbdc;stop-opacity:1"/></linearGradient></defs></svg>