<?xml version="1.0" encoding="UTF-8" standalone="no"?><!DOCTYPE svg PUBLIC "-//W3C//DTD SVG 1.1//EN" "http://www.w3.org/Graphics/SVG/1.1/DTD/svg11.dtd"><svg width="100%" height="100%" viewBox="0 0 183 114" version="1.1" xmlns="http://www.w3.org/2000/svg" xmlns:xlink="http://www.w3.org/1999/xlink" xml:space="preserve" xmlns:serif="http://www.serif.com/" style="fill-rule:evenodd;clip-rule:evenodd;stroke-linejoin:round;stroke-miterlimit:1.41421;"><path d="M176.188,104.881l-44.613,-51.631l44.613,-44.612l0,96.243Zm-168.863,1.65l46.263,-53.525l11.737,11.732c7.525,7.531 17.475,11.306 27.381,11.3c9.907,0.006 19.85,-3.769 27.382,-11.3l10.293,-10.294l45.013,52.087l-168.069,0Zm-0.6,-99.806l0.581,0l45.088,45.088l-45.669,52.843l0,-97.931Zm161.863,0l-53.257,53.25c-6.218,6.225 -14.406,9.331 -22.625,9.338c-8.218,-0.007 -16.406,-3.113 -22.625,-9.338l-53.256,-53.25l151.763,0Zm6.725,-6.725l-165.219,0l-9.513,0l-0.581,0l0,113.263l182.919,0l0,-3.363l0,-107.994l0,-1.906l-7.606,0Z" style="fill:#fff;fill-rule:nonzero;"/></svg>