<?xml version="1.0" encoding="UTF-8"?>
<svg width="400px" height="400px" viewBox="0 0 400 400" version="1.1" xmlns="http://www.w3.org/2000/svg" xmlns:xlink="http://www.w3.org/1999/xlink">
    <!-- Generator: Sketch 50.2 (55047) - http://www.bohemiancoding.com/sketch -->
    <title>round-done-button</title>
    <desc>Created with Sketch.</desc>
    <defs></defs>
    <g id="Page-1" stroke="none" stroke-width="1" fill="none" fill-rule="evenodd">
        <g id="round-done-button" fill="#FFFFFF" fill-rule="nonzero">
            <path d="M199.996,0 C89.713,0 0,89.72 0,200 C0,310.28 89.713,400 199.996,400 C310.279,400 400,310.28 400,200 C400,89.72 310.279,0 199.996,0 Z M199.996,373.77 C104.18,373.77 26.23,295.816 26.23,200 C26.23,104.183 104.179,26.231 199.996,26.231 C295.813,26.231 373.767,104.184 373.767,200 C373.768,295.816 295.812,373.77 199.996,373.77 Z" id="Shape"></path>
            <path d="M272.406,134.526 L169.275,237.652 L127.586,195.972 C122.463,190.855 114.164,190.852 109.041,195.975 C103.916,201.1 103.916,209.4 109.041,214.523 L160.004,265.478 C162.565,268.036 165.92,269.316 169.275,269.316 C172.63,269.316 175.994,268.036 178.554,265.474 C178.562,265.463 178.568,265.452 178.581,265.439 L290.95,153.071 C296.075,147.951 296.075,139.645 290.95,134.525 C285.828,129.402 277.523,129.402 272.406,134.526 Z" id="Shape"></path>
        </g>
    </g>
</svg>