<?xml version="1.0" encoding="UTF-8" standalone="no"?><!DOCTYPE svg PUBLIC "-//W3C//DTD SVG 1.1//EN" "http://www.w3.org/Graphics/SVG/1.1/DTD/svg11.dtd"><svg width="100%" height="100%" viewBox="0 0 86 137" version="1.1" xmlns="http://www.w3.org/2000/svg" xmlns:xlink="http://www.w3.org/1999/xlink" xml:space="preserve" xmlns:serif="http://www.serif.com/" style="fill-rule:evenodd;clip-rule:evenodd;stroke-linejoin:round;stroke-miterlimit:1.41421;"><path d="M78.369,129.475l3.725,3.706c2.375,-2.387 3.562,-5.537 3.562,-8.631c0,-3.106 -1.181,-6.269 -3.581,-8.656l-47.519,-47.513l47.532,-47.525c2.381,-2.4 3.568,-5.55 3.568,-8.643c0,-3.1 -1.181,-6.257 -3.568,-8.638c-2.382,-2.394 -5.55,-3.581 -8.644,-3.575c-3.1,-0.006 -6.263,1.194 -8.638,3.569l-51.243,51.25l-13.563,13.562l13.563,13.563l51.243,51.25c2.382,2.375 5.538,3.569 8.638,3.562c3.112,0.007 6.262,-1.193 8.637,-3.562l-3.712,-3.719Z" style="fill:#606060;fill-rule:nonzero;"/></svg>