<?xml version="1.0" encoding="UTF-8" standalone="no"?><!DOCTYPE svg PUBLIC "-//W3C//DTD SVG 1.1//EN" "http://www.w3.org/Graphics/SVG/1.1/DTD/svg11.dtd"><svg width="100%" height="100%" viewBox="0 0 86 137" version="1.1" xmlns="http://www.w3.org/2000/svg" xmlns:xlink="http://www.w3.org/1999/xlink" xml:space="preserve" xmlns:serif="http://www.serif.com/" style="fill-rule:evenodd;clip-rule:evenodd;stroke-linejoin:round;stroke-miterlimit:1.41421;"><path d="M7.281,7.281l-3.725,-3.706c-2.375,2.388 -3.556,5.538 -3.556,8.631c-0.006,3.107 1.175,6.275 3.575,8.657l47.525,47.512l-47.537,47.525c-2.382,2.4 -3.563,5.55 -3.563,8.644c-0.006,3.1 1.175,6.256 3.563,8.644c2.387,2.387 5.556,3.575 8.643,3.568c3.107,0.007 6.263,-1.193 8.644,-3.562l51.244,-51.25l13.556,-13.569l-13.562,-13.562l-51.238,-51.244c-2.381,-2.375 -5.537,-3.575 -8.644,-3.569c-3.112,-0.006 -6.262,1.194 -8.637,3.569l3.712,3.712Z" style="fill:#606060;fill-rule:nonzero;"/></svg>