<?xml version="1.0" encoding="UTF-8" standalone="no"?><!DOCTYPE svg PUBLIC "-//W3C//DTD SVG 1.1//EN" "http://www.w3.org/Graphics/SVG/1.1/DTD/svg11.dtd"><svg width="100%" height="100%" viewBox="0 0 186 190" version="1.1" xmlns="http://www.w3.org/2000/svg" xmlns:xlink="http://www.w3.org/1999/xlink" xml:space="preserve" xmlns:serif="http://www.serif.com/" style="fill-rule:evenodd;clip-rule:evenodd;stroke-linejoin:round;stroke-miterlimit:1.41421;"><path d="M177.731,51.463c-3.043,17.218 -18.768,31.268 -36.737,31.212l-1.344,-0.025l-1.025,-0.019c-6.287,-0.031 -11.837,2.307 -16.575,6.207c-0.1,-0.125 -0.15,-0.275 -0.256,-0.394l-4.875,-5l0.012,0.019c-1.406,-1.469 -3.35,-2.275 -5.331,-2.3l-0.012,0l-0.032,0c-1.231,0 -2.4,0.393 -3.487,0.962l-7.781,-12.931c4.556,-5.781 7.337,-12.313 7.462,-20.144l0.081,-0.275l-0.006,-0.569l0,-0.037c-0.044,-15.306 11.05,-29.613 26.15,-34.475c3.806,-1.238 7.506,-1.875 11.194,-1.881c1.55,0.006 3.1,0.156 4.662,0.387c-6.206,6.25 -12.325,12.519 -18.593,18.544c-1.994,1.844 -3.35,4.381 -3.319,7.037c0,1.275 0.275,2.488 0.706,3.619c3.544,9.569 10.513,16.475 19.894,20.181l0.019,0.007c1.218,0.481 2.531,0.806 3.918,0.806c2.8,0.025 5.419,-1.431 7.357,-3.538c5.818,-6.131 11.918,-12.162 18.181,-18.381c0.2,1.494 0.35,2.975 0.35,4.444c0,2.162 -0.213,4.331 -0.613,6.544m-61.012,42.35c-0.725,0.725 -1.45,1.45 -2.169,2.181l0.013,0.012l-8.607,8.407l54.894,56.262l2.281,-1.012l1.013,-0.2l1.3,0.281l0.125,0.075l0.119,0.062c1.256,0.644 2.343,1.588 3.656,2.913l1.644,1.806c1.656,1.944 2.987,4.225 3.881,6.025c0.444,0.9 0.787,1.681 1.025,2.244l0.275,0.675l0.087,0.219l0.025,0.056l0.063,0.181l-5.913,5.775l-0.131,-0.05l-1.156,-0.506c-1.725,-0.775 -5.219,-2.544 -7.963,-5.006l-0.018,-0.013l-0.007,-0.012l-1.756,-1.675c-1.306,-1.344 -2.219,-2.45 -2.825,-3.732l-0.062,-0.125l-0.069,-0.118l-0.244,-1.238l0.219,-1.106l1.056,-2.25l-54.881,-56.244l-10.7,10.431l-0.256,0.107l-0.25,-0.1l-0.013,-0.007l-4.881,-5l-0.013,-0.012l-0.093,-0.238l0,-0.025l0.118,-0.256l-0.012,0.013l1.65,-1.607l3.262,-3.168l-26.268,-16.663l-0.382,-0.312l-57.468,-58.9l-0.007,-0.013l-0.1,-0.206l0,-0.013l0,-0.031l0.132,-0.287l0.037,-0.038l7.406,-7.219l80.163,80.169l1.269,-1.269l-80.15,-80.156l5.75,-5.606l80.156,80.156l1.269,-1.269l-80.138,-80.137l9,-8.788l-0.006,0.007l0.225,-0.082l0.019,0l0.225,0.088l57.487,58.906l0.319,0.406l16.012,26.638l4.894,-4.763l0.281,-0.1l0.225,0.088l4.888,5.006l0.112,0.269l-0.037,0.094Zm-46.163,45.431c-12.593,12.612 -25.137,25.262 -37.768,37.806c-3.588,3.556 -7.788,5.206 -11.725,5.213c-3.363,-0.013 -6.55,-1.182 -9.244,-3.632c-2.95,-2.718 -4.344,-6.143 -4.363,-9.875c0,-4.106 1.775,-8.606 5.607,-12.456c18.262,-18.312 36.518,-36.619 54.812,-54.887l12.375,7.856c-0.587,1.056 -1.006,2.206 -1.031,3.462l-0.013,0l0,0.057l-0.006,0.087c0.006,1.981 0.769,3.856 2.169,5.288l-0.013,-0.019l4.913,5.037l-0.05,-0.05c0.069,0.075 0.175,0.094 0.237,0.163c-5.3,5.312 -10.593,10.631 -15.9,15.95m111.094,-112.563l-4.137,4.138c-7.888,7.894 -15.525,15.312 -22.913,23.094l0,0.006c-1.225,1.231 -1.669,1.262 -2.144,1.294l-1.275,-0.3c-7.75,-3.15 -12.868,-8.238 -15.831,-16.038l-0.006,-0.012l-0.238,-1.082c0.032,-0.425 0.038,-0.781 1.088,-1.85l0.006,-0.006c6.938,-6.656 13.588,-13.519 20.3,-20.25l-0.012,0.013c0.981,-0.975 1.787,-1.913 2.862,-3.057l3.788,-4.056l-5.257,-1.794c-4.25,-1.456 -8.5,-2.15 -12.712,-2.15c-4.531,0 -9,0.8 -13.406,2.232c-17.925,5.831 -31.069,22.525 -31.119,41.306l0,0.106c-0.044,5.694 -1.513,10.113 -4.319,14.319l-0.037,-0.063l-0.694,-0.9l-0.125,-0.168l-57.75,-59.163c-1.425,-1.475 -3.338,-2.269 -5.331,-2.294l-0.094,-0.006c-1.944,0.006 -3.831,0.75 -5.256,2.15l0,-0.006l-24.775,24.169c-1.394,1.375 -2.207,3.237 -2.257,5.231l-0.006,0l0,0.2c0,1.987 0.794,3.856 2.15,5.244l-0.006,-0.013l57.75,59.188l0.869,0.712l0.168,0.131l0.732,0.463c-17.919,17.906 -35.813,35.837 -53.688,53.762c-5.025,5.044 -7.706,11.332 -7.706,17.525c-0.013,5.607 2.262,11.132 6.7,15.169c3.981,3.656 9.012,5.525 14.094,5.519c5.975,0 11.993,-2.531 16.781,-7.294c12.669,-12.575 25.206,-25.225 37.794,-37.831c6.362,-6.375 12.718,-12.775 19.087,-19.144c0.2,-0.2 0.4,-0.4 0.6,-0.6l-0.169,-0.175c0.613,-0.325 1.244,-0.637 1.744,-1.125l5.563,-5.425l46.712,47.875c-0.081,0.531 -0.162,1.069 -0.162,1.575c0.018,1.738 0.412,3.225 1.112,4.569l-0.031,0.012c0.025,0.05 0.069,0.088 0.094,0.144c0.018,0.031 0.025,0.069 0.043,0.106l0.013,-0.012c1.119,2.231 2.594,3.937 4.012,5.4l0.013,0.012c0.637,0.644 1.337,1.338 2.131,2.038l0.025,0.025l0,-0.006c2.519,2.237 5.206,3.862 7.319,4.975c1.056,0.562 1.969,0.987 2.637,1.281l0.782,0.344l0.125,0.068l2.65,1.057l2.168,0.862l12.594,-12.294l-1.7,-4.593l-0.075,-0.194l-0.094,-0.181l0.013,-0.007c-0.556,-1.393 -2.563,-6.45 -6.388,-10.962c-0.643,-0.75 -1.306,-1.475 -1.975,-2.163l-0.006,-0.018l-0.006,-0.007c-1.419,-1.425 -3.081,-2.931 -5.263,-4.106l0.007,-0.019c-0.032,-0.018 -0.069,-0.025 -0.1,-0.043c-0.057,-0.032 -0.094,-0.069 -0.144,-0.094l-0.013,0.025c-1.393,-0.775 -2.962,-1.213 -4.812,-1.238c-0.425,0 -0.875,0.075 -1.325,0.132l-46.706,-47.882l5.525,-5.4c0.087,-0.081 0.118,-0.193 0.2,-0.281c0.875,-0.875 1.756,-1.75 2.631,-2.637c4.337,-4.344 8.644,-6.363 14.156,-6.4l0.763,0.012l1.606,0.031c21.737,-0.056 40.075,-16.518 43.812,-37.125c0.457,-2.581 0.719,-5.175 0.719,-7.812c0,-4.125 -0.637,-8.331 -2.062,-12.675l-1.813,-5.563Z" style="fill:#009b97;fill-rule:nonzero;"/></svg>