<?xml version="1.0" encoding="UTF-8" standalone="no"?><!DOCTYPE svg PUBLIC "-//W3C//DTD SVG 1.1//EN" "http://www.w3.org/Graphics/SVG/1.1/DTD/svg11.dtd"><svg width="100%" height="100%" viewBox="0 0 175 175" version="1.1" xmlns="http://www.w3.org/2000/svg" xmlns:xlink="http://www.w3.org/1999/xlink" xml:space="preserve" xmlns:serif="http://www.serif.com/" style="fill-rule:evenodd;clip-rule:evenodd;stroke-linejoin:round;stroke-miterlimit:1.41421;"><path d="M147.144,119.894c-7.694,0 -14.625,3.193 -19.588,8.318l-73.394,-36.7c0.225,-1.406 0.344,-2.85 0.344,-4.318c0,-1.469 -0.119,-2.907 -0.344,-4.313l73.394,-36.7c4.963,5.119 11.894,8.319 19.588,8.319c15.05,0 27.25,-12.2 27.25,-27.25c0,-15.05 -12.2,-27.25 -27.25,-27.25c-15.05,0 -27.25,12.2 -27.25,27.25c0,1.469 0.118,2.912 0.337,4.312l-73.394,36.7c-4.962,-5.125 -11.893,-8.318 -19.587,-8.318c-15.05,0 -27.25,12.2 -27.25,27.25c0,15.056 12.2,27.25 27.25,27.25c7.694,0 14.637,-3.194 19.587,-8.319l73.394,36.7c-0.231,1.406 -0.337,2.844 -0.337,4.319c0,15.05 12.2,27.243 27.25,27.243c15.05,0 27.25,-12.193 27.25,-27.243c0,-15.057 -12.2,-27.25 -27.25,-27.25" style="fill:#fff;fill-rule:nonzero;"/></svg>