<svg id="Layer_1" data-name="Layer 1" xmlns="http://www.w3.org/2000/svg" viewBox="0 0 24.1 35.26"><defs><style>.cls-1{fill:#595959;}.cls-2{fill:#4c4c4c;}</style></defs><title>sym</title><path class="cls-1" d="M1.51,13.26a.71.71,0,0,0,.44.31.67.67,0,0,0,.53-.1.7.7,0,0,0,.22-1A8.1,8.1,0,0,1,5.14,1.3.71.71,0,0,0,4.38.11,9.51,9.51,0,0,0,1.51,13.26Z"/><path class="cls-1" d="M4.3,11.47a.71.71,0,0,0,.44.31.67.67,0,0,0,.53-.1.7.7,0,0,0,.22-1A4.78,4.78,0,0,1,4.84,7.1a4.73,4.73,0,0,1,2.09-3A.71.71,0,0,0,6.17,2.9,6.2,6.2,0,0,0,4.3,11.47Z"/><path class="cls-1" d="M19.54,13.26a.66.66,0,0,1-.44.31.68.68,0,0,1-.53-.1.7.7,0,0,1-.21-1A8.09,8.09,0,0,0,15.91,1.3a.72.72,0,0,1-.21-1,.72.72,0,0,1,1-.21,9.52,9.52,0,0,1,2.86,13.15Z"/><path class="cls-1" d="M16.75,11.47a.66.66,0,0,1-.44.31.68.68,0,0,1-.53-.1.7.7,0,0,1-.21-1,4.78,4.78,0,0,0-1.45-6.62.71.71,0,1,1,.77-1.19,6.17,6.17,0,0,1,2.7,3.9A6.1,6.1,0,0,1,16.75,11.47Z"/><path class="cls-2" d="M23.82,20.31a3.41,3.41,0,0,0-1.15-1.83,3.71,3.71,0,0,0-2-.75l-.36,0h0l-.07-.15a2.62,2.62,0,0,0-.19-.37,3.1,3.1,0,0,0-2.6-1.37h-.24a1.92,1.92,0,0,0-.29.05h-.07a3.69,3.69,0,0,0-2.31-1.05l-.69,0v-4c0-.35,0-.75,0-1.17A6.48,6.48,0,0,0,13.66,8a2.85,2.85,0,0,0-2.88-2.21,3.52,3.52,0,0,0-1.86.53A3,3,0,0,0,7.67,7.79a7.45,7.45,0,0,0-.33,2.35v8.2a6.83,6.83,0,0,0-3.76,5.22c-.05.51-.08,1-.08,1.55A9.72,9.72,0,0,0,8.39,33.9a10.88,10.88,0,0,0,5.4,1.36,10.22,10.22,0,0,0,8.33-3.8c1.63-2.24,1.68-4.9,1.9-7.33,0-.52.08-1.05.08-1.59A8.17,8.17,0,0,0,23.82,20.31ZM23,24c-.21,2.49-.3,4.92-1.71,6.83a9.27,9.27,0,0,1-7.52,3.39A9.9,9.9,0,0,1,8.89,33,8.73,8.73,0,0,1,4.5,25.11c0-.49,0-1,.07-1.46A5.71,5.71,0,0,1,7.34,19.5v4.29h1V10.14a6.23,6.23,0,0,1,.27-2,2,2,0,0,1,.84-1,2.51,2.51,0,0,1,1.33-.38,2,2,0,0,1,1.31.45,1.89,1.89,0,0,1,.6,1,4.93,4.93,0,0,1,.14,1.42c0,.39,0,.79,0,1.17v5l1.67.05a2.88,2.88,0,0,1,1.81.92.6.6,0,0,0,.26.14h.16a1.84,1.84,0,0,0,.37-.05l.14,0h.19a2.09,2.09,0,0,1,1.78.94l.12.25a1.36,1.36,0,0,0,.32.48,1.08,1.08,0,0,0,.58.22l.36,0a2.68,2.68,0,0,1,1.47.53,2.44,2.44,0,0,1,.81,1.32,7.12,7.12,0,0,1,.24,2C23.1,23,23.06,23.53,23,24Z"/></svg>