<?xml version="1.0" encoding="UTF-8" standalone="no"?><!DOCTYPE svg PUBLIC "-//W3C//DTD SVG 1.1//EN" "http://www.w3.org/Graphics/SVG/1.1/DTD/svg11.dtd"><svg width="100%" height="100%" viewBox="0 0 25 36" version="1.1" xmlns="http://www.w3.org/2000/svg" xmlns:xlink="http://www.w3.org/1999/xlink" xml:space="preserve" xmlns:serif="http://www.serif.com/" style="fill-rule:evenodd;clip-rule:evenodd;stroke-linejoin:round;stroke-miterlimit:1.41421;"><path d="M1.51,13.26c0.1,0.157 0.258,0.268 0.44,0.31c0.183,0.042 0.375,0.006 0.53,-0.1c0.213,-0.126 0.344,-0.355 0.344,-0.603c0,-0.142 -0.043,-0.28 -0.124,-0.397c-2.386,-3.735 -1.286,-8.77 2.44,-11.17c0.168,-0.135 0.267,-0.339 0.267,-0.554c0,-0.39 -0.321,-0.71 -0.71,-0.71c-0.11,0 -0.219,0.025 -0.317,0.074c-2.726,1.747 -4.38,4.77 -4.38,8.008c0,1.823 0.524,3.608 1.51,5.142Z" style="fill:#009b97;fill-rule:nonzero;"/><path d="M4.3,11.47c0.1,0.157 0.258,0.268 0.44,0.31c0.183,0.042 0.375,0.006 0.53,-0.1c0.213,-0.126 0.344,-0.355 0.344,-0.603c0,-0.142 -0.043,-0.28 -0.124,-0.397c-0.68,-1.061 -0.914,-2.348 -0.65,-3.58c0.266,-1.239 1.02,-2.321 2.09,-3c0.205,-0.13 0.33,-0.357 0.33,-0.6c0,-0.39 -0.32,-0.71 -0.71,-0.71c-0.135,0 -0.266,0.038 -0.38,0.11c-1.776,1.139 -2.853,3.109 -2.853,5.219c0,1.188 0.341,2.351 0.983,3.351Z" style="fill:#009b97;fill-rule:nonzero;"/><path d="M19.54,13.26c-0.096,0.161 -0.256,0.274 -0.44,0.31c-0.183,0.041 -0.375,0.005 -0.53,-0.1c-0.209,-0.127 -0.337,-0.354 -0.337,-0.598c0,-0.144 0.045,-0.284 0.127,-0.402c2.39,-3.736 1.284,-8.777 -2.45,-11.17c-0.205,-0.133 -0.329,-0.36 -0.329,-0.604c0,-0.141 0.042,-0.279 0.119,-0.396c0.133,-0.205 0.36,-0.329 0.604,-0.329c0.141,0 0.279,0.042 0.396,0.119c4.389,2.824 5.68,8.758 2.86,13.15l-0.02,0.02Z" style="fill:#009b97;fill-rule:nonzero;"/><path d="M16.75,11.47c-0.096,0.161 -0.256,0.274 -0.44,0.31c-0.183,0.041 -0.375,0.005 -0.53,-0.1c-0.209,-0.127 -0.337,-0.354 -0.337,-0.598c0,-0.144 0.045,-0.284 0.127,-0.402c0.497,-0.772 0.762,-1.671 0.762,-2.589c0,-1.631 -0.836,-3.154 -2.212,-4.031c-0.223,-0.126 -0.361,-0.363 -0.361,-0.618c0,-0.39 0.32,-0.71 0.71,-0.71c0.151,0 0.299,0.048 0.421,0.138c1.383,0.888 2.356,2.293 2.7,3.9c0.37,1.615 0.067,3.313 -0.84,4.7Z" style="fill:#009b97;fill-rule:nonzero;"/><path d="M23.82,20.31c-0.175,-0.718 -0.578,-1.361 -1.15,-1.83c-0.579,-0.441 -1.274,-0.701 -2,-0.75l-0.36,0l-0.07,-0.15c-0.053,-0.128 -0.117,-0.252 -0.19,-0.37c-0.581,-0.864 -1.559,-1.379 -2.6,-1.37l-0.24,0c-0.098,0.009 -0.195,0.026 -0.29,0.05l-0.07,0c-0.622,-0.612 -1.44,-0.984 -2.31,-1.05l-0.69,0l0,-4c0,-0.35 0,-0.75 0,-1.17c0.009,-0.563 -0.054,-1.124 -0.19,-1.67c-0.305,-1.327 -1.52,-2.259 -2.88,-2.21c-0.657,0 -1.302,0.183 -1.86,0.53c-0.567,0.339 -1.007,0.856 -1.25,1.47c-0.235,0.761 -0.346,1.554 -0.33,2.35l0,8.2c-2.044,1.003 -3.456,2.964 -3.76,5.22c-0.05,0.51 -0.08,1 -0.08,1.55c-0.13,3.606 1.757,6.999 4.89,8.79c1.651,0.914 3.513,1.383 5.4,1.36c3.218,0.117 6.309,-1.293 8.33,-3.8c1.63,-2.24 1.68,-4.9 1.9,-7.33c0,-0.52 0.08,-1.05 0.08,-1.59c0.01,-0.753 -0.084,-1.503 -0.28,-2.23Zm-0.82,3.69c-0.21,2.49 -0.3,4.92 -1.71,6.83c-1.837,2.243 -4.623,3.499 -7.52,3.39c-1.704,0.02 -3.386,-0.4 -4.88,-1.22c-2.811,-1.608 -4.506,-4.653 -4.39,-7.89c0,-0.49 0,-1 0.07,-1.46c0.238,-1.734 1.26,-3.265 2.77,-4.15l0,4.29l1,0l0,-13.65c-0.019,-0.677 0.072,-1.352 0.27,-2c0.16,-0.418 0.456,-0.77 0.84,-1c0.399,-0.249 0.86,-0.38 1.33,-0.38c0.476,-0.011 0.941,0.149 1.31,0.45c0.3,0.262 0.51,0.612 0.6,1c0.115,0.464 0.162,0.942 0.14,1.42l0,6.17l1.67,0.05c0.695,0.077 1.338,0.404 1.81,0.92c0.074,0.068 0.163,0.116 0.26,0.14l0.16,0c0.125,-0.004 0.249,-0.021 0.37,-0.05l0.33,0c0.714,-0.012 1.387,0.343 1.78,0.94l0.12,0.25c0.071,0.181 0.18,0.345 0.32,0.48c0.168,0.128 0.369,0.205 0.58,0.22l0.36,0c0.532,0.027 1.044,0.211 1.47,0.53c0.406,0.34 0.691,0.804 0.81,1.32c0.174,0.652 0.255,1.325 0.24,2c-0.01,0.4 -0.05,0.93 -0.11,1.4Z" style="fill:#009b97;fill-rule:nonzero;"/></svg>