<svg id="Layer_1" data-name="Layer 1" xmlns="http://www.w3.org/2000/svg" viewBox="0 0 52.89 21.77"><defs><style>.cls-1{fill:#057477;}</style></defs><title>symbol</title><path class="cls-1" d="M52.89,13.59,50.25,8.5,39.65,6.73,29.69.11,4.13,0,0,9.53v6.12l7.85,3a4.82,4.82,0,0,0,9.07,0H39.84A4.82,4.82,0,0,0,49,18.43l3.92-1.94Zm-40.5,7a3.7,3.7,0,1,1,3.7-3.7A3.7,3.7,0,0,1,12.39,20.63Zm32,0a3.7,3.7,0,1,1,3.7-3.7A3.7,3.7,0,0,1,44.38,20.63Zm7.37-4.85L49.22,17v-.1a4.85,4.85,0,1,0-9.69,0,4.4,4.4,0,0,0,.05.51H17.18a4.4,4.4,0,0,0,.05-.51,4.85,4.85,0,1,0-9.69,0c0,.12,0,.23,0,.34L1.14,14.86V9.76L4.88,1.15l24.46.1,9.88,6.57L49.49,9.53l2.26,4.34Z"/><path class="cls-1" d="M35.79,7.88,28.67,2.71H25.44V8.38l11.06,0ZM26,3.27h2.47l6.25,4.54H26Z"/><polygon class="cls-1" points="15.89 8.1 15.89 8.39 23.45 8.39 23.45 2.71 15.6 2.71 15.6 8.39 15.89 8.39 15.89 8.1 16.17 8.1 16.17 3.28 22.88 3.28 22.88 7.82 15.89 7.82 15.89 8.1 16.17 8.1 15.89 8.1"/><polygon class="cls-1" points="4.21 8.1 4.21 8.39 13.85 8.39 13.85 2.71 6.1 2.71 3.79 8.39 4.21 8.39 4.21 8.1 4.48 8.21 6.48 3.28 13.28 3.28 13.28 7.82 4.21 7.82 4.21 8.1 4.48 8.21 4.21 8.1"/></svg>