<svg id="Layer_1" data-name="Layer 1" xmlns="http://www.w3.org/2000/svg" viewBox="0 0 25.85 25.85"><defs><style>.cls-1{fill:#fff;}</style></defs><title>symbol</title><path class="cls-1" d="M25.35,12.92h-.5A11.92,11.92,0,0,1,4.49,21.35a11.92,11.92,0,1,1,20.36-8.43h1A12.93,12.93,0,1,0,12.92,25.85,12.93,12.93,0,0,0,25.85,12.92Z"/><path class="cls-1" d="M14.29,18.14c0,.6.56.91,1.76.91V20.2H9.8V19.05c1.15,0,1.73-.31,1.73-.91V12c0-.62-.58-.93-1.73-.93V9.93h4.49Zm.25-11.6A1.7,1.7,0,0,1,14,7.76a1.63,1.63,0,0,1-1.22.52,1.53,1.53,0,0,1-.67-.15,1.72,1.72,0,0,1-.55-.37,1.85,1.85,0,0,1-.37-.54,1.56,1.56,0,0,1-.14-.68,1.64,1.64,0,0,1,.51-1.22,1.71,1.71,0,0,1,1.22-.49,1.62,1.62,0,0,1,1.21.5A1.65,1.65,0,0,1,14.54,6.54Z"/></svg>