<svg id="Layer_1" data-name="Layer 1" xmlns="http://www.w3.org/2000/svg" viewBox="0 0 28.6 37.06"><defs><style>.cls-1{fill:#057477;}</style></defs><title>symbol</title><path class="cls-1" d="M15,13.69a3,3,0,1,0-1.31,0L3.56,36.21a.58.58,0,0,0,.15.69.57.57,0,0,0,.7.07l9.89-5.75L24.19,37a.53.53,0,0,0,.3.09.61.61,0,0,0,.55-.85Zm4.16,12.23-3.93-2.58,2.12-1.46ZM14.3,15.14l2.51,5.63-2.7,1.86L11.67,21Zm-3.13,7L13,23.36,9.55,25.77ZM5.42,35l3-6.77,4.73,2.25Zm4-7.66,4.74-3.26,5,3.28L14.4,29.73Zm6.12,3.19,4.64-2.33,3,6.8Z"/><path class="cls-1" d="M4.82,21a.81.81,0,0,0,.57-1.38,12.89,12.89,0,0,1,0-18.22.8.8,0,0,0,0-1.14.8.8,0,0,0-1.14,0,14.49,14.49,0,0,0,0,20.5A.78.78,0,0,0,4.82,21Z"/><path class="cls-1" d="M6.78,18.21a.81.81,0,0,0,1.14-1.14,9.32,9.32,0,0,1,0-13.16A.81.81,0,0,0,6.78,2.77a10.91,10.91,0,0,0,0,15.44Z"/><path class="cls-1" d="M9.47,15.52a.81.81,0,0,0,1.14-1.14,5.5,5.5,0,0,1,0-7.78A.81.81,0,0,0,9.47,5.46a7.1,7.1,0,0,0,0,10.06Z"/><path class="cls-1" d="M27,10.49a12.81,12.81,0,0,1-3.77,9.11.8.8,0,0,0,0,1.14.78.78,0,0,0,.57.24.81.81,0,0,0,.57-.24,14.49,14.49,0,0,0,0-20.5.8.8,0,0,0-1.14,0,.8.8,0,0,0,0,1.14A12.81,12.81,0,0,1,27,10.49Z"/><path class="cls-1" d="M20.67,17.07a.81.81,0,1,0,1.15,1.14,10.94,10.94,0,0,0,0-15.44.81.81,0,0,0-1.15,1.14A9.31,9.31,0,0,1,20.67,17.07Z"/><path class="cls-1" d="M18,15.52a.81.81,0,0,0,1.15,0,7.12,7.12,0,0,0,0-10.06A.81.81,0,1,0,18,6.6a5.5,5.5,0,0,1,0,7.78A.81.81,0,0,0,18,15.52Z"/></svg>