<svg id="Layer_1" data-name="Layer 1" xmlns="http://www.w3.org/2000/svg" viewBox="0 0 24.18 38.15"><defs><style>.cls-1{fill:#057477;fill-rule:evenodd;}</style></defs><title>symbol</title><path class="cls-1" d="M24.17,26.06a12.08,12.08,0,0,1-9.6,12.09c5.08-4.42,4.34-10.45,2.54-13.1.49,2.22-3,6.24-5.56,7.27.78-1,4.5-7.08-1.49-15.63C11.21,23.44.51,29.81,8.62,37.9A12.09,12.09,0,0,1,0,26.58c-.14-6.36,5.75-8.16,3.41-15.75a10.44,10.44,0,0,1,5.23,3.48C6.51,10.26,5.85,4.49,14.13,0,10.07,8.53,24,17,24.17,26.06Z"/></svg>