<svg id="Layer_1" data-name="Layer 1" xmlns="http://www.w3.org/2000/svg" viewBox="0 0 40.39 40.39"><defs><style>.cls-1{fill:#fff;}.cls-2{fill:#a00;}</style></defs><title>symbol</title><path class="cls-1" d="M40.39,20.19A20.2,20.2,0,1,1,20.19,0,20.2,20.2,0,0,1,40.39,20.19Z"/><path class="cls-2" d="M30,16.6a6.54,6.54,0,0,0-.06-.89,5.32,5.32,0,0,0-3.07-4,4.87,4.87,0,0,0-1.95-.41,5.16,5.16,0,0,0-2.39.6h0l-.07,0a5.6,5.6,0,0,0-1.14.84,5.52,5.52,0,0,0-.55.63h0l-.26.35-.08.1h0l-.08.1h0l-.08.11,0-.05v0l-.09-.12h0l-.11-.13-.27-.35h0a4.76,4.76,0,0,0-.56-.63A5.53,5.53,0,0,0,18,11.91l-.07,0h0a5.1,5.1,0,0,0-2.39-.6,4.7,4.7,0,0,0-1.94.41,5.3,5.3,0,0,0-3.07,4,6.54,6.54,0,0,0-.06.89,7.13,7.13,0,0,0,.28,1.95,8.2,8.2,0,0,0,.86,1.94,21,21,0,0,0,3.81,4.13l3.23,3c.18.18.52.48.81.75l.38.35.19.17.22.19,1.59-1.46h0l3.22-3a21.09,21.09,0,0,0,3.82-4.13,8.17,8.17,0,0,0,.85-1.94A6.77,6.77,0,0,0,30,16.6Zm-.92,1.76a8.19,8.19,0,0,1-.79,1.79h0a20.57,20.57,0,0,1-3.7,4l-3.22,3-1.15,1.05-1.14-1.05-3.22-3a20.57,20.57,0,0,1-3.7-4,7.74,7.74,0,0,1-.79-1.79,6.2,6.2,0,0,1-.26-1.76,5.39,5.39,0,0,1,.06-.8h0a4.65,4.65,0,0,1,2.68-3.51h0a4,4,0,0,1,1.67-.35,4.43,4.43,0,0,1,2.16.56h0a4.65,4.65,0,0,1,1,.73,6.18,6.18,0,0,1,.5.58h0l.26.34h0l.11.13,0,.06v0l.11.14.2.26.23.3.5-.5,0,0h0l.14-.16h0l.08-.09.09-.11L20.82,14l.16.12.26-.34h0a5,5,0,0,1,.5-.58,4.65,4.65,0,0,1,1-.73h0a4.42,4.42,0,0,1,2.15-.56,4.21,4.21,0,0,1,1.68.35L26.7,12l-.13.31a4.65,4.65,0,0,1,2.68,3.51h0a5.37,5.37,0,0,1,.05.8A6.56,6.56,0,0,1,29.05,18.36Z"/></svg>