<svg id="Layer_1" data-name="Layer 1" xmlns="http://www.w3.org/2000/svg" viewBox="0 0 42.71 14.9"><defs><style>.cls-1{fill:#fff;}</style></defs><title>symbol</title><polyline class="cls-1" points="11.23 13.15 32.88 13.15 32.88 12.15 11.23 12.15"/><path class="cls-1" d="M11.37,11.54h-.5a2.36,2.36,0,1,1-4.71,0,2.36,2.36,0,0,1,4.71,0h1A3.36,3.36,0,1,0,8.51,14.9a3.37,3.37,0,0,0,3.36-3.36Z"/><path class="cls-1" d="M38.25,11.48h-.5a2.36,2.36,0,1,1-2.36-2.35,2.36,2.36,0,0,1,2.36,2.35h1a3.36,3.36,0,1,0-3.36,3.35,3.35,3.35,0,0,0,3.36-3.35Z"/><path class="cls-1" d="M5.51,11.81H2.56v.5L3,12,1.06,9.66l.75-4.34,1-.88,2.42-.56L14.56,1l8.37.11,7.42,3.48L39.77,7l1.36,1.2.46,4H38.23v1l4.48,0-.63-5.52L40.25,6l-9.57-2.4L23.15.12,14.41,0,5,2.91l-2.63.61L.89,4.8,0,9.94l2.32,2.87H5.51Z"/><polygon class="cls-1" points="27.75 5.06 27.87 4.83 22.85 2.27 14.69 2.21 8.07 4.51 14.67 5.21 28.81 5.31 27.87 4.83 27.75 5.06 27.75 4.81 14.7 4.72 10.34 4.25 14.77 2.71 22.73 2.77 27.64 5.28 27.75 5.06 27.75 4.81 27.75 5.06"/></svg>