<?xml version="1.0" encoding="UTF-8" standalone="no"?><!DOCTYPE svg PUBLIC "-//W3C//DTD SVG 1.1//EN" "http://www.w3.org/Graphics/SVG/1.1/DTD/svg11.dtd"><svg width="100%" height="100%" viewBox="0 0 26 6" version="1.1" xmlns="http://www.w3.org/2000/svg" xmlns:xlink="http://www.w3.org/1999/xlink" xml:space="preserve" xmlns:serif="http://www.serif.com/" style="fill-rule:evenodd;clip-rule:evenodd;stroke-linecap:round;stroke-linejoin:round;stroke-miterlimit:1.5;"><rect x="0" y="-0.245" width="25.841" height="6.78" style="fill:#fff;"/><text x="3.52px" y="2.876px" style="font-family:'ArialMT', 'Arial', sans-serif;font-size:2.525px;">T<tspan x="4.938px " y="2.876px ">r</tspan>ustpilot</text><path d="M1.753,0.025l0.386,1.187l1.248,0l-1.01,0.733l0.386,1.187l-1.01,-0.733l-1.009,0.733l0.386,-1.187l-1.01,-0.733l1.248,0l0.385,-1.187Z" style="fill:#00b67a;stroke:#000;stroke-opacity:0;stroke-width:0.09px;"/><path d="M1.618,2.459l0.739,-0.563l0.104,0.293l-0.843,0.27Z" style="fill:#005128;"/><g><rect x="14.519" y="1.069" width="2.032" height="2.063" style="fill:#00b67a;stroke:#000;stroke-opacity:0;stroke-width:0.09px;"/><path d="M15.535,1.404l0.173,0.532l0.559,0l-0.452,0.329l0.172,0.532l-0.452,-0.329l-0.452,0.329l0.172,-0.532l-0.452,-0.329l0.559,0l0.173,-0.532Z" style="fill:#fff;"/><path d="M15.514,2.483l0.303,-0.218l0.035,0.109l-0.338,0.109Z" style="fill:#00b67a;"/></g><g><rect x="16.679" y="1.069" width="2.032" height="2.063" style="fill:#00b67a;stroke:#000;stroke-opacity:0;stroke-width:0.09px;"/><g><path d="M17.695,1.404l0.173,0.532l0.559,0l-0.452,0.329l0.172,0.532l-0.452,-0.329l-0.452,0.329l0.172,-0.532l-0.452,-0.329l0.559,0l0.173,-0.532Z" style="fill:#fff;"/><path d="M17.674,2.483l0.303,-0.218l0.035,0.109l-0.338,0.109Z" style="fill:#00b67a;"/></g></g><g><rect x="18.839" y="1.069" width="2.032" height="2.063" style="fill:#00b67a;stroke:#000;stroke-opacity:0;stroke-width:0.09px;"/><g><path d="M19.855,1.404l0.173,0.532l0.559,0l-0.452,0.329l0.172,0.532l-0.452,-0.329l-0.452,0.329l0.172,-0.532l-0.452,-0.329l0.559,0l0.173,-0.532Z" style="fill:#fff;"/><path d="M19.834,2.483l0.303,-0.218l0.035,0.109l-0.338,0.109Z" style="fill:#00b67a;"/></g></g><g><rect x="20.999" y="1.069" width="2.032" height="2.063" style="fill:#00b67a;stroke:#000;stroke-opacity:0;stroke-width:0.09px;"/><path d="M22.015,1.404l0.173,0.532l0.559,0l-0.452,0.329l0.172,0.532l-0.452,-0.329l-0.452,0.329l0.172,-0.532l-0.452,-0.329l0.559,0l0.173,-0.532Z" style="fill:#fff;"/><path d="M21.994,2.483l0.303,-0.218l0.035,0.109l-0.338,0.109Z" style="fill:#00b67a;"/></g><g><rect x="23.159" y="1.069" width="2.032" height="2.063" style="fill:#00b67a;stroke:#000;stroke-opacity:0;stroke-width:0.09px;"/><path d="M24.175,1.404l0.173,0.532l0.559,0l-0.452,0.329l0.172,0.532l-0.452,-0.329l-0.452,0.329l0.172,-0.532l-0.452,-0.329l0.559,0l0.173,-0.532Z" style="fill:#fff;"/><path d="M24.154,2.483l0.303,-0.218l0.035,0.109l-0.338,0.109Z" style="fill:#00b67a;"/></g></svg>