<svg id="Layer_1" data-name="Layer 1" xmlns="http://www.w3.org/2000/svg" viewBox="0 0 31.37 31.31"><defs><style>.cls-1{fill:#057477;}</style></defs><title>symbol</title><path class="cls-1" d="M0,15.65A15.62,15.62,0,0,0,23.94,28.89l7.43,2.42L29,23.78A15.64,15.64,0,1,0,0,15.65ZM25.86,5.44A14.44,14.44,0,0,1,27.7,23.58l0,.05h0l1.84,5.79L25.19,28h0l-1.4-.46A14.44,14.44,0,1,1,25.86,5.44Z"/><path class="cls-1" d="M7.52,15.65a1.81,1.81,0,0,1,1.84-1.93,1.79,1.79,0,0,1,1.8,1.93,1.82,1.82,0,1,1-3.64,0Z"/><path class="cls-1" d="M13.86,15.65a1.82,1.82,0,0,1,1.84-1.93,1.79,1.79,0,0,1,1.81,1.93,1.83,1.83,0,1,1-3.65,0Z"/><path class="cls-1" d="M20.21,15.65a1.82,1.82,0,0,1,1.84-1.93,1.79,1.79,0,0,1,1.81,1.93,1.83,1.83,0,1,1-3.65,0Z"/></svg>