<svg id="Layer_1" data-name="Layer 1" xmlns="http://www.w3.org/2000/svg" viewBox="0 0 25.83 25.83"><defs><style>.cls-1{fill:#fff;}</style></defs><title>symbol</title><path class="cls-1" d="M13.06,7.19a5.6,5.6,0,1,0,5.6,5.6A5.6,5.6,0,0,0,13.06,7.19ZM16.31,16a4.59,4.59,0,1,1,1.35-3.25A4.58,4.58,0,0,1,16.31,16Z"/><path class="cls-1" d="M23.91,9.85H22.13a10.28,10.28,0,0,0-.54-1.33l1.24-1.24a1.93,1.93,0,0,0,0-2.72L21.24,3a1.93,1.93,0,0,0-2.72,0L17.26,4.23A9.1,9.1,0,0,0,16,3.72V1.92A1.94,1.94,0,0,0,14.08,0H11.84A1.92,1.92,0,0,0,9.91,1.92V3.79a9.72,9.72,0,0,0-1.28.56L7.28,3A1.91,1.91,0,0,0,4.56,3L3,4.59A2,2,0,0,0,2.41,6,2,2,0,0,0,3,7.32L4.42,8.76A9.11,9.11,0,0,0,4,9.89h-2A1.93,1.93,0,0,0,0,11.82v2.24A1.93,1.93,0,0,0,1.93,16H4.08a9.59,9.59,0,0,0,.45,1L3,18.55a1.91,1.91,0,0,0,0,2.72l1.58,1.59a1.93,1.93,0,0,0,2.72,0l1.53-1.53A8.53,8.53,0,0,0,10,21.8v2.11a1.92,1.92,0,0,0,1.92,1.92h2.25a1.92,1.92,0,0,0,1.92-1.92V21.84a8.37,8.37,0,0,0,1.08-.43l1.42,1.42a1.93,1.93,0,0,0,2.72,0l1.59-1.59a1.93,1.93,0,0,0,0-2.72l-1.34-1.34a9.11,9.11,0,0,0,.54-1.24h1.85A1.92,1.92,0,0,0,25.83,14V11.77A1.92,1.92,0,0,0,23.91,9.85ZM24.83,14a.93.93,0,0,1-.92.92H21.34l-.1.35A8.49,8.49,0,0,1,20.48,17l-.2.36.3.26,1.57,1.57a.93.93,0,0,1,.27.66.91.91,0,0,1-.27.65l-1.59,1.59a.89.89,0,0,1-.65.27.91.91,0,0,1-.65-.27l-1.58-1.58-.06-.07-.26-.28-.34.18A8.81,8.81,0,0,1,15.4,21l-.38.11,0,.56v2.23a.93.93,0,0,1-.92.92H11.88a.93.93,0,0,1-.92-.92V21.49l0-.4L10.62,21A8.79,8.79,0,0,1,9,20.28l-.36-.2-.41.5L6.61,22.15a.93.93,0,0,1-.66.27.91.91,0,0,1-.65-.27L3.71,20.57a.93.93,0,0,1-.27-.66.91.91,0,0,1,.27-.65l1.57-1.57.18-.15.32-.26-.2-.37a8.27,8.27,0,0,1-.68-1.59l-.12-.39L4.15,15H1.93A.93.93,0,0,1,1,14.06V11.82a.93.93,0,0,1,.93-.93H4.31l.4,0,.11-.4a7.87,7.87,0,0,1,.65-1.65l.17-.35-.38-.34L3.68,6.61A.93.93,0,0,1,3.41,6a.91.91,0,0,1,.27-.65L5.27,3.71a.91.91,0,0,1,.65-.27.93.93,0,0,1,.66.27L8.15,5.29h0l.27.31.35-.21a8.55,8.55,0,0,1,1.78-.77l.35-.11V1.92A.93.93,0,0,1,11.84,1h2.24a.94.94,0,0,1,.93.92V4.46l.36.1a8.21,8.21,0,0,1,1.76.71l.33.18,1.76-1.77a.93.93,0,0,1,.66-.27.91.91,0,0,1,.65.27l1.59,1.59a.91.91,0,0,1,.27.65.93.93,0,0,1-.27.66L20.37,8.33l.18.33a8.79,8.79,0,0,1,.74,1.82l.11.37h2.51a.93.93,0,0,1,.92.92Z"/></svg>