<svg id="Layer_1" data-name="Layer 1" xmlns="http://www.w3.org/2000/svg" viewBox="0 0 137.21 36.96"><defs><style>.cls-1{fill:#057477;}.cls-2{fill:#353535;}</style></defs><title>symbol</title><path class="cls-1" d="M36.24,18.48h-.71a17,17,0,1,1-5-12.06,17,17,0,0,1,5,12.06H37A18.48,18.48,0,1,0,18.48,37,18.48,18.48,0,0,0,37,18.48Z"/><path class="cls-1" d="M25.59,24.24v3H12.65l-.59-1.94a7.7,7.7,0,0,0,1.75-2.37,7.21,7.21,0,0,0,.55-3,5.1,5.1,0,0,0-.06-.62H11.37V16.71h2.19a10.86,10.86,0,0,1-.51-3.14,5.65,5.65,0,0,1,1.73-4.42,6.71,6.71,0,0,1,4.66-1.56,5.77,5.77,0,0,1,4.45,1.65,6,6,0,0,1,1.56,4.22H22c0-1.85-.88-2.78-2.64-2.78a2.73,2.73,0,0,0-2,.75,3,3,0,0,0-.73,2.15,10.37,10.37,0,0,0,.56,3.13h5.07v2.56H17.88c0,.29.05.5.05.64a5.85,5.85,0,0,1-1.78,4.33Z"/><path class="cls-2" d="M61.65,9.3a4.13,4.13,0,0,1-2.73.8H56.66V14H54.39V3.13h4.68A3.78,3.78,0,0,1,61.65,4a3.29,3.29,0,0,1,1,2.61A3.36,3.36,0,0,1,61.65,9.3ZM59.92,5.38A1.84,1.84,0,0,0,58.71,5H56.66v3.2h2.05a1.74,1.74,0,0,0,1.21-.39,1.58,1.58,0,0,0,.43-1.24A1.48,1.48,0,0,0,59.92,5.38Z"/><path class="cls-2" d="M68.74,5.77l.18,0V7.94l-.35,0h-.26a1.74,1.74,0,0,0-1.7.82,3.26,3.26,0,0,0-.25,1.44V14H64.24V6h2V7.37a4.4,4.4,0,0,1,.85-1.1,2.34,2.34,0,0,1,1.54-.5Z"/><path class="cls-2" d="M72.32,5H70.18V3.06h2.14ZM70.18,6h2.14V14H70.18Z"/><path class="cls-2" d="M79.18,8.85A1.78,1.78,0,0,0,78.87,8a1.26,1.26,0,0,0-1.1-.49,1.45,1.45,0,0,0-1.46,1.06,4.33,4.33,0,0,0-.21,1.49,4,4,0,0,0,.21,1.42,1.41,1.41,0,0,0,1.42,1,1.22,1.22,0,0,0,1-.4,1.9,1.9,0,0,0,.38-1h2.15a3.56,3.56,0,0,1-.69,1.82,3.38,3.38,0,0,1-2.94,1.38,3.42,3.42,0,0,1-2.86-1.15,4.68,4.68,0,0,1-.92-3,4.77,4.77,0,0,1,1-3.23,3.57,3.57,0,0,1,2.8-1.15,4.23,4.23,0,0,1,2.48.68,3.16,3.16,0,0,1,1.14,2.4Z"/><path class="cls-2" d="M88,6.13a3.25,3.25,0,0,1,1.39,1.19A3.85,3.85,0,0,1,90.05,9a9.91,9.91,0,0,1,.07,1.6H84.26a1.93,1.93,0,0,0,.84,1.7,2.15,2.15,0,0,0,1.16.3,1.76,1.76,0,0,0,1.17-.37,1.65,1.65,0,0,0,.43-.55H90a2.57,2.57,0,0,1-.78,1.46,3.92,3.92,0,0,1-3,1.17,4.38,4.38,0,0,1-2.83-1,3.91,3.91,0,0,1-1.23-3.23,4.34,4.34,0,0,1,1.11-3.2,3.86,3.86,0,0,1,2.88-1.12A4.43,4.43,0,0,1,88,6.13ZM84.87,8a2.17,2.17,0,0,0-.56,1.24h3.63a1.78,1.78,0,0,0-.56-1.27,1.86,1.86,0,0,0-1.25-.43A1.67,1.67,0,0,0,84.87,8Z"/><path class="cls-2" d="M102.79,3.13h3.27V14h-2.12V6.65c0-.21,0-.51,0-.89s0-.68,0-.88L101.89,14H99.68L97.63,4.88c0,.2,0,.5,0,.88s0,.68,0,.89V14H95.53V3.13h3.31l2,8.56Z"/><path class="cls-2" d="M111.19,9.12a3.09,3.09,0,0,0,.84-.19.63.63,0,0,0,.45-.6.69.69,0,0,0-.35-.68,2.25,2.25,0,0,0-1-.19,1.37,1.37,0,0,0-1.07.37,1.52,1.52,0,0,0-.3.74h-2a3.1,3.1,0,0,1,.59-1.74,3.49,3.49,0,0,1,2.88-1.06,5.13,5.13,0,0,1,2.36.53,2,2,0,0,1,1,2V12c0,.26,0,.57,0,.93a1.1,1.1,0,0,0,.12.56.88.88,0,0,0,.31.25V14h-2.29a2.51,2.51,0,0,1-.13-.46c0-.15,0-.31-.06-.49a4.44,4.44,0,0,1-1,.81,3,3,0,0,1-1.54.39,2.65,2.65,0,0,1-1.82-.63,2.2,2.2,0,0,1-.72-1.77,2.3,2.3,0,0,1,1.15-2.15,5.22,5.22,0,0,1,1.86-.51Zm1.28,1a2.49,2.49,0,0,1-.4.2,3.26,3.26,0,0,1-.57.15l-.48.09a3.38,3.38,0,0,0-1,.28,1,1,0,0,0-.49.9.94.94,0,0,0,.3.78,1.15,1.15,0,0,0,.74.24,2.17,2.17,0,0,0,1.27-.4,1.68,1.68,0,0,0,.6-1.46Z"/><path class="cls-2" d="M115.58,7.54V6h1.13V3.79h2.08V6h1.31v1.5h-1.31v4.25c0,.33,0,.54.13.62a1.4,1.4,0,0,0,.77.12h.41v1.57l-1,0a2.71,2.71,0,0,1-2-.52,1.57,1.57,0,0,1-.35-1.12V7.54Z"/><path class="cls-2" d="M126.27,8.85A1.78,1.78,0,0,0,126,8a1.25,1.25,0,0,0-1.1-.49,1.45,1.45,0,0,0-1.46,1.06,4.36,4.36,0,0,0-.2,1.49,4,4,0,0,0,.2,1.42,1.41,1.41,0,0,0,1.42,1,1.26,1.26,0,0,0,1.06-.4,2,2,0,0,0,.37-1h2.15a3.56,3.56,0,0,1-.69,1.82,3.38,3.38,0,0,1-2.94,1.38,3.43,3.43,0,0,1-2.86-1.15,4.68,4.68,0,0,1-.92-3,4.72,4.72,0,0,1,1-3.23,3.53,3.53,0,0,1,2.79-1.15,4.23,4.23,0,0,1,2.48.68,3.14,3.14,0,0,1,1.15,2.4Z"/><path class="cls-2" d="M135.66,6a2.31,2.31,0,0,1,1,.79,2.13,2.13,0,0,1,.41.93,11.28,11.28,0,0,1,.07,1.55V14H135V9.11a2.15,2.15,0,0,0-.22-1,1.11,1.11,0,0,0-1.09-.56,1.48,1.48,0,0,0-1.25.56A2.53,2.53,0,0,0,132,9.65V14h-2.11V3.16H132V7a2.53,2.53,0,0,1,1-1,2.9,2.9,0,0,1,1.26-.28A3.33,3.33,0,0,1,135.66,6Z"/><path class="cls-2" d="M61.65,26.45a4.13,4.13,0,0,1-2.73.8H56.66v3.91H54.39V20.27h4.68a3.78,3.78,0,0,1,2.58.85,3.29,3.29,0,0,1,1,2.61A3.36,3.36,0,0,1,61.65,26.45Zm-1.73-3.92a1.84,1.84,0,0,0-1.21-.36H56.66v3.2h2.05A1.74,1.74,0,0,0,59.92,25a1.58,1.58,0,0,0,.43-1.24A1.48,1.48,0,0,0,59.92,22.53Z"/><path class="cls-2" d="M68.74,22.92h.18v2.16l-.35,0h-.26a1.75,1.75,0,0,0-1.7.83,3.26,3.26,0,0,0-.25,1.44v3.84H64.24v-8h2v1.41a4.7,4.7,0,0,1,.85-1.11,2.33,2.33,0,0,1,1.54-.49Z"/><path class="cls-2" d="M76.87,30.18a4.43,4.43,0,0,1-6.19,0,5,5,0,0,1,0-6.05,4.38,4.38,0,0,1,6.19,0,5,5,0,0,1,0,6.05ZM75.19,29a3.06,3.06,0,0,0,.49-1.87,3,3,0,0,0-.49-1.86,1.68,1.68,0,0,0-1.42-.66,1.7,1.7,0,0,0-1.43.66,3,3,0,0,0-.49,1.86A3.06,3.06,0,0,0,72.34,29a1.71,1.71,0,0,0,1.43.65A1.7,1.7,0,0,0,75.19,29Z"/><path class="cls-2" d="M89.45,23.14a2.34,2.34,0,0,1,.93.73,2.27,2.27,0,0,1,.46,1,7,7,0,0,1,.08,1.19l0,5.07H88.74V26a1.84,1.84,0,0,0-.14-.76,1.07,1.07,0,0,0-1-.56,1.2,1.2,0,0,0-1.2.73,2.13,2.13,0,0,0-.17.92v4.79H84.07V26.37a2.62,2.62,0,0,0-.15-1,1,1,0,0,0-1-.58,1.23,1.23,0,0,0-1.21.58,2.15,2.15,0,0,0-.17,1v4.84H79.36v-8h2V24.3a3.06,3.06,0,0,1,.74-.89,2.46,2.46,0,0,1,1.58-.48,2.54,2.54,0,0,1,1.5.41,2.39,2.39,0,0,1,.69,1,2.71,2.71,0,0,1,1-1,3.13,3.13,0,0,1,1.45-.34A2.81,2.81,0,0,1,89.45,23.14Z"/><path class="cls-2" d="M95,22.15H92.88V20.21H95Zm-2.14,1H95v8.05H92.88Z"/><path class="cls-2" d="M98.69,28.59a1.36,1.36,0,0,0,.29.8,2,2,0,0,0,1.45.42,2.24,2.24,0,0,0,1-.18.59.59,0,0,0,.37-.56.6.6,0,0,0-.29-.53,11.55,11.55,0,0,0-2.21-.64,4.6,4.6,0,0,1-1.93-.85,1.83,1.83,0,0,1-.56-1.45,2.54,2.54,0,0,1,.87-1.92,3.56,3.56,0,0,1,2.47-.8,4.5,4.5,0,0,1,2.47.61,2.59,2.59,0,0,1,1.09,2.07h-2.11a1.19,1.19,0,0,0-.23-.64,1.46,1.46,0,0,0-1.18-.43,1.7,1.7,0,0,0-1,.22.61.61,0,0,0-.3.5.55.55,0,0,0,.31.52,13,13,0,0,0,2.2.59,4.07,4.07,0,0,1,1.89.89,2.06,2.06,0,0,1,.62,1.52,2.44,2.44,0,0,1-.89,1.95,5.36,5.36,0,0,1-5.57,0,2.64,2.64,0,0,1-.91-2.05Z"/><path class="cls-2" d="M110.72,23.28a3.24,3.24,0,0,1,1.39,1.19,4,4,0,0,1,.64,1.66,9.91,9.91,0,0,1,.07,1.6H107a1.93,1.93,0,0,0,.84,1.7,2.15,2.15,0,0,0,1.16.3,1.63,1.63,0,0,0,1.6-.92h2.15a2.65,2.65,0,0,1-.78,1.45,3.89,3.89,0,0,1-3,1.18,4.41,4.41,0,0,1-2.84-1,3.94,3.94,0,0,1-1.23-3.23A4.42,4.42,0,0,1,105.94,24a3.9,3.9,0,0,1,2.88-1.11A4.45,4.45,0,0,1,110.72,23.28Zm-3.15,1.81a2.16,2.16,0,0,0-.56,1.25h3.62a1.7,1.7,0,0,0-.56-1.27,1.83,1.83,0,0,0-1.24-.44A1.71,1.71,0,0,0,107.57,25.09Z"/></svg>