<svg id="Layer_1" data-name="Layer 1" xmlns="http://www.w3.org/2000/svg" viewBox="0 0 26.44 26.47"><defs><style>.cls-1{fill:#fff;}</style></defs><title>symbol</title><path class="cls-1" d="M13.94,0c-.24,0-.48,0-.72,0A13.24,13.24,0,0,0,2.3,20.7,134.89,134.89,0,0,1,13.94,0"/><path class="cls-1" d="M10.53,18.76c6-3,13.46-4.33,15.87-4.69,0-.28,0-.55,0-.83a13.22,13.22,0,0,0-6.6-11.45,117.46,117.46,0,0,0-9.31,17"/><path class="cls-1" d="M8.45,23.21H4.55A13.19,13.19,0,0,0,25.92,16.9c-12.33,2-17.47,6.31-17.47,6.31"/></svg>