<svg id="Layer_1" data-name="Layer 1" xmlns="http://www.w3.org/2000/svg" viewBox="0 0 27.75 24.14"><defs><style>.cls-1{fill:#fff;}</style></defs><title>symbol</title><path class="cls-1" d="M27.75,3.23h0a1,1,0,0,0-.17-.48A1.36,1.36,0,0,0,27,2.3h0a14.57,14.57,0,0,0-2.59-.73C21.72.93,20.26.6,19.38.42A13.81,13.81,0,0,0,17.87.15,19.49,19.49,0,0,0,15.46,0,13.71,13.71,0,0,0,9.7,1.16a10.61,10.61,0,0,0-4.57,4,11.12,11.12,0,0,0-1.72,6.08h0A15.33,15.33,0,0,0,4,15.39l0,.12.21-.06c-.41.63-.8,1.28-1.18,1.94a56.16,56.16,0,0,0-3,6.12l0,.12,1.22.51L1.27,24a57.27,57.27,0,0,1,3-6A25.6,25.6,0,0,1,8,12.73a24,24,0,0,1,9.62-5.46l.13,0L17.37,6l-.13,0A25.3,25.3,0,0,0,7.11,11.78a18,18,0,0,0-2,2.44,13.67,13.67,0,0,1-.35-3A9.84,9.84,0,0,1,6.25,5.89a9.24,9.24,0,0,1,4-3.53,12.39,12.39,0,0,1,5.2-1,17.1,17.1,0,0,1,2.25.14,10.1,10.1,0,0,1,1.4.25c.86.18,2.32.51,5,1.13.88.21,1.55.37,2,.5a10.52,10.52,0,0,1-.95.47L24.7,4h0a3,3,0,0,0-.39.22h0a4.31,4.31,0,0,0-1.63,2.38c-.27.85-.38,1.71-.6,2.47a14.93,14.93,0,0,1-2.24,4.81,8.49,8.49,0,0,1-7.07,3.55,11.51,11.51,0,0,1-1.92-.17,11.88,11.88,0,0,1-2.32-.67l-.13-.05-.48,1.24.12,0a13.66,13.66,0,0,0,2.57.74,12.31,12.31,0,0,0,2.16.2h0a9.86,9.86,0,0,0,8.12-4.09,16.16,16.16,0,0,0,2.44-5.24c.25-.88.37-1.73.59-2.44a3,3,0,0,1,1.13-1.69h0s.21-.12.42-.21h0c.35-.16.84-.37,1.26-.61a3.07,3.07,0,0,0,.59-.43h0a1.13,1.13,0,0,0,.25-.31,1,1,0,0,0,.14-.5h0Z"/><path class="cls-1" d="M24.31,4.25Z"/></svg>