<svg id="Layer_1" data-name="Layer 1" xmlns="http://www.w3.org/2000/svg" viewBox="0 0 11.08 9.89"><defs><style>.cls-1{fill:#a00;}</style></defs><title>symbol</title><path class="cls-1" d="M11,2.35A2.81,2.81,0,0,0,9.41.21L9.49,0,9.41.21A2.54,2.54,0,0,0,8.4,0,2.69,2.69,0,0,0,7.09.34h0a3.14,3.14,0,0,0-.6.45,3.6,3.6,0,0,0-.31.34h0L6,1.34l-.1-.07L6,1.35,6,1.41l0,.06h0l-.08.1h0l0,0-.3.3-.14-.18-.12-.16-.07-.08h0l0,0-.07-.08h0l-.16-.2h0A2.59,2.59,0,0,0,4.6.79,2.91,2.91,0,0,0,4,.34H4A2.72,2.72,0,0,0,2.68,0a2.55,2.55,0,0,0-1,.21A2.83,2.83,0,0,0,0,2.35H0a3.87,3.87,0,0,0,0,.48A3.91,3.91,0,0,0,.16,3.9,4.41,4.41,0,0,0,.64,5,12.42,12.42,0,0,0,2.89,7.41l2,1.84c.15.15.5.47.69.64l.69-.64,2-1.84A12.42,12.42,0,0,0,10.44,5h0a4.41,4.41,0,0,0,.48-1.09,3.91,3.91,0,0,0,.16-1.07,2.59,2.59,0,0,0,0-.48Z"/></svg>