<svg id="Layer_1" data-name="Layer 1" xmlns="http://www.w3.org/2000/svg" viewBox="0 0 27.92 28.71"><defs><style>.cls-1{fill:#057477;}</style></defs><title>symbol</title><path class="cls-1" d="M21.35,1.34l.49-.11-.2-.85L21.54,0H6.27l-.1.38C6.1.68,6,1,5.94,1.29l.49.12V.91H.09l0,.45c0,.14,0,.25,0,.43v.07l.5,0-.5,0A26.79,26.79,0,0,0,1.07,8.19a9.84,9.84,0,0,0,5.68,6.57,18.53,18.53,0,0,1,5,3.19,1.35,1.35,0,0,1,.35.76,7.68,7.68,0,0,1,0,.84c0,.33,0,.68,0,1,0,.15,0,.29,0,.45h0c0,.22,0,.44,0,.65a4,4,0,0,1-.24,1.61,2.33,2.33,0,0,1-1.13,1.16l.23.44v-.5H8.62v3H19.05v-3H16.69v.5l.33-.38a3.91,3.91,0,0,1-1.13-1.22,4.11,4.11,0,0,1-.2-1.65v0h0c0-.59,0-1.19,0-1.79,0-.37,0-.73,0-1.1h0v-.05a.84.84,0,0,1,.09-.42,1.7,1.7,0,0,1,.33-.39l0,0,0,0c1.65-1.54,3.75-2.4,5.79-3.56A10.41,10.41,0,0,0,24.74,12a14.49,14.49,0,0,0,2.79-7.41c.16-1.06.22-2.11.34-3.22l.05-.55H21.35v.5l.49-.11-.49.11v.5h6v-.5l-.5-.05c-.11,1.14-.18,2.18-.33,3.17-.38,2.58-1,5-2.57,6.92a9.45,9.45,0,0,1-2.56,2c-2,1.12-4.15,2-6,3.7h0a2.27,2.27,0,0,0-.53.66,1.84,1.84,0,0,0-.21.88v.08h0c0,.35,0,.71,0,1.07,0,.59,0,1.19,0,1.79h0v.06A4.78,4.78,0,0,0,15,23.7a4.79,4.79,0,0,0,1.39,1.57l.14.12h2v-.5h-.5v2h.5v-.5H9.12v.5h.5v-2h-.5v.5h2l.11-.06a3.3,3.3,0,0,0,1.58-1.65,5.12,5.12,0,0,0,.32-2c0-.23,0-.46,0-.68h0c0-.14,0-.27,0-.41,0-.34,0-.68,0-1a7.47,7.47,0,0,0,0-.94,2.29,2.29,0,0,0-.68-1.42,19.7,19.7,0,0,0-5.25-3.35A8.79,8.79,0,0,1,2,7.89,25,25,0,0,1,1,1.8H1s0-.14,0-.33l-.5-.05v.5H6.82l.09-.38C7,1.2,7.07.92,7.14.62L6.66.5V1H21.15V.5l-.49.12c.07.26.13.51.21.84l.09.38h.39Zm-19,2v.5H6.5v-.5H6v.15a24.22,24.22,0,0,0,1.92,9.67l.46-.2.11-.49A5.56,5.56,0,0,1,4.92,9.74,17.46,17.46,0,0,1,2.83,3.25l-.49.07v0l-.5.08a18.06,18.06,0,0,0,2.24,6.87,6.53,6.53,0,0,0,4.2,3.16l.94.2-.38-.89A23.24,23.24,0,0,1,7,3.47V2.82H1.75l.09.58Zm17.22,9.62.48.14c.43-1.54,1-3.09,1.29-4.72s.39-3.31.57-5l-.5,0v.5h3.9v-.5l-.49.07a6.23,6.23,0,0,1,.05.77,10,10,0,0,1-1.71,5.16,7.26,7.26,0,0,1-3.72,3.17l.13.48.48.14-.48-.14.13.49A8.21,8.21,0,0,0,24,9.83a10.94,10.94,0,0,0,1.87-5.7,6.73,6.73,0,0,0-.06-.91l-.06-.43H21l-.05.45c-.18,1.74-.25,3.38-.55,4.93s-.83,3.05-1.27,4.64l-.24.85.85-.23Z"/><path class="cls-1" d="M6.81,28.21v.5H21.25V26.43H6.31v2.28h.5v-.5h.5V26.93h-.5v.5H20.75v-.5h-.5v1.28h.5v-.5H6.81v.5h0Z"/></svg>