<svg id="Layer_1" data-name="Layer 1" xmlns="http://www.w3.org/2000/svg" viewBox="0 0 46.41 15.09"><defs><style>.cls-1{fill:#057477;}</style></defs><title>symbol</title><path class="cls-1" d="M12.93,11.73h-.5a2.35,2.35,0,1,1-2.35-2.35,2.36,2.36,0,0,1,2.35,2.35h1a3.35,3.35,0,1,0-3.35,3.36,3.35,3.35,0,0,0,3.35-3.36Z"/><path class="cls-1" d="M41.41,11.73h-.5a2.35,2.35,0,0,1-4.63.59h0a2.27,2.27,0,0,1-.07-.59,2.35,2.35,0,1,1,4.7,0h1a3.35,3.35,0,1,0-6.7,0,3.86,3.86,0,0,0,.1.84h0a3.35,3.35,0,0,0,6.6-.84Z"/><polyline class="cls-1" points="12.67 13.18 35.8 13.18 35.8 12.18 12.67 12.18"/><polygon class="cls-1" points="41.28 13.21 46.41 12.68 46.41 8.86 44.26 6.05 33.87 3.63 25.73 0 6.52 0 0 5.24 0 11.12 4.27 13.07 7.02 13.07 7.02 12.07 4.48 12.07 1 10.48 1 5.72 6.88 1 25.52 1 33.55 4.59 43.68 6.95 45.41 9.2 45.41 11.78 41.18 12.22 41.28 13.21"/><polygon class="cls-1" points="30.51 5.05 30.61 4.83 25.12 2.25 21.13 2.28 21.13 5.36 31.62 5.3 30.61 4.83 30.51 5.05 30.51 4.8 21.63 4.86 21.63 2.78 25.01 2.75 30.4 5.28 30.51 5.05 30.51 4.8 30.51 5.05"/><polygon class="cls-1" points="14.18 5.08 14.18 5.33 20.38 5.33 20.38 2.25 14.52 2.29 13.87 5.33 14.18 5.33 14.18 5.08 14.43 5.13 14.93 2.79 19.88 2.75 19.88 4.83 14.18 4.83 14.18 5.08 14.43 5.13 14.18 5.08"/><polygon class="cls-1" points="4.38 5.11 4.38 5.36 12.5 5.34 13.26 2.26 7.62 2.28 3.65 5.37 4.38 5.36 4.38 5.11 4.53 5.31 7.79 2.78 12.62 2.76 12.11 4.84 4.38 4.86 4.38 5.11 4.53 5.31 4.38 5.11"/></svg>