<?xml version="1.0" encoding="UTF-8" standalone="no"?><!DOCTYPE svg PUBLIC "-//W3C//DTD SVG 1.1//EN" "http://www.w3.org/Graphics/SVG/1.1/DTD/svg11.dtd"><svg width="100%" height="100%" viewBox="0 0 349 349" version="1.1" xmlns="http://www.w3.org/2000/svg" xmlns:xlink="http://www.w3.org/1999/xlink" xml:space="preserve" xmlns:serif="http://www.serif.com/" style="fill-rule:evenodd;clip-rule:evenodd;stroke-linejoin:round;stroke-miterlimit:1.41421;"><path d="M249.872,90.176l-105.413,106.869l-46.193,-45.2l-30.463,31.144l3.113,3.044l74.1,72.487l135.868,-137.756l-31.012,-30.588Z" style="fill:#20921a;fill-rule:nonzero;"/><path d="M341.944,174.344l-6.75,0c0,44.437 -17.988,84.612 -47.107,113.743c-29.131,29.113 -69.3,47.101 -113.743,47.113c-44.438,-0.012 -84.607,-18 -113.744,-47.113c-29.113,-29.131 -47.106,-69.306 -47.113,-113.743c0.007,-44.438 18,-84.613 47.113,-113.738c29.137,-29.125 69.306,-47.112 113.744,-47.112c44.443,0 84.612,17.987 113.743,47.112c29.119,29.125 47.107,69.3 47.107,113.738l13.493,0c0,-96.288 -78.05,-174.344 -174.343,-174.344c-96.294,0 -174.338,78.056 -174.344,174.344c0.006,96.293 78.05,174.344 174.344,174.35c96.293,-0.006 174.343,-78.056 174.343,-174.35l-6.743,0Z" style="fill:#20921a;fill-rule:nonzero;"/></svg>