<?xml version="1.0" encoding="UTF-8" standalone="no"?><!DOCTYPE svg PUBLIC "-//W3C//DTD SVG 1.1//EN" "http://www.w3.org/Graphics/SVG/1.1/DTD/svg11.dtd"><svg width="100%" height="100%" viewBox="0 0 345 518" version="1.1" xmlns="http://www.w3.org/2000/svg" xmlns:xlink="http://www.w3.org/1999/xlink" xml:space="preserve" xmlns:serif="http://www.serif.com/" style="fill-rule:evenodd;clip-rule:evenodd;stroke-linejoin:round;stroke-miterlimit:1.41421;"><path d="M15.863,15.856l173.043,0l0,59.969l58.732,0l0,261.637l-231.776,0l0.001,-321.606Zm188.9,8.031l36.525,36.082l-36.525,0l0,-36.082Zm-1.613,-23.887l-203.15,0l0,353.325l263.5,0l0,-7.925l0,-285.794l-60.35,-59.606Z" style="fill:#066;fill-rule:nonzero;"/><rect x="48.261" y="87.449" width="166.987" height="15.862" style="fill:#066;"/><rect x="48.261" y="230.53" width="166.987" height="15.856" style="fill:#066;"/><rect x="48.261" y="135.143" width="166.987" height="15.862" style="fill:#066;"/><rect x="48.261" y="182.836" width="166.987" height="15.856" style="fill:#066;"/><path d="M216.769,318.108c0,-8.725 7.606,-15.844 16.931,-15.844l33.869,0c9.331,0 16.931,7.119 16.931,15.844l0,47.538l-67.731,0l0,-47.538Zm105.837,47.538l-4.237,0l0,-47.538c0,-26.2 -22.794,-47.531 -50.8,-47.531l-33.869,0c-28.006,0 -50.794,21.331 -50.794,47.531l0,47.538l-4.237,0c-6.975,0 -12.7,5.356 -12.7,11.887l0,118.831c0,6.532 5.725,11.888 12.7,11.888l143.937,0c6.975,0 12.7,-5.356 12.7,-11.888l0,-118.831c0,-6.531 -5.725,-11.887 -12.7,-11.887Z" style="fill:#066;fill-rule:nonzero;"/><path d="M267.952,261.203c25.476,0.226 50.479,17.11 57.658,41.865c1.412,4.87 2.116,9.935 2.134,15.024l0,38.764c0,0 3.886,1.006 6.746,2.774c5.862,3.621 9.89,10.134 10.174,17.061c0.01,0.249 0.01,0.312 0.016,0.561c0.273,39.714 0.001,79.43 0.001,119.145c-0.075,10.95 -9.636,20.659 -20.975,21.204c-0.274,0.013 -0.549,0.019 -0.823,0.024c-48.08,0.297 -96.162,0.002 -144.243,0.002c-11.05,-0.068 -21.565,-9.098 -22.029,-20.421c-0.01,-0.248 -0.01,-0.312 -0.016,-0.56c-0.27,-39.714 -0.001,-79.43 -0.001,-119.145c0.065,-9.603 7.349,-18.377 16.937,-20.645l0,-38.764c0.059,-17.449 9.086,-34.473 23.272,-44.912c10.467,-7.703 23.336,-11.86 36.513,-11.977c11.546,-0.035 23.091,-0.035 34.636,0Zm-34.238,18.749c-19.645,0.059 -39.344,14.533 -41.273,34.793c-0.107,1.124 -0.156,2.252 -0.16,3.379l0,56.897c-4.571,0 -9.143,-0.081 -13.714,0.001c-1.546,0.046 -3.193,1.052 -3.223,2.487c-0.27,39.642 -1.353,79.308 0.001,118.928c0.076,1.578 1.9,2.399 3.222,2.438c48.039,0.865 96.102,0.865 144.141,0c1.548,-0.046 3.193,-1.03 3.223,-2.486c0.273,-39.642 1.353,-79.309 -0.001,-118.929c-0.079,-1.632 -1.991,-2.431 -3.352,-2.439l-13.584,0c0,-19.052 0.064,-38.104 -0.001,-57.156c-0.204,-20.015 -19.505,-37.72 -41.152,-37.912c-11.376,-0.034 -22.751,-0.001 -34.127,-0.001Zm34.02,12.938c13.401,0.121 26.09,11.045 26.141,25.201l0,56.93l-86.481,0c0,-19.027 -0.064,-38.053 0,-57.079c0.138,-13.3 12.114,-24.926 26.141,-25.052c11.399,-0.034 22.799,-0.034 34.199,0Zm-34.02,18.749c-3.707,0.011 -7.557,2.601 -7.57,6.485l0,38.147l48.981,0c0,-12.772 0.302,-25.548 -0.002,-38.316c-0.106,-3.464 -3.646,-6.281 -7.501,-6.315c-11.303,-0.034 -22.605,-0.001 -33.908,-0.001Z" style="fill:#fff;fill-rule:nonzero;"/><path d="M297.006,436.406l-1.85,0c0,12.206 -4.944,23.244 -12.944,31.25c-8.006,7.994 -19.044,12.938 -31.25,12.938c-12.213,0 -23.244,-4.944 -31.25,-12.938c-8,-8.006 -12.944,-19.044 -12.944,-31.25c0,-12.212 4.944,-23.25 12.944,-31.25c8.006,-8 19.037,-12.944 31.25,-12.944c12.206,0 23.244,4.944 31.25,12.944c8,8 12.944,19.038 12.944,31.25l3.7,0c0,-26.456 -21.438,-47.9 -47.894,-47.9c-26.456,0 -47.9,21.444 -47.9,47.9c0,26.45 21.444,47.894 47.9,47.894c26.456,0 47.894,-21.444 47.894,-47.894l-1.85,0Z" style="fill:#fff;fill-rule:nonzero;"/><path d="M269.387,451.324l0,7.744l-33.531,0l-1.525,-5.044c2.075,-1.988 3.581,-4.025 4.531,-6.119c0.944,-2.1 1.419,-4.719 1.419,-7.85c0,-0.319 -0.05,-0.85 -0.144,-1.594l-7.6,0l0,-6.631l5.669,0c-0.875,-2.906 -1.313,-5.631 -1.313,-8.162c0,-4.932 1.494,-8.744 4.494,-11.444c2.994,-2.694 7.019,-4.044 12.062,-4.044c5.05,0 8.894,1.431 11.544,4.288c2.65,2.856 4,6.5 4.05,10.925l-8.919,0c0,-4.794 -2.287,-7.188 -6.85,-7.188c-2.256,0 -4.018,0.638 -5.287,1.931c-1.269,1.288 -1.9,3.144 -1.9,5.569c0,2.419 0.487,5.125 1.45,8.125l13.137,0l0,6.631l-11.268,0c0.087,0.744 0.137,1.294 0.137,1.663c0,4.425 -1.544,8.162 -4.631,11.2l24.475,0Z" style="fill:#fff;fill-rule:nonzero;"/></svg>