<?xml version="1.0" encoding="UTF-8" standalone="no"?><!DOCTYPE svg PUBLIC "-//W3C//DTD SVG 1.1//EN" "http://www.w3.org/Graphics/SVG/1.1/DTD/svg11.dtd"><svg width="100%" height="100%" viewBox="0 0 158 22" version="1.1" xmlns="http://www.w3.org/2000/svg" xmlns:xlink="http://www.w3.org/1999/xlink" xml:space="preserve" xmlns:serif="http://www.serif.com/" style="fill-rule:evenodd;clip-rule:evenodd;stroke-linecap:round;stroke-linejoin:round;stroke-miterlimit:1.5;"><g><text x="21.708px" y="18.107px" style="font-family:'ArialMT', 'Arial', sans-serif;font-size:15.78px;">T<tspan x="30.57px 35.713px 44.303px 52.026px 56.318px 64.908px 68.339px 71.771px 80.361px " y="18.107px 18.107px 18.107px 18.107px 18.107px 18.107px 18.107px 18.107px 18.107px ">rustpilot</tspan></text><clipPath id="_clip1"><rect x="0.286" y="0.286" width="157.693" height="20.957"/></clipPath><g clip-path="url(#_clip1)"><path d="M10.666,0.286l2.41,7.418l7.799,0l-6.309,4.584l2.41,7.417l-6.31,-4.584l-6.309,4.584l2.41,-7.417l-6.31,-4.584l7.799,0l2.41,-7.418Z" style="fill:#00b67a;stroke:#000;stroke-opacity:0;stroke-width:0.57px;"/></g><path d="M9.817,15.5l4.621,-3.519l0.648,1.828l-5.269,1.691Z" style="fill:#005128;"/><g><rect x="90.45" y="6.812" width="12.702" height="12.893" style="fill:#00b67a;stroke:#000;stroke-opacity:0;stroke-width:0.57px;"/><path d="M96.801,8.908l1.08,3.324l3.495,0l-2.828,2.054l1.08,3.323l-2.827,-2.054l-2.827,2.054l1.08,-3.323l-2.828,-2.054l3.495,0l1.08,-3.324Z" style="fill:#fff;"/><path d="M96.672,15.652l1.891,-1.363l0.219,0.678l-2.11,0.685Z" style="fill:#00b67a;"/></g><g><rect x="103.95" y="6.812" width="12.702" height="12.893" style="fill:#00b67a;stroke:#000;stroke-opacity:0;stroke-width:0.57px;"/><g><path d="M110.301,8.908l1.08,3.324l3.495,0l-2.828,2.054l1.08,3.323l-2.827,-2.054l-2.827,2.054l1.08,-3.323l-2.828,-2.054l3.495,0l1.08,-3.324Z" style="fill:#fff;"/><path d="M110.172,15.652l1.891,-1.363l0.219,0.678l-2.11,0.685Z" style="fill:#00b67a;"/></g></g><g><rect x="117.45" y="6.812" width="12.702" height="12.893" style="fill:#00b67a;stroke:#000;stroke-opacity:0;stroke-width:0.57px;"/><g><path d="M123.801,8.908l1.08,3.324l3.495,0l-2.828,2.054l1.08,3.323l-2.827,-2.054l-2.827,2.054l1.08,-3.323l-2.828,-2.054l3.495,0l1.08,-3.324Z" style="fill:#fff;"/><path d="M123.672,15.652l1.891,-1.363l0.219,0.678l-2.11,0.685Z" style="fill:#00b67a;"/></g></g><g><rect x="130.95" y="6.812" width="12.702" height="12.893" style="fill:#00b67a;stroke:#000;stroke-opacity:0;stroke-width:0.57px;"/><path d="M137.301,8.908l1.08,3.324l3.495,0l-2.828,2.054l1.08,3.323l-2.827,-2.054l-2.827,2.054l1.08,-3.323l-2.828,-2.054l3.495,0l1.08,-3.324Z" style="fill:#fff;"/><path d="M137.172,15.652l1.891,-1.363l0.219,0.678l-2.11,0.685Z" style="fill:#00b67a;"/></g><g><rect x="144.45" y="6.812" width="12.702" height="12.893" style="fill:#00b67a;stroke:#000;stroke-opacity:0;stroke-width:0.57px;"/><path d="M150.801,8.908l1.08,3.324l3.495,0l-2.828,2.054l1.08,3.323l-2.827,-2.054l-2.827,2.054l1.08,-3.323l-2.828,-2.054l3.495,0l1.08,-3.324Z" style="fill:#fff;"/><path d="M150.672,15.652l1.891,-1.363l0.219,0.678l-2.11,0.685Z" style="fill:#00b67a;"/></g></g></svg>