<svg xmlns="http://www.w3.org/2000/svg" viewBox="0 0 15.81 12.85"><defs><style>.a{fill:#fff;}</style></defs><title>1</title><path class="a" d="M5,12.85A9.17,9.17,0,0,0,14.2,3.62c0-.14,0-.28,0-.42a6.81,6.81,0,0,0,1.62-1.68A6.49,6.49,0,0,1,14,2,3.29,3.29,0,0,0,15.37.24,6.41,6.41,0,0,1,13.31,1,3.25,3.25,0,0,0,7.7,3.24,3,3,0,0,0,7.79,4,9.17,9.17,0,0,1,1.1.59a3.25,3.25,0,0,0,1,4.33,3.12,3.12,0,0,1-1.46-.4v0A3.25,3.25,0,0,0,3.24,7.74a3.49,3.49,0,0,1-.86.11,3.08,3.08,0,0,1-.61-.06,3.25,3.25,0,0,0,3,2.26,6.51,6.51,0,0,1-4,1.39,6.49,6.49,0,0,1-.77,0,9.19,9.19,0,0,0,5,1.46"/></svg>