<?xml version="1.0" encoding="UTF-8" standalone="no"?><!DOCTYPE svg PUBLIC "-//W3C//DTD SVG 1.1//EN" "http://www.w3.org/Graphics/SVG/1.1/DTD/svg11.dtd"><svg width="100%" height="100%" viewBox="0 0 205 205" version="1.1" xmlns="http://www.w3.org/2000/svg" xmlns:xlink="http://www.w3.org/1999/xlink" xml:space="preserve" xmlns:serif="http://www.serif.com/" style="fill-rule:evenodd;clip-rule:evenodd;stroke-linejoin:round;stroke-miterlimit:1.41421;"><path d="M200.381,102.15l-3.925,0c-0.006,26.05 -10.55,49.6 -27.625,66.675c-17.075,17.075 -40.625,27.619 -66.675,27.619c-26.056,0 -49.6,-10.544 -66.675,-27.619c-17.075,-17.075 -27.625,-40.625 -27.625,-66.675c0,-26.05 10.55,-49.6 27.625,-66.675c17.075,-17.075 40.619,-27.619 66.675,-27.625c26.05,0.006 49.6,10.55 66.675,27.625c17.075,17.075 27.619,40.625 27.625,66.675l7.85,0c-0.006,-56.419 -45.731,-102.15 -102.15,-102.15c-56.418,0 -102.15,45.731 -102.156,102.15c0.006,56.412 45.738,102.15 102.156,102.15c56.419,0 102.144,-45.738 102.15,-102.15l-3.925,0Z" style="fill:#009b97;fill-rule:nonzero;"/><path d="M134.271,106.526l-9.1,0.463l-4.368,-4.844l4.35,-4.819l33.075,1.688l8.393,0.431c0.044,0.9 0.138,1.806 0.138,2.7c0,0.906 -0.094,1.819 -0.138,2.725l-32.35,1.656Zm20.319,33.05l-15.625,-17.306l-7.006,-7.769l33.712,-1.712c-1.65,9.881 -5.487,18.962 -11.081,26.787m-8.894,9.975l-30.693,-27.706l0.237,-4.581l0.1,-1.906l6.5,-0.338l27.706,30.688c-1.225,1.331 -2.512,2.612 -3.85,3.843m-32.925,16.113l1.719,-33.706l0.438,0.4l24.637,22.243c-7.825,5.588 -16.906,9.419 -26.794,11.063m-3.056,-50.194c-1.531,0 -2.775,-1.237 -2.775,-2.769c0,-1.525 1.244,-2.768 2.775,-2.768c1.525,0 2.769,1.243 2.769,2.768c0,1.532 -1.244,2.769 -2.769,2.769m-4.856,51.138c-0.9,0.043 -1.8,0.143 -2.706,0.143c-0.907,0 -1.813,-0.1 -2.725,-0.143l-2.113,-41.419l4.838,-4.363l4.818,4.344l-2.112,41.438Zm-10.2,-51.157c-1.531,0 -2.769,-1.243 -2.769,-2.775c0,-1.525 1.238,-2.768 2.769,-2.768c1.531,0 2.769,1.243 2.769,2.768c0,1.532 -1.238,2.775 -2.769,2.775m-29.913,39.15l25.057,-22.625l1.718,33.688c-9.881,-1.644 -18.956,-5.475 -26.775,-11.063m-9.981,-8.893l27.725,-30.707l6.344,0.325l0.119,0.007l0.331,6.531l-30.663,27.687c-1.343,-1.231 -2.625,-2.512 -3.856,-3.843m-5.044,-6.132c-5.6,-7.831 -9.437,-16.918 -11.081,-26.812l33.738,1.719l-7.613,8.431l-15.044,16.662Zm-12.162,-37.431c0,-0.906 0.094,-1.819 0.137,-2.725l1.182,-0.056l40.262,-2.056l4.369,4.843l-4.344,4.819l-14.519,-0.744l-26.95,-1.375c-0.043,-0.9 -0.137,-1.806 -0.137,-2.706m12.156,-37.419l22.638,25.063l-33.713,1.719c1.644,-9.882 5.488,-18.963 11.075,-26.782m8.906,-9.987l29.057,26.244l1.631,1.468l-0.338,6.494l-6.506,0.331l-27.7,-30.681c1.231,-1.337 2.513,-2.619 3.856,-3.856m32.919,-16.106l-0.994,19.45l-0.725,14.25l-25.075,-22.638c7.825,-5.587 16.907,-9.425 26.794,-11.062m1.344,59.8c0,1.531 -1.238,2.768 -2.763,2.768c-1.531,0 -2.768,-1.237 -2.768,-2.768c0,-1.532 1.237,-2.769 2.768,-2.769c1.525,0 2.763,1.237 2.763,2.769m1.281,3.637l1.563,0.075l-1.563,0.081l-0.075,-0.075l0.075,-0.081Zm3.45,4.613l-1.056,1.175l-0.125,-0.007l-0.006,-0.093l1.187,-1.075Zm4.625,3.487l-0.081,0.075l-0.081,-0.075l0.075,-1.625l0.087,1.625Zm5.625,-2.425l-0.006,0.131l-0.088,0l-1.075,-1.187l1.169,1.056Zm-11.706,-5.575l0.131,-2.45l1.65,-1.825l-0.019,-0.012l1.794,-1.625l2.419,-0.125l0,0.025l2.494,0.125l1.768,1.6l-0.018,0.012l1.668,1.85l0.007,0.006l0.118,2.375l-0.025,0l-0.125,2.45l0,0.007l-1.643,1.818l0.018,0.013l-1.8,1.625l-2.418,0.125l0,-0.025l-2.488,-0.125l-1.769,-1.6l0.013,-0.019l-1.669,-1.837l-0.125,-2.388l0.019,0Zm0.3,-5.744l0.081,-0.006l1.075,1.188l-1.162,-1.057l0.006,-0.125Zm5.781,-2.3l-0.081,1.625l-0.081,-1.625l0.075,-0.075l0.006,0l0.081,0.075Zm-0.012,-1.693c-1.532,0 -2.775,-1.244 -2.775,-2.775c0,-1.525 1.243,-2.769 2.775,-2.769c1.525,0 2.762,1.244 2.762,2.769c0,1.531 -1.237,2.775 -2.762,2.775m-2.775,-54.75c0.9,-0.038 1.806,-0.138 2.7,-0.138c0.912,0 1.818,0.1 2.731,0.144l2.112,41.412l-4.837,4.375l-4.819,-4.356l2.113,-41.437Zm8.425,58.762l0.006,0.088l-1.188,1.075l1.057,-1.169l0.125,0.006Zm2.268,5.625l0.069,0.081l-0.069,0.082l-1.556,-0.082l1.556,-0.081Zm4.05,-6.45c1.525,0 2.769,1.244 2.769,2.769c0,1.531 -1.244,2.775 -2.769,2.775c-1.531,0 -2.775,-1.244 -2.775,-2.775c0,-1.525 1.244,-2.769 2.775,-2.769m25.369,-45.925l-22.694,20.494l-2.356,2.125l-1.112,-21.781l-0.613,-11.894c9.881,1.637 18.956,5.475 26.775,11.056m9.981,8.9l-3.431,3.794l-24.287,26.906l-4.025,-0.206l-2.438,-0.125l-0.337,-6.531l12.262,-11.069l18.406,-16.625c1.338,1.237 2.625,2.512 3.85,3.856m5.044,6.125c5.6,7.831 9.438,16.919 11.081,26.813l-19.981,-1.025l-13.75,-0.7l1.225,-1.35l21.425,-23.738Zm-52.431,-35.269c-40.156,0 -72.7,32.544 -72.7,72.7c0,40.15 32.544,72.694 72.7,72.694c40.15,0 72.694,-32.544 72.7,-72.694c-0.006,-40.156 -32.55,-72.7 -72.7,-72.7" style="fill:#009b97;fill-rule:nonzero;"/></svg>