<svg id="Layer_1" data-name="Layer 1" xmlns="http://www.w3.org/2000/svg" viewBox="0 0 180.63 38.17"><defs><style>.cls-1{fill:#057477;}.cls-2{fill:#353535;}</style></defs><title>symbol</title><path class="cls-1" d="M31.46,4.62l-.71.72c-1.37,1.36-2.69,2.65-4,4h0c-.22.21-.29.22-.37.22l-.22-.05a4.61,4.61,0,0,1-2.75-2.78h0l0-.19c0-.07,0-.13.19-.32h0c1.2-1.15,2.35-2.34,3.52-3.51h0c.17-.17.31-.33.5-.53l.66-.71-.91-.31A6.88,6.88,0,0,0,25.14.8a7.48,7.48,0,0,0-2.32.39,7.72,7.72,0,0,0-5.39,7.15v0h0a4.28,4.28,0,0,1-.75,2.48h0l-.12-.15,0,0L6.53.4A1.24,1.24,0,0,0,5.61,0h0a1.32,1.32,0,0,0-.91.37h0L.39,4.56a1.33,1.33,0,0,0-.39.9H0v0a1.33,1.33,0,0,0,.37.91h0l10,10.26.15.12,0,0,.13.08-9.3,9.31a4.36,4.36,0,0,0-1.33,3,3.54,3.54,0,0,0,1.16,2.63,3.61,3.61,0,0,0,2.44,1,4.14,4.14,0,0,0,2.9-1.26c2.2-2.18,4.37-4.37,6.55-6.55q1.65-1.66,3.31-3.32l.1-.1,0,0a1,1,0,0,0,.3-.2l1-.94,8.09,8.29a1.41,1.41,0,0,0,0,.28,1.68,1.68,0,0,0,.19.79h0v0h0a3.9,3.9,0,0,0,.7.94h0c.11.11.23.23.37.35h0a7.5,7.5,0,0,0,1.27.86l.46.22.13.06h0l.45.18.38.15L32,30.46l-.29-.79,0,0v0h0a6.91,6.91,0,0,0-1.11-1.9c-.11-.13-.22-.25-.34-.37h0a4.29,4.29,0,0,0-.91-.71h0l0,0h0a1.7,1.7,0,0,0-.83-.21l-.23,0-8.09-8.29,1-.94,0-.05c.16-.15.31-.3.46-.46A3.28,3.28,0,0,1,24,15.56h.41A7.86,7.86,0,0,0,32,9.13a7.53,7.53,0,0,0,.12-1.35,7.26,7.26,0,0,0-.35-2.2ZM12.22,24.12C10,26.3,7.87,28.49,5.68,30.67a2.92,2.92,0,0,1-2,.9,2.35,2.35,0,0,1-1.6-.63,2.27,2.27,0,0,1-.76-1.71,3.12,3.12,0,0,1,1-2.16q4.76-4.76,9.5-9.5l2.14,1.35a1.44,1.44,0,0,0-.18.61h0v0a1.33,1.33,0,0,0,.37.92h0l.85.87h0l.05,0Zm8-7.87-.38.38h0l-1.49,1.45,9.51,9.75.4-.18.17,0,.23.05h0a2.52,2.52,0,0,1,.63.51l.29.31a6,6,0,0,1,.67,1c.08.16.13.29.18.39l0,.12,0,0h0v0l-1,1h0L29.3,31a5.36,5.36,0,0,1-1.38-.87h0l-.3-.29a2.26,2.26,0,0,1-.49-.65v0L27.05,29l0-.19.18-.39-9.5-9.75-1.85,1.81-.05,0,0,0h0L15,19.59h0l0,0h0l0-.05h0l.29-.27.56-.55-4.55-2.89-.06,0-10-10.2h0l0,0h0l0,0h0L2.56,4.18,16.44,18.07l.22-.22L2.78,4l1-1L17.66,16.88l.22-.22L4,2.78,5.56,1.26h0l0,0h0l0,0,10,10.2.06.07,2.77,4.62.85-.83.05,0,0,0,.84.87,0,0ZM30.78,8.91a6.61,6.61,0,0,1-6.36,5.41H24a4.42,4.42,0,0,0-2.87,1.08l0-.07-.85-.87h0a1.26,1.26,0,0,0-.92-.4h0a1.41,1.41,0,0,0-.6.16L17.37,12A5.6,5.6,0,0,0,18.66,8.5l0-.05v-.1h0a6.47,6.47,0,0,1,4.53-6,6.29,6.29,0,0,1,1.93-.32,5.52,5.52,0,0,1,.81.06c-1.07,1.09-2.13,2.17-3.22,3.21a1.63,1.63,0,0,0-.45,1.85,5.89,5.89,0,0,0,3.44,3.5h0a1.92,1.92,0,0,0,.68.14,1.76,1.76,0,0,0,1.27-.62c1-1.06,2.07-2.1,3.15-3.18a6.83,6.83,0,0,1,.06.77A6.27,6.27,0,0,1,30.78,8.91Z"/><path class="cls-2" d="M51.46,2.86h2.31V9.54A3.71,3.71,0,0,0,54,11.18a2.2,2.2,0,0,0,3.58,0,3.74,3.74,0,0,0,.26-1.64V2.86H60.2V9.55a5.56,5.56,0,0,1-.54,2.7C59,13.44,57.72,14,55.83,14s-3.16-.59-3.83-1.78a5.56,5.56,0,0,1-.54-2.7Z"/><polygon class="cls-2" points="62.42 2.86 64.66 2.86 64.66 7.34 68.87 2.86 71.81 2.86 67.34 7.33 72.04 13.75 69.11 13.75 65.76 8.99 64.66 10.1 64.66 13.75 62.42 13.75 62.42 2.86"/><path class="cls-2" d="M84.74,2.86H88V13.75H85.89V6.38c0-.21,0-.51,0-.89s0-.68,0-.88l-2.06,9.14H81.63l-2-9.14v.88c0,.38,0,.68,0,.89v7.37H77.48V2.86h3.31l2,8.56Z"/><path class="cls-2" d="M93.14,8.85A3.09,3.09,0,0,0,94,8.66a.63.63,0,0,0,.46-.6.71.71,0,0,0-.35-.68,2.33,2.33,0,0,0-1-.19A1.37,1.37,0,0,0,92,7.56a1.52,1.52,0,0,0-.3.74h-2a3.1,3.1,0,0,1,.6-1.74A3.46,3.46,0,0,1,93.13,5.5,5.17,5.17,0,0,1,95.5,6a2,2,0,0,1,1,2V11.7c0,.26,0,.57,0,.93a1.19,1.19,0,0,0,.13.56.79.79,0,0,0,.31.25v.31H94.69a2.6,2.6,0,0,1-.14-.46c0-.14,0-.31-.06-.49a4.23,4.23,0,0,1-1,.81,3,3,0,0,1-1.54.39,2.65,2.65,0,0,1-1.82-.63,2.2,2.2,0,0,1-.72-1.77,2.3,2.3,0,0,1,1.16-2.15,5.1,5.1,0,0,1,1.86-.51Zm1.29,1A2.58,2.58,0,0,1,94,10a3.26,3.26,0,0,1-.57.15l-.48.09a3.29,3.29,0,0,0-1,.28,1,1,0,0,0-.5.9.94.94,0,0,0,.3.78,1.17,1.17,0,0,0,.74.24,2.15,2.15,0,0,0,1.27-.4,1.71,1.71,0,0,0,.61-1.46Z"/><path class="cls-2" d="M104.86,6.16a2.63,2.63,0,0,1,.79,2.16v5.43h-2.16V8.85a2.15,2.15,0,0,0-.17-1,1.18,1.18,0,0,0-1.17-.62,1.47,1.47,0,0,0-1.46.91,3.1,3.1,0,0,0-.2,1.23v4.36H98.38v-8h2V6.88a3.58,3.58,0,0,1,.76-.89,2.65,2.65,0,0,1,1.65-.49A3.08,3.08,0,0,1,104.86,6.16Z"/><path class="cls-2" d="M109.71,5.69v4.86a2.49,2.49,0,0,0,.16,1,1.11,1.11,0,0,0,1.12.61,1.46,1.46,0,0,0,1.47-.87,3.09,3.09,0,0,0,.21-1.25V5.69h2.13v8.06h-2V12.61l-.15.22a1.75,1.75,0,0,1-.28.33,3.1,3.1,0,0,1-1,.6,3.23,3.23,0,0,1-1.08.16,2.39,2.39,0,0,1-2.4-1.28,4.93,4.93,0,0,1-.35-2.09V5.69Z"/><path class="cls-2" d="M120.18,2.76l.45,0V4.5l-.6,0a.63.63,0,0,0-.57.19.64.64,0,0,0-.16.43v.68h1.38V7.25H119.3v6.5h-2.09V7.25H116V5.77h1.16V5.25a2.72,2.72,0,0,1,.43-1.78c.31-.48,1-.73,2.21-.73Z"/><path class="cls-2" d="M125.08,8.85a3.09,3.09,0,0,0,.84-.19.63.63,0,0,0,.46-.6.71.71,0,0,0-.35-.68,2.28,2.28,0,0,0-1-.19,1.38,1.38,0,0,0-1.08.37,1.52,1.52,0,0,0-.3.74h-2a3.1,3.1,0,0,1,.6-1.74,3.49,3.49,0,0,1,2.88-1.06,5.16,5.16,0,0,1,2.36.53,2,2,0,0,1,1,2V11.7c0,.26,0,.57,0,.93a1.19,1.19,0,0,0,.13.56.79.79,0,0,0,.31.25v.31h-2.29a2.6,2.6,0,0,1-.14-.46c0-.14,0-.31-.06-.49a4.23,4.23,0,0,1-1,.81,3,3,0,0,1-1.54.39,2.65,2.65,0,0,1-1.82-.63,2.2,2.2,0,0,1-.72-1.77,2.3,2.3,0,0,1,1.16-2.15,5.1,5.1,0,0,1,1.86-.51Zm1.29,1a2.58,2.58,0,0,1-.41.2,3.26,3.26,0,0,1-.57.15l-.47.09a3.28,3.28,0,0,0-1,.28,1,1,0,0,0-.5.9.94.94,0,0,0,.3.78,1.17,1.17,0,0,0,.74.24,2.15,2.15,0,0,0,1.27-.4,1.71,1.71,0,0,0,.61-1.46Z"/><path class="cls-2" d="M135.12,8.58a1.89,1.89,0,0,0-.3-.81,1.26,1.26,0,0,0-1.1-.49,1.45,1.45,0,0,0-1.46,1.06,4.33,4.33,0,0,0-.21,1.49,4,4,0,0,0,.21,1.42,1.4,1.4,0,0,0,1.42,1,1.25,1.25,0,0,0,1-.4,2,2,0,0,0,.38-1h2.15a3.49,3.49,0,0,1-.7,1.82A3.38,3.38,0,0,1,133.63,14a3.45,3.45,0,0,1-2.87-1.15,4.67,4.67,0,0,1-.91-3,4.77,4.77,0,0,1,1-3.23,3.57,3.57,0,0,1,2.8-1.15,4.25,4.25,0,0,1,2.48.68,3.16,3.16,0,0,1,1.14,2.4Z"/><path class="cls-2" d="M137.89,7.27V5.77H139V3.52h2.08V5.77h1.31v1.5H141.1v4.25c0,.33,0,.54.13.62a1.38,1.38,0,0,0,.76.12h.42v1.57l-1,0a2.71,2.71,0,0,1-2-.52,1.52,1.52,0,0,1-.35-1.12v-5Z"/><path class="cls-2" d="M145.86,5.69v4.86a2.49,2.49,0,0,0,.16,1,1.11,1.11,0,0,0,1.12.61,1.48,1.48,0,0,0,1.48-.87,3.3,3.3,0,0,0,.2-1.25V5.69H151v8.06h-2.05V12.61l-.15.22a1.75,1.75,0,0,1-.28.33,3,3,0,0,1-.95.6,3.23,3.23,0,0,1-1.08.16,2.39,2.39,0,0,1-2.4-1.28,4.93,4.93,0,0,1-.35-2.09V5.69Z"/><path class="cls-2" d="M157.48,5.5l.18,0V7.67l-.36,0h-.25a1.74,1.74,0,0,0-1.7.82,3.12,3.12,0,0,0-.25,1.44v3.85H153V5.69h2V7.1a4.4,4.4,0,0,1,.85-1.1,2.32,2.32,0,0,1,1.54-.5Z"/><path class="cls-2" d="M164.14,5.86a3.31,3.31,0,0,1,1.39,1.19,4,4,0,0,1,.64,1.66,10,10,0,0,1,.07,1.6h-5.86a1.93,1.93,0,0,0,.84,1.7,2.15,2.15,0,0,0,1.16.3,1.76,1.76,0,0,0,1.17-.37,1.65,1.65,0,0,0,.43-.55h2.15a2.64,2.64,0,0,1-.78,1.46,3.92,3.92,0,0,1-3,1.17,4.41,4.41,0,0,1-2.84-1,3.94,3.94,0,0,1-1.22-3.23,4.34,4.34,0,0,1,1.11-3.2,3.83,3.83,0,0,1,2.88-1.12A4.43,4.43,0,0,1,164.14,5.86ZM161,7.68a2.11,2.11,0,0,0-.56,1.24h3.63a1.75,1.75,0,0,0-.57-1.27,1.82,1.82,0,0,0-1.24-.43A1.67,1.67,0,0,0,161,7.68Z"/><path class="cls-2" d="M171.78,5.5l.18,0V7.67l-.35,0h-.25a1.75,1.75,0,0,0-1.71.82,3.28,3.28,0,0,0-.24,1.44v3.85h-2.12V5.69h2V7.1a4.4,4.4,0,0,1,.85-1.1,2.34,2.34,0,0,1,1.54-.5Z"/><path class="cls-2" d="M174.83,11.18a1.32,1.32,0,0,0,.29.79,2,2,0,0,0,1.45.42,2.24,2.24,0,0,0,1-.18.58.58,0,0,0,.37-.55.6.6,0,0,0-.29-.54,11.55,11.55,0,0,0-2.21-.64,4.6,4.6,0,0,1-1.93-.85,1.82,1.82,0,0,1-.56-1.45,2.5,2.5,0,0,1,.87-1.91,3.52,3.52,0,0,1,2.47-.81,4.5,4.5,0,0,1,2.47.61,2.6,2.6,0,0,1,1.09,2.08h-2.11a1.23,1.23,0,0,0-.23-.65,1.45,1.45,0,0,0-1.18-.43,1.7,1.7,0,0,0-1,.22.61.61,0,0,0-.3.5.57.57,0,0,0,.31.53,14.7,14.7,0,0,0,2.2.58,4.07,4.07,0,0,1,1.89.89,2.06,2.06,0,0,1,.62,1.52,2.44,2.44,0,0,1-.89,1.95,5.36,5.36,0,0,1-5.57,0,2.64,2.64,0,0,1-.91-2Z"/><polygon class="cls-2" points="52.94 20 54.38 26.24 54.69 27.98 55 26.28 56.23 20 58.63 20 59.93 26.24 60.26 27.98 60.6 26.31 62.05 20 64.36 20 61.3 30.89 59.12 30.89 57.81 24.53 57.42 22.42 57.04 24.53 55.72 30.89 53.61 30.89 50.52 20 52.94 20"/><path class="cls-2" d="M68.2,26a3.09,3.09,0,0,0,.85-.19.64.64,0,0,0,.45-.6.71.71,0,0,0-.35-.68,2.13,2.13,0,0,0-1-.19,1.37,1.37,0,0,0-1.07.37,1.52,1.52,0,0,0-.3.74h-2a3.1,3.1,0,0,1,.59-1.74,3.46,3.46,0,0,1,2.88-1.06,5.25,5.25,0,0,1,2.36.52,2,2,0,0,1,1,2v3.7c0,.25,0,.57,0,.93a1.1,1.1,0,0,0,.12.56.7.7,0,0,0,.31.24v.32H69.75a2.51,2.51,0,0,1-.13-.46,3.46,3.46,0,0,1-.06-.49,4.73,4.73,0,0,1-1,.81,3.08,3.08,0,0,1-1.55.39,2.63,2.63,0,0,1-1.81-.63,2.2,2.2,0,0,1-.72-1.77,2.3,2.3,0,0,1,1.15-2.15,5.1,5.1,0,0,1,1.86-.51Zm1.29,1a2.22,2.22,0,0,1-.41.2,3.87,3.87,0,0,1-.56.15l-.48.09a3.08,3.08,0,0,0-1,.28,1,1,0,0,0-.5.9.92.92,0,0,0,.31.78,1.15,1.15,0,0,0,.74.24,2.25,2.25,0,0,0,1.27-.4,1.68,1.68,0,0,0,.6-1.46Z"/><path class="cls-2" d="M77.9,22.65h.19v2.16l-.36,0h-.25a1.75,1.75,0,0,0-1.71.82,3.28,3.28,0,0,0-.24,1.44V30.9H73.41V22.84h2v1.41a4.45,4.45,0,0,1,.85-1.11,2.34,2.34,0,0,1,1.53-.49Z"/><path class="cls-2" d="M83.79,22.65H84v2.16l-.35,0h-.25a1.75,1.75,0,0,0-1.71.82,3.28,3.28,0,0,0-.24,1.44V30.9H79.3V22.84h2v1.41a4.22,4.22,0,0,1,.85-1.11,2.34,2.34,0,0,1,1.53-.49Z"/><path class="cls-2" d="M88.4,26a3.09,3.09,0,0,0,.84-.19.64.64,0,0,0,.45-.6.69.69,0,0,0-.35-.68,2.13,2.13,0,0,0-1-.19,1.37,1.37,0,0,0-1.07.37,1.52,1.52,0,0,0-.3.74h-2a3.1,3.1,0,0,1,.59-1.74,3.46,3.46,0,0,1,2.88-1.06,5.25,5.25,0,0,1,2.36.52,2,2,0,0,1,1,2v3.7c0,.25,0,.57,0,.93a1.1,1.1,0,0,0,.12.56.76.76,0,0,0,.31.24v.32H89.94a3.67,3.67,0,0,1-.13-.46c0-.15,0-.31-.06-.49a4.73,4.73,0,0,1-1,.81,3.08,3.08,0,0,1-1.55.39,2.64,2.64,0,0,1-1.81-.63,2.2,2.2,0,0,1-.72-1.77,2.31,2.31,0,0,1,1.15-2.15,5.22,5.22,0,0,1,1.86-.51Zm1.28,1a2.49,2.49,0,0,1-.4.2,4.49,4.49,0,0,1-.57.15l-.48.09a3.08,3.08,0,0,0-1,.28,1,1,0,0,0-.49.9.94.94,0,0,0,.3.78,1.15,1.15,0,0,0,.74.24,2.25,2.25,0,0,0,1.27-.4,1.68,1.68,0,0,0,.6-1.46Z"/><path class="cls-2" d="M100.12,23.3a2.7,2.7,0,0,1,.79,2.17V30.9H98.75V26a2.3,2.3,0,0,0-.17-1,1.19,1.19,0,0,0-1.17-.62,1.45,1.45,0,0,0-1.46.91,3.09,3.09,0,0,0-.21,1.23V30.9h-2.1v-8h2V24a3.58,3.58,0,0,1,.76-.89,2.62,2.62,0,0,1,1.64-.49A3.14,3.14,0,0,1,100.12,23.3Z"/><path class="cls-2" d="M102,24.42v-1.5h1.12V20.67h2.08v2.25h1.31v1.5h-1.31v4.25a1,1,0,0,0,.13.62,1.4,1.4,0,0,0,.77.12h.41V31l-1,0a2.67,2.67,0,0,1-2-.52,1.52,1.52,0,0,1-.36-1.12V24.42Z"/><path class="cls-2" d="M108.22,32.44h.27a2.86,2.86,0,0,0,.59,0,1,1,0,0,0,.47-.17,1.19,1.19,0,0,0,.35-.52,1.23,1.23,0,0,0,.13-.49l-3-8.41h2.35l1.75,5.94,1.67-5.94h2.24l-2.77,7.92a10.91,10.91,0,0,1-1.26,2.84,2.4,2.4,0,0,1-1.87.55h-.45l-.51,0Z"/></svg>