<?xml version="1.0" encoding="utf-8"?>
<!-- Generator: Adobe Illustrator 16.0.0, SVG Export Plug-In . SVG Version: 6.00 Build 0)  -->
<!DOCTYPE svg PUBLIC "-//W3C//DTD SVG 1.1//EN" "http://www.w3.org/Graphics/SVG/1.1/DTD/svg11.dtd">
<svg version="1.1" id="Layer_1" xmlns="http://www.w3.org/2000/svg" xmlns:xlink="http://www.w3.org/1999/xlink" x="0px" y="0px"
	 width="30.833px" height="32.084px" viewBox="0 0 30.833 32.084" enable-background="new 0 0 30.833 32.084" xml:space="preserve">
<path fill="#057477" d="M29.817,4.648l-0.658,0.66c-1.257,1.258-2.473,2.439-3.651,3.679v0c-0.196,0.197-0.264,0.201-0.342,0.206
	l-0.202-0.047c-1.235-0.502-2.05-1.313-2.522-2.555l-0.002-0.002l-0.038-0.172c0.006-0.068,0.008-0.125,0.176-0.295v0
	c1.104-1.061,2.165-2.154,3.234-3.226l-0.004,0.002c0.156-0.155,0.285-0.305,0.456-0.488l0.606-0.646l-0.837-0.285
	c-0.68-0.232-1.357-0.342-2.027-0.342c-0.722,0-1.434,0.126-2.136,0.355c-2.855,0.929-4.95,3.589-4.959,6.581l0.001,0.016v0.001
	h-0.001c-0.006,0.907-0.241,1.612-0.688,2.282l-0.006-0.01l-0.11-0.143l-0.021-0.028L6.886,0.764
	C6.658,0.528,6.354,0.402,6.037,0.398H6.023c-0.311,0-0.611,0.12-0.838,0.342L5.184,0.739L1.237,4.589
	C1.016,4.809,0.886,5.105,0.879,5.424H0.876v0.009L0.875,5.455c0,0.317,0.128,0.615,0.344,0.836L1.218,6.288l9.2,9.43l0.14,0.113
	l0.027,0.022l0.117,0.074c-2.856,2.852-5.706,5.711-8.554,8.565c-0.8,0.803-1.228,1.805-1.228,2.792
	c-0.004,0.894,0.359,1.774,1.066,2.415c0.634,0.584,1.436,0.88,2.245,0.88c0.952,0,1.911-0.402,2.675-1.16
	c2.016-2.006,4.016-4.02,6.021-6.029c1.013-1.014,2.027-2.034,3.042-3.048l0.096-0.096l-0.028-0.029
	c0.099-0.051,0.198-0.103,0.279-0.18l0.884-0.863l7.443,7.628c-0.013,0.085-0.024,0.169-0.024,0.249
	c0.003,0.278,0.064,0.514,0.178,0.729h-0.006c0.004,0.009,0.011,0.016,0.015,0.024c0.001,0.005,0.004,0.011,0.005,0.016l0.004-0.002
	c0.178,0.355,0.412,0.629,0.64,0.86l0.002,0.004c0.1,0.101,0.211,0.211,0.339,0.322l0.002,0.003l0.002,0.002l0,0
	c0.4,0.355,0.83,0.613,1.166,0.791c0.169,0.089,0.313,0.16,0.42,0.207l0.124,0.054l0.013,0.004l0.009,0.007l0.421,0.167l0.345,0.138
	l2.009-1.959l-0.271-0.731l-0.012-0.028l-0.015-0.031h0.001c-0.09-0.223-0.408-1.027-1.019-1.748
	c-0.102-0.119-0.206-0.235-0.312-0.344l-0.003-0.003h-0.002c-0.226-0.229-0.49-0.469-0.838-0.655l0.001-0.002
	c-0.003-0.005-0.011-0.007-0.016-0.007c-0.009-0.005-0.015-0.012-0.023-0.016l-0.002,0.004c-0.222-0.124-0.471-0.195-0.766-0.197
	c-0.068,0-0.141,0.011-0.212,0.02l-7.441-7.627l0.88-0.859c0.015-0.013,0.021-0.032,0.032-0.045c0.141-0.14,0.279-0.28,0.419-0.42
	c0.691-0.692,1.379-1.014,2.257-1.019l0.12,0.001l0.257,0.004c3.463-0.009,6.385-2.63,6.979-5.915
	c0.074-0.41,0.115-0.824,0.115-1.244c0-0.657-0.102-1.328-0.329-2.02L29.817,4.648z M12.119,22.582
	c-2.009,2.01-4.005,4.024-6.019,6.023c-0.571,0.566-1.241,0.829-1.869,0.831c-0.535-0.002-1.042-0.189-1.472-0.58
	c-0.47-0.432-0.692-0.979-0.695-1.572c0-0.655,0.284-1.371,0.894-1.985c2.911-2.919,5.82-5.833,8.734-8.744l1.971,1.252
	c-0.093,0.169-0.16,0.352-0.163,0.551h-0.002v0.009l-0.002,0.015c0.002,0.314,0.123,0.615,0.346,0.839h-0.002l0.784,0.803
	l-0.008-0.009c0.011,0.014,0.028,0.016,0.038,0.026C13.806,20.889,12.963,21.735,12.119,22.582 M19.473,15.344
	c-0.116,0.116-0.232,0.232-0.347,0.347l0.003,0.003l-1.37,1.338l8.743,8.963l0.365-0.16l0.161-0.031l0.206,0.045l0.021,0.011
	l0.02,0.011c0.199,0.103,0.374,0.252,0.583,0.465l0.262,0.287c0.263,0.309,0.477,0.674,0.616,0.96
	c0.072,0.143,0.128,0.268,0.166,0.356l0.042,0.108l0.015,0.033l0.004,0.009l0.01,0.029l-0.942,0.92l-0.022-0.006l-0.183-0.083
	c-0.275-0.122-0.832-0.404-1.27-0.796l-0.003-0.002l-0.001-0.002l-0.278-0.267c-0.207-0.216-0.354-0.392-0.452-0.594l-0.009-0.021
	l-0.01-0.02l-0.04-0.198l0.036-0.176l0.167-0.359l-8.744-8.96l-1.704,1.663l-0.042,0.016l-0.039-0.014l-0.002-0.004l-0.776-0.795
	l-0.003-0.002l-0.015-0.038v-0.003l0.02-0.041l-0.002,0.001l0.262-0.254l0.519-0.505l-4.184-2.654l-0.061-0.051L2.038,5.49
	L2.036,5.488L2.02,5.455V5.453V5.448l0.021-0.046l0.006-0.005l1.179-1.15L16,17.019l0.201-0.203L3.432,4.045l0.916-0.893
	l12.771,12.771l0.203-0.203L4.552,2.953l1.435-1.399v0.001l0.036-0.013h0.001h0.001l0.035,0.014l9.16,9.385l0.05,0.065l2.551,4.243
	l0.78-0.758l0.045-0.016l0.035,0.014l0.778,0.798l0.018,0.042L19.473,15.344z M29.194,8.596c-0.484,2.744-2.991,4.983-5.854,4.975
	l-0.214-0.005l-0.163-0.003c-1-0.004-1.887,0.368-2.642,0.988c-0.018-0.019-0.022-0.044-0.041-0.063l-0.777-0.796l0.003,0.002
	c-0.225-0.233-0.533-0.363-0.85-0.365h-0.002h-0.006c-0.195-0.001-0.382,0.062-0.555,0.152l-1.239-2.061
	c0.726-0.921,1.17-1.961,1.188-3.208l0.015-0.045v-0.09l-0.003-0.005c-0.006-2.439,1.761-4.718,4.167-5.492
	c0.607-0.197,1.197-0.3,1.784-0.3c0.246,0,0.494,0.024,0.742,0.062c-0.988,0.995-1.962,1.994-2.963,2.954
	c-0.316,0.293-0.532,0.698-0.527,1.122c0,0.204,0.044,0.396,0.112,0.576c0.564,1.524,1.675,2.625,3.169,3.216l0.002,0.001h0.002
	c0.194,0.076,0.403,0.128,0.623,0.128c0.448,0.004,0.864-0.229,1.174-0.565c0.927-0.976,1.897-1.936,2.895-2.927
	c0.033,0.238,0.057,0.474,0.057,0.708C29.291,7.899,29.257,8.243,29.194,8.596"/>
</svg>
