<?xml version="1.0" encoding="UTF-8" standalone="no"?><!DOCTYPE svg PUBLIC "-//W3C//DTD SVG 1.1//EN" "http://www.w3.org/Graphics/SVG/1.1/DTD/svg11.dtd"><svg width="100%" height="100%" viewBox="0 0 327 153" version="1.1" xmlns="http://www.w3.org/2000/svg" xmlns:xlink="http://www.w3.org/1999/xlink" xml:space="preserve" xmlns:serif="http://www.serif.com/" style="fill-rule:evenodd;clip-rule:evenodd;stroke-linejoin:round;stroke-miterlimit:1.41421;"><path d="M83.502,129.796l-3.413,0c-0.018,8.863 -7.2,16.044 -16.068,16.063c-8.869,-0.019 -16.05,-7.194 -16.063,-16.063c0.013,-8.869 7.194,-16.05 16.063,-16.062c8.868,0.012 16.05,7.193 16.068,16.062l6.825,0c-0.006,-12.65 -10.25,-22.894 -22.893,-22.894c-12.644,0 -22.894,10.25 -22.894,22.894c0,12.644 10.25,22.888 22.894,22.894c12.643,-0.006 22.887,-10.25 22.893,-22.894l-3.412,0Z" style="fill:#066c72;fill-rule:nonzero;"/><path d="M294.977,129.796l-3.413,0c-0.018,8.869 -7.193,16.044 -16.062,16.063c-8.875,-0.019 -16.05,-7.2 -16.069,-16.063c0.019,-8.869 7.194,-16.05 16.069,-16.062c8.869,0.012 16.044,7.193 16.062,16.062l6.825,0c0,-12.644 -10.243,-22.894 -22.887,-22.894c-12.65,0 -22.894,10.244 -22.894,22.894c0,12.644 10.244,22.888 22.894,22.894c12.644,-0.006 22.887,-10.25 22.887,-22.894l-3.412,0Z" style="fill:#066c72;fill-rule:nonzero;"/><path d="M256.018,126.381l-172.519,0l0,6.832l172.519,0" style="fill:#066c72;fill-rule:nonzero;"/><path d="M44.794,126.387l-37.963,-2.812l0,-16.188l2.844,-3.5l0.762,-0.943l0,-52.219l1.719,-2.788l0.506,-0.825l0,-32.65l0,-7.631l181.275,0l7.844,1.963l12.375,6.187l13.713,7.675l8.818,5.881l19.863,18.757l24.137,20.731l30.838,11.819l5.581,8.862l2.331,14.194l0,18.45l-7.768,5.031l-16.694,0l0,6.831l18.706,0l12.588,-8.143l0,-22.725l-2.644,-16.113l-7.538,-11.95l-31.85,-12.212l-23.112,-19.85l-20.163,-19.044l-9.531,-6.35l-14.075,-7.888l-13.194,-6.593l-9.387,-2.344l-188.938,0l0,45.181l-1.718,2.788l-0.507,0.818l0,51.732l-2.85,3.506l-0.762,0.944l0,24.95l44.287,3.281l0.507,-6.813Z" style="fill:#066c72;fill-rule:nonzero;"/><path d="M274.738,74.172l1.35,-1.044l-8.351,-10.862l-9.618,-8.369l-32.832,-27.956l-1.675,-1.075l-0.218,-0.144l-5.338,-1.419l-0.219,-0.056l-19.768,0l0,7.569l3.6,27.487l5.118,4.681l22.413,7.669l49.344,5.675l-2.457,-3.2l-1.35,1.044l0.194,-1.694l-44.975,-5.181l-21.387,-7.319l-3.682,-3.356l-3.4,-26.025l0,-3.938l15.907,0l4.6,1.225l1.262,0.813l32.65,27.806l1.106,-1.3l-1.118,1.288l9.35,8.125l8.137,10.6l1.356,-1.044l0.194,-1.694l-0.194,1.694Z" style="fill:#066c72;fill-rule:nonzero;"/></svg>