<svg id="Layer_1" data-name="Layer 1" xmlns="http://www.w3.org/2000/svg" viewBox="0 0 36.07 16.88"><defs><style>.cls-1{fill:#3a3a3a;}</style></defs><title>symbol</title><path class="cls-1" d="M35.78,9.53,35,8.21,31.43,6.86,28.87,4.67,26.64,2.56l-1.05-.7L24,1,22.57.26l-1-.26H.64V5l-.18.3L.4,5.39v5.72l-.32.39L0,11.61v2.75l4.58.34a2.52,2.52,0,0,0,5,0H28a2.52,2.52,0,0,0,5,0h1.73l1.39-.9V11.32Zm-28.7,6.6a1.78,1.78,0,1,1,1.77-1.78A1.79,1.79,0,0,1,7.08,16.13Zm23.38,0a1.78,1.78,0,1,1,1.78-1.78A1.79,1.79,0,0,1,30.46,16.13Zm4.86-2.71-.86.55H33a2.52,2.52,0,0,0-5,0H9.57a2.52,2.52,0,0,0-5,0L.76,13.66V11.87l.31-.38.08-.11V5.61l.19-.31.06-.09V.76h20l.87.21,1.37.69,1.51.85,1,.64,2.19,2.08L31,7.52l3.41,1.31.62,1,.26,1.57Z"/><path class="cls-1" d="M29.6,6.88,28.54,6,24.91,2.87l-.19-.12,0,0-.59-.15H21.9V3.4h0l.4,3,.56.51,2.48.85,5.46.63-.28-.35Zm-6.54-.25-.41-.37-.37-2.88V3H24l.5.13.14.09,3.61,3.08,1,.89L30,8l-4.53-.52Z"/></svg>