<?xml version="1.0" encoding="UTF-8" standalone="no"?>
<!DOCTYPE svg PUBLIC "-//W3C//DTD SVG 1.1//EN" "http://www.w3.org/Graphics/SVG/1.1/DTD/svg11.dtd">
<svg width="100%" height="100%" viewBox="0 0 193 193" version="1.1" xmlns="http://www.w3.org/2000/svg" xmlns:xlink="http://www.w3.org/1999/xlink" xml:space="preserve" xmlns:serif="http://www.serif.com/" style="fill-rule:evenodd;clip-rule:evenodd;stroke-linejoin:round;stroke-miterlimit:1.41421;">
    <g transform="matrix(5.55556,0,0,5.55556,-1500.4,-2839.84)">
        <g transform="matrix(1,0,0,1,304.094,528.517)">
            <path d="M0,-0.001L-0.666,-0.001C-0.667,4.423 -2.457,8.422 -5.356,11.321C-8.256,14.22 -12.254,16.011 -16.678,16.011C-18.716,16.011 -20.664,15.631 -22.455,14.937C-24.552,14.126 -26.436,12.884 -27.999,11.321C-30.897,8.422 -32.688,4.423 -32.688,-0.001C-32.688,-4.424 -30.897,-8.423 -27.999,-11.322C-25.1,-14.221 -21.102,-16.011 -16.678,-16.012C-12.254,-16.011 -8.256,-14.221 -5.356,-11.322C-4.111,-10.077 -3.071,-8.629 -2.289,-7.032C-1.25,-4.91 -0.667,-2.525 -0.666,-0.001L0.667,-0.001C0.666,-9.58 -7.098,-17.345 -16.678,-17.346C-26.257,-17.345 -34.021,-9.58 -34.022,-0.001C-34.021,9.578 -26.257,17.344 -16.678,17.345C-10.29,17.344 -4.709,13.891 -1.699,8.749C-0.195,6.18 0.667,3.19 0.667,-0.001L0,-0.001Z" style="fill:rgb(2,97,97);fill-rule:nonzero;"/>
        </g>
        <g transform="matrix(1,0,0,1,292.869,527.775)">
            <path d="M0,1.485L-1.545,1.564L-2.287,0.742L-1.549,-0.077L4.068,0.211L5.493,0.283C5.5,0.435 5.517,0.589 5.517,0.742C5.517,0.896 5.5,1.051 5.493,1.205L0,1.485ZM3.451,7.097L0.797,4.158L-0.393,2.84L5.332,2.548C5.052,4.227 4.4,5.769 3.451,7.097M1.939,8.792L-3.271,4.087L-3.231,3.309L-3.215,2.985L-2.11,2.928L2.594,8.137C2.385,8.365 2.167,8.583 1.939,8.792M-3.65,11.527L-3.358,5.804L-3.284,5.871L0.899,9.648C-0.43,10.597 -1.972,11.248 -3.65,11.527M-4.17,3.005C-4.43,3.005 -4.641,2.794 -4.641,2.534C-4.641,2.274 -4.43,2.064 -4.17,2.064C-3.91,2.064 -3.699,2.274 -3.699,2.534C-3.699,2.794 -3.91,3.005 -4.17,3.005M-4.994,11.687C-5.147,11.695 -5.3,11.711 -5.453,11.711C-5.607,11.711 -5.762,11.695 -5.916,11.687L-6.274,4.655L-5.453,3.913L-4.635,4.652L-4.994,11.687ZM-6.726,3.001C-6.985,3.001 -7.196,2.79 -7.196,2.53C-7.196,2.27 -6.985,2.059 -6.726,2.059C-6.466,2.059 -6.256,2.27 -6.256,2.53C-6.256,2.79 -6.466,3.001 -6.726,3.001M-11.805,9.648L-7.551,5.807L-7.259,11.527C-8.937,11.248 -10.477,10.596 -11.805,9.648M-13.499,8.137L-8.792,2.924L-7.715,2.979L-7.695,2.981L-7.639,4.089L-12.846,8.792C-13.073,8.583 -13.29,8.365 -13.499,8.137M-14.356,7.097C-15.307,5.767 -15.959,4.224 -16.238,2.545L-10.51,2.837L-11.802,4.268L-14.356,7.097ZM-16.422,0.742C-16.422,0.588 -16.405,0.433 -16.398,0.279L-16.197,0.269L-9.361,-0.079L-8.619,0.742L-9.357,1.561L-11.821,1.434L-16.398,1.202C-16.406,1.048 -16.422,0.894 -16.422,0.742M-14.356,-5.613L-10.514,-1.356L-16.237,-1.065C-15.958,-2.744 -15.307,-4.285 -14.356,-5.613M-12.846,-7.307L-7.911,-2.852L-7.635,-2.603L-7.691,-1.5L-8.796,-1.444L-13.499,-6.653C-13.29,-6.88 -13.073,-7.098 -12.846,-7.307M-7.255,-10.042L-7.424,-6.741L-7.547,-4.32L-11.805,-8.164C-10.476,-9.113 -8.935,-9.764 -7.255,-10.042M-7.026,0.111C-7.026,0.371 -7.237,0.582 -7.497,0.582C-7.757,0.582 -7.967,0.371 -7.967,0.111C-7.967,-0.149 -7.757,-0.359 -7.497,-0.359C-7.237,-0.359 -7.026,-0.149 -7.026,0.111M-6.81,0.728L-6.545,0.742L-6.81,0.756L-6.822,0.742L-6.81,0.728ZM-6.224,1.512L-6.403,1.712L-6.425,1.711L-6.426,1.695L-6.224,1.512ZM-5.439,2.104L-5.452,2.117L-5.467,2.104L-5.453,1.829L-5.439,2.104ZM-4.483,1.692L-4.484,1.714L-4.5,1.715L-4.682,1.513L-4.483,1.692ZM-6.471,0.746L-6.449,0.33L-6.169,0.02L-6.173,0.017L-5.867,-0.258L-5.456,-0.28L-5.456,-0.276L-5.034,-0.254L-4.733,0.017L-4.736,0.019L-4.453,0.334L-4.452,0.335L-4.432,0.738L-4.436,0.738L-4.457,1.155L-4.736,1.464L-4.733,1.467L-5.038,1.743L-5.45,1.763L-5.45,1.759L-5.872,1.739L-6.173,1.466L-6.17,1.464L-6.453,1.151L-6.474,0.746L-6.471,0.746ZM-6.421,-0.23L-6.406,-0.231L-6.224,-0.03L-6.422,-0.208L-6.421,-0.23ZM-5.438,-0.619L-5.452,-0.344L-5.467,-0.619L-5.453,-0.632L-5.452,-0.632L-5.438,-0.619ZM-5.441,-0.908C-5.701,-0.908 -5.912,-1.119 -5.912,-1.378C-5.912,-1.638 -5.701,-1.848 -5.441,-1.848C-5.182,-1.848 -4.972,-1.638 -4.972,-1.378C-4.972,-1.119 -5.182,-0.908 -5.441,-0.908M-5.912,-10.203C-5.759,-10.21 -5.605,-10.227 -5.453,-10.227C-5.299,-10.227 -5.145,-10.21 -4.99,-10.203L-4.631,-3.171L-5.452,-2.429L-6.271,-3.167L-5.912,-10.203ZM-4.48,-0.226L-4.48,-0.211L-4.682,-0.029L-4.503,-0.227L-4.48,-0.226ZM-4.097,0.728L-4.084,0.742L-4.097,0.756L-4.36,0.742L-4.097,0.728ZM-3.409,-0.366C-3.149,-0.366 -2.938,-0.156 -2.938,0.104C-2.938,0.364 -3.149,0.575 -3.409,0.575C-3.668,0.575 -3.879,0.364 -3.879,0.104C-3.879,-0.156 -3.668,-0.366 -3.409,-0.366M0.899,-8.164L-2.954,-4.685L-3.354,-4.324L-3.543,-8.022L-3.646,-10.042C-1.97,-9.763 -0.429,-9.112 0.899,-8.164M2.594,-6.654L2.012,-6.008L-2.113,-1.44L-2.797,-1.475L-3.211,-1.496L-3.268,-2.606L-1.186,-4.486L1.939,-7.307C2.167,-7.098 2.385,-6.881 2.594,-6.654M3.451,-5.613C4.4,-4.283 5.053,-2.741 5.332,-1.061L1.938,-1.234L-0.396,-1.353L-0.188,-1.582L3.451,-5.613ZM-5.452,-11.601C-12.271,-11.601 -17.797,-6.076 -17.797,0.742C-17.797,7.56 -12.271,13.086 -5.452,13.086C1.364,13.086 6.891,7.56 6.892,0.742C6.891,-6.076 1.364,-11.601 -5.452,-11.601" style="fill:rgb(2,97,97);fill-rule:nonzero;"/>
        </g>
    </g>
</svg>
