<svg xmlns="http://www.w3.org/2000/svg" viewBox="0 0 21.46 21.46"><defs><style>.a{fill:#595959;}</style></defs><title>1</title><path class="a" d="M21,10.73h-.41a9.9,9.9,0,1,1-2.9-7,9.88,9.88,0,0,1,2.9,7h.83A10.73,10.73,0,1,0,10.73,21.46,10.72,10.72,0,0,0,21.46,10.73Z"/><path class="a" d="M11.87,15.06c0,.5.46.75,1.46.75v1H8.13v-1q1.44,0,1.44-.75V10c0-.51-.48-.77-1.44-.77v-1h3.74Zm.2-9.63a1.41,1.41,0,0,1-.41,1,1.32,1.32,0,0,1-1,.43,1.35,1.35,0,0,1-.57-.12,1.39,1.39,0,0,1-.45-.31A1.44,1.44,0,0,1,9.32,6a1.3,1.3,0,0,1-.11-.56,1.35,1.35,0,0,1,.42-1,1.4,1.4,0,0,1,1-.41,1.36,1.36,0,0,1,1,.42A1.34,1.34,0,0,1,12.07,5.43Z"/></svg>