<svg id="Layer_1" data-name="Layer 1" xmlns="http://www.w3.org/2000/svg" viewBox="0 0 164.6 37.44"><defs><style>.cls-1{fill:#057477;}.cls-2{fill:#353535;}</style></defs><title>symbol</title><path class="cls-1" d="M1.65,23.28l.46.2c.63-1.5,2.19-3.2,4.72-5A34.57,34.57,0,0,0,11.24,15h0a5.59,5.59,0,0,0,1.65-3.88,4.44,4.44,0,0,0-1-2.92A3.55,3.55,0,0,0,9,7,4.22,4.22,0,0,0,7,7.44,3.18,3.18,0,0,0,5.58,8.9h0A8.71,8.71,0,0,0,5,12.12l.5,0v-.5H.78v.5l.5,0A11.35,11.35,0,0,1,2.37,7.29,5.91,5.91,0,0,1,4.85,4.73a8.38,8.38,0,0,1,4-.86,8.22,8.22,0,0,1,5.88,2,7,7,0,0,1,2.16,5.37,7.27,7.27,0,0,1-1.53,4.56h0a16.25,16.25,0,0,1-3.42,3L10,20.24c-1.22.87-2.05,1.49-2.53,1.9A6.16,6.16,0,0,0,6.2,23.6l-.45.76H16.88v3.27H.51v.5H1A11.19,11.19,0,0,1,2.1,23.5h0l-.46-.2-.45-.22A12.25,12.25,0,0,0,0,28.11v.52H17.88V23.36H6.63v.5l.43.26a4.84,4.84,0,0,1,1-1.22c.42-.36,1.24-1,2.45-1.84l1.94-1.38a16.3,16.3,0,0,0,3.63-3.25h0a8.27,8.27,0,0,0,1.74-5.17,8,8,0,0,0-2.47-6.1,9.29,9.29,0,0,0-6.57-2.3,9.31,9.31,0,0,0-4.43,1,7,7,0,0,0-2.9,3,12.41,12.41,0,0,0-1.2,5.29v.52H6l0-.48a7.58,7.58,0,0,1,.5-2.83h0a2.17,2.17,0,0,1,.95-1A3.23,3.23,0,0,1,9,8a2.54,2.54,0,0,1,2.1.85,3.44,3.44,0,0,1,.75,2.28,4.55,4.55,0,0,1-1.38,3.19h0a35.38,35.38,0,0,1-4.26,3.37c-2.6,1.87-4.3,3.65-5.06,5.43l.46.19-.45-.22Z"/><path class="cls-1" d="M20.78,17.54l.44.24a5.42,5.42,0,0,1,2.52-2.32l.8-.38-.74-.49a5.23,5.23,0,0,1-2.14-2.34,6.66,6.66,0,0,1-.5-2.41A5.49,5.49,0,0,1,23,5.63a7.55,7.55,0,0,1,5.38-1.76,7.54,7.54,0,0,1,5.37,1.76,5.49,5.49,0,0,1,1.87,4.21,6.75,6.75,0,0,1-.5,2.42,4.41,4.41,0,0,1-2.1,2.14l-.77.44.77.44a6.36,6.36,0,0,1,2.56,2.5,7.22,7.22,0,0,1,.86,3.52,6.53,6.53,0,0,1-2.15,4.93,8.5,8.5,0,0,1-6.09,2c-2.68,0-4.6-.7-5.9-2a6.83,6.83,0,0,1-2-4.94,7.13,7.13,0,0,1,.88-3.52l-.44-.24-.44-.24a8.05,8.05,0,0,0-1,4,7.86,7.86,0,0,0,2.27,5.64c1.54,1.58,3.78,2.33,6.62,2.33A9.51,9.51,0,0,0,35,27a7.57,7.57,0,0,0,2.46-5.65,8.18,8.18,0,0,0-1-4,7.33,7.33,0,0,0-2.94-2.9l-.24.44.25.43a5.41,5.41,0,0,0,2.53-2.65,7.63,7.63,0,0,0,.57-2.78A6.53,6.53,0,0,0,34.47,4.9a8.58,8.58,0,0,0-6.06-2,8.59,8.59,0,0,0-6.07,2,6.53,6.53,0,0,0-2.18,4.94,7.63,7.63,0,0,0,.57,2.78,6.26,6.26,0,0,0,2.52,2.81l.27-.42-.21-.45a6.43,6.43,0,0,0-3,2.74Zm5,6.25-.36.35a3.94,3.94,0,0,0,3,1.16,3.92,3.92,0,0,0,3-1.16A4.43,4.43,0,0,0,32.47,21a4.37,4.37,0,0,0-1.1-3.21,4,4,0,0,0-2.95-1.13,4,4,0,0,0-3,1.13A4.46,4.46,0,0,0,24.37,21a4.47,4.47,0,0,0,1.08,3.17l.36-.35.37-.34A3.45,3.45,0,0,1,25.37,21a3.42,3.42,0,0,1,.82-2.51,3,3,0,0,1,2.23-.83,3,3,0,0,1,2.24.83A3.42,3.42,0,0,1,31.47,21a3.45,3.45,0,0,1-.8,2.48,3,3,0,0,1-2.25.85,2.94,2.94,0,0,1-2.24-.85Zm.31-11.21-.36.35a3.58,3.58,0,0,0,2.65,1,3.53,3.53,0,0,0,2.66-1A3.53,3.53,0,0,0,32,10.39a3.61,3.61,0,0,0-.95-2.64,3.56,3.56,0,0,0-2.65-1,3.58,3.58,0,0,0-2.64,1,3.55,3.55,0,0,0-1,2.64,3.53,3.53,0,0,0,1,2.54l.36-.35.36-.35a2.5,2.5,0,0,1-.68-1.84,2.55,2.55,0,0,1,.68-1.93,2.57,2.57,0,0,1,1.93-.68,2.58,2.58,0,0,1,1.94.67A2.61,2.61,0,0,1,31,10.39a2.48,2.48,0,0,1-.67,1.84,2.53,2.53,0,0,1-1.93.7,2.59,2.59,0,0,1-1.93-.7Z"/><polygon class="cls-2" points="60.92 2.12 63.5 2.12 59.86 8.93 59.86 13.01 57.58 13.01 57.58 8.93 53.82 2.12 56.5 2.12 58.76 6.86 60.92 2.12"/><path class="cls-2" d="M69.05,5.12a3.25,3.25,0,0,1,1.39,1.19A4,4,0,0,1,71.09,8a10.15,10.15,0,0,1,.06,1.6H65.29a1.91,1.91,0,0,0,.84,1.69,2.07,2.07,0,0,0,1.16.31,1.82,1.82,0,0,0,1.17-.37,1.71,1.71,0,0,0,.44-.56h2.15a2.63,2.63,0,0,1-.79,1.46,3.92,3.92,0,0,1-3,1.17,4.38,4.38,0,0,1-2.83-1,3.89,3.89,0,0,1-1.23-3.22,4.35,4.35,0,0,1,1.11-3.21,3.9,3.9,0,0,1,2.88-1.12A4.59,4.59,0,0,1,69.05,5.12ZM65.9,6.94a2.27,2.27,0,0,0-.56,1.25H69a1.8,1.8,0,0,0-.56-1.28,1.84,1.84,0,0,0-1.25-.43A1.67,1.67,0,0,0,65.9,6.94Z"/><path class="cls-2" d="M75.41,8.11a3.63,3.63,0,0,0,.84-.18.64.64,0,0,0,.45-.6.7.7,0,0,0-.34-.68,2.2,2.2,0,0,0-1-.19,1.33,1.33,0,0,0-1.07.37,1.52,1.52,0,0,0-.3.74h-2a3.12,3.12,0,0,1,.59-1.74A3.46,3.46,0,0,1,75.4,4.77a5.09,5.09,0,0,1,2.36.52,2,2,0,0,1,1,2V11c0,.26,0,.57,0,.94a1.11,1.11,0,0,0,.13.56.65.65,0,0,0,.31.24V13H77a2.18,2.18,0,0,1-.14-.46q0-.21-.06-.48a4.4,4.4,0,0,1-1,.8,3,3,0,0,1-1.54.39,2.69,2.69,0,0,1-1.82-.62,2.23,2.23,0,0,1-.72-1.77,2.29,2.29,0,0,1,1.16-2.15,5.08,5.08,0,0,1,1.86-.52Zm1.29,1a2,2,0,0,1-.41.21,3.38,3.38,0,0,1-.57.14l-.48.09a3.14,3.14,0,0,0-1,.29.94.94,0,0,0-.5.89.94.94,0,0,0,.3.78,1.15,1.15,0,0,0,.74.24,2.15,2.15,0,0,0,1.27-.4,1.69,1.69,0,0,0,.61-1.45Z"/><path class="cls-2" d="M85.11,4.77h.18V6.94l-.35,0h-.26a1.75,1.75,0,0,0-1.7.83,3.1,3.1,0,0,0-.25,1.43V13H80.61V5h2v1.4a4.6,4.6,0,0,1,.85-1.1A2.33,2.33,0,0,1,85,4.77Z"/><path class="cls-2" d="M88.16,10.44a1.39,1.39,0,0,0,.29.8,2,2,0,0,0,1.45.42,2.1,2.1,0,0,0,1-.19.58.58,0,0,0,.37-.55.59.59,0,0,0-.3-.54,12.29,12.29,0,0,0-2.2-.63,4.6,4.6,0,0,1-1.93-.85,1.84,1.84,0,0,1-.57-1.45,2.52,2.52,0,0,1,.88-1.92,3.56,3.56,0,0,1,2.47-.8,4.53,4.53,0,0,1,2.46.6,2.59,2.59,0,0,1,1.1,2.08H91.06a1.28,1.28,0,0,0-.23-.64,1.44,1.44,0,0,0-1.19-.43,1.76,1.76,0,0,0-1,.21.64.64,0,0,0-.29.51.54.54,0,0,0,.31.52,13.45,13.45,0,0,0,2.2.58,4.07,4.07,0,0,1,1.89.9,2,2,0,0,1,.62,1.51,2.45,2.45,0,0,1-.9,2,4.2,4.2,0,0,1-2.75.75,4.12,4.12,0,0,1-2.81-.8,2.58,2.58,0,0,1-.91-2Z"/><polygon class="cls-2" points="107.37 4.05 101.6 4.05 101.6 6.36 106.89 6.36 106.89 8.25 101.6 8.25 101.6 11.05 107.63 11.05 107.63 13.01 99.38 13.01 99.38 2.12 107.37 2.12 107.37 4.05"/><polygon class="cls-2" points="108.43 13.01 111.18 8.93 108.55 4.97 111.13 4.97 112.47 7.3 113.79 4.97 116.29 4.97 113.65 8.9 116.4 13.01 113.78 13.01 112.39 10.59 110.99 13.01 108.43 13.01"/><path class="cls-2" d="M122.47,7.85a1.82,1.82,0,0,0-.31-.82,1.27,1.27,0,0,0-1.1-.48,1.45,1.45,0,0,0-1.46,1,4.37,4.37,0,0,0-.21,1.49,4,4,0,0,0,.21,1.42,1.41,1.41,0,0,0,1.42,1,1.22,1.22,0,0,0,1-.4,1.93,1.93,0,0,0,.38-1h2.15a3.53,3.53,0,0,1-.69,1.81A3.38,3.38,0,0,1,121,13.28a3.42,3.42,0,0,1-2.86-1.15,4.66,4.66,0,0,1-.92-3,4.69,4.69,0,0,1,1-3.22A3.5,3.5,0,0,1,121,4.77a4.15,4.15,0,0,1,2.48.68,3.1,3.1,0,0,1,1.14,2.4Z"/><path class="cls-2" d="M131.31,5.12a3.28,3.28,0,0,1,1.4,1.19A4,4,0,0,1,133.35,8a11.24,11.24,0,0,1,.07,1.6h-5.87a1.91,1.91,0,0,0,.84,1.69,2.1,2.1,0,0,0,1.16.31,1.82,1.82,0,0,0,1.17-.37,1.71,1.71,0,0,0,.44-.56h2.15a2.67,2.67,0,0,1-.78,1.46,3.93,3.93,0,0,1-3,1.17,4.39,4.39,0,0,1-2.84-1,3.89,3.89,0,0,1-1.23-3.22,4.35,4.35,0,0,1,1.11-3.21,3.9,3.9,0,0,1,2.88-1.12A4.59,4.59,0,0,1,131.31,5.12Zm-3.15,1.82a2.27,2.27,0,0,0-.56,1.25h3.63a1.76,1.76,0,0,0-.56-1.28,1.84,1.84,0,0,0-1.25-.43A1.67,1.67,0,0,0,128.16,6.94Z"/><rect class="cls-2" x="134.53" y="2.12" width="2.11" height="10.89"/><rect class="cls-2" x="138.73" y="2.12" width="2.11" height="10.89"/><path class="cls-2" d="M148.14,5.12a3.31,3.31,0,0,1,1.39,1.19A4,4,0,0,1,150.17,8a9.91,9.91,0,0,1,.07,1.6h-5.87a1.94,1.94,0,0,0,.85,1.69,2.07,2.07,0,0,0,1.16.31,1.82,1.82,0,0,0,1.17-.37,1.69,1.69,0,0,0,.43-.56h2.15a2.67,2.67,0,0,1-.78,1.46,3.92,3.92,0,0,1-3,1.17,4.41,4.41,0,0,1-2.84-1,3.89,3.89,0,0,1-1.23-3.22,4.35,4.35,0,0,1,1.11-3.21,3.9,3.9,0,0,1,2.88-1.12A4.64,4.64,0,0,1,148.14,5.12ZM145,6.94a2.14,2.14,0,0,0-.56,1.25h3.62a1.73,1.73,0,0,0-.56-1.28,1.83,1.83,0,0,0-1.25-.43A1.63,1.63,0,0,0,145,6.94Z"/><path class="cls-2" d="M157.8,5.42a2.66,2.66,0,0,1,.79,2.17V13h-2.16V8.11a2.11,2.11,0,0,0-.17-1,1.16,1.16,0,0,0-1.17-.62,1.45,1.45,0,0,0-1.46.91,3.05,3.05,0,0,0-.2,1.22V13h-2.11V5h2V6.15a3.65,3.65,0,0,1,.76-.9,2.7,2.7,0,0,1,1.64-.48A3.08,3.08,0,0,1,157.8,5.42Z"/><path class="cls-2" d="M159.72,6.53V5h1.12V2.79h2.09V5h1.3v1.5h-1.3v4.26a1,1,0,0,0,.12.61,1.39,1.39,0,0,0,.77.13h.41v1.57l-1,0a2.64,2.64,0,0,1-2-.52,1.51,1.51,0,0,1-.36-1.11v-5Z"/><path class="cls-2" d="M56.35,26.8a2.21,2.21,0,0,0,.41,1.11,2.43,2.43,0,0,0,1.94.68A4.13,4.13,0,0,0,60,28.41a1.27,1.27,0,0,0,1-1.26.94.94,0,0,0-.48-.84A5.2,5.2,0,0,0,59,25.8l-1.18-.26a7.22,7.22,0,0,1-2.38-.83,2.65,2.65,0,0,1-1.1-2.36,3.13,3.13,0,0,1,1.07-2.43,4.57,4.57,0,0,1,3.17-1,4.9,4.9,0,0,1,3,.91,3.26,3.26,0,0,1,1.29,2.65H60.67a1.54,1.54,0,0,0-.88-1.39,2.87,2.87,0,0,0-1.35-.28A2.56,2.56,0,0,0,57,21.2a1.11,1.11,0,0,0-.54,1,.93.93,0,0,0,.53.87,6.41,6.41,0,0,0,1.45.45l1.91.45a4.89,4.89,0,0,1,1.88.79,2.66,2.66,0,0,1,1,2.23,3.11,3.11,0,0,1-1.16,2.47,4.85,4.85,0,0,1-3.26,1,5.31,5.31,0,0,1-3.38-1,3.22,3.22,0,0,1-1.23-2.67Z"/><path class="cls-2" d="M69.88,22.27a3.25,3.25,0,0,1,1.39,1.19,4,4,0,0,1,.64,1.67A9.84,9.84,0,0,1,72,26.72H66.12a1.91,1.91,0,0,0,.84,1.7,2.07,2.07,0,0,0,1.16.31,1.62,1.62,0,0,0,1.6-.93h2.15a2.55,2.55,0,0,1-.78,1.46,3.92,3.92,0,0,1-3,1.17,4.36,4.36,0,0,1-2.83-1A3.89,3.89,0,0,1,64,26.22,4.35,4.35,0,0,1,65.11,23,3.86,3.86,0,0,1,68,21.89,4.59,4.59,0,0,1,69.88,22.27Zm-3.15,1.82a2.14,2.14,0,0,0-.56,1.25H69.8a1.77,1.77,0,0,0-.57-1.28A1.82,1.82,0,0,0,68,23.63,1.67,1.67,0,0,0,66.73,24.09Z"/><path class="cls-2" d="M77.52,21.92h.18v2.16l-.35,0H77.1a1.75,1.75,0,0,0-1.71.83,3.26,3.26,0,0,0-.24,1.43v3.85H73v-8h2v1.4a4.6,4.6,0,0,1,.85-1.1,2.34,2.34,0,0,1,1.54-.5Z"/><polygon class="cls-2" points="83.9 22.11 86.16 22.11 83.25 30.16 81.03 30.16 78.14 22.11 80.51 22.11 82.18 28.05 83.9 22.11"/><path class="cls-2" d="M89.52,21.15H87.38V19.2h2.14Zm-2.14,1h2.14v8.05H87.38Z"/><path class="cls-2" d="M96.37,25a1.88,1.88,0,0,0-.3-.82A1.3,1.3,0,0,0,95,23.69a1.45,1.45,0,0,0-1.45,1.06,4.37,4.37,0,0,0-.21,1.49,4,4,0,0,0,.21,1.42,1.41,1.41,0,0,0,1.42,1,1.28,1.28,0,0,0,1-.4,2,2,0,0,0,.38-1h2.15a3.49,3.49,0,0,1-.7,1.82,3.38,3.38,0,0,1-2.93,1.38A3.44,3.44,0,0,1,92,29.28a4.66,4.66,0,0,1-.91-3,4.69,4.69,0,0,1,1-3.22,3.52,3.52,0,0,1,2.79-1.16,4.26,4.26,0,0,1,2.49.68A3.2,3.2,0,0,1,98.53,25Z"/><path class="cls-2" d="M105.22,22.27a3.31,3.31,0,0,1,1.39,1.19,4,4,0,0,1,.64,1.67,9.84,9.84,0,0,1,.07,1.59h-5.86a1.91,1.91,0,0,0,.84,1.7,2.07,2.07,0,0,0,1.16.31,1.62,1.62,0,0,0,1.6-.93h2.15a2.67,2.67,0,0,1-.78,1.46,3.92,3.92,0,0,1-3,1.17,4.41,4.41,0,0,1-2.84-1,3.89,3.89,0,0,1-1.22-3.22,4.34,4.34,0,0,1,1.1-3.21,3.86,3.86,0,0,1,2.88-1.12A4.64,4.64,0,0,1,105.22,22.27Zm-3.15,1.82a2.14,2.14,0,0,0-.56,1.25h3.63a1.77,1.77,0,0,0-.57-1.28,1.83,1.83,0,0,0-1.25-.43A1.65,1.65,0,0,0,102.07,24.09Z"/></svg>