<svg xmlns="http://www.w3.org/2000/svg" viewBox="0 0 322.34 329.91"><defs><style>.a,.i{fill:#fff;}.a{opacity:0.56;}.b{fill:#3b3b3b;}.c{fill:#d6d6d6;}.d{fill:none;}.d,.e,.h,.i,.j{stroke:#3b3b3b;stroke-miterlimit:10;stroke-width:3px;}.e,.f{fill:#9bd1d1;}.g,.j{fill:#0094c6;}.h{fill:#a4dded;}</style></defs><title>1</title><rect class="a" width="322.34" height="329.91"/><rect class="a" x="1.43" y="0.47" width="322.34" height="329.91"/><polygon class="b" points="219.3 127.16 219.3 88.8 196.92 88.8 196.92 113.67 219.09 131.14 219.3 127.16"/><polygon class="c" points="249.16 153.62 249.1 145.1 159.06 72.59 68.51 145.1 68.51 145.12 68.51 145.12 68.51 147.26 68.51 150.21 68.51 150.21 68.51 155.39 78.25 155.39 78.25 150.33 79.14 150.33 159.1 85.99 238.94 151.18 239.36 151.28 239.36 155.39 249.09 155.39 249.09 153.61 249.16 153.62"/><polygon class="c" points="137.99 259.08 106.43 259.08 101.33 288.18 144.84 288.18 137.99 259.08"/><rect class="d" x="107.83" y="210.07" width="28.48" height="49.09"/><polygon class="d" points="77.53 259.13 77.53 149.58 159.12 84.85 240.62 150.34 240.62 259.98 77.53 259.13"/><rect class="e" x="107.01" y="149.38" width="28.5" height="30.73"/><rect class="e" x="164.69" y="149.38" width="45.17" height="30.73"/><path class="f" d="M80.48,179.9a28,28,0,0,0-52.88,0,19,19,0,1,0,14.11,34.44,28.1,28.1,0,0,0,24.66,0A19,19,0,1,0,80.48,179.9Z"/><polygon class="b" points="76.64 196.35 58.16 206.62 55.29 175.71 54.04 175.71 54.04 175.71 52.79 175.71 49.92 206.62 31.44 196.35 29.96 198.12 48.48 213.27 48.48 260.39 54.04 260.39 54.04 260.39 59.59 260.39 59.59 213.27 78.11 198.12 76.64 196.35"/><path class="b" d="M4.46,289.44H320.75a1.87,1.87,0,0,0,0-3.67H4.46a1.87,1.87,0,0,0,0,3.67"/><rect class="g" x="127.46" y="226.9" width="3.36" height="7.58"/><line class="h" x1="187.23" y1="149.26" x2="187.23" y2="179.95"/><line class="h" x1="164.3" y1="164.61" x2="210.17" y2="164.61"/><path class="b" d="M32.84,32.85A28.79,28.79,0,1,0,61.62,61.63,28.78,28.78,0,0,0,32.84,32.85ZM57.9,61.63A25.07,25.07,0,1,1,32.84,36.56,25.06,25.06,0,0,1,57.9,61.63ZM40.62,71.88,31.2,65a1.38,1.38,0,0,1-.57-1.12V45.38A1.4,1.4,0,0,1,32,44h1.63A1.4,1.4,0,0,1,35,45.38v17l8.18,6a1.38,1.38,0,0,1,.3,2l-1,1.31a1.41,1.41,0,0,1-2,.3Z"/><polyline class="e" points="173.53 301.09 173.53 286.89 194.53 281.8 244.96 281.8 253.39 251.78 261.89 251.78 261.89 254.77 280.6 254.77 290.87 271.51 290.87 298.21 287 302.34 172.48 302.34"/><ellipse class="i" cx="272.17" cy="301.4" rx="8.61" ry="9.17"/><ellipse class="i" cx="193.41" cy="301.4" rx="8.61" ry="9.17"/><path class="j" d="M239.67,274.12H182l-3.41-2-.36-3.6,1.59-6.28,9.88-11.42h20.87l24.8,11.06,4.3,5.2S240.26,274.76,239.67,274.12Z"/><ellipse class="i" cx="191.29" cy="273.23" rx="5.83" ry="6.21"/><ellipse class="i" cx="227.9" cy="273.23" rx="5.83" ry="6.21"/><rect class="e" x="164.32" y="210.2" width="45.17" height="30.73"/><line class="e" x1="186.9" y1="209.9" x2="186.9" y2="240.59"/><line class="e" x1="163.97" y1="225.24" x2="209.84" y2="225.24"/></svg>