<svg xmlns="http://www.w3.org/2000/svg" viewBox="0 0 322.34 329.91"><defs><style>.a,.e,.f,.h{fill:#fff;}.a{opacity:0.56;}.b{fill:#3b3b3b;}.c,.d{fill:#9bd1d1;}.c,.d,.f{stroke:#3b3b3b;stroke-miterlimit:10;stroke-width:3px;}.c{stroke-linecap:round;}.g{fill:#0094c6;}.h{font-size:19.38px;font-family:OpenSans-Bold, Open Sans;font-weight:700;}</style></defs><title>1</title><rect class="a" width="322.34" height="329.91"/><path class="b" d="M3.05,289.59H319.34a1.87,1.87,0,0,0,0-3.67H3.05a1.87,1.87,0,0,0,0,3.67"/><rect class="c" x="103.76" y="263.8" width="22.7" height="21.21" rx="10.6"/><rect class="c" x="192.15" y="263.8" width="22.7" height="21.21" rx="10.6"/><path class="c" d="M232.83,199.66c-.23,0-.46,0-.68,0-8.53-27.88-37.64-48.41-72.25-48.41-41.31,0-74.79,29.24-74.79,65.3s33.48,65.3,74.79,65.3c32.55,0,60.23-18.16,70.5-43.5a8.92,8.92,0,0,0,11.36-8.59V208.59A9,9,0,0,0,232.83,199.66Z"/><polygon class="d" points="181.66 158.37 203.05 135.66 207.33 171.2 181.66 158.37"/><polygon class="e" points="190.43 160.23 197.47 152.76 198.87 164.45 190.43 160.23"/><rect class="e" x="233.57" y="218.13" width="2.98" height="7.81" rx="1.49"/><path class="f" d="M159.13,82.29c-1.22,1.22,6.28,8.59,7.12,9.33a25.73,25.73,0,0,0,14.46,6.24c-.07,0-3.91,6.42-4.63,7.08a7.94,7.94,0,0,1-6.75,2.43c-5.49-.42-15.25-5.54-16.9-11.31a48.92,48.92,0,0,0-1.86-5.21Z"/><path class="f" d="M197.08,41.36c-8.05,2.18-18,7-26.18,6.26-7.15-.64-15,.9-19.8,6.25-7.79,8.72-7.74,22.38-12.81,32.51-3.2,6.4-6.31,13-7.36,20.15-.8,5.47-.28,11.16-.45,16.69-.12,3.79.86,7.73,1,11.54.07,2.14.74,4.55,2.66,5.49,2.24,1.1,7.25-.33,8.28-2.89,0,0,1.48-3.71,1.85-4.83,1.18-3.51.29-7.93.49-11.56a52.9,52.9,0,0,1,3.12-15.73c2.27-6,6.14-12.72,11.44-16.55,5.13-3.71,13.33-3.76,16.17,3a15.94,15.94,0,0,1,.68,8.12c-1.16,10-6,18.82-9.94,27.93l.37,11.15c.11,3.31,1.65,6.21,5.34,6.48,6.88.5,8.78-6.82,10.32-12,2.17-7.29,7.84-10.74,13.39-15.57a39.82,39.82,0,0,0,9.7-12.59c2.41-4.91,5-5.85,9.77-7.74a47,47,0,0,0,14.52-9.29c3-2.81,5.69-10.06,9.15-11.79l10.79-5.21L225.36,52.89l-14.51-6.32Z"/><circle class="g" cx="155.3" cy="140.73" r="16"/><text class="h" transform="translate(149.48 146.88)">£</text><path class="g" d="M84.69,206.93a31.27,31.27,0,0,1-7.19,10.16c-2.2,1.9-5.61,4-8.34,2.22-3.6-2.39-1.19-7.33.59-10.46.54-1,3-5.64,4.35-5.36,3.8.84-2.09,6.76-3.32,7.84-1.88,1.64-4.8,4.36-7.43,4.74-5.74.82-8.48-4.54-4.84-8.76,1.24-1.44-.86-3.56-2.11-2.1-6.26,7.27.45,16.92,9.49,13.07,4.43-1.88,9.65-6.16,11.7-10.55,1.23-2.61,1.7-7.51-2.34-7.69s-7.28,5.73-8.82,8.7c-2,3.77-3.85,9-.33,12.54,7.86,7.89,18.33-7,21.16-12.85C88.1,206.72,85.53,205.21,84.69,206.93Z"/><path class="b" d="M140.88,168.42a41.69,41.69,0,0,1,16-2.86,50.21,50.21,0,0,1,15.06,2.21,2.5,2.5,0,1,0,1.54-4.76,55.29,55.29,0,0,0-16.6-2.45,46.74,46.74,0,0,0-18,3.26,2.5,2.5,0,0,0,2,4.6Z"/><path class="b" d="M223.48,246.74c-3.71,1.46-7.31-.82-10-3.27-1.42-1.29-3.53.81-2.11,2.11,3.42,3.11,8.19,5.89,12.89,4C226,248.92,225.26,246,223.48,246.74Z"/><path class="b" d="M197.87,199c1.28-8,13-8.9,14-.35.24,1.88,3.22,1.9,3,0a10.33,10.33,0,0,0-9.32-9.23c-5.25-.36-9.78,3.75-10.58,8.79C194.7,200.12,197.57,200.92,197.87,199Z"/><path class="e" d="M151.58,262.9q-4-.75-7.77-1.78c-19.7-5.35-40.15-17.53-49-36.69,5.89,12.74,10.81,24.82,22.54,33.51,16.19,12,38.94,14.89,57.43,6.55A97.62,97.62,0,0,1,151.58,262.9Z"/><path class="e" d="M98.61,200.68c.5-1.18,1-2.32,1.61-3.43,5.29-10.18,13.63-17.17,21.93-19-7.2.83-14.33,3.33-19.49,8.6a28.11,28.11,0,0,0-7.12,24.45A46.09,46.09,0,0,1,98.61,200.68Z"/><path class="b" d="M32.41,50.6C27.23,50.6,23,55.5,23,61.55s4.21,11,9.39,11,9.39-4.9,9.39-11S37.59,50.6,32.41,50.6Zm0,18.77c-3.45,0-6.26-3.51-6.26-7.82s2.81-7.82,6.26-7.82,6.26,3.51,6.26,7.82S35.86,69.37,32.41,69.37ZM61.86,41.84a29,29,0,0,0-11.39-2.19c-12,0-24.08,6.09-36.12,6.09-6.35,0-8.64-1.5-10.07-1.5a3.12,3.12,0,0,0-3.16,3.11v31A3.1,3.1,0,0,0,3,81.25a28.84,28.84,0,0,0,11.39,2.2c12,0,24.08-6.09,36.12-6.09,6.35,0,8.64,1.5,10.07,1.5a3.12,3.12,0,0,0,3.16-3.11v-31A3.13,3.13,0,0,0,61.86,41.84ZM59.64,75.48a30.67,30.67,0,0,0-9.17-1.25c-6.41,0-12.72,1.6-18.83,3.14S20,80.32,14.35,80.32a25.23,25.23,0,0,1-10.1-1.94l0-31c.15,0,.61.15,1,.25a30.64,30.64,0,0,0,9.16,1.25c6.42,0,12.73-1.6,18.84-3.14s11.66-2.95,17.29-2.95a25.23,25.23,0,0,1,10.1,1.95l0,31C60.47,75.71,60,75.58,59.64,75.48Z"/></svg>