<svg xmlns="http://www.w3.org/2000/svg" viewBox="0 0 322.34 329.91"><defs><style>.a,.h{fill:#fff;}.a,.d{opacity:0.56;}.b{fill:#0094c6;}.c{fill:#3b3b3b;}.d{fill:#e5e1e1;}.e,.g{fill:#d6d6d6;}.e,.f,.i{stroke:#3b3b3b;stroke-miterlimit:10;}.e{stroke-width:2px;}.f{fill:#9bd1d1;}.f,.i{stroke-width:3px;}.i{fill:none;}</style></defs><title>1</title><rect class="a" width="322.34" height="329.91"/><rect class="b" x="83.28" y="274.24" width="11.72" height="12.05" rx="5.86"/><rect class="b" x="208.8" y="274.24" width="11.72" height="12.05" rx="5.86"/><path class="c" d="M3.05,289.44H319.34a1.87,1.87,0,0,0,0-3.67H3.05a1.87,1.87,0,0,0,0,3.67"/><rect class="d" x="70.82" y="116.27" width="162.42" height="162.42" rx="12"/><rect class="e" x="83.86" y="129.31" width="136.34" height="136.34" rx="12"/><circle class="f" cx="152.03" cy="197.48" r="45.01"/><circle class="c" cx="152.03" cy="197.48" r="30.83"/><path class="g" d="M137.23,217.06l-2.07,2.88,1,.7,2.06-2.88.75-1-1-.7Z"/><path class="g" d="M168.41,174.68l-.49-.35-2.07,2.87-.75,1.05c.33.23.66.46,1,.7l.75-1,2.06-2.88Z"/><path class="g" d="M128.88,189.3l-3.36-1.1-.37,1.15,3.36,1.09,1.23.4c.11-.38.24-.76.37-1.14Z"/><path class="g" d="M175.18,205.67l3.36,1.09.18-.57.19-.57-3.36-1.09-1.23-.41c-.12.39-.24.77-.38,1.15Z"/><path class="g" d="M128.46,204.33l-3.38,1.07.36,1.15,3.38-1.07,1.23-.39c-.13-.38-.25-.76-.36-1.15Z"/><path class="g" d="M178.79,189l-.18-.57-3.37,1.07-1.23.39c.13.38.25.76.36,1.15l1.23-.39,3.37-1.07Z"/><path class="g" d="M137.91,177.4l-2.11-2.84-1,.71,2.11,2.85.77,1c.31-.25.63-.48,1-.72Z"/><path class="g" d="M166.15,217.56l2.1,2.85.48-.36.49-.36-2.11-2.84-.77-1c-.32.24-.64.48-1,.71Z"/><path class="g" d="M159.78,170.49l-1.05,3.38-.38,1.23c.38.11.77.23,1.14.36l.39-1.23,1.05-3.38Z"/><path class="g" d="M144.18,220.74l-1.05,3.38.57.18.58.18,1-3.38.39-1.24c-.39-.11-.77-.22-1.15-.35Z"/><path class="g" d="M131.91,211.56l-2.85,2.09.72,1,2.85-2.1,1-.77c-.24-.31-.48-.63-.71-1Z"/><path class="g" d="M174.63,180.83l-.35-.48-2.85,2.1-1.05.76c.25.32.49.64.72,1l1-.77,2.85-2.1Z"/><path class="g" d="M132.53,182.58l-2.86-2.09-.71,1,2.87,2.09,1,.75c.23-.33.46-.65.71-1Z"/><path class="g" d="M171.52,212.39l2.87,2.09.35-.49.36-.48-2.87-2.09-1-.76c-.23.33-.47.66-.71,1Z"/><path class="g" d="M144.78,174l-1.13-3.35-1.14.38,1.13,3.35.41,1.22,1.14-.38Z"/><path class="g" d="M159.28,220.94l1.12,3.35.57-.19.57-.19-1.13-3.36-.41-1.21-1.14.38Z"/><path class="g" d="M155.79,169.65l-.55,3.5-.2,1.28c.4,0,.8.11,1.19.18l.2-1.27.55-3.5Z"/><path class="g" d="M147.63,221.63l-.55,3.5.59.09.6.1.54-3.5.21-1.28c-.4,0-.8-.11-1.19-.19Z"/><path class="g" d="M130.58,185.55l-3.14-1.64-.56,1.06,3.14,1.65,1.14.59c.18-.36.37-.71.56-1.06Z"/><path class="g" d="M173.48,209.42l3.13,1.64.28-.53.28-.53L174,208.35l-1.15-.6c-.17.36-.36.72-.56,1.07Z"/><path class="g" d="M176.41,194.67l3.51-.49-.09-.6-.08-.59-3.5.49-1.28.18c.06.39.12.79.16,1.19Z"/><path class="g" d="M127.64,200.3l-3.5.49.16,1.19,3.51-.49,1.28-.18c-.06-.4-.12-.79-.17-1.19Z"/><path class="g" d="M162.59,219.64l1.61,3.16.53-.27.54-.28-1.61-3.15-.58-1.15c-.35.19-.71.37-1.07.54Z"/><path class="g" d="M141.46,175.33l-1.6-3.16-1.07.54,1.6,3.16L141,177c.35-.19.71-.37,1.07-.54Z"/><path class="g" d="M164.38,172.27l-.54-.26-1.55,3.17-.57,1.16,1.08.53.57-1.16,1.55-3.18Z"/><path class="g" d="M140.69,219.26l-1.56,3.17,1.08.53,1.56-3.17.57-1.17c-.37-.16-.73-.34-1.08-.53Z"/><path class="g" d="M130,208.29l-3.13,1.64.55,1.06,3.14-1.63,1.15-.6c-.2-.35-.38-.71-.56-1.07Z"/><path class="g" d="M176.93,184.51l-.28-.53-3.13,1.63-1.15.6c.19.35.38.7.55,1.06l1.15-.59,3.14-1.64Z"/><path class="g" d="M176.16,202l3.49.56.1-.59.09-.59-3.49-.57-1.28-.2c0,.39-.12.79-.19,1.18Z"/><path class="g" d="M127.9,193l-3.49-.57-.2,1.19,3.5.56,1.28.21c0-.4.11-.79.19-1.18Z"/><path class="g" d="M148.48,173.2l-.6-3.49-1.18.2.59,3.49.22,1.27c.39-.08.79-.14,1.19-.2Z"/><path class="g" d="M155.58,221.77l.59,3.49.6-.1.59-.1-.6-3.49-.22-1.27-1.18.2Z"/><path class="h" d="M152.35,174.24l0-1.29,0-3.55h-1.2l0,3.55,0,1.29,0,2.26.61,0c.2,0,.4,0,.6,0Z"/><path class="h" d="M152.92,222v-1.29l0-2.26-.6,0h-.6l0,2.26V222l0,3.55H153Z"/><path class="h" d="M131,197.36v-.6H127.5l-3.55,0v1.2l3.54,0H131c0-.07,0-.15,0-.22S131,197.49,131,197.36Z"/><path class="h" d="M176.57,197H173v.22c0,.13,0,.25,0,.38s0,.4,0,.6h3.55l3.54,0v-1.2Z"/><path class="h" d="M172,177.73l-.43-.42L169,179.8l-.92.91-1.6,1.59a5.66,5.66,0,0,1,.43.42l.42.43,1.6-1.59.92-.91,2.52-2.49Z"/><path class="h" d="M137.11,212.25c-.14-.14-.29-.28-.42-.43l-1.6,1.59-.92.91-2.52,2.49.84.85,2.52-2.49.92-.91,1.6-1.59Z"/><path class="h" d="M136,180.66l-.92-.91-2.51-2.5-.85.85,2.52,2.5.91.91,1.6,1.6.42-.44.43-.42Z"/><path class="h" d="M169.84,214.37l-.92-.92-1.6-1.59c-.13.15-.27.29-.41.43s-.29.29-.43.42l1.6,1.6.91.91,2.52,2.5.42-.43.42-.42Z"/><circle class="g" cx="151.75" cy="196.24" r="11.35"/><path class="i" d="M49.71,57.89H47.12V50.14a16.37,16.37,0,1,0-32.74,0v7.75H11.79a5.18,5.18,0,0,0-5.17,5.17V83.74a5.17,5.17,0,0,0,5.17,5.17H49.71a5.17,5.17,0,0,0,5.17-5.17V63.06A5.18,5.18,0,0,0,49.71,57.89Zm-11.2,0H23V50.14a7.76,7.76,0,0,1,15.52,0Z"/></svg>