<svg xmlns="http://www.w3.org/2000/svg" width="41.944" height="34.997" viewBox="0 0 41.944 34.997"><path d="M266.216,280.383a.941.941,0,0,0,0-1.331l-2.013-2.013a.941.941,0,0,0-1.331,1.331l2.013,2.013A.941.941,0,0,0,266.216,280.383Z" transform="translate(-259.674 -273.841)" fill="#fff"/><path d="M228.24,370.735a.941.941,0,1,0,0-1.883h-2.847a.941.941,0,0,0,0,1.883Z" transform="translate(-224.452 -358.877)" fill="#fff"/><path d="M266.216,434.934a.941.941,0,0,0-1.331,0l-2.013,2.013a.941.941,0,0,0,1.331,1.331l2.013-2.013A.941.941,0,0,0,266.216,434.934Z" transform="translate(-259.674 -419.643)" fill="#fff"/><path d="M420.767,280.383a.942.942,0,0,0,1.331,0l2.013-2.013a.941.941,0,0,0-1.331-1.331l-2.013,2.013A.941.941,0,0,0,420.767,280.383Z" transform="translate(-405.476 -273.841)" fill="#fff"/><path d="M356.292,243.072a.939.939,0,0,0,.276-.666v-2.847a.941.941,0,1,0-1.883,0v2.847a.941.941,0,0,0,1.607.666Z" transform="translate(-344.71 -238.618)" fill="#fff"/><path d="M343.251,336.265a3.274,3.274,0,0,0-3.024.632c-.029.024-.056.049-.082.075l-.138.138,0,0a3.144,3.144,0,0,0-.569.77,3.41,3.41,0,0,0-1.01-.154,3.356,3.356,0,0,0-2.391.983l0,0a3.514,3.514,0,0,0-.736,1.08,3.4,3.4,0,0,0-3.622.752l0,0a3.43,3.43,0,0,0-.6.815l-4.618-4.631a3.383,3.383,0,0,0-4.778-.007h0l0,0a3.384,3.384,0,0,0,0,4.775l10.149,10.18a3.43,3.43,0,0,0-1.285,6.516l7.457,3.576a11.492,11.492,0,0,0,1.568.748,11.525,11.525,0,0,0,12.311-2.589l.013-.013a11.648,11.648,0,0,0,1.278-1.517,11.4,11.4,0,0,0,1.923-4.619q.017-.093.031-.187a11.521,11.521,0,0,0-3.219-9.978l-4.833-4.848A8.711,8.711,0,0,0,343.251,336.265Zm-6.924,12.321a.784.784,0,0,0,.094-1.189l-3.388-3.4a1.5,1.5,0,0,1,.078-2.006,1.346,1.346,0,0,1,1.894,0l3.874,3.885.02.02a.784.784,0,0,0,1.109,0h0a.785.785,0,0,0,0-1.107l-2.637-2.656a1.461,1.461,0,0,1,.1-1.979l0,0a1.345,1.345,0,0,1,1.894,0l3.126,3.135a.785.785,0,0,0,1.017.08l.005,0a.785.785,0,0,0,.093-1.189l-1.962-1.961a1.586,1.586,0,0,1-.493-.915.892.892,0,0,1,.294-.752l.11-.11c1.112-.882,3.015.728,4.056,1.772l4.833,4.848a9.532,9.532,0,0,1,2.65,8.216c-.008.051-.017.1-.026.153a9.38,9.38,0,0,1-1.581,3.8,9.5,9.5,0,0,1-11.2,3.392,9.454,9.454,0,0,1-1.325-.635l-.054-.029-7.5-3.6a1.391,1.391,0,1,1,1.2-2.508l4.006,1.921a.784.784,0,0,0,.895-1.261l-14.4-14.449a1.341,1.341,0,0,1,0-1.892h0a1.341,1.341,0,0,1,1.894,0l10.3,10.331A.789.789,0,0,0,336.327,348.586Z" transform="translate(-313.311 -328.306)" fill="#fff"/></svg>