<svg xmlns="http://www.w3.org/2000/svg" width="840" height="489.125" viewBox="0 0 840 489.125"><g transform="translate(0 -1091)"><rect width="840" height="489" transform="translate(0 1091)" fill="#e5e5e5"/><path d="M2134.836,372.062c1.374,0,1.374,0,2.747-1.373v-2.745a4.846,4.846,0,0,0-2.747-1.373h-2.745v4.118h2.745Zm-4.117,4.107v9.6h-5.479V361.092h8.223c2.747,0,4.119,1.373,5.492,1.373a6.855,6.855,0,0,1,1.361,9.6,6.974,6.974,0,0,1-1.361,1.361,1.37,1.37,0,0,0-1.373,1.373l6.853,10.97h-5.48l-6.864-9.6Zm4.117,16.449a17.822,17.822,0,1,0-17.821-17.822h0a18.146,18.146,0,0,0,17.821,17.822m0-39.75A21.934,21.934,0,1,1,2112.9,374.8h0a21.665,21.665,0,0,1,21.391-21.928,4.368,4.368,0,0,1,.547,0M1920.975-70.75h-13.713c-133.607.355-241.636,108.956-241.281,242.574v.08A238.746,238.746,0,0,0,1708.487,309,2384.333,2384.333,0,0,1,1920.975-70.75m-63.062,342.733c109.676-54.838,246.76-79.512,290.628-86.375,0-5.479,1.374-9.6,1.374-15.077A242.5,242.5,0,0,0,2029.28-39.224a2242.588,2242.588,0,0,0-171.367,311.207M1820.9,354.24h-71.289c100.973,87.37,253.659,76.343,341.029-24.628a241.669,241.669,0,0,0,49.679-91.9C1914.125,276.09,1820.9,354.24,1820.9,354.24" transform="translate(-1316.978 1166.938)" fill="#343434" opacity="0.048"/></g></svg>