<svg xmlns="http://www.w3.org/2000/svg" viewBox="0 0 25.58 24.71"><defs><style>.a{fill:#066;}</style></defs><title>1</title><path class="a" d="M15.31,15.49a8.91,8.91,0,0,0,2.26-4.31c1.08,0,1.76-2.62.67-3.55,0-1,1.4-7.63-5.45-7.63S7.3,6.66,7.34,7.63c-1.09.93-.42,3.55.67,3.55a8.91,8.91,0,0,0,2.26,4.31Z"/><path class="a" d="M0,24.67H12.22l-3.1-7.23C6.57,18.12,0,21.25,0,24.67Z"/><path class="a" d="M16.46,17.44l-3.1,7.23H25.58C25.58,21.25,19,18.12,16.46,17.44Z"/><path class="a" d="M12.79,16m.37,8.67,1.26-6.9L12.79,16l-1.63,1.77,1.26,6.9Z"/></svg>