<svg xmlns="http://www.w3.org/2000/svg" viewBox="0 0 20.43 29.99"><defs><style>.a{fill:#066;}</style></defs><title>1</title><path class="a" d="M6,6.55V6.3H3.31A.29.29,0,0,1,3,6V4a.29.29,0,0,1,.28-.28H6A.29.29,0,0,1,6.28,4V6A.29.29,0,0,1,6,6.3v.5A.78.78,0,0,0,6.78,6V4A.79.79,0,0,0,6,3.19H3.31A.78.78,0,0,0,2.53,4V6a.78.78,0,0,0,.78.78H6Z"/><path class="a" d="M11.56,6.55V6.3H8.87A.29.29,0,0,1,8.59,6V4a.29.29,0,0,1,.28-.28h2.69a.29.29,0,0,1,.28.28V6a.29.29,0,0,1-.28.28v.5A.78.78,0,0,0,12.34,6V4a.79.79,0,0,0-.78-.79H8.87A.78.78,0,0,0,8.09,4V6a.78.78,0,0,0,.78.78h2.69Z"/><path class="a" d="M17.12,6.55V6.3H14.43A.29.29,0,0,1,14.15,6V4a.29.29,0,0,1,.28-.28h2.69A.29.29,0,0,1,17.4,4V6a.29.29,0,0,1-.28.28v.5A.78.78,0,0,0,17.9,6V4a.79.79,0,0,0-.78-.79H14.43a.79.79,0,0,0-.78.79V6a.78.78,0,0,0,.78.78h2.69Z"/><path class="a" d="M6,13.2V13H3.31A.29.29,0,0,1,3,12.67V10.62a.29.29,0,0,1,.28-.28H6a.29.29,0,0,1,.28.28v2.05A.29.29,0,0,1,6,13v.5a.78.78,0,0,0,.78-.78V10.62A.78.78,0,0,0,6,9.84H3.31a.78.78,0,0,0-.78.78v2.05a.78.78,0,0,0,.78.78H6Z"/><path class="a" d="M11.56,13.2V13H8.87a.29.29,0,0,1-.28-.28V10.62a.29.29,0,0,1,.28-.28h2.69a.29.29,0,0,1,.28.28v2.05a.29.29,0,0,1-.28.28v.5a.78.78,0,0,0,.78-.78V10.62a.78.78,0,0,0-.78-.78H8.87a.78.78,0,0,0-.78.78v2.05a.78.78,0,0,0,.78.78h2.69Z"/><path class="a" d="M17.12,13.2V13H14.43a.29.29,0,0,1-.28-.28V10.62a.29.29,0,0,1,.28-.28h2.69a.29.29,0,0,1,.28.28v2.05a.29.29,0,0,1-.28.28v.5a.78.78,0,0,0,.78-.78V10.62a.78.78,0,0,0-.78-.78H14.43a.78.78,0,0,0-.78.78v2.05a.78.78,0,0,0,.78.78h2.69Z"/><path class="a" d="M6,19.84v-.25H3.31A.29.29,0,0,1,3,19.31v-2A.29.29,0,0,1,3.31,17H6a.29.29,0,0,1,.28.28v2a.29.29,0,0,1-.28.28v.51a.8.8,0,0,0,.78-.79v-2A.78.78,0,0,0,6,16.49H3.31a.78.78,0,0,0-.78.78v2a.8.8,0,0,0,.78.79H6Z"/><path class="a" d="M11.56,19.84v-.25H8.87a.29.29,0,0,1-.28-.28v-2A.29.29,0,0,1,8.87,17h2.69a.29.29,0,0,1,.28.28v2a.29.29,0,0,1-.28.28v.51a.8.8,0,0,0,.78-.79v-2a.78.78,0,0,0-.78-.78H8.87a.78.78,0,0,0-.78.78v2a.8.8,0,0,0,.78.79h2.69Z"/><path class="a" d="M17.12,19.84v-.25H14.43a.29.29,0,0,1-.28-.28v-2a.29.29,0,0,1,.28-.28h2.69a.29.29,0,0,1,.28.28v2a.29.29,0,0,1-.28.28v.51a.8.8,0,0,0,.78-.79v-2a.78.78,0,0,0-.78-.78H14.43a.78.78,0,0,0-.78.78v2a.8.8,0,0,0,.78.79h2.69Z"/><polygon class="a" points="19.82 29.38 19.82 28.77 1.21 28.77 1.21 1.21 19.22 1.21 19.22 29.38 19.82 29.38 19.82 28.77 19.82 29.38 20.43 29.38 20.43 0 0 0 0 29.99 20.43 29.99 20.43 29.38 19.82 29.38"/><polygon class="a" points="12.98 29.38 12.98 28.78 8.06 28.78 8.06 23.62 12.37 23.62 12.37 29.38 12.98 29.38 12.98 28.78 12.98 29.38 13.58 29.38 13.58 22.4 6.85 22.4 6.85 29.99 13.58 29.99 13.58 29.38 12.98 29.38"/></svg>