<svg xmlns="http://www.w3.org/2000/svg" viewBox="0 0 33.56 33.56"><defs><style>.a{fill:#fff;}</style></defs><title>1</title><path class="a" d="M32.91,16.78h-.65a15.47,15.47,0,1,1-4.53-11,15.45,15.45,0,0,1,4.53,11h1.3A16.78,16.78,0,1,0,16.78,33.56,16.78,16.78,0,0,0,33.56,16.78Z"/><path class="a" d="M23.23,22v2.71H11.49L11,23a6.91,6.91,0,0,0,1.59-2.14,6.73,6.73,0,0,0,.5-2.75c0-.12,0-.3,0-.56H10.32V15.18h2a9.83,9.83,0,0,1-.46-2.86,5.1,5.1,0,0,1,1.57-4,6.06,6.06,0,0,1,4.23-1.42,5.26,5.26,0,0,1,4.05,1.5,5.52,5.52,0,0,1,1.41,3.83H20q0-2.52-2.4-2.52a2.48,2.48,0,0,0-1.85.68,2.64,2.64,0,0,0-.67,1.95,9.35,9.35,0,0,0,.51,2.85h4.6V17.5H16.23a3.83,3.83,0,0,1,.05.58A5.32,5.32,0,0,1,14.66,22Z"/></svg>