<svg xmlns="http://www.w3.org/2000/svg" viewBox="0 0 25.91 25.91"><defs><style>.a{fill:#066;}</style></defs><title>1</title><path class="a" d="M25.41,13h-.5a11.95,11.95,0,1,1-3.5-8.46A11.94,11.94,0,0,1,24.91,13h1A13,13,0,1,0,13,25.91,13,13,0,0,0,25.91,13Z"/><path class="a" d="M17.94,17v2.1H8.87l-.41-1.37a5.29,5.29,0,0,0,1.22-1.65,5.13,5.13,0,0,0,.39-2.13c0-.08,0-.23,0-.43H8V11.72H9.51a7.59,7.59,0,0,1-.36-2.21,4,4,0,0,1,1.22-3.09,4.68,4.68,0,0,1,3.26-1.1,4.05,4.05,0,0,1,3.12,1.16,4.27,4.27,0,0,1,1.1,3H15.43c0-1.3-.61-1.95-1.85-1.95A1.94,1.94,0,0,0,12.15,8a2.09,2.09,0,0,0-.51,1.51,7.31,7.31,0,0,0,.39,2.2h3.55v1.79h-3q0,.3,0,.45a4.06,4.06,0,0,1-1.25,3Z"/></svg>