<svg xmlns="http://www.w3.org/2000/svg" viewBox="0 0 45.01 28.83"><defs><style>.a{fill:#ededed;}</style></defs><title>1</title><path class="a" d="M44.82,13.51,37.62.71A1.39,1.39,0,0,0,36.42,0a1.36,1.36,0,0,0-.71.2L32.78,2a1.45,1.45,0,0,0-.49,1.92l.41.72a4,4,0,0,1-1.51.25,14.87,14.87,0,0,1-1.78-.34A18.75,18.75,0,0,0,25,3.88H24.9c-2.42,0-6.63.26-7.55,1.55L16.93,6l-.77-.13a9.61,9.61,0,0,1-2.29-.49c-.32-.18-.9-.54-1.49-.91l.33-.58A1.44,1.44,0,0,0,12.23,2L9.3.2A1.39,1.39,0,0,0,8.59,0a1.36,1.36,0,0,0-1.2.71L.18,13.51a1.44,1.44,0,0,0,.49,1.91L3.6,17.21a1.36,1.36,0,0,0,.71.2,1.41,1.41,0,0,0,1.2-.71l.58-1,.52.58c.08.11.58.72,1.25,1.56l-.2.27a2.56,2.56,0,0,0,.58,3.43,2.59,2.59,0,0,0,1.45.6,2.7,2.7,0,0,0,1,2.26,2.53,2.53,0,0,0,1.64.61,2,2,0,0,0,.42,0,2.77,2.77,0,0,0,.93,1.47,2.57,2.57,0,0,0,1.64.61,2.35,2.35,0,0,0,.71-.11,2.73,2.73,0,0,0,.88,1.31,2.62,2.62,0,0,0,1.64.61A2.13,2.13,0,0,0,20.3,28l.36-.49a18,18,0,0,0,2.65.73,6.16,6.16,0,0,0,1.5.18A3.67,3.67,0,0,0,26.55,28a5,5,0,0,0,1.65-1.59A3.24,3.24,0,0,0,30.08,26a2.76,2.76,0,0,0,1.12-2A3.15,3.15,0,0,0,33,23.51a2.69,2.69,0,0,0,1-1.92,2.54,2.54,0,0,0,2.55-1.3,2.43,2.43,0,0,0,0-2.43,7.17,7.17,0,0,0,1.2-.88c.29-.27.5-.49.68-.68s.35-.36.57-.55l.53.95a1.39,1.39,0,0,0,1.91.51l2.93-1.79A1.42,1.42,0,0,0,44.82,13.51ZM33.51,3.19l2.9-1.77,7.19,12.8L40.71,16Zm3.88,12.14c-.18.18-.36.38-.62.6a5.32,5.32,0,0,1-1.2.84h0l-.71-.59h0s-.68-.57-2-1.57c-.92-.68-2.16-1.58-3.79-2.68l-1-.67c-2.4-1.5-5.33-3-5.47-3a.72.72,0,0,0-.32-.08l-.21,0-1.84.59a.7.7,0,0,0-.39.31s-1.62,2.62-4,2.8l-.32,0a1,1,0,0,1-.34,0s-.07-.21.09-.77c.48-.94,3-4.48,3.18-4.69l.11-.16c.32-.43,2.87-.92,6.42-1H25a17.23,17.23,0,0,1,4.07.61,14.33,14.33,0,0,0,2,.37,5.65,5.65,0,0,0,2.31-.42l4.87,8.66S37.6,15.1,37.39,15.33ZM4.3,16,1.41,14.2,8.6,1.42l2.89,1.79ZM19.17,27.13a.75.75,0,0,1-.62.3,1.26,1.26,0,0,1-.75-.29,1.36,1.36,0,0,1-.49-1.05.9.9,0,0,1,.15-.46h0l.13-.16.43-.6.91-1.22a.73.73,0,0,1,.61-.3,1.22,1.22,0,0,1,.75.29,1.16,1.16,0,0,1,.34,1.51l-.47.64L19.3,27Zm-3.85-1.51a1.15,1.15,0,0,1-.74-.29,1.32,1.32,0,0,1-.5-.95,1.15,1.15,0,0,1,0-.33.72.72,0,0,1,.12-.23l.5-.69,1.93-2.61a.8.8,0,0,1,.19-.18.78.78,0,0,1,.43-.12,1.24,1.24,0,0,1,.75.29A1.17,1.17,0,0,1,18.38,22l-1.64,2.22-.8,1.08s0,0,0,.06A.74.74,0,0,1,15.32,25.62Zm-4.17-3.68a.51.51,0,0,1,.09-.16l.72-1,0-.05.6-.82h0l1.65-2.24a.77.77,0,0,1,.62-.29,1.2,1.2,0,0,1,.75.29,1.16,1.16,0,0,1,.34,1.5l-.14.18a3,3,0,0,0-.29.32l-1.95,2.65L13.1,23a1.75,1.75,0,0,0-.2.35.61.61,0,0,1-.16.12.75.75,0,0,1-.42.12,1.15,1.15,0,0,1-.74-.29A1.24,1.24,0,0,1,11.15,21.94ZM8.77,19s0,0,0,0l.84-1.14.13-.17a.75.75,0,0,1,.62-.3,1.18,1.18,0,0,1,.75.29,1.16,1.16,0,0,1,.34,1.5h0l-.38.51-.1.14-.49.67a.74.74,0,0,1-.36.25,1,1,0,0,1-.26,0A1.27,1.27,0,0,1,8.77,19Zm26.5.67a1.35,1.35,0,0,1-1.59.51l-6.63-4a.7.7,0,0,0-.72,1.21l6.22,3.74a1.45,1.45,0,0,1-.46,1.31,2.41,2.41,0,0,1-1.34.24l-5.6-3.24a.7.7,0,1,0-.7,1.22l5.37,3.11a1.57,1.57,0,0,1-.51,1.13A2.37,2.37,0,0,1,28,25s-.05,0-.07,0L23.2,22.74A.7.7,0,1,0,22.59,24l4.17,2a3,3,0,0,1-.88.76,3.79,3.79,0,0,1-2.25.07l-.07,0a14.46,14.46,0,0,1-2-.54l.22-.31a2.66,2.66,0,0,0-1.87-4,2.69,2.69,0,0,0-1-2.55,2.57,2.57,0,0,0-1.41-.6,2.71,2.71,0,0,0-1-2.24A2.62,2.62,0,0,0,14.88,16a2.14,2.14,0,0,0-1.75.87l-.4.54A2.74,2.74,0,0,0,12,16.5a2.59,2.59,0,0,0-1.64-.6,2.14,2.14,0,0,0-1.65.75c-.61-.76-1-1.28-1-1.29l0,0-.86-.95,4.88-8.67,1.48.9A9.43,9.43,0,0,0,16,7.28H16a26.89,26.89,0,0,0-2.09,3.23.56.56,0,0,0,0,.12A2.34,2.34,0,0,0,14,12.7a1.71,1.71,0,0,0,1.47.61l.44,0c2.63-.2,4.4-2.49,4.91-3.25l1.33-.42c.78.4,3.22,1.66,5.19,2.9l.89.58c1.69,1.15,3,2.08,3.9,2.77l1.79,1.38,0,0,1,.83A1.16,1.16,0,0,1,35.27,19.62Z"/></svg>