<svg xmlns="http://www.w3.org/2000/svg" viewBox="0 0 36.41 23.32"><defs><style>.a{fill:#066;}</style></defs><title>1</title><path class="a" d="M36.26,10.93,30.43.57a1.12,1.12,0,0,0-1-.57,1.21,1.21,0,0,0-.58.16L26.52,1.61a1.15,1.15,0,0,0-.4,1.54l.33.59a3.34,3.34,0,0,1-1.22.2,11.47,11.47,0,0,1-1.44-.28,15.32,15.32,0,0,0-3.55-.52h-.09c-2,0-5.37.21-6.11,1.25l-.34.47-.63-.1a8.41,8.41,0,0,1-1.85-.4L10,3.63l.27-.48a1.15,1.15,0,0,0-.4-1.54L7.52.16A1.14,1.14,0,0,0,7,0,1.11,1.11,0,0,0,6,.57L.15,10.93a1.15,1.15,0,0,0,.39,1.54l2.37,1.45a1.12,1.12,0,0,0,1.55-.41l.46-.83.43.47c.06.08.46.58,1,1.25l-.17.23a2.08,2.08,0,0,0,.47,2.77,2.14,2.14,0,0,0,1.18.48,2.2,2.2,0,0,0,.8,1.84,2.16,2.16,0,0,0,1.33.49,2.09,2.09,0,0,0,.35,0,2.24,2.24,0,0,0,.75,1.2,2.06,2.06,0,0,0,1.33.49,1.84,1.84,0,0,0,.57-.09,2.2,2.2,0,0,0,.71,1.06,2.1,2.1,0,0,0,1.33.49,1.72,1.72,0,0,0,1.41-.7l.29-.4a13.57,13.57,0,0,0,2.14.6,5,5,0,0,0,1.22.15,3,3,0,0,0,1.41-.31,3.9,3.9,0,0,0,1.33-1.28,2.68,2.68,0,0,0,1.52-.31,2.26,2.26,0,0,0,.91-1.61A2.47,2.47,0,0,0,26.68,19a2.19,2.19,0,0,0,.79-1.55,2.05,2.05,0,0,0,2.06-1.05,2,2,0,0,0,0-2,5.32,5.32,0,0,0,1-.71c.24-.21.41-.39.56-.54a4.78,4.78,0,0,1,.45-.45l.43.77a1.12,1.12,0,0,0,1,.57,1.14,1.14,0,0,0,.57-.16l2.37-1.45A1.15,1.15,0,0,0,36.26,10.93ZM27.11,2.58l2.34-1.43L35.27,11.5l-2.34,1.43Zm3.13,9.82c-.14.15-.29.3-.49.49a4.37,4.37,0,0,1-1,.68h0l-.57-.47h0s-.55-.46-1.65-1.27c-.74-.55-1.75-1.28-3.06-2.17l-.83-.54c-1.94-1.21-4.31-2.4-4.43-2.46A.54.54,0,0,0,18,6.59a.47.47,0,0,0-.17,0l-1.49.47a.66.66,0,0,0-.32.25s-1.3,2.12-3.22,2.27l-.25,0a.69.69,0,0,1-.28,0s-.05-.16.07-.62c.39-.76,2.45-3.62,2.57-3.79a1.47,1.47,0,0,1,.1-.13c.26-.35,2.31-.74,5.19-.77h.08a14.21,14.21,0,0,1,3.29.49,11,11,0,0,0,1.61.3A4.6,4.6,0,0,0,27,4.74l3.94,7S30.42,12.22,30.24,12.4Zm-26.77.53L1.14,11.49,7,1.15,9.29,2.59Zm12,9a.63.63,0,0,1-.5.23A1,1,0,0,1,14.4,22a1.07,1.07,0,0,1-.4-.84.72.72,0,0,1,.13-.38h0l.09-.13.36-.48.73-1a.6.6,0,0,1,.5-.24,1,1,0,0,1,.88,1.45l-.38.52-.7.95ZM12.4,20.72a1,1,0,0,1-.61-.23,1.07,1.07,0,0,1-.4-.77.75.75,0,0,1,0-.26.48.48,0,0,1,.09-.19l.41-.56,1.56-2.11a.33.33,0,0,1,.15-.14.65.65,0,0,1,.35-.1,1,1,0,0,1,.6.23.93.93,0,0,1,.27,1.22l-1.32,1.8-.65.87a.1.1,0,0,1,0,.05A.58.58,0,0,1,12.4,20.72ZM9,17.75a.54.54,0,0,1,.07-.13l.59-.79,0,0,.49-.67h0l1.33-1.82a.63.63,0,0,1,.51-.23,1,1,0,0,1,.6.23,1,1,0,0,1,.28,1.22l-.11.14a2,2,0,0,0-.24.26L11,18.07l-.39.52a1.69,1.69,0,0,0-.17.29l-.12.1a.64.64,0,0,1-.34.09.94.94,0,0,1-.6-.23A1,1,0,0,1,9,17.75ZM7.09,15.33l0,0,.68-.92.11-.15A.62.62,0,0,1,8.4,14a1,1,0,0,1,.88,1.44h0L9,15.86,8.89,16l-.4.54a.55.55,0,0,1-.29.2.59.59,0,0,1-.21,0,1,1,0,0,1-.9-1.42Zm21.44.54a1.09,1.09,0,0,1-1.29.41l-5.36-3.21a.56.56,0,0,0-.78.19.57.57,0,0,0,.2.78l5,3A1.19,1.19,0,0,1,26,18.13a2,2,0,0,1-1.09.19L20.34,15.7a.56.56,0,0,0-.77.21.55.55,0,0,0,.21.77l4.34,2.52a1.29,1.29,0,0,1-.41.92,2,2,0,0,1-1.1.1h-.06l-3.78-1.83a.56.56,0,0,0-.76.27.57.57,0,0,0,.26.76l3.38,1.63a2.36,2.36,0,0,1-.71.61,3.12,3.12,0,0,1-1.83.06h-.05a16.32,16.32,0,0,1-1.64-.45l.19-.24a2.15,2.15,0,0,0-1.52-3.24,2.19,2.19,0,0,0-.78-2.07,2.14,2.14,0,0,0-1.14-.48,2.18,2.18,0,0,0-.81-1.81A2.06,2.06,0,0,0,12,12.93a1.72,1.72,0,0,0-1.42.7l-.32.43a2.3,2.3,0,0,0-.58-.71,2.06,2.06,0,0,0-1.32-.49,1.76,1.76,0,0,0-1.34.6l-.84-1,0,0-.69-.77,4-7c.47.29.93.58,1.2.73a7.57,7.57,0,0,0,2.24.54h0a22.08,22.08,0,0,0-1.69,2.62l0,.09a1.92,1.92,0,0,0,.1,1.68,1.4,1.4,0,0,0,1.19.48h.35a5.89,5.89,0,0,0,4-2.63l1.07-.34c.63.32,2.6,1.34,4.2,2.34l.72.47c1.37.93,2.41,1.68,3.15,2.24.51.38,1,.78,1.45,1.11l0,0,.81.67A.94.94,0,0,1,28.53,15.87Z"/></svg>