<svg xmlns="http://www.w3.org/2000/svg" viewBox="0 0 25.85 25.85"><defs><style>.a{fill:#066;}</style></defs><title>1</title><path class="a" d="M25.35,12.92h-.5A11.92,11.92,0,0,1,4.49,21.35a11.92,11.92,0,1,1,20.36-8.43h1A12.93,12.93,0,1,0,12.92,25.85,12.93,12.93,0,0,0,25.85,12.92Z"/><path class="a" d="M7.34,9.27A1.5,1.5,0,0,1,8.86,7.68a1.48,1.48,0,0,1,1.5,1.59,1.51,1.51,0,1,1-3,0Z"/><path class="a" d="M15.45,9.27A1.49,1.49,0,0,1,17,7.68a1.47,1.47,0,0,1,1.49,1.59,1.51,1.51,0,1,1-3,0Z"/><path class="a" d="M19,15.13h0a6.12,6.12,0,0,1-6,3.94h-.3a6.12,6.12,0,0,1-6-3.94l-.95.31a7.11,7.11,0,0,0,6.91,4.63h.3A7.11,7.11,0,0,0,20,15.44Z"/></svg>