<svg xmlns="http://www.w3.org/2000/svg" viewBox="0 0 32.14 32.14"><defs><style>.a,.b{fill:#066;}.a{stroke:#066;stroke-miterlimit:10;stroke-width:0.5px;}</style></defs><title>1</title><path class="a" d="M31.28,16.07h-.61A14.61,14.61,0,1,1,26.39,5.75a14.56,14.56,0,0,1,4.28,10.32h1.22A15.82,15.82,0,1,0,16.07,31.89,15.82,15.82,0,0,0,31.89,16.07Z"/><path class="b" d="M17.75,22.46c0,.74.68,1.11,2.15,1.11V25H12.24v-1.4q2.13,0,2.13-1.11V15q0-1.14-2.13-1.14v-1.4h5.51Zm.3-14.2a2.1,2.1,0,0,1-.61,1.49,2,2,0,0,1-1.49.63,2.09,2.09,0,0,1-.83-.17,2.28,2.28,0,0,1-.67-.46A2.08,2.08,0,0,1,14,9.08a1.89,1.89,0,0,1-.18-.82,2,2,0,0,1,.63-1.5,2.1,2.1,0,0,1,1.5-.6,2,2,0,0,1,1.48.61A2.06,2.06,0,0,1,18.05,8.26Z"/></svg>