<svg xmlns="http://www.w3.org/2000/svg" viewBox="0 0 32.9 32.9"><defs><style>.a{fill:#fff;}</style></defs><title>1</title><path class="a" d="M32.26,16.45h-.63A15.19,15.19,0,1,1,27.18,5.72a15.12,15.12,0,0,1,4.45,10.73H32.9A16.45,16.45,0,1,0,16.45,32.9,16.44,16.44,0,0,0,32.9,16.45Z"/><path class="a" d="M18.2,23.09c0,.77.71,1.16,2.23,1.16v1.46h-8V24.25c1.47,0,2.21-.39,2.21-1.16V15.28c0-.78-.74-1.18-2.21-1.18V12.64H18.2Zm.31-14.76a2.22,2.22,0,0,1-.63,1.55,2.18,2.18,0,0,1-2.42.47,2.34,2.34,0,0,1-.69-.47,2.38,2.38,0,0,1-.48-.69,2.11,2.11,0,0,1-.18-.86,2.07,2.07,0,0,1,.66-1.56,2.16,2.16,0,0,1,1.55-.63,2.2,2.2,0,0,1,2.19,2.19Z"/></svg>