<svg xmlns="http://www.w3.org/2000/svg" viewBox="0 0 18.74 18.74"><defs><style>.cls-1{fill:#1b9306;}.cls-2{fill:#fff;}</style></defs><title>Asset 2mobile-info-checked</title><g id="Layer_2" data-name="Layer 2"><g id="Layer_1-2" data-name="Layer 1"><circle class="cls-1" cx="9.37" cy="9.37" r="9.37"/><path class="cls-2" d="M10.73,12.61c0,.46.41.68,1.31.68v.87H7.35v-.87c.87,0,1.3-.22,1.3-.68V8c0-.46-.43-.69-1.3-.69V6.46h3.38Zm.18-8.7a1.31,1.31,0,0,1-.37.92,1.22,1.22,0,0,1-.92.38,1.25,1.25,0,0,1-.51-.1,1.44,1.44,0,0,1-.4-.28,1.3,1.3,0,0,1-.28-.41,1.12,1.12,0,0,1-.11-.51A1.2,1.2,0,0,1,8.71,3a1.25,1.25,0,0,1,.91-.37,1.22,1.22,0,0,1,.91.38A1.23,1.23,0,0,1,10.91,3.91Z"/></g></g></svg>