<svg xmlns="http://www.w3.org/2000/svg" viewBox="0 0 33.48 33.48"><defs><style>.cls-1{fill:#fff;}</style></defs><title>Asset 1person_circle</title><g id="Layer_2" data-name="Layer 2"><g id="Layer_1-2" data-name="Layer 1"><path class="cls-1" d="M19,18.63c-.46-.07-.47-1.33-.47-1.33a6.37,6.37,0,0,0,1.64-3.12c.79,0,1.28-1.9.49-2.57,0-.71,1-5.54-4-5.54s-4,4.83-3.95,5.54c-.79.67-.31,2.57.48,2.57a6.46,6.46,0,0,0,1.64,3.12s0,1.26-.47,1.34c-1.47.23-7,2.66-7,5.32H26C26,21.3,20.51,18.87,19,18.63Z"/><path class="cls-1" d="M32.83,16.74h-.65A15.43,15.43,0,1,1,27.66,5.82a15.43,15.43,0,0,1,4.52,10.92h1.3A16.74,16.74,0,1,0,16.74,33.48,16.74,16.74,0,0,0,33.48,16.74Z"/></g></g></svg>