<svg xmlns="http://www.w3.org/2000/svg" viewBox="0 0 25.58 24.67"><defs><style>.cls-1{fill:#066;}</style></defs><title>Asset 1person</title><g id="Layer_2" data-name="Layer 2"><g id="Layer_1-2" data-name="Layer 1"><path class="cls-1" d="M16,17.32c-.63-.1-.64-1.83-.64-1.83a8.91,8.91,0,0,0,2.26-4.31c1.08,0,1.76-2.62.67-3.55,0-1,1.4-7.63-5.45-7.63S7.3,6.66,7.34,7.63c-1.09.93-.41,3.55.67,3.55a8.91,8.91,0,0,0,2.26,4.31s0,1.73-.64,1.83C7.59,17.65,0,21,0,24.67H25.58C25.58,21,18,17.65,16,17.32Z"/></g></g></svg>