<svg xmlns="http://www.w3.org/2000/svg" viewBox="0 0 22.02 26.69"><defs><style>.a{fill:#066;}</style></defs><title>1</title><path class="a" d="M22,22.89h0l-.49.09.49-.09a4.59,4.59,0,0,0-.58-1.34,9.31,9.31,0,0,0-1.5-2,3.3,3.3,0,0,0-2.33-1.07h-.06a4.92,4.92,0,0,0-2.25.79,3.8,3.8,0,0,1-1.76.64h-.07A4.19,4.19,0,0,1,11,18.56a12.43,12.43,0,0,1-1.95-2.39L6.53,12.12h0c-.15-.27-.33-.53-.49-.79a2.2,2.2,0,0,1-.31-.66l0-.2A2.19,2.19,0,0,1,6.2,9.25a4,4,0,0,1,1-.95A6.18,6.18,0,0,0,8.81,7.1a2.44,2.44,0,0,0,.55-1.58,2.92,2.92,0,0,0,0-.51A9.36,9.36,0,0,0,8.25,2.36,5.45,5.45,0,0,0,7.06.66,2.48,2.48,0,0,0,5.38,0,4.61,4.61,0,0,0,3.26.64,5.77,5.77,0,0,0,1.4,2.41,7.57,7.57,0,0,0,.26,4.63,7.79,7.79,0,0,0,0,6.68a18.56,18.56,0,0,0,1.76,7,25.76,25.76,0,0,0,6.53,9.17,14.33,14.33,0,0,0,9.12,3.84h.08a5.67,5.67,0,0,0,3.05-.76A3.17,3.17,0,0,0,22,23.37,2.59,2.59,0,0,0,22,22.89Z"/><polygon class="a" points="17.5 18.44 17.5 18.44 17.5 18.44 17.51 18.44 17.5 18.44"/></svg>