<svg xmlns="http://www.w3.org/2000/svg" viewBox="0 0 84.63 127.5"><defs><style>.a,.b{fill:#066;}.b{stroke:#fff;stroke-miterlimit:10;stroke-width:3px;}.c{fill:#fff;}</style></defs><title>thanks</title><path class="a" d="M50.36,0H0V87.59H65.32V14.78Zm.4,5.92,9.06,9H50.76Zm-46.83-2h42.9V18.8H61.39V83.66H3.93Z"/><rect class="a" x="11.96" y="21.68" width="41.4" height="3.93"/><rect class="a" x="11.96" y="57.15" width="41.4" height="3.93"/><rect class="a" x="11.96" y="33.5" width="41.4" height="3.93"/><rect class="a" x="11.96" y="45.33" width="41.4" height="3.93"/><path class="b" d="M80,90.65h-1V78.86c0-6.49-5.65-11.78-12.6-11.78H57.94c-6.95,0-12.6,5.29-12.6,11.78V90.65H44.29a3.06,3.06,0,0,0-3.14,2.94v29.47A3.06,3.06,0,0,0,44.29,126H80a3.07,3.07,0,0,0,3.15-2.94V93.59A3.07,3.07,0,0,0,80,90.65ZM53.74,78.86a4.07,4.07,0,0,1,4.2-3.92h8.39a4.07,4.07,0,0,1,4.2,3.92V90.65H53.74Z"/><path class="c" d="M73.63,108.19h-.46A11,11,0,1,1,70,100.44a10.9,10.9,0,0,1,3.21,7.75h.92a11.88,11.88,0,1,0-11.87,11.87,11.87,11.87,0,0,0,11.87-11.87Z"/><path class="c" d="M66.78,111.89v1.92H58.47l-.38-1.25A5,5,0,0,0,59.22,111a4.82,4.82,0,0,0,.35-2,2.51,2.51,0,0,0,0-.39H57.65v-1.64h1.4a7.3,7.3,0,0,1-.32-2,3.6,3.6,0,0,1,1.11-2.83,4.29,4.29,0,0,1,3-1,3.73,3.73,0,0,1,2.87,1.07,3.89,3.89,0,0,1,1,2.7H64.49c0-1.18-.57-1.78-1.7-1.78a1.74,1.74,0,0,0-1.31.48A1.86,1.86,0,0,0,61,105a6.69,6.69,0,0,0,.36,2h3.25v1.64H61.83a4.1,4.1,0,0,1,0,.41,3.77,3.77,0,0,1-1.14,2.78Z"/></svg>