<svg xmlns="http://www.w3.org/2000/svg" width="358.976" height="106.858" viewBox="0 0 358.976 106.858"><path d="M846.55-804.53l-.121.144-.538.628-.272.591-.22.575-.31.7-.25.75.121.674.008.643.068.628-5.36.848-8.737,1.491-9.608,1.893-9.774,1.476-7.071,1.37-10.274,1.658L786.1-789.1l-11.788,1.151-1.779-.606-1.151-.727-1.908-.651,7.321-2.309,8.252-1.325,8.608-1.537,9.229-1.666,8.464-1.582,9.29-1.31L830.1-801.6l8.252-1.317Z" transform="translate(-762.079 894.808)" fill="#e2d9c7"/><path d="M1143.875-860.257l-7.192,2.362-8.245,1.317-9.244,1.666-17.489,2.983-9.774,1.484-7.715,1.5-9.782,1.484-7.571,1.544-8.245,1.317-9.5,1.575-8.479,1.582-10.153,1.711-7.972,1.4-8.873,1.446-8.608,1.537L994.75-833.69l-7.5,1.234-8.2,1.673-10.539,1.567-17.08,3.119-8.616,1.544-9.638,1.522-9.153,1.355-8.328,1.628-10.153,1.7-9.009,1.4-2.09.333.1-.257.167-.568.3-.75.1-.666.068-.818.212-.628.144-.727.28-.856v-.038l9.062-1.787,9.645-1.522,7.844-1.461,9.729-1.84,8.252-1.317,18.269-3.066,8.6-1.537,9.1-1.711,7.98-1.416,8.389-1.264,9.494-1.575,10.016-1.749,8.744-1.492,7.215-1.332,10.153-1.7,8.184-1.673,8.661-1.181,8.82-1.8,8.525-1.227,9.456-1.931,9.926-1.431,6.927-1.416,9.017-1.4,8.964-1.764,9.789-1.476,10.115-1.03,2.544.515,1.84.961,1.855.288Z" transform="translate(-792.437 909.015)" fill="#e2d9c7"/><path d="M775.357-841.457l-1.45.629-.591.319-.547.257-.78.459-.416.4-.71.554-.406.447-.64.65-.354.439-.639.65-.413.718-.232.525-.57.745-.264.638-.388.552-.351.76-.2.682-.2.681-.256.69-.248.742-.3.752.014.7-.133.776-.343.813.1.575-.343.813.094.844-.128,1.422-.124.828.057.636.076.74-.116.881.119.679.412,1.434.128.731.076.74.275.651.337.7.527.553.336.694.423.572.684.526.334.372.718.413.656.37.785.185.673.152.629.214.749-.023.872.063.522-.092,1.462-.255.827-.2.608-.214.765-.241.774-.188.624-.432.694-.337.633-.379.528-.361.668-.493L782-814.8l.677-.441.344-.49.615-.484.578-.693.943.158.379.633.422.572.441.676.242.766-.175,1.16-.44.561-.406.448-.753.615-.51.465-.468.405-.728.451-.59.318-.781.459-.581.371-.808.3-.476.352-1.521.535-.808.3-.713.232-.721.18-.67.17-1.462.255-.592,0-.774.189-.706-.038-.958.06-.715-.091-.62-.161-.628-.213-.924-.054-.69-.257-.448-.405-1.356-.678-.491-.344-.684-.526-.518-.5-.51-.448-.578-.544-.285-.7-.475-.563-.285-.7-.388-.684-.361-.53-.294-.756-.223-.66-.189-.774-.171-.67-.273-1.567-.075-.74-.005-.646.063-.871-.171-.67.195-.733-.145-.835.047-.654.049-1.569.39-1.467.142-.724.133-.775.081-.769.143-.724.1-.663.185-.786.308-.7.36-.709-.014-.7.36-.709.265-.639.395-.822.422-.665.213-.629.256-.69.45-.509.526-.684.308-.7.544-.579.336-.544.615-.484.649-.6.5-.518.45-.51.51-.465.553-.528.8-.355.677-.441.642-.327.643-.328.685-.388.494-.248.765-.241.809-.3.583-.049.808-.3,1.481-.151.774-.189.654.047.758.03.672.152.829.123.672.152.595.326.8.291.5.4.552.388.666.422.631.535.257.547.493.666.528.555.223.66.189.775.294.755.2.556.151,1.48.119.679.023.748-.759.886-.731.128-.636.057-1.41.246-.788-.508-.057-.635-.048-.584-.037-1.446-.459-.781-.162-.618-.659-.692-.362-.528-.665-.422-.614-.431-.847-.229-.715-.09-.654-.047-.854.042-1.47.2Z" transform="translate(-759.708 904.996)" fill="#e2d9c7"/><path d="M827.931-836.146l.416.842-.195.733-.334.865-.326.6-.5,1.433-.256.69-.3.752-.378.6-.536.632-.256.69-1.211,1.073-.545.579-.633.379-.476.352-.624.432-.713.232-1.158.149-.3.752-.125.828.181.722-.152.672.084.792-.1.663-.238.795-.09.715-.266.638-.123.829-.256.69-.1.662-.379.6-.4.771-.336.543-.432.613-.335.543-.464.727-.563.474-.388.553-.553.526-.572.423-.563.475-.59.319-.8.355-.652.275-.66.223-.713.232-1.471.2-.783.136-.759-.029-.672-.151-.715-.091-.743-.246-.568-.17-.709-.36-.552-.388-.613-.431-.588-.6-.4-.469-.6-.649-.361-.528-.432-.625-.188-.774-.372-.581-.094-.844-.284-.7-.3-1.4-.042-.853-.1-.574.01-.862.185-.787-.127-.731.195-.734,0-.593.333-.865-.066-.688.213-.629.352-.761.3-.752.379-.6.16-.62.351-.76.915-1.236.458-.457.923-1.184.677-.44L804.5-832l.686-.388.528-.362.529-.361.79-.407.608-.214.722-.179,1.4-.3.967-.008.6.056.654.047.724.142.9.22.543.336.7.308.631.535.6.379.485.615.579.544.37.581.346.746.432.624,1.027.952,1.566-.274.738-.4.556-.2.5-.518.459-.456.492-.572.422-.665.553-.528.247-.743.275-.585.36-.709.274-.585.134-.776.2-.682.928-.538Zm-17.573,22.923.694-.338.5-.517.728-.45.578-.693.222-.577.432-.612.464-.728.17-.568.465-.726.195-.734-.023-.749.124-.829.1-.664.133-.777-.051-.906-.066-.687-.3-1.4-.084-.793-.223-.66-.546-.658-.257-.547-.432-.624-.552-.388-.509-.449-.6-.326-.89-.168-.55-.066-1.566.274-.609.214-.781.46-.458.455-.572.424-.449.508-.579.694-.379.6-.422.666-.2.681-.352.761-.317.648.094.844-.3.753.005.644-.124.828.136.784.033.8.132,1.376.285.7.293.756.336.693.37.581.562.439.422.573.665.422.69.255.534.284.862.011,1.444-.36Z" transform="translate(-769.173 902.541)" fill="#e2d9c7"/><path d="M850.408-815.423l-.638-.265-.742-.247-.6-.327-.693-.578-.275-.652-.485-.615-.336-.694-.16-1.532.047-.655-.041-.853-.128-.732.09-.715.265-.638.082-.767.238-.8.151-.672-.076-.74.361-.708.09-.716.133-.777.214-.629.08-.768-.023-.749.081-.768.133-.777-.393-1.329-.389-.685-.727-.466-.743-.246-1.158.148-.589.319-.6.266-.519.413-.493.571-.932,1.13-.483.623-.16.62-.326.6-.484.622-.29.8-.308.7-.351.761-.143.725-.194.733-.37.657-.176.837-.09.715-.185.787-.351.761-.257.69-.176.838-.081.768-.238.794-.039.706-.195.733-.185.786.023.75-.238.794-.195.734-.063.872-.883.8-.556.205-.67.17-.758-.03-.861.312-.763-.673.3-.752-.067-.688.091-.715.115-.88.091-.715.185-.785-.057-.636.091-.715.238-.8.029-.759.09-.716.039-.706.09-.715.115-.88.109-.61.123-.829.029-.759.039-.706.081-.768.2-.681-.084-.792.1-.662.2-.734.062-.871.09-.716.048-.654.185-.785.039-.706-.085-.792.238-.795.109-.611.846-1.008.627-.109.792-.085.731-.128.641.588-.02.81.048.583-.09.716-.039.706-.08.767.17.67-.176.839-.1.662.214.608.108-.61.413-.718.222-.577.265-.637.465-.727.317-.648.379-.6.284-.533.44-.562,1.1-1.106.492-.57.676-.441.344-.491.79-.406.617-.162.651-.276,1.305-.228.915,0,.646-.006.837.177.561.44.5.4.57.491.622.484.379.633.276.651.275.652.212,1.524-.081.767.066.687.042.854.023.75-.1.662-.195.734-.176.837-.1.663-.2.681-.229.846,0,.593-.333.865-.142.724-.1.664-.229.846.023.75.058.635.23,1.629.666.422,1.436-.089.634-.38.642-.328.492-.57.3-.429.422-.666.483-.622.431-.613.379-.6.2-.733.474-.675.351-.761.265-.638.317-.647.309-.7.3-.751.238-.795.1-.663,1.27-.437.76.352.357,1.121-.351.761-.109.611-.247.743-.413.717-.37.656-.2.681-.4.77-.275.586-.238.795-.369.656-.151.672-.526.684-.317.647-.318.649-.388.551-.474.675-.985,1.141-.7.606-.616.484-.651.276-.643.327-.7.285-1.244.27Z" transform="translate(-777.169 903.446)" fill="#e2d9c7"/><path d="M898.754-837.423l-.643-.265-.916.273-.2.674-.114.265v.008l-.2.432-.3.75-.363.659-.091.712-.265.643-.477.674-.091.712-.477.674-.212.628-.273.591-.59.636-.363.659-.2.681-.379.606-.439.56-.447.56-.447.507-.583.644-.56.522-.5.522-.674.439-.5.522-.485.03.212-.954.03-.757.038-.7.045-.659.144-.727.083-.765.159-.621.083-.765.091-.719.076-1.408.129-.78.151-.666.083-.772.189-.787.136-.719.106-.666-.038-.8.151-.674.038-.7.076-.818.265-.636.03-.757.151-.674-.045-.856.151-.674.257-.689-.114-.681.227-.848.129-.772.1-.666v-.643l-.507-.719-.681.068-.878.2-.674.174-.674.765-.333.863-.265.636-.136.78-.038.7-.439,1.476-.144.727-.439-.681-.439-.674-.257-.545-.439-.681-.371-.575-.583-.545-.7-.363-.5-.394-.765-.356-.613-.106-.795-.235-.787.083-.8.03-1.522.212-.621.159-.606.22-.787.4-.545.31-.56.477-.7.333-.537.583-.6.591-.348.485-.659.553-.273.583-.379.606-.477.674-.288.8-.386.553-.091.712-.151.674-.341.818v.644l-.227.848-.03.757-.151.674.076.727.008.061-.121.424v.008l-.076.25.008.068.061.674.129.727.439,1.6-.038.7.227.719v.008l.015.038.318.59.348.742.3.757.469.568.477.56.469.507.575.545.825.394.492.348.689.257,1.446.28.825.129.681-.121,1.469-.2.757-.288.553-.257.742-.348.636-.379.515-.416.689-.386.386-.553.53-.681.5-.522-.038.712-.1.659.023.75-.008.591-.151.674.03,1.075-.863.628-.681.394-.6.265-.863.31-.545.257-.818.25-.492.25-.848.416-.681.386-.6.265-.575.424-.742.348-.477.348-.719.507-.522.409-.469.409-.371.424-.121.144-.538.628-.273.591-.22.575-.31.7-.25.75.121.674.008.643.068.628.1.954.265.606.507.719.416.568.341.7.613.432.81.341.734.2.787.182.7-.008.863.008,1.257-.22.863-.257.613-.22.742-.341.6-.265.568-.477.492-.568.454-.462.6-.583.333-.545.424-.666.31-.7.462-.727.257-.7.212-.628.2-.545.1-.257.167-.568.3-.75.1-.666.068-.818.212-.628.144-.727.28-.856v-.644l.78-1.052.575-.424.681-.386.681-.439.5-.522.674-.439.4-.5.606-.538.447-.507.492-.568.53-.689.424-.613.341-.538.439-.568.318-.643.432-.613.484-.621.2-.553v-.008l.053-.129.2-.681.53-.689.28-.53.363-.712.151-.674.242-.742.432-.613.25-.742.2-.681.265-.636.159-.621ZM882.62-815.506l-.235.848-.326.591-.2.689-.257.689-.3.75-.492.568-.386.553-.545.583-.439.56-.583.371-.492.25-1.628.227-.613-.106-.613-.432-.341-.7-.288-1.348.1-.666.1-.659.613-.538.394-.5.492-.575.727-.447.484-.3.742-.4.439-.242.681-.439.636-.326.833-.2.6-.265.621-.432.53.553-.257.689ZM883.635-830l-.265.636-.469.681-.341.538-.545.583-.56.477-.583.363-.568.424-.712.235-1.454.3-.833-.121-.666-.151-.7-.31-.651-.363-.522-.507-.477-.56-.167-.666-.439-.681-.235-.712-.159-1.529-.023-.75-.189-.78.091-.712-.023-.75.129-.772.356-.765.091-.712.416-.666.257-.7.424-.666.318-.643.56-.477.56-.469.454-.515.689-.333.863-.31,1.416-.2.689-.068.742.25.591.273.666.424.462.507.7.636.288.7.227.712.371.575.22,1.582-.038.7-.008.863-.045.651.083.795-.3.75-.182.787-.114.613Z" transform="translate(-786.119 905.17)" fill="#e2d9c7"/><path d="M904.707-826.863l.195-.733-.119-.679.116-.88.09-.715.081-.767.109-.611.029-.758-.023-.75.3-.752.09-.715-.042-.853.109-.611.011-.863.014-1.454.2-.681.02-.811.2-.681-.128-.731.1-.663.219-.9-.066-.688.039-.707.308-.7.029-.759-.023-.749.195-.734-.023-.75.081-.766.082-.768.726-.772.825-.2.636-.057.731-.128.954.533-.03.758-.106.934.076.74-.142.724-.134.777-.019.811.145.834.256-.69.2-.682.4-.822.231-.524.526-.684.351-.761.326-.6.283-.534.7-.607.317-.647.676-.44.581-.371.511-.466.713-.232,1.471-.2.844-.094.586.274.647.318.675.473.579.545.293.756.536.606.18.722.256,1.462-.064.872.076.74-.917.913-1.5.369-.905.051-.675-.474,0-.644-.465-1.426-.275-.651-.856-.281-1.333.07-.363.387-.528.362-.554.526-.24.472-.335.543-.441.561-.72,1.418-.214.628-.256.691-.281.856-.152.672-.289.8-.091.715-.36.709-.176.837-.151.673-.229.847-.09.715-.029.759-.143.724-.28.857,0,.644-.272.909,0,.593-.011.862-.351.761-.091.715.128.731-.238.795-.846,1.008-.75.023-.608.214-.783.137-.8.032-.631-.535Z" transform="translate(-794.907 906.457)" fill="#e2d9c7"/><path d="M938.848-831.066l-.82-.072-.785-.185-.752-.3-.439-.354-.656-.369-.789-.508-.36-.529-.537-.606-.518-.5-.493-.667-.441-.676-.118-.679-.337-.694-.336-.694-.076-.74-.16-1.532-.189-.774-.084-.792.1-.664.02-.81L930.94-844l.1-.664.176-.837-.023-.75.213-.629.176-.837.266-.639.413-.717.1-.662.351-.761.318-.648.37-.656.588-.641.4-.5.37-.656.762-.564.468-.4.719-.5.477-.352.633-.381.86-.31.5-.2.912-.32,1.375-.133.846-.093.715.09.629.214.516.179.761.351.481.294.684.525.466.511.509.449.327.642.389.685.466.511.293.756.352-.761.133-.776.029-.759.2-.681.413-.718.09-.715.124-.83.874-.852.678-.118.906-.051.46-.135.712.683-.09.715-.142.725-.143.724-.1.663-.29.8.058.636-.238.795-.2.734.119.679-.229.846.005.644-.29.8-.143.725.067.688-.142.724-.038.706-.229.846-.186.786.119.68-.195.734.075.74-.195.733.014.7.032.8.379,1.548.622.484,1.593-.117.529-.362.529-.361.544-.578.459-.457.474-.675.274-.586.483-.622.4-.77.335-.544.2-.733.36-.709.431-.613.308-.7.048-.654.342-.813.256-.69.351-.761,1.06-.4.779.456.244,1.088-.089.715-.2.681-.308.7-.318.647-.413.718-.266.638-.247.743-.317.648-.3.751-.308.7-.265.638-.379.6-.423.666-.44.561-.36.709-.422.666-.458.457-.545.578-.544.58-.354.438-.72.5-.6.266-.789.407-1.41.246-.6-.056-.724-.142-.682-.2-.665-.422-.447-.407-.545-.657-.214-.609-.346-.747-.507.788-.326.6-.422.665-.667.492-.431.614-.528.361-.729.451-.528.362-.738.4-.869.259-2.115.208Zm3.675-4.839.624-.432.572-.422.52-.414.691-.659.449-.51.318-.647.17-.568.308-.7.456-.778.047-.655.317-.647-.032-.8.029-.758.133-.777-.058-.636-.136-.783.047-.654-.23-1.628-.328-.642-.336-.694-.319-.591-.5-.719-.422-.572-.552-.388-.856-.28-.734-.2-.7.014-1.385.08-.642.328-.624.432-.685.389-.441.561-.923,1.183-.431.614-.327.594-.256.69-.36.709-.02.811-.132.776-.3.752-.048.654.084.793-.029.758.189.774.221,1.576.137.784.484.614.241.765.38.633.466.51.726.465.761.352.543.335.759.029,1.636-.178Z" transform="translate(-801.301 907.805)" fill="#e2d9c7"/><path d="M985.928-855.552l.348,1.069-.142.724-.379.6-.082.768-.379.6-.3.751-.369.656-.16.62-.466.727-.326.6-.16.62-.465.727-.309.7-.379.6-.441.561-.317.647-.335.544-.588.64-.406.448-.667.492-.554.528-.467.4-.677.441-.7.285-.477.352-.869.259-1.481.151-.644,0-.872-.061-.69-.257-.585-.275-.761-.351-.475-.563-.485-.615-.527-.553-.4-.737-.014-.7-.413-1.435.083-.768-.11-.627-.023-.75-.171-.669.082-.767.081-.768-.162-.617.185-.786.029-.758.082-.768.039-.706-.128-.731.3-.752-.128-.73.185-.787,0-.645.02-.809.247-.743.143-.725-.849-.55-2.246.391-.815-.665.213-.628.063-.872.2-.734.768-.834.669-.171.9-.1.74-.075.96-.976-.057-.635.02-.81.247-.743.039-.706.185-.787-.033-.8.2-.681.02-.811.038-.706.195-.734-.075-.74.1-.662.176-.839.907-.965.679-.119.609-.214L974-875.8l.652-.276.545.658-.039.706-.142.724-.076,1.412-.1.663-.176.838-.09.715.066.688-.039.706-.09.715-.2.682-.029.758-.2.681.084.792.475.563.793-.084.94-.164.66-.223.8-.032.617-.162.949-.111.731-.128.669-.171.7.631-.09.715-.039.706-.229.846-.787.729-.835.145-.774.189-.687.067-.818.251-.645,0-.66.223-.887.155-.793.084-.612.806-.22.9-.161.621-.02.809.023.75.005.644-.116.881-.257.69.076.74-.039.706-.029.758-.123.83.076.74-.185.786-.039.706.242.765-.02.81-.09.715.464,1.426.512.772.527.553.733.2,1.541-.107.538-.31.851-.364.458-.456.52-.413.615-.484.492-.57.335-.543.631-.7.422-.666.265-.637.712-1.47.161-.619.508-.789.326-.6.142-.724.465-.727.02-.81,1.121-.357Z" transform="translate(-809.66 912.186)" fill="#e2d9c7"/><path d="M995.18-840.725l-.862-.01-.795-.239-.42-.25-.8-.29-.624-.482-.37-.581-.588-.6-.328-.643-.275-.651-.285-.7-.071-1.332-.2-.556.161-.621-.005-.644-.014-.7.029-.759.048-.653-.128-.731.151-.672.011-.863.047-.654.248-.742.09-.716.011-.862-.057-.635.177-.839.047-.654.176-.837.185-.786.195-.733-.074-.74.176-.839.185-.785.038-.706.186-.786.987-.818,1.5-.37.845-.093.678-.118.65.64-.229.846.067.688-.36.708-.142.725.023.75-.143.724-.081.767-.029.759-.133.778-.2.732-.09.715-.134.777-.08.768.014.7-.29.8-.02.811-.039.706.033.8-.185.785.18.722-.185.786.127.731.185,1.366.257.548.433.624.742.246.672.152,1.314-.176.591-.319.528-.362.468-.4.363-.387.441-.56.473-.675.484-.622.274-.586.36-.709.413-.717.1-.664.229-.846.378-.6.185-.786.308-.7.281-.856.152-.673.195-.734.176-.837.351-.761.195-.734.143-.724.029-.758.333-.866.038-.706.185-.785.276-1.5.308-.7.081-.767.082-.768.907-.965.8-.032.617-.162.669-.171.628-.11.606.7-.03.758-.09.715-.1.662-.341.813-.039.706-.167.891-.039.706-.195.734-.134.778-.142.724.075.74-.2.681-.029.759-.2.734-.029.758-.09.715-.063.871-.3.752.118.678-.063.872-.2.681.128.731.041.854.385,1.278.4.737.542.335,1.428-.141.6-.266.51-.466.658-.545.388-.551.422-.666.431-.613.492-.57.161-.62.3-.752.465-.726.274-.586.4-.77.11-.611.36-.709.4-.77.065-.549.248-.743,1.155-.471.709.361.557,1.033-.413.717-.29.8-.213.63-.36.708-.2.734-.151.672-.456.779-.161.62-.508.788-.151.673-.431.613-.432.612-.36.709-.422.666-.748,1.26-.535.632-.468.4-.588.641-.676.441-.434.292-.884.477-.547.257-1.489.1-.688.066-.856-.28-.639-.266-.456-.458-.641-.588-.413-.519-.18-.722-.179-.722-.292-1.671-.032-.8-.155-.888-.09.715-.36.709-.248.743-.213.63-.369.656-.318.646-.456.779-.544.579-.379.6-.45.509-.51.466-.6.589-.624.432-.675.441-.609.214-.7.284-1.461.255Z" transform="translate(-815.539 910.22)" fill="#e2d9c7"/><path d="M1031.24-851.192l-.767-.08-.767-.082-.6-.379-.561-.441-.684-.526-.466-.51-.3-.808-.494-.667-.057-.636-.289-1.348-.276-.651.143-.725-.057-.636-.005-.644-.161-.617.151-.672.08-.768-.17-.67.09-.715.09-.715-.094-.844.109-.61.186-.786.072-.82-.023-.749.185-.787.048-.653-.033-.8.133-.777.133-.776-.075-.74.282-.856-.015-.7.082-.768.2-.681.011-.862-.014-.7.229-.846.09-.715.167-.89-.015-.7-.032-.8.151-.672.115-.881.029-.759.185-.785.2-.681-.042-.854.238-.795.048-.653.08-.768.116-.881-.014-.7.195-.733.751-.938.817-.251.645-.005.879-.207.565-.151.616.753-.091.715-.038.7-.151.672-.029.758-.081.768.005.645-.021.81-.151.672-.185.785.066.688-.29.8.137.783-.256.691-.03.758.014.7-.152.672-.185.787.066.688-.09.715-.272.909.1.573-.167.89-.142.725.11.627-.29.8-.1.662.085.793-.151.672-.073.82-.142.724-.021.811.067.689-.081.767-.247.743.005.644-.011.863-.09.715.005.645-.134.777.094.844.128.731.014.7-.133.776.5,1.311.3.809.485.615.742.248,1.524-.212.442-.239.6-.266.615-.483.614-.485.317-.647.4-.5.422-.666.44-.56.465-.727.309-.7.379-.6.1-.663.412-.718.379-.6.177-.837.212-.63.257-.69.2-.681,1.07-.348.646.317.672,1.067-.4.769-.142.724-.308.7-.318.647-.151.672-.36.709-.257.69-.308.7-.256.69-.265.638-.379.6-.413.717-.179.516-.465.727-.335.543-.379.6-.535.631-.493.57-1.021.931-.789.407-.468.405-.808.3-.609.214-1.471.2Z" transform="translate(-824.365 915.824)" fill="#e2d9c7"/><path d="M1053.244-851.044l-.819-.071-.786-.186-.752-.3-.438-.354-.656-.369-.788-.508-.361-.529-.536-.606-.518-.5-.494-.666-.441-.677-.118-.678-.337-.7-.337-.694-.075-.74-.16-1.532-.189-.774-.085-.792.1-.663.02-.811-.137-.783.1-.663.176-.838-.023-.749.213-.629.176-.838.265-.638.413-.717.1-.663.351-.761.318-.648.369-.656.588-.64.4-.5.37-.656.762-.563.467-.4.719-.5.477-.353.633-.38.86-.311.5-.2.913-.321,1.375-.133.845-.094.715.09.628.214.516.179.76.351.481.293.684.525.466.511.509.449.327.643.389.684.466.512.293.756.352-.761.133-.776.03-.759.2-.681.413-.718.089-.715.124-.829.875-.853.678-.118.905-.05.461-.135.711.683-.09.715-.142.724-.142.725-.1.662-.291.8.058.636-.238.8-.2.734.119.678-.229.846.005.645-.29.8-.143.724.067.688-.143.725-.038.706-.229.847-.186.786.119.679-.195.734.076.74-.2.734.015.7.032.8.378,1.549.622.483,1.594-.117.528-.362.528-.361.545-.579.457-.457.474-.675.275-.586.483-.622.4-.77.335-.543.2-.734.36-.709.431-.613.308-.7.047-.653.342-.813.257-.69.351-.761,1.061-.4.778.456.244,1.087-.09.716-.2.681-.309.7-.317.647-.413.718-.264.638-.247.743-.318.648-.3.752-.308.7-.266.638-.379.6-.422.666-.44.561-.36.708-.422.666-.459.457-.544.579-.544.579-.354.438-.719.5-.6.265-.789.406-1.41.246-.6-.056-.725-.142-.681-.205-.665-.422-.448-.407-.545-.657-.214-.609-.345-.747-.508.788-.326.6-.422.666-.667.492-.432.614-.528.361-.729.45-.529.362-.737.4-.869.26-2.116.208Zm3.675-4.838.625-.432.572-.422.519-.413.692-.659.449-.51.317-.647.17-.567.308-.7.457-.778.046-.655.318-.647-.032-.8.029-.758.134-.777-.057-.635-.137-.783.048-.655-.23-1.628-.328-.642-.336-.694-.319-.59-.5-.72-.423-.572-.552-.388-.855-.28-.734-.2-.7.014-1.385.079-.642.328-.625.432-.685.388-.44.562-.924,1.183-.431.614-.326.6-.257.69-.36.709-.02.811-.133.776-.3.752-.047.655.084.792-.029.758.189.775.221,1.575.137.784.484.615.241.765.379.634.466.509.727.465.761.352.543.336.758.029,1.637-.179Z" transform="translate(-829.088 912.658)" fill="#e2d9c7"/><path d="M1100.325-875.529l.349,1.069-.144.723-.378.6-.082.768-.378.6-.3.752-.37.656-.161.62-.465.728-.326.6-.161.62-.465.726-.308.7-.379.6-.44.561-.317.647-.336.543-.588.641-.406.447-.667.492-.553.529-.468.4-.676.441-.7.284-.476.353-.869.259-1.48.151-.645,0-.871-.062-.691-.257-.586-.274-.762-.352-.474-.563-.485-.615-.527-.553-.4-.737-.014-.7-.412-1.434.081-.768-.109-.628-.024-.749-.17-.67.081-.767.081-.768-.161-.617.185-.786.029-.758.081-.768.038-.706-.128-.731.3-.752-.127-.731.185-.786,0-.646.02-.809.248-.743.142-.725-.849-.551-2.245.392-.815-.665.213-.628.063-.872.2-.734.769-.834.669-.171.9-.1.74-.075.959-.975-.057-.635.02-.811.248-.743.037-.706.185-.787-.032-.8.2-.681.02-.81.039-.706.195-.734-.076-.74.1-.662.177-.838.907-.965.679-.119.609-.214.887-.155.651-.275.546.657-.039.706-.142.725-.076,1.413-.1.662-.176.838-.09.715.067.688-.039.7-.09.715-.2.682-.029.758-.2.681.085.793.475.562.793-.084.939-.164.661-.224.8-.032.617-.161.949-.112.732-.127.669-.171.7.631-.09.715-.038.706-.229.847-.786.729-.836.145-.774.189-.689.066-.817.251-.644,0-.661.224-.887.154-.792.085-.613.806-.219.9-.161.621-.019.81.023.75.005.644-.115.881-.256.69.075.74-.038.706-.029.758-.124.829.075.74-.185.786-.038.706.241.764-.021.811-.09.715.464,1.426.511.772.527.553.734.2,1.542-.108.538-.31.85-.363.46-.457.519-.413.615-.484.492-.571.336-.543.63-.7.421-.666.266-.638.712-1.469.161-.619.507-.789.327-.6.142-.725.465-.726.02-.81,1.121-.358Z" transform="translate(-837.447 917.038)" fill="#e2d9c7"/><path d="M1109.068-863.421l-.716-.09-.724-.143-.647-.316-.751-.3-.362-.528-.6-.65-.276-.651-.327-.642-.441-.676-.219-1.254.142-.724-.266-.6-.024-.75.161-.619.09-.715-.014-.7.03-.759.08-.767-.118-.679.308-.7.063-.871-.075-.74.047-.653.229-.848.185-.785.039-.706v-.915l.256-.69.063-.872-.076-.74.1-.662.29-.8.011-.863.256-.69.69-.98,1.723-.3.669-.171.678-.118.774.726-.058.6-.08.768-.256.69.066.688-.238.794-.02.811-.256.69-.09.715.057.635-.072.82-.256.69.014.7-.081.766-.2.682-.03.758-.071.819-.152.673-.09.715.067.688.014.7-.029.759.032.8.075.74.246,1.41.441.675.57.493.577.222,1.429-.142.476-.352.8-.355.449-.508.588-.641.81-1.217.492-.57.317-.648.308-.7.247-.743.37-.656.247-.742.413-.719.222-.577.342-.812.195-.734.308-.7.965-.33.865.333.339,1.018-.352.76-.274.586-.151.673-.247.741-.317.648-.308.7-.327.6-.09.715-.535.631-.151.672-.413.718-.422.666-.223.576-.317.647-.544.579-.274.587-.588.64-.4.5-.431.613-.633.379-.441.561-.7.285-.59.317-.694.337-1.471.2Zm-2.5-29.747.029-.759.108-.609.339-1.458.019-.812.161-.619.847-1.008.635-.058.817-.25.939-.164.566-.152.77.4-.073.821-.237.793-.09.715.023.75-.247.743-.176.837-.03.759-.883.8-.556.2-.783.136-1.585.17-.57-.492Z" transform="translate(-843.304 917.769)" fill="#e2d9c7"/><path d="M1152.021-892.743l.416.841-.2.734-.332.865-.327.6-.5,1.434-.256.69-.3.752-.379.6-.535.632-.256.69-1.212,1.073-.545.579-.633.379-.476.352-.625.432-.712.232-1.158.148-.3.752-.124.829.18.722-.151.672.085.792-.1.663-.238.794-.09.716-.266.637-.124.83-.255.69-.1.662-.379.6-.4.771-.336.542-.431.614-.336.543-.464.728-.563.474-.388.553-.553.527-.572.422-.562.475-.59.319-.8.355-.65.274-.661.223-.713.232-1.47.2-.784.137-.758-.03-.672-.151-.715-.091-.743-.246-.568-.17-.708-.36-.553-.388-.613-.431-.588-.6-.4-.468-.6-.649-.361-.528-.432-.624-.189-.774-.37-.581-.094-.844-.284-.7-.3-1.4-.041-.853-.1-.574.01-.863.185-.786-.127-.731.194-.733,0-.593.334-.865-.066-.687.212-.629.352-.761.3-.752.379-.6.161-.62.351-.761.914-1.236.459-.457.923-1.184.677-.44.562-.476.685-.388.529-.363.528-.361.79-.407.609-.214.722-.18,1.4-.3.968-.007.6.057.654.046.725.142.9.219.543.336.7.307.631.536.6.379.484.615.579.544.37.581.345.746.433.624,1.026.952,1.566-.274.737-.4.556-.205.5-.518.458-.455.491-.572.422-.665.553-.528.248-.743.274-.585.36-.709.274-.586.134-.776.2-.681.928-.539Zm-17.573,22.923.694-.337.5-.518.728-.45.579-.693.222-.576.431-.613.465-.728.17-.568.466-.726.194-.734-.023-.749.124-.83.1-.663.134-.777-.052-.906-.066-.687-.3-1.4-.084-.792-.223-.66-.546-.659-.257-.546-.431-.625-.553-.388-.509-.449-.6-.327-.89-.167-.549-.066-1.567.274-.607.214-.781.46-.458.456-.572.423-.45.508-.578.694-.378.6-.423.666-.2.681-.351.761-.318.648.094.844-.3.752,0,.645-.124.828.137.784.033.8.132,1.376.284.7.294.756.336.694.371.581.561.439.423.573.665.422.691.254.533.285.862.011,1.445-.36Z" transform="translate(-847.896 916.288)" fill="#e2d9c7"/><path d="M1174.5-872.02l-.638-.266-.742-.246-.595-.326-.693-.579-.276-.651-.483-.615-.337-.694-.16-1.532.047-.655-.042-.852-.127-.731.09-.716.265-.638.082-.767.238-.795.151-.672-.075-.74.359-.708.09-.715.134-.777.213-.629.082-.768-.023-.749.08-.768.133-.777-.394-1.329-.388-.686-.727-.465-.743-.247-1.158.148-.59.319-.6.266-.519.413-.492.571-.933,1.13-.483.623-.16.62-.327.594-.483.623-.291.8-.308.7-.351.761-.142.725-.2.733-.37.657-.176.837-.091.715-.186.787-.351.761-.256.69-.176.838-.082.768-.237.794-.039.706-.2.734-.185.786.024.75-.239.794-.194.734-.063.871-.883.8-.556.205-.67.17-.759-.029-.86.312-.763-.674.3-.752-.067-.687.091-.715.116-.88.089-.715.186-.785-.057-.637.09-.714.238-.8.03-.759.09-.715.038-.706.091-.715.115-.881.108-.61.124-.828.03-.759.038-.706.081-.768.2-.681-.084-.792.1-.662.195-.734.064-.871.09-.716.047-.654.186-.785.039-.706-.085-.792.238-.795.108-.611.846-1.008.626-.11.793-.084.731-.127.641.587-.02.811.048.584-.09.715-.038.706-.082.767.171.67-.176.839-.1.662.213.608.11-.61.412-.719.222-.576.266-.638.465-.727.317-.648.379-.6.284-.533.44-.562,1.1-1.106.493-.571.676-.44.344-.491.79-.407.618-.161.651-.276,1.305-.228h.915l.644-.005.838.176.562.441.5.4.571.492.622.483.38.633.276.652.275.652.212,1.523-.08.767.066.688.041.853.023.75-.1.663-.194.734-.177.837-.1.663-.2.681-.229.847,0,.593-.334.865-.142.724-.1.663-.229.847.023.75.057.635.231,1.628.666.422,1.437-.089.633-.381.643-.328.492-.569.3-.429.422-.665.483-.622.432-.613.379-.6.194-.733.474-.675.352-.761.265-.638.318-.648.308-.7.3-.751.238-.795.1-.663,1.27-.437.76.351.357,1.121-.351.761-.108.611-.247.743-.413.718-.37.656-.2.682-.4.77-.275.586-.238.795-.369.656-.152.672-.527.683-.317.648-.317.648-.388.551-.475.674-.984,1.142-.7.606-.615.484-.651.276-.643.327-.7.285-1.244.27Z" transform="translate(-855.892 917.194)" fill="#e2d9c7"/><path d="M1201.737-876.467l-.845.093-.531.039-.862-.01-.559-.119-.734-.195-.7.014-.8-.238-.69-.256-.673-.151-.638-.266-.443-1,.37-.658.17-.568.308-.7.422-.665.993-.173.629.213.724.143.8.289.829.125.559.118.845-.094.706.038,1.523-.213.8-.354.66-.223.424-.344.52-.413.379-.6.308-.7.108-.61-.089-1.437-.484-.615-.58-.546-.586-.273-.613-.431-1.537-.484-.682-.205-.646-.316-.795-.238-.482-.292-.856-.281-.508-.449-.709-.361-.518-.5-.588-.6-.67.171-.056.6-.3.751-.194.733-.342.813-.118.56-1.093.513-.8-.289-.538-.929.394-.821.048-.654.37-.656.256-.69.039-.707.317-.647.213-.628.029-.759.379-.6.08-.767.3-.752.426-1.258.422-.665.36-.709.388-.552.344-.491.657-.546.5-.518.7-.285.52-.413.869-.26.766-.241.556-.2,1.471-.2.862.011.646,0,.863.01.724.142.568.17.613.431.761.351.6.379.517.5.432.624.309.538.432.624.094.845.232.712-.682.712-.827.2-.687.067-.713.232-.92-.647-.18-.721-.457-.458-.631-.535-.657-.369-.672-.152-.9.1-1.218.105-.643.328-1.37.778-.222.575-.422.666-.048.654.308,1.453.379.633.65.64.708.36.76.351,1.268.479.708.361.8.238.629.212.918.325.6.326.637.266.675.473.552.388.631.536.432.625.4.737.119.679.3,1.4.145.836-.056.6-.176.838-.266.637-.274.587-.3.752-.544.578-.51.466-.335.543-.51.466-.7.285-.772.511-.485.3-.871.26-.659.223-1.984.347Z" transform="translate(-864.849 918.503)" fill="#e2d9c7"/><path d="M1222.907-886.253l-.066-.688.114-.881.057-.6.29-.8.793-1,.636-.058.793-.085,1.41-.246.721-.179.7.631-.08.767-.239.8-.081.767-.09.715.066.688-.83.79-.713.232-.783.137-.826.2-.584.048-.8.032-.674-.473Zm1.511-10.756.039-.706.029-.758-.014-.7.3-.752-.138-.784.152-.672-.085-.792.195-.734.048-.653-.085-.793.185-.785-.005-.645-.032-.8.151-.673.224-1.492.038-.706-.023-.749.046-.654.2-.681.134-.776.071-.821.091-.715,0-.593.124-.83-.118-.678.308-.7-.128-.731.256-.691-.136-.783.29-.8-.1-.574.195-.734-.076-.74.238-.794.612-.807.722-.179.949-.112.46-.134.854-.042.754.622-.151.673-.029.759-.179,1.43-.239.794.057.636-.238.795.11.627-.152.672-.133.776.014.7-.123.829-.047.653-.143.724-.039.706-.176.837-.108.611.119.678-.281.856-.024,1.4-.038.707-.186.785-.247.742.067.688-.124.829-.195.734-.151.672-.039.706-.185.786-.09.715.084.793-.238.794.048.584-.176.838-.1.663-.75.939-.679.118-.688.066-.731.128-.7-.631Z" transform="translate(-872.176 923.772)" fill="#e2d9c7"/></svg>