<svg xmlns="http://www.w3.org/2000/svg" width="135.023" height="39.452" viewBox="0 0 135.023 39.452"><g transform="translate(-1329.343 1059.524)"><g transform="translate(1333.489 -1059.524)"><path d="M1342.915-1011.988l.045-.429.114-.38-.008-.39,0-.36.109-.41.04-.458.085-.375-.008-.389.051-.4.074-.434-.013-.419.056-.37.08-.4.075-.434.026-.365.1-.44.085-.375-.066-.379.1-.439-.04-.744-.169-.451-.149-.335-.271-.344-.158-.393-.2-.446-.2-.777-.178-.33-.328-.844-.153-.364-.305-.368-.042-.414-.212-.354-.1-.4-.183-.359-.183-.359-.212-.354-.159-.393-.164-.422-.212-.354-.154-.364-.047-.443-.222-.412-.154-.364-.177-.33-.135-.427-.217-.383.308-.475.316-.085.437-.077.5-.058.345-.09.544.356.119.34.381.805.159.393.125.369.275.373.032.355.217.383.159.393.207.325.164.422.09.345.135.427.149.335.276.372.076.438.149.335.159.393.217.383.178.33.135.428.153.364.241.349.265-.377.207-.367.2-.4.124-.322.318-.416.119-.352.148-.356.241-.343.177-.362.26-.406.177-.361.2-.4.241-.343.089-.346.231-.4.182-.333.231-.4.173-.391.148-.356.318-.416.09-.347.276-.319.177-.362.138-.415.236-.372.143-.386.511-.69.6-.5.345-.09.385-.037.461-.11.506-.029.427-.134.212.354-.177.362-.231.4-.217.308-.259.406-.061.341-.241.342-.23.4-.212.338-.167.42-.241.343-.172.391-.183.333-.2.4-.246.313-.114.38-.206.368-.207.367-.148.356-.231.4-.148.356-.3.353-.109.41-.206.367-.294.382-.129.293-.148.357-.2.4-.323.387-.172.391-.1.288-.2.4-.183.332-.226.43-.212.338-.269.348-.207.366-.119.352-.212.849-.12.352-.093.5.037.384-.045.428-.138.415.042.414-.084.375-.075.434-.074.434.037.384-.114.38.018.448-.138.415-.085.376-.1.829-.035.487.037.385-.489.476-.466.082-.433.105-.384.037-.506.028-.383-.294Z" transform="translate(-1339.144 1044.897)" fill="#e2d9c7"/><path d="M1387.013-1021.805l.232.47-.109.41-.186.484-.183.333-.281.8-.142.386-.168.42-.211.338-.3.353-.143.385-.677.6-.3.324-.354.212-.266.2-.349.242-.4.129-.647.083-.167.42-.07.463.1.4-.085.375.047.443-.056.37-.132.444-.051.4-.148.357-.069.463-.143.385-.056.371-.212.338-.225.43-.187.3-.241.343-.187.3-.259.406-.315.265-.217.309-.309.294-.32.236-.314.265-.33.178-.447.2-.363.154-.369.124-.4.129-.822.114-.438.077-.423-.017-.376-.084-.4-.051-.415-.138-.317-.1-.4-.2-.309-.217-.343-.241-.329-.333-.226-.262-.334-.363-.2-.295-.242-.349-.105-.432-.207-.325-.052-.472-.159-.393-.166-.783-.023-.477-.056-.321.006-.482.1-.44-.072-.408.109-.41,0-.331.186-.483-.037-.385.118-.352.2-.425.167-.42.212-.338.09-.346.2-.425.511-.69.256-.255.516-.662.378-.246.314-.266.384-.217.3-.2.3-.2.441-.227.34-.119.4-.1.783-.166.54,0,.336.032.365.026.4.08.5.123.3.188.391.172.353.3.338.211.271.344.323.3.207.324.193.417.241.349.573.532.876-.153.412-.223.311-.114.28-.29.256-.254.275-.319.236-.372.31-.295.138-.415.153-.327.2-.4.153-.327.075-.434.114-.381.519-.3ZM1377.194-1009l.388-.188.28-.289.407-.252.323-.388.124-.322.241-.343.26-.406.094-.317.26-.406.109-.41-.013-.418.069-.463.056-.371.075-.434-.028-.506-.037-.384-.167-.783-.046-.443-.125-.369-.3-.368-.144-.305-.241-.349-.308-.217-.284-.251-.332-.182-.5-.094-.307-.036-.875.153-.34.12-.436.257-.256.255-.32.237-.251.283-.323.388-.211.337-.236.372-.114.38-.2.425-.178.362.052.472-.167.421,0,.36-.069.463.076.438.018.448.074.769.159.393.164.423.188.388.207.325.313.245.236.32.372.236.386.142.3.159.482.006.807-.2Z" transform="translate(-1357.33 1037.833)" fill="#e2d9c7"/><path d="M1407.679-1010.894l-.482-.006-.444-.133-.234-.139-.449-.162-.348-.269-.207-.324-.329-.334-.183-.359-.154-.364-.159-.394-.039-.745-.115-.311.09-.347,0-.36-.008-.39.016-.424.026-.365-.071-.409.084-.375.006-.482.027-.365.138-.415.05-.4.006-.481-.032-.355.1-.468.026-.366.1-.468.1-.439.109-.41-.042-.413.1-.468.1-.439.021-.395.1-.439.552-.457.836-.206.472-.052.38-.067.363.358-.128.473.037.385-.2.4-.08.4.013.418-.079.4-.045.428-.017.424-.074.435-.109.409-.05.4-.075.434-.046.429.008.389-.162.449-.011.453-.021.394.018.448-.1.439.1.4-.1.439.072.408.1.764.143.306.242.349.415.138.375.085.734-.1.33-.178.3-.2.261-.226.2-.216.246-.313.265-.377.27-.348.153-.327.2-.4.231-.4.055-.371.128-.473.211-.338.1-.439.172-.391.157-.479.085-.376.108-.41.1-.468.2-.425.109-.41.079-.405.017-.423.186-.484.021-.395.1-.439.154-.839.172-.391.045-.429.046-.428.507-.54.448-.018.345-.091.374-.1.35-.061.339.393-.016.423-.051.4-.055.371-.191.454-.022.395-.094.5-.021.395-.109.409-.074.435-.08.4.042.414-.114.38-.016.424-.109.41-.016.424-.05.4-.036.487-.167.42.066.379-.035.487-.114.381.071.408.023.477.215.714.222.412.3.188.8-.079.335-.149.285-.261.368-.3.216-.308.236-.372.24-.342.275-.319.09-.346.167-.42.26-.406.154-.327.225-.431.06-.341.2-.4.226-.43.036-.307.138-.415.646-.263.4.2.311.577-.231.4-.162.449-.119.352-.2.4-.109.41-.085.375-.255.435-.089.347-.284.44-.085.376-.24.343-.241.343-.2.4-.235.373-.419.7-.3.353-.261.226-.328.358-.378.247-.242.163-.494.266-.306.144-.832.055-.385.037-.478-.156-.357-.149-.255-.256-.358-.328-.231-.29-.1-.4-.1-.4-.163-.934-.018-.448-.087-.5-.051.4-.2.4-.138.415-.119.352-.206.367-.178.361-.255.435-.3.324-.212.338-.251.284-.285.26-.333.329-.349.242-.378.247-.34.119-.393.159-.817.143Z" transform="translate(-1376.872 1040.254)" fill="#e2d9c7"/><path d="M1439.9-1017.312l.108-.41-.066-.379.065-.492.05-.4.045-.428.06-.342.016-.423-.013-.419.167-.42.05-.4-.023-.477.061-.341.006-.482.008-.813.114-.381.011-.454.114-.38-.071-.408.056-.371.123-.5-.037-.385.021-.395.173-.39.016-.424-.013-.418.109-.41-.013-.419.046-.428.045-.429.406-.431.462-.111.355-.032.408-.071.533.3-.016.423-.06.522.043.413-.079.405-.075.433-.011.453.082.467.143-.386.114-.381.221-.459.129-.293.294-.382.2-.425.182-.333.158-.3.392-.339.178-.362.378-.246.324-.207.286-.26.4-.13.822-.113.472-.052.327.153.363.178.377.264.324.3.164.422.3.338.1.4.143.817-.035.487.042.413-.512.511-.836.206-.506.028-.377-.265,0-.36-.259-.8-.154-.364-.479-.157-.745.039-.2.217-.3.2-.309.294-.134.264-.188.3-.246.313-.4.792-.119.351-.143.386-.157.478-.085.375-.161.449-.051.4-.2.4-.1.468-.085.376-.128.473-.05.4-.016.424-.08.4-.156.479,0,.36-.152.507,0,.332-.006.482-.2.425-.051.4.072.409-.133.444-.473.564-.419.013-.34.12-.438.076-.448.018-.353-.3Z" transform="translate(-1397.25 1043.43)" fill="#e2d9c7"/><path d="M1483.615-1034.319h-.511l-.341-.06-.39.007-.516-.03-.4-.079-.322-.124-.453-.011-.484-.186-.371-.055-.372-.236-.362-.178-.352-.119-.382-.294-.3-.158-.322-.635.178-.362.114-.38.241-.343.138-.415.066-.312.549-.126.372.237.226.261.449.162.338.212.381.113.8.252.458.04.469.1.453.011.326-.027,1.352-.176.364-.153.826-.264.238-.192.46-.291.227-.25.265-.377.333-.328.148-.357.09-.347.191-.454.027-.365.006-.482-.089-.856-.1-.4-.2-.3-.183-.359-.27-.344-.29-.281-.406-.26-.318-.275-.362-.178-.357-.148-.4-.231-.386-.143-.4-.23-.333-.183-.473-.127-.269-.164-.342-.241-.367-.206-.372-.236-.425-.2-.276-.373-.255-.256-.329-.334-.188-.388-.241-.349-.1-.375-.1-.4-.048-.443-.167-.782-.052-.472.075-.434.021-.395.06-.341.08-.4.1-.468.27-.348.079-.4.309-.294.241-.343.241-.343.193-.274.368-.306.339-.3.232-.221.394-.159.436-.256.738-.25.393-.159.344-.091.852-.118.321-.056.506-.028.418-.013.376.085.41.109.4.08.362.177.367.206.337.212.29.28.285.251.352.3.13.4.324.3.042.414.241.349.077.438.065.891.13.4-.443.558-.356.032-.923.222-.321.056-.387-.323-.1-.4-.055-.832-.266-.314-.188-.388-.207-.325-.44-.284-.362-.177-.761-.228-.536.034-.734.1-.481.174-.247.133-.436.257-.3.2-.309.295-.153.327-.318.416-.143.386-.09.346-.114.38-.011.453.108.792.193.417.188.388.177.33.255.256.295.309.377.265.337.212.338.211.444.133.309.217.508.152.24.169.43.226.474.128.332.182.343.241.425.2.25.226.4.231.318.276.295.309.294.309.144.306.246.377.183.359.076.437.241.349.06.862.077.438-.051.4.048.443-.109.41-.021.395-.191.454-.172.391-.133.444-.153.327-.207.367-.153.328-.357.363-.212.338-.261.226-.426.315-.309.294-.319.237-.417.192-.266.2-.417.193-.457.14-.335.148-.4.129-.374.1-.875.153Z" transform="translate(-1419.106 1057.853)" fill="#e2d9c7"/><path d="M1517.8-1029.366l-.4-.05-.394-.021-.4-.05-.453-.011-.38-.113-.362-.178-.343-.24-.328-.154-.372-.235-.294-.309-.382-.294-.149-.335-.359-.329-.125-.369-.2-.295-.276-.373-.135-.427-.008-.39-.183-.359-.182-.871-.013-.418-.008-.389-.037-.385.069-.463.026-.365-.018-.448.167-.42.095-.317.05-.4.167-.42.085-.375.2-.4.114-.382.212-.337.236-.372.148-.357.334-.329.188-.3.349-.242.246-.313.3-.2.339-.3.447-.2.324-.207.282-.109.422-.164.462-.111.764-.1.384-.037h.511l.341.06.346.09.5.123.284.251.371.236.285.251.27.343.178.331.286.431.114.31.142.817-.035.487-.557.427-.345.091-.466.082-.448.018-.43-.225-.1-.735-.236-.319-.143-.306-.425-.2-.269-.163-.492-.065-.7.122-.359.183-.422.164-.232.221-.314.265-.358.363-.251.285-.178.362-.207.366-.09.347-.167.42-.051.4-.177.362.018.448-.109.409,0,.36.023.477.12.34.084.827.159.393.032.355.271.344.193.417.2.266.318.275.4.231.308.216.332.182.41.109.75-.011.851-.119.438-.076.417-.193.292-.051.441-.227.325-.207.3-.173.412-.223.256-.255.746-.551.265-.377.221-.279.183-.332.333-.329.2-.4.158-.3.2-.4.259-.406.2-.4.109-.409.167-.42.2-.425.51-.179.449.162.247.558-.1.439-.153.327-.226.43-.138.415-.129.293-.2.425-.172.391-.178.362-.114.38-.275.319-.183.332-.212.338-.236.372-.217.308-.328.358-.275.318-.439.588-.367.3-.7.483-.272.167-.412.223-.3.173-.423.164-.305.144-.5.057-.393.159-.851.118Z" transform="translate(-1438.886 1050.355)" fill="#e2d9c7"/><path d="M1558.781-1051.8l.233.47-.109.41-.186.483-.183.333-.281.8-.143.385-.167.42-.212.338-.3.353-.144.385-.677.6-.3.323-.354.212-.266.2-.349.242-.4.13-.647.083-.168.42-.069.463.1.4-.085.376.047.443-.056.37-.133.444-.051.4-.149.356-.069.464-.143.385-.056.37-.211.338-.226.431-.187.3-.241.343-.187.3-.26.406-.314.265-.217.309-.309.294-.32.236-.314.265-.33.178-.446.2-.364.154-.369.124-.4.13-.822.114-.438.076-.424-.016-.375-.085-.4-.051-.415-.138-.318-.1-.4-.2-.308-.217-.343-.24-.329-.334-.226-.261-.334-.363-.2-.3-.242-.349-.105-.432-.207-.325-.052-.472-.159-.393-.167-.783-.023-.477-.055-.32.005-.482.1-.439-.071-.408.109-.41,0-.331.186-.484-.037-.384.119-.352.2-.425.167-.42.212-.338.09-.347.2-.425.511-.691.256-.255.516-.661.378-.246.314-.266.383-.217.3-.2.3-.2.441-.227.339-.119.4-.1.783-.167.54,0,.336.031.365.026.4.08.5.123.3.188.391.172.353.3.338.212.27.344.324.3.207.324.193.417.241.349.574.531.875-.153.412-.223.311-.114.281-.289.256-.255.275-.319.236-.371.309-.3.138-.415.153-.326.2-.4.154-.327.075-.434.113-.381.519-.3Zm-9.819,12.808.388-.188.28-.289.407-.252.323-.387.124-.322.241-.343.259-.406.1-.317.26-.406.109-.41-.013-.418.069-.464.056-.371.075-.434-.028-.506-.037-.384-.167-.783-.047-.443-.125-.369-.3-.368-.143-.305-.241-.349-.309-.217-.284-.25-.333-.183-.5-.094-.307-.037-.875.153-.34.12-.436.257-.256.255-.319.237-.251.284-.323.388-.212.337-.236.372-.114.38-.2.425-.177.362.052.472-.167.42,0,.36-.069.463.077.438.018.448.074.769.159.393.164.422.188.388.207.325.314.245.236.32.372.236.386.142.3.159.482.006.807-.2Z" transform="translate(-1456.434 1055.139)" fill="#e2d9c7"/><path d="M1576.23-1041.12l.109-.41-.066-.379.065-.492.05-.4.045-.429.061-.341.016-.424-.013-.419.167-.42.05-.4-.023-.477.061-.342.006-.482.008-.813.114-.38.011-.453.114-.381-.071-.408.056-.371.123-.5-.037-.384.021-.395.172-.391.016-.424-.013-.418.109-.41-.013-.419.046-.429.045-.429.406-.431.462-.111.355-.032.409-.072.533.3-.016.423-.059.521.042.414-.079.4-.075.434-.011.453.082.467.143-.386.114-.381.221-.459.129-.293.294-.381.2-.425.182-.332.158-.3.392-.339.178-.362.378-.246.324-.207.286-.26.4-.129.822-.113.472-.053.327.154.362.178.377.264.323.3.164.422.3.338.1.4.142.817-.035.487.042.413-.513.51-.836.206-.506.028-.377-.265,0-.36-.26-.8-.154-.364-.478-.157-.745.04-.2.216-.3.2-.309.294-.134.264-.188.3-.246.313-.4.792-.119.351-.143.386-.157.478-.085.375-.162.449-.051.4-.2.4-.1.468-.085.376-.128.474-.05.4-.016.424-.08.4-.157.479,0,.36-.152.508,0,.331-.006.482-.2.425-.05.4.071.409-.133.444-.473.564-.419.013-.34.12-.438.076-.448.018-.353-.3Z" transform="translate(-1475.904 1057.167)" fill="#e2d9c7"/><path d="M1614.952-1049.541l-.241.343-.275.318-.3.353-.3.353-.182.333-.25.285-.315.265-.431.286-.232.221-.378.246-.338.3-.456.14-.291.232-.394.158-.4.1-.393.159-.408.071-.88.124-.4.1-.365-.026-.858-.09-.41-.109-.391-.173-.361-.177-.426-.2-.343-.24-.348-.27-.319-.275-.295-.309-.207-.325-.241-.349-.222-.412-.115-.311-.2-.446-.071-.408-.13-.4-.2-.807-.008-.39-.042-.414.016-.424-.042-.413.128-.474.051-.4-.013-.418.09-.347.074-.434.09-.346.157-.479.148-.357.2-.4.12-.351.333-.329.182-.333.236-.372.338-.3.182-.333.32-.236.4-.31.29-.23.359-.183.335-.149.48-.174.335-.149.392-.159.817-.143.389-.008.424.016.352.118.463.07.352.119.372.236.337.212.256.256.289.28.1.4.26.285.1.4.109.793.018.447-.045.429.032.355-.168.42-.182.333-.207.366-.09.347-.368.3-.241.343-.187.3-.309.295-.359.183-.4.28-.232.221-.476.2-.615.439-.423.164-.374.1-.481.174-.306.143-.369.125-.432.106-.345.091-.3.533.154.364.154.364.29.28.265.314.26.286.391.172.386.143.347.09.482.006.336.032.87-.182.282-.109.437-.076.331-.178.339-.12.344-.27.383-.218.359-.183.25-.284.378-.246.251-.285.309-.295.3-.353.2-.245.714-.215.361.177.338.212.062.53Zm-9.181-2.305.427-.134.457-.14.4-.1.436-.257.305-.144.465-.261.359-.183.281-.289.368-.305.251-.284.265-.376.06-.342.216-.489-.007-.389-.138-.788-.295-.309-.231-.291-.376-.085-.469-.1-.729.127-.451.169-.692.512-.222.279-.328.358-.222.28-.225.43-.177.361-.1.439-.265.377-.08.4-.069.463.072.408-.1.439.515.361Z" transform="translate(-1491.093 1059.524)" fill="#e2d9c7"/></g><path d="M1335.454-1002.861l3.378-.63,3.623-.683,3.322-.652,3.647-.516,3.715-.806,3.237-.531,3.765-.782,3.539-.562,3.129-.574,3.765-.783,3.784-.615,3.08-.6,3.819-.76,3.238-.531,7.168-1.246,3.378-.63,3.57-.705,3.132-.577,3.29-.508,3.728-.637,3.931-.715,3.431-.607,2.831-.545,3.984-.693,3.213-.7,3.4-.463,3.462-.751,3.346-.486,3.71-.805,3.9-.568,2.719-.59,3.539-.562,3.518-.729,3.84-.592,3.97-.382,1,.263.723.461.729.15.368.469-2.82,1.023-3.237.531-3.627.684-6.865,1.215-3.836.592-3.027.621-3.837.592-2.971.644-3.237.531-3.728.637-3.329.653-3.984.693-3.13.574-3.483.584-3.378.63-4.033.669-2.943.5-3.216.7-4.138.623-6.7,1.283-3.38.631-3.784.615-3.591.539-3.269.675-3.984.692-3.535.562-3.241.531-3.378.629-3.784.615-3.43.607-3.77.784-3.837.592-2.774.568-4.033.669-3.185.554-4.627.421-.7-.295-.452-.347-.75-.317,2.873-1Z" transform="translate(0 -19.704)" fill="#e2d9c7"/></g></svg>