<svg xmlns="http://www.w3.org/2000/svg" width="30" height="30" viewBox="0 0 30 30"><path d="M243,20a15,15,0,0,0-5.467,28.968,14.373,14.373,0,0,1,.052-4.3c.272-1.17,1.759-7.456,1.759-7.456a5.409,5.409,0,0,1-.449-2.227c0-2.086,1.209-3.643,2.714-3.643a1.885,1.885,0,0,1,1.9,2.113c0,1.287-.819,3.211-1.242,4.994a2.178,2.178,0,0,0,2.221,2.711c2.666,0,4.716-2.812,4.716-6.869a5.922,5.922,0,0,0-6.266-6.1,6.493,6.493,0,0,0-6.773,6.51,5.833,5.833,0,0,0,1.117,3.423.45.45,0,0,1,.1.43c-.113.474-.367,1.492-.416,1.7-.066.275-.218.333-.5.2-1.873-.873-3.045-3.611-3.045-5.812,0-4.732,3.438-9.077,9.911-9.077,5.2,0,9.247,3.708,9.247,8.663,0,5.169-3.26,9.33-7.784,9.33a4.015,4.015,0,0,1-3.438-1.723s-.752,2.864-.935,3.566a16.745,16.745,0,0,1-1.864,3.932A15,15,0,1,0,243,20Z" transform="translate(-228 -20)" fill="#26313e"/></svg>