<svg xmlns="http://www.w3.org/2000/svg" width="30" height="30" viewBox="0 0 30 30"><g transform="translate(-86 -1006)"><circle cx="15" cy="15" r="15" transform="translate(86 1006)" fill="#26313e"/><path d="M43.446,15.95A9.944,9.944,0,0,0,53.479,5.918V5.44A7.767,7.767,0,0,0,55.2,3.624a7.932,7.932,0,0,1-2.007.573,3.718,3.718,0,0,0,1.529-1.911,8.764,8.764,0,0,1-2.2.86A3.412,3.412,0,0,0,49.944,2a3.59,3.59,0,0,0-3.535,3.535,1.863,1.863,0,0,0,.1.764,9.879,9.879,0,0,1-7.262-3.726,3.659,3.659,0,0,0-.478,1.815A3.8,3.8,0,0,0,40.3,7.35a3.221,3.221,0,0,1-1.624-.478h0a3.492,3.492,0,0,0,2.867,3.44,2.946,2.946,0,0,1-.956.1,1.626,1.626,0,0,1-.669-.1A3.62,3.62,0,0,0,43.255,12.8a7.214,7.214,0,0,1-4.4,1.529,2.645,2.645,0,0,1-.86-.1,9.019,9.019,0,0,0,5.446,1.72" transform="translate(54.521 1011.8)" fill="#e2d9c7" fill-rule="evenodd"/></g></svg>