<svg xmlns="http://www.w3.org/2000/svg" width="41.016" height="41.016" viewBox="0 0 41.016 41.016"><g transform="translate(-6135.094 -28.444)"><g transform="translate(6148.936 28.444)"><path d="M6161.684,41.777V33.819l-3.277,3.277-1.985-1.985,6.667-6.666,6.666,6.666-1.985,1.985-3.276-3.277v7.958Z" transform="translate(-6156.421 -28.444)" fill="#e2d9c7"/><path d="M6164.492,71.1v7.958l3.276-3.277,1.985,1.985-6.666,6.666-6.667-6.666,1.985-1.985,3.277,3.277V71.1Z" transform="translate(-6156.421 -43.414)" fill="#e2d9c7"/></g><path d="M6148.427,57.841h-7.958l3.277,3.277L6141.76,63.1l-6.666-6.666,6.666-6.666,1.985,1.985-3.277,3.277h7.958Z" transform="translate(0 -7.485)" fill="#e2d9c7"/><path d="M6177.748,55.033h7.958l-3.276-3.277,1.985-1.985,6.666,6.666-6.666,6.666-1.985-1.985,3.276-3.277h-7.958Z" transform="translate(-14.97 -7.485)" fill="#e2d9c7"/></g></svg>