<svg xmlns="http://www.w3.org/2000/svg" width="16.993" height="19.944" viewBox="0 0 16.993 19.944"><g transform="translate(-1647.253 809.41)"><g transform="translate(1647.253 -809.41)"><path d="M1652.765-789.518l-.258-.28-.169-.118-.6-.557-.194-.22-1.752-1.63-.408-.419-.339-.236-.3-.319-.4-.336-.41-.5-.238-.3-.406-.378-.032-.308.232-.422.256-.36.1-.148.139-.15.075-.209.588-.848.1-.231.161-.13.1-.189.277-.341.188.055.556.517.45.459,1.111,1.034.212.158.214.2.206-.008.2-.213.156-.254.2-.255.1-.189.1-.148.118-.169.2-.214.136-.232.238-.3.173-.358.257-.319.116-.211.139-.15.232-.422.118-.169.138-.191.214-.359.277-.341.232-.422.118-.169.234-.38.1-.19.278-.3.1-.19.353-.509.159-.171.1-.189.18-.152.054-.229.195-.337.214-.359.1-.189.118-.17.116-.211.2-.131.053-.229.235-.339.193-.379.159-.171L1659-806l.525-.907.156-.254.175-.275.354-.509.077-.168.139-.15.348-.633.139-.15.118-.169.3-.2.448.376.833.775.811.714.513.478.3.361-.055.188-.291.527-.077.168-.139.15-.217.277-.153.336-.254.4-.3.362-.053.229-.119.128-.118.169-.139.15-.033.208-.176.275-.237.3-.116.211-.182.11-.116.211-.192.379-.1.23-.181.151-.353.509-.2.3-.139.15-.152.377-.278.3-.138.191-.152.378-.2.3-.216.318-.428.718-.1.107-.193.379-.511.721-.171.4-.139.15-.192.379-.119.128-.118.169-.1.148-.279.3-.076.168-.236.339-.1.148-.119.128-.075.209-.195.338-.14.108-.075.209-.077.168-.171.4-.238.256-.136.232-.216.318-.1.148-.139.15-.173.357-.3.321-.173.357-.1.148-.118.17-.135.274-.113.293-.1.148-.141.108-.16.13-.2.048Z" transform="translate(-1647.253 809.41)" fill="#edcb7e"/></g></g></svg>