<svg xmlns="http://www.w3.org/2000/svg" width="183.974" height="72.255" viewBox="0 0 183.974 72.255"><g transform="translate(-1066.134 -1248.133)"><path d="M1070.254,1323.712l-.069-.672-.085-.766,0-.585-.115-.664-.029-.727-.164-.656-.164-.656-.069-.672.035-.641-.172-.7-.076-.718-.211-.647-.06-.625,0-1.416-.146-.561-.3-1.414.026-.689-.052-.577-.069-.672-.322-.726-.021-.68-.012-.632-.109-.616-.03-.728-.258-.639-.021-.68-.013-.632-.021-.68-.258-.639.074-.7-.267-.686.036-.641-.078-.719-.137-1.343-.279-1.32-.155-.608-.029-.726-.03-.728-.2-.6-.069-.673-.125-.711.026-.688-.1-.569.54-.826.758-.133.465-.13.673-.069.853-.149.779.548-.026.689.124.71.013.633.132.758.108.616.211.647-.122.7.108.616.258.639-.113.752.266.687.06.625.124.711.115.663.061.625.061.624.085.766.116.664-.043.593.258.639.106,1.447.013.632.172.7-.043.593.133.759.107.616.124.711.154.608-.065.744.242.545-.074.7.172.7.021.68.108.616.21.647.085.767.155.607-.027.688.267.687.335-.6.28-.636.353-1.331.289-.588.383-.6.37-1.238.374-.651.216-.721.241-.579.271-.682.483-1.159.12-.705.344-.548.186-.618.319-.691.224-.674.193-.571.3-.54.168-.713.184-.618.28-.635.185-.619.3-.54.311-.738.185-.618.1-.554.289-.588.232-.627.375-.652.177-.666.32-.691.153-.515.375-.652.09-.6.28-.635.177-.665.375-.652.9-.694,1.358-.336.748.652.3.582.124.711.3.583.076.72.3.583.2.6.258.639-.01.783.548,1.174.085.767.194.552.305.63.077.72.258.638.155.608.21.647.181.75.194.552.227.741.052.577.361.67.171.7.211.647.155.608.25.592.211.647.037.775.147.56.211.647.409.661.163.655.107.616.305.63.272-.682.24-.579.216-.721.091-.6.121-.705.129-.658.37-1.236.169-.713.224-.673.177-.666.241-.58.224-.674-.013-.633.318-.691.168-.713,0-.537.255-.777.267-1.268.186-.618.216-.722.28-.635.353-1.331.082-.649.034-.64.28-.636.185-.618.263-.731.22-1.259.241-.579.121-.705.272-.682.128-.658.194-.571.065-.744.272-.683.193-.57-.061-.624.328-.643.168-.714.129-.658.935-.8,2.037-.356.768-.085.534.542-.328.643-.034.641-.17.713-.318.691,0,.586-.327.643-.121.7-.091.6-.224.674-.193.571-.073.7-.232.627-.177.665-.082.65-.281.635-.206.769-.13.658-.241.579.021.68-.177.666-.233.626-.129.658-.233.626-.263.73-.137.61-.09.6-.263.73-.1.554-.137.61-.311.737.014.633-.375.652-.026.688-.224.674-.1.555-.271.682-.082.649-.138.61-.121.7-.335.6-.208.768-.185.619-.035.641-.09.6-.375.651-.113.752-.051.546-.185.619-.208.768-.09.6-.288.587-.066.744-.382.6-.786.821-1.327.232-.655.164-.664.116-.577.052-1.025-.555-.146-.56-.219-.694-.258-.639-.069-.671-.249-.592-.116-.664-.219-.694-.163-.655-.258-.639-.2-.6-.155-.607-.125-.711-.344-.575-.108-.616-.171-.7-.163-.656-.585-1.948-.352-.623.026-.688-.289-.535-.155-.608-.163-.655-.361-.67-.107-.616-.163-.655-.172-.7-.163-.655-.3-.583-.061-.624-.5-.645-.263.73-.383.6-.06.5-.263.729-.422.66-.241.58-.138.61-.224.674-.177.666-.39.556-.1.556-.319.691-.607,1.277-.131.658-.288.588-.177.666-.185.619-.344.549-.264.728-.241.58-.232.626-.28.636-.186.618-.137.61-.383.6-.129.657-.319.691-.344.549-.091.6-.551,1.317-.28.635-.193.571-.327.644-.28.634-.232.627-.682.851-.616.108-.688-.027-.6.2-.71.124-.633.012-.551.2-.78-.548Z" transform="translate(0 -11.468)" fill="#e2d9c7"/><path d="M1132.009,1322.5l-.783-.009-.546-.052-.744-.065-.571-.194-.674-.224-.816-.2-.557-.39-.549-.344-.509-.4-.487-.55-.47-.455-.344-.575-.4-.614-.305-.63-.328-.48-.267-.686-.219-.694-.2-.6-.154-1.438-.021-.681-.146-.561.056-.79-.146-.562.065-.744.091-.6.065-.744.327-.643.082-.65.193-.571.177-.666.272-.682.327-.643.257-.484.272-.683.542-.533.249-.532.455-.471.486-.574.425-.366.7-.465.519-.384.622-.353.536-.289.647-.21.583-.3,2.029-.4.529-.043.737.019.515.154.807.152.469.161.66.423.485.257.517.446.431.511.305.631.345.575.052.577.271,1.272.038.775.107.616-.185.618-.193.572-.177.665-.344.548-.288.588-.487.573-.511.432-.751,1.011-.583.3-.606.446-.511.432-.63.3-.48.329-.575.344-.789.235-.5.186-.828.291-.442.273-.616.107-.725.322-.664.115-.366.7.172.7.289.536.431.51.533.542.416.417.6.335.571.193.713.168.68-.021.735.018,1.138-.2.695-.219.5-.233.638-.258.687-.267.4-.216.7-.465.529-.336.605-.448.424-.367.494-.525.52-.384.335-.6.446-.518.495-.526.43-.612.146-.563.462-.715.2-.524.288-.588.3-.785.24-.579.414-.707.828-.291.683.271.324,1.019-.232.626-.185.618-.186.62-.154.515-.358.746-.335.6-.344.549-.272.683-.249.531-.375.652-.4.509-.3.541-.3.54-.431.612-.417.414-.948,1-.55.486-.417.416-.471.375-.747.473-.535.289-.481.328-.527.336-.655.163-.583.3-.742.228-.75.18-1.335.183Zm-3.729-10.728.591-.25.694-.22.75-.179.574-.345.583-.3.772-.329.472-.375.589-.543.519-.383.3-.493.423-.66.279-.635.185-.619.074-.7-.271-1.271-.241-.544-.462-.407-.636-.28-.641-.035-1.335.184-.733.275-.472.376-.708.416-.313.447-.525.628-.495.525-.145.564-.383.6-.311.738-.223.674-.035.641-.082.649-.057.792-.186.618.749.651Z" transform="translate(-17.73 -15.995)" fill="#e2d9c7"/><path d="M1157.605,1312.34l-.7-.074-.7-.074-.548-.344-.509-.4-.621-.478-.423-.463-.274-.734-.447-.6-.052-.577-.263-1.224-.25-.59.13-.658-.052-.577,0-.585-.146-.561.137-.609.074-.7-.155-.607.081-.65.082-.65-.084-.766.1-.555.168-.713.065-.744-.021-.68.168-.713.043-.593-.03-.727.121-.705.122-.705-.069-.671.255-.777-.012-.632.074-.7.184-.618.01-.783-.012-.632.207-.769.082-.649.152-.808-.012-.633-.03-.727.137-.611.1-.8.026-.689.168-.713.186-.619-.038-.775.216-.721.043-.594.073-.7.1-.8-.013-.632.177-.666.681-.852.743-.227.585,0,.8-.189.513-.138.56.684-.083.65-.034.64-.137.611-.027.688-.073.7,0,.585-.018.735-.137.61-.168.713.06.625-.263.73.125.711-.232.627-.027.689.014.632-.138.61-.169.714.06.624-.082.649-.247.825.091.52-.153.808-.129.658.1.569-.263.729-.091.6.077.72-.138.61-.065.744-.13.658-.017.736.06.625-.074.7-.224.674,0,.585-.01.783-.082.65,0,.584-.122.706.085.766.115.664.014.633-.122.7.452,1.19.275.734.439.558.674.224,1.382-.192.4-.217.544-.243.559-.438.558-.441.288-.588.361-.454.383-.6.4-.509.423-.66.28-.634.343-.548.091-.6.375-.651.344-.549.159-.76.193-.572.233-.626.185-.618.971-.316.587.288.609.969-.366.7-.13.658-.28.636-.288.587-.137.61-.327.644-.232.626-.28.635-.232.627-.241.58-.344.548-.375.652-.162.468-.423.66-.3.493-.344.549-.486.573-.446.517-.928.845-.717.37-.424.368-.733.274-.552.194-1.335.185Z" transform="translate(-27.088 -8.764)" fill="#e2d9c7"/><path d="M1181.5,1313.937l-.649-.082-.641-.034-.649-.083-.735-.018-.619-.185-.587-.289-.557-.39-.532-.25-.6-.383-.478-.5-.621-.479-.241-.544-.582-.533-.2-.6-.328-.479-.447-.606-.219-.694-.014-.633-.3-.582-.3-1.414-.021-.68-.013-.633-.06-.624.113-.753.043-.593-.03-.728.271-.683.154-.515.082-.649.272-.682.137-.61.326-.643.186-.619.344-.548.383-.6.24-.58.542-.534.305-.493.566-.392.4-.509.48-.329.55-.486.726-.323.526-.336.458-.177.686-.267.75-.179,1.24-.168.624-.06h.831l.555.1.563.146.816.2.462.409.6.383.463.407.439.557.289.537.464.7.186.5.232,1.327-.057.792-.9.695-.56.147-.759.132-.727.029-.7-.365-.16-1.194-.384-.519-.234-.5-.689-.318-.438-.266-.8-.1-1.138.2-.583.3-.686.266-.377.359-.511.431-.581.59-.407.462-.289.588-.335.6-.146.563-.271.682-.083.649-.288.587.03.729-.177.665,0,.585.037.775.194.552.137,1.344.258.638.052.577.439.559.314.678.319.432.518.447.652.375.5.352.54.3.666.177,1.218-.017,1.383-.192.711-.124.679-.314.473-.083.718-.369.527-.336.489-.281.669-.361.416-.414,1.211-.895.43-.614.361-.453.3-.54.542-.534.328-.644.257-.484.328-.643.421-.661.327-.643.177-.665.271-.683.319-.691.828-.291.729.264.4.906-.169.713-.249.532-.366.7-.225.673-.21.476-.319.691-.279.636-.289.588-.185.618-.447.518-.3.54-.344.548-.383.6-.353.5-.533.582-.447.518-.713.955-.6.494-1.133.785-.441.271-.669.361-.489.281-.686.266-.5.233-.813.093-.639.258-1.383.193Z" transform="translate(-33.143 -13.332)" fill="#e2d9c7"/><path d="M1229.085,1282.669l.378.764-.177.666-.3.785-.3.541-.456,1.3-.233.626-.272.683-.344.548-.486.574-.232.626-1.1.974-.495.526-.575.344-.432.32-.566.392-.647.211-1.051.135-.271.682-.113.752.164.656-.138.61.077.719-.091.6-.216.722-.082.65-.241.579-.113.753-.232.626-.091.6-.344.548-.366.7-.3.493-.392.556-.305.493-.421.66-.511.43-.353.5-.5.478-.519.384-.511.431-.536.289-.725.322-.592.25-.6.2-.647.211-1.336.184-.71.124-.689-.026-.61-.137-.649-.083-.674-.224-.516-.154-.643-.327-.5-.353-.557-.391-.534-.542-.367-.425-.542-.59-.328-.48-.392-.566-.171-.7-.337-.527-.085-.767-.258-.639-.27-1.271-.038-.775-.091-.52.01-.783.168-.713-.115-.664.177-.666,0-.538.3-.785-.06-.625.194-.571.319-.691.271-.682.344-.548.146-.562.318-.691.83-1.122.416-.415.839-1.075.614-.4.511-.432.622-.352.48-.329.481-.327.716-.37.552-.194.656-.163,1.271-.271.878-.006.546.051.593.042.658.13.816.2.494.306.635.279.573.487.548.344.44.559.526.494.336.526.314.678.392.566.933.863,1.421-.249.67-.362.5-.185.455-.471.416-.414.447-.518.384-.6.5-.48.224-.674.25-.531.327-.643.25-.532.12-.7.186-.618.843-.489Zm-15.952,20.808.63-.306.456-.47.661-.408.525-.63.2-.523.39-.557.422-.66.155-.515.422-.659.177-.665-.021-.68.113-.752.091-.6.12-.706-.046-.821-.06-.625-.271-1.271-.076-.719-.2-.6-.5-.6-.233-.5-.392-.566-.5-.353-.463-.408-.539-.3-.808-.153-.5-.06-1.422.249-.552.195-.709.417-.415.414-.52.384-.407.461-.526.63-.344.548-.383.6-.185.619-.319.69-.288.589.085.766-.271.683,0,.585-.114.753.125.711.029.727.121,1.249.258.638.266.687.306.63.335.527.51.4.383.52.6.384.627.232.484.258.784.009,1.31-.326Z" transform="translate(-42.655 -10.738)" fill="#e2d9c7"/><path d="M1264.406,1298.016l-.792-.058-.587-.288-.651-.375-.32-.433-.479-.5-.408-.661-.313-.678-.185-1.335.138-.612-.132-.757.026-.689.185-.619-.013-.632.177-.665.018-.737.137-.609.272-.683.034-.641.224-.674.177-.665,0-.586.168-.713.168-.713,0-.585-.124-.711-.121-1.248-.361-.67-.651-.375-.619-.185-1.3.129-.5.233-.424.368-.887.79-.305.491-.344.548-.344.549-.288.588-.288.588-.289.588-.405.754-.137.611-.3.54-.255.778-.224.673-.042.594-.272.682-.224.673-.035.642-.215.722-.161.761-.345,1.379-.146.562-.009.784-.217.722-.129.657,0,.586-.295.832.116.664-.168.713-.857.686-1.4.391-.616.108-.719.077-.551-.637-.043-.529.113-.753-.013-.632.1-.554.082-.65.066-.743.12-.705.233-.627.091-.6-.013-.633.027-.689.065-.744.146-.563-.021-.68.16-.76.177-.666-.092-.522.208-.769-.163-.656.12-.7.091-.6-.022-.681-.241-.544-.223-1.279-.258-.639-.375-.471-.619-.186-1.162.056-.592.25-.243.287-.6.494-.265.438-.5.478-.232.627-.391.557-.09.6-.383.6-.391.557-.027.688-.327.643-.137.61-.233.627-.28.635-.216.721-.168.714-.073.7-.13.658-.082.649-.335.6.076.719-.177.665-.113.753-.28.636-.13.657-.082.649-.065.744-.113.752-.1.555-.073.7-.817.924-.624.061-1.232.216-.728.029-.612-.429.082-.65-.021-.68.271-.682-.116-.663.074-.7.16-.76.25-1.364.091-.6-.013-.632.034-.641.066-.744.09-.6.073-.7.251-1.362.074-.7-.069-.672.138-.61.151-.808.035-.641.082-.65.043-.594.151-.808.146-.563-.037-.775,0-.585.208-.769.034-.64.091-.6.129-.658.625-.891,1.486-.162.7-.172.448.606.021.68-.035.641-.09.6.171.7-.223.674-.027.688.1.57-.177.666.021.68.224-.674.272-.683.344-.548.224-.675.193-.57.375-.651.43-.614.289-.586.353-.5.485-.574.542-.534.313-.445.7-.465.544-.242,1.158-.641,1.3-.129.735.018.571.193.636.28.564.438.384.52.478.5.25.591.25.591.193,1.384-.027.688.03.728-.122.7.013.634.241-.58.366-.7.194-.571.271-.683.137-.609.194-.572.524-.629.3-.54.162-.467.517-.677.353-.5.51-.432.4-.509.5-.478.432-.32.709-.417.48-.327.686-.267,1.384-.193.506.107.822-.046.468.163.786.3.4.322.612.43.431.511.313.678.384.518.124.711.318,1.264.021.68.021.68-.121.7-.073.7-.082.649.077.719-.328.643.061.624-.177.667-.216.721-.122.7-.082.649-.129.658-.28.635-.027.689-.026.688-.082.649.335,1.359.621.478,1.265-.026.567-.392.48-.328.52-.383.351-.5.328-.644.408-.461.392-.557.327-.643.24-.579.336-.6.327-.643.168-.713.25-.533.414-.707.146-.563.366-.7.177-.665,1.065-.333.579.241.506.938-.263.73-.25.531-.31.739-.3.54-.366.7-.1.555-.327.643-.383.605-.073.7-.392.556-.374.653-.335.6-.28.635-.335.6-.439.565-.383.6-.5.479-.312.445-.439.566-.622.353-.519.383-.677.313-.575.344-1.392.146Z" transform="translate(-52.997 -8.614)" fill="#e2d9c7"/><path d="M1309.713,1286.391l-.391.557-.447.517-.486.574-.486.573-.3.54-.408.463-.511.43-.7.465-.377.358-.614.4-.55.487-.742.227-.472.376-.638.258-.656.163-.639.258-.664.116-1.43.2-.655.164-.593-.043-1.394-.147-.666-.177-.635-.28-.588-.288-.691-.32-.556-.39-.566-.439-.517-.447-.479-.5-.336-.528-.392-.566-.361-.669-.186-.5-.322-.726-.116-.663-.211-.647-.326-1.311-.013-.632-.067-.673.026-.689-.069-.671.208-.769.082-.649-.021-.68.146-.563.121-.705.146-.562.255-.777.241-.579.328-.643.193-.571.542-.535.3-.54.382-.6.551-.487.3-.541.52-.383.644-.5.472-.375.583-.3.544-.242.781-.282.543-.242.639-.258,1.326-.232.633-.012.689.026.57.192.753.113.571.194.6.383.548.344.414.416.471.456.163.655.423.464.163.655.177,1.288.029.727-.073.7.052.577-.271.682-.3.541-.335.6-.146.563-.6.495-.392.557-.3.493-.5.479-.583.3-.653.455-.377.359-.773.33-1,.712-.687.266-.608.155-.781.282-.5.234-.6.2-.7.172-.56.147-.484.867.249.59.25.591.471.456.431.511.423.463.636.28.626.232.563.147.783.009.547.052,1.413-.3.457-.178.711-.124.536-.29.552-.194.558-.439.622-.353.583-.3.407-.462.614-.4.408-.462.5-.478.487-.573.32-.4,1.16-.349.588.288.549.344.1.86Zm-14.916-3.745.695-.218.742-.228.655-.163.709-.418.5-.234.755-.424.583-.3.456-.469.6-.5.407-.462.431-.612.1-.555.349-.793-.012-.633-.223-1.28-.479-.5-.375-.471-.61-.139-.761-.16-1.184.207-.734.274-1.124.832-.361.454-.533.582-.361.454-.366.7-.289.587-.168.714-.431.612-.129.657-.112.753.115.663-.169.713.835.586Z" transform="translate(-69.853 -6.893)" fill="#e2d9c7"/><path d="M1322.857,1282.19l-.06-.624.1-.8.052-.546.263-.729.721-.908.577-.052.719-.077,1.28-.223.656-.164.637.572-.074.7-.215.722-.074.7-.082.65.06.624-.753.717-.647.212-.711.124-.75.179-.529.045-.728.029-.612-.43Zm1.372-9.764.034-.641.027-.688-.012-.632.271-.683-.124-.711.137-.61-.076-.719.177-.666.043-.593-.076-.719.168-.713,0-.586-.03-.727.138-.61.2-1.355.034-.641-.021-.68.043-.594.185-.618.121-.7.066-.745.082-.65,0-.538.113-.753-.107-.615.279-.635-.115-.663.232-.627-.124-.711.263-.731-.091-.52.177-.666-.069-.672.216-.722.556-.732.655-.163.862-.1.418-.122.775-.038.685.564-.138.61-.026.689-.164,1.3-.216.721.052.578-.216.721.1.569-.137.61-.121.7.012.634-.112.753-.043.593-.129.657-.035.641-.16.76-.1.555.108.616-.256.777-.022,1.274-.034.641-.168.713-.224.674.061.624-.114.753-.177.664-.137.611-.035.641-.168.713-.082.649.077.72-.216.721.043.529-.16.761-.09.6-.682.852-.616.107-.625.06-.663.115-.637-.573Z" transform="translate(-80.233)" fill="#e2d9c7"/><path d="M1079.241,1334.911l4.48-.776,4.805-.845,4.409-.823,4.824-.533,4.936-1.063,4.288-.608,5-1.013,4.686-.63,4.149-.7,5-1.014,5.011-.7,4.087-.754,5.069-.966,4.289-.607,9.5-1.477,4.48-.776,4.739-.893,4.154-.705,4.355-.56,4.94-.747,5.213-.869,4.547-.726,3.757-.683,5.28-.821,4.27-.92,4.493-.463,4.6-.99,4.427-.511,4.93-1.062,5.155-.6,3.613-.779,4.686-.629,4.672-.944,5.083-.651,5.236-.243,1.287.608.909.944.943.366.443.916-3.782,1.574-4.288.607-4.811.847-9.1,1.454-5.078.651-4.02.8-5.079.651-3.948.85-4.288.608-4.94.748-4.418.825-5.28.822-4.15.7-4.614.678-4.48.775-5.342.771-3.9.587-4.274.92-5.476.673-8.893,1.6-4.484.777-5.011.7-4.752.581-4.341.873-5.28.82-4.681.63-4.293.608-4.48.775-5.011.7-4.547.726-5.007,1.016-5.079.651-3.684.731-5.342.771-4.221.656-6.1.239-.889-.631-.564-.7-.957-.679,3.849-1.524Z" transform="translate(-1.553 -18.667)" fill="#e2d9c7"/></g></svg>