<svg xmlns="http://www.w3.org/2000/svg" width="237.399" height="73.952" viewBox="0 0 237.399 73.952"><g transform="translate(-1919.597 305.7)"><path d="M1947.8-278.207l.444-.027.784-.087.525-.142.449.57.078.737-.23.689-.026.7-.044.607-.124.721.079.735-.189.633-.181.681.078.736-.189.631-.018.752-.181.681-.141.624-.067.761-.123.721.044.541-.22.738.06.638-.057.809-.084.664-.172.73-.182.68.014.647-.027.7-.044.607-.261.795-.1.567-.017.752-.19.632-.067.761.021.7-.027.705-.189.631.022.7-.123.721-.124.72.013.647-.294.6-.077.713.031.743.013.648-.125.72-.034.655-.221.738-.124.72-.092.616-.068.762.045.541-.066.76-.093.616-.785.936-2.666.465-.558-.051-.481-.467-.021-.7.083-.664.107-.818.2-.583.124-.721.067-.761.043-.607.028-.7.257-1.393.123-.721.027-.7-.071-.686.238-.642-.079-.735.295-.6-.029-.744.14-.624.107-.817-.062-.639.286-.649-.6-.593-.89.055-.517.19-.775.135-.638.062-.735.078-1.309.228-.564.2-.793.037-.719.176-.523.142-2.035.355-.688.07-.832.1-1.292.326-.735.078-.812.791.119.678-.172.73-.027.7-.188.633.029.744-.132.672-.084.664-.212.785-.093.616.079.736-.035.656-.2,1.432-.084.664-.228.69-.036.655-.019.752-.149.575-.156.826-.091.616-.027.7-.609.8-.823.144-.477.134-.7-.026-.63.11-.613.206-.5-.563.18-.679.028-.706.115-.767-.07-.688.2-.585-.039-.792.044-.606.084-.664.084-.664.163-.777.084-.664.084-.664.027-.705.286-.648-.118-.678.269-.746-.022-.7.181-.682.075-.711.124-.721.075-.712-.093-.533.212-.786.076-.713.027-.7.093-.615-.023-.7.23-.689.091-.616-.029-.744.221-.737.026-.705.133-.672,0-.6.067-.761.084-.664.171-.729,0-.6.229-.688-.013-.647.212-.787-.013-.647.035-.655.221-.738-.079-.735.084-.664.044-.607.133-.673.074-.711.222-.738.7-.872.679-.118.55.005.719-.176.484-.085.735-.078.449.571-.043.606.039.792-.141.625-.084.664-.212.785-.036.655-.083.665.013.647-.221.737.061.639-.277.7.118.677-.084.665-.237.641-.019.752.013.647-.124.72-.149.576-.163.777.069.687-.092.617.546.553.573-.15.678-.119.745-.03.815-.191.63-.111.736-.079.467-.181.744-.03.718-.175.638-.062,1.406-.246.718-.175.631-.109.718-.176.551,0,.814-.191,1.212-.212.868-.751.067-.761.189-.633.075-.711-.11-.63.085-.665.163-.777.246-.593.058-.809.044-.606,0-.6.2-.835-.1-.581.22-.737.045-.607.212-.787-.005-.6.018-.753.044-.606.221-.738.084-.664.084-.664.6-.854Z" fill="#954845"/><path d="M1978.195-270.331l.386.782-.181.681-.308.8-.3.553-.467,1.329-.237.641-.278.7-.352.562-.5.586-.238.64-1.125.995-.505.54-.587.352-.443.326-.58.4-.661.215-1.074.138-.278.7-.115.77.167.67-.141.623.078.736-.092.616-.22.737-.084.665-.247.591-.115.769-.238.641-.092.616-.351.561-.375.714-.312.5-.4.57-.312.5-.431.674-.523.441-.36.512-.514.489-.53.392-.523.441-.548.295-.741.33-.6.255-.614.207-.662.216-1.365.187-.726.127-.705-.026-.624-.142-.663-.083-.689-.229-.527-.158-.658-.334-.512-.361-.569-.4-.547-.555-.376-.434-.553-.6-.336-.49-.4-.58-.174-.718-.345-.539-.087-.784-.264-.654-.277-1.3-.038-.793-.093-.532.009-.8.173-.729-.118-.678.18-.682,0-.548.31-.8-.063-.639.2-.584.327-.706.277-.7.351-.561.15-.576.326-.705.849-1.148.425-.423.857-1.1.627-.41.523-.44.636-.361.49-.335.492-.335.732-.379.565-.2.67-.166,1.3-.278.9-.007.558.053.608.044.671.132.834.2.505.311.649.286.587.5.56.351.449.57.539.506.342.539.322.693.4.58.952.881,1.454-.254.685-.368.516-.19.465-.481.425-.424.458-.529.391-.618.514-.489.229-.689.255-.544.334-.658.256-.544.123-.72.189-.633.861-.5Zm-16.309,21.277.644-.313.465-.481.677-.417.536-.643.206-.536.4-.569.433-.674.157-.528.432-.675.181-.679-.022-.7.115-.769.092-.616.125-.721-.047-.841-.062-.638-.277-1.3-.079-.735-.206-.614-.507-.609-.238-.508-.4-.579-.513-.361-.473-.417-.551-.3-.827-.155-.51-.061-1.453.254-.565.2-.724.426-.426.425-.531.392-.416.472-.538.643-.351.56-.392.618-.189.633-.325.706-.295.6.087.784-.279.7.005.6-.115.769.127.727.03.743.123,1.278.264.653.272.7.312.645.345.539.52.408.393.531.617.392.64.237.5.264.8.01,1.34-.334Z" fill="#954845"/><path d="M1981.754-248.528l-.777-.166-.5-.262-.633-.488-.522-.41-.378-.732-.206-.613-.365-1.234-.11-.631-.136-.775-.053-.591.019-.751-.071-.687-.012-.647-.233-.758.075-.714-.167-.669-.061-.638-.087-.784.075-.713.028-.7-.167-.67-.12-.679-.021-.7-.03-.743.044-.606-.224-.711.076-.713-.071-.686-.078-.736.018-.752-.069-.687.034-.655.561-.8.59-.054,1.243-.316.726-.127.709.625.11.63-.107.818.062.638.15.574-.018.752.029.744-.043.607.109.63.031.744.158.622-.181.68.07.686.136.776.118.679-.052.558.184.767-.124.721.118.679-.044.606.072.686.173.719.072.686.157.623.11.63.254,1.453,1.092-.04.4-.27.328-.408.361-.512.3-.551.335-.658.083-.665.189-.632.432-.674.18-.681.19-.633.212-.786.141-.624.318-.754-.005-.6.164-.778.237-.641.3-.852.246-.592.106-.817.24-.641-.063-.639.358-.811.076-.713.228-.689.093-.614.931-.962.484-.085,1.374-.14.63-.11.573-.151.748.569.127.727.111.631-.028.7.1.582.03.743.176.719.206.613.07.686.118.679.023.7.1.582.127.727-.027.7.19.516.167.67.086.784.111.63-.075.711.207.614-.019.752.383,1.331,1.31.072.192-.334.513-.49.352-.559.149-.575.343-.611.075-.712.3-.6.221-.737.286-.65.076-.713.278-.7.075-.712.221-.738.084-.663.286-.65.083-.665.076-.712.132-.672.173-.729.212-.786.051-.558.2-.835.133-.673.237-.64-.069-.687.123-.721.286-.648.011-.8.189-.632.9-.856.59-.054.775-.136.612-.205.648-.015.6.547-.044.607-.269.745.062.638-.367.764-.043.608-.027.7-.327.707-.149.574-.132.673-.075.712-.093.616-.132.672-.277.7-.164.778-.1.567-.084.664-.067.761-.391.618-.019.751-.084.665-.278.7-.188.633-.19.632-.124.72-.286.649-.294.6-.093.616-.423.722-.189.633-.246.592-.432.676-.311.5-.392.618-.5.586-.378.415-.627.41-.628.409-.622.158-1.267.172-.7.022-.672-.134-.552-.3-.626-.44-.4-.579-.44-.521-.361-.637-.189-1.366-.078-.736-.11-.63-.039-.792-.079-.735-.118-.678-.215-.663.058-.809-.215-.66-.062-.639-.046-.841.035-.655-.185-.767-.174-.719-.374.715-.02.752-.246.592-.132.673-.237.64.078.736-.3.553-.076.711-.392.619.014.646-.317.755-.286.65-.239.64-.157.527-.133.672-.4.57-.325.705-.206.536-.432.676-.166.477-.353.561-.487.634-.611.507-.328.408-.7.271-.645.312-1.194.309Z" fill="#954845"/><path d="M2041.51-293.272l-.163.778.1.581-.075.712-.965.768-.581.1-.6.005-.759.232-.727.127-.695.022-1.212.212-.612.207-.737.078-.775.135-.523.142-.679.118-.833.095-.754.832.014.648-.257,1.392.07.687-.2.584.012.647-.066.76-.044.606-.269.747-.036.655-.115.77.045.542-.027.7-.27.747-.084.663.071.687-.247.593-.035.655-.018.752-.035.656-.093.614-.075.714-.278.7.118.678-.084.664-.179.681-.02.752-.083.664-.149.575-.116.769.021.7-.245.592-.019.752-.132.673.013.647-.132.672-.027.7-.181.681.062.637-.361,1.363-.084.663.109.63-.115.77-.181.68-.876.7-.6.255-.753-.018-.678.119-.8.288-.619-.691.035-.655.229-.689-.022-.7.23-.69,0-.549.067-.761.075-.713.036-.655.092-.615.237-.641-.069-.686.075-.714.141-.623.11-1.368.23-.689-.03-.745.238-.64-.022-.7.172-.73-.061-.638.091-.615.117-.769.2-.584.067-.761.084-.664-.062-.638.133-.673.14-.624.075-.712.133-.672-.03-.744.237-.641-.021-.7.076-.711.092-.616.035-.656.237-.64-.038-.792.052-.559.019-.753.2-.583.164-.778.092-.615.067-.761-.635-.488-.63.11-.784.086-.541.046-.679.118-.67.167-.784.087-.573.149-1.453.254-.542.046-.824.144-.564.2-.727.127-.393-.531-.07-.687.221-.738.052-.558.027-.7.722-.725.63-.11.719-.176.679-.119.621-.158.889-.055.614-.208.541-.044.766-.184.793-.038.678-.118.524-.142.671-.168.743-.029.719-.176.525-.142.695-.021.671-.167.775-.135.687-.07.766-.184.525-.142.7-.021.816-.192.493-.036,1.5-.263.661-.216.638-.061.767-.184.493-.036.767-.184.7-.021.565-.2.744-.03.481.466Z" fill="#954845"/><path d="M2042.592-259.054l-.761-.067-.646.014-.624-.141-.632-.189-.706-.327-.642-.237-.48-.465-.424-.426-.617-.391-.433-.474-.409-.628-.393-.532-.409-.626-.312-.645-.062-.639-.256-.6-.3-.6-.051-1.44-.078-.734-.062-.64-.176-.718.028-.7.188-.633.067-.76.084-.664.044-.606.084-.664.269-.746.2-.584.335-.658.294-.6.286-.649.206-.535.53-.692.351-.561.474-.432.448-.577.426-.425.425-.424.7-.571.579-.4.451-.28.579-.4.718-.175.6-.256.6-.256,1.415-.2.55,0,.849,0,.663.083.608.044,1.33.467.617.391.424.425.569.4.561.351.4.579.336.491.457.62.265.653.255.6.409.628.061.639.176.718.22,1.26.118.677-.017.753.167.67-.076.712,0,.6-.228.689.012.648-.164.776-.083.665-.084.664-.383.666-.14.624-.36.511-.327.706-.3.554-.449.577-.293.6-.5.587-.409.52-.425.424-.562.5-.491.337-.578.4-.524.441-.6.256-.685.369-.459.23-2.172.429Zm2.319-4.45.83-.394.474-.433.874-1,.5-.586.44-.626.189-.632.3-.553.318-.754.181-.681.18-.682.173-.728.074-.714-.149-.572.1-.867-.071-.686-.219-1.26-.216-.661-.255-.6-.418-.676-.231-.46-.489-.513-.432-.474-.423-.425-.642-.239-.672-.131L2044.7-279l-1.5.262-.515.19-.54.344-.756.532-.386.366-.457.529-.5.587-.312.5-.342.609-.318.754-.181.682-.229.689-.148.575-.27.746.029.745-.123.719.215.662.088.784.18,1.316.012.648.4.579.271.7.449.571.433.474.287.5.665.384.691.229.429.174.792-.038,1.414-.2Z" fill="#954845"/><path d="M2081.822-301.511l.752.019,1.474.142.615.092.738.22.68.181.6.295.626.44.552.3.335.49.538.505.392.531.556.6.36.635.215.662.37.685,0,.6.228,1.309.216.661.022.7.005.6-.063,1.359-.044.607-.286.65-.019.751-.14.625-.326.706-.2.584-.48.682-.2.583-.312.506-.391.616-.6.555-.4.569-.386.367-.515.49-.521.44-.514.489-.6.3-.578.4-.548.295-.685.369-.508.239-.685.369-.612.206-.727.127-.662.217-1.366.188-.734.078-.582.1-.719.176-.484.085-.767.184-.533.093-.647.012-.67.168-.582.1-.713.774-.278.7.07.687-.18.681.021.694-.189.633-.035.656-.182.681.11.63-.277.7.11.631-.124.72-.229.689.062.64-.019.752-.148.575-.02.753-.181.68-.858.8-.728.127-.646.014-.75.28-.727.127-.62-.691.035-.655.132-.672.035-.655.124-.722-.052-.59.058-.809.141-.624.221-.737-.022-.7.075-.712.19-.632.084-.663.018-.753.149-.576-.07-.686.083-.665.06-.809.091-.615.133-.673.277-.7.027-.7-.061-.638.22-.738.116-.769-.1-.582.213-.787,0-.549.026-.7.164-.777-.021-.7.149-.576.261-.8.084-.662-.079-.736.149-.575.059-.809.092-.616.18-.681-.109-.63.084-.663.172-.729.123-.722.063-1.359.123-.72.084-.664.213-.787.092-.615-.079-.736.142-.623.712-.774,1.939-.338.565-.2,1.987-.346.55,0,.67-.167.736-.079.718-.175.573-.151.63-.11,1.334-.083Zm4.866,8.989-.293-1.4-.322-.694-.36-.636-.182-.468-.538-.5-.674-.431-.552-.3-.7-.277-.575-.149-.655-.036-.784.087-1.333.083-.631.11-.621.159-.476.133-.744.03-1.212.211-.71.225-.77.733.03.745-.286.649.109.629-.172.729-.084.665-.132.671.07.688-.229.689-.149.576.078.734-.044.608-.173.728-.131.674.07.686-.092.615-.124.722-.053.557-.228.69-.076.712.053.59.417.676.719-.175,1.939-.338.767-.185.581-.1.541-.043.775-.136,1.415-.2.644-.312.477-.133.556-.247.693-.321,1.093-.89.416-.473.94-.912.295-.6.39-.618.353-.56.228-.691.181-.68.149-.576,0-.6,0-1.447Z" fill="#954845"/><path d="M2096.992-268.7l-.712-.075-.713-.076-.56-.352-.521-.408-.635-.489-.432-.474-.281-.75-.457-.619-.054-.589-.268-1.253-.255-.6.131-.672-.052-.59-.005-.6-.15-.572.14-.624.076-.713-.158-.622.084-.663.083-.664-.087-.784.1-.567.172-.728.067-.762-.021-.7.172-.729.044-.607-.03-.744.124-.721.124-.721-.07-.686.26-.795-.012-.647.074-.713.189-.632.011-.8-.013-.647.211-.787.084-.664.157-.826-.014-.647-.03-.743.14-.624.108-.818.026-.7.173-.73.188-.633-.038-.792.221-.737.044-.607.075-.713.108-.818-.014-.646.181-.68.7-.871.758-.233.6,0,.817-.192.524-.143.571.7-.084.665-.036.655-.139.623-.028.7-.075.713,0,.6-.019.753-.14.623-.173.73.062.638-.269.747.127.727-.238.64-.027.7.013.647-.141.624-.173.73.063.638-.084.663-.253.844.094.533-.156.826-.132.672.1.581-.269.746-.092.617.078.734-.141.624-.066.761-.133.673-.018.752.061.638-.075.712-.229.69.005.6-.01.8-.084.664,0,.6-.123.721.086.784.119.677.013.647-.123.723.461,1.216.281.75.45.572.689.228,1.414-.2.41-.222.556-.247.571-.45.571-.448.294-.6.37-.464.391-.617.408-.521.432-.675.286-.65.352-.561.091-.615.384-.666.352-.56.163-.778.2-.584.237-.642.19-.632.992-.322.6.295.622.989-.374.714-.133.674-.286.648-.294.6-.142.625-.334.657-.238.641-.286.649-.237.641-.247.593-.351.561-.383.666-.166.479-.432.674-.311.5-.352.562-.5.586-.457.528-.947.866-.733.377-.434.375-.75.282-.564.2-1.367.187Z" fill="#954845"/><path d="M2113.033-271.505l-.761-.066-.728-.174-.7-.277-.408-.329-.608-.342-.731-.472-.336-.491-.5-.562-.481-.466-.457-.618-.41-.628-.109-.63-.313-.644-.312-.646-.071-.686-.148-1.423-.175-.717-.079-.736.093-.615.018-.753-.127-.728.093-.615.163-.777-.021-.7.2-.583.164-.778.246-.592.383-.666.093-.616.325-.706.3-.6.344-.609.545-.6.369-.464.341-.609.708-.523.435-.374.668-.467.441-.327.588-.352.8-.29.468-.181.847-.3,1.277-.123.784-.086.663.083.584.2.479.166.706.327.446.271.635.489.432.474.473.416.3.6.361.637.433.474.272.7.325-.706.125-.721.027-.7.189-.632.383-.667.084-.663.115-.769.811-.791.63-.11.841-.048.428-.124.659.634-.084.664-.131.672-.133.673-.092.615-.27.746.054.59-.221.738-.181.681.11.63-.212.786.005.6-.269.746-.133.672.062.639-.133.673-.035.654-.213.787-.171.728.109.631-.18.681.07.686-.181.681.014.647.029.745.351,1.436.578.449,1.479-.109.49-.336.492-.335.5-.538.426-.424.44-.626.255-.543.448-.578.375-.715.311-.5.181-.681.335-.658.4-.569.286-.649.043-.608.319-.754.237-.64.326-.707.984-.372.722.423.227,1.009-.084.665-.189.633-.286.648-.295.6-.382.667-.247.592-.229.689-.294.6-.278.7-.286.649-.247.593-.351.56-.392.618-.409.522-.334.657-.391.617-.425.424-.506.537-.505.539-.329.406-.667.467-.557.247-.733.378-1.308.228-.558-.053-.673-.132-.632-.189-.618-.392-.415-.376-.506-.612-.2-.564-.321-.693-.471.732-.3.552-.392.618-.619.458-.4.568-.491.336-.676.417-.49.336-.685.369-.807.241-1.964.194Zm3.411-4.491.579-.4.531-.394.482-.383.643-.612.417-.472.294-.6.158-.528.286-.649.423-.723.045-.606.294-.6-.031-.743.028-.7.123-.722-.053-.589-.127-.727.044-.606-.214-1.511-.3-.6-.313-.645-.295-.546-.467-.668-.391-.531-.513-.361-.795-.26-.681-.18-.646.012-1.285.075-.6.3-.579.4-.637.36-.408.522-.856,1.1-.4.569-.3.552-.237.641-.336.658-.017.752-.124.72-.279.7-.043.607.078.734-.026.7.175.718.206,1.463.127.726.448.571.225.711.352.586.432.475.675.432.707.326.5.311.7.027,1.519-.166Z" fill="#954845"/><path d="M2156.587-284.055l-.149.576-.334.658-.409.52-.3.6-.391.618-.448.577-.361.512-.417.472-.4.57-.465.481-.465.481-.562.5-.492.335-.417.472-.733.378-.434.375-.586.352-.818,1.042-.124.721-.1.567-.19.633-.018.751-.277.7-.054.558-.365.763-.093.616-.237.641-.343.61-.149.574-.27.747-.3.552-.537.643-.214.486-.564.5-.5.538-.465.481-.433.376-.669.465-.612.207-.468.183-.653.262-1.4.3-.793.037-.654-.035-.471-.118-.7-.278-.681-.18-.463-.368-.561-.353-.4-.579-.432-.474-.361-.635-.021-.7-.366-1.235-.013-.647.164-.778.084-.663.149-.577.278-.7.448-.577.36-.513.579-.4.554-.546.386-.366.772-.436.588-.352.426-.424.781-.386.565-.2.588-.353.789-.337.469-.182.837-.346.6-.256.693-.32.614-.207.839-1.2.191-1.482,0-.549.164-.777.044-.608-.111-.63.141-.623-.078-.736-.173.728-.456.531-.4.569-.238.641-.457.528-.466.481-.408.522-.636.361-.514.489-.539.343-.759.232-.45.279-1.463.2-.734.079-.722-.124-.527-.158-.746-.269-.463-.368-.57-.4-.521-.409-.49-.513-.3-.6-.3-.6-.136-.776-.307-1.194.018-.753-.11-.63-.005-.6.084-.665.027-.7.01-.8-.061-.638.229-.69-.119-.677.141-.625.22-.737-.061-.639.036-.656.123-.719.229-.691-.087-.783.278-.7.1-.567.058-.809.1-.567.027-.7.229-.689.7-.871,2.035-.356.736-.079.594.547.1.582-.163.777-.2.584-.017.752,0,.55-.23.689-.172.73.062.638-.221.738.11.629-.318.756.044.541.023.695-.116.77-.247.592.176.717-.229.69.022.7.02.7.071.687,0,.55.246,1.4.3.6.424.425.811.357.672.132,1.115-.2.685-.369.547-.3.54-.343.513-.49.457-.528.3-.553.44-.627.158-.526.383-.666.449-.578.228-.69.133-.672.286-.649.245-.593.222-.737.189-.632.132-.673.181-.68.237-.642-.012-.646.212-.786.189-.632.181-.681-.079-.736.2-.582.277-.7-.029-.744.092-.615.058-.809.035-.656.851-.847.7-.023.71-.223.792-.039.573-.15.6.6-.026.7-.23.689-.066.76-.1.567-.213.787-.026.7-.093.616.022.7-.083.663-.125.72-.212.787-.044.606-.076.712-.075.714-.092.614-.019.753-.124.721-.123.72-.044.608-.262.793-.043.608-.075.712-.044.608-.106.817-.19.632.111.63-.23.689-.018.753-.133.671-.027.7-.315,1.054.639-.061.521-.442.923-1.01.514-.488.409-.522.561-.5.263-.495.537-.643.215-.487.335-.658.3-.553.553-.545.093-.617,1.049-.283.8.31.275,1Zm-15.9,18.159.383-.368.58-.4.254-.544.49-.634.255-.545.245-.592.4-.568.238-.641.278-.7.2-.584.124-.721.044-.607-.513-.36-.653.264-.661.215-.49.337-.857.248-.587.352-.644.313-.443.327-.708.524-.442.327-.594.6-.3.552-.3.553-.124.721.254,1.453.294.548.57.4.713.074,1.356-.236Z" fill="#954845"/><path d="M1932.6-237.059l6.97-1.179,7.328-1.255,6.594-1.183,7.092-.857,7.09-1.436,6.06-.876,6.917-1.334,6.378-.881,5.541-.919,6.544-1.268,6.457-.916,5.16-.923,6.284-1.157,5.244-.748,11.309-1.747,5.188-.881,5.388-.987,4.656-.776,4.829-.629,5.374-.808,5.562-.914,4.772-.754,3.876-.691,5.381-.829,4.245-.893,4.472-.468,4.435-.935,4.269-.494,4.607-.976,4.815-.557,3.272-.7,4.246-.563,4.119-.823,4.474-.564,4.6-.211,1.233.508.956.791.886.3.542.767-3.054,1.348-3.71.546-4.2.763-8.139,1.348-4.672.628-3.709.757-4.814.649-3.745.823-4.173.619-4.875.768-4.407.843-5.379.87-4.29.746-4.857.747-4.775.849-5.815.882-4.311.678-4.763,1.026-6.27.836-10.4,1.906-5.378.955-6.135.912-5.934.795-5.483,1.1-6.817,1.1-6.169.894-5.754.867-6.1,1.075-6.964,1.04-6.437,1.064-7.218,1.44-7.493,1.056-5.524,1.08-8.174,1.257-6.589,1.069-9.739.729-1.443-.691-.917-.8-1.558-.746,6.208-2.077Z" fill="#954845"/></g></svg>