<svg xmlns="http://www.w3.org/2000/svg" width="232.486" height="67.929" viewBox="0 0 232.486 67.929"><g transform="translate(-1329.343 1059.524)"><g transform="translate(1336.482 -1059.524)"><path d="M1345.637-995.975l.078-.739.2-.655-.013-.671,0-.62.187-.707.069-.789.146-.646-.014-.67.087-.688.128-.747-.022-.721.1-.637.137-.7.129-.747.045-.629.178-.757.146-.646-.114-.653.178-.756-.068-1.282-.291-.777-.256-.577-.466-.591-.273-.677-.341-.768-.337-1.339-.307-.568-.565-1.453-.264-.627-.525-.634-.072-.712-.366-.609-.173-.694-.315-.618-.315-.618-.366-.61-.273-.677-.282-.727-.366-.609-.265-.626-.081-.762-.383-.709-.265-.627-.306-.569-.232-.735-.374-.66.53-.817.543-.146.753-.132.863-.1.594-.155.936.613.205.586.656,1.387.273.676.215.636.474.642.055.612.374.659.273.677.357.559.282.728.156.594.232.736.256.578.474.641.132.754.256.576.273.677.374.66.307.568.232.736.264.626.415.6.456-.65.356-.632.347-.682.214-.555.548-.717.2-.605.256-.613.415-.591.305-.623.447-.7.305-.622.348-.683.414-.59.154-.6.4-.69.314-.573.4-.691.3-.674.255-.613.548-.717.154-.6.474-.549.305-.623.237-.715.406-.64.246-.664.88-1.188,1.041-.856.594-.155.662-.064.795-.19.871-.049.736-.231.366.609-.306.623-.4.69-.373.53-.446.7-.1.588-.415.589-.4.691-.364.582-.288.723-.414.59-.3.672-.315.573-.347.682-.423.539-.2.655-.355.633-.356.632-.255.613-.4.691-.255.614-.516.608-.187.705-.355.632-.506.658-.222.5-.255.614-.346.682-.557.666-.3.674-.172.5-.347.682-.315.572-.388.741-.364.582-.464.6-.357.631-.2.606-.366,1.461-.205.605-.161.857.064.662-.078.737-.237.715.072.712-.146.646-.129.747-.127.748.063.662-.2.655.031.771-.238.714-.146.647-.165,1.427-.061.838.064.662-.841.819-.8.141-.746.181-.661.064-.871.048-.659-.506Z" transform="translate(-1339.144 1052.638)" fill="#954845"/><path d="M1398.814-1021.717l.4.81-.187.705-.32.833-.315.573-.484,1.379-.245.664-.289.723-.364.581-.515.608-.246.664-1.165,1.032-.525.557-.61.365-.458.339-.6.416-.686.223-1.114.144-.288.723-.12.8.174.695-.146.646.082.762-.1.638-.228.765-.088.688-.255.614-.12.8-.246.664-.1.638-.364.581-.388.741-.323.522-.415.59-.323.522-.446.7-.543.456-.373.532-.532.507-.551.406-.541.457-.568.307-.769.342-.625.265-.635.214-.687.223-1.415.2-.754.132-.729-.028-.647-.146-.688-.087-.714-.237-.546-.164-.681-.346-.532-.374-.59-.415-.566-.574-.389-.451-.576-.624-.347-.508-.417-.6-.181-.744-.356-.559-.09-.812-.274-.677-.286-1.348-.04-.822-.1-.552.01-.83.178-.757-.123-.7.187-.706,0-.57.321-.832-.063-.662.2-.605.338-.732.288-.723.364-.581.155-.6.338-.732.879-1.189.441-.44.889-1.139.651-.423.541-.458.661-.373.508-.349.509-.347.76-.391.586-.205.694-.174,1.348-.286.93-.007.579.055.629.044.7.137.865.211.521.324.673.3.607.516.582.364.466.592.557.523.357.559.332.718.415.6.988.916,1.508-.264.709-.383.536-.2.482-.5.441-.438.474-.549.406-.64.533-.508.237-.714.264-.563.347-.682.264-.564.129-.747.2-.656.893-.519Zm-16.907,22.054.668-.324.482-.5.7-.433.557-.667.214-.554.415-.59.447-.7.162-.546.449-.7.187-.706-.023-.72.119-.8.1-.638.129-.747-.049-.872-.063-.661-.288-1.348-.08-.762-.215-.636-.525-.633-.247-.526-.415-.6-.531-.374-.489-.432-.573-.314-.857-.162-.529-.063-1.507.263-.585.206-.751.442-.441.438-.55.408-.432.488-.557.668-.363.581-.406.64-.2.655-.338.732-.306.624.09.812-.287.724,0,.62-.12.8.132.754.031.771.128,1.323.273.677.283.728.323.667.356.559.54.422.407.551.64.406.664.245.513.273.83.01,1.389-.345Z" transform="translate(-1347.705 1049.313)" fill="#954845"/><path d="M1409.948-999.9l-.83-.01-.765-.229-.4-.24-.773-.28-.6-.464-.356-.559-.567-.575-.315-.618-.264-.626-.274-.677-.068-1.282-.2-.535.155-.6-.005-.62-.013-.671.028-.73.045-.629-.122-.7.145-.646.011-.83.046-.629.238-.715.087-.689.01-.829-.055-.612.17-.806.045-.629.17-.806.178-.756.187-.706-.072-.712.169-.806.18-.755.036-.68.179-.756.95-.787,1.439-.355.812-.09.654-.114.625.615-.221.815.064.662-.347.681-.137.7.022.72-.137.7-.078.738-.028.73-.128.748-.188.705-.087.688-.128.747-.079.739.014.67-.279.773-.019.78-.037.678.031.772-.178.755.173.694-.179.756.123.7.178,1.315.247.527.416.6.715.237.646.147,1.264-.169.568-.307.508-.348.449-.389.35-.371.423-.54.457-.649.465-.6.264-.564.347-.682.4-.69.1-.638.221-.814.364-.582.178-.756.3-.672.27-.824.146-.647.187-.706.171-.806.338-.732.188-.706.136-.7.028-.729.32-.833.036-.68.178-.755.266-1.444.3-.673.078-.739.079-.738.873-.929.771-.031.594-.156.644-.165.6-.106.584.676-.028.728-.087.688-.1.638-.329.782-.037.68-.161.857-.036.68-.188.705-.127.748-.138.7.073.712-.2.655-.028.73-.188.706-.027.73-.087.688-.061.838-.287.723.114.653-.06.839-.2.656.122.7.04.821.371,1.23.382.71.522.323,1.374-.136.577-.256.491-.449.633-.524.373-.531.406-.641.414-.589.474-.549.155-.6.287-.723.447-.7.265-.563.388-.742.1-.588.347-.682.388-.741.063-.528.238-.715,1.111-.453.682.348.536.993-.4.69-.279.773-.205.606-.347.682-.187.706-.146.646-.439.749-.154.6-.49.758-.146.647-.414.59-.415.59-.347.681-.405.642-.721,1.212-.515.608-.449.388-.565.616-.651.425-.417.28-.851.458-.527.248-1.432.095-.662.063-.824-.269-.614-.256-.439-.441-.616-.565-.4-.5-.174-.695-.173-.695-.281-1.608-.031-.771-.149-.854-.087.688-.347.682-.238.715-.2.605-.355.631-.306.622-.438.75-.523.558-.364.581-.433.49-.491.448-.574.566-.6.416-.651.425-.586.2-.677.274-1.407.245Z" transform="translate(-1356.904 1050.453)" fill="#954845"/><path d="M1439.941-1006.977l.187-.706-.114-.653.111-.848.087-.688.078-.737.1-.589.029-.729-.023-.721.288-.723.087-.688-.04-.822.1-.587.011-.83.013-1.4.2-.656.019-.781.2-.655-.123-.7.1-.638.211-.865-.064-.662.036-.68.3-.672.028-.73-.023-.72.187-.706-.023-.721.079-.738.078-.739.7-.743.8-.191.611-.055.7-.122.918.512-.028.729-.1.9.074.712-.137.7-.129.746-.02.78.141.8.246-.664.2-.656.38-.791.221-.5.507-.658.338-.732.314-.573.272-.513.674-.584.306-.623.651-.424.559-.357.492-.448.685-.223,1.416-.2.813-.09.562.263.624.307.648.455.557.524.283.727.516.583.173.695.246,1.406-.061.838.073.712-.882.879-1.439.355-.871.049-.65-.457,0-.62-.446-1.371-.265-.626-.824-.27-1.282.067-.349.373-.509.347-.532.506-.231.455-.323.523-.423.539-.693,1.364-.2.605-.246.664-.27.824-.146.646-.278.774-.087.688-.348.681-.169.806-.146.648-.221.814-.087.688-.028.73-.138.7-.269.824,0,.621-.262.873,0,.571-.011.83-.338.732-.087.687.123.7-.229.765-.814.971-.721.022-.585.206-.754.131-.771.031-.607-.514Z" transform="translate(-1366.497 1051.948)" fill="#954845"/><path d="M1487.859-1018.216l-.88,0-.588-.1-.671.012-.889-.052-.7-.137-.555-.213-.78-.019-.832-.321-.638-.1-.64-.406-.623-.306-.605-.2-.658-.507-.514-.273-.554-1.094.306-.623.2-.655.414-.59.237-.715.114-.538.946-.217.64.407.39.449.773.28.581.364.656.2,1.37.434.788.069.807.17.779.02.561-.047,2.329-.3.626-.264,1.422-.455.409-.33.792-.5.39-.431.456-.65.574-.565.255-.614.154-.6.329-.782.046-.629.01-.83-.154-1.474-.173-.694-.348-.509-.315-.618-.465-.592-.5-.483-.7-.447-.548-.473-.623-.306-.614-.254-.69-.4-.665-.247-.691-.4-.573-.315-.815-.219-.463-.282-.589-.414-.632-.355-.639-.406-.732-.337-.475-.642-.438-.441-.567-.575-.323-.669-.415-.6-.165-.645-.173-.693-.082-.763-.287-1.347-.09-.813.129-.747.036-.68.1-.587.138-.7.169-.807.465-.6.137-.7.533-.507.415-.591.414-.59.331-.471.634-.526.583-.515.4-.38.678-.274.75-.441,1.271-.43.677-.274.593-.156,1.466-.2.553-.1.871-.049.72-.022.647.146.706.187.7.138.623.305.631.355.58.364.5.482.49.433.607.515.224.686.557.523.073.712.415.6.132.753.112,1.533.224.685-.763.962-.613.054-1.59.382-.552.1-.666-.557-.174-.695-.095-1.433-.457-.54-.323-.669-.356-.559-.758-.489-.623-.305-1.31-.392-.922.058-1.265.169-.828.3-.425.229-.751.442-.509.347-.532.507-.264.564-.548.717-.246.664-.155.6-.2.655-.019.781.187,1.364.332.718.324.669.306.567.439.442.508.532.65.456.58.365.582.364.764.229.532.374.874.261.413.291.741.388.815.22.572.314.591.415.731.339.431.39.691.4.548.475.508.532.507.532.248.527.424.65.315.618.131.753.415.6.1,1.484.132.754-.087.688.082.762-.188.706-.036.68-.329.782-.3.673-.229.765-.264.563-.355.632-.264.564-.616.624-.365.582-.449.389-.734.543-.532.506-.55.408-.719.331-.458.339-.719.333-.786.241-.576.255-.686.223-.644.165-1.507.264Z" transform="translate(-1376.785 1058.738)" fill="#954845"/><path d="M1521.975-1019.069l-.689-.087-.679-.037-.688-.087-.78-.02-.655-.2-.623-.307-.59-.413-.565-.265-.64-.405-.506-.532-.658-.507-.256-.576-.617-.566-.215-.636-.347-.508-.475-.642-.232-.735-.013-.671-.315-.618-.314-1.5-.022-.72-.014-.67-.063-.662.119-.8.045-.629-.031-.771.288-.724.163-.546.087-.688.288-.723.146-.646.347-.681.2-.657.364-.58.406-.64.254-.614.575-.567.323-.521.6-.416.424-.54.508-.348.583-.515.769-.342.558-.357.485-.187.728-.283.795-.191,1.315-.178.661-.063h.881l.588.1.6.155.865.211.49.433.639.406.49.432.465.591.307.57.492.742.2.534.245,1.407-.06.839-.958.736-.594.156-.8.141-.772.031-.74-.388-.17-1.266-.406-.549-.247-.527-.732-.338-.464-.281-.847-.112-1.205.211-.618.315-.727.283-.4.38-.541.457-.616.625-.432.49-.306.623-.356.631-.154.6-.287.723-.087.688-.305.623.031.771-.188.705.005.62.039.822.206.585.145,1.424.274.677.055.612.466.592.333.718.339.458.548.474.691.4.531.372.572.314.706.188,1.292-.018,1.465-.2.754-.131.719-.333.5-.088.76-.391.559-.356.517-.3.709-.383.441-.439,1.284-.948.457-.65.381-.481.315-.573.574-.566.347-.683.272-.513.347-.682.447-.7.347-.682.188-.7.287-.724.338-.731.878-.309.774.279.426.961-.178.755-.264.564-.389.741-.237.715-.222.5-.339.732-.3.673-.306.623-.2.655-.473.549-.315.573-.364.581-.406.64-.373.531-.565.616-.474.548-.755,1.013-.632.524-1.2.832-.468.288-.709.383-.517.3-.728.282-.526.247-.862.1-.677.274-1.465.2Z" transform="translate(-1386.097 1055.208)" fill="#954845"/><path d="M1570.582-1051.714l.4.81-.188.706-.32.832-.315.573-.484,1.38-.246.664-.288.723-.364.581-.515.608-.247.664-1.166,1.032-.524.556-.61.365-.457.339-.6.416-.685.223-1.114.143-.288.723-.119.8.173.695-.146.647.082.762-.1.637-.229.765-.087.689-.256.613-.119.8-.246.664-.1.637-.364.581-.389.742-.323.522-.415.59-.323.522-.447.7-.541.456-.374.533-.532.506-.551.407-.541.457-.568.307-.769.341-.626.264-.636.214-.685.224-1.415.2-.754.131-.73-.028-.645-.146-.689-.087-.714-.237-.546-.164-.682-.347-.53-.374-.591-.414-.566-.575-.389-.45-.575-.624-.348-.508-.416-.6-.181-.745-.356-.559-.09-.813-.274-.677-.287-1.348-.04-.822-.1-.551.009-.83.178-.756-.123-.7.187-.706,0-.57.32-.833-.063-.661.2-.605.338-.732.288-.723.364-.581.155-.6.338-.732.879-1.189.441-.44.888-1.138.651-.424.541-.457.659-.373.51-.348.508-.347.76-.392.584-.205.7-.173,1.348-.287.93-.007.579.054.629.045.7.137.865.211.522.323.673.3.607.516.581.365.465.591.557.524.356.559.333.718.416.6.988.915,1.507-.263.709-.384.535-.2.483-.5.441-.438.474-.549.406-.64.532-.508.238-.715.264-.562.346-.683.265-.564.129-.747.2-.656.894-.518Zm-16.907,22.054.668-.324.483-.5.7-.433.557-.667.214-.555.415-.59.446-.7.164-.546.447-.7.188-.706-.023-.719.12-.8.1-.638.128-.747-.049-.871-.063-.661-.288-1.348-.081-.763-.215-.635-.525-.634-.247-.526-.415-.6-.532-.374-.49-.431-.573-.315-.856-.161-.528-.063-1.508.263-.585.206-.751.442-.441.439-.55.408-.433.489-.557.667-.364.581-.406.641-.2.655-.337.732-.306.624.09.812-.288.723,0,.62-.12.8.132.754.031.771.127,1.323.274.677.282.728.323.668.356.559.54.422.406.551.641.406.664.245.514.273.83.011,1.389-.346Z" transform="translate(-1394.357 1057.46)" fill="#954845"/><path d="M1576.266-1030.785l.187-.706-.114-.653.111-.848.087-.687.078-.739.1-.588.028-.729-.022-.721.287-.723.087-.688-.039-.821.1-.589.011-.83.013-1.4.2-.655.019-.78.2-.656-.123-.7.1-.638.211-.865-.063-.661.036-.68.3-.673.028-.73-.022-.72.188-.706-.023-.721.079-.738.078-.739.7-.743.8-.191.611-.055.7-.123.917.514-.028.729-.1.9.073.712-.137.7-.129.747-.019.78.141.8.246-.664.2-.656.38-.791.222-.5.506-.657.338-.732.314-.573.272-.514.675-.584.306-.623.651-.424.558-.357.492-.448.685-.223,1.415-.2.813-.091.563.264.624.306.649.455.557.525.282.727.516.583.173.695.245,1.407-.06.838.073.712-.882.879-1.439.355-.871.049-.65-.456,0-.621-.447-1.371-.265-.626-.823-.271-1.283.068-.349.372-.508.347-.533.506-.231.455-.324.523-.423.539-.693,1.364-.2.6-.246.665-.27.823-.146.647-.279.774-.087.688-.347.681-.17.806-.146.648-.221.815-.086.688-.028.73-.138.7-.27.824,0,.62-.262.874,0,.57-.011.83-.338.731-.087.688.123.7-.229.765-.814.97-.721.023-.585.206-.754.132-.771.031-.607-.515Z" transform="translate(-1403.523 1058.414)" fill="#954845"/><path d="M1623.935-1042.334l-.414.59-.473.548-.515.608-.516.608-.314.573-.431.49-.543.456-.741.492-.4.38-.65.424-.583.516-.786.24-.5.4-.677.272-.694.173-.677.274-.7.123-1.516.213-.695.172-.629-.045-1.477-.156-.706-.187-.673-.3-.622-.305-.733-.338-.59-.414-.6-.466-.549-.474-.507-.532-.356-.559-.416-.6-.382-.709-.2-.535-.341-.768-.122-.7-.224-.685-.346-1.389-.014-.671-.073-.713.028-.73-.072-.712.22-.815.087-.687-.023-.721.155-.6.128-.747.154-.6.271-.824.255-.614.347-.682.206-.6.574-.566.313-.573.406-.64.583-.516.314-.573.55-.406.684-.534.5-.4.618-.315.577-.256.827-.3.577-.256.676-.273,1.407-.246.67-.013.73.028.605.2.8.12.605.2.64.406.581.364.44.441.5.482.173.7.448.491.172.694.187,1.366.031.771-.078.739.055.611-.289.723-.314.573-.355.631-.154.6-.634.524-.414.59-.323.522-.532.508-.618.315-.693.482-.4.381-.819.349-1.059.755-.728.282-.644.165-.827.3-.527.247-.635.214-.744.182-.594.156-.513.918.265.626.264.626.5.482.457.541.449.492.672.3.665.246.6.155.83.01.578.055,1.5-.314.485-.188.753-.131.569-.307.584-.206.592-.465.658-.374.619-.315.431-.49.65-.424.433-.49.532-.507.515-.608.341-.422,1.229-.37.623.305.581.365.107.912Zm-15.808-3.97.736-.231.786-.241.695-.173.751-.443.526-.248.8-.449.618-.315.483-.5.633-.525.432-.489.457-.648.1-.588.371-.841-.013-.67-.237-1.357-.507-.532-.4-.5-.647-.146-.806-.17-1.256.218-.777.292-1.192.881-.382.481-.565.616-.382.481-.388.741-.305.622-.178.756-.456.649-.138.7-.119.8.123.7-.179.756.886.622Z" transform="translate(-1410.673 1059.524)" fill="#954845"/></g><path d="M1339.865-986.612l5.816-1.085,6.237-1.176,5.72-1.123,6.279-.889,6.4-1.387,5.574-.915,6.483-1.346,6.094-.967,5.387-.988,6.482-1.348,6.515-1.059,5.3-1.032,6.575-1.308,5.575-.914,12.342-2.145,5.816-1.085,6.148-1.214,5.393-.993,5.665-.876,6.42-1.1,6.769-1.232,5.907-1.045,4.875-.939,6.859-1.193,5.533-1.2,5.85-.8,5.961-1.292,5.762-.836,6.388-1.386,6.709-.978,4.682-1.016,6.094-.967,6.057-1.255,6.612-1.02,6.836-.657,1.719.453,1.244.793,1.255.259.633.807-4.856,1.761-5.574.913-6.245,1.178-11.821,2.092-6.605,1.019-5.212,1.069-6.607,1.019-5.115,1.109-5.574.915-6.419,1.1-5.732,1.125-6.859,1.194-5.389.988-6,1.006-5.816,1.084-6.944,1.152-5.068.863-5.538,1.2-7.125,1.072-11.542,2.209-5.821,1.087-6.515,1.058-6.183.929-5.628,1.163-6.859,1.192-6.087.967-5.581.915L1383.3-990.6l-6.515,1.059-5.906,1.045-6.491,1.35-6.607,1.02-4.777.978L1346.063-984l-5.484.953-7.967.725-1.2-.508-.779-.6-1.291-.546,4.947-1.721Z" transform="translate(0 -9.276)" fill="#954845"/></g></svg>