<svg xmlns="http://www.w3.org/2000/svg" width="135.891" height="74.472" viewBox="0 0 135.891 74.472"><g transform="translate(0 0)"><path d="M1558.916-448.32l.026.87-.167.844-.018.756-.009.185-.026.229-2.444.3-6.751,1.2-3.4.58-3.8.527-3.6.44-3.3.651-4.009.615-3.552.475-3.253.457-3.4.58-3.8.527-3.455.545-3.8.756-3.85.492-2.8.545-4.053.58-3.209.492-4.624.176-.677-.466-.431-.527-.721-.51,2.919-1.143,3.253-.466,3.4-.58,3.648-.633,3.341-.615,3.666-.4,3.745-.791,3.253-.457,3.789-.765,3.56-.466,3.147-.527,3.789-.765,3.807-.519,3.094-.571,3.851-.721,3.253-.457,7.209-1.108,3.4-.58,3.332-.615Z" transform="translate(-1489.8 509.974)" fill="#e2d9c7"/><path d="M1636.428-458.141l-2.875,1.187-3.253.457-3.648.633-6.9,1.09-3.859.484-3.051.607-3.851.484-3,.642-3.253.457-3.745.563-3.349.615-4.009.615-3.147.527-3.5.51-3.4.58-1.565.229.044-.255-.088-.853.334-.941-.026-.87.026-.273.044-.4.264-.035,3.956-.651,3.455-.545,2.848-.51,4.009-.615,3.235-.695,3.411-.343,3.49-.747,3.358-.387,3.745-.791,3.912-.448,2.734-.589,3.56-.475,3.543-.7,3.859-.492,3.974-.176.976.457.686.7.721.273Z" transform="translate(-1500.701 511.312)" fill="#e2d9c7"/><g transform="translate(2.814)"><path d="M1508.428-450.81l-.909.159-1.832-.116-.689-.005-.8-.3-.851-.225-.9-.156-.933-.337-.73-.247-.774-.49-.812-.358-.54-.593-.734-.622-.6-.582-.369-.686-.5-.724-.562-.714-.612-.643-.138-.789-.4-.867-.37-.686-.391-.805-.1-.92-.149-.849-.417-1.676.073-1.013-.077-.8-.3-1.01.145-.962-.149-.849.023-.941-.016-.81.138-1.711.326-.994-.026-.87.1-.831.368-.752.083-.951.286-.862.137-.649.266-.984.2-.658.177-.782.418-.823.226-.851.409-.884.269-.609.55-.784.3-.8.5-.712.3-.8.693-.683.368-.753.571-.661.512-.652.521-.591.744-.753.46-.581.593-.541.825-.644.471-.519.675-.432.867-.4.643-.612,1.431-.749.767-.259.756-.32.918-.472.666-.116.827-.271,1.081-.251,1.526-.2.909-.159.667-.117,1.063,0,.7.065,1.051-.059.658.2.984.266.638.076.944.4.841.166.52.471.884.408.762.429.673.633.359.624.723.562.409.553.755.743.258.767.441.735.431.674.34.878.258.767.128.728.341.876.076.8.359,1.686.1.921.159.909-.024.941.148.849-.133,1.022.148.85-.165.841.015,1.871-.248.731-.276.922-.033.881-.236.79-.033.881-.287.862-.176.78-.176.781-.479.834-.156.9-.237.791-.3.8-.44.7-.247.731-.459.955-.643.612-.308.74-.55.784-.258.67-.732.815-.511.652-.521.59-.632.673-.339.559-.583.6-.775.574-.593.54-.582.6-.8.45-.735.441-.675.43-.917.473-.674.43-.818.331-.7.309-.867.4-.707.249-.92.1-.938.351-1.647.225Zm3.041-5.841.766-.259.928-.411.746-.38.745-.381.483-.459.906-.533.736-.44.654-.551.45-.641.7-.623.512-.652.41-.508.672-.8.511-.652.259-.67.621-.732.408-.884.33-.621.408-.883.126-.709.458-.955.187-.719.3-.8.276-.923.055-.759.165-.841.214-.913.166-.841.226-.851-.093-1.609,0-1.062.044-.819-.077-.8-.088-.86.024-.942-.176-1.718-.38-.747-.109-.979-.512-.786-.27-.829-.259-.767-.44-.735-.651-.51-.43-.675-.895-.469-.6-.582-.763-.428-.669-.258-.823-.418-.831-.1-.781-.176-.98.109-2.507.312-.969.17-.828.27-.574.287-.736.441-.664.491-.756.319-.724.5-.593.541-.814.7-.714.562-.593.542-.247.731-.753.694-.451.64-.5.712-.3.8-.389.63-.347.873-.358.812-.45.641-.216.912-.55.784-.3.8.018.809-.338.934-.115.77-.094.891-.4.944,0,.689.026.869-.189,1.783-.193,1.034.208.837-.214.913.208.838.016.81.429,1.737.076.8.351.939.249.707.391.805.583.835.551.654.572.775.338.5.733.622.894.469.862.287.8.3.71.127,1.034.193,1.487-.072,1.84-.2Z" transform="translate(-1493.001 515.81)" fill="#e2d9c7"/><path d="M1573.323-488.328l.483.977-.226.852-.387,1-.379.692-.584,1.664-.3.8-.346.873-.44.7-.622.734-.3.8-1.407,1.245-.633.673-.736.44-.552.409-.725.5-.827.269-1.344.173-.347.872-.145.963.209.839-.176.78.1.92-.115.769-.276.924-.1.831-.308.74-.144.963-.3.8-.115.77-.44.7-.469.895-.389.63-.5.711-.39.631-.54.845-.653.55-.451.642-.642.611-.665.491-.653.551-.686.37-.927.412-.758.318-.767.259-.827.269-1.707.236-.911.159-.88-.034-.781-.176-.831-.105-.862-.285-.659-.2-.824-.418-.64-.45-.713-.5-.683-.693-.469-.543-.694-.754-.42-.614-.5-.724-.219-.9-.43-.675-.109-.981-.33-.816-.347-1.626-.048-.992-.115-.666.011-1,.215-.912-.149-.849.227-.852,0-.688.388-1-.077-.8.247-.731.408-.884.347-.873.44-.7.187-.72.408-.884,1.061-1.434.533-.531,1.071-1.374.787-.512.652-.552.8-.451.615-.42.614-.419.917-.472.706-.248.839-.21,1.626-.345,1.123-.009.7.066.761.054.841.165,1.043.255.63.391.812.357.733.622.7.44.562.714.673.632.43.674.4.867.5.724,1.192,1.105,1.819-.317.856-.463.646-.237.581-.6.534-.529.57-.664.491-.772.643-.613.287-.862.318-.68.417-.823.319-.68.156-.9.236-.792,1.078-.625Zm-20.405,26.616.807-.39.582-.6.846-.522.673-.805.258-.67.5-.712.539-.844.2-.659.539-.843.226-.852-.026-.869.144-.963.116-.771.155-.9-.059-1.051-.077-.8-.346-1.627-.1-.92-.259-.767-.633-.765-.3-.634-.5-.725-.641-.45-.591-.521-.691-.38-1.034-.194-.637-.076-1.82.317-.706.249-.906.534-.532.529-.664.491-.522.591-.671.805-.44.7-.491.773-.236.79-.408.884-.368.753.109.98-.347.874.005.748-.144.962.159.911.038.93.153,1.6.331.817.34.878.391.805.432.675.651.51.49.665.774.49.8.3.621.33,1,.012,1.676-.418Z" transform="translate(-1498.604 514.736)" fill="#e2d9c7"/><path d="M1608.149-494.562l-.906-.158-.9.6-.369.747-.22.853-.413.888-.387.633-.369.747-.484.835-.44.7-.484.765-.352.343-.132.123-.633.668-.607.484-.668.431-.774.255-1.574.281-.756-.062-1.16-1.231-.431-.677-.29-.949-.562-.712-.554-.712-.475-.545-.923-.651-.651-.51-.642-.448-.967-.149-.87-.343-.818-.044-.686-.009-1.785.185-.826.273-.747.378-.914.475-.475.519-.835.58-.677.431-.325.624-.51.651-.624.73-.492.774-.492.712-.369.756.009-1,.035-.879.1-.9-.22-.9-.844-.853-.677.053-1,.308-.73.123-.079.079-.87.958-.281.862.149.853-.22.914-.044.818-.105.826-.3.8.176.976-.246.73-.211.87-.009.044.158.905-.352.809.105.985-.308.738.035.932-.114.774-.009,1-.132.7-.018.941-.237.791-.15.967.141.791-.325,1.741-.2.967.088.862-.317,1.749-.114.765.07.8-.281.862-.149.958.079.8-.026.941-.105.835-.229.791.035.932-.229.853.018.809-.018.484-.009.457-.343.87.026.87-.167.844-.018.756-.009.185-.193,1.723-.185.712-.018,1-.167.844.079.8-.36.809-.018.941.695.756,1.1-.132.6-.167.853-.088.914-.158.993-1.108.167-.844-.026-.87.29-.8-.035-.932.035-.879.035-.879.3-.8-.079-.8.044-.2.123-.642-.088-.853.334-.941-.026-.87.026-.273.07-.615.211-.914-.079-.8.105-.826.237-.791.088-.949.035-.888.053-.756-.1-.923.272-.914.1-.9.176-.782-.1-.914.457.853.554.651.686.694.73.624.721.563.633.387.756.369.906.22,1.028.132.624.009.862-.079,1.881-.334.721-.123,1.75-.747,1.468-.879.782-.51.387-.695.58-.6.589-.545.809-.765.308-.738.5-.712.369-.756.44-.695.4-.888.308-.738.211-.914.237-.791.343-.932.053-.756.079-.958.167-.835.035-.888-.141-.782.141-1.029-.141-.782.791-.826,1.459-.255.932-.352.8-.448.571-.29.826-.642.466-.58.035-.026.73-.607.51-.651.439-.7.422-.765.668-.862.193-.659.615-.8.211-.906.431-.765.053-.765.281-.914.334-.941Zm-15.385,16.747-.026.941.018.809-.149.9-.422.826.026.87-.36.809-.431.765-.484.774-.369.747-.563.721-.738.756-.554.413-.668.492-.765.255-1.82.316-.985.114-.791-.237-.624-.4-1.028-.5-.4-.554-.5-.73-.492-.659-.589-.835-.281-.888-.158-1.662-.088-.862.009-1,.009-.686-.053-.993.237-.791.281-.923.062-.694.4-.949.73-1.556.132-.651.554-.782.44-.7.818-.7.589-.545.387-.624.932-.413.589-.229,1.811-.317.756-.009.791.237.694.44.668.571.73.624.3.633.651.888.185.651.141.853.325,1.82.07.8.158.905Z" transform="translate(-1502.339 515.478)" fill="#e2d9c7"/><path d="M1614.088-466.867l-.739.066-.809.017-1.073-.062-.88-.034-.61-.268-.83-.1-1.012-.073-.8-.3-.61-.268-1.064-.377-.241-1.019.358-.813.269-.608.368-.752.247-.731,1.17-.454.894.469.791.237.791.236,1.063,0,.769.115.891.095.981-.109,1.769-.247.828-.269,1.9-1.269.571-.663.226-.851.258-.67-.347-1.625-.623-.7-.481-.6-.772-.49-.772-.489-.731-.249-.873-.346-.813-.359-1.033-.193-.894-.469-.548-.279-.774-.491-.943-.4-.592-.52-.551-.653-.551-.654-.683-.693-.23-.96-.175-1.719-.22-.9.116-.769.276-.922.094-.891.369-.752.417-.823.49-.774.654-.55.5-.712.868-.4.775-.573.757-.319.867-.4.909-.158,1.758-.307.738-.067,1.65.149.952.084.852.227.823.418.773.491.57.4,1.032,1.256.39.807.452.8.269.827.259.767-.965.919-.888.28-.809.017-.778.2-1.3-.648-.259-.767-.39-.806-.651-.511-.7-.44-.9-.156-.616.046-1.758.307-.9.219-.735.442-.389.629-.633.673-.126.71-.044.819.043,1.678.683.694.449.421.9.53.73.246,2.234.985.862.287.913.215.7.44.659.2.651.511.994.327.529.532.552.653.551.654.47.542.39.806.2.778.368,1.748-.054.759.2.778-.155.9-.3.8-.319.68-.308.742-.511.651-.754.694-.594.541-.592.541-.674.43-.665.491-.806.392-.7.308-1.009.3-.92.1-1.5.324Z" transform="translate(-1506.59 515.727)" fill="#e2d9c7"/><path d="M1633.456-474.766l-.077-.8.135-1.022.066-.7.337-.934.921-1.16.738-.067.92-.1,1.638-.286.838-.208.815.732-.095.891-.275.924-.095.891-.1.83.077.8-.965.918-.827.27-.909.159-.96.229-.677.057-.931.037-.783-.55Zm1.755-12.49.045-.82.033-.879-.016-.81.346-.873-.158-.91.177-.78-.1-.92.227-.852.054-.759-.1-.921.216-.912-.006-.749-.037-.93.175-.782.26-1.732.045-.82-.027-.869.054-.76.236-.79.155-.9.084-.953.1-.831.005-.687.144-.964-.137-.787.358-.813-.148-.848.3-.8-.159-.909.337-.935-.116-.665.226-.852-.088-.86.277-.922.711-.937.838-.208,1.1-.131.534-.155.991-.049.876.722-.176.781-.033.881-.211,1.661-.275.922.066.738-.276.922.126.728-.176.781-.156.9.018.81-.144.964-.055.759-.165.841-.044.819-.2.973-.126.709.137.788-.326.994-.027,1.629-.045.82-.215.912-.287.862.076.8-.143.963-.227.851-.176.781-.044.82-.215.912-.1.831.1.92-.277.922.056.678-.2.972-.115.771-.873,1.09-.788.137-.8.077-.848.149-.816-.732Z" transform="translate(-1509.953 518.332)" fill="#e2d9c7"/></g></g></svg>