<svg xmlns="http://www.w3.org/2000/svg" viewBox="0 0 27.94 22.83"><defs><style>.a{fill:#066c72;}</style></defs><title>icon</title><path class="a" d="M27.76,3.84l-.14-.14H19.41V2a2,2,0,0,0-2-2H10.5a2,2,0,0,0-2,2V3.7H.32l-.17.18L0,4V19.74a3.08,3.08,0,0,0,3.08,3.09H24.91a3,3,0,0,0,3-3V4ZM9.53,2a1,1,0,0,1,1-1h6.94a1,1,0,0,1,1,1V3.7H9.53ZM26.94,19.79a2,2,0,0,1-2,2H3.08A2.09,2.09,0,0,1,1,19.74V11.47a3.78,3.78,0,0,0,2.83,1.27H12v.16a1.8,1.8,0,0,0,1.79,1.8h.38A1.8,1.8,0,0,0,16,12.9v-.16h8.2a3.73,3.73,0,0,0,2.79-1.25ZM13,12.9V10.85a.79.79,0,0,1,.79-.8h.38a.79.79,0,0,1,.79.8V12.9a.79.79,0,0,1-.79.8h-.38A.79.79,0,0,1,13,12.9Zm14-4a2.79,2.79,0,0,1-2.79,2.79H16v-.89a1.8,1.8,0,0,0-1.79-1.8h-.38A1.8,1.8,0,0,0,12,10.85v.89H3.83A2.83,2.83,0,0,1,1,8.92V4.7H26.94Z"/></svg>