<svg xmlns="http://www.w3.org/2000/svg" viewBox="0 0 40.72 33.27"><defs><style>.a{fill:#fff;}</style></defs><title>management</title><path class="a" d="M40.46,5.6l-.21-.21h-12V2.87A2.86,2.86,0,0,0,25.42,0H15.3a2.87,2.87,0,0,0-2.87,2.87V5.39H.47l-.26.26L0,5.86V28.77a4.5,4.5,0,0,0,4.5,4.5H36.3a4.42,4.42,0,0,0,4.42-4.43v-23ZM13.89,2.87A1.41,1.41,0,0,1,15.3,1.46H25.42a1.41,1.41,0,0,1,1.41,1.41V5.39H13.89Zm25.38,26a3,3,0,0,1-3,3H4.5a3,3,0,0,1-3-3v-12a5.53,5.53,0,0,0,4.12,1.85H17.47v.23a2.62,2.62,0,0,0,2.62,2.62h.54a2.62,2.62,0,0,0,2.62-2.62v-.23H35.19a5.52,5.52,0,0,0,4.08-1.82Zm-20.34-10v-3a1.16,1.16,0,0,1,1.16-1.16h.54a1.16,1.16,0,0,1,1.16,1.16v3A1.15,1.15,0,0,1,20.63,20h-.54A1.16,1.16,0,0,1,18.93,18.8ZM39.27,13a4.08,4.08,0,0,1-4.08,4.07H23.25v-1.3a2.63,2.63,0,0,0-2.62-2.62h-.54a2.63,2.63,0,0,0-2.62,2.62v1.3H5.58A4.11,4.11,0,0,1,1.46,13V6.85H39.27Z"/></svg>