<svg xmlns="http://www.w3.org/2000/svg" viewBox="0 0 46.46 46.71"><defs><style>.a{fill:#fff;}</style></defs><title>icon</title><polygon class="a" points="23.23 1.07 22.71 1.45 25.18 4.8 27.64 2.61 29 5.61 31.85 3.98 32.56 7.2 35.69 6.2 35.72 9.49 38.99 9.17 38.33 12.39 41.59 12.75 40.27 15.77 43.4 16.8 41.48 19.48 44.32 21.14 41.89 23.36 44.32 25.57 41.48 27.23 43.4 29.91 40.27 30.95 41.59 33.96 38.33 34.32 38.99 37.54 35.72 37.22 35.69 40.51 32.56 39.52 31.85 42.73 29 41.1 27.64 44.1 25.18 41.91 23.23 44.56 21.28 41.91 18.82 44.1 17.46 41.1 14.6 42.73 13.9 39.52 10.77 40.51 10.74 37.22 7.47 37.54 8.13 34.32 4.87 33.96 6.18 30.95 3.06 29.91 4.98 27.23 2.14 25.57 4.57 23.36 2.14 21.14 4.98 19.48 3.06 16.8 6.18 15.77 4.87 12.75 8.13 12.39 7.47 9.17 10.74 9.49 10.77 6.2 13.9 7.2 14.6 3.98 17.46 5.61 18.82 2.61 21.28 4.8 23.74 1.45 23.23 1.07 22.71 1.45 23.23 1.07 22.71 0.7 21.08 2.92 18.37 0.51 16.88 3.81 13.73 2.02 12.95 5.55 9.5 4.46 9.47 8.08 5.87 7.73 6.6 11.27 3 11.68 4.45 15 1.01 16.14 3.12 19.08 0 20.91 2.67 23.36 0 25.8 3.12 27.63 1.01 30.57 4.45 31.71 3 35.03 6.6 35.44 5.87 38.98 9.47 38.63 9.5 42.25 12.95 41.16 13.73 44.69 16.88 42.9 18.37 46.2 21.08 43.8 23.23 46.71 25.38 43.8 28.08 46.2 29.58 42.9 32.73 44.69 33.51 41.16 36.96 42.25 36.98 38.63 40.59 38.98 39.86 35.44 43.45 35.03 42.01 31.71 45.44 30.57 43.33 27.63 46.46 25.8 43.78 23.36 46.46 20.91 43.33 19.08 45.44 16.14 42.01 15 43.45 11.68 39.86 11.27 40.59 7.73 36.98 8.08 36.96 4.46 33.51 5.55 32.73 2.02 29.58 3.81 28.08 0.51 25.38 2.92 23.23 0 22.71 0.7 23.23 1.07"/><path class="a" d="M31.2,30.43V34H15.58l-.71-2.35A9.14,9.14,0,0,0,17,28.84a8.94,8.94,0,0,0,.66-3.66c0-.15,0-.39-.06-.74H14V21.35h2.64a13.46,13.46,0,0,1-.61-3.8,6.79,6.79,0,0,1,2.1-5.33,8.09,8.09,0,0,1,5.62-1.88,7,7,0,0,1,5.37,2A7.3,7.3,0,0,1,31,17.42H26.88q0-3.35-3.18-3.35a3.27,3.27,0,0,0-2.47.91,3.53,3.53,0,0,0-.88,2.59A12.42,12.42,0,0,0,21,21.35h6.12v3.09H21.89c0,.35.07.6.07.78a7,7,0,0,1-2.16,5.21Z"/></svg>