<svg xmlns="http://www.w3.org/2000/svg" viewBox="0 0 46.4 46.4"><defs><style>.a{fill:#fff;}</style></defs><title>icon</title><path class="a" d="M45.5,23.2h-.9A21.39,21.39,0,1,1,38.33,8.06,21.29,21.29,0,0,1,44.6,23.2h1.8A23.2,23.2,0,1,0,23.2,46.4,23.2,23.2,0,0,0,46.4,23.2Z"/><path class="a" d="M32.12,30.42v3.75H15.88l-.74-2.44a9.68,9.68,0,0,0,2.2-3A9.43,9.43,0,0,0,18,25,7.64,7.64,0,0,0,18,24.2H14.27V21H17A13.88,13.88,0,0,1,16.38,17a7.06,7.06,0,0,1,2.18-5.54,8.39,8.39,0,0,1,5.84-2A7.28,7.28,0,0,1,30,11.6,7.62,7.62,0,0,1,32,16.9H27.63q0-3.49-3.31-3.49a3.44,3.44,0,0,0-2.56.94,3.67,3.67,0,0,0-.92,2.7,12.86,12.86,0,0,0,.7,3.93H27.9V24.2H22.44a6,6,0,0,1,.07.8,7.33,7.33,0,0,1-2.24,5.42Z"/></svg>