<svg xmlns="http://www.w3.org/2000/svg" viewBox="0 0 100 35"><defs><style>.a{fill:#fff;}</style></defs><title>lex</title><rect class="a" width="100" height="35"/><path d="M2,20.61c0,.18.07.28.29.28h2c.38,0,.42.07.42.38v.87c0,.3,0,.39-.42.39H1.32c-1,0-1.32-.37-1.32-1.3V15.11c0-.34.05-.37.42-.37H1.61c.36,0,.41,0,.41.37Z" transform="translate(0.27 -0.09)"/><path d="M7.46,19.32a10.09,10.09,0,0,0,.07,1.35c0,.17.11.22.26.22h2.57c.37,0,.41.05.41.37v.89c0,.29,0,.38-.41.38H7.46c-1.18,0-1.73-.26-1.82-1.27-.07-.73-.09-1.53-.09-2.32V18.2a16.83,16.83,0,0,1,.08-1.93c.1-1.24.59-1.53,1.86-1.53h2.88c.38,0,.4.06.4.37V16c0,.29,0,.36-.4.36H7.82c-.22,0-.29.08-.3.24s0,.78,0,1.2H10c.3,0,.39.06.39.35V19c0,.25-.09.32-.39.32Z" transform="translate(0.27 -0.09)"/><path d="M15.13,19.5h-.08l-1.13,2.66c-.12.29-.26.37-.64.37h-1.2c-.36,0-.36-.23-.24-.45l1.62-3.21a.68.68,0,0,0,.11-.31.61.61,0,0,0-.08-.26l-1.65-3.24c-.1-.18,0-.32.31-.32h1.22c.33,0,.47.07.55.26l1.13,2.67h.08L16.32,15c.08-.19.2-.26.55-.26h1.22c.35,0,.41.13.31.32L16.75,18.3a.61.61,0,0,0-.08.26.81.81,0,0,0,.1.31l1.63,3.21c.12.22.12.45-.24.45H17c-.38,0-.51-.06-.64-.37Z" transform="translate(0.27 -0.09)"/><path d="M25.1,14.74c.4,0,.52,0,.64.38.69,1.94,1.48,4.48,2.14,6.89a1.66,1.66,0,0,1,.12.42c0,.1-.06.15-.24.15h-.58c-.28,0-.35,0-.41-.26-.13-.54-.31-1.23-.49-1.85h-2.8c-.18.62-.36,1.31-.49,1.85-.06.23-.13.26-.41.26H22c-.18,0-.24,0-.24-.15a1.25,1.25,0,0,1,.09-.37c.66-2.41,1.45-4.95,2.14-6.89.12-.34.24-.38.64-.38Zm-.29,1.16c-.37,1.1-.74,2.36-1.08,3.52H26c-.34-1.16-.71-2.42-1.08-3.52Z" transform="translate(0.27 -0.09)"/><path d="M34.37,20a2.62,2.62,0,0,1-.69,2,3,3,0,0,1-2.15.65A3,3,0,0,1,29.38,22a2.61,2.61,0,0,1-.68-2V15c0-.19.07-.25.25-.25h.67c.19,0,.26.06.26.25v4.9a1.92,1.92,0,0,0,.35,1.34,1.64,1.64,0,0,0,1.3.44,1.66,1.66,0,0,0,1.31-.44,2,2,0,0,0,.35-1.34V15c0-.19.07-.25.26-.25h.65c.2,0,.27.06.27.25Z" transform="translate(0.27 -0.09)"/><path d="M38.4,15.7v6.58c0,.2-.06.25-.25.25h-.67c-.2,0-.26-.05-.26-.25V15.7H35.36c-.21,0-.24-.07-.24-.24V15c0-.19.08-.22.24-.22h4.91c.16,0,.24,0,.24.22v.47c0,.17,0,.24-.24.24Z" transform="translate(0.27 -0.09)"/><path d="M46.82,18.91c0,1.61-.17,2.34-.74,3a3.07,3.07,0,0,1-2.26.74,3,3,0,0,1-2.25-.74c-.57-.64-.74-1.37-.74-3v-.55c0-1.6.17-2.35.74-3a3.12,3.12,0,0,1,2.25-.74,3.16,3.16,0,0,1,2.26.74c.57.64.74,1.39.74,3Zm-1.21-.42c0-1.2,0-1.94-.44-2.39a1.63,1.63,0,0,0-1.35-.51,1.61,1.61,0,0,0-1.34.51c-.4.45-.44,1.19-.44,2.39v.28c0,1.2,0,1.94.44,2.39a1.58,1.58,0,0,0,1.34.51,1.6,1.6,0,0,0,1.35-.51c.4-.45.44-1.19.44-2.39Z" transform="translate(0.27 -0.09)"/><path d="M49,21.25c0,.24.08.32.35.32h2.1c.21,0,.26.05.26.22v.52c0,.16-.05.22-.26.22H49c-.85,0-1.16-.37-1.16-1.09V15c0-.19.07-.25.26-.25h.65c.2,0,.27.06.27.25Z" transform="translate(0.27 -0.09)"/><path d="M54.1,22.53c-1,0-1.45-.26-1.55-1.39-.06-.67-.09-1.59-.09-2.3v-.47c0-.64,0-1.66.07-2.32.1-1,.54-1.31,1.59-1.31h2.77c.2,0,.24.06.24.24v.45c0,.17,0,.24-.24.24H54.21c-.33,0-.51.12-.54.45s-.06,1.17-.06,1.88H56.4c.21,0,.25.07.25.23v.5c0,.15,0,.23-.25.23H53.61a15.55,15.55,0,0,0,.09,2.16c0,.32.18.42.5.42h2.67c.22,0,.26.06.26.23v.5c0,.17,0,.23-.26.23Z" transform="translate(0.27 -0.09)"/><path d="M61.47,14.74c.4,0,.52,0,.64.38.68,1.94,1.48,4.48,2.14,6.89a1.63,1.63,0,0,1,.08.37c0,.1-.06.15-.24.15h-.57c-.28,0-.35,0-.41-.26-.14-.54-.32-1.23-.5-1.85H59.82c-.18.62-.36,1.31-.49,1.85-.06.23-.14.26-.41.26h-.58c-.18,0-.24-.05-.24-.15a1.63,1.63,0,0,1,.08-.37c.66-2.41,1.46-5,2.15-6.89.12-.34.24-.38.63-.38Zm-.29,1.16c-.37,1.1-.75,2.36-1.08,3.52h2.24C62,18.26,61.63,17,61.25,15.9Z" transform="translate(0.27 -0.09)"/><path d="M65.42,22.28a.18.18,0,0,1-.18-.2,1,1,0,0,1,0-.25l.1-.38a.15.15,0,0,1,.15-.14.65.65,0,0,1,.2.05,5.64,5.64,0,0,0,1.86.32c1.11,0,1.44-.33,1.44-1.25v-.12c0-.81-.2-1-1.16-1.23L67,18.89c-1.26-.3-1.78-.81-1.78-2V16.7c0-1.38.81-2.06,2.47-2.06a6.62,6.62,0,0,1,1.83.25c.14,0,.2.1.2.18a1.53,1.53,0,0,1-.08.37l-.07.27a.17.17,0,0,1-.17.17.22.22,0,0,1-.16,0,4.89,4.89,0,0,0-1.52-.25c-1,0-1.37.34-1.37,1.13v.12c0,.76.35.92,1.13,1.1l.82.19c1.24.29,1.78.7,1.78,2.09v.15c0,1.67-.78,2.27-2.61,2.27A6.27,6.27,0,0,1,65.42,22.28Z" transform="translate(0.27 -0.09)"/><path d="M72.81,22.6c-1,0-1.45-.25-1.55-1.38-.06-.68-.1-1.59-.1-2.3v-.49a22.48,22.48,0,0,1,.08-2.32c.09-1,.54-1.32,1.58-1.32h2.77c.21,0,.24.06.24.24v.49c0,.16,0,.24-.24.24H72.92c-.34,0-.52.12-.54.44,0,.47-.06,1.18-.06,1.89h2.79c.21,0,.24.06.24.23v.49c0,.16,0,.23-.24.23H72.32a19.59,19.59,0,0,0,.08,2.17c0,.31.18.42.51.42h2.67c.22,0,.25.06.25.23v.49c0,.17,0,.23-.25.23Z" transform="translate(0.27 -0.09)"/><path d="M94.35,13.43a2.89,2.89,0,0,1,.72-.08,3.14,3.14,0,0,0,.75,0,2.08,2.08,0,0,1,.61,0,1.48,1.48,0,0,1,.61.43l.31.37a14.41,14.41,0,0,0,1.35,1.46A1.45,1.45,0,0,1,99,16a.36.36,0,0,0,.07.1l.23.21a1.14,1.14,0,0,1,.34.68c0,.27-.23.26-.48.24s-.68-.11-.75-.38a.58.58,0,0,1,0-.32.21.21,0,0,0-.1-.28h0A.34.34,0,0,1,98,16a4.39,4.39,0,0,0-1.11-1.35,2.76,2.76,0,0,0-.72-.38h0a.76.76,0,0,0-.51.12l-.18.1-.25.15c-.06,0-.39.2-.56.26a1.71,1.71,0,0,1-.3.09h-.06l-.06.08H95.8a.59.59,0,0,1,.34.1.9.9,0,0,1,.29.38,5.71,5.71,0,0,0,.3.67v.14a9.3,9.3,0,0,0,.84,1.74,1.79,1.79,0,0,1,.27.44,2,2,0,0,1,.12.68c0,.25,0,.75-.24.76a.74.74,0,0,1-.49-.18s-.45-.29-.44-.53a.49.49,0,0,1,.08-.23,1.51,1.51,0,0,0,.22-.37.1.1,0,0,0-.08-.13h0a.25.25,0,0,1-.18-.21,10,10,0,0,0-.51-1.48l-.11-.19a3,3,0,0,0-.27-.35.58.58,0,0,0-.38-.24,1.23,1.23,0,0,0-.62.2l-.41.23-.54.32c-.12.06-.37.2-.49.25s-.44.19-.54.22h0a.75.75,0,0,1-.36.07l-.25-.06a1,1,0,0,0-.62.1,4,4,0,0,1-.81.3,6.69,6.69,0,0,1-1,.14h-.8c-.2,0-.55-.05-1-.1l-.88-.11H87a4.93,4.93,0,0,1-.22.53,6,6,0,0,1-.41.69,4.86,4.86,0,0,1-.53.58,1.87,1.87,0,0,1-.48.26.61.61,0,0,0-.38.6,1.5,1.5,0,0,0,.19.63,3.59,3.59,0,0,0,.42.6,5.74,5.74,0,0,1,.53.79,4.41,4.41,0,0,0,.53.75,1.13,1.13,0,0,0,.43.35,1.91,1.91,0,0,1,.49.4.66.66,0,0,1,.15.48c0,.15-.18.13-.24.13h-.75a.28.28,0,0,1-.24-.1.57.57,0,0,1-.08-.26,2,2,0,0,0-.08-.33.34.34,0,0,0-.2-.17.55.55,0,0,1-.29-.23.6.6,0,0,1-.07-.3.71.71,0,0,0-.13-.34c-.09-.15-.27-.41-.27-.41L85.13,22l-.29-.36-.27-.35-.28-.33a2.26,2.26,0,0,1-.25-.28.66.66,0,0,1-.15-.34.65.65,0,0,1,0-.41,1.51,1.51,0,0,1,.18-.26,1.24,1.24,0,0,0,.19-.26.65.65,0,0,0,.06-.21V19l-.13.1a3.4,3.4,0,0,1-.5.26,2.17,2.17,0,0,1-.5.13H83a1.39,1.39,0,0,0-.27.21,1.13,1.13,0,0,0-.33.66c0,.08-.07.61-.09.89a6.77,6.77,0,0,0-.06.89,2,2,0,0,0,.11.73,1,1,0,0,0,.39.5,1.88,1.88,0,0,1,.52.45.6.6,0,0,1,.1.41.13.13,0,0,1-.15.1h-.9a.22.22,0,0,1-.23-.15.51.51,0,0,1,0-.3.62.62,0,0,0-.12-.41,3.47,3.47,0,0,0-.29-.25.44.44,0,0,1-.18-.35c0-.13.08-.37.09-.52a4.08,4.08,0,0,1,.07-.84,3.42,3.42,0,0,0,0-.85V19.62a.81.81,0,0,1,0-.31.72.72,0,0,1,.31-.4c.23-.17.36-.28.45-.36a3,3,0,0,0,.45-.59A1.9,1.9,0,0,0,83,17.6a1.14,1.14,0,0,0,0-.52,3.68,3.68,0,0,1-.07-.58,3.22,3.22,0,0,1,0-.76,2.2,2.2,0,0,1,.25-.69c.06-.1.17-.26.21-.31s.06-.09-.08-.09a1,1,0,0,1-.43,0,.55.55,0,0,0-.45.08.79.79,0,0,0-.17.2.29.29,0,0,1-.16-.28.49.49,0,0,1,.16-.37s.07-.1-.16,0a.9.9,0,0,0-.51.5v.08s-.1,0-.17-.16-.16-.06-.19,0a.71.71,0,0,0,.19.65,2.72,2.72,0,0,0,.39.37,4.45,4.45,0,0,1,.49.48,1.16,1.16,0,0,1,.25.8.92.92,0,0,1-.35.73,1.85,1.85,0,0,1-.63.31c-.33.1-.52.17-.53.33s.18.23.18.23-.09.22-.43.17a.57.57,0,0,1-.48-.62c0-.24.1-.42.59-.72s.32-.67.2-.77l-.43-.34A3.76,3.76,0,0,1,80,15.7a2.14,2.14,0,0,1-.43-1,2.41,2.41,0,0,1,.06-1.13,1.68,1.68,0,0,1,.26-.56,1.77,1.77,0,0,1,.78-.6,1.58,1.58,0,0,1,1.17,0,2.47,2.47,0,0,1,.86.71,4.58,4.58,0,0,0,.67.72,1.31,1.31,0,0,0,.4.22h0s.24.1.37,0h0a3.3,3.3,0,0,1,1.05-.42,4.29,4.29,0,0,1,1.43,0c.31,0,.54.1.81.12a4,4,0,0,0,.85,0,2.78,2.78,0,0,0,1-.35A4.24,4.24,0,0,0,91,11.49a2.89,2.89,0,0,0,.27-.71,1.4,1.4,0,0,0,0-.29h0c0-.54-.84.09-.84.09s-.24.18-.25.2a.27.27,0,0,0-.08.19.33.33,0,0,1-.22.26.27.27,0,0,1-.32,0c-.19-.08-.17-.09-.28-.09s-.34-.1-.39-.57c0,0-.06-.33.08-.45a1.61,1.61,0,0,0,.39-.57,2.57,2.57,0,0,1,.41-.67c.2-.23.12-.35.11-.37A.57.57,0,0,1,90,8.14a1.37,1.37,0,0,0,.4-.52.42.42,0,0,0-.12-.36.34.34,0,0,1-.08-.35c0-.07.12,0,.16,0l.11.1a1,1,0,0,0,.2.21V6.89a.66.66,0,0,1,0-.28c0-.13.14,0,.15,0s0,0,.06.13a.34.34,0,0,0,.23.22.67.67,0,0,1,.38.26.36.36,0,0,0,.21.13c.38.06.32-.23.32-.23a.34.34,0,0,1,.28.29.24.24,0,0,0,.18.19,1.18,1.18,0,0,1,.81.74.28.28,0,0,0,.19.09.44.44,0,0,0,.5-.09.7.7,0,0,1-.17.82.69.69,0,0,0,.3.33.9.9,0,0,1,.41.45.26.26,0,0,0,.32.19l0,0a.69.69,0,0,1-.7.62c.11.33.67.68.67.68a.71.71,0,0,1-.62.42.18.18,0,0,0-.16.19c0,.09.11.19.11.19a1,1,0,0,1,.28.78s-.23-.12-.32,0a.21.21,0,0,0,0,.24A.41.41,0,0,0,94.35,13.43Z" transform="translate(0.27 -0.09)"/></svg>