<svg id="Layer_1" data-name="Layer 1" xmlns="http://www.w3.org/2000/svg" viewBox="0 0 91.25 22.24"><defs><style>.cls-1{fill:#1a1818;}.cls-2{fill:#e5001c;}.cls-3{fill:#fff;}</style></defs><title>symbol</title><rect class="cls-1" y="10.57" width="21.65" height="11.22"/><rect class="cls-2" y="0.17" width="21.65" height="10.4"/><rect class="cls-3" x="4.84" y="10.57" width="11.97" height="1.31"/><path class="cls-1" d="M58.68,10.87v-.42l.59-.12a.89.89,0,0,0,.26-.07l.13-.11a12.18,12.18,0,0,0,.14-2c0-1.15.06-2.55.06-4.22,0-.91,0-1.65,0-2.19A5.15,5.15,0,0,0,59.66.71L59.55.62a1.5,1.5,0,0,0-.68-.18V0c1.08,0,1.52,0,2.6,0l3,0c1.12,0,3.79,0,4,0C72,0,75.14,2,75.14,5.1c0,4.67-4.45,5.77-8.26,5.77l-3.9,0H60.76l-1.89,0Zm4-3a1.49,1.49,0,0,0,.57,1.34,6.89,6.89,0,0,0,2.63.38,6.56,6.56,0,0,0,4.25-1.19c1-.8,1.44-1,1.44-2.58a3.71,3.71,0,0,0-1.46-3.26,6.11,6.11,0,0,0-4.26-1.35,10.47,10.47,0,0,0-2.65.24c-.35.16-.52.56-.52,1.23Z"/><path class="cls-1" d="M46.47.11h.12c1.93,0,3,0,4.91,0V.54l-.57.11a.5.5,0,0,0-.4.31,3.75,3.75,0,0,0-.11,1.11c0,2.32-.06,4.68.09,7a.37.37,0,0,0,.1.26.77.77,0,0,0,.37.06h5.4a1.23,1.23,0,0,0,1.06-.49.39.39,0,0,1,.62,0c.19.28-.58,2-1.17,2l-9.25-.05c-.36,0-.44,0-.8,0v-.41a2.49,2.49,0,0,0,.4-.2l.13-.14a11.37,11.37,0,0,0,.12-1.81c0-1.07.06-2.42.06-4,0-.29,0-.65,0-1.08s0-.73,0-.88A4.1,4.1,0,0,0,47.43,1a.63.63,0,0,0-.49-.37L46.47.51Z"/><path class="cls-2" d="M29.9,16.19a.59.59,0,0,1,0-1.17h5.79a.63.63,0,0,1,.59.59v6a.59.59,0,0,1-.59.59.58.58,0,0,1-.58-.59V16.19Z"/><path class="cls-1" d="M43.32,16.52l-1,2.93h1.91Zm-.83-1.38h1.64L46.61,22H45.12l-.46-1.41H42L41.54,22H40.05Zm9.24,1.8V22H50.4v-.6a1.91,1.91,0,0,1-1.54.74,1.68,1.68,0,0,1-1.26-.44,1.85,1.85,0,0,1-.42-1.32V16.94h1.36V20a1.26,1.26,0,0,0,.18.77.74.74,0,0,0,.61.24,1,1,0,0,0,.76-.29,1.05,1.05,0,0,0,.28-.78v-3Zm3.44,5.12h-.44l-.33,0a1.47,1.47,0,0,1-1.07-.3A1.66,1.66,0,0,1,53,20.64V17.9h-.67v-1H53V15.55h1.35v1.39h.78v1h-.78v2.81a.3.3,0,0,0,.09.26.7.7,0,0,0,.36.07h.33Zm1.91-2.59a1.87,1.87,0,0,0,.31,1.17,1.15,1.15,0,0,0,1.76,0,1.87,1.87,0,0,0,.31-1.17,1.88,1.88,0,0,0-.31-1.16,1,1,0,0,0-.88-.4,1,1,0,0,0-.88.4A1.88,1.88,0,0,0,57.08,19.47Zm-1.38,0a2.78,2.78,0,0,1,.69-2,2.46,2.46,0,0,1,1.88-.72,2.49,2.49,0,0,1,1.89.72,2.78,2.78,0,0,1,.69,2,2.78,2.78,0,0,1-.69,2,2.49,2.49,0,0,1-1.89.72,2.46,2.46,0,0,1-1.88-.72A2.78,2.78,0,0,1,55.7,19.47ZM61.77,22V16.94h1.29v.56A1.84,1.84,0,0,1,63.7,17a1.65,1.65,0,0,1,.77-.18,1.71,1.71,0,0,1,.82.18,1.67,1.67,0,0,1,.6.56,1.82,1.82,0,0,1,.63-.55,1.86,1.86,0,0,1,2,.26A1.64,1.64,0,0,1,69,18.47V22H67.65V18.75a.75.75,0,0,0-.2-.57.7.7,0,0,0-.55-.2.79.79,0,0,0-.63.26,1,1,0,0,0-.23.7V22H64.71V18.76a.81.81,0,0,0-.19-.58A.7.7,0,0,0,64,18a.79.79,0,0,0-.63.26,1,1,0,0,0-.23.71V22Zm9.51-2.55a1.94,1.94,0,0,0,.31,1.17,1,1,0,0,0,.89.41,1,1,0,0,0,.88-.41,1.94,1.94,0,0,0,.31-1.17,1.88,1.88,0,0,0-.31-1.16,1,1,0,0,0-.88-.4,1.06,1.06,0,0,0-.89.4A2,2,0,0,0,71.28,19.47Zm-1.37,0a2.82,2.82,0,0,1,.68-2,2.84,2.84,0,0,1,3.78,0,2.78,2.78,0,0,1,.68,2,2.77,2.77,0,0,1-.68,2,2.84,2.84,0,0,1-3.78,0A2.82,2.82,0,0,1,69.91,19.47Zm8.32,2.59h-.44l-.33,0a1.47,1.47,0,0,1-1.07-.3,1.66,1.66,0,0,1-.29-1.15V17.9h-.67v-1h.67V15.55h1.35v1.39h.78v1h-.78v2.81a.3.3,0,0,0,.09.26.7.7,0,0,0,.36.07h.33Zm.82-5.68V15.14h1.36v1.24Zm0,5.64V16.94h1.36V22Zm3.82,0-1.82-5.08h1.5l1,3.65,1-3.65h1.44L84.26,22Zm6.95-1.54h1.36a2.25,2.25,0,0,1-.83,1.26,2.55,2.55,0,0,1-1.52.45,2.18,2.18,0,0,1-1.75-.74,2.93,2.93,0,0,1-.65-2,2.88,2.88,0,0,1,.64-2,2.19,2.19,0,0,1,1.74-.72,2.29,2.29,0,0,1,1.8.71,2.92,2.92,0,0,1,.64,2,1.28,1.28,0,0,1,0,.22v.14H87.84a1.48,1.48,0,0,0,.29.9,1,1,0,0,0,.76.3,1,1,0,0,0,.57-.13A1,1,0,0,0,89.82,20.48Zm-2-1.53h2a1.15,1.15,0,0,0-.27-.79,1,1,0,0,0-.74-.26.9.9,0,0,0-.69.27A1.26,1.26,0,0,0,87.84,19Z"/><path class="cls-1" d="M33.85.07h4.23c-.13.2-.24.39-.09.62l5.54,8.09c.79,1.15.92,1.67,1.42,1.67v.39c-2.22,0-2.41,0-4.63,0v-.41l.63-.19L39.49,7.93H32.71L31.19,10.3l.5.16,0,.41c-1.45,0-1.63,0-3.09,0v-.41c1.36-.19,1-.08,1.81-1.34,1.2-1.91,2.4-3.82,3.52-5.79,1.3-2.27,2.24-2.67-.07-2.86Zm4.66,6.29L36.12,2.55,33.69,6.36Z"/></svg>