<svg id="Layer_1" data-name="Layer 1" xmlns="http://www.w3.org/2000/svg" xmlns:xlink="http://www.w3.org/1999/xlink" viewBox="0 0 72.39 20.68"><defs><style>.cls-1{fill:url(#linear-gradient);}.cls-2{fill:#fff;}.cls-3{fill:url(#linear-gradient-2);}.cls-4{fill:url(#linear-gradient-3);}</style><linearGradient id="linear-gradient" x1="-775.41" y1="102.06" x2="-774.41" y2="102.06" gradientTransform="matrix(5.39, 30.54, 30.54, -5.39, 1092.34, 24227.73)" gradientUnits="userSpaceOnUse"><stop offset="0" stop-color="#002e6e"/><stop offset="0.01" stop-color="#003071"/><stop offset="0.14" stop-color="#00488d"/><stop offset="0.26" stop-color="#0058a2"/><stop offset="0.38" stop-color="#0063af"/><stop offset="0.5" stop-color="#0066b3"/><stop offset="0.62" stop-color="#0063af"/><stop offset="0.74" stop-color="#0058a2"/><stop offset="0.86" stop-color="#00488d"/><stop offset="0.99" stop-color="#003071"/><stop offset="1" stop-color="#002e6e"/></linearGradient><linearGradient id="linear-gradient-2" x1="-775.41" y1="102.06" x2="-774.41" y2="102.06" gradientTransform="matrix(6.54, 7.8, 7.8, -6.54, 4281.52, 6717.23)" gradientUnits="userSpaceOnUse"><stop offset="0" stop-color="#002e6e"/><stop offset="0.2" stop-color="#002e6e"/><stop offset="1" stop-color="#0066b3"/></linearGradient><linearGradient id="linear-gradient-3" x1="-775.41" y1="102.06" x2="-774.41" y2="102.06" gradientTransform="matrix(5.13, 5.13, 5.13, -5.13, 3462.25, 4510.26)" gradientUnits="userSpaceOnUse"><stop offset="0" stop-color="#f58220"/><stop offset="1" stop-color="#fdb913"/></linearGradient></defs><title>symbol</title><path class="cls-1" d="M72.39,20.56l-.12.12H.13L0,20.56V11.08A2.29,2.29,0,0,1,.74,9.6L9.6.74A2.59,2.59,0,0,1,11.09,0H72.27l.12.12Z"/><path class="cls-2" d="M22,14.77a.36.36,0,0,1-.42-.3l-.74-2.15h-3.5l-.73,2.19c-.06.19-.15.26-.32.26H14.91c-.1,0-.14,0-.14-.13l0-.13,3.38-9.32c.08-.18.17-.25.33-.25h1.11a.31.31,0,0,1,.33.22l3.4,9.27,0,.17c0,.12-.06.17-.2.17ZM19,7.05c-.06.23-.14.52-.27.89l-1,3.09h2.63l-1-3.1c-.08-.25-.14-.46-.19-.64L19.08,7l0,0v0h0V7Z"/><path class="cls-2" d="M24.29,14.77c-.18,0-.26-.09-.26-.29V4.88c0-.22.07-.27.23-.3l1-.14h.1a.23.23,0,0,1,.25.26v9.78c0,.27-.14.3-.25.3Z"/><path class="cls-2" d="M27.09,17.73c-.19,0-.28-.11-.28-.32V8.19c0-.2.08-.28.28-.28h.79c.23,0,.31.06.32.23l.06.52.09-.11a2.65,2.65,0,0,1,1.9-.81,2.5,2.5,0,0,1,2,.86,4,4,0,0,1,.87,2.65A4.32,4.32,0,0,1,32.2,14a2.66,2.66,0,0,1-2.1,1,2.29,2.29,0,0,1-1.64-.66l-.09-.1v3.21c0,.26-.11.32-.31.32ZM29.85,9a2.1,2.1,0,0,0-1.47.72V13a1.82,1.82,0,0,0,1.4.72,1.44,1.44,0,0,0,1.15-.55,2.81,2.81,0,0,0,.52-1.78A3,3,0,0,0,31,9.64,1.36,1.36,0,0,0,29.85,9Z"/><path class="cls-2" d="M38.52,14.77c-.15,0-.18,0-.18-.23v-4c0-.61-.12-1.41-1.1-1.41a2.89,2.89,0,0,0-1.7.7l0,0v4.68c0,.19,0,.23-.21.23H34.12c-.12,0-.17,0-.17-.2V4.88c0-.23.09-.28.26-.31l1-.13h.17c.11,0,.18,0,.18.22V8.57l.09-.08a3.52,3.52,0,0,1,2.16-.76c1.42,0,2.14.84,2.14,2.51v4.3c0,.21,0,.23-.17.23Z"/><path class="cls-2" d="M43.6,15a2.48,2.48,0,0,1-2.12-1,4.18,4.18,0,0,1-.68-2.43c0-2.57,1.53-3.74,3-3.74a2.13,2.13,0,0,1,1.73.81l.09.12.08-.54a.22.22,0,0,1,.24-.21h.92c.16,0,.24.09.24.26v5a.71.71,0,0,0,.1.45l.21.08h.11c.15,0,.19,0,.19.19v.67a.2.2,0,0,1-.22.22h-.67a1,1,0,0,1-1.08-.8v0h-.1l0,0A2.62,2.62,0,0,1,43.6,15ZM44.05,9c-.75,0-1.62.61-1.62,2.31,0,1.43.57,2.28,1.53,2.28a1.81,1.81,0,0,0,1.52-1h0V9.81h0A1.82,1.82,0,0,0,44.05,9Z"/><path class="cls-2" d="M51.75,15a2.57,2.57,0,0,1-1.73-.8l-.08-.09-.07.59c0,.06,0,.12-.25.12h-.83c-.2,0-.28-.08-.28-.3V4.93c0-.23.06-.32.23-.34l1-.14.13,0c.09,0,.18,0,.18.24V8.5l.09-.08A2.71,2.71,0,0,1,52,7.73a2.42,2.42,0,0,1,1.74.66,4,4,0,0,1,1,3C54.74,13.09,54,15,51.75,15Zm-.19-5.87a2.29,2.29,0,0,0-1.46.66l0,0v3.12h0a2,2,0,0,0,1.4.73c1,0,1.63-.8,1.63-2.26C53.12,10.32,52.85,9.08,51.56,9.08Z"/><path class="cls-2" d="M58.85,15c-2.1,0-3.41-1.39-3.41-3.63a3.3,3.3,0,0,1,3.38-3.59,2.63,2.63,0,0,1,2,.84,3.85,3.85,0,0,1,.8,2.66v.25c0,.3-.07.37-.4.37H57.09v0a2,2,0,0,0,2,1.79,4.81,4.81,0,0,0,1.73-.35l.13,0,.14.13.2.78,0,.12c0,.07,0,.12-.19.19A5.83,5.83,0,0,1,58.85,15Zm-.12-6a1.71,1.71,0,0,0-1.61,1.65v.15h3.06v-.31A1.52,1.52,0,0,0,58.73,9Z"/><path class="cls-2" d="M64.77,15a2,2,0,0,1-1.62-.59c-.42-.48-.43-1-.43-2.1V9.14h-.56c-.22,0-.25,0-.25-.3V8.15c0-.11,0-.24.19-.24h.65l0-1.58c0-.19.07-.26.3-.29l1-.13h.07c.11,0,.21,0,.21.26V7.91h1.62c.15,0,.21,0,.21.19v.82a.2.2,0,0,1-.23.22h-1.6v3.2a1.8,1.8,0,0,0,.19,1,.75.75,0,0,0,.69.32,2.78,2.78,0,0,0,.91-.17l.12,0s.1,0,.13.14l.14.71v.08c0,.11,0,.17-.18.22A3.9,3.9,0,0,1,64.77,15Z"/><path class="cls-3" d="M11.81,11.44c.12,1.82-.94,2-1.47,1.84L1.11,10.71S0,10.34,0,11.08A2.62,2.62,0,0,1,.75,9.59L9.6.74A2.58,2.58,0,0,1,11.08,0s-.37,0-.37,1.1Z"/><path class="cls-4" d="M9.6.74.74,9.6A2.58,2.58,0,0,0,0,11.08a.72.72,0,0,1,.74-.74h9.48l.12-.12V.74A.72.72,0,0,1,11.08,0,2.58,2.58,0,0,0,9.6.74Z"/></svg>