<svg id="Layer_1" data-name="Layer 1" xmlns="http://www.w3.org/2000/svg" xmlns:xlink="http://www.w3.org/1999/xlink" viewBox="0 0 109.25 25.23"><defs><style>.cls-1{fill:url(#linear-gradient);}.cls-2{fill:url(#linear-gradient-2);}.cls-3{fill:url(#linear-gradient-3);}.cls-4{fill:url(#linear-gradient-4);}.cls-5{fill:url(#linear-gradient-5);}.cls-6{fill:url(#linear-gradient-6);}.cls-7{fill:#fff;}.cls-8{fill:#1a1818;}</style><linearGradient id="linear-gradient" x1="-869.05" y1="102.06" x2="-868.05" y2="102.06" gradientTransform="matrix(0, 26.63, 26.63, 0, -2705.55, 23144.14)" gradientUnits="userSpaceOnUse"><stop offset="0" stop-color="#007042"/><stop offset="0.6" stop-color="#6ec09d"/><stop offset="1" stop-color="#00995a"/></linearGradient><linearGradient id="linear-gradient-2" x1="-869.05" y1="102.06" x2="-868.05" y2="102.06" gradientTransform="matrix(0, 29.93, 29.93, 0, -3041.85, 26001.71)" gradientUnits="userSpaceOnUse"><stop offset="0" stop-color="#00995a"/><stop offset="0.3" stop-color="#6ec09d"/><stop offset="0.55" stop-color="#00995a"/><stop offset="0.84" stop-color="#007042"/><stop offset="0.88" stop-color="#00794a"/><stop offset="0.96" stop-color="#00915e"/><stop offset="1" stop-color="#009f6a"/></linearGradient><linearGradient id="linear-gradient-3" x1="-869.05" y1="102.06" x2="-868.05" y2="102.06" gradientTransform="matrix(0, -19.37, -19.37, 0, 1993.97, -16808.46)" gradientUnits="userSpaceOnUse"><stop offset="0" stop-color="#00a674"/><stop offset="1" stop-color="#00995a"/></linearGradient><linearGradient id="linear-gradient-4" x1="-869.05" y1="102.06" x2="-868.05" y2="102.06" gradientTransform="matrix(0, -19.37, -19.37, 0, 1982.55, -16813.48)" xlink:href="#linear-gradient-3"/><linearGradient id="linear-gradient-5" x1="-869.05" y1="102.06" x2="-868.05" y2="102.06" gradientTransform="matrix(0, -19.36, -19.36, 0, 1985.08, -16803.19)" xlink:href="#linear-gradient-3"/><linearGradient id="linear-gradient-6" x1="-869.05" y1="102.06" x2="-868.05" y2="102.06" gradientTransform="matrix(0, -19.36, -19.36, 0, 1988.6, -16805.64)" xlink:href="#linear-gradient-3"/></defs><title>symbol</title><rect class="cls-1" width="25.23" height="25.23"/><path class="cls-2" d="M24.45,12.76c0,5.27.24,10.66.24,10.66a.91.91,0,0,1-.88,1H2a1,1,0,0,1-.88-1A94.81,94.81,0,0,1,.46,11.78,62.21,62.21,0,0,1,1.09,1.44c.07-.58.39-1,.88-1H23.81a.94.94,0,0,1,.88,1S24.45,7.49,24.45,12.76Z"/><path class="cls-3" d="M19.59,6.81c-1.56.92-2,1-3.73,2l.08-.19A16.74,16.74,0,0,0,17.8,6.39,40,40,0,0,0,12.35,7l.08-.17A23,23,0,0,1,18,5.24,19.1,19.1,0,0,0,14.23,3l.09-.17a18.26,18.26,0,0,1,6.08,2,9.73,9.73,0,0,1,2-.26s-.14.57-1.18,1.28c.26.69-.36,4.5-.86,5.5C20.32,9.69,20.18,7.68,19.59,6.81Z"/><path class="cls-4" d="M8.19,20.45l.08-.17a6.82,6.82,0,0,1-2.33-1.21,6.88,6.88,0,0,1,.85-1.63l.08-.18c-.71.11-1.35.37-2,.49A11.72,11.72,0,0,1,4,14.62l-.08.18a10.58,10.58,0,0,0,0,3.18c-.51.15-1,.17-1.38.34l-.08.18a19.82,19.82,0,0,0,1.94,1.06,6.57,6.57,0,0,0,1.48,2.09l.08-.18a3.69,3.69,0,0,1-.22-1.41A9.39,9.39,0,0,0,8.19,20.45Z"/><path class="cls-5" d="M10.49,7.78a9.29,9.29,0,0,0-.6,1.38H9.83a13.89,13.89,0,0,1,4.24,1.32l-.08.17a14.15,14.15,0,0,0-3.83-.25,3.06,3.06,0,0,0-.91.17,15.19,15.19,0,0,0-.79,3.06l-.08.18c-.37-.89-.9-2.66-.9-2.66a27.47,27.47,0,0,0-3.36,2.74,13.79,13.79,0,0,1,2.6-3.75,4.48,4.48,0,0,0-2.49-.72l.08-.17A12.77,12.77,0,0,1,6.71,9,12.2,12.2,0,0,1,8.12,9,7.24,7.24,0,0,1,10.49,7.78Z"/><path class="cls-6" d="M13,18.85a17.51,17.51,0,0,1-1.2,1.5,9.16,9.16,0,0,1-2.07.12l-.08.17a5.25,5.25,0,0,0,1.39.49A11.17,11.17,0,0,1,9.72,22l-.08.18a10.09,10.09,0,0,0,2.6-1,4.75,4.75,0,0,0,1-.06l.08-.18c0-.18-.2-.29-.25-.54A17.7,17.7,0,0,0,15,18.74l.09-.18a16.1,16.1,0,0,1-2,1.32C13,19.53,13,19.24,13,18.85Z"/><path class="cls-7" d="M19.67,6.64c-1.56.91-2,1-3.73,2a16.76,16.76,0,0,0,1.94-2.42,37,37,0,0,0-5.45.63,21.89,21.89,0,0,1,5.68-1.79A19.78,19.78,0,0,0,14.32,2.8a16.37,16.37,0,0,1,6.17,1.78,10.54,10.54,0,0,1,2-.25,2.59,2.59,0,0,1-1.19,1.28c.26.69-.36,4.49-.87,5.5C20.41,9.52,20.27,7.51,19.67,6.64Z"/><path class="cls-7" d="M8.27,20.28A6.4,6.4,0,0,1,6,18.9a7.56,7.56,0,0,1,.85-1.64c-.72.11-1.26.19-1.89.31a9.66,9.66,0,0,1-1-3,10.65,10.65,0,0,0,0,3.19,9.94,9.94,0,0,0-1.46.51,19,19,0,0,0,1.94,1.07,6.53,6.53,0,0,0,1.48,2.08,3.71,3.71,0,0,1-.13-1.59A9.25,9.25,0,0,0,8.27,20.28Z"/><path class="cls-7" d="M10.6,7.63h0A5.24,5.24,0,0,0,9.91,9a11.4,11.4,0,0,1,4.16,1.5,13.34,13.34,0,0,0-3.83-.25,3,3,0,0,0-.91.16,16.2,16.2,0,0,0-.87,3.24C8.1,12.74,7.57,11,7.57,11a27.45,27.45,0,0,0-3.36,2.75A13.45,13.45,0,0,1,6.8,10a4.4,4.4,0,0,0-2.49-.72,9.83,9.83,0,0,1,2.48-.44,13.68,13.68,0,0,1,1.42,0A6.88,6.88,0,0,1,10.6,7.63Z"/><path class="cls-7" d="M13.05,18.68c-.41.55-.76,1-1.21,1.49a7.39,7.39,0,0,1-2.15.3,5.16,5.16,0,0,0,1.4.48A10,10,0,0,1,9.72,22a9.92,9.92,0,0,0,2.6-1,5.36,5.36,0,0,0,1-.07,6.8,6.8,0,0,1-.17-.71,17.9,17.9,0,0,0,1.86-1.69,12.46,12.46,0,0,1-2,1.14C13.08,19.36,13.06,19.07,13.05,18.68Z"/><path class="cls-8" d="M34.23,17c.84,0,1.76.3,1.76,1.08,0,.42-.36.79-.9,1,.72.26,1.13.67,1.13,1.21,0,.94-1.15,1.26-2.22,1.26H31.54c.06-.59.07-1.44.07-2.38,0-.62,0-1.56-.07-2.15Zm-.69.57a3.51,3.51,0,0,0-.54,0c0,.58,0,.87,0,1.54s0,1.12,0,1.77h.65c.78,0,1.15-.23,1.15-.7s-.48-.77-1.11-.77h-.38l.26-.68h.28c.32,0,.75-.16.75-.58S34.2,17.59,33.54,17.59Z"/><path class="cls-8" d="M41.21,17c-.05.51-.07,1.71-.07,2.15s0,1.76.07,2.38H40.14L38.43,19a1.41,1.41,0,0,1-.29-.62v1.44c0,.54,0,1.32.07,1.71H37c.07-.69.08-2,.08-2.38s0-1.64-.06-2.15H38.4l1.45,2.35a1.14,1.14,0,0,1,.13.28V17Z"/><path class="cls-8" d="M44.51,17c1,0,2.17.28,2.17,1.33s-.84,1.39-2.55,1.39h-.45c0,.63,0,1.39.06,1.82H42.26c.06-.62.07-1.65.07-2.38s0-1.72-.07-2.15Zm-.82.63c0,.29,0,.6,0,.89s0,.39,0,.55h.44c.48,0,1.14-.14,1.14-.75s-.68-.71-1.19-.71Z"/><path class="cls-8" d="M51.36,17c1,0,2.17.28,2.17,1.33s-.84,1.39-2.54,1.39h-.46c0,.63,0,1.39.07,1.82H49.11c.06-.62.08-1.65.08-2.38s0-1.72-.08-2.15Zm-.81.63c0,.29,0,.6,0,.89s0,.39,0,.55H51c.48,0,1.14-.14,1.14-.75s-.68-.71-1.19-.71Z"/><path class="cls-8" d="M56.18,17c.16.54,1.66,3.8,2,4.53H56.7c-.06-.18-.18-.42-.4-1h-.77l-.77,0c-.13.37-.25.66-.36,1H53.11c.25-.56,1.74-3.81,2-4.53Zm-.13,2.85c-.18-.44-.42-1-.54-1.36-.12.38-.39,1-.53,1.36l.55,0Z"/><path class="cls-8" d="M61,17c1,0,2.18.35,2.18,1.4,0,.57-.42,1-1.07,1.23.13.24,1.23,1.66,1.45,1.9H61.9c-.29-.55-.83-1.49-1.37-2.29.64.09,1.21-.22,1.21-.84s-.69-.78-1-.78h-.53c0,.56,0,1.22,0,1.52s0,1.69.08,2.38H58.7a20.92,20.92,0,0,0,.1-2.38A18.84,18.84,0,0,0,58.72,17Z"/><path class="cls-8" d="M65.6,17c0,.51-.06,1.72-.06,2.16s0,1.75.06,2.37H64.11c.07-.69.08-2,.08-2.37s0-1.65-.06-2.16Z"/><path class="cls-8" d="M69.27,17c.84,0,1.76.3,1.76,1.08,0,.42-.36.79-.9,1,.72.26,1.13.67,1.13,1.21,0,.94-1.15,1.26-2.22,1.26H66.58c.06-.59.07-1.44.07-2.38,0-.62,0-1.56-.06-2.15Zm-.68.57a3.56,3.56,0,0,0-.55,0c0,.58,0,.87,0,1.54s0,1.12,0,1.77h.65c.78,0,1.15-.23,1.15-.7s-.48-.77-1.11-.77h-.38l.26-.68h.28c.32,0,.75-.16.75-.58S69.24,17.59,68.59,17.59Z"/><path class="cls-8" d="M74.49,17c.17.54,1.66,3.8,2,4.53H75c-.06-.18-.17-.42-.39-1h-.78l-.76,0c-.13.37-.25.66-.36,1H71.43c.25-.56,1.73-3.81,2-4.53Zm-.12,2.85c-.18-.44-.42-1-.54-1.36-.13.38-.4,1-.53,1.36l.54,0Z"/><path class="cls-8" d="M78.84,16.9a5.36,5.36,0,0,1,1.49.2v1.15a3.07,3.07,0,0,0-1.63-.53c-.51,0-.55.2-.55.35,0,.77,2.58.77,2.58,2.14,0,.89-.83,1.46-2.21,1.46a5.15,5.15,0,0,1-1.62-.27V20.3a4.71,4.71,0,0,0,1.89.59c.36,0,.62-.16.62-.47,0-.86-2.57-.78-2.57-2.25C76.84,17.36,77.64,16.9,78.84,16.9Z"/><path class="cls-8" d="M88.06,19.35c0,.44,0,1.39-.07,1.92a4.7,4.7,0,0,1-2,.4,2.49,2.49,0,0,1-2.76-2.36c0-1.37,1.13-2.41,3-2.41a7,7,0,0,1,1.49.18l-.32.89a2.69,2.69,0,0,0-1.19-.35,1.52,1.52,0,0,0-1.44,1.7c0,1.26.69,1.67,1.45,1.67a2.58,2.58,0,0,0,.48,0c0-.55,0-1.24-.05-1.61Z"/><path class="cls-8" d="M91.19,17c1,0,2.18.35,2.18,1.4,0,.57-.42,1-1.08,1.23.14.24,1.24,1.66,1.46,1.9H92.12a24.82,24.82,0,0,0-1.37-2.29c.65.09,1.21-.22,1.21-.84s-.69-.78-1-.78H90.4c0,.56,0,1.22,0,1.52s0,1.69.07,2.38H88.93A21.14,21.14,0,0,0,89,19.17,19.15,19.15,0,0,0,89,17Z"/><path class="cls-8" d="M96.45,21.68a2.39,2.39,0,1,1,2.46-2.39A2.34,2.34,0,0,1,96.45,21.68Zm0-4.2c-.65,0-1.07.64-1.07,1.81s.42,1.79,1.07,1.79,1-.62,1-1.79S97.1,17.48,96.45,17.48Z"/><path class="cls-8" d="M101,17c0,.3,0,.62,0,.93v2.16c0,.59.18.94.76.94s1-.21,1-1.13V17.73a2.83,2.83,0,0,0,0-.71H104c0,.4,0,1.13,0,1.87v1.28c0,1-.73,1.5-2.17,1.5s-2.12-.28-2.12-1.57V18.45A12.44,12.44,0,0,0,99.54,17Z"/><path class="cls-8" d="M107.09,17c1,0,2.16.28,2.16,1.33s-.84,1.39-2.54,1.39h-.45c0,.63,0,1.39.06,1.82h-1.48c0-.62.07-1.65.07-2.38s0-1.72-.07-2.15Zm-.82.63c0,.29,0,.6,0,.89s0,.39,0,.55h.44c.48,0,1.14-.14,1.14-.75s-.68-.71-1.19-.71Z"/><path class="cls-8" d="M37.84,3.65c.38,1,3.62,8.23,4.38,9.86H39.5c-.16-.45-.48-1.27-.9-2.33l-2,0-2,0c-.31.84-.56,1.6-.79,2.33H31.54c.56-1.23,3.87-8.41,4.39-9.86Zm.24,6.24C37.43,8.34,36.86,7,36.67,6.55c-.45,1-1,2.08-1.47,3.34l1.47,0Z"/><path class="cls-8" d="M47.75,3.65c2.07,0,4.54.57,4.54,2.86,0,1.28-.75,2.14-2.23,2.59a51.09,51.09,0,0,0,3,4.41H50.1C49.46,12.28,48,9.8,46.92,8.2a3.7,3.7,0,0,0,.76.07,2,2,0,0,0,2.07-1.76c0-1.43-1.72-1.68-2.58-1.68a8.85,8.85,0,0,0-1.07.06C46.05,6.11,46,7.65,46,8.34c0,.87,0,3.79.15,5.17H43.42c.14-1.37.17-3.13.17-5.17a46.86,46.86,0,0,0-.14-4.69Z"/><path class="cls-8" d="M53.38,3.65h2.7c.73,2.6,1.64,5.07,2.41,7.08A57.34,57.34,0,0,0,61,3.65h2.3c-1.33,2.95-3,6.87-4.13,9.86H57.36Z"/><path class="cls-8" d="M68.55,3.65c.38,1,3.62,8.23,4.38,9.86H70.21c-.16-.45-.48-1.27-.9-2.33l-2,0-2,0c-.31.84-.56,1.6-.79,2.33H62.25c.56-1.23,3.87-8.41,4.39-9.86Zm.23,6.24C68.14,8.34,67.57,7,67.37,6.55c-.45,1-.94,2.08-1.46,3.34l1.46,0Z"/><path class="cls-8" d="M82,13.51H74.28c.14-1.37.14-4.3.14-5.16s-.06-3.56-.14-4.7H77c-.07,1.14-.12,3.73-.12,4.7,0,.65,0,2.48,0,3.89h1.46c1.49,0,2.59-.08,3.63-.17Z"/></svg>