<svg id="LAYERS" xmlns="http://www.w3.org/2000/svg" viewBox="0 0 82.89 30.67"><defs><style>.cls-1{fill:#0c4e97;}.cls-2{fill:#ef412e;}</style></defs><title>BVRLA</title><g id="BVRLA"><path class="cls-1" d="M7.68,12.73a6,6,0,0,1,2.12.36,4.79,4.79,0,0,1,1.65,1,4.59,4.59,0,0,1,1.06,1.57,5.2,5.2,0,0,1,.38,2,4.71,4.71,0,0,1-.4,2.05,4.11,4.11,0,0,1-1,1.29,4.16,4.16,0,0,1,1,.61,4.22,4.22,0,0,1,.84,1,5.32,5.32,0,0,1,.58,1.32,5.75,5.75,0,0,1,.22,1.66,4.51,4.51,0,0,1-1.66,3.8A7.16,7.16,0,0,1,8,30.67H0V12.73Zm.07,7.05a1.1,1.1,0,0,0,.52-.14,1.67,1.67,0,0,0,.46-.38A1.94,1.94,0,0,0,9,18.74a1.71,1.71,0,0,0,.11-.59A1.6,1.6,0,0,0,8.76,17a1.29,1.29,0,0,0-1-.42H3.92v3.16Zm-3.83,7H8.27a2.5,2.5,0,0,0,1.51-.44,1.51,1.51,0,0,0,.59-1.27,1.43,1.43,0,0,0-.21-.76,2,2,0,0,0-.54-.57,3,3,0,0,0-.76-.36A2.83,2.83,0,0,0,8,23.28H3.92Z" transform="translate(0 0)"/><path class="cls-1" d="M18.62,30.67,12.21,12.73h4.41L20.25,23.9l3.66-11.17h4.35L21.83,30.67Z" transform="translate(0 0)"/><path class="cls-1" d="M35.37,24.24H32.83v6.43h-4V12.73h7.52a8.27,8.27,0,0,1,2.51.36,5.55,5.55,0,0,1,1.93,1.06A4.73,4.73,0,0,1,42,15.88a5.83,5.83,0,0,1,.44,2.37,6.79,6.79,0,0,1-.27,2,6,6,0,0,1-.71,1.53,4.61,4.61,0,0,1-1,1.09,5,5,0,0,1-1.2.66l4,7.13H38.64ZM32.8,20.51h3.68A2.66,2.66,0,0,0,38.1,20a1.73,1.73,0,0,0,.64-1.51,1.66,1.66,0,0,0-.64-1.46,2.72,2.72,0,0,0-1.62-.45H32.8Z" transform="translate(0 0)"/><path class="cls-1" d="M43.9,12.73h4v14h7.65v3.94H43.9Z" transform="translate(0 0)"/><path class="cls-1" d="M62.6,12.73h3.21l6.43,17.94H67.86l-1-3.16H61.58l-1,3.16H56.19Zm.07,11h3L64.18,19Z" transform="translate(0 0)"/></g><g id="Swoosh"><path class="cls-2" d="M11.13,9.67S20.78,5.94,28.26,4C35.19,2.14,46.88,0,55.84.31s18.43.77,23.83,5.1c4.53,3.62,2.8,8-.68,10.65a30.83,30.83,0,0,1-7.46,4s3.87-1.77,4.68-3.79c1.11-2.79,1.27-6.88-6.13-9.41a60.38,60.38,0,0,0-21-3.14c-2.08.08-10.48.58-18.2,1.76C21.08,7,11.13,9.67,11.13,9.67Z" transform="translate(0 0)"/><path class="cls-2" d="M11.4,9.81C24.58,4.74,38.44.8,52.65.5a101.09,101.09,0,0,1,13,.61c4.08.45,8.38,1.19,12,3.32s5.68,6,2.8,9.76C78.29,17,74.51,18.79,71.26,20l.64.25c2.91-1.36,5.6-3.48,5.36-7-.38-5.35-7.73-6.92-11.81-7.91C53.61,2.4,41.22,3.62,29.32,5.57,23.16,6.58,17,7.89,11,9.49c-.65.17-.12.47.31.36A168,168,0,0,1,49.67,3.94,56.86,56.86,0,0,1,61.74,5c4.15.78,9.58,1.68,12.74,4.71a5.63,5.63,0,0,1,1.48,6c-.68,2.15-2.85,3.44-4.8,4.35-.46.22.46.32.64.25,4.09-1.46,10.28-4.34,11-9.18,1-6.33-8.11-8.91-12.72-9.77C56.17-1.3,41.35.24,27.75,3.88A170.46,170.46,0,0,0,10.87,9.52C10.26,9.75,11.11,9.92,11.4,9.81Z" transform="translate(0 0)"/></g></svg>