<svg id="Layer_1" data-name="Layer 1" xmlns="http://www.w3.org/2000/svg" viewBox="0 0 88.31 25.35"><defs><style>.cls-1{fill:#353535;}.cls-2{fill:#d00;}.cls-3{fill:#1a1818;}</style></defs><title>symbol</title><path class="cls-1" d="M0,15.89l2.71-.24c.18,0,.26,0,.25.21s0,.48,0,.73c0,2.07,0,4.16,0,6.24,0,.26-.06.37-.34.35a6.37,6.37,0,0,0-1.07,0c-.26,0-.32-.08-.32-.33,0-1.8,0-3.61,0-5.41,0-1,0-1-1-1.1l-.27,0C0,16.17,0,16,0,15.89Z"/><path class="cls-1" d="M5.66,6.29c0-1.88,0-3.77,0-5.66,0-.24.07-.31.31-.3.86,0,1.72,0,2.59,0,.25,0,.3.07.29.31,0,1.38,0,2.76,0,4.14,0,.27.07.35.34.34h5.69c.27,0,.36-.06.35-.34,0-1.38,0-2.76,0-4.14,0-.24.06-.32.31-.31.88,0,1.74,0,2.62,0,.21,0,.28,0,.28.27,0,3.81,0,7.61,0,11.42,0,.21-.06.28-.28.27H15.5c-.24,0-.31-.07-.31-.31,0-1.54,0-3.08,0-4.62,0-.28-.07-.34-.34-.34Q12,7,9.16,7c-.27,0-.34.07-.34.34,0,1.54,0,3.08,0,4.62,0,.24-.06.31-.3.31H5.94c-.25,0-.31-.07-.31-.31C5.66,10.09,5.66,8.19,5.66,6.29Z"/><path class="cls-1" d="M65,6.33c0-1.89,0-3.78,0-5.66,0-.28.07-.35.34-.34.85,0,1.68,0,2.52,0,.23,0,.29.07.29.29,0,1.38,0,2.76,0,4.14,0,.29.08.36.37.36h5.73c.25,0,.33-.06.32-.32,0-1.39,0-2.77,0-4.15,0-.25.07-.33.33-.33.86,0,1.73,0,2.59,0,.19,0,.25,0,.25.25V12c0,.19,0,.26-.24.26-.88,0-1.75,0-2.63,0-.26,0-.29-.1-.29-.33,0-1.53,0-3.06,0-4.59,0-.28-.07-.37-.36-.36H68.46c-.28,0-.38.06-.37.36,0,1.53,0,3.06,0,4.59,0,.26-.07.33-.33.33q-1.26,0-2.52,0c-.25,0-.3-.07-.3-.32C65,10.1,65,8.21,65,6.33Z"/><path class="cls-1" d="M61.57,4.39H60.19c-.13,0-.23,0-.27-.17a2.55,2.55,0,0,0-2.8-2.33A4.27,4.27,0,0,0,55,2.28,2.56,2.56,0,0,0,53.66,3.7a7,7,0,0,0-.12,5.05A2.89,2.89,0,0,0,56,10.63a4.76,4.76,0,0,0,2.28-.11A2.31,2.31,0,0,0,60,8.32c0-.28.1-.36.38-.36Q61.69,8,63,8c.22,0,.29.07.27.29a3.94,3.94,0,0,1-2.67,3.6,10.16,10.16,0,0,1-7.57,0,5,5,0,0,1-3.14-4.17,7.15,7.15,0,0,1,.82-4.9A5.34,5.34,0,0,1,53.93.45a9.9,9.9,0,0,1,6.62.26,4,4,0,0,1,2.67,3.46c0,.2,0,.21-.2.21Z"/><path class="cls-1" d="M31.63.34h6.08c.31,0,.38.09.37.39a12,12,0,0,0,0,1.34c0,.24-.06.31-.3.3H33.57c-.29,0-.36.06-.36.35,0,3.08,0,6.15,0,9.21,0,.29-.06.4-.37.38-.83,0-1.66,0-2.49,0-.27,0-.34-.07-.34-.34,0-3.07,0-6.14,0-9.21,0-.3-.06-.4-.39-.39-1.38,0-2.76,0-4.14,0-.24,0-.33,0-.31-.29,0-.47,0-.95,0-1.42,0-.26.07-.32.32-.32Z"/><path class="cls-1" d="M80.16,6.31c0-1.88,0-3.77,0-5.65,0-.26.06-.33.32-.33.86,0,1.73,0,2.59,0,.23,0,.28.07.28.29V12c0,.23-.06.3-.29.29H80.47c-.26,0-.32-.07-.32-.32C80.17,10.08,80.16,8.2,80.16,6.31Z"/><path class="cls-1" d="M20.91,6.29c0-1.87,0-3.75,0-5.62,0-.28.08-.35.35-.34.83,0,1.66,0,2.48,0,.22,0,.33,0,.33.29,0,3.8,0,7.59,0,11.39,0,.23-.08.29-.3.28H21.21c-.25,0-.3-.08-.3-.31C20.92,10.09,20.91,8.19,20.91,6.29Z"/><path class="cls-1" d="M69.53,21.34v-.43c0-1.6,0-3.22,0-4.83,0-.28.08-.35.34-.34a7.85,7.85,0,0,0,1,0c.17,0,.21.06.21.22v7c0,.19-.06.24-.24.23-.43,0-.87,0-1.31,0a.51.51,0,0,1-.5-.27c-1.14-1.74-2.3-3.47-3.44-5.21a1,1,0,0,0-.28-.29v.35c0,1.69,0,3.38,0,5.07,0,.27,0,.38-.34.36a4.41,4.41,0,0,0-.89,0c-.29,0-.33-.1-.33-.35V17.26c0-.86,0-.86-.84-1-.18,0-.37,0-.34-.31s0-.18.18-.17h3c.2,0,.24.15.32.26q1.65,2.49,3.28,5Z"/><path class="cls-1" d="M49,19A2.25,2.25,0,0,1,51,17.88a1.36,1.36,0,0,1,1.42,1.38c0,1.23,0,2.46,0,3.69,0,.17-.06.22-.22.22s-.6,0-.9,0-.32-.06-.31-.31c0-.93,0-1.86,0-2.79a5.25,5.25,0,0,0,0-.56.75.75,0,0,0-1.2-.61A1.75,1.75,0,0,0,49,20.47c0,.8,0,1.59,0,2.38,0,.24-.05.33-.3.32a3.84,3.84,0,0,0-.83,0c-.27,0-.32-.09-.32-.34V16.9c0-.57-.14-.7-.72-.74-.14,0-.24,0-.24-.2s.05-.22.21-.24c.65-.08,1.3-.16,2-.27.22,0,.25,0,.24.22,0,1,0,2,0,2.94A3.13,3.13,0,0,1,49,19Z"/><path class="cls-1" d="M6.84,17.86v1l.56-.46a2.15,2.15,0,0,1,1.84-.49,1.29,1.29,0,0,1,1.12,1.22c.08.8,0,1.61,0,2.41,0,.46,0,.91,0,1.38,0,.19-.06.28-.25.25h0c-.37,0-.86.16-1.08-.07s0-.68-.06-1c0-.85,0-1.7-.05-2.55-.09-.69-.59-.94-1.18-.56a1.82,1.82,0,0,0-.88,1.59c0,.78,0,1.56,0,2.35,0,.22-.05.31-.29.29s-.85.15-1.09-.09-.05-.67-.05-1c0-.88,0-1.75,0-2.63,0-.61-.11-.71-.71-.78-.13,0-.23,0-.24-.21s.07-.22.22-.24C5.38,18.08,6.1,18,6.84,17.86Z"/><path class="cls-1" d="M44.33,20.42c0,.49,0,1,0,1.48s.16.68.68.7h.35c.43,0,.42,0,.41.4,0,.15-.05.2-.19.22a5,5,0,0,1-1.68,0,1.06,1.06,0,0,1-1-1c-.1-.85,0-1.72,0-2.58v-.17c0-.26.09-.56,0-.75s-.46-.07-.71-.07-.21-.19-.21-.34,0-.33.22-.33.57.12.69-.06,0-.48,0-.74c0-.82,0-.82.83-.82.62,0,.62,0,.62.63v.76c0,.18.05.24.23.23.38,0,.76,0,1.14,0s.22.19.22.34,0,.33-.23.31-.69,0-1,0-.35.09-.33.35C44.33,19.45,44.32,19.93,44.33,20.42Z"/><path class="cls-1" d="M12.07,22a3,3,0,0,0,1.9.6,1.34,1.34,0,0,0,.44-.1.51.51,0,0,0,.16-.85,2.35,2.35,0,0,0-.77-.51,7.42,7.42,0,0,1-1.17-.65,1.35,1.35,0,0,1,.32-2.4A4.45,4.45,0,0,1,15.53,18c.11,0,.13.1.13.2v.87a5.9,5.9,0,0,0-.95-.46,1.89,1.89,0,0,0-.88-.08.5.5,0,0,0-.47.35.52.52,0,0,0,.19.52,3.65,3.65,0,0,0,.91.54,4.44,4.44,0,0,1,.93.52A1.45,1.45,0,0,1,16,21.94a1.37,1.37,0,0,1-1,1.11,4.86,4.86,0,0,1-2.85.06c-.13,0-.15-.11-.14-.23Z"/><path class="cls-1" d="M86.78,18A3.78,3.78,0,0,0,88,18c.23,0,.32.06.32.31s-.12.25-.32.26a4.45,4.45,0,0,0-1.21.06,11.37,11.37,0,0,0,0,1.65c0,.57,0,1.15,0,1.73,0,.4.18.54.58.57.18,0,.35,0,.52,0s.35-.16.35.15.09.47-.31.5a6.43,6.43,0,0,1-1.58,0,1.08,1.08,0,0,1-1-1.16c0-1,0-2.05,0-3.07,0-.29-.07-.41-.36-.36h-.2c-.39,0-.49-.14-.4-.53,0-.16.15-.12.24-.12.72,0,.72,0,.72-.75,0-.3,0-.58,0-.87h0c.4,0,.8,0,1.2,0,.19,0,.22.08.22.25A8.87,8.87,0,0,0,86.78,18Z"/><path class="cls-1" d="M81.13,19.76c.86,1.11,1.72,2.22,2.63,3.41h-1.6c-.13,0-.17-.12-.23-.19-.38-.49-.76-1-1.12-1.49-.13-.17-.23-.17-.32,0a1.1,1.1,0,0,1-1.24.56c-.21,0-.43,0-.74,0,.36-.4.66-.76,1-1.1.5-.57.51-.57,0-1.17-.16-.22-.35-.43-.5-.65a1.52,1.52,0,0,0-1.19-.73c-.15,0-.25,0-.24-.24s.16-.18.29-.18c.54,0,1.08,0,1.62,0a.49.49,0,0,1,.44.21c.33.46.69.91,1,1.37C81.09,19.58,81.07,19.69,81.13,19.76Z"/><path class="cls-1" d="M30,17.86v1l.2-.29a1.7,1.7,0,0,1,1.86-.66.21.21,0,0,1,.16.23v1c-.2,0-.39-.08-.58-.1A1.35,1.35,0,0,0,30,20.45c0,.82,0,1.63,0,2.45,0,.23-.07.3-.29.28s-.86.16-1.09-.08-.06-.69-.06-1.06c0-.87,0-1.75,0-2.62,0-.57-.12-.7-.7-.76-.14,0-.26,0-.26-.22s.13-.21.26-.23C28.59,18.07,29.3,18,30,17.86Z"/><path class="cls-1" d="M26.24,17.86V23c0,.17-.08.2-.23.2s-.57,0-.86,0-.31-.05-.31-.29c0-1.12,0-2.23,0-3.35,0-.7-.08-.79-.76-.88-.13,0-.2,0-.2-.2s.05-.22.2-.25Z"/><path class="cls-2" d="M85.33,16.37H83.89c-.06-.12,0-.16.08-.21.49-.59,1-1.16,1.5-1.75a.44.44,0,0,1,.38-.17h1.27C86.5,15,85.91,15.67,85.33,16.37Z"/><path class="cls-3" d="M81.13,19.76,81,19.55a14,14,0,0,0,1.22-1.34.58.58,0,0,1,.5-.23c.38,0,.76,0,1.21,0-.51.58-1,1.1-1.43,1.62-.09.11-.24.05-.36.06C81.79,19.72,81.45,19.57,81.13,19.76Z"/><path class="cls-3" d="M25.57,17.22a.78.78,0,1,1,0-1.54.83.83,0,0,1,.87.75A.82.82,0,0,1,25.57,17.22Z"/><path class="cls-1" d="M22.82,19.69a2.08,2.08,0,0,0-3.5-1.26s-.07.1-.17.05a2.8,2.8,0,0,1,0-.29c0-.28-.07-.34-.34-.29-.6.11-1.2.19-1.8.29-.14,0-.26,0-.26.24s.14.2.27.21c.55.06.67.19.7.74,0,.16,0,.33,0,.49,0,1.82,0,3.65,0,5.48h1.38c.09-.85,0-1.71.05-2.59l.11.08a2.17,2.17,0,0,0,3.45-1.07A4.31,4.31,0,0,0,22.82,19.69Zm-1.69,2.19a.85.85,0,0,1-.88.64,1,1,0,0,1-.93-.63,3.19,3.19,0,0,1-.17-1.22,3.4,3.4,0,0,1,.23-1.38,1,1,0,0,1,.94-.63.91.91,0,0,1,.87.72A4,4,0,0,1,21.13,21.88Z"/><path class="cls-1" d="M50.24,12C48.46,8.18,46.67,4.39,44.9.6a.4.4,0,0,0-.44-.27c-1.07,0-2.14,0-3.21,0a.46.46,0,0,0-.51.33L37.2,8.27l-1.88,4h3.33c.2,0,.23-.13.28-.25.28-.71.56-1.4.83-2.12a.35.35,0,0,1,.38-.24h5.39a.33.33,0,0,1,.38.24c.27.7.56,1.39.82,2.09a.35.35,0,0,0,.39.28c1,0,2,0,2.93,0C50.37,12.3,50.35,12.2,50.24,12ZM44.73,7.78c-1.27,0-2.53,0-3.8,0-.16,0-.33,0-.21-.25l2.07-5,.07-.11c.29.73.57,1.41.85,2.1.41,1,.81,2,1.23,3C45,7.74,45,7.79,44.73,7.78Z"/><path class="cls-1" d="M74.28,20.13c1,0,1.93,0,2.9,0,.13,0,.28.05.28-.18A1.87,1.87,0,0,0,76.15,18,4,4,0,0,0,74.28,18a2.06,2.06,0,0,0-1.84,1.94,4.4,4.4,0,0,0,0,1,2.51,2.51,0,0,0,1.9,2.29,4.62,4.62,0,0,0,2.42,0c.66-.15.61,0,.56-.81-.3.06-.59.14-.89.18a2.09,2.09,0,0,1-2.44-2C73.94,20.2,74,20.13,74.28,20.13Zm-.3-.82a1,1,0,0,1,1-.88.89.89,0,0,1,1,.81c0,.17,0,.26-.2.25H74.14C74,19.49,74,19.47,74,19.31Z"/><path class="cls-1" d="M34.84,20.09h2.79c.11,0,.25,0,.26-.17a1.89,1.89,0,0,0-1.49-2,4.81,4.81,0,0,0-1.31-.07,2.14,2.14,0,0,0-2.19,2A2.72,2.72,0,0,0,35,23.17a4.63,4.63,0,0,0,2.22,0c.64-.15.64-.15.56-.82a6.65,6.65,0,0,1-1,.19,2.06,2.06,0,0,1-2.31-2C34.4,20.09,34.4,20.09,34.84,20.09Zm-.4-.8a1,1,0,0,1,1-.86.88.88,0,0,1,1,.84c0,.17,0,.23-.19.22H34.61C34.46,19.5,34.42,19.44,34.44,19.29Z"/><path class="cls-1" d="M57.65,18a3.93,3.93,0,0,0-1.77-.11A2,2,0,0,0,54,19.45a3.67,3.67,0,0,0-.09,1.4,2.47,2.47,0,0,0,1.7,2.22,4.62,4.62,0,0,0,2.85,0,.44.44,0,0,0,.29-.65c-.09-.22-.27,0-.4,0a2.15,2.15,0,0,1-2.92-2c0-.25,0-.38.31-.36.47,0,.94,0,1.41,0h1.52c.12,0,.21,0,.22-.17A1.86,1.86,0,0,0,57.65,18Zm-.41,1.46H55.63c-.12,0-.19,0-.18-.16a1,1,0,0,1,1-.9.88.88,0,0,1,1,.82C57.47,19.42,57.44,19.51,57.24,19.49Z"/></svg>