<svg xmlns="http://www.w3.org/2000/svg" xmlns:xlink="http://www.w3.org/1999/xlink" viewBox="0 0 69.45 34.51"><defs><style>.a{fill:#606060;}.b{fill:url(#a);}.c{fill:url(#b);}.d{fill:url(#c);}.e{fill:url(#d);}.f{fill:url(#e);}.g{fill:url(#f);}.h{fill:#fff;}</style><linearGradient id="a" x1="56.84" y1="-705.12" x2="50.88" y2="-730.04" gradientTransform="matrix(1, 0, 0, -1, -3.55, -701.44)" gradientUnits="userSpaceOnUse"><stop offset="0.19" stop-color="#e8461b"/><stop offset="0.26" stop-color="#e9531b"/><stop offset="0.49" stop-color="#ef7814"/><stop offset="0.67" stop-color="#f28e13"/><stop offset="0.79" stop-color="#f49712"/></linearGradient><linearGradient id="b" x1="45.46" y1="-705.54" x2="45.46" y2="-730.16" gradientTransform="matrix(1, 0, 0, -1, -3.55, -701.44)" gradientUnits="userSpaceOnUse"><stop offset="0.3" stop-color="#e8461b"/><stop offset="0.69" stop-color="#f49712"/></linearGradient><linearGradient id="c" x1="36.96" y1="-735.78" x2="37.12" y2="-704.79" gradientTransform="matrix(1, 0, 0, -1, -3.55, -701.44)" gradientUnits="userSpaceOnUse"><stop offset="0.17" stop-color="#f49712"/><stop offset="0.29" stop-color="#f28a12"/><stop offset="0.6" stop-color="#ed6917"/><stop offset="0.71" stop-color="#e8461b"/></linearGradient><linearGradient id="d" x1="37.88" y1="-739.55" x2="24.38" y2="-705.79" gradientTransform="matrix(1, 0, 0, -1, -3.55, -701.44)" gradientUnits="userSpaceOnUse"><stop offset="0.3" stop-color="#f49712"/><stop offset="0.5" stop-color="#eb6015"/><stop offset="0.73" stop-color="#e8461b"/></linearGradient><linearGradient id="e" x1="17.96" y1="-708.57" x2="28.79" y2="-726.15" gradientTransform="matrix(1, 0, 0, -1, -3.55, -701.44)" gradientUnits="userSpaceOnUse"><stop offset="0.27" stop-color="#e8461b"/><stop offset="0.4" stop-color="#e9531b"/><stop offset="0.61" stop-color="#ee7217"/><stop offset="0.83" stop-color="#f49712"/></linearGradient><linearGradient id="f" x1="15.15" y1="760.06" x2="3.72" y2="733.13" gradientTransform="translate(-0.02 -732.84)" gradientUnits="userSpaceOnUse"><stop offset="0" stop-color="#f49811"/><stop offset="0.62" stop-color="#e6381e"/></linearGradient></defs><title>leaseplan-logo</title><path class="a" d="M43.36,28.26l-1.24,3.59h-.63l-.88-2.62-.87,2.62h-.63l-1.25-3.59h.74l.86,2.68.83-2.68h.64l.84,2.68.86-2.68Z"/><path class="a" d="M46.16,30.21v1.64H45.5V30.32a.61.61,0,0,0-1.22,0v1.53h-.66V28.07h.66v1.48a1.07,1.07,0,0,1,.84-.36,1,1,0,0,1,1,.9Z"/><path class="a" d="M49.33,29.24v2.61H48.7v-.39a1,1,0,0,1-.88.44,1.26,1.26,0,0,1-1.26-1.25.28.28,0,0,1,0-.09,1.27,1.27,0,0,1,1.15-1.37h.09a1,1,0,0,1,.88.44v-.39Zm-.66,1.3a.72.72,0,0,0-.79-.64A.72.72,0,0,0,48,31.33a.72.72,0,0,0,.73-.71S48.67,30.57,48.67,30.54Z"/><path class="a" d="M51.56,31.25v.53a1.65,1.65,0,0,1-.66.12.77.77,0,0,1-.81-.73V29.78h-.43v-.54h.43v-.77h.66v.77h.77v.54h-.77v1.16a.35.35,0,0,0,.32.39h0A1.13,1.13,0,0,0,51.56,31.25Z"/><path class="a" d="M52.1,28.26h.69l-.41,1.25h-.6Z"/><path class="a" d="M53,31.59l.25-.4a1.53,1.53,0,0,0,.75.2c.25,0,.41-.11.41-.27s-.18-.24-.45-.31l-.21-.06c-.45-.12-.75-.29-.75-.7s.41-.86,1-.86a1.72,1.72,0,0,1,1,.25l-.28.43a1.27,1.27,0,0,0-.66-.16c-.24,0-.4.08-.4.23s.16.23.39.29l.22.06c.44.12.8.32.8.78s-.44.83-1.09.83A1.51,1.51,0,0,1,53,31.59Z"/><path class="a" d="M59.2,30.21v1.64h-.66V30.32a.61.61,0,0,0-1.22,0v1.53h-.66V29.24h.63v.33a1.08,1.08,0,0,1,.86-.38,1,1,0,0,1,1,.9Z"/><path class="a" d="M62.19,30.78h-1.9a.6.6,0,0,0,.6.6h0a.8.8,0,0,0,.64-.31l.51.26a1.36,1.36,0,1,1-1.17-2.14,1.24,1.24,0,0,1,1.31,1.16v.15A2.64,2.64,0,0,1,62.19,30.78Zm-1.89-.44h1.21c0-.4-.25-.63-.61-.63s-.55.23-.61.62Z"/><path class="a" d="M64.21,31.85,63.6,31l-.6.86h-.79l1-1.34-.94-1.27h.78l.55.79.55-.79h.79L64,30.51l1,1.34Z"/><path class="a" d="M66.94,31.25v.53a1.69,1.69,0,0,1-.67.12.77.77,0,0,1-.8-.73V29.78H65v-.54h.43v-.77h.66v.77h.77v.54h-.77v1.16a.35.35,0,0,0,.32.39h0A1.17,1.17,0,0,0,66.94,31.25Z"/><path class="a" d="M68.47,29.65a.61.61,0,0,0,.27-.44.44.44,0,0,0-.44-.43h0a.47.47,0,0,0-.51.43h0l-.63,0a1,1,0,0,1,1.1-1h0c.72,0,1.2.39,1.2,1a1,1,0,0,1-.44.76,1,1,0,0,0-.47.87H68A1.34,1.34,0,0,1,68.47,29.65Zm-.61,1.86a.39.39,0,0,1,.39-.4.4.4,0,0,1,.4.4.39.39,0,0,1-.4.39h0a.37.37,0,0,1-.39-.36Z"/><path class="b" d="M59.49,1a3.43,3.43,0,0,0-4.78.86L50.29,8.58l-4.42,6.68-4.94,7.46s1.13,1.92,1.16,1.93a3,3,0,0,0,.68.66,3.38,3.38,0,0,0,4.5-1l2.13-3L60.34,5.82A3.44,3.44,0,0,0,59.49,1Z"/><path class="c" d="M45.87,15.26,44.52,13l-1.14-2c-1.32-2.25-2.6-2.89-4.33-2.84a4.55,4.55,0,0,0-3.58,1.9l-1.06,1.52,5,8.63,1.48,2.52s1.13,1.92,1.16,1.93a3,3,0,0,0,.68.66,3.38,3.38,0,0,0,4.5-1l2.13-3Z"/><path class="d" d="M43.38,11c-1.32-2.25-2.6-2.89-4.33-2.84a4.52,4.52,0,0,0-3.58,1.9l-13,18.63.06.52v.14l0,.36c.59,5.62,6.06,5.94,8.22,2.9l8.68-12.4L44.52,13Z"/><path class="e" d="M31.22,16.13,30.33,7.3l0-.23C30,3.36,27.37,1.75,25.18,1.76a4.66,4.66,0,0,0-3.8,2L20,5.66l1.49,14.22h0l1,9.82c.59,5.62,6.06,5.93,8.23,2.9L32.62,30Z"/><path class="f" d="M30.31,7.07C30,3.36,27.37,1.75,25.18,1.76a4.63,4.63,0,0,0-3.8,2L20,5.66,18.18,8.29,15,12.87,7.73,23.22l.5,1.07a5.58,5.58,0,0,0,9.32,1.26l2-2.84,0,0,1.95-2.79L30.33,7.3Z"/><path class="g" d="M15,12.87,12.71,8,10.45,3.18A5.48,5.48,0,1,0,.47,7.7L7.74,23.22l.5,1.07A5.57,5.57,0,0,0,15.65,27a5.63,5.63,0,0,0,1.9-1.45l2-2.84,0,0Z"/><path class="h" d="M30,18.23a1.94,1.94,0,0,0,1.93,2H32a2.29,2.29,0,0,0,1.55-.52L33.08,19a1.51,1.51,0,0,1-1,.39,1.12,1.12,0,0,1-1.11-.86h2.93c0-.11,0-.24,0-.3A1.92,1.92,0,1,0,30,18.15h0v.08m.95-.45a1,1,0,0,1,2,0Zm-2.07.16a1.08,1.08,0,0,1,.82,1c0,.73-.56,1.2-1.44,1.2a2.29,2.29,0,0,1-1.48-.52l.48-.68a1.45,1.45,0,0,0,1,.38c.47,0,.54-.26.54-.34s-.14-.28-.33-.34-.67-.2-.87-.28a1,1,0,0,1-.76-1,1.2,1.2,0,0,1,1.18-1.21h.15a2.24,2.24,0,0,1,1.45.5l-.45.65a1.85,1.85,0,0,0-1-.32c-.39,0-.45.18-.45.28s.14.26.31.32.67.22.81.28Zm-10.64.29a1.93,1.93,0,0,1,3.85-.16v.14c0,.1,0,.2,0,.3H19.17a1.12,1.12,0,0,0,1.11.86,1.52,1.52,0,0,0,1-.39l.48.69a2.32,2.32,0,0,1-1.56.52,1.94,1.94,0,0,1-2-1.9v-.05m2.92-.45a1,1,0,0,0-1-.72,1.05,1.05,0,0,0-1,.72Zm-5.46-3.3h-1v5.58h3.32v-.94H15.73ZM24,16.27a2.19,2.19,0,0,1,.36,0,1.78,1.78,0,0,1,1.11.36v-.29h.92v3.77h-.92v-.27a1.71,1.71,0,0,1-1.11.37,2,2,0,0,1-2-1.62L24,16.27m1.47,1.93a1.1,1.1,0,1,0-1.1,1.1,1.1,1.1,0,0,0,1.1-1.1m10.81-3.72h-2v5.59h1V18.51h1a2,2,0,0,0,.16-4h-.16Zm0,3.07h-1V15.43h1a1.07,1.07,0,1,1,.1,2.13h-.1Zm11.16-1.29a1.53,1.53,0,0,1,1.16.93,2.74,2.74,0,0,1,.14,1v1.86h-.92v-2a.84.84,0,0,0-1.66-.25,1.34,1.34,0,0,0,0,.2v2h-.91V16.31h.91v.29a1.62,1.62,0,0,1,1.29-.32Zm-5.28,0,.37,0a1.78,1.78,0,0,1,1.11.36V16.3h.91v3.77h-.91v-.26a1.78,1.78,0,0,1-1.11.36,2,2,0,0,1-2-1.62l1.6-2.28m1.47,1.93a1.1,1.1,0,1,0-1.11,1.1,1.11,1.11,0,0,0,1.11-1.1m-3.88.49v-3.9h-.91v4a1.28,1.28,0,0,0,1.25,1.34,1,1,0,0,0,.24,0v-.89a.53.53,0,0,1-.58-.47v-.08Z"/></svg>