<svg id="Layer_1" data-name="Layer 1" xmlns="http://www.w3.org/2000/svg" viewBox="0 0 40 40"><defs><style>.cls-1{fill:#fff;}.cls-2{fill:#009b97;}</style></defs><title>choose</title><rect class="cls-1"/><path class="cls-2" d="M8.29,15.16a.82.82,0,0,0,.49.34.73.73,0,0,0,.59-.11.79.79,0,0,0,.38-.67.77.77,0,0,0-.14-.44A9,9,0,0,1,12.32,1.87.79.79,0,0,0,11.83.46a.73.73,0,0,0-.35.09A10.56,10.56,0,0,0,8.29,15.16Z"/><path class="cls-2" d="M11.39,13.17a.78.78,0,0,0,.49.34.73.73,0,0,0,.59-.11.79.79,0,0,0,.38-.67.77.77,0,0,0-.14-.44,5.36,5.36,0,0,1-.72-4A5.23,5.23,0,0,1,14.31,5a.79.79,0,0,0-.42-1.46.77.77,0,0,0-.42.13A6.86,6.86,0,0,0,10.3,9.44,6.94,6.94,0,0,0,11.39,13.17Z"/><path class="cls-2" d="M28.32,15.16a.7.7,0,0,1-.49.34.73.73,0,0,1-.59-.11.77.77,0,0,1-.37-.66.8.8,0,0,1,.14-.45A9,9,0,0,0,24.29,1.87a.8.8,0,0,1-.37-.67.77.77,0,0,1,.14-.44.79.79,0,0,1,.67-.37.87.87,0,0,1,.44.13,10.63,10.63,0,0,1,3.17,14.61Z"/><path class="cls-2" d="M25.22,13.17a.7.7,0,0,1-.49.34.73.73,0,0,1-.59-.11.77.77,0,0,1-.37-.66.8.8,0,0,1,.14-.45A5.31,5.31,0,0,0,22.3,4.93a.79.79,0,0,1,.39-1.47.8.8,0,0,1,.47.15,6.92,6.92,0,0,1,3,4.34A6.77,6.77,0,0,1,25.22,13.17Z"/><path class="cls-2" d="M33.08,23a3.78,3.78,0,0,0-1.28-2,4.18,4.18,0,0,0-2.22-.84h-.4L29.1,20a2.63,2.63,0,0,0-.21-.41A3.46,3.46,0,0,0,26,18h-.27a1.8,1.8,0,0,0-.32.06h-.08a4.14,4.14,0,0,0-2.56-1.17H22V11.17a7.27,7.27,0,0,0-.21-1.86,3.17,3.17,0,0,0-3.2-2.45,3.89,3.89,0,0,0-2.07.59,3.31,3.31,0,0,0-1.39,1.63,8.23,8.23,0,0,0-.36,2.61V20.8a7.61,7.61,0,0,0-4.18,5.8,16,16,0,0,0-.09,1.72,10.82,10.82,0,0,0,5.43,9.77,12,12,0,0,0,6,1.51,11.39,11.39,0,0,0,9.26-4.22c1.81-2.49,1.87-5.45,2.11-8.15,0-.57.09-1.16.09-1.76A9,9,0,0,0,33.08,23Zm-.91,4.1c-.24,2.77-.34,5.47-1.9,7.59a10.32,10.32,0,0,1-8.36,3.77,11,11,0,0,1-5.42-1.36,9.72,9.72,0,0,1-4.88-8.77,10.79,10.79,0,0,1,.08-1.62,6.32,6.32,0,0,1,3.08-4.61v4.77h1.11V11.69a7,7,0,0,1,.3-2.22,2.16,2.16,0,0,1,.93-1.11,2.77,2.77,0,0,1,1.48-.43,2.24,2.24,0,0,1,1.45.5,2.1,2.1,0,0,1,.67,1.12,5.52,5.52,0,0,1,.16,1.57V18l1.85.05a3.19,3.19,0,0,1,2,1,.67.67,0,0,0,.29.15h.18a1.84,1.84,0,0,0,.41-.05H26a2.32,2.32,0,0,1,2,1l.13.28a1.58,1.58,0,0,0,.35.53,1.27,1.27,0,0,0,.65.25h.4a2.92,2.92,0,0,1,1.63.59,2.67,2.67,0,0,1,.9,1.46,7.59,7.59,0,0,1,.27,2.22C32.28,26,32.23,26.57,32.17,27.09Z"/></svg>