<svg xmlns="http://www.w3.org/2000/svg" width="57.485" height="57.681" viewBox="0 0 57.485 57.681">
  <g id="Group_872" data-name="Group 872" transform="translate(0 0)">
    <path id="Path_3943" data-name="Path 3943" d="M30.306,0H28.674A28.883,28.883,0,0,0,5.013,45.037,293.234,293.234,0,0,1,30.306,0" transform="translate(-0.072)" fill="#fff"/>
    <path id="Path_3944" data-name="Path 3944" d="M14,39.278C27.054,32.751,43.372,29.814,48.594,29c0-.653.163-1.142.163-1.795A28.719,28.719,0,0,0,34.4,2.4,255.212,255.212,0,0,0,14,39.278" transform="translate(8.728 1.516)" fill="#fff"/>
    <path id="Path_3945" data-name="Path 3945" d="M14.585,36.307H6.1A28.719,28.719,0,0,0,52.606,22.6c-26.924,4.406-38.02,13.707-38.02,13.707" transform="translate(3.737 14.278)" fill="#fff"/>
  </g>
</svg>
