<svg xmlns="http://www.w3.org/2000/svg" width="40.524" height="25.411" viewBox="0 0 40.524 25.411">
  <g id="Artwork_25" data-name="Artwork 25" transform="translate(20.262 12.706)">
    <g id="Group_1283" data-name="Group 1283" transform="translate(-20.262 -12.705)">
      <path id="Path_6342" data-name="Path 6342" d="M10.182,13.222a9.166,9.166,0,0,0,.482,1.737,4.824,4.824,0,0,0,.482.868,3.377,3.377,0,0,0,1.447,1.158l.772.289,2.123.386h9.649l1.93-.193,1.544-.482a3.377,3.377,0,0,0,1.833-1.737l.386-1.061a16.4,16.4,0,0,0,.386-2.123c.1-.675.193-1.447.289-2.123a15.633,15.633,0,0,0,.1-2.123,31.26,31.26,0,0,0-.1-3.474,5.692,5.692,0,0,0-.289-1.254,3.474,3.474,0,0,0-1.254-1.737A4.342,4.342,0,0,0,28.8.679L26.971.293,24.655.1H18.963L15.3.2,13.463.486,12.016.872a3.474,3.474,0,0,0-1.833,1.737A4.728,4.728,0,0,0,9.8,4.056,13.025,13.025,0,0,0,9.7,5.6q0,1.013,0,2.026a30.293,30.293,0,0,0,.289,3.666C10.182,12.547,10.086,12.643,10.182,13.222Zm.482-6.561a10.487,10.487,0,0,1,.1-1.737,6.368,6.368,0,0,1,.289-1.544,2.9,2.9,0,0,1,1.061-1.544l.965-.482,1.254-.289L16.068.872h8.491l2.412.289,1.544.386a2.9,2.9,0,0,1,1.447,1.158,3.377,3.377,0,0,1,.289.965,6.85,6.85,0,0,1,.193,1.061,32.031,32.031,0,0,1,.1,3.281c0,.675-.1,1.351-.1,1.93l-.193,1.64a13.7,13.7,0,0,1-.482,2.605l-.386.868a2.991,2.991,0,0,1-1.544,1.351l-1.351.386-2.316.193H15.779l-1.64-.289-.772-.289a2.991,2.991,0,0,1-1.447-1.447,6.85,6.85,0,0,1-.482-1.351,15.727,15.727,0,0,1-.386-1.93,17.225,17.225,0,0,1-.193-2.219,25.375,25.375,0,0,1-.1-2.8Z" transform="translate(-0.341 -0.1)" fill="#f2f2f2"/>
      <path id="Path_6343" data-name="Path 6343" d="M4.728,22.182h.579a.289.289,0,0,1,.289.289h0v.772H2.8v-.675a.289.289,0,0,1,.289-.289h.579v-.289a1.833,1.833,0,0,0,0-.289H0v.579H.579a.289.289,0,0,1,.289.289,1.061,1.061,0,0,1,0,.193v2.316a.868.868,0,0,1,0,.193.289.289,0,0,1-.289.289H0v.579H3.666v-.579H3.088c-.193,0-.289-.1-.386-.386a2.076,2.076,0,0,1,0-.772H5.6v.772h0a.289.289,0,0,1-.289.289H4.728v.579H8.394v-.579H7.719a.289.289,0,0,1-.289-.289V22.568a.289.289,0,0,1,.289-.289H8.3V21.7H4.728Z" transform="translate(0 -0.859)" fill="#f2f2f2"/>
      <path id="Path_6344" data-name="Path 6344" d="M22.014,21.6v.579h.579a.289.289,0,0,1,.289.289h0v2.412h-.1L20.47,21.889a.482.482,0,0,0-.386-.193H16.9v.579h.579a.289.289,0,0,1,.289.289,1.062,1.062,0,0,1,0,.193v2.316h0a.289.289,0,0,1-.289.386H16.9v.579h2.895a2.991,2.991,0,0,0,0-.579h-.579a.289.289,0,0,1-.289-.289h0V23.047h.1l2.316,2.991a.579.579,0,0,0,.482.193h2.316V22.565a.289.289,0,0,1,.289-.289H25V21.7Z" transform="translate(-0.594 -0.855)" fill="#f2f2f2"/>
      <path id="Path_6345" data-name="Path 6345" d="M33.126,23.623a1.93,1.93,0,0,0-.772-1.447l-.675-.386a4.438,4.438,0,0,0-1.544-.289H25.6v.579h.482c.289,0,.386.1.386.386v2.509a.289.289,0,0,1-.289.289H25.6v.579h5.21l1.158-.289a2.026,2.026,0,0,0,1.061-1.158A2.509,2.509,0,0,0,33.126,23.623Zm-2.219.868v.386a.868.868,0,0,1-.579.386H28.4v-2.8h2.123a.868.868,0,0,1,.579.482,2.026,2.026,0,0,1,.1.772,2.509,2.509,0,0,1-.289.772Z" transform="translate(-0.899 -0.852)" fill="#f2f2f2"/>
      <path id="Path_6346" data-name="Path 6346" d="M15.463,22.175,14.3,21.693,12.568,21.5l-1.544.193-1.061.289a2.219,2.219,0,0,0-.1,3.666l.579.289,1.447.289a8.2,8.2,0,0,0,2.219-.1l1.158-.386a2.219,2.219,0,0,0,.193-3.666Zm-1.254,2.316a1.158,1.158,0,0,1-.868.965,2.9,2.9,0,0,1-1.351,0,1.158,1.158,0,0,1-.868-.965,1.224,1.224,0,0,0-.1-.579,3.088,3.088,0,0,1,.1-.675,1.158,1.158,0,0,1,.868-.868,2.8,2.8,0,0,1,1.447,0,1.158,1.158,0,0,1,.868.965A2.7,2.7,0,0,1,14.208,24.491Z" transform="translate(-0.314 -0.852)" fill="#f2f2f2"/>
      <path id="Path_6347" data-name="Path 6347" d="M40.719,25.17l-1.061-1.544L38.5,21.889a.579.579,0,0,0-.482-.289H34.544v.579h.772a.216.216,0,1,1,.193.386h0l-1.544,2.7h-.1l-.289.193H33v.579h2.895v-.579h-.579a.216.216,0,1,1-.193-.386l.193-.289H38.21l.193.386a.193.193,0,0,1-.1.289h-.675v.579h4.052v-.579H41.2a.579.579,0,0,1-.482-.289Zm-4.728-1.254.868-1.351.868,1.351Z" transform="translate(-1.159 -0.855)" fill="#f2f2f2"/>
      <path id="Path_6348" data-name="Path 6348" d="M14.3,2.754v8.008l.193,2.026v1.64l.193,1.93v.1l2.219.193v-.193l.579-2.026a5.886,5.886,0,0,1,.386-1.061,1.351,1.351,0,0,1,1.061-.772h2.509a1.351,1.351,0,0,1,1.061.772v.193l.386,1.061.482,1.833h0l2.219-.193c.386-4.921.675-9.842,1.061-14.762h-.772L25.3,4.3l-.965,4.052A7.333,7.333,0,0,1,23.849,9.6a2.316,2.316,0,0,1-1.833,1.351H19.507a2.316,2.316,0,0,1-1.447-.868,3.184,3.184,0,0,1-.386-.772,13.122,13.122,0,0,1-.482-1.447c-.482-1.93-.965-3.956-1.351-5.886V1.6H14.2v.1Z" transform="translate(-0.499 -0.149)" fill="#f2f2f2"/>
    </g>
  </g>
</svg>
