<svg xmlns="http://www.w3.org/2000/svg" width="38.975" height="45.355" viewBox="0 0 38.975 45.355">
  <g id="Group_1644" data-name="Group 1644" transform="translate(0 0)">
    <path id="Path_8670" data-name="Path 8670" d="M38.983,62.664a31.049,31.049,0,0,1-2.949,5.5c-1.913,2.923-4.623,6.536-7.944,6.563s-3.746-1.94-7.758-1.913-4.862,1.94-7.838,1.913-5.9-3.295-7.811-6.217c-5.367-8.13-5.925-17.7-2.63-22.77A11.8,11.8,0,0,1,11.59,40c3.481,0,5.766,1.94,8.688,1.94S24.848,40,28.966,40a11.514,11.514,0,0,1,8.715,4.6C30,48.794,31.251,59.741,38.983,62.664Z" transform="translate(-0.008 -29.372)" fill="#f2f2f2"/>
    <path id="Path_8671" data-name="Path 8671" d="M77.649,7.36A9.859,9.859,0,0,0,79.855,0,10.732,10.732,0,0,0,72.92,3.72a8.822,8.822,0,0,0-2.258,7.174A9.006,9.006,0,0,0,77.649,7.36Z" transform="translate(-51.8)" fill="#f2f2f2"/>
  </g>
</svg>
