<svg xmlns="http://www.w3.org/2000/svg" width="56.167" height="21.262" viewBox="0 0 56.167 21.262">
  <g id="Group_1278" data-name="Group 1278" transform="translate(0 0)">
    <path id="Path_6314" data-name="Path 6314" d="M28.084,0C12.621,0,0,4.775,0,10.688S12.621,21.262,28.084,21.262s28.084-4.775,28.084-10.574S43.66,0,28.084,0Zm0,20.125c-14.895,0-26.947-4.207-26.947-9.437S13.189,1.023,28.084,1.023s27.06,4.321,27.06,9.664S43.092,20.125,28.084,20.125Z" fill="#f2f2f2"/>
    <path id="Path_6315" data-name="Path 6315" d="M34.432,9.6a2.842,2.842,0,0,0-2.047,1.251,3.866,3.866,0,0,0-.682,1.592,1.251,1.251,0,0,0,.227,1.023c.114.114.91.455,2.047-.682A10.232,10.232,0,0,0,35,11.192h-.227C35.228,10.4,35.114,9.714,34.432,9.6Z" transform="translate(4.339 1.315)" fill="#f2f2f2"/>
    <path id="Path_6316" data-name="Path 6316" d="M27.851,1.6C13.411,1.6,1.7,5.579,1.7,10.355S13.411,19.11,27.851,19.11,54,15.13,54,10.355,42.29,1.6,27.851,1.6ZM15.116,15.812A2.842,2.842,0,0,1,12.16,12.97a3.184,3.184,0,0,1,2.5-2.956c.227,0,.227.114.227.227l-.227.227A2.615,2.615,0,0,0,13.3,12.515a1.592,1.592,0,0,0,1.137,1.592H15c1.705,0,3.752-1.933,5.912-5a5.1,5.1,0,0,0-2.16.568c-.341.341-.227,0-.341-.114V9.332c.568-.682,2.274-.8,2.729-.8a10.8,10.8,0,0,1,4.093-3.979h0A17.737,17.737,0,0,0,21.6,3.988c-3.525,0-5,1.478-5,2.842a.91.91,0,0,0,1.137.8,3.184,3.184,0,0,0,2.047-1.364h.227a.227.227,0,0,1,.114.227,3.411,3.411,0,0,1-3.07,2.388,1.819,1.819,0,0,1-1.705-1.933c0-1.819,1.819-3.638,6.367-3.638l2.842.227a46.5,46.5,0,0,0,6.708.8h2.956L35.355,4.1c.341,0,.341.114.341.341a5.963,5.963,0,0,1-3.752,1.705c-1.705,0-5.116-1.137-6.481-1.478a.227.227,0,0,1,0,.227l-.227.341a11.142,11.142,0,0,0-2.956,3.411l2.388-.227a1.819,1.819,0,0,1-.114-.455c0-.8.455-1.251,1.137-1.137a.682.682,0,0,1,.568.568A1.592,1.592,0,0,1,25.8,8.422l-.568.341c0,.227.227.341.455.341s0,.341-.114.227a.91.91,0,0,1-.8-.568L21.938,9.1C18.414,14.9,17.277,15.812,15.116,15.812Zm24.9-.91c.8,0,2.16-1.478,2.5-1.933l.227-.227.227.227-.341.455c-.682.91-1.933,2.274-3.3,2.388s-.91-.227-1.023-.8a4.434,4.434,0,0,1-2.388.8,1.478,1.478,0,0,1-1.478-.91,2.047,2.047,0,0,1-.114-1.364,2.956,2.956,0,0,1-1.592.227,1.364,1.364,0,0,1-1.478-1.251L29.556,15.7H27.964L29.9,12.4a4.434,4.434,0,0,0,.568-1.251.341.341,0,0,0-.341-.455,2.047,2.047,0,0,0-1.023.682,20.693,20.693,0,0,0-1.705,2.16,4.548,4.548,0,0,1-3.3,2.274,1.933,1.933,0,0,1-2.047-1.592s-.114.227-.91.682H20.8a.8.8,0,0,1-.227-.455l.455-.341a2.388,2.388,0,0,0,.8-.91l.682-1.251a3.638,3.638,0,0,1,3.07-2.274.341.341,0,0,1,.341.227.341.341,0,0,1,.114.341,3.411,3.411,0,0,0-2.274,1.364,3.98,3.98,0,0,0-.568,1.478,1.251,1.251,0,0,0,.8,1.478c1.023.114,1.933-.568,2.615-1.819a4.093,4.093,0,0,0,.341-1.592,1.706,1.706,0,0,0-.455-1.023.455.455,0,0,1,.455-.455h.114a2.388,2.388,0,0,1,.568,1.592,2.729,2.729,0,0,1,0,.568,9.564,9.564,0,0,1,2.388-2.047h.455A1.023,1.023,0,0,1,31.6,11.037,2.532,2.532,0,0,1,33.536,9.9a.91.91,0,0,1,1.023.91,1.023,1.023,0,0,1-.91,1.023.91.91,0,0,1-1.023-.682.943.943,0,0,0,.341,1.819,2.388,2.388,0,0,0,1.819-.8c1.251-1.137,1.933-2.388,3.752-2.388a1.705,1.705,0,0,1,1.478,1.251L42.4,7.058h1.478l-3.866,6.822a1.364,1.364,0,0,0-.227.682c-.114.341.227.341.114.341Z" transform="translate(0.233 0.219)" fill="#f2f2f2"/>
    <path id="Path_6317" data-name="Path 6317" d="M22.761,7.21a1.023,1.023,0,0,0,.227-.682.245.245,0,0,0-.227-.227.568.568,0,0,0-.455.455,1.137,1.137,0,0,0,0,.682S22.534,7.551,22.761,7.21Z" transform="translate(3.048 0.863)" fill="#f2f2f2"/>
  </g>
</svg>
