<svg xmlns="http://www.w3.org/2000/svg" width="156.339" height="33.41" viewBox="0 0 156.339 33.41">
  <g id="Group_1646" data-name="Group 1646" transform="translate(0 0)">
    <path id="Path_8672" data-name="Path 8672" d="M0,0H15.893V15.893H0Z" fill="#f2f2f2"/>
    <path id="Path_8673" data-name="Path 8673" d="M50.7,0H66.593V15.893H50.7Z" transform="translate(-33.183)" fill="#f2f2f2"/>
    <path id="Path_8674" data-name="Path 8674" d="M198.427,18.046a2.108,2.108,0,0,1,1.9.656,1.969,1.969,0,0,1,.242,2.246,2.142,2.142,0,0,1-2.28.967,1.935,1.935,0,0,1-1.589-1.9,2,2,0,0,1,1.727-1.935Z" transform="translate(-128.74 -11.792)" fill="#f2f2f2"/>
    <path id="Path_8675" data-name="Path 8675" d="M125.435,19.3h5.01l4.664,11.851c.415,1,.76,1.969,1.175,2.971,2-4.941,4.042-9.847,6.012-14.787h4.8V39.374h-3.455V24.586a4.181,4.181,0,0,0-.035-.656l-.173.311c-1.969,5.044-4.008,10.054-5.977,15.133H135l-6.11-15.133-.173-.311c-.035,2.142,0,4.319-.035,6.461v8.983H125.4V19.335Z" transform="translate(-82.074 -12.632)" fill="#f2f2f2"/>
    <path id="Path_8676" data-name="Path 8676" d="M219.1,35.029a9.4,9.4,0,0,1,5.113,0,4.111,4.111,0,0,1,.967.415c-.035,1.106,0,2.177,0,3.282a5.459,5.459,0,0,0-3.939-1.175,4.042,4.042,0,0,0-2.868,1.589,5.361,5.361,0,0,0-.9,3.973,4.058,4.058,0,0,0,4.6,3.835,6.53,6.53,0,0,0,3.075-1.278v3.109a8.5,8.5,0,0,1-4.7.967,6.944,6.944,0,0,1-4.491-1.866,7.152,7.152,0,0,1-2.073-4.8,8.72,8.72,0,0,1,1.347-5.321,6.91,6.91,0,0,1,3.8-2.7Z" transform="translate(-139.982 -22.694)" fill="#f2f2f2"/>
    <path id="Path_8677" data-name="Path 8677" d="M330.008,34.864a9.087,9.087,0,0,1,4.768.484v3.144a6.046,6.046,0,0,0-3.593-1.071,1.843,1.843,0,0,0-1.624.9,1.486,1.486,0,0,0,.484,1.762c.967.656,2.142.933,3.144,1.52a4.526,4.526,0,0,1,1.969,1.866,4.181,4.181,0,0,1-.9,4.837,6.61,6.61,0,0,1-4.768,1.451,10.227,10.227,0,0,1-3.488-.8V45.644a7.5,7.5,0,0,0,3.109,1.347,4.008,4.008,0,0,0,2.384-.207,1.365,1.365,0,0,0,.415-1.935,4.146,4.146,0,0,0-1.486-.967,14.194,14.194,0,0,1-2.971-1.52,3.559,3.559,0,0,1-1.278-1.935,4.388,4.388,0,0,1,.484-3.42,5.113,5.113,0,0,1,3.42-2.108Z" transform="translate(-213.367 -22.737)" fill="#f2f2f2"/>
    <path id="Path_8678" data-name="Path 8678" d="M259.048,35.461a3.87,3.87,0,0,1,3.179-.276V38.6a3.662,3.662,0,0,0-2.315-.553,2.868,2.868,0,0,0-2.142,1.728,6.358,6.358,0,0,0-.484,2.937v6.875H253.9V35.254h3.386v2.453a4.388,4.388,0,0,1,1.762-2.246Z" transform="translate(-166.178 -22.885)" fill="#f2f2f2"/>
    <path id="Path_8679" data-name="Path 8679" d="M197.5,35.8h3.42V50.138H197.5Z" transform="translate(-129.264 -23.431)" fill="#f2f2f2"/>
    <path id="Path_8680" data-name="Path 8680" d="M292.669,38.367a6.081,6.081,0,0,0-3.006-3.04,9.121,9.121,0,0,0-4.906-.553,6.841,6.841,0,0,0-4.526,2.418,7.636,7.636,0,0,0-1.589,4.388,8.305,8.305,0,0,0,1.244,5.355,6.5,6.5,0,0,0,3.973,2.591,9.847,9.847,0,0,0,4.008,0,6.633,6.633,0,0,0,3.939-2.418,7.6,7.6,0,0,0,1.52-4.181,9.432,9.432,0,0,0-.656-4.561Zm-3.317,6.6a3.144,3.144,0,0,1-1.693,1.658,4.63,4.63,0,0,1-2.8.138A3.42,3.42,0,0,1,282.718,45a6.634,6.634,0,0,1-.518-3.628,4.561,4.561,0,0,1,1.313-3.006,3.593,3.593,0,0,1,2.246-.9,3.7,3.7,0,0,1,2.868.967,4.548,4.548,0,0,1,1.175,3.006,7.714,7.714,0,0,1-.45,3.527Z" transform="translate(-182.351 -22.682)" fill="#f2f2f2"/>
    <path id="Path_8681" data-name="Path 8681" d="M371.936,38.767A6.115,6.115,0,0,0,369,35.415a8.925,8.925,0,0,0-5.113-.691,6.728,6.728,0,0,0-6.081,6.046,9.4,9.4,0,0,0,.553,4.975,6.357,6.357,0,0,0,3.49,3.386,9.225,9.225,0,0,0,4.837.415,6.7,6.7,0,0,0,4.215-2.453,7.843,7.843,0,0,0,1.555-4.906,9.156,9.156,0,0,0-.518-3.42Zm-3.109,4.872a4.492,4.492,0,0,1-.9,2.108,3.213,3.213,0,0,1-2,1.071,4.526,4.526,0,0,1-2.453-.276,3.489,3.489,0,0,1-1.8-1.9,6.806,6.806,0,0,1-.415-3.144A4.975,4.975,0,0,1,362.3,38.63a3.524,3.524,0,0,1,2.522-1.209,3.766,3.766,0,0,1,2.764.8,3.939,3.939,0,0,1,1.244,2.28,8.706,8.706,0,0,1,0,3.144Z" transform="translate(-234.116 -22.667)" fill="#f2f2f2"/>
    <path id="Path_8682" data-name="Path 8682" d="M418.99,25.034v-2.8H415.6c-.035-1.417,0-2.868,0-4.284l-3.386,1.036c-.035,1.071,0,2.177,0,3.248h-5.079a21.635,21.635,0,0,1,.069-2.557,2,2,0,0,1,1.14-1.589,3.212,3.212,0,0,1,2.522.242V15.4a6.194,6.194,0,0,0-5.01.587,4.7,4.7,0,0,0-1.935,2.66,14.426,14.426,0,0,0-.242,3.662H401.3v2.764h2.384V36.643h3.42V25.069h5.01v7.394a5.044,5.044,0,0,0,.967,3.282,3.835,3.835,0,0,0,2.7,1.244,6.7,6.7,0,0,0,3.144-.484V33.637a2.572,2.572,0,0,1-2.626.242,1.727,1.727,0,0,1-.726-1.382c-.1-.9-.035-1.762-.069-2.66v-4.8C416.709,25.034,417.849,25,418.99,25.034Z" transform="translate(-262.651 -9.901)" fill="#f2f2f2"/>
    <path id="Path_8683" data-name="Path 8683" d="M0,50.7H15.893V66.593H0Z" transform="translate(0 -33.183)" fill="#f2f2f2"/>
    <path id="Path_8684" data-name="Path 8684" d="M50.7,50.7H66.593V66.593H50.7Z" transform="translate(-33.183 -33.183)" fill="#f2f2f2"/>
  </g>
</svg>
