<svg xmlns="http://www.w3.org/2000/svg" width="232.021" height="47.901" viewBox="0 0 232.021 47.901">
  <g id="Group_1663" data-name="Group 1663" transform="translate(-193.913 -2756.628)">
    <g id="Artwork_50" data-name="Artwork 50" transform="translate(223.716 2780.5)">
      <g id="Artwork_50-2" data-name="Artwork 50" transform="translate(-29.803 -19.5)">
        <path id="Path_8686" data-name="Path 8686" d="M34.343,133.149h-.908a2.165,2.165,0,0,1-2-1.316l-1.781-4.168A4.4,4.4,0,0,0,25.612,125H10.478a4.4,4.4,0,0,0-4.04,2.666l-1.781,4.168a2.165,2.165,0,0,1-2,1.316H1.746A1.746,1.746,0,0,0,0,134.9H0a1.746,1.746,0,0,0,1.746,1.746h.338a1.409,1.409,0,0,1,1.409,1.409v9.279a2.13,2.13,0,0,0,2.13,2.119H8.347a2.13,2.13,0,0,0,2.13-2.13v-2.526H25.612v2.526a2.13,2.13,0,0,0,2.13,2.13h2.724a2.13,2.13,0,0,0,2.13-2.13V138.05a1.409,1.409,0,0,1,1.409-1.409h.338A1.746,1.746,0,0,0,36.09,134.9h0a1.746,1.746,0,0,0-1.746-1.746Zm-21.549-4.657H23.3a4.412,4.412,0,0,1,4.063,2.678l.85,1.979H7.881l.85-1.979a4.412,4.412,0,0,1,4.063-2.678Z" transform="translate(0 -110.448)" fill="#f2f2f2"/>
        <path id="Path_8687" data-name="Path 8687" d="M179.815,35.507V30.385a7.637,7.637,0,0,0-.582-2.934l3.015-6.473a5.355,5.355,0,0,0,.245-3.993,5.2,5.2,0,0,0-2.561-2.957l-5.867-4.342A49.5,49.5,0,0,0,144.645,0H140V11.06h3.493V3.493h0a49.505,49.505,0,0,1,29.424,9.69l1.625,1.207a5.2,5.2,0,0,0-1.746,2.084L169.71,23.1a7.7,7.7,0,0,0-5.262,7.288v5.122H162.7a1.746,1.746,0,0,0-1.746,1.746h0A1.746,1.746,0,0,0,162.7,39h18.86a1.746,1.746,0,0,0,1.746-1.746h0a1.746,1.746,0,0,0-1.746-1.746ZM175.95,17.952a1.747,1.747,0,1,1,3.167,1.479l-2.282,4.89a7.649,7.649,0,0,0-3.167-1.467Z" transform="translate(-123.701 0)" fill="#f2f2f2"/>
      </g>
    </g>
    <g id="Artwork_51" data-name="Artwork 51" transform="translate(314.357 2784.6)">
      <g id="Artwork_51-2" data-name="Artwork 51" transform="translate(-38.124 -19.6)">
        <path id="Path_8690" data-name="Path 8690" d="M79.234,178.8a6.234,6.234,0,1,0,6.234,6.234A6.234,6.234,0,0,0,79.234,178.8Z" transform="translate(-62.086 -152.069)" fill="#f2f2f2"/>
        <path id="Path_8691" data-name="Path 8691" d="M347.934,178.8a6.234,6.234,0,1,0,6.234,6.234A6.234,6.234,0,0,0,347.934,178.8Z" transform="translate(-290.614 -152.069)" fill="#f2f2f2"/>
        <path id="Path_8692" data-name="Path 8692" d="M71.538,15.369l-13.44.045C56.154,13.5,52.97,9.867,50.847,7.43,49.9,6.354,49.157,5.5,48.783,5.1h-.015a4.934,4.934,0,0,0-3.618-1.54H43.82V1.764C43.82.957,43.566,0,42.34,0H41.054c-.583,0-1.57.224-1.57,1.764V3.558H22.157a3.746,3.746,0,0,0-2.93,1.226l-7.52,10.271-.1.164h-.03l-6.892.03H4.665C1.57,15.369,0,17.163,0,20.587v7.221A4.694,4.694,0,0,0,4.694,32.5H8.372a.987.987,0,0,0,.987-.867,7.685,7.685,0,0,1,2.6-4.859A7.984,7.984,0,0,1,17.208,24.8a7.7,7.7,0,0,1,7.61,6.817.987.987,0,0,0,.987.867H48.589a.987.987,0,0,0,.987-.867,7.744,7.744,0,0,1,15.384,0,.987.987,0,0,0,.987.867h5.606a4.694,4.694,0,0,0,4.694-4.694V20.587A5.562,5.562,0,0,0,74.9,17.044,4.442,4.442,0,0,0,71.538,15.369ZM39.215,6.16l5.831.03c.942,0,1.375-.045,3.065,2.123l5.113,6.01c.4.6.045,1.36-.389,1.36l-13.994-.045a.628.628,0,0,1-.628-.628V7.161A.935.935,0,0,1,39.215,6.16ZM15.788,14.308c1.346-1.973,2.422-3.483,4.231-6.2C21.424,6,21.738,6.16,22.68,6.16l11.093.03c1.241-.03,1.241,1,1.241,1l-.03,7.849a.628.628,0,0,1-.628.628c-3.08.015-16.655.09-17.911.045C14.8,15.623,15.773,14.323,15.788,14.308ZM2.467,20.333H1.211a5.035,5.035,0,0,1,.568-2.422h.688a.4.4,0,0,1,.4.4v1.615A.4.4,0,0,1,2.467,20.333Zm2.826,2.018a.4.4,0,0,1-.4.4H3.274a.4.4,0,0,1-.4-.4V20.736a.4.4,0,0,1,.4-.4H4.889a.4.4,0,0,1,.4.4Zm2-2.018H5.681a.4.4,0,0,1-.4-.4V18.314a.4.4,0,0,1,.4-.4H7.3a.4.4,0,0,1,.4.4v1.615A.4.4,0,0,1,7.3,20.333Zm2.826,2.018a.4.4,0,0,1-.4.4H8.1a.4.4,0,0,1-.4-.4V20.736a.4.4,0,0,1,.4-.4H9.718a.4.4,0,0,1,.4.4Zm2.018-2.018H10.525a.4.4,0,0,1-.4-.4V18.314a.4.4,0,0,1,.4-.4H12.14a.4.4,0,0,1,.4.4v1.615A.4.4,0,0,1,12.14,20.333Zm2.826,2.018a.4.4,0,0,1-.4.4H12.947a.4.4,0,0,1-.4-.4V20.736a.4.4,0,0,1,.4-.4h1.615a.4.4,0,0,1,.4.4Zm2.018-2.018H15.369a.4.4,0,0,1-.4-.4V18.314a.4.4,0,0,1,.4-.4h1.615a.4.4,0,0,1,.4.4v1.615A.4.4,0,0,1,16.984,20.333Zm2.826,2.018a.4.4,0,0,1-.4.4H17.791a.4.4,0,0,1-.4-.4V20.736a.4.4,0,0,1,.4-.4h1.615a.4.4,0,0,1,.4.4Zm2.018-2.018H20.213a.4.4,0,0,1-.4-.4V18.314a.4.4,0,0,1,.4-.4h1.615a.4.4,0,0,1,.4.4v1.615A.4.4,0,0,1,21.828,20.333Zm2.826,2.018a.4.4,0,0,1-.4.4H22.635a.4.4,0,0,1-.4-.4V20.736a.4.4,0,0,1,.4-.4H24.25a.4.4,0,0,1,.4.4Zm2.018-2.018H25.057a.4.4,0,0,1-.4-.4V18.314a.4.4,0,0,1,.4-.4h1.615a.4.4,0,0,1,.4.4v1.615a.4.4,0,0,1-.4.4ZM29.5,22.351a.4.4,0,0,1-.4.4H27.479a.4.4,0,0,1-.4-.4V20.736a.4.4,0,0,1,.4-.4h1.615a.4.4,0,0,1,.4.4Zm2-2.018H29.9a.4.4,0,0,1-.4-.4V18.314a.4.4,0,0,1,.4-.4h1.615a.4.4,0,0,1,.4.4v1.615a.4.4,0,0,1-.419.4Zm2.826,2.018a.4.4,0,0,1-.4.4H32.308a.4.4,0,0,1-.4-.4V20.736a.4.4,0,0,1,.4-.4h1.615a.4.4,0,0,1,.4.4Zm2.018-2.018H34.73a.4.4,0,0,1-.4-.4V18.314a.4.4,0,0,1,.4-.4h1.615a.4.4,0,0,1,.4.4v1.615a.4.4,0,0,1-.4.4Zm2.826,2.018a.4.4,0,0,1-.4.4H37.152a.4.4,0,0,1-.4-.4V20.736a.4.4,0,0,1,.4-.4h1.615a.4.4,0,0,1,.4.4Zm2.018-2.018H39.574a.4.4,0,0,1-.4-.4V18.314a.4.4,0,0,1,.4-.4h1.615a.4.4,0,0,1,.4.4v1.615A.4.4,0,0,1,41.189,20.333Zm2.826,2.018a.4.4,0,0,1-.4.4H42a.4.4,0,0,1-.4-.4V20.736a.4.4,0,0,1,.4-.4h1.615a.4.4,0,0,1,.4.4Zm2.018-2.018H44.418a.4.4,0,0,1-.4-.4V18.314a.4.4,0,0,1,.4-.4h1.615a.4.4,0,0,1,.4.4v1.615A.4.4,0,0,1,46.033,20.333Zm2.826,2.018a.4.4,0,0,1-.4.4H46.84a.4.4,0,0,1-.4-.4V20.736a.4.4,0,0,1,.4-.4h1.615a.4.4,0,0,1,.4.4Zm2.018-2.018H49.262a.4.4,0,0,1-.4-.4V18.314a.4.4,0,0,1,.4-.4h1.615a.4.4,0,0,1,.4.4v1.615A.4.4,0,0,1,50.877,20.333ZM53.7,22.351a.4.4,0,0,1-.4.4H51.684a.4.4,0,0,1-.4-.4V20.736a.4.4,0,0,1,.4-.4H53.3a.4.4,0,0,1,.4.4Zm2.018-2.018H54.106a.4.4,0,0,1-.4-.4V18.314a.4.4,0,0,1,.4-.4H55.72a.4.4,0,0,1,.4.4v1.615A.4.4,0,0,1,55.72,20.333Zm2.826,2.018a.4.4,0,0,1-.4.4h-1.63a.4.4,0,0,1-.4-.4V20.736a.4.4,0,0,1,.4-.4h1.615a.4.4,0,0,1,.4.4Zm2-2.018H58.935a.4.4,0,0,1-.4-.4V18.314a.4.4,0,0,1,.4-.4h1.615a.4.4,0,0,1,.4.4v1.615A.4.4,0,0,1,60.549,20.333Zm2.826,2.018a.4.4,0,0,1-.4.4H61.357a.4.4,0,0,1-.4-.4V20.736a.4.4,0,0,1,.4-.4h1.615a.4.4,0,0,1,.4.4Zm2.018-2.018H63.779a.4.4,0,0,1-.4-.4V18.314a.4.4,0,0,1,.4-.4h1.615a.4.4,0,0,1,.4.4v1.615A.4.4,0,0,1,65.393,20.333Zm2.826,2.018a.4.4,0,0,1-.4.4H66.2a.4.4,0,0,1-.4-.4V20.736a.4.4,0,0,1,.4-.4h1.615a.4.4,0,0,1,.4.4Zm2.018-2.018H68.623a.4.4,0,0,1-.4-.4V18.314a.4.4,0,0,1,.4-.4h1.615a.4.4,0,0,1,.4.4v1.615A.4.4,0,0,1,70.237,20.333Zm2.826,2.018a.4.4,0,0,1-.4.4H71.045a.4.4,0,0,1-.4-.4V20.736a.4.4,0,0,1,.4-.4h1.615a.4.4,0,0,1,.4.4Zm.4-2.018a.4.4,0,0,1-.4-.4V18.314a.4.4,0,0,1,.4-.4h.583a4.38,4.38,0,0,1,.972,2.422Z" transform="translate(0 0)" fill="#f2f2f2"/>
      </g>
    </g>
    <g id="Artwork_52" data-name="Artwork 52" transform="translate(401.805 2780.578)">
      <g id="Group_1649" data-name="Group 1649" transform="translate(-24.128 -23.95)">
        <path id="Path_8696" data-name="Path 8696" d="M91.911,139.2H62.3v15.942H91.894Zm-8.077,11-2.24,2.24-2.829-2.812-1.57,2.861-2.354-9.009,9.009,2.354-2.861,1.57Z" transform="translate(-52.195 -116.446)" fill="#f2f2f2"/>
        <path id="Path_8697" data-name="Path 8697" d="M47.49,40.53H44.727V29.036a8.258,8.258,0,0,0,.752-.7,9.957,9.957,0,0,0-9.745-16.857,12.7,12.7,0,1,0-25.1,3.761H8.265A7.848,7.848,0,0,0,6.107,30.606V40.5H3.278L3,42.59a3.385,3.385,0,0,0-.049.507v.6a4.235,4.235,0,0,0,4.235,4.235H43.615A4.235,4.235,0,0,0,47.85,43.7v-.6a3.547,3.547,0,0,0-.049-.54ZM8.511,21.613a.834.834,0,0,1,.834-.85H41.457a.85.85,0,0,1,.85.85V40.5H29.39L29.341,41H21.509L21.46,40.5H8.511ZM45.43,43.735a1.815,1.815,0,0,1-1.815,1.815H7.2a1.831,1.831,0,0,1-1.815-1.815v-.6a1.357,1.357,0,0,1,.016-.2H19.253a.54.54,0,0,0,.556.507H31.025a.556.556,0,0,0,.556-.507H45.43a1.683,1.683,0,0,1,.016.2Z" transform="translate(-0.499 -0.036)" fill="#f2f2f2"/>
      </g>
    </g>
  </g>
</svg>
