<svg xmlns="http://www.w3.org/2000/svg" width="119.646" height="23.372" viewBox="0 0 119.646 23.372">
  <g id="Group_1643" data-name="Group 1643" transform="translate(0.002 0.005)">
    <g id="Group_1641" data-name="Group 1641" transform="translate(10.908 14.137)">
      <path id="Path_8658" data-name="Path 8658" d="M77.263,58.129c-4.494,3.323-11.03,5.093-16.667,5.093A30.175,30.175,0,0,1,40.224,55.46c-.409-.381-.054-.9.463-.6a40.987,40.987,0,0,0,20.371,5.392,40.524,40.524,0,0,0,15.551-3.186C77.372,56.767,78.025,57.584,77.263,58.129Z" transform="translate(-40.046 -53.992)" fill="#f2f2f2" fill-rule="evenodd"/>
      <path id="Path_8659" data-name="Path 8659" d="M168.554,53.922c-.572-.735-3.813-.354-5.256-.163-.436.054-.517-.327-.109-.6,2.587-1.825,6.808-1.28,7.3-.681s-.136,4.848-2.56,6.863c-.381.3-.735.136-.572-.272C167.9,57.681,169.126,54.658,168.554,53.922Z" transform="translate(-129.459 -51.91)" fill="#f2f2f2" fill-rule="evenodd"/>
    </g>
    <g id="Group_1642" data-name="Group 1642">
      <path id="Path_8660" data-name="Path 8660" d="M163.356,3.5V1.733a.436.436,0,0,1,.436-.436h7.9a.436.436,0,0,1,.463.436v1.5c0,.245-.218.572-.6,1.117l-4.085,5.828a8.872,8.872,0,0,1,4.494.953.817.817,0,0,1,.409.681v1.879c0,.272-.272.572-.572.409a9.1,9.1,0,0,0-8.334.027.427.427,0,0,1-.572-.409v-1.77a2.124,2.124,0,0,1,.3-1.2l4.766-6.808h-4.14a.436.436,0,0,1-.463-.436Z" transform="translate(-118.527 -0.944)" fill="#f2f2f2" fill-rule="evenodd"/>
      <path id="Path_8661" data-name="Path 8661" d="M51.332,13.854h-2.4a.463.463,0,0,1-.436-.409V1.108a.463.463,0,0,1,.463-.436H51.2a.463.463,0,0,1,.436.409V2.688h.054a3.288,3.288,0,0,1,6.264,0,3.54,3.54,0,0,1,6.1-.926c.763,1.035.6,2.533.6,3.867v7.762a.463.463,0,0,1-.463.436H61.817a.463.463,0,0,1-.436-.436V6.854a16.334,16.334,0,0,0-.054-2.315,1.524,1.524,0,0,0-1.416-1.062,1.58,1.58,0,0,0-1.443,1.008,7.546,7.546,0,0,0-.218,2.369V13.39a.463.463,0,0,1-.463.436h-2.4a.463.463,0,0,1-.436-.436V6.854c0-1.362.218-3.4-1.471-3.4s-1.661,1.961-1.661,3.4V13.39a.463.463,0,0,1-.49.463Z" transform="translate(-35.289 -0.291)" fill="#f2f2f2" fill-rule="evenodd"/>
      <path id="Path_8662" data-name="Path 8662" d="M207.42.4c3.568,0,5.474,3.077,5.474,6.972s-2.124,6.754-5.5,6.754S202,11.048,202,7.236,203.934.4,207.42.4Zm.027,2.506c-1.77,0-1.879,2.424-1.879,3.922s-.027,4.711,1.852,4.711,1.961-2.587,1.961-4.167a11.917,11.917,0,0,0-.354-3.268,1.406,1.406,0,0,0-1.58-1.171Z" transform="translate(-146.985 -0.291)" fill="#f2f2f2" fill-rule="evenodd"/>
      <path id="Path_8663" data-name="Path 8663" d="M251.432,13.917h-2.4a.463.463,0,0,1-.436-.436V1.144a.463.463,0,0,1,.463-.409H251.3a.463.463,0,0,1,.436.354v1.88h.054c.677-1.689,1.6-2.479,3.264-2.479a3.159,3.159,0,0,1,2.805,1.443,7.843,7.843,0,0,1,.626,3.84v7.734a.463.463,0,0,1-.463.381h-2.4a.463.463,0,0,1-.436-.381V6.836c0-1.362.163-3.323-1.5-3.323a1.58,1.58,0,0,0-1.389.98,5.474,5.474,0,0,0-.381,2.342v6.618a.463.463,0,0,1-.49.463Z" transform="translate(-180.894 -0.354)" fill="#f2f2f2" fill-rule="evenodd"/>
      <path id="Path_8664" data-name="Path 8664" d="M290.4,42.925a1.171,1.171,0,1,1,1.171,1.117,1.144,1.144,0,0,1-1.171-1.117Z" transform="translate(-211.307 -30.343)" fill="#f2f2f2" fill-rule="evenodd"/>
      <path id="Path_8665" data-name="Path 8665" d="M382.636,13.708a.463.463,0,0,1-.436-.436V.935a.463.463,0,0,1,.436-.409h.871a.463.463,0,0,1,.463.409v1.8A3.785,3.785,0,0,1,387.238.2h.191a3.316,3.316,0,0,1,3.132,2.832A3.945,3.945,0,0,1,394.128.2h.191a3.323,3.323,0,0,1,2.86,1.906,8.319,8.319,0,0,1,.545,3.758v7.38a.463.463,0,0,1-.436.436h-1.062a.463.463,0,0,1-.436-.381V5.837a6.03,6.03,0,0,0-.327-2.614,2.179,2.179,0,0,0-1.825-1.362,2.793,2.793,0,0,0-2.1,1.471,6.619,6.619,0,0,0-.626,3.268v6.727a.463.463,0,0,1-.436.381h-1.062a.463.463,0,0,1-.436-.436v-7.9a5.156,5.156,0,0,0-.381-2.233,2.233,2.233,0,0,0-1.825-1.28,2.766,2.766,0,0,0-1.961,1.307,6.163,6.163,0,0,0-.708,3v7.081a.463.463,0,0,1-.436.436Z" transform="translate(-278.11 -0.146)" fill="#f2f2f2"/>
      <path id="Path_8666" data-name="Path 8666" d="M344.029,13.953c-3.4,0-4.929-3.486-4.929-6.945S340.9.2,344.329.2h.191c3.35,0,5.011,3.377,5.011,6.836s-1.825,6.917-5.283,6.917h-.218Zm.245-1.689a2.875,2.875,0,0,0,2.533-1.879,7.758,7.758,0,0,0,.572-3.377,7.864,7.864,0,0,0-.708-3.6A2.914,2.914,0,0,0,344.3,1.861a2.862,2.862,0,0,0-2.478,1.852,8.338,8.338,0,0,0-.572,3.3,9.225,9.225,0,0,0,.654,3.6,2.832,2.832,0,0,0,2.369,1.661Z" transform="translate(-246.748 -0.146)" fill="#f2f2f2"/>
      <path id="Path_8667" data-name="Path 8667" d="M305,12.21c1.525-.054,2.342-1.28,2.669-2.86a.463.463,0,0,1,.438-.35h1.008a.436.436,0,0,1,.436.409c-.463,2.7-2.1,4.548-4.412,4.548h-.191c-3.377,0-4.848-3.4-4.848-6.836S301.6.2,304.975.2h.191c2.342,0,4.031,1.8,4.385,4.521a.436.436,0,0,1-.409.409H308.08a.49.49,0,0,1-.409-.436c-.245-1.5-1.117-2.723-2.56-2.751-2.288.082-2.968,2.914-2.968,5.093S302.714,12.156,305,12.21Z" transform="translate(-218.369 -0.146)" fill="#f2f2f2"/>
      <path id="Path_8668" data-name="Path 8668" d="M122.576,7.653a4.869,4.869,0,0,1-.436,2.56,1.961,1.961,0,0,1-1.661,1.089c-.926,0-1.471-.708-1.471-1.743,0-2.043,1.825-2.424,3.568-2.424ZM125,13.508a.49.49,0,0,1-.572.054,5.856,5.856,0,0,1-1.389-1.607A4.771,4.771,0,0,1,119.09,13.7a3.582,3.582,0,0,1-3.59-3.732,4.085,4.085,0,0,1,2.587-3.922A17,17,0,0,1,122.6,5.2V4.9a2.942,2.942,0,0,0-.3-1.743,1.607,1.607,0,0,0-1.334-.626,1.813,1.813,0,0,0-1.934,1.443.517.517,0,0,1-.409.436l-2.315-.245a.436.436,0,0,1-.354-.49C116.448.844,119.008,0,121.3,0a5.39,5.39,0,0,1,3.622,1.2c.926.9,1.062,2.56,1.062,4.14V9.069a3.374,3.374,0,0,0,.9,2.233.463.463,0,0,1,0,.626l-1.852,1.607Z" transform="translate(-84.038)" fill="#f2f2f2" fill-rule="evenodd"/>
      <path id="Path_8669" data-name="Path 8669" d="M7.075,7.653a4.869,4.869,0,0,1-.436,2.56A1.961,1.961,0,0,1,4.978,11.3c-.926,0-1.471-.708-1.471-1.743,0-2.043,1.825-2.424,3.568-2.424ZM9.5,13.508a.49.49,0,0,1-.572.054,5.855,5.855,0,0,1-1.389-1.58A4.771,4.771,0,0,1,3.59,13.725a3.589,3.589,0,0,1-3.6-3.757,4.085,4.085,0,0,1,2.56-3.922A17,17,0,0,1,7.075,5.2V4.9a2.942,2.942,0,0,0-.3-1.743,1.607,1.607,0,0,0-1.334-.6A1.813,1.813,0,0,0,3.508,4a.517.517,0,0,1-.409.436L.784,4.194A.436.436,0,0,1,.43,3.7C.92.844,3.48,0,5.768,0A5.39,5.39,0,0,1,9.39,1.2c.926.9,1.062,2.56,1.062,4.14V9.069a3.374,3.374,0,0,0,.9,2.233.463.463,0,0,1,0,.626L9.5,13.535Z" transform="translate(0.008)" fill="#f2f2f2" fill-rule="evenodd"/>
    </g>
  </g>
</svg>
