<svg xmlns="http://www.w3.org/2000/svg" width="675.756" height="45.354" viewBox="0 0 675.756 45.354">
  <g id="Group_1650" data-name="Group 1650" transform="translate(-191.935 -2729)">
    <g id="Artwork_45" data-name="Artwork 45" transform="translate(251.742 2751.684)">
      <g id="Group_1643" data-name="Group 1643" transform="translate(-59.807 -11.684)">
        <g id="Group_1641" data-name="Group 1641" transform="translate(10.908 14.137)">
          <path id="Path_8658" data-name="Path 8658" d="M77.263,58.129c-4.494,3.323-11.03,5.093-16.667,5.093A30.175,30.175,0,0,1,40.224,55.46c-.409-.381-.054-.9.463-.6a40.987,40.987,0,0,0,20.371,5.392,40.524,40.524,0,0,0,15.551-3.186C77.372,56.767,78.025,57.584,77.263,58.129Z" transform="translate(-40.046 -53.992)" fill="#f2f2f2" fill-rule="evenodd"/>
          <path id="Path_8659" data-name="Path 8659" d="M168.554,53.922c-.572-.735-3.813-.354-5.256-.163-.436.054-.517-.327-.109-.6,2.587-1.825,6.808-1.28,7.3-.681s-.136,4.848-2.56,6.863c-.381.3-.735.136-.572-.272C167.9,57.681,169.126,54.658,168.554,53.922Z" transform="translate(-129.459 -51.91)" fill="#f2f2f2" fill-rule="evenodd"/>
        </g>
        <g id="Group_1642" data-name="Group 1642">
          <path id="Path_8660" data-name="Path 8660" d="M163.356,3.5V1.733a.436.436,0,0,1,.436-.436h7.9a.436.436,0,0,1,.463.436v1.5c0,.245-.218.572-.6,1.117l-4.085,5.828a8.872,8.872,0,0,1,4.494.953.817.817,0,0,1,.409.681v1.879c0,.272-.272.572-.572.409a9.1,9.1,0,0,0-8.334.027.427.427,0,0,1-.572-.409v-1.77a2.124,2.124,0,0,1,.3-1.2l4.766-6.808h-4.14a.436.436,0,0,1-.463-.436Z" transform="translate(-118.527 -0.944)" fill="#f2f2f2" fill-rule="evenodd"/>
          <path id="Path_8661" data-name="Path 8661" d="M51.332,13.854h-2.4a.463.463,0,0,1-.436-.409V1.108a.463.463,0,0,1,.463-.436H51.2a.463.463,0,0,1,.436.409V2.688h.054a3.288,3.288,0,0,1,6.264,0,3.54,3.54,0,0,1,6.1-.926c.763,1.035.6,2.533.6,3.867v7.762a.463.463,0,0,1-.463.436H61.817a.463.463,0,0,1-.436-.436V6.854a16.334,16.334,0,0,0-.054-2.315,1.524,1.524,0,0,0-1.416-1.062,1.58,1.58,0,0,0-1.443,1.008,7.546,7.546,0,0,0-.218,2.369v6.536a.463.463,0,0,1-.463.436h-2.4a.463.463,0,0,1-.436-.436V6.854c0-1.362.218-3.4-1.471-3.4s-1.661,1.961-1.661,3.4v6.536a.463.463,0,0,1-.49.463Z" transform="translate(-35.289 -0.291)" fill="#f2f2f2" fill-rule="evenodd"/>
          <path id="Path_8662" data-name="Path 8662" d="M207.42.4c3.568,0,5.474,3.077,5.474,6.972s-2.124,6.754-5.5,6.754S202,11.048,202,7.236,203.934.4,207.42.4Zm.027,2.506c-1.77,0-1.879,2.424-1.879,3.922s-.027,4.711,1.852,4.711,1.961-2.587,1.961-4.167a11.917,11.917,0,0,0-.354-3.268,1.406,1.406,0,0,0-1.58-1.171Z" transform="translate(-146.985 -0.291)" fill="#f2f2f2" fill-rule="evenodd"/>
          <path id="Path_8663" data-name="Path 8663" d="M251.432,13.917h-2.4a.463.463,0,0,1-.436-.436V1.144a.463.463,0,0,1,.463-.409H251.3a.463.463,0,0,1,.436.354V2.969h.054C252.467,1.28,253.393.49,255.054.49a3.159,3.159,0,0,1,2.805,1.443,7.843,7.843,0,0,1,.626,3.84v7.734a.463.463,0,0,1-.463.381h-2.4a.463.463,0,0,1-.436-.381V6.836c0-1.362.163-3.323-1.5-3.323a1.58,1.58,0,0,0-1.389.98,5.474,5.474,0,0,0-.381,2.342v6.618a.463.463,0,0,1-.49.463Z" transform="translate(-180.894 -0.354)" fill="#f2f2f2" fill-rule="evenodd"/>
          <path id="Path_8664" data-name="Path 8664" d="M290.4,42.925a1.171,1.171,0,1,1,1.171,1.117A1.144,1.144,0,0,1,290.4,42.925Z" transform="translate(-211.307 -30.343)" fill="#f2f2f2" fill-rule="evenodd"/>
          <path id="Path_8665" data-name="Path 8665" d="M382.636,13.708a.463.463,0,0,1-.436-.436V.935a.463.463,0,0,1,.436-.409h.871a.463.463,0,0,1,.463.409v1.8A3.785,3.785,0,0,1,387.238.2h.191a3.316,3.316,0,0,1,3.132,2.832A3.945,3.945,0,0,1,394.128.2h.191a3.323,3.323,0,0,1,2.86,1.906,8.319,8.319,0,0,1,.545,3.758v7.38a.463.463,0,0,1-.436.436h-1.062a.463.463,0,0,1-.436-.381V5.837a6.029,6.029,0,0,0-.327-2.614,2.179,2.179,0,0,0-1.825-1.362,2.793,2.793,0,0,0-2.1,1.471,6.619,6.619,0,0,0-.626,3.268v6.727a.463.463,0,0,1-.436.381h-1.062a.463.463,0,0,1-.436-.436v-7.9a5.156,5.156,0,0,0-.381-2.233,2.233,2.233,0,0,0-1.825-1.28,2.766,2.766,0,0,0-1.961,1.307,6.163,6.163,0,0,0-.708,3v7.081a.463.463,0,0,1-.436.436Z" transform="translate(-278.11 -0.146)" fill="#f2f2f2"/>
          <path id="Path_8666" data-name="Path 8666" d="M344.029,13.953c-3.4,0-4.929-3.486-4.929-6.945S340.9.2,344.329.2h.191c3.35,0,5.011,3.377,5.011,6.836s-1.825,6.917-5.283,6.917h-.218Zm.245-1.689a2.875,2.875,0,0,0,2.533-1.879,7.758,7.758,0,0,0,.572-3.377,7.864,7.864,0,0,0-.708-3.595A2.914,2.914,0,0,0,344.3,1.861a2.862,2.862,0,0,0-2.478,1.852,8.338,8.338,0,0,0-.572,3.3,9.225,9.225,0,0,0,.654,3.595,2.832,2.832,0,0,0,2.369,1.661Z" transform="translate(-246.748 -0.146)" fill="#f2f2f2"/>
          <path id="Path_8667" data-name="Path 8667" d="M305,12.21c1.525-.054,2.342-1.28,2.669-2.86A.463.463,0,0,1,308.107,9h1.008a.436.436,0,0,1,.436.409c-.463,2.7-2.1,4.548-4.412,4.548h-.191c-3.377,0-4.848-3.4-4.848-6.836S301.6.2,304.975.2h.191c2.342,0,4.031,1.8,4.385,4.521a.436.436,0,0,1-.409.409H308.08a.49.49,0,0,1-.409-.436c-.245-1.5-1.117-2.723-2.56-2.751-2.288.082-2.968,2.914-2.968,5.093S302.714,12.156,305,12.21Z" transform="translate(-218.369 -0.146)" fill="#f2f2f2"/>
          <path id="Path_8668" data-name="Path 8668" d="M122.576,7.653a4.869,4.869,0,0,1-.436,2.56,1.961,1.961,0,0,1-1.661,1.089c-.926,0-1.471-.708-1.471-1.743,0-2.043,1.825-2.424,3.568-2.424ZM125,13.508a.49.49,0,0,1-.572.054,5.856,5.856,0,0,1-1.389-1.607A4.771,4.771,0,0,1,119.09,13.7,3.582,3.582,0,0,1,115.5,9.968a4.085,4.085,0,0,1,2.587-3.922A17,17,0,0,1,122.6,5.2V4.9a2.942,2.942,0,0,0-.3-1.743,1.607,1.607,0,0,0-1.334-.626,1.813,1.813,0,0,0-1.934,1.443.517.517,0,0,1-.409.436l-2.315-.245a.436.436,0,0,1-.354-.49C116.448.844,119.008,0,121.3,0a5.39,5.39,0,0,1,3.622,1.2c.926.9,1.062,2.56,1.062,4.14V9.069a3.374,3.374,0,0,0,.9,2.233.463.463,0,0,1,0,.626l-1.852,1.607Z" transform="translate(-84.038)" fill="#f2f2f2" fill-rule="evenodd"/>
          <path id="Path_8669" data-name="Path 8669" d="M7.075,7.653a4.869,4.869,0,0,1-.436,2.56A1.961,1.961,0,0,1,4.978,11.3c-.926,0-1.471-.708-1.471-1.743,0-2.043,1.825-2.424,3.568-2.424ZM9.5,13.508a.49.49,0,0,1-.572.054,5.855,5.855,0,0,1-1.389-1.58,4.771,4.771,0,0,1-3.949,1.743A3.589,3.589,0,0,1-.006,9.968a4.085,4.085,0,0,1,2.56-3.922A17,17,0,0,1,7.075,5.2V4.9a2.942,2.942,0,0,0-.3-1.743,1.607,1.607,0,0,0-1.334-.6A1.813,1.813,0,0,0,3.508,4a.517.517,0,0,1-.409.436L.784,4.194A.436.436,0,0,1,.43,3.7C.92.844,3.48,0,5.768,0A5.39,5.39,0,0,1,9.39,1.2c.926.9,1.062,2.56,1.062,4.14V9.069a3.374,3.374,0,0,0,.9,2.233.463.463,0,0,1,0,.626L9.5,13.535Z" transform="translate(0.008)" fill="#f2f2f2" fill-rule="evenodd"/>
        </g>
      </g>
    </g>
    <g id="Artwork_44" data-name="Artwork 44" transform="translate(351.513 2751.677)">
      <g id="Group_1644" data-name="Group 1644" transform="translate(-19.487 -22.677)">
        <path id="Path_8670" data-name="Path 8670" d="M38.983,62.664a31.049,31.049,0,0,1-2.949,5.5c-1.913,2.923-4.623,6.536-7.944,6.563s-3.746-1.94-7.758-1.913-4.862,1.94-7.838,1.913-5.9-3.295-7.811-6.217c-5.367-8.13-5.925-17.7-2.63-22.77A11.8,11.8,0,0,1,11.59,40c3.481,0,5.766,1.94,8.688,1.94S24.848,40,28.966,40a11.514,11.514,0,0,1,8.715,4.6C30,48.794,31.251,59.741,38.983,62.664Z" transform="translate(-0.008 -29.372)" fill="#f2f2f2"/>
        <path id="Path_8671" data-name="Path 8671" d="M77.649,7.36A9.859,9.859,0,0,0,79.855,0,10.732,10.732,0,0,0,72.92,3.72a8.822,8.822,0,0,0-2.258,7.174A9.006,9.006,0,0,0,77.649,7.36Z" transform="translate(-51.8)" fill="#f2f2f2"/>
      </g>
    </g>
    <g id="Artwork_46" data-name="Artwork 46" transform="translate(458.25 2751.43)">
      <g id="Group_1645" data-name="Group 1645" transform="translate(-62.25 -20.43)">
        <path id="path2998" d="M30.6,14.4h-14.5v4.3h10.3c-.5,6.059-5.53,8.609-10.3,8.609A11.324,11.324,0,0,1,4.735,15.86,11.364,11.364,0,0,1,16.125,4.3a11.192,11.192,0,0,1,7.781,3.112L26.887,4.3A15.345,15.345,0,0,0,15.96,0,16.085,16.085,0,0,0,0,15.794a16.059,16.059,0,0,0,16.192,15.86c8.477,0,14.668-5.795,14.668-14.4A12.914,12.914,0,0,0,30.6,14.4Z" fill="#f2f2f2"/>
        <path id="path3000" d="M107.731,34.1a10.182,10.182,0,1,0,10.2,10.231,9.932,9.932,0,0,0-10.2-10.2ZM107.8,38.1a5.842,5.842,0,0,1,5.7,6.192,5.867,5.867,0,0,1-5.728,6.192,6.077,6.077,0,0,1-5.795-6.225A5.818,5.818,0,0,1,107.8,38.1Z" transform="translate(-65.216 -22.806)" fill="#f2f2f2"/>
        <path id="path3005" d="M174.931,34.1a10.182,10.182,0,1,0,10.2,10.231,9.932,9.932,0,0,0-10.2-10.2ZM175,38.1a5.842,5.842,0,0,1,5.7,6.192,5.867,5.867,0,0,1-5.728,6.192,6.1,6.1,0,0,1-5.828-6.192,5.837,5.837,0,0,1,5.828-6.159Z" transform="translate(-110.165 -22.806)" fill="#f2f2f2"/>
        <path id="path3007" d="M241.768,34.1c-5.463,0-9.768,4.8-9.768,10.2a10.057,10.057,0,0,0,9.669,10.2,6.76,6.76,0,0,0,5.6-2.483v2.02c0,3.51-2.119,5.629-5.364,5.629a5.474,5.474,0,0,1-5.2-3.609l-3.907,1.622a9.76,9.76,0,0,0,9.139,5.993c4.967,0,9.6-3.41,9.6-10.629V34.725h-4.271v1.722a7.185,7.185,0,0,0-5.5-2.351Zm.4,4.007c2.682,0,5.43,2.285,5.43,6.192s-2.748,6.159-5.5,6.159a5.9,5.9,0,0,1-5.629-6.126A5.955,5.955,0,0,1,242.165,38.1Z" transform="translate(-155.181 -22.804)" fill="#f2f2f2"/>
        <path id="path3011" d="M329.1,34.1c-5.165,0-9.5,4.106-9.5,10.165a10.053,10.053,0,0,0,10,10.2,10.36,10.36,0,0,0,8.543-4.47l-3.51-2.351a5.729,5.729,0,0,1-5,2.814,5.6,5.6,0,0,1-5-3.079l13.642-5.662-.7-1.656A9.24,9.24,0,0,0,329.1,34.1Zm.166,3.907a4.067,4.067,0,0,1,3.775,2.185L323.938,44a5.674,5.674,0,0,1,5.364-5.993Z" transform="translate(-213.775 -22.809)" fill="#f2f2f2"/>
        <path id="path3015" d="M300,33.2h4.47V3.2H300Z" transform="translate(-200.665 -2.14)" fill="#f2f2f2"/>
      </g>
    </g>
    <g id="Artwork_48" data-name="Artwork 48" transform="translate(634.156 2751.705)">
      <g id="Group_1646" data-name="Group 1646" transform="translate(-78.169 -16.705)">
        <path id="Path_8672" data-name="Path 8672" d="M0,0H15.893V15.893H0Z" fill="#f2f2f2"/>
        <path id="Path_8673" data-name="Path 8673" d="M50.7,0H66.593V15.893H50.7Z" transform="translate(-33.183)" fill="#f2f2f2"/>
        <path id="Path_8674" data-name="Path 8674" d="M198.427,18.046a2.108,2.108,0,0,1,1.9.656,1.969,1.969,0,0,1,.242,2.246,2.142,2.142,0,0,1-2.28.967,1.935,1.935,0,0,1-1.589-1.9,2,2,0,0,1,1.727-1.935Z" transform="translate(-128.74 -11.792)" fill="#f2f2f2"/>
        <path id="Path_8675" data-name="Path 8675" d="M125.435,19.3h5.01l4.664,11.851c.415,1,.76,1.969,1.175,2.971,2-4.941,4.042-9.847,6.012-14.787h4.8V39.374h-3.455V24.586a4.182,4.182,0,0,0-.035-.656l-.173.311c-1.969,5.044-4.008,10.054-5.977,15.133H135L128.89,24.241l-.173-.311c-.035,2.142,0,4.319-.035,6.461v8.983H125.4V19.335Z" transform="translate(-82.074 -12.632)" fill="#f2f2f2"/>
        <path id="Path_8676" data-name="Path 8676" d="M219.1,35.029a9.4,9.4,0,0,1,5.113,0,4.111,4.111,0,0,1,.967.415c-.035,1.106,0,2.177,0,3.282a5.459,5.459,0,0,0-3.939-1.175,4.042,4.042,0,0,0-2.868,1.589,5.361,5.361,0,0,0-.9,3.973,4.058,4.058,0,0,0,4.6,3.835,6.53,6.53,0,0,0,3.075-1.278v3.109a8.5,8.5,0,0,1-4.7.967,6.944,6.944,0,0,1-4.491-1.866,7.152,7.152,0,0,1-2.073-4.8,8.72,8.72,0,0,1,1.347-5.321,6.91,6.91,0,0,1,3.8-2.695Z" transform="translate(-139.982 -22.694)" fill="#f2f2f2"/>
        <path id="Path_8677" data-name="Path 8677" d="M330.008,34.864a9.087,9.087,0,0,1,4.768.484v3.144a6.046,6.046,0,0,0-3.593-1.071,1.843,1.843,0,0,0-1.624.9,1.486,1.486,0,0,0,.484,1.762c.967.656,2.142.933,3.144,1.52a4.526,4.526,0,0,1,1.969,1.866,4.181,4.181,0,0,1-.9,4.837,6.61,6.61,0,0,1-4.768,1.451A10.227,10.227,0,0,1,326,48.96V45.644a7.5,7.5,0,0,0,3.109,1.347,4.008,4.008,0,0,0,2.384-.207,1.365,1.365,0,0,0,.415-1.935,4.146,4.146,0,0,0-1.486-.967,14.194,14.194,0,0,1-2.971-1.52,3.559,3.559,0,0,1-1.278-1.935,4.388,4.388,0,0,1,.484-3.42,5.113,5.113,0,0,1,3.42-2.108Z" transform="translate(-213.367 -22.737)" fill="#f2f2f2"/>
        <path id="Path_8678" data-name="Path 8678" d="M259.048,35.461a3.87,3.87,0,0,1,3.179-.276v3.42a3.662,3.662,0,0,0-2.315-.553,2.868,2.868,0,0,0-2.142,1.728,6.358,6.358,0,0,0-.484,2.937q0,3.42,0,6.875H253.9V35.254h3.386v2.453A4.388,4.388,0,0,1,259.048,35.461Z" transform="translate(-166.178 -22.885)" fill="#f2f2f2"/>
        <path id="Path_8679" data-name="Path 8679" d="M197.5,35.8h3.42V50.138H197.5Z" transform="translate(-129.264 -23.431)" fill="#f2f2f2"/>
        <path id="Path_8680" data-name="Path 8680" d="M292.669,38.367a6.081,6.081,0,0,0-3.006-3.04,9.121,9.121,0,0,0-4.906-.553,6.841,6.841,0,0,0-4.526,2.418,7.636,7.636,0,0,0-1.589,4.388,8.305,8.305,0,0,0,1.244,5.355,6.5,6.5,0,0,0,3.973,2.591,9.847,9.847,0,0,0,4.008,0,6.633,6.633,0,0,0,3.939-2.418,7.6,7.6,0,0,0,1.52-4.181,9.432,9.432,0,0,0-.656-4.561Zm-3.317,6.6a3.144,3.144,0,0,1-1.693,1.658,4.63,4.63,0,0,1-2.8.138A3.42,3.42,0,0,1,282.718,45a6.634,6.634,0,0,1-.518-3.628,4.561,4.561,0,0,1,1.313-3.006,3.593,3.593,0,0,1,2.246-.9,3.7,3.7,0,0,1,2.868.967,4.548,4.548,0,0,1,1.175,3.006A7.715,7.715,0,0,1,289.352,44.966Z" transform="translate(-182.351 -22.682)" fill="#f2f2f2"/>
        <path id="Path_8681" data-name="Path 8681" d="M371.936,38.767A6.115,6.115,0,0,0,369,35.415a8.925,8.925,0,0,0-5.113-.691,6.728,6.728,0,0,0-6.081,6.046,9.406,9.406,0,0,0,.553,4.975,6.357,6.357,0,0,0,3.49,3.386,9.225,9.225,0,0,0,4.837.415,6.7,6.7,0,0,0,4.215-2.453,7.843,7.843,0,0,0,1.555-4.906,9.156,9.156,0,0,0-.518-3.42Zm-3.109,4.872a4.492,4.492,0,0,1-.9,2.108,3.213,3.213,0,0,1-2,1.071,4.526,4.526,0,0,1-2.453-.276,3.489,3.489,0,0,1-1.8-1.9,6.806,6.806,0,0,1-.415-3.144,4.975,4.975,0,0,1,1.036-2.868,3.524,3.524,0,0,1,2.522-1.209,3.766,3.766,0,0,1,2.764.795,3.939,3.939,0,0,1,1.244,2.28,8.706,8.706,0,0,1,0,3.144Z" transform="translate(-234.116 -22.667)" fill="#f2f2f2"/>
        <path id="Path_8682" data-name="Path 8682" d="M418.99,25.034v-2.8H415.6c-.035-1.417,0-2.868,0-4.284l-3.386,1.036c-.035,1.071,0,2.177,0,3.248h-5.079a21.623,21.623,0,0,1,.069-2.557,2,2,0,0,1,1.14-1.589,3.212,3.212,0,0,1,2.522.242V15.395a6.194,6.194,0,0,0-5.01.587,4.7,4.7,0,0,0-1.935,2.66,14.425,14.425,0,0,0-.242,3.662H401.3v2.764h2.384V36.643h3.42V25.069h5.01v7.394a5.044,5.044,0,0,0,.967,3.282,3.835,3.835,0,0,0,2.695,1.244,6.7,6.7,0,0,0,3.144-.484V33.637a2.572,2.572,0,0,1-2.626.242,1.727,1.727,0,0,1-.726-1.382c-.1-.9-.035-1.762-.069-2.66v-4.8C416.709,25.034,417.849,25,418.99,25.034Z" transform="translate(-262.651 -9.901)" fill="#f2f2f2"/>
        <path id="Path_8683" data-name="Path 8683" d="M0,50.7H15.893V66.593H0Z" transform="translate(0 -33.183)" fill="#f2f2f2"/>
        <path id="Path_8684" data-name="Path 8684" d="M50.7,50.7H66.593V66.593H50.7Z" transform="translate(-33.183 -33.183)" fill="#f2f2f2"/>
      </g>
    </g>
    <g id="Artwork_47" data-name="Artwork 47" transform="translate(804.833 2751.876)">
      <path id="Path_8685" data-name="Path 8685" d="M125.642,9.927C123.936.116,94.429-2.942,59.768,3.1A186.215,186.215,0,0,0,21.836,13.589a4.935,4.935,0,0,1,3.448,1.1,3.057,3.057,0,0,1,.818,2.275v.96H22.689v-.853A1.067,1.067,0,0,0,21.48,15.9a1.067,1.067,0,0,0-1.173.853,1.635,1.635,0,0,0,0,.675c.355,1.493,5.4,2.417,5.972,5.155a6.541,6.541,0,0,1,0,2.2c-.32,2.2-2.275,3.057-4.728,3.057-3.448,0-4.87-1.635-4.87-3.875V22.9h3.7v1.315a1.15,1.15,0,0,0,1.28,1.173c.747,0,1.1-.284,1.244-.853a1.671,1.671,0,0,0-.036-.96c-.675-1.706-5.4-2.489-5.972-5.226a4.586,4.586,0,0,1-.036-1.813,3.484,3.484,0,0,1,.284-.96C5.838,20.912-.81,26.778.079,31.791c1.706,9.847,31.213,12.9,65.874,6.861C81.2,35.986,94.891,32.04,105.307,27.6h-.427c-2.382,0-4.479-.889-4.728-3.306-.036-.427-.036-.64-.036-.889V17.82a6.925,6.925,0,0,1,.071-.889c.284-2.346,2.133-3.306,4.693-3.306,1.991,0,4.408.569,4.693,3.306a8.033,8.033,0,0,1,.036.818h0v.533h-3.448v-.747h0a3.2,3.2,0,0,0-.036-.5,1.159,1.159,0,0,0-1.28-.924,1.173,1.173,0,0,0-1.28.924,2.95,2.95,0,0,0-.036.6v6.044a2.735,2.735,0,0,0,.036.5c0,.107.178.924,1.315.924a1.189,1.189,0,0,0,1.315-.924,2.844,2.844,0,0,0,.036-.5V21.837h-1.351V19.81h4.764V23.4a8.5,8.5,0,0,1-.036.889,3.377,3.377,0,0,1-.569,1.635C120.061,20.664,126.5,14.9,125.642,9.927ZM35.736,27.347,33.994,15.509h-.071l-1.778,11.8H28.484L30.937,13.98h5.972l2.453,13.331Zm17.633,0L53.3,15.758h-.071L51.058,27.347H47.645L45.512,15.758h-.071L45.37,27.347H41.957l.284-13.331h5.475l1.6,9.918h.071l1.6-9.918h5.475l.284,13.331Zm16.069-2.6c-.355,2.6-2.915,3.022-4.693,3.022-2.986,0-4.8-1.28-4.8-3.839V22.868h3.591v1.315a1.126,1.126,0,0,0,1.28,1.138c.782,0,1.1-.284,1.244-.853a1.706,1.706,0,0,0-.036-.96c-.675-1.671-5.333-2.489-5.9-5.155a4.479,4.479,0,0,1-.036-1.778c.391-2.453,2.737-2.951,4.622-2.951s2.915.356,3.662,1.1a3.057,3.057,0,0,1,.818,2.24v.96H65.811v-.818a1.067,1.067,0,0,0-1.173-1.138,1.031,1.031,0,0,0-1.173.853,1.635,1.635,0,0,0,0,.675c.355,1.493,5.368,2.382,5.9,5.119a6.541,6.541,0,0,1,.036,2.133Zm12.478-1.209c0,.249-.036.747-.036.889-.213,2.2-1.778,3.306-4.657,3.306s-4.479-1.1-4.657-3.306c0-.142-.036-.64-.036-.889V13.98h3.448v9.847a2.524,2.524,0,0,0,.036.5,1.28,1.28,0,0,0,2.453,0,3.236,3.236,0,0,0,.036-.5V13.98h3.448ZM96.74,27.2h-4.8l-3.2-10.558H88.67L88.848,27.2H85.506V13.98h4.977l2.986,10.167h.071L93.363,13.98H96.74Z" transform="translate(-62.859 -20.876)" fill="#f2f2f2"/>
    </g>
  </g>
</svg>
