<svg xmlns="http://www.w3.org/2000/svg" width="255.116" height="20.752" viewBox="0 0 255.116 20.752">
  <g id="Group_1396" data-name="Group 1396" transform="translate(0 0)">
    <g id="Artwork_24" data-name="Artwork 24" transform="translate(53.223 11.385)">
      <g id="Group_1278" data-name="Group 1278" transform="translate(-20.666 -7.823)">
        <path id="Path_6314" data-name="Path 6314" d="M20.666,0C9.287,0,0,3.514,0,7.865s9.287,7.781,20.666,7.781,20.666-3.514,20.666-7.781S32.129,0,20.666,0Zm0,14.81c-10.961,0-19.83-3.1-19.83-6.945S9.706.753,20.666.753,40.58,3.932,40.58,7.865,31.711,14.81,20.666,14.81Z" fill="#f2f2f2"/>
        <path id="Path_6315" data-name="Path 6315" d="M33.7,9.6a2.092,2.092,0,0,0-1.506.92,2.845,2.845,0,0,0-.5,1.171.92.92,0,0,0,.167.753c.084.084.669.335,1.506-.5a7.53,7.53,0,0,0,.753-1.171h-.167C34.29,10.186,34.206,9.684,33.7,9.6Z" transform="translate(-5.173 -1.568)" fill="#f2f2f2"/>
        <path id="Path_6316" data-name="Path 6316" d="M20.944,1.6C10.318,1.6,1.7,4.528,1.7,8.043s8.618,6.443,19.244,6.443,19.244-2.928,19.244-6.443S31.57,1.6,20.944,1.6ZM11.573,12.059A2.092,2.092,0,0,1,9.4,9.967a2.343,2.343,0,0,1,1.841-2.175c.167,0,.167.084.167.167l-.167.167a1.924,1.924,0,0,0-1,1.506,1.171,1.171,0,0,0,.837,1.171h.418c1.255,0,2.761-1.422,4.351-3.681a3.753,3.753,0,0,0-1.59.418c-.251.251-.167,0-.251-.084V7.29c.418-.5,1.673-.586,2.008-.586A7.949,7.949,0,0,1,19.02,3.775h0a13.052,13.052,0,0,0-2.677-.418c-2.594,0-3.681,1.088-3.681,2.092a.669.669,0,0,0,.837.586A2.343,2.343,0,0,0,15,5.03h.167a.167.167,0,0,1,.084.167A2.51,2.51,0,0,1,13,6.955,1.339,1.339,0,0,1,11.74,5.532c0-1.339,1.339-2.677,4.685-2.677l2.092.167a34.221,34.221,0,0,0,4.937.586H25.63l.837-.167c.251,0,.251.084.251.251a4.388,4.388,0,0,1-2.761,1.255,26.573,26.573,0,0,1-4.769-1.088.167.167,0,0,1,0,.167l-.167.251a8.2,8.2,0,0,0-2.175,2.51L18.6,6.62a1.339,1.339,0,0,1-.084-.335c0-.586.335-.92.837-.837a.5.5,0,0,1,.418.418,1.171,1.171,0,0,1-.335.753l-.418.251c0,.167.167.251.335.251s0,.251-.084.167a.669.669,0,0,1-.586-.418l-2.092.251C14,11.389,13.163,12.059,11.573,12.059ZM29.9,11.389c.586,0,1.59-1.088,1.841-1.422L31.9,9.8l.167.167-.251.335a4.034,4.034,0,0,1-2.426,1.757c-1,.084-.669-.167-.753-.586a3.263,3.263,0,0,1-1.757.586,1.088,1.088,0,0,1-1.088-.669,1.506,1.506,0,0,1-.084-1,2.175,2.175,0,0,1-1.171.167,1,1,0,0,1-1.088-.92L22.2,11.975H21.028L22.45,9.549a3.263,3.263,0,0,0,.418-.92.251.251,0,0,0-.251-.335,1.506,1.506,0,0,0-.753.5,15.228,15.228,0,0,0-1.255,1.59,3.347,3.347,0,0,1-2.426,1.673,1.422,1.422,0,0,1-1.506-1.171s-.084.167-.669.5h-.251a.586.586,0,0,1-.167-.335l.335-.251a1.757,1.757,0,0,0,.586-.669l.5-.92a2.677,2.677,0,0,1,2.259-1.673.251.251,0,0,1,.251.167.251.251,0,0,1,.084.251,2.51,2.51,0,0,0-1.673,1,2.928,2.928,0,0,0-.418,1.088.92.92,0,0,0,.586,1.088c.753.084,1.422-.418,1.924-1.339a3.012,3.012,0,0,0,.251-1.171,1.255,1.255,0,0,0-.335-.753.335.335,0,0,1,.335-.335h.084a1.757,1.757,0,0,1,.418,1.171,2.008,2.008,0,0,1,0,.418,7.038,7.038,0,0,1,1.757-1.506h.335a.753.753,0,0,1,.837.92,1.863,1.863,0,0,1,1.422-.837.669.669,0,0,1,.753.669.753.753,0,0,1-.669.753.669.669,0,0,1-.753-.5.694.694,0,0,0,.251,1.339,1.757,1.757,0,0,0,1.339-.586c.92-.837,1.422-1.757,2.761-1.757a1.255,1.255,0,0,1,1.088.92l1.757-2.928h1.088L29.9,10.636a1,1,0,0,0-.167.5c-.084.251.167.251.084.251Z" transform="translate(-0.278 -0.261)" fill="#f2f2f2"/>
        <path id="Path_6317" data-name="Path 6317" d="M22.627,6.969a.753.753,0,0,0,.167-.5.18.18,0,0,0-.167-.167.418.418,0,0,0-.335.335.837.837,0,0,0,0,.5S22.46,7.22,22.627,6.969Z" transform="translate(-3.634 -1.029)" fill="#f2f2f2"/>
      </g>
    </g>
    <g id="Artwork_30" data-name="Artwork 30" transform="translate(93.93 11.402)">
      <g id="Group_1279" data-name="Group 1279" transform="translate(-9.161 -9.161)">
        <path id="Path_6318" data-name="Path 6318" d="M14.313,3.6a6.888,6.888,0,0,0-3.513,0l1.722,4.821Z" transform="translate(-3.43 -1.049)" fill="#f1f2f2"/>
        <path id="Path_6319" data-name="Path 6319" d="M21.619,12.211A6.888,6.888,0,0,0,21.206,9.8L17.9,18.341a6.888,6.888,0,0,0,3.719-6.13Z" transform="translate(-5.64 -3.05)" fill="#f1f2f2"/>
        <path id="Path_6320" data-name="Path 6320" d="M14.416,4.7l-2,5.579H9.526l-2-5.579A6.957,6.957,0,0,0,5.6,6.353l2.824,7.439,1.033-2.755h2.755l1.033,2.755,2.962-7.508A6.888,6.888,0,0,0,14.416,4.7Z" transform="translate(-1.812 -1.463)" fill="#f1f2f2"/>
        <path id="Path_6321" data-name="Path 6321" d="M9.192,0a9.161,9.161,0,1,0,9.23,9.161A9.161,9.161,0,0,0,9.192,0Zm0,17.219A7.99,7.99,0,1,1,17.25,9.161a7.99,7.99,0,0,1-8.059,8.059Z" transform="translate(-0.1 0)" fill="#f1f2f2"/>
        <path id="Path_6322" data-name="Path 6322" d="M12.491,16.1,10.7,20.715v.138a6.819,6.819,0,0,0,1.86.276,6.957,6.957,0,0,0,1.722-.207v-.207Z" transform="translate(-3.399 -5.011)" fill="#f1f2f2"/>
        <path id="Path_6323" data-name="Path 6323" d="M3.3,12.273a6.888,6.888,0,0,0,3.582,6.061L3.713,10A6.75,6.75,0,0,0,3.3,12.273Z" transform="translate(-1.096 -3.112)" fill="#f1f2f2"/>
      </g>
    </g>
    <g id="Artwork_29" data-name="Artwork 29" transform="translate(124.887 10.068)">
      <g id="Group_1280" data-name="Group 1280" transform="translate(-10.698 -9.156)">
        <path id="Path_6324" data-name="Path 6324" d="M19.812,7.316H18.9a8.383,8.383,0,0,0-.965-1.982l1.27-1.27.864.965a.284.284,0,0,0,.508-.2V.3a.3.3,0,0,0-.1-.2L20.219,0,15.493.254a.3.3,0,0,0-.152.559l1.118.813L15.341,2.693A8.637,8.637,0,0,0,2.436,7.266H1.623A3.774,3.774,0,0,0,0,9.806c-.051,1.473.508,1.88,1.626,2.642h.864a8.637,8.637,0,0,0,16.36,0h.965a3.79,3.79,0,0,0,1.575-2.591C21.438,8.333,20.879,8.129,19.812,7.316ZM10.667,1.931a8.028,8.028,0,0,1,4.573,1.423A.3.3,0,0,0,15.6,3.3L17.17,1.778a.306.306,0,0,0,0-.457L16.357.813l3.557-.2V4.065l-.508-.61-.2-.1-.2.1L17.323,5.03a.3.3,0,0,0-.051.356,7.926,7.926,0,0,1,.965,1.88H16.052a5.843,5.843,0,0,0-10.619,0H3.1A8.028,8.028,0,0,1,10.667,1.931Zm4.725,5.335H6.043a5.284,5.284,0,0,1,9.3,0ZM10.667,17.783A8.028,8.028,0,0,1,3.147,12.5H5.535a5.843,5.843,0,0,0,10.416,0h2.286A8.028,8.028,0,0,1,10.667,17.783ZM6.2,12.5h9.044a5.284,5.284,0,0,1-9.044,0Zm13.363-.61H1.877A2.564,2.564,0,0,1,.607,9.857a4.66,4.66,0,0,1,1.27-2.032H19.558a2.692,2.692,0,0,1,1.219,2.032,4.134,4.134,0,0,1-1.219,2.083Z" transform="translate(0.006)" fill="#f2f2f2"/>
        <path id="Path_6325" data-name="Path 6325" d="M7.276,17.3H5.548v.356h.457l-.813,1.473L4.38,17.656h.61V17.3H2.5v.356h.559l.254.406.61,1.169.254.457H5.548l.559-.915.559-1.118h.61Z" transform="translate(-1.227 -8.51)" fill="#f2f2f2"/>
        <path id="Path_6326" data-name="Path 6326" d="M13.178,17.2c-.965,0-1.778.559-1.778,1.27s.762,1.27,1.778,1.27,1.778-.559,1.778-1.27S14.144,17.2,13.178,17.2Zm-.051,2.134c-.254,0-.457-.406-.457-.915s.2-.915.457-.915.457.406.457.915S13.382,19.334,13.127,19.334Z" transform="translate(-5.605 -8.461)" fill="#f2f2f2"/>
        <path id="Path_6327" data-name="Path 6327" d="M34.829,17.2h-.051c-.965,0-1.778.559-1.778,1.27s.762,1.27,1.727,1.27h0l.61-.1a1.372,1.372,0,0,0,1.219-1.169A1.372,1.372,0,0,0,35.439,17.3Zm0,2.134h-.051c-.254,0-.457-.406-.457-.915s.2-.915.457-.915h.1a.965.965,0,0,1,.356.864C35.236,18.877,35.083,19.283,34.829,19.334Z" transform="translate(-16.23 -8.461)" fill="#f2f2f2"/>
        <path id="Path_6328" data-name="Path 6328" d="M20.937,19.332h-.61V17.656h.559V17.3H18.651v.356h.559v1.677H18.6v.356h3.455V18.621H21.7A.762.762,0,0,1,20.937,19.332Z" transform="translate(-9.146 -8.51)" fill="#f2f2f2"/>
        <path id="Path_6329" data-name="Path 6329" d="M28.925,17.3H27.249v.356h.457l-.813,1.473-.864-1.473h.61V17.3H24.2v.356h.559l1.118,2.032h1.372l.661-1.169.457-.864h.559Z" transform="translate(-11.901 -8.51)" fill="#f2f2f2"/>
      </g>
    </g>
    <g id="Artwork_28" data-name="Artwork 28" transform="translate(162.176 9.631)">
      <path id="Path_6330" data-name="Path 6330" d="M15.409,19.261c8.519,0,15.409-4.3,15.409-9.631S23.928,0,15.409,0,0,4.3,0,9.631,6.89,19.261,15.409,19.261ZM13.038,9.482h0c0,2.815.741,5.038,1.7,5.778C13.705,14.52,13.038,12.3,13.038,9.482Zm.148-6.149ZM13.261,7.334Zm2.148,7.186c-.889,0-1.778-2-1.852-4.889h3.63c0,2.889-.889,4.889-1.778,4.889Zm0-7.556h-1.63c.3-1.556.963-2.519,1.63-2.519s1.259.889,1.63,2.445Zm2.148.37ZM16.15,15.261c.963-.741,1.7-2.963,1.7-5.778h0C17.78,12.3,17.113,14.52,16.15,15.261Zm1.63-6.445h0v0Zm7.927-4.074Zm0,.222Zm.074.741a5.556,5.556,0,0,1,2.074,4.074c0,3.63-4.371,6.667-10.223,7.334,1.259-1.482,2-4.223,2-7.334V9.334C22.817,8.668,25.188,7.334,25.78,5.7ZM18.965,8.593ZM18.817,7.26Zm1.333-.222.741-.148Zm4.667-.593h0l-.148.148Zm-1.7-2.074a.667.667,0,0,1,.074.222.741.741,0,0,1-.148.37c-.444.667-1.778,1.333-3.7,1.63a9.186,9.186,0,0,0-1.852-4.371C20.447,2.519,22.743,3.408,23.113,4.371ZM17.631,3.334Zm0,4.074h0a8.149,8.149,0,0,0-.889-2.889,8.149,8.149,0,0,1,.963,2.889ZM13.557,5.482l-.222.667ZM7.7,4.371c.37-.963,2.667-1.852,5.63-2.074a9.112,9.112,0,0,0-1.852,4.371c-1.926-.37-3.334-.963-3.7-1.63a.741.741,0,0,1-.148-.37A.667.667,0,0,1,7.7,4.371ZM11.631,8.89h0l.222-.222h0Zm-1.7-2,.667.148ZM5.112,4.963Zm0-.222ZM5.038,5.7C5.63,7.334,8,8.668,11.26,9.26V9.7c0,3.186.741,5.852,2,7.334-5.927-.593-10.3-3.63-10.3-7.26A5.482,5.482,0,0,1,5.038,5.7ZM1.852,9.482v.148c0,4.371,5.334,8,12.149,8.445C7.186,17.631,1.852,14,1.852,9.631Z" transform="translate(-15.409 -9.631)" fill="#f2f2f2"/>
    </g>
    <g id="Artwork_27" data-name="Artwork 27" transform="translate(201.552 9.342)">
      <g id="Group_1281" data-name="Group 1281" transform="translate(-12.841 -9.332)">
        <path id="Path_6331" data-name="Path 6331" d="M18.233,6.2,16.322,3.222,17.316.7,13.8,6.2l2.293,3.21Zm-2.14-2.369,1.758,2.522L16.093,8.878,14.259,6.356Z" transform="translate(-3.252 -0.241)" fill="#f1f2f2"/>
        <path id="Path_6332" data-name="Path 6332" d="M13.769,12.176h2.9l3.592-5.962h0L16.75.1H13.692L10.1,5.985h0ZM14,.406h2.446l3.439,5.656h-2.14L14.61,10.648l.382-.994L12.546,6.062H10.559Z" transform="translate(-2.38 -0.1)" fill="#f1f2f2"/>
        <path id="Path_6333" data-name="Path 6333" d="M4.051,19.87a.994.994,0,0,0-.764-1.07H0c0,.306.535.535.535.535v2.9l-.382.153v.459h2.14v-.459l-.382-.153V21.017h.153l.688,1.911H4.2v-.382L3.21,21.017A1.146,1.146,0,0,0,4.051,19.87ZM2.6,20.482H1.834v-.917H2.6a1.147,1.147,0,0,1,.153.459.994.994,0,0,1-.153.459Z" transform="translate(0 -4.507)" fill="#f1f2f2"/>
        <path id="Path_6334" data-name="Path 6334" d="M9.339,21.475H8.422v.688H7.658V21.017h.535l.153.306H8.8V20.176H8.422l-.306.229H7.658v-.917h.764v.459h.917V18.8H5.9v.382l.382.153v2.9l-.382.229v.459H9.339Z" transform="translate(-1.39 -4.507)" fill="#f1f2f2"/>
        <path id="Path_6335" data-name="Path 6335" d="M12.946,22.9h1.146V19.388l.459-.229V18.7H13.022v.459l.382.153v1.376L12.258,18.7l-1.605.076v.306l.229.153v3.057l-.382.229V22.9h1.529v-.382l-.382-.229V20.764Z" transform="translate(-2.475 -4.484)" fill="#f1f2f2"/>
        <path id="Path_6336" data-name="Path 6336" d="M17.311,22.827h2.14v-.459l-.382-.153L17.846,18.7H16.011v.459l.535.459-.764,2.6-.382.229v.382h1.452v-.382l-.382-.153.229-.764h.841l.229.688-.459.229Zm-.459-1.987.153-.611.229.611Z" transform="translate(-3.629 -4.484)" fill="#f1f2f2"/>
        <path id="Path_6337" data-name="Path 6337" d="M22.117,23.157a1.376,1.376,0,0,0,1.529-1.07V19.411l.306-.153V18.8H22.575v.459l.459.153v2.752a1.3,1.3,0,0,1-.535.229.841.841,0,0,1-.535-.153V19.411l.535-.229V18.8H19.9v.382l.611.229v2.675A1.452,1.452,0,0,0,22.117,23.157Z" transform="translate(-4.69 -4.507)" fill="#f1f2f2"/>
        <path id="Path_6338" data-name="Path 6338" d="M27.846,22.392h-.688V19.564l.611-.306V18.8H25.476v.459l.306.153v3.057l-.382.076V23h3.21V21.7h-.764Z" transform="translate(-5.986 -4.507)" fill="#f1f2f2"/>
        <path id="Path_6339" data-name="Path 6339" d="M29.1,20.252h.764l.076-.688h.306v2.675l-.611.306V23h2.446v-.459l-.611-.306V19.564h.306v.688h.764V18.8H29.1Z" transform="translate(-6.858 -4.507)" fill="#f1f2f2"/>
      </g>
    </g>
    <g id="Artwork_26" data-name="Artwork 26" transform="translate(10.602 11.707)">
      <g id="Group_1282" data-name="Group 1282" transform="translate(-10.602 -9.045)">
        <path id="Path_6340" data-name="Path 6340" d="M19.768,11.4c-.362,0-.868-.072-.868.434h1.375C20.419,11.471,20.057,11.4,19.768,11.4Z" transform="translate(-5.22 -3.15)" fill="#f1f2f2"/>
        <path id="Path_6341" data-name="Path 6341" d="M20.687,6.727l-.94-.145A9.4,9.4,0,0,0,10.632,0,9.4,9.4,0,0,0,1.516,6.51l-.723.145C.142,6.8.07,7.234.07,7.306a17.435,17.435,0,0,0,0,3.328.651.651,0,0,0,.651.651l.723.145a9.4,9.4,0,0,0,9.188,6.656A9.4,9.4,0,0,0,19.747,11.5l.868-.145c.506-.072.579-.723.579-.723V7.451ZM10.632,2.17a7.162,7.162,0,0,1,6.583,4.124A105.768,105.768,0,0,0,4.121,6.221,7.234,7.234,0,0,1,10.632,2.17ZM15.84,9.187v.94h-.651v-.94H13.742a6.656,6.656,0,0,0,0,.8.156.156,0,0,1-.145.145h-.362a.145.145,0,0,1-.217-.145,12.226,12.226,0,0,1,0-1.881.434.434,0,0,1,.217-.362h1.519c.362,0,.868,0,1.013.362a4.485,4.485,0,0,1,.072,1.085Zm-5.209-.723a18.23,18.23,0,0,1,1.953.8c.145.072.145.289.145.434a.506.506,0,0,1-.217.434H9.691a2.749,2.749,0,0,1,0-.506h1.953c.145,0,.145-.145,0-.217L10.125,8.9a.579.579,0,0,1-.362-.434.506.506,0,0,1,0-.362c.217-.579.94-.434,1.447-.434H12.73a2.966,2.966,0,0,1,0,.506h-2.1c-.145.072-.145.289-.072.289Zm-4.2,1.23H8.389c.145,0,.145-.145,0-.217L6.87,8.97a.579.579,0,0,1-.362-.434.506.506,0,0,1,0-.362c.217-.579.94-.434,1.447-.434H9.4a2.532,2.532,0,0,1,0,.506H7.232c-.072.072,0,.145.072.217l1.375.506c.506.072,1.013.651.434,1.157H6.436A3.762,3.762,0,0,1,6.436,9.693Zm-.289.506H5.423V7.812h.723q0,1.157-.072,2.387ZM3.614,9.838l-.651-1.23c-.072-.072-.217-.145-.217,0v1.447c0,.506,0,.145-.145.145H2.312c-.145,0-.217-.072-.217-.145V8.319a.506.506,0,0,1,.145-.434.868.868,0,0,1,.8-.072.651.651,0,0,1,.362.362L4.121,9.4a.149.149,0,0,0,.289-.072c0-.579,0-1.013,0-1.592h.579V9.621a.434.434,0,0,1-.145.362.868.868,0,0,1-1.23-.145Zm7.017,6a7.162,7.162,0,0,1-6.583-4.2c3.111.217,6.728.217,6.728.217a57.683,57.683,0,0,0,6.511-.217,7.162,7.162,0,0,1-6.656,4.2ZM18.951,9.91a.868.868,0,0,1-1.23-.072l-.651-1.3-.145-.145a.145.145,0,0,0-.072.145q0,.76,0,1.519h-.579V8.608c0-.506-.072-.506.072-.723a.8.8,0,0,1,.8-.217.651.651,0,0,1,.434.362l.651,1.3a.145.145,0,0,0,.217-.072V7.6h.579V9.4a.506.506,0,0,1-.072.579Z" transform="translate(0.01 0.002)" fill="#f1f2f2"/>
      </g>
    </g>
    <g id="Artwork_25" data-name="Artwork 25" transform="translate(240.205 9.829)">
      <g id="Group_1283" data-name="Group 1283" transform="translate(-14.911 -9.35)">
        <path id="Path_6342" data-name="Path 6342" d="M10.055,9.756a6.746,6.746,0,0,0,.355,1.278,3.55,3.55,0,0,0,.355.639,2.485,2.485,0,0,0,1.065.852l.568.213,1.562.284h7.1l1.42-.142,1.136-.355a2.485,2.485,0,0,0,1.349-1.278l.284-.781A12.071,12.071,0,0,0,25.534,8.9c.071-.5.142-1.065.213-1.562a11.5,11.5,0,0,0,.071-1.562,23,23,0,0,0-.071-2.556,4.189,4.189,0,0,0-.213-.923,2.556,2.556,0,0,0-.923-1.278,3.2,3.2,0,0,0-.852-.5L22.41.242,20.706.1H16.516l-2.7.071L12.469.384,11.4.668a2.556,2.556,0,0,0-1.349,1.278,3.479,3.479,0,0,0-.284,1.065A9.585,9.585,0,0,0,9.7,4.147q0,.746,0,1.491a22.292,22.292,0,0,0,.213,2.7C10.055,9.259,9.984,9.33,10.055,9.756Zm.355-4.828a7.717,7.717,0,0,1,.071-1.278,4.686,4.686,0,0,1,.213-1.136,2.13,2.13,0,0,1,.781-1.136l.71-.355L13.108.81,14.386.668h6.248L22.41.881l1.136.284a2.13,2.13,0,0,1,1.065.852,2.485,2.485,0,0,1,.213.71,5.041,5.041,0,0,1,.142.781,23.572,23.572,0,0,1,.071,2.414c0,.5-.071.994-.071,1.42l-.142,1.207a10.083,10.083,0,0,1-.355,1.917l-.284.639a2.2,2.2,0,0,1-1.136.994l-.994.284-1.7.142H14.173l-1.207-.213L12.4,12.1a2.2,2.2,0,0,1-1.065-1.065,5.041,5.041,0,0,1-.355-.994,11.573,11.573,0,0,1-.284-1.42,12.675,12.675,0,0,1-.142-1.633,18.673,18.673,0,0,1-.071-2.059Z" transform="translate(-2.813 -0.1)" fill="#f2f2f2"/>
        <path id="Path_6343" data-name="Path 6343" d="M3.479,22.055h.426a.213.213,0,0,1,.213.213h0v.568H2.059v-.5a.213.213,0,0,1,.213-.213H2.7v-.213a1.349,1.349,0,0,0,0-.213H0v.426H.426a.213.213,0,0,1,.213.213.781.781,0,0,1,0,.142v1.7a.639.639,0,0,1,0,.142.213.213,0,0,1-.213.213H0v.426H2.7V24.54H2.272c-.142,0-.213-.071-.284-.284a1.528,1.528,0,0,1,0-.568h2.13v.568h0a.213.213,0,0,1-.213.213H3.479V24.9h2.7v-.426h-.5a.213.213,0,0,1-.213-.213V22.339a.213.213,0,0,1,.213-.213h.426V21.7H3.479Z" transform="translate(0 -6.363)" fill="#f2f2f2"/>
        <path id="Path_6344" data-name="Path 6344" d="M20.663,21.6v.426h.426a.213.213,0,0,1,.213.213h0v1.775h-.071l-1.7-2.2a.355.355,0,0,0-.284-.142H16.9V22.1h.426a.213.213,0,0,1,.213.213.782.782,0,0,1,0,.142v1.7h0a.213.213,0,0,1-.213.284H16.9v.426h2.13a2.2,2.2,0,0,0,0-.426H18.6a.213.213,0,0,1-.213-.213h0V22.665h.071l1.7,2.2a.426.426,0,0,0,.355.142h1.7v-2.7a.213.213,0,0,1,.213-.213h.426v-.426Z" transform="translate(-4.9 -6.334)" fill="#f2f2f2"/>
        <path id="Path_6345" data-name="Path 6345" d="M31.138,23.062A1.42,1.42,0,0,0,30.57,22l-.5-.284a3.266,3.266,0,0,0-1.136-.213H25.6v.426h.355c.213,0,.284.071.284.284v1.846a.213.213,0,0,1-.213.213H25.6V24.7h3.834l.852-.213a1.491,1.491,0,0,0,.781-.852A1.846,1.846,0,0,0,31.138,23.062Zm-1.633.639v.284a.639.639,0,0,1-.426.284h-1.42V22.21h1.562a.639.639,0,0,1,.426.355,1.491,1.491,0,0,1,.071.568,1.846,1.846,0,0,1-.213.568Z" transform="translate(-7.423 -6.305)" fill="#f2f2f2"/>
        <path id="Path_6346" data-name="Path 6346" d="M13.741,22l-.852-.355L11.611,21.5l-1.136.142-.781.213a1.633,1.633,0,0,0-.071,2.7l.426.213,1.065.213a6.035,6.035,0,0,0,1.633-.071l.852-.284a1.633,1.633,0,0,0,.142-2.7Zm-.923,1.7a.852.852,0,0,1-.639.71,2.13,2.13,0,0,1-.994,0,.852.852,0,0,1-.639-.71.9.9,0,0,0-.071-.426,2.272,2.272,0,0,1,.071-.5.852.852,0,0,1,.639-.639,2.059,2.059,0,0,1,1.065,0,.852.852,0,0,1,.639.71A1.988,1.988,0,0,1,12.818,23.7Z" transform="translate(-2.594 -6.305)" fill="#f2f2f2"/>
        <path id="Path_6347" data-name="Path 6347" d="M38.68,24.227,37.9,23.091l-.852-1.278a.426.426,0,0,0-.355-.213H34.136v.426H34.7a.159.159,0,0,1,.142.284h0L33.71,24.3h-.071l-.213.142H33v.426h2.13V24.44H34.7a.159.159,0,1,1-.142-.284l.142-.213h2.13l.142.284a.142.142,0,0,1-.071.213h-.5v.426H39.39V24.44h-.355A.426.426,0,0,1,38.68,24.227ZM35.2,23.3l.639-.994.639.994Z" transform="translate(-9.569 -6.334)" fill="#f2f2f2"/>
        <path id="Path_6348" data-name="Path 6348" d="M14.271,2.423V8.316l.142,1.491v1.207l.142,1.42v.071l1.633.142v-.142l.426-1.491a4.331,4.331,0,0,1,.284-.781.994.994,0,0,1,.781-.568h1.846a.994.994,0,0,1,.781.568v.142l.284.781.355,1.349h0l1.633-.142c.284-3.621.5-7.242.781-10.864h-.568l-.426,2.059-.71,2.982a5.4,5.4,0,0,1-.355.923,1.7,1.7,0,0,1-1.349.994H18.105a1.7,1.7,0,0,1-1.065-.639,2.343,2.343,0,0,1-.284-.568A9.656,9.656,0,0,1,16.4,6.186c-.355-1.42-.71-2.911-.994-4.331V1.571H14.2v.071Z" transform="translate(-4.118 -0.506)" fill="#f2f2f2"/>
      </g>
    </g>
  </g>
</svg>
