<svg xmlns="http://www.w3.org/2000/svg" width="28.813" height="24.581" viewBox="0 0 28.813 24.581">
  <g id="Group_1282" data-name="Group 1282" transform="translate(0.001 0)">
    <path id="Path_6340" data-name="Path 6340" d="M20.08,11.4c-.492,0-1.18-.1-1.18.59h1.868C20.964,11.5,20.473,11.4,20.08,11.4Z" transform="translate(-0.31 -0.191)" fill="#f1f2f2"/>
    <path id="Path_6341" data-name="Path 6341" d="M28.115,9.142l-1.278-.2A12.78,12.78,0,0,0,14.451,0,12.78,12.78,0,0,0,2.064,8.848l-.983.2C.2,9.241.1,9.831.1,9.929a23.692,23.692,0,0,0,0,4.522.885.885,0,0,0,.885.885l.983.2a12.78,12.78,0,0,0,12.485,9.044,12.78,12.78,0,0,0,12.387-8.946l1.18-.2c.688-.1.786-.983.786-.983V10.126ZM14.451,2.949a9.732,9.732,0,0,1,8.946,5.6A143.727,143.727,0,0,0,5.6,8.454a9.831,9.831,0,0,1,8.848-5.505Zm7.078,9.536v1.278h-.885V12.485H18.678a9.045,9.045,0,0,0,0,1.081.211.211,0,0,1-.2.2H17.99a.2.2,0,0,1-.295-.2,16.614,16.614,0,0,1,0-2.556.59.59,0,0,1,.295-.492h2.064c.492,0,1.18,0,1.376.492a6.1,6.1,0,0,1,.1,1.475ZM14.451,11.5a24.773,24.773,0,0,1,2.654,1.081c.2.1.2.393.2.59a.688.688,0,0,1-.295.59H13.173a3.736,3.736,0,0,1,0-.688h2.654c.2,0,.2-.2,0-.295l-2.064-.688a.786.786,0,0,1-.492-.59.688.688,0,0,1,0-.492c.295-.786,1.278-.59,1.966-.59H17.3a4.03,4.03,0,0,1,0,.688H14.451c-.2.1-.2.393-.1.393Zm-5.7,1.671H11.4c.2,0,.2-.2,0-.295L9.339,12.19a.786.786,0,0,1-.492-.59.688.688,0,0,1,0-.492c.295-.786,1.278-.59,1.966-.59H12.78a3.441,3.441,0,0,1,0,.688H9.83c-.1.1,0,.2.1.295l1.868.688c.688.1,1.376.885.59,1.573H8.749A5.112,5.112,0,0,1,8.749,13.173Zm-.393.688H7.373V10.617h.983q0,1.573-.1,3.244ZM4.915,13.37,4.03,11.7c-.1-.1-.295-.2-.295,0v1.966c0,.688,0,.2-.2.2H3.146c-.2,0-.295-.1-.295-.2V11.305a.688.688,0,0,1,.2-.59,1.18,1.18,0,0,1,1.081-.1.885.885,0,0,1,.492.492L5.6,12.78a.2.2,0,0,0,.393-.1c0-.786,0-1.376,0-2.163h.786v2.556a.59.59,0,0,1-.2.492,1.18,1.18,0,0,1-1.671-.2Zm9.536,8.159a9.732,9.732,0,0,1-8.946-5.7c4.227.295,9.143.295,9.143.295a78.385,78.385,0,0,0,8.848-.295,9.732,9.732,0,0,1-9.044,5.7Zm11.305-8.061a1.18,1.18,0,0,1-1.671-.1L23.2,11.6l-.2-.2a.2.2,0,0,0-.1.2q0,1.032,0,2.064h-.786V11.7c0-.688-.1-.688.1-.983A1.081,1.081,0,0,1,23.3,10.42a.885.885,0,0,1,.59.492l.885,1.77a.2.2,0,0,0,.295-.1V10.322h.786V12.78a.688.688,0,0,1-.1.786Z" transform="translate(0.01 0.002)" fill="#f1f2f2"/>
  </g>
</svg>
