<svg xmlns="http://www.w3.org/2000/svg" width="76.247" height="39.199" viewBox="0 0 76.247 39.199">
  <g id="Artwork_51" data-name="Artwork 51" transform="translate(0 0)">
    <path id="Path_8690" data-name="Path 8690" d="M79.234,178.8a6.234,6.234,0,1,0,6.234,6.234A6.234,6.234,0,0,0,79.234,178.8Z" transform="translate(-62.086 -152.069)" fill="#f2f2f2"/>
    <path id="Path_8691" data-name="Path 8691" d="M347.934,178.8a6.234,6.234,0,1,0,6.234,6.234A6.234,6.234,0,0,0,347.934,178.8Z" transform="translate(-290.614 -152.069)" fill="#f2f2f2"/>
    <path id="Path_8692" data-name="Path 8692" d="M71.538,15.369l-13.44.045C56.154,13.5,52.97,9.867,50.847,7.43,49.9,6.354,49.157,5.5,48.783,5.1h-.015A4.934,4.934,0,0,0,45.15,3.56H43.82v-1.8C43.82.957,43.566,0,42.34,0H41.054c-.583,0-1.57.224-1.57,1.764V3.558H22.157a3.746,3.746,0,0,0-2.93,1.226l-7.52,10.271-.1.164h-.03l-6.892.03h-.02C1.57,15.369,0,17.163,0,20.587v7.221A4.694,4.694,0,0,0,4.694,32.5H8.372a.987.987,0,0,0,.987-.867,7.685,7.685,0,0,1,2.6-4.859A7.984,7.984,0,0,1,17.208,24.8a7.7,7.7,0,0,1,7.61,6.817.987.987,0,0,0,.987.867H48.589a.987.987,0,0,0,.987-.867,7.744,7.744,0,0,1,15.384,0,.987.987,0,0,0,.987.867h5.606a4.694,4.694,0,0,0,4.694-4.694v-7.2A5.562,5.562,0,0,0,74.9,17.044a4.442,4.442,0,0,0-3.362-1.675ZM39.215,6.16l5.831.03c.942,0,1.375-.045,3.065,2.123l5.113,6.01c.4.6.045,1.36-.389,1.36l-13.994-.045a.628.628,0,0,1-.628-.628V7.161a.935.935,0,0,1,1-1ZM15.788,14.308c1.346-1.973,2.422-3.483,4.231-6.2C21.424,6,21.738,6.16,22.68,6.16l11.093.03c1.241-.03,1.241,1,1.241,1l-.03,7.849a.628.628,0,0,1-.628.628c-3.08.015-16.655.09-17.911.045C14.8,15.623,15.773,14.323,15.788,14.308ZM2.467,20.333H1.211a5.035,5.035,0,0,1,.568-2.422h.688a.4.4,0,0,1,.4.4v1.615a.4.4,0,0,1-.4.407Zm2.826,2.018a.4.4,0,0,1-.4.4H3.274a.4.4,0,0,1-.4-.4V20.736a.4.4,0,0,1,.4-.4H4.889a.4.4,0,0,1,.4.4Zm2-2.018H5.681a.4.4,0,0,1-.4-.4V18.314a.4.4,0,0,1,.4-.4H7.3a.4.4,0,0,1,.4.4v1.615a.4.4,0,0,1-.4.4Zm2.826,2.018a.4.4,0,0,1-.4.4H8.1a.4.4,0,0,1-.4-.4V20.736a.4.4,0,0,1,.4-.4H9.718a.4.4,0,0,1,.4.4Zm2.018-2.018H10.525a.4.4,0,0,1-.4-.4V18.314a.4.4,0,0,1,.4-.4H12.14a.4.4,0,0,1,.4.4v1.615a.4.4,0,0,1-.4.4Zm2.826,2.018a.4.4,0,0,1-.4.4H12.947a.4.4,0,0,1-.4-.4V20.736a.4.4,0,0,1,.4-.4h1.615a.4.4,0,0,1,.4.4Zm2.018-2.018H15.369a.4.4,0,0,1-.4-.4V18.314a.4.4,0,0,1,.4-.4h1.615a.4.4,0,0,1,.4.4v1.615a.4.4,0,0,1-.4.4Zm2.826,2.018a.4.4,0,0,1-.4.4H17.791a.4.4,0,0,1-.4-.4V20.736a.4.4,0,0,1,.4-.4h1.615a.4.4,0,0,1,.4.4Zm2.018-2.018H20.213a.4.4,0,0,1-.4-.4V18.314a.4.4,0,0,1,.4-.4h1.615a.4.4,0,0,1,.4.4v1.615a.4.4,0,0,1-.4.4Zm2.826,2.018a.4.4,0,0,1-.4.4H22.635a.4.4,0,0,1-.4-.4V20.736a.4.4,0,0,1,.4-.4H24.25a.4.4,0,0,1,.4.4Zm2.018-2.018H25.057a.4.4,0,0,1-.4-.4V18.314a.4.4,0,0,1,.4-.4h1.615a.4.4,0,0,1,.4.4v1.615a.4.4,0,0,1-.4.4ZM29.5,22.351a.4.4,0,0,1-.4.4H27.479a.4.4,0,0,1-.4-.4V20.736a.4.4,0,0,1,.4-.4h1.615a.4.4,0,0,1,.4.4Zm2-2.018H29.9a.4.4,0,0,1-.4-.4V18.314a.4.4,0,0,1,.4-.4h1.615a.4.4,0,0,1,.4.4v1.615a.4.4,0,0,1-.419.4Zm2.826,2.018a.4.4,0,0,1-.4.4H32.308a.4.4,0,0,1-.4-.4V20.736a.4.4,0,0,1,.4-.4h1.615a.4.4,0,0,1,.4.4Zm2.018-2.018H34.73a.4.4,0,0,1-.4-.4V18.314a.4.4,0,0,1,.4-.4h1.615a.4.4,0,0,1,.4.4v1.615a.4.4,0,0,1-.4.4Zm2.826,2.018a.4.4,0,0,1-.4.4H37.152a.4.4,0,0,1-.4-.4V20.736a.4.4,0,0,1,.4-.4h1.615a.4.4,0,0,1,.4.4Zm2.018-2.018H39.574a.4.4,0,0,1-.4-.4V18.314a.4.4,0,0,1,.4-.4h1.615a.4.4,0,0,1,.4.4v1.615a.4.4,0,0,1-.4.4Zm2.826,2.018a.4.4,0,0,1-.4.4H42a.4.4,0,0,1-.4-.4V20.736a.4.4,0,0,1,.4-.4h1.615a.4.4,0,0,1,.4.4Zm2.018-2.018H44.418a.4.4,0,0,1-.4-.4V18.314a.4.4,0,0,1,.4-.4h1.615a.4.4,0,0,1,.4.4v1.615a.4.4,0,0,1-.4.4Zm2.826,2.018a.4.4,0,0,1-.4.4H46.84a.4.4,0,0,1-.4-.4V20.736a.4.4,0,0,1,.4-.4h1.615a.4.4,0,0,1,.4.4Zm2.018-2.018H49.262a.4.4,0,0,1-.4-.4V18.314a.4.4,0,0,1,.4-.4h1.615a.4.4,0,0,1,.4.4v1.615a.4.4,0,0,1-.4.4ZM53.7,22.351a.4.4,0,0,1-.4.4H51.684a.4.4,0,0,1-.4-.4V20.736a.4.4,0,0,1,.4-.4H53.3a.4.4,0,0,1,.4.4Zm2.018-2.018H54.106a.4.4,0,0,1-.4-.4V18.314a.4.4,0,0,1,.4-.4H55.72a.4.4,0,0,1,.4.4v1.615a.4.4,0,0,1-.4.4Zm2.826,2.018a.4.4,0,0,1-.4.4h-1.63a.4.4,0,0,1-.4-.4V20.736a.4.4,0,0,1,.4-.4h1.615a.4.4,0,0,1,.4.4Zm2-2.018H58.935a.4.4,0,0,1-.4-.4V18.314a.4.4,0,0,1,.4-.4H60.55a.4.4,0,0,1,.4.4v1.615a.4.4,0,0,1-.4.4Zm2.826,2.018a.4.4,0,0,1-.4.4H61.357a.4.4,0,0,1-.4-.4V20.736a.4.4,0,0,1,.4-.4h1.615a.4.4,0,0,1,.4.4Zm2.018-2.018H63.779a.4.4,0,0,1-.4-.4V18.314a.4.4,0,0,1,.4-.4h1.615a.4.4,0,0,1,.4.4v1.615a.4.4,0,0,1-.4.4Zm2.826,2.018a.4.4,0,0,1-.4.4H66.2a.4.4,0,0,1-.4-.4V20.736a.4.4,0,0,1,.4-.4h1.615a.4.4,0,0,1,.4.4Zm2.018-2.018H68.623a.4.4,0,0,1-.4-.4V18.314a.4.4,0,0,1,.4-.4h1.615a.4.4,0,0,1,.4.4v1.615a.4.4,0,0,1-.4.4Zm2.826,2.018a.4.4,0,0,1-.4.4H71.045a.4.4,0,0,1-.4-.4V20.736a.4.4,0,0,1,.4-.4H72.66a.4.4,0,0,1,.4.4Zm.4-2.018a.4.4,0,0,1-.4-.4V18.314a.4.4,0,0,1,.4-.4h.583a4.38,4.38,0,0,1,.972,2.422Z" fill="#f2f2f2"/>
  </g>
</svg>
