<svg xmlns="http://www.w3.org/2000/svg" width="47.8" height="47.8" viewBox="0 0 47.8 47.8">
  <g id="Artwork_35" data-name="Artwork 35" transform="translate(-0.248 -0.001)">
    <path id="Path_9427" data-name="Path 9427" d="M28.875,9.648c0-.331-.083-.331-.083,0L27.8,24.534l.992.579Z" transform="translate(-4.81 -1.626)" fill="#fff"/>
    <path id="Path_9428" data-name="Path 9428" d="M23.447,31.312,27.665,29l-.992-.5-3.391,2.729C23.117,31.394,23.2,31.477,23.447,31.312Z" transform="translate(-4.013 -4.93)" fill="#fff"/>
    <path id="Path_9429" data-name="Path 9429" d="M24.148,0a23.9,23.9,0,1,0,23.9,23.9A23.9,23.9,0,0,0,24.148,0Zm0,46.891c-9.1,0-16.209-4.714-19.6-11.164l.5-.165A30.93,30.93,0,0,0,8.6,39.944c1.9,2.067,7.939,6.12,15.465,6.12a22.329,22.329,0,0,0,19.021-10.5c.331-.083.413-.248.331-.5A23.239,23.239,0,0,0,46.477,23.9a20.1,20.1,0,0,0-.91-6.285,24.644,24.644,0,0,0-1.323-3.225.579.579,0,0,1-.083-.331l.248.248A29.11,29.11,0,0,1,45.9,17.532a16.044,16.044,0,0,1,1.4,6.285A23.073,23.073,0,0,1,24.148,46.89ZM4.8,35.147,21.667,22.99l-1.406-.827L5.21,34.651A23.156,23.156,0,0,1,2.316,23.9,21.419,21.419,0,0,1,23.735,2.4L20.592,21.584,22,22.411,23.983,2.4c0-.248.165-.248.165,0V23.487L27.787,21.5,24.479,2.4c11.743.331,21.5,9.759,21.5,21.5a22.908,22.908,0,0,1-2.894,10.834L28.035,22.163l-1.489.827,16.21,11.744c.413.248.248.413-.165.165L24.4,24.4v3.97l18.19,6.943A21.585,21.585,0,0,1,24.066,45.485,21.419,21.419,0,0,1,5.624,35.313L23.9,28.366V24.4L4.962,35.313C4.466,35.561,4.383,35.4,4.8,35.147Zm-.413.248A26.133,26.133,0,0,1,2.4,29.524a.662.662,0,0,1,0-.331l.165.248a27.87,27.87,0,0,0,2.316,5.541ZM47.3,19.848l-.165-.248a24.008,24.008,0,0,0-6.2-10.751,23.321,23.321,0,0,0-16.7-7.443A22.99,22.99,0,0,0,1.323,24.314,24.893,24.893,0,0,0,2.812,33c.744,1.9,2.15,4.466,2.15,4.548a.662.662,0,0,1,.083.331L4.8,37.628A40.853,40.853,0,0,1,2.316,33,23.543,23.543,0,0,1,24.231.579,23.156,23.156,0,0,1,47.3,19.517.662.662,0,0,1,47.3,19.848Z" transform="translate(0 0.001)" fill="#fff"/>
    <path id="Path_9430" data-name="Path 9430" d="M43.3,36.753,30.892,28.4l-.992.579,13.4,7.856C43.545,37,43.545,36.918,43.3,36.753Z" transform="translate(-5.173 -4.913)" fill="#fff"/>
  </g>
</svg>
