<svg xmlns="http://www.w3.org/2000/svg" width="99.266" height="42.872" viewBox="0 0 99.266 42.872">
  <g id="Artwork_53" data-name="Artwork 53" transform="translate(0 0)">
    <path id="Path_9449" data-name="Path 9449" d="M20.74.548A3.2,3.2,0,0,0,22.02.183L22.385,0H21.38A1.554,1.554,0,0,0,20.1.548h.548" transform="translate(-1.727 0.003)" fill="#f2f2f2"/>
    <path id="Path_9450" data-name="Path 9450" d="M11.056,7.7a6.49,6.49,0,0,0,.548.914,1.828,1.828,0,0,0,1.737.823c.366-.091.366-.183.366-.183a1.645,1.645,0,0,0,1.1.366,8.775,8.775,0,0,1-.366-1.1,1.828,1.828,0,0,1,.091-.64,2.925,2.925,0,0,1,.64-1.1,1,1,0,0,1,1.28-.183,2.1,2.1,0,0,1,.457,2.285,2.616,2.616,0,0,1-.823,1.1H16a2.468,2.468,0,0,1-.823-.274,1.28,1.28,0,0,0,.091.366l.183.548-.183.274a.7.7,0,0,0,0,.731,4.387,4.387,0,0,0,1.92.731A.914.914,0,0,0,18.094,12a10.694,10.694,0,0,1,1.28-1.645A7.221,7.221,0,0,1,22.664,8.8c.091,0,2.194-.64,5.759,2.194l-3.108.457a7.139,7.139,0,0,0-4.753,3.93,2.377,2.377,0,0,0,1.28,3.473A4.845,4.845,0,0,0,25.5,16.018a1.28,1.28,0,0,1,1.554-.823c.731.274,7.4,2.559,8.958,2.925,0,0,4.479,1.188,6.124-.914,2.651.914,5.21,1.28,11.791.457a12.523,12.523,0,0,1,2.011-.091,4.845,4.845,0,0,1,3.38,1.828c1.737,2.742,3.93,8.227,11.609,7.587l3.473-.274c2.1-.091,3.839-.183,5.576.731a7.952,7.952,0,0,1,2.011,1.828c1.737,1.645,3.382,3.473,5.576,2.468A5.667,5.667,0,0,0,89.208,30,2.468,2.468,0,0,0,88.2,28.267c1.92.457,6.4.731,8.044-2.194a1.828,1.828,0,0,0,.274-1.645c-.457-1-1.737-.731-1.737-.731A12.928,12.928,0,0,1,92.4,24.885a6.49,6.49,0,0,1-4.022-.091C85,23.331,73.943,17.024,68.276,14.282c0,0-6.49-3.016-16-6.764,0,0-18.555-7.861-30.987-7.221,0,0-6.581.183-8.684,3.108a.914.914,0,0,0-.183.823.183.183,0,0,1,0,.183,11.7,11.7,0,0,0-1.645,1.92,1,1,0,0,0,0,1.188l.274.274m.64-1.005A2.834,2.834,0,0,1,13.7,4.96h.731A3.565,3.565,0,0,0,16.81,3.04H15.261c-1.006.182-1.371,1.46-1.371,1.37s-.914-.548-.731-.823.64-1.1,4.113-1.92a17.824,17.824,0,0,1,5.3-.366l-.183.274a3.291,3.291,0,0,1-3.656,1.371s0,.914,2.285,1.28c0,0,2.1.366,5.576,3.2,0,0-1.645-3.291-4.479-4.2,0,0-.366-.091-.183-.274A6.947,6.947,0,0,1,25.955,1.3s7.5-.731,11.791,5.119a22.577,22.577,0,0,0-2.285-3.565S39.849,4.136,46.7,6.512l7.587,2.834C58.313,10.9,68.367,14.83,74.766,18.3l12.705,6.673a7.5,7.5,0,0,0,5.393.548c.731-.274,2.011-1.28,2.559-.731a1,1,0,0,1,.183,1.1A3.839,3.839,0,0,1,93.6,27.718a10.237,10.237,0,0,1-4.57.366,8.135,8.135,0,0,1-4.662-2.468l-2.285-2.285a4.3,4.3,0,0,0-2.559-1.371c-1.462-.183-5.027-.274-6.307-.731s-2.011-.914-3.382-3.016a5.667,5.667,0,0,0-2.1-1.92,5.3,5.3,0,0,1,1.1,1.28l1.188,2.377A4.844,4.844,0,0,0,71.2,21.411a3.2,3.2,0,0,0,1.828.731c.731.091,3.108.091,5.119.091a4.753,4.753,0,0,1,3.565,1.188c.64.548,1.645,2.011,2.285,2.651a9.323,9.323,0,0,0,2.834,2.285c.548.274,1.371.914,1.371,1.554s-1.554.823-3.565.274a2.925,2.925,0,0,0,3.016.731,2.377,2.377,0,0,1-1.645.64c-1.92-.091-3.748-2.468-4.753-3.291a22.4,22.4,0,0,0-2.194-1.737c-2.011-1.371-6.581-1.005-6.581-1.005l-3.382.183c-6.581.457-9.323-5.3-10.055-6.49l-.731-1c-.366-.457-2.1-2.742-3.93-3.473,0,0,1.737,1.554,1.645,2.559a5.667,5.667,0,0,0-2.742-.091c-8.592,1.188-11.517-.914-11.517-.914a5.119,5.119,0,0,0-.823-3.473c.64.183,4.936,1.645,8.958.823,0,0-6.581,0-11.151-3.565,0,0,2.834,3.565,2.194,5.941,0,0-.457,2.468-5.484,1.462L26.869,15.1c-1.737-.548-2.377.274-2.651.823a2.925,2.925,0,0,1-1.28,1.828,1.737,1.737,0,0,1-1.37-2.551c-1.462,2.1.091,3.016.548,3.016l-.823.366a2.194,2.194,0,0,1-.823-2.925A6.289,6.289,0,0,1,26.138,12a14.168,14.168,0,0,1,2.925-.091c2.011.274,3.291,1.371,6.216,1.645-6.307-1.828-6.307-5.484-6.307-5.576h0a4.753,4.753,0,0,0,.183,3.108L27.418,9.62A11.517,11.517,0,0,0,23.4,7.975c-.731-.091-1.1-1.005-1.1-1.005h-.091c-1-1.828-2.1-1.828-2.1-1.828a3.656,3.656,0,0,1,.64,1.92c.274,2.194-2.194,2.925-2.194,2.925C17,11.9,17.089,12,16.723,12a2.925,2.925,0,0,1-1.1-.366.274.274,0,0,1,.091-.366l.548-.457c1.645-1.645,1.828-2.468,1.645-3.565s-1.92-1.92-1.92-1.92a1.371,1.371,0,0,0-1.1.64,13.349,13.349,0,0,0-.823,1.645,7.422,7.422,0,0,1-.823.914h-.457a1.462,1.462,0,0,1-.914-.457h-.091a1.1,1.1,0,0,1-.179-1.19m2.468-2.285V4.136A1,1,0,0,1,14.8,3.5h.731a1.28,1.28,0,0,1-1.005.823h-.457" transform="translate(-0.91 -0.02)" fill="#f2f2f2"/>
    <path id="Path_9451" data-name="Path 9451" d="M11.7,44.4a3.382,3.382,0,0,0,.914-2.559V38H9.689v3.565a2.925,2.925,0,0,1-.731,2.285c-.64.64-1.828.914-3.473.914H0v1.1H5.941c2.834,0,4.753-.366,5.85-1.462" transform="translate(0 -3.263)" fill="#f2f2f2"/>
    <path id="Path_9452" data-name="Path 9452" d="M83.291,44.124l1.462,1.737h3.291L81.189,38H78.355L71.5,45.861h1.737L74.7,44.216ZM78.9,39.1l3.473,4.022H75.522Z" transform="translate(-6.145 -3.263)" fill="#f2f2f2"/>
    <path id="Path_9453" data-name="Path 9453" d="M28.545,45.861h3.291L24.98,38H22.055L15.2,45.861h1.737L18.4,44.216h8.684Zm-9.232-2.742L22.787,39.1l3.473,4.022Z" transform="translate(-1.306 -3.263)" fill="#f2f2f2"/>
    <path id="Path_9454" data-name="Path 9454" d="M105.388,42.476a2.3,2.3,0,0,0-.183-4.022A8.866,8.866,0,0,0,101.641,38H92.5v7.861h2.925V43.116h3.839l4.387,2.742h3.565l-4.57-2.742a6.307,6.307,0,0,0,2.742-.548M95.425,42.2V38.912h5.759a3.108,3.108,0,0,1,1.92.366,1.28,1.28,0,0,1,.457,1.188v.183a1.28,1.28,0,0,1-.457,1.188,3.2,3.2,0,0,1-1.828.274Z" transform="translate(-7.95 -3.261)" fill="#f2f2f2"/>
    <path id="Path_9455" data-name="Path 9455" d="M54.1,38v3.93a3.839,3.839,0,0,0,.64,2.468c.823,1.1,2.377,1.737,6.581,1.737h.091c4.3,0,5.759-.64,6.581-1.737a3.839,3.839,0,0,0,.64-2.468V38H65.707v3.839a3.473,3.473,0,0,1-.548,2.1c-.64.914-1.645,1.188-3.656,1.188h-.274c-2.011,0-3.016-.366-3.748-1.188a3.382,3.382,0,0,1-.457-2.1V38Z" transform="translate(-4.648 -3.263)" fill="#f2f2f2"/>
    <path id="Path_9456" data-name="Path 9456" d="M41.538,39H48.85V38H40.624a8.226,8.226,0,0,0-4.3.823,3.6,3.6,0,0,0,.457,6.49,10.329,10.329,0,0,0,3.839.548h8.5V42.2H46.291v2.559H41.629a4.753,4.753,0,0,1-3.016-.731,2.98,2.98,0,0,1,0-4.3A4.662,4.662,0,0,1,41.721,39" transform="translate(-2.965 -3.261)" fill="#f2f2f2"/>
  </g>
</svg>
