<svg xmlns="http://www.w3.org/2000/svg" xmlns:xlink="http://www.w3.org/1999/xlink" viewBox="0 0 380.24 132"><defs><style>.cls-1{fill:none;}.cls-2{clip-path:url(#clip-path);}.cls-3{fill:#fff;}</style><clipPath id="clip-path" transform="translate(0 0)"><rect class="cls-1" width="380.24" height="132"/></clipPath></defs><title>Asset 71</title><g id="Layer_2" data-name="Layer 2"><g id="Layer_1-2" data-name="Layer 1"><g id="Artwork_58" data-name="Artwork 58"><g class="cls-2"><g class="cls-2"><path class="cls-3" d="M21.88,94.27a32.41,32.41,0,0,0,6.67,10.94,28.59,28.59,0,0,0,10.1,7,32.94,32.94,0,0,0,12.7,2.41,31.45,31.45,0,0,0,12.52-2.5,30.87,30.87,0,0,0,10.19-7,32,32,0,0,0,6.77-10.85,39.11,39.11,0,0,0,2.41-14.09V0h19.47V129.78H83.43V117.72a44.63,44.63,0,0,1-15.3,10.57,48.48,48.48,0,0,1-19,3.71,51.42,51.42,0,0,1-19.37-3.62A45.33,45.33,0,0,1,14.18,118.1a48.63,48.63,0,0,1-10.38-16A55,55,0,0,1,0,81.2V0H19.47V80.09a39.85,39.85,0,0,0,2.41,14.18" transform="translate(0 0)"/><path class="cls-3" d="M136.26,0V47.28a49.45,49.45,0,0,1,15-10.29,44.89,44.89,0,0,1,18.54-3.8,48.85,48.85,0,0,1,19.47,3.89A49.11,49.11,0,0,1,215.61,63.4a48.4,48.4,0,0,1,3.89,19.29,47.66,47.66,0,0,1-3.89,19.18,49.32,49.32,0,0,1-26.32,26.24A49,49,0,0,1,169.82,132a45.68,45.68,0,0,1-18.63-3.8,49,49,0,0,1-15.11-10.29v11.87H117.54V0Zm2.13,95.48a32.33,32.33,0,0,0,7,10.38,33.52,33.52,0,0,0,10.38,7,31.55,31.55,0,0,0,12.79,2.59,31.14,31.14,0,0,0,12.61-2.59,32.66,32.66,0,0,0,10.29-7,34.56,34.56,0,0,0,7-10.38A31.58,31.58,0,0,0,201,82.69a32.23,32.23,0,0,0-2.59-12.89,34,34,0,0,0-7-10.47,31.31,31.31,0,0,0-10.29-7,32.57,32.57,0,0,0-35.6,7,33.21,33.21,0,0,0-7,10.47,32.24,32.24,0,0,0-2.6,12.89,32.74,32.74,0,0,0,2.5,12.79" transform="translate(0 0)"/><path class="cls-3" d="M230.07,63.59a50.49,50.49,0,0,1,10.2-15.67,49,49,0,0,1,53.58-10.84,44.83,44.83,0,0,1,15,10.29,47.17,47.17,0,0,1,9.83,15.57,53.17,53.17,0,0,1,3.52,19.56v6.12H245.27a31.87,31.87,0,0,0,20.12,24.84,30.84,30.84,0,0,0,11.21,2q16.88,0,27.26-13.9l13.53,10a49.38,49.38,0,0,1-40.79,20.2,52.24,52.24,0,0,1-19.74-3.7,48,48,0,0,1-15.94-10.39,49.93,49.93,0,0,1-10.85-54.13m26.05-7.32a31.51,31.51,0,0,0-10.48,17.52H303.3A30.65,30.65,0,0,0,293,56.27a29.14,29.14,0,0,0-36.89,0" transform="translate(0 0)"/><path class="cls-3" d="M357.25,58.4q-5.94,6.48-5.93,17.61v53.77H332.59V35.22h18.54V46.9a26.42,26.42,0,0,1,9.18-9.08,26,26,0,0,1,13.44-3.34h6.49V51.91h-7.79a19.65,19.65,0,0,0-15.2,6.49" transform="translate(0 0)"/></g></g></g></g></g></svg>