<svg xmlns="http://www.w3.org/2000/svg" width="59.604" height="39.005" viewBox="0 0 59.604 39.005">
  <g id="Artwork_50" data-name="Artwork 50" transform="translate(0 0)">
    <path id="Path_8686" data-name="Path 8686" d="M34.343,133.149h-.908a2.165,2.165,0,0,1-2-1.316l-1.781-4.168A4.4,4.4,0,0,0,25.612,125H10.478a4.4,4.4,0,0,0-4.04,2.666l-1.781,4.168a2.165,2.165,0,0,1-2,1.316H1.746A1.746,1.746,0,0,0,0,134.9H0a1.746,1.746,0,0,0,1.746,1.746h.338a1.409,1.409,0,0,1,1.409,1.409v9.279a2.13,2.13,0,0,0,2.13,2.119H8.347a2.13,2.13,0,0,0,2.13-2.13V144.8H25.612v2.526a2.13,2.13,0,0,0,2.13,2.13h2.724a2.13,2.13,0,0,0,2.13-2.13V138.05a1.409,1.409,0,0,1,1.409-1.409h.338A1.746,1.746,0,0,0,36.09,134.9h0a1.746,1.746,0,0,0-1.746-1.746Zm-21.549-4.657H23.3a4.412,4.412,0,0,1,4.063,2.678l.85,1.979H7.881l.85-1.979a4.412,4.412,0,0,1,4.063-2.678Z" transform="translate(0 -110.448)" fill="#f2f2f2"/>
    <path id="Path_8687" data-name="Path 8687" d="M179.815,35.507V30.385a7.637,7.637,0,0,0-.582-2.934l3.015-6.473a5.355,5.355,0,0,0,.245-3.993,5.2,5.2,0,0,0-2.561-2.957l-5.867-4.342A49.5,49.5,0,0,0,144.645,0H140V11.06h3.493V3.493h0a49.508,49.508,0,0,1,29.428,9.693l1.621,1.2a5.2,5.2,0,0,0-1.746,2.084L169.71,23.1a7.7,7.7,0,0,0-5.262,7.288V35.51H162.7a1.746,1.746,0,0,0-1.746,1.746h0A1.746,1.746,0,0,0,162.7,39h18.86a1.746,1.746,0,0,0,1.746-1.746h0a1.746,1.746,0,0,0-1.746-1.746ZM175.95,17.952a1.748,1.748,0,1,1,3.167,1.479l-2.282,4.89a7.649,7.649,0,0,0-3.167-1.467Z" transform="translate(-123.701)" fill="#f2f2f2"/>
  </g>
</svg>
