<svg xmlns="http://www.w3.org/2000/svg" width="125.718" height="41.751" viewBox="0 0 125.718 41.751">
  <path id="Path_8685" data-name="Path 8685" d="M125.642,9.927C123.936.116,94.429-2.942,59.768,3.1A186.217,186.217,0,0,0,21.836,13.589a4.935,4.935,0,0,1,3.448,1.1,3.057,3.057,0,0,1,.818,2.275v.96H22.689v-.853A1.067,1.067,0,0,0,21.48,15.9a1.067,1.067,0,0,0-1.173.853,1.635,1.635,0,0,0,0,.675c.355,1.493,5.4,2.417,5.972,5.155a6.541,6.541,0,0,1,0,2.2c-.32,2.2-2.275,3.057-4.728,3.057-3.448,0-4.87-1.635-4.87-3.875V22.9h3.7v1.315a1.15,1.15,0,0,0,1.28,1.173c.747,0,1.1-.284,1.244-.853a1.671,1.671,0,0,0-.036-.96c-.675-1.706-5.4-2.489-5.972-5.226a4.586,4.586,0,0,1-.036-1.813,3.484,3.484,0,0,1,.284-.96C5.838,20.912-.81,26.778.079,31.791c1.706,9.847,31.213,12.9,65.874,6.861C81.2,35.986,94.891,32.04,105.307,27.6h-.427c-2.382,0-4.479-.889-4.728-3.306-.036-.427-.036-.64-.036-.889V17.82a6.925,6.925,0,0,1,.071-.889c.284-2.346,2.133-3.306,4.693-3.306,1.991,0,4.408.569,4.693,3.306a8.033,8.033,0,0,1,.036.818h0v.533h-3.448v-.747h0a3.2,3.2,0,0,0-.036-.5,1.159,1.159,0,0,0-1.28-.924,1.173,1.173,0,0,0-1.28.924,2.95,2.95,0,0,0-.036.6v6.044a2.735,2.735,0,0,0,.036.5c0,.107.178.924,1.315.924a1.189,1.189,0,0,0,1.315-.924,2.845,2.845,0,0,0,.036-.5V21.837H104.88V19.81h4.764V23.4a8.5,8.5,0,0,1-.036.889,3.377,3.377,0,0,1-.569,1.635C120.061,20.664,126.5,14.9,125.642,9.927ZM35.736,27.347,33.994,15.509h-.071l-1.778,11.8H28.484L30.937,13.98h5.972l2.453,13.331Zm17.633,0L53.3,15.758h-.071L51.058,27.347H47.645L45.512,15.758h-.071L45.37,27.347H41.957l.284-13.331h5.475l1.6,9.918h.071l1.6-9.918h5.475l.284,13.331Zm16.069-2.6c-.355,2.6-2.915,3.022-4.693,3.022-2.986,0-4.8-1.28-4.8-3.839V22.868h3.591v1.315a1.126,1.126,0,0,0,1.28,1.138c.782,0,1.1-.284,1.244-.853a1.706,1.706,0,0,0-.036-.96c-.675-1.671-5.333-2.489-5.9-5.155a4.479,4.479,0,0,1-.036-1.778c.391-2.453,2.737-2.951,4.622-2.951s2.915.356,3.662,1.1a3.057,3.057,0,0,1,.818,2.24v.96H65.811v-.818a1.067,1.067,0,0,0-1.173-1.138,1.031,1.031,0,0,0-1.173.853,1.635,1.635,0,0,0,0,.675c.355,1.493,5.368,2.382,5.9,5.119a6.541,6.541,0,0,1,.036,2.133Zm12.478-1.209c0,.249-.036.747-.036.889-.213,2.2-1.778,3.306-4.657,3.306s-4.479-1.1-4.657-3.306c0-.142-.036-.64-.036-.889V13.98h3.448v9.847a2.524,2.524,0,0,0,.036.5,1.28,1.28,0,0,0,2.453,0,3.235,3.235,0,0,0,.036-.5V13.98h3.448ZM96.74,27.2h-4.8l-3.2-10.558h-.07L88.848,27.2H85.506V13.98h4.977l2.986,10.167h.071L93.363,13.98H96.74Z" transform="translate(0.001 0.001)" fill="#f2f2f2"/>
</svg>
