<svg xmlns="http://www.w3.org/2000/svg" width="124.5" height="40.871" viewBox="0 0 124.5 40.871">
  <g id="Group_1645" data-name="Group 1645" transform="translate(0.001 0.002)">
    <path id="path2998" d="M30.6,14.4H16.1v4.3H26.4c-.5,6.059-5.53,8.609-10.3,8.609A11.324,11.324,0,0,1,4.735,15.86,11.364,11.364,0,0,1,16.125,4.3a11.192,11.192,0,0,1,7.781,3.112L26.887,4.3A15.345,15.345,0,0,0,15.96,0,16.085,16.085,0,0,0,0,15.794a16.059,16.059,0,0,0,16.192,15.86c8.477,0,14.668-5.8,14.668-14.4A12.914,12.914,0,0,0,30.6,14.4Z" fill="#f2f2f2"/>
    <path id="path3000" d="M107.731,34.1a10.182,10.182,0,1,0,10.2,10.231,9.932,9.932,0,0,0-10.2-10.2Zm.069,4a5.842,5.842,0,0,1,5.7,6.192,5.867,5.867,0,0,1-5.728,6.192,6.077,6.077,0,0,1-5.8-6.225A5.818,5.818,0,0,1,107.8,38.1Z" transform="translate(-65.216 -22.806)" fill="#f2f2f2"/>
    <path id="path3005" d="M174.931,34.1a10.182,10.182,0,1,0,10.2,10.231,9.932,9.932,0,0,0-10.2-10.2Zm.069,4a5.842,5.842,0,0,1,5.7,6.192,5.867,5.867,0,0,1-5.728,6.192,6.1,6.1,0,0,1-5.828-6.192,5.837,5.837,0,0,1,5.828-6.159Z" transform="translate(-110.165 -22.806)" fill="#f2f2f2"/>
    <path id="path3007" d="M241.768,34.1c-5.463,0-9.768,4.8-9.768,10.2a10.057,10.057,0,0,0,9.669,10.2,6.76,6.76,0,0,0,5.6-2.483v2.02c0,3.51-2.119,5.629-5.364,5.629a5.474,5.474,0,0,1-5.2-3.609L232.8,57.679a9.76,9.76,0,0,0,9.139,5.993c4.967,0,9.6-3.41,9.6-10.629V34.725h-4.271v1.722a7.185,7.185,0,0,0-5.5-2.351Zm.4,4.007c2.682,0,5.43,2.285,5.43,6.192s-2.748,6.159-5.5,6.159a5.9,5.9,0,0,1-5.629-6.126,5.955,5.955,0,0,1,5.7-6.232Z" transform="translate(-155.181 -22.804)" fill="#f2f2f2"/>
    <path id="path3011" d="M329.1,34.1c-5.165,0-9.5,4.106-9.5,10.165a10.053,10.053,0,0,0,10,10.2,10.36,10.36,0,0,0,8.543-4.47l-3.51-2.351a5.729,5.729,0,0,1-5,2.814,5.6,5.6,0,0,1-5-3.079l13.642-5.662-.7-1.656A9.24,9.24,0,0,0,329.1,34.1Zm.166,3.907a4.067,4.067,0,0,1,3.775,2.185L323.938,44a5.674,5.674,0,0,1,5.364-5.993Z" transform="translate(-213.775 -22.809)" fill="#f2f2f2"/>
    <path id="path3015" d="M300,33.2h4.47V3.2H300Z" transform="translate(-200.665 -2.14)" fill="#f2f2f2"/>
  </g>
</svg>
