<svg xmlns="http://www.w3.org/2000/svg" width="70.91" height="43.602" viewBox="0 0 70.91 43.602">
  <g id="Artwork_23" data-name="Artwork 23" transform="translate(0.13 0.002)">
    <path id="Path_9477" data-name="Path 9477" d="M22.092,12.6l2.886,3.368h-.722c-4.089,0-7.457,1.443-7.457,4.811s3.368,4.811,7.457,4.811,7.457-2.165,7.457-4.811-3.368-6.013-5.051-8.178Zm5.773,8.178c0,1.443-1.684,2.646-3.608,2.646s-3.608-1.2-3.608-2.646,1.684-2.646,3.608-2.646,3.608,1.2,3.608,2.646Z" transform="translate(23.523 17.71)" fill="#f1f2f2"/>
    <path id="Path_9478" data-name="Path 9478" d="M19.678,19.392a2.165,2.165,0,1,1-4.33,0V14.1H11.5v5.532c0,5.532,11.786,5.532,11.786,0V14.1H19.678Z" transform="translate(16.075 19.819)" fill="#f1f2f2"/>
    <rect id="Rectangle_1731" data-name="Rectangle 1731" width="4.089" height="9.525" transform="translate(56.198 33.919)" fill="#f1f2f2"/>
    <path id="Path_9479" data-name="Path 9479" d="M9.613,12.7l1.2,1.684L3.6,25.448H7.93l1.2-1.924h8.419l1.2,1.924h4.57L14.665,12.7Zm1.2,8.178,2.4-4.089,2.646,4.089Z" transform="translate(4.972 17.851)" fill="#f1f2f2"/>
    <path id="Path_9480" data-name="Path 9480" d="M58.64,0A12.508,12.508,0,0,0,50.7,2.648a12.508,12.508,0,0,0-15.394,0,12.508,12.508,0,0,0-15.394,0,12.539,12.539,0,1,0,.241,19.964,12.508,12.508,0,0,0,15.394,0,12.508,12.508,0,0,0,15.394,0A12.508,12.508,0,1,0,58.64,0ZM58.4,23.815a11.065,11.065,0,0,1-7.457-3.127,11.305,11.305,0,0,1-7.7,3.127,11.065,11.065,0,0,1-7.457-3.127,11.334,11.334,0,0,1-15.635,0l-1.2.962a11.065,11.065,0,0,1-6.735,2.165A11.065,11.065,0,0,1,2.355,17.08h-1.2A12.027,12.027,0,0,1,12.217.483l.481.962h0a11.065,11.065,0,0,1,7.7,3.368V3.129A12.027,12.027,0,0,1,27.611.483l.481.962a11.546,11.546,0,0,1,7.7,3.127V3.129A12.027,12.027,0,0,1,43.005.483l.481.962h0a11.546,11.546,0,0,1,7.457,3.368V3.129A12.027,12.027,0,0,1,58.159.483l.481.962A10.824,10.824,0,0,1,69.7,12.75,11.065,11.065,0,0,1,58.4,23.815Z" transform="translate(-0.036 0.001)" fill="#f1f2f2"/>
    <path id="Path_9481" data-name="Path 9481" d="M15.284,15.734a11.786,11.786,0,0,1-.722-4.33,12.027,12.027,0,0,1,2.646-7.457h1.684a10.584,10.584,0,1,0-9.621,17.8l.481-.722h1.684A9.621,9.621,0,0,0,17.449,19.1h1.443a11.3,11.3,0,0,1-2.405-3.608Zm-3.849,5.051A9.381,9.381,0,1,1,16.727,3.948a12.508,12.508,0,0,0,0,15.154,9.621,9.621,0,0,1-5.291,1.683Z" transform="translate(0.985 1.107)" fill="#f1f2f2"/>
    <path id="Path_9482" data-name="Path 9482" d="M11.77,6.389a1.924,1.924,0,0,1,.481-.722A8.9,8.9,0,0,0,10.086,2.3,10.824,10.824,0,0,0,7.2,9.276a10.824,10.824,0,0,0,2.165,6.493l.962.963V15.289a9.14,9.14,0,0,0,2.165-5.773,9.862,9.862,0,0,0-.722-3.127Zm-1.684,8.178a9.14,9.14,0,0,1,0-10.584,9.14,9.14,0,0,1,0,10.584Z" transform="translate(10.032 3.235)" fill="#f1f2f2"/>
    <path id="Path_9483" data-name="Path 9483" d="M18.044,6.389a1.924,1.924,0,0,1,.481-.722A9.862,9.862,0,0,0,16.36,2.3a10.584,10.584,0,0,0,0,14.432v-1.2a10.824,10.824,0,0,0,1.924-5.773,9.621,9.621,0,0,0-.24-3.37ZM16.36,14.567a9.381,9.381,0,0,1,0-10.343,9.381,9.381,0,0,1,0,10.343Z" transform="translate(18.912 3.235)" fill="#f1f2f2"/>
    <path id="Path_9484" data-name="Path 9484" d="M26.2,15.333A12.027,12.027,0,0,1,28.129,3.787h1.443a10.765,10.765,0,0,0-14.673,0,11.065,11.065,0,0,1,3.127,7.7,11.305,11.305,0,0,1-2.886,7.457,10.343,10.343,0,0,0,4.811,2.646l.481-.722h1.684a10.584,10.584,0,0,0,6.013-1.924h1.443a11.3,11.3,0,0,1-2.405-3.368Zm-4.089,5.292a9.14,9.14,0,0,1-5.292-1.684,12.508,12.508,0,0,0,0-15.154,9.14,9.14,0,0,1,10.584,0,12.508,12.508,0,0,0,0,15.154A9.621,9.621,0,0,1,22.116,20.625Z" transform="translate(20.853 1.267)" fill="#f1f2f2"/>
    <path id="Path_9485" data-name="Path 9485" d="M38.378,7.636A10.824,10.824,0,0,0,28.757.9,10.584,10.584,0,0,0,21.3,3.787a11.065,11.065,0,0,1,0,15.394,10.584,10.584,0,0,0,4.811,2.646l.481-.722h1.684A9.862,9.862,0,0,0,37.9,8.358a1.924,1.924,0,0,1,.481-.722ZM28.516,20.625a9.14,9.14,0,0,1-5.051-1.684,12.508,12.508,0,0,0,0-15.154,9.381,9.381,0,1,1,5.292,16.838Z" transform="translate(29.847 1.267)" fill="#f1f2f2"/>
    <path id="Path_9486" data-name="Path 9486" d="M24.444,6.389l.481-.722A8.9,8.9,0,0,0,22.76,2.3a10.584,10.584,0,0,0,0,14.432v-1.2a9.381,9.381,0,0,0,2.165-6.013,9.621,9.621,0,0,0-.481-3.13ZM22.76,14.567a9.381,9.381,0,0,1,0-10.343A9.14,9.14,0,0,1,22.76,14.567Z" transform="translate(27.906 3.235)" fill="#f1f2f2"/>
    <path id="Path_9487" data-name="Path 9487" d="M19.665,15.6a12.267,12.267,0,0,1-.722-4.33,12.027,12.027,0,0,1,2.646-7.457h1.443a10.343,10.343,0,0,0-14.432,0,11.037,11.037,0,0,1,0,15.394,10.584,10.584,0,0,0,4.811,2.646l.481-.722h1.684a9.381,9.381,0,0,0,6.013-1.924h1.443a11.305,11.305,0,0,1-2.405-3.368Zm-4.089,5.051a9.14,9.14,0,0,1-5.051-1.684,12.508,12.508,0,0,0,0-15.394,9.14,9.14,0,0,1,10.584,0,12.508,12.508,0,0,0,0,15.154,9.621,9.621,0,0,1-5.533,1.924Z" transform="translate(11.999 1.24)" fill="#f1f2f2"/>
  </g>
</svg>
