<svg xmlns="http://www.w3.org/2000/svg" width="230.168" height="52.215" viewBox="0 0 230.168 52.215">
  <g id="Taxi_Company" data-name="Taxi Company" transform="translate(-197 -2718.052)">
    <g id="Artwork_43" data-name="Artwork 43" transform="translate(232.927 2744.159)">
      <path id="Path_8657" data-name="Path 8657" d="M26.506,25.628c0,1.836-.2,2.754-1.517,2.754s-1.6-.838-1.6-2.515V11.177H12.575V28.423a10.762,10.762,0,0,0,2.435,7.425A8.064,8.064,0,0,0,21.4,38.762a10.5,10.5,0,0,0,5.349-1.637c-1,3.832-3.313,5.748-6.706,5.748a11.589,11.589,0,0,1-3.792-.918,20.519,20.519,0,0,1-3.713-1.717v8.942A25.988,25.988,0,0,0,16.247,51.1a16.367,16.367,0,0,0,5.868,1.118A14.861,14.861,0,0,0,33.452,47.1c3.154-3.393,3.872-6.627,3.872-11.3V11.177H26.506ZM51.017.12C38.2,1.277,39.041,15.01,39.041,15.01V39C46.027,39,49.5,35.648,49.5,31.017V27.9h5.19V17.445H49.54v-1.4A5.767,5.767,0,0,1,50.7,12.3a3.832,3.832,0,0,1,3.034-1.317c.878,0,2.435.279,2.754,1.517V23.473c0,3.992.758,7.185,2.355,9.621a13.573,13.573,0,0,0,5.07,4.511,14.291,14.291,0,0,0,6.746,1.637h1.2V28.183c-2.2,0-3.154-.4-3.872-1.237s-1.038-2.515-1.038-4.591H70.7V11.177H67.144C66.466,6.986,63.951.719,54.65,0H52.694Zm-36.566,38h0a14.171,14.171,0,0,1-3.673,1.517h0a8.862,8.862,0,0,1-1.876.2,8.144,8.144,0,0,1-6.467-2.874A10.867,10.867,0,0,1,0,29.5V.719H10.818V29.461a10.8,10.8,0,0,0,2.435,7.465,9.461,9.461,0,0,0,1.238,1.2Z" transform="translate(-35.927 -26.107)" fill="#f2f2f2" fill-rule="evenodd"/>
    </g>
    <g id="Boostrap3-grid-system-layouts" transform="translate(363.584 2743.867)">
      <g id="Layer_2" data-name="Layer 2" transform="translate(0)">
        <g id="Layer_1" data-name="Layer 1">
          <g id="Artwork_58" data-name="Artwork 58">
                <path id="Path_7911" data-name="Path 7911" d="M8.634,37.215a12.794,12.794,0,0,0,2.633,4.319A11.286,11.286,0,0,0,15.254,44.3a13,13,0,0,0,5.014.951,12.416,12.416,0,0,0,4.942-.987A12.187,12.187,0,0,0,29.233,41.5a12.632,12.632,0,0,0,2.673-4.283,15.439,15.439,0,0,0,.951-5.562V0h7.686V51.233H32.932V46.472a17.618,17.618,0,0,1-6.04,4.173,19.138,19.138,0,0,1-7.5,1.465,20.3,20.3,0,0,1-7.647-1.429,17.9,17.9,0,0,1-6.15-4.058,19.2,19.2,0,0,1-4.1-6.316A21.712,21.712,0,0,1,0,32.055V0H7.683V31.617a15.731,15.731,0,0,0,.951,5.6" transform="translate(0.006)" fill="#fbfbfb"/>
                <path id="Path_7912" data-name="Path 7912" d="M124.93,0V18.665a19.521,19.521,0,0,1,5.921-4.062,17.721,17.721,0,0,1,7.319-1.5,19.514,19.514,0,0,1,19.62,19.541,18.814,18.814,0,0,1-1.536,7.572,19.544,19.544,0,0,1-18.076,11.894,18.033,18.033,0,0,1-7.355-1.5,19.344,19.344,0,0,1-5.965-4.062v4.686H117.54V0Zm.841,37.692a12.762,12.762,0,0,0,2.763,4.1,13.233,13.233,0,0,0,4.1,2.763,12.455,12.455,0,0,0,5.049,1.022,12.293,12.293,0,0,0,4.978-1.022,12.893,12.893,0,0,0,4.062-2.763,13.643,13.643,0,0,0,2.763-4.1,12.466,12.466,0,0,0,1-5.049,12.724,12.724,0,0,0-1.022-5.089,13.422,13.422,0,0,0-2.763-4.133,12.36,12.36,0,0,0-4.062-2.763,12.858,12.858,0,0,0-14.054,2.763,13.11,13.11,0,0,0-2.763,4.133,12.727,12.727,0,0,0-1.026,5.089,12.925,12.925,0,0,0,.987,5.049" transform="translate(-71.137)" fill="#fbfbfb"/>
                <path id="Path_7913" data-name="Path 7913" d="M227.823,45.293a19.932,19.932,0,0,1,4.027-6.186A19.344,19.344,0,0,1,253,34.828a17.7,17.7,0,0,1,5.921,4.062,18.621,18.621,0,0,1,3.881,6.147,20.991,20.991,0,0,1,1.39,7.722v2.416H233.824a12.581,12.581,0,0,0,7.943,9.806,12.175,12.175,0,0,0,4.425.79,12.807,12.807,0,0,0,10.761-5.487l5.341,3.948a19.494,19.494,0,0,1-16.1,7.974,20.622,20.622,0,0,1-7.793-1.461,18.949,18.949,0,0,1-6.293-4.1,19.711,19.711,0,0,1-4.283-21.369m10.284-2.89A12.439,12.439,0,0,0,233.97,49.3h22.762a12.1,12.1,0,0,0-4.066-6.9,11.5,11.5,0,0,0-14.563,0" transform="translate(-136.997 -20.19)" fill="#fbfbfb"/>
                <path id="Path_7914" data-name="Path 7914" d="M342.325,43.917a9.879,9.879,0,0,0-2.341,6.952V72.1H332.59V34.767h7.319v4.611a10.43,10.43,0,0,1,3.624-3.584,10.264,10.264,0,0,1,5.306-1.319H351.4v6.881h-3.075a7.757,7.757,0,0,0-6,2.562" transform="translate(-201.292 -20.863)" fill="#fbfbfb"/>
            </g>
        </g>
      </g>
    </g>
  </g>
</svg>
