<svg xmlns="http://www.w3.org/2000/svg" width="121.126" height="15.317" viewBox="0 0 121.126 15.317">
  <g id="Group_1593" data-name="Group 1593" transform="translate(0 0)">
    <path id="Path_7871" data-name="Path 7871" d="M17.016,7.517c0-4.664-2.688-7.517-9-7.517H3.629C.5,0,.391.219.556,1.152H1.6c.988,0,1.207.11,1.207.988V12.4c0,1.427-.439,1.591-2.743,1.756a1.865,1.865,0,0,0,0,.823H8.237C14.492,14.979,17.016,11.961,17.016,7.517ZM5.494,12.235V1.262h2.25c4.17,0,6.365,2.414,6.365,6.639s-2.359,5.871-6.09,5.871C5.988,13.772,5.494,13.552,5.494,12.235Z" transform="translate(-0.016 0)" fill="#f2f2f2"/>
    <path id="Path_7872" data-name="Path 7872" d="M38.763,15.114c.549,0,.713-.329.549-.988H37.446c-1.207,0-1.207-.329-.713-1.591l.878-2.359h5.651l1.372,3.292c.219.549,0,.768-2.359.823a1.92,1.92,0,0,0,0,.823H49.3c.549,0,.713-.329.549-.988h-.494c-1.1,0-1.372-.219-1.591-.768L42.769,1.891A5.487,5.487,0,0,1,42.22.3h-.878c-1.042,0-1.317.329-2.03,2.03l-4.28,10.205c-.6,1.372-.768,1.536-2.469,1.756a1.921,1.921,0,0,0,0,.823Zm1.646-11.8,2.359,5.651H38.1Z" transform="translate(-14.686 -0.135)" fill="#f2f2f2"/>
    <path id="Path_7873" data-name="Path 7873" d="M67.814,1.788c.988,0,1.207.11,1.207.933V13.145c0,.878-.439,1.1-2.14,1.372a1.481,1.481,0,0,0,0,.823h6.584c.658,0,.713-.329.549-.988H72.862c-.933,0-1.152-.165-1.152-.933V3.1c0-.933.274-1.317,2.195-1.481A1.92,1.92,0,0,0,73.9.8H67.7c-.933,0-1.042.439-.933.988Z" transform="translate(-30.129 -0.361)" fill="#f2f2f2"/>
    <path id="Path_7874" data-name="Path 7874" d="M92.04,15.34c.6,0,.713-.329.549-.988H91.436c-2.3,0-2.3-.219-2.25-1.042L89.9,3.543l5.98,11.906c.494,0,.658-.11,1.042-.933l5.212-10.973.988,9.492c.11,1.042-.165,1.317-2.03,1.427H99.941a1.482,1.482,0,0,0,0,.823h7.681c.6,0,.658-.329.6-.988-1.7-.219-2.03-.274-2.085-.988L105.1,2.775c-.055-.6.055-.988,2.085-1.1a1.427,1.427,0,0,0,0-.823h-5.157L97.033,11.28,91.546.8H87.157c-.933,0-1.042.494-.933.988,2.14.055,2.3.329,2.25.988L87.6,13.035c-.055.933-.274,1.372-2.634,1.481a1.865,1.865,0,0,0,0,.823Z" transform="translate(-38.334 -0.361)" fill="#f2f2f2"/>
    <path id="Path_7875" data-name="Path 7875" d="M143.411,15.34a31.273,31.273,0,0,1,1.152-3.9c.219-.658-.055-.933-.713-.933l-.6,1.372c-.933,1.975-1.152,2.085-2.743,2.085h-1.372c-.6,0-.988-.219-.988-.933V3.379c0-1.427.439-1.591,2.743-1.756a1.81,1.81,0,0,0,0-.823h-6.858c-.933,0-1.042.439-.933.988h1.042c.933,0,1.207.11,1.207.933v9.931c0,1.427-.494,1.7-2.579,1.811a2.139,2.139,0,0,0,0,.823Z" transform="translate(-59.913 -0.361)" fill="#f2f2f2"/>
    <path id="Path_7876" data-name="Path 7876" d="M170.121,15.34a30.789,30.789,0,0,1,1.152-3.9c.219-.658-.11-.933-.713-.933l-.6,1.372c-.933,1.975-1.152,2.085-2.743,2.085h-1.865c-1.481,0-1.7-.329-1.7-1.1V9.03h2.3c.549,0,.823.219,1.152,1.865a.988.988,0,0,0,.768,0c-.055-1.427-.055-2.908,0-4.28s-.22-.823-.658-.823h-.274l-.165,1.1c-.055.549-.219.768-.823.768h-2.3v-5.6H167.1c1.207,0,1.646.329,2.03,1.7l.274.988c.713.055.933-.329.823-.988S169.956,1.788,169.9.8h-10.37c-.933,0-1.042.439-.933.988h1.042c.988,0,1.152.11,1.152.933V12.761c0,1.481-.439,1.591-2.743,1.756a1.427,1.427,0,0,0,0,.823h12.071Z" transform="translate(-71.315 -0.361)" fill="#f2f2f2"/>
    <path id="Path_7877" data-name="Path 7877" d="M199.857,11.693c-.823-.658-2.469-2.195-2.469-2.195a4.44,4.44,0,0,0,2.963-4.06c0-2.963-2.3-4.938-6.474-4.938-3.073,0-4.335,0-5.377.11s-1.042.494-.878,1.042h1.042c.878,0,1.207.11,1.207.988V12.68c0,1.317-.439,1.536-2.3,1.7a2.14,2.14,0,0,0,0,.823h6.858c.658,0,.713-.329.658-.988h-1.1c-1.152,0-1.317-.219-1.317-.823V10.157h1.481c1.317,0,1.372.055,1.92,1.042a10.1,10.1,0,0,0,2.085,2.524,6.694,6.694,0,0,0,4.938,1.811c2.3,0,2.853-.549,2.634-1.317C203.7,14.217,202.71,14.052,199.857,11.693Zm-6.31-2.8h-1.042V1.762h.768c2.469,0,4.225.933,4.225,3.841S195.742,8.895,193.548,8.895Z" transform="translate(-84.646 -0.226)" fill="#f2f2f2"/>
  </g>
</svg>
