<svg xmlns="http://www.w3.org/2000/svg" width="225.059" height="218.517" viewBox="0 0 225.059 218.517">
  <g id="Artwork_5" data-name="Artwork 5" transform="translate(-172.818 -664.989)">
    <g id="Artwork_5-2" data-name="Artwork 5" transform="translate(285.307 774.219)">
      <g id="Group_21" data-name="Group 21" transform="translate(-110.7 -107.441)">
        <line id="Line_139" data-name="Line 139" x1="49.367" y2="49.367" transform="translate(36.637 118.111)" fill="none" stroke="#fff" stroke-miterlimit="10" stroke-width="3.579"/>
        <rect id="Rectangle_47" data-name="Rectangle 47" width="15.024" height="86.638" transform="translate(11.039 0.866)" fill="none" stroke="#fefefe" stroke-miterlimit="10" stroke-width="3.579"/>
        <rect id="Rectangle_48" data-name="Rectangle 48" width="15.024" height="71.614" transform="translate(26.063 15.89)" fill="none" stroke="#fefefe" stroke-miterlimit="10" stroke-width="3.579"/>
        <rect id="Rectangle_49" data-name="Rectangle 49" width="15.024" height="56.59" transform="translate(41.087 30.914)" fill="none" stroke="#fefefe" stroke-miterlimit="10" stroke-width="3.579"/>
        <rect id="Rectangle_50" data-name="Rectangle 50" width="15.024" height="41.566" transform="translate(56.11 45.938)" fill="none" stroke="#fefefe" stroke-miterlimit="10" stroke-width="3.579"/>
        <rect id="Rectangle_51" data-name="Rectangle 51" width="15.024" height="26.542" transform="translate(71.134 60.962)" fill="none" stroke="#fefefe" stroke-miterlimit="10" stroke-width="3.579"/>
        <circle id="Ellipse_35" data-name="Ellipse 35" cx="8.455" cy="8.455" r="8.455" transform="translate(71.582 155.563)" fill="none" stroke="#fefefe" stroke-miterlimit="10" stroke-width="3.579"/>
        <circle id="Ellipse_36" data-name="Ellipse 36" cx="8.455" cy="8.455" r="8.455" transform="translate(32.501 116.482)" fill="none" stroke="#fefefe" stroke-miterlimit="10" stroke-width="3.579"/>
        <path id="Path_9" data-name="Path 9" d="M122.535,24.855A102.859,102.859,0,0,1,282.829,133.578" transform="translate(-80.471 -5)" fill="none" stroke="#fff" stroke-miterlimit="10" stroke-width="3.579"/>
        <path id="Path_10" data-name="Path 10" d="M143.5,305.472A102.854,102.854,0,0,1,16.036,162.642" transform="translate(-5 -106.224)" fill="none" stroke="#fff" stroke-miterlimit="10" stroke-width="3.579"/>
        <line id="Line_140" data-name="Line 140" y2="205.615" transform="translate(102.807 0)" fill="none" stroke="#fff" stroke-miterlimit="10" stroke-width="3.579"/>
        <line id="Line_141" data-name="Line 141" x1="205.615" transform="translate(0 102.807)" fill="none" stroke="#fff" stroke-miterlimit="10" stroke-width="3.579"/>
        <path id="Path_11" data-name="Path 11" d="M431.777,429.895a47.062,47.062,0,1,1,17.894-19.178" transform="translate(-233.345 -221.654)" fill="none" stroke="#fff" stroke-miterlimit="10" stroke-width="3.579"/>
        <line id="Line_142" data-name="Line 142" x2="6.638" transform="translate(195.719 172.965)" fill="none" stroke="#fff" stroke-miterlimit="10" stroke-width="5.368"/>
        <line id="Line_143" data-name="Line 143" x2="6.638" transform="translate(144.755 172.965)" fill="none" stroke="#fff" stroke-miterlimit="10" stroke-width="5.368"/>
        <line id="Line_144" data-name="Line 144" x1="31.777" y2="31.777" transform="translate(102.807 5.005)" fill="none" stroke="#fff" stroke-miterlimit="10" stroke-width="3.579"/>
        <line id="Line_145" data-name="Line 145" x1="72.069" y2="72.069" transform="translate(102.807 29.491)" fill="none" stroke="#fff" stroke-miterlimit="10" stroke-width="3.579"/>
        <line id="Line_146" data-name="Line 146" x1="29.037" y2="29.037" transform="translate(162.07 49.049)" fill="none" stroke="#fff" stroke-miterlimit="10" stroke-width="3.579"/>
        <line id="Line_147" data-name="Line 147" x1="17.975" y2="17.975" transform="translate(137.349 84.833)" fill="none" stroke="#fff" stroke-miterlimit="10" stroke-width="3.579"/>
        <line id="Line_148" data-name="Line 148" x1="31.973" y2="31.973" transform="translate(169.559 70.835)" fill="none" stroke="#fff" stroke-miterlimit="10" stroke-width="3.579"/>
        <line id="Line_149" data-name="Line 149" x1="35.695" y2="35.695" transform="translate(102.807 33.655)" fill="none" stroke="#fff" stroke-miterlimit="10" stroke-width="3.579"/>
        <line id="Line_150" data-name="Line 150" x1="9.629" y2="9.629" transform="translate(147.717 15.885)" fill="none" stroke="#fff" stroke-miterlimit="10" stroke-width="3.579"/>
        <text id="_" data-name="£" transform="translate(159.014 192.353)" fill="#fff" font-size="63" font-family="SegoeUI, Segoe UI"><tspan x="0" y="0">£</tspan></text>
      </g>
    </g>
  </g>
</svg>
