<svg xmlns="http://www.w3.org/2000/svg" width="34.897" height="25.362" viewBox="0 0 34.897 25.362">
  <g id="Artwork_27" data-name="Artwork 27" transform="translate(17.449 12.681)">
    <g id="Group_1281" data-name="Group 1281" transform="translate(-17.449 -12.681)">
      <path id="Path_6331" data-name="Path 6331" d="M19.824,8.178l-2.6-4.051L18.578.7,13.8,8.178l3.116,4.362Zm-2.908-3.22L19.3,8.386l-2.389,3.428L14.423,8.386Z" transform="translate(0.533 -0.077)" fill="#f1f2f2"/>
      <path id="Path_6332" data-name="Path 6332" d="M15.085,16.51h3.947l4.882-8.1h0L19.136.1H14.982L10.1,8.1h0Zm.312-16h3.324L23.395,8.2H20.486l-4.258,6.232.519-1.35L13.424,8.2h-2.7Z" transform="translate(0.39 -0.1)" fill="#f1f2f2"/>
      <path id="Path_6333" data-name="Path 6333" d="M5.5,20.254A1.35,1.35,0,0,0,4.466,18.8H0c0,.415.727.727.727.727v3.947l-.519.208V24.3H3.116v-.623L2.6,23.474V21.812H2.8l.935,2.6H5.713v-.519l-1.35-2.077A1.558,1.558,0,0,0,5.5,20.254Zm-1.973.831H2.493V19.839H3.531a1.558,1.558,0,0,1,.208.623,1.35,1.35,0,0,1-.208.623Z" transform="translate(0 0.623)" fill="#f1f2f2"/>
      <path id="Path_6334" data-name="Path 6334" d="M10.574,22.435H9.328v.935H8.289V21.812h.727l.208.415h.623V20.67H9.328l-.415.312H8.289V19.735H9.328v.623h1.246V18.8H5.9v.519l.519.208v3.947l-.519.312v.623h4.674Z" transform="translate(0.228 0.623)" fill="#f1f2f2"/>
      <path id="Path_6335" data-name="Path 6335" d="M13.824,24.413h1.558V19.635L16,19.323V18.7H13.928v.623l.519.208V21.4l-1.558-2.7-2.181.1v.415l.312.208v4.155l-.519.312v.519h2.077v-.519l-.519-.312V21.5Z" transform="translate(0.406 0.619)" fill="#f1f2f2"/>
      <path id="Path_6336" data-name="Path 6336" d="M18,24.309H20.9v-.623l-.519-.208L18.724,18.7H16.231v.623l.727.623-1.039,3.531-.519.312v.519h1.973v-.519l-.519-.208.312-1.039h1.143l.312.935L18,23.789Zm-.623-2.7.208-.831.312.831Z" transform="translate(0.595 0.619)" fill="#f1f2f2"/>
      <path id="Path_6337" data-name="Path 6337" d="M22.912,24.72a1.87,1.87,0,0,0,2.077-1.454V19.631l.415-.208V18.8h-1.87v.623l.623.208V23.37a1.766,1.766,0,0,1-.727.312,1.143,1.143,0,0,1-.727-.208V19.631l.727-.312V18.8H19.9v.519l.831.312v3.635A1.973,1.973,0,0,0,22.912,24.72Z" transform="translate(0.769 0.623)" fill="#f1f2f2"/>
      <path id="Path_6338" data-name="Path 6338" d="M28.724,23.682h-.935V19.839l.831-.415V18.8H25.5v.623l.415.208v4.155l-.519.1v.623h4.362V22.747H28.724Z" transform="translate(0.981 0.623)" fill="#f1f2f2"/>
      <path id="Path_6339" data-name="Path 6339" d="M29.1,20.773h1.039l.1-.935h.415v3.635l-.831.415v.623h3.324v-.623l-.831-.415V19.839h.415v.935h1.039V18.8H29.1Z" transform="translate(1.124 0.623)" fill="#f1f2f2"/>
    </g>
  </g>
</svg>
