<svg xmlns="http://www.w3.org/2000/svg" width="77.056" height="38.844" viewBox="0 0 77.056 38.844">
  <g id="Artwork_54" data-name="Artwork 54" transform="translate(0.001 0)">
    <path id="Path_9435" data-name="Path 9435" d="M58.784,21.7H57.732l-.632,2h1.684l.526-.316.316-.526a.842.842,0,0,0,0-.737c-.1-.211-.421-.211-.842-.211" transform="translate(3.009 1.143)" fill="#f2f2f2"/>
    <path id="Path_9436" data-name="Path 9436" d="M44.237,15.963l1.158-.211a2.211,2.211,0,0,0,.737-.737,7.9,7.9,0,0,0,.737-1.684,3.9,3.9,0,0,0,.316-2.105c-.1-.421-.526-.526-1.158-.526H45.4l-1.9,5.369Z" transform="translate(2.292 0.564)" fill="#f2f2f2"/>
    <path id="Path_9437" data-name="Path 9437" d="M24.084,21.7H23.032l-.632,2h1.684l.526-.316.316-.526a.842.842,0,0,0,0-.737c-.1-.211-.421-.211-.842-.211" transform="translate(1.18 1.143)" fill="#f2f2f2"/>
    <path id="Path_9438" data-name="Path 9438" d="M28.6,10.9l-2,3.579h1.684Z" transform="translate(1.402 0.574)" fill="#f2f2f2"/>
    <path id="Path_9439" data-name="Path 9439" d="M38.428,2C18.322,2,1.9,9.79,1.9,19.264S18.322,36.633,38.428,36.633s36.528-7.79,36.528-17.264S58.535,2,38.428,2M54.956,14.632l.737-2.1h6.632l-1.368,2.1L54.429,17.79,57.9,14.632ZM49.692,8.948a2.737,2.737,0,0,1,1.579.316,1.684,1.684,0,0,1,.737,1.053,4,4,0,0,1,.105,1.579,9.474,9.474,0,0,1-.526,1.9,11.053,11.053,0,0,1-1.158,2.316,6.737,6.737,0,0,1-1.263,1.474,3.9,3.9,0,0,1-1.368.737l-1.474.316h-3.58l3.474-9.79Zm-20.106,0h2.632l-.526,9.79H29.059l.211-1.579H26.638l-.947,1.579H23.27Zm-10,0h2.421l-2.632,7.369h3.684l-.842,2.421H16.111Zm-1.58,17.369H11.374l1.368-2.1,6.527-3.158L15.8,24.212h2.948ZM28.533,23.58a4.421,4.421,0,0,1-.737,1.368,4,4,0,0,1-1.053.947l-.947.421.526.316.211.526v.632l.211,2.842H24.217L23.9,27.686a1.579,1.579,0,0,0-.211-.737l-.526-.211h-.211l-1.263,3.9H19.164l3.158-9.685h4.1a4,4,0,0,1,1.684.211,1.158,1.158,0,0,1,.632.842,2.842,2.842,0,0,1-.105,1.579M37.8,25.686a9.369,9.369,0,0,1-1.368,2.842,6.211,6.211,0,0,1-1.9,1.684,4.948,4.948,0,0,1-2.421.632,3.369,3.369,0,0,1-2-.526,2.421,2.421,0,0,1-.842-1.684,6.106,6.106,0,0,1,.421-2.842A8.211,8.211,0,0,1,31.8,22a5.053,5.053,0,0,1,3.369-1.368A2.632,2.632,0,0,1,37.8,22a4.948,4.948,0,0,1-.105,3.579m.526-6.948-.947-5.369-1.9,5.369H33.06l3.474-9.79h2.211l.947,5.369,1.9-5.369H43.8l-3.474,9.79Zm1.684,11.9.211-9.685h2.526l-.526,6.948,4-6.948h2.421l-6.106,9.685Zm14.632-4.1h-3.79l-.632,1.9h4.211l-.737,2.211H46.955l3.158-9.685H56.64l-.632,2.1H51.8l-.526,1.579h3.79Zm10.527-2.948a4.316,4.316,0,0,1-.737,1.368,3.9,3.9,0,0,1-1.053.947l-.947.421.526.316.211.526v.632l.316,2.842H60.64l-.316-2.948a1.579,1.579,0,0,0-.211-.737l-.526-.211h-.211l-1.263,3.9H55.587l3.158-9.685h4a4.1,4.1,0,0,1,1.684.211,1.158,1.158,0,0,1,.632.842,2.948,2.948,0,0,1-.105,1.579" transform="translate(0.1 0.105)" fill="#f2f2f2"/>
    <path id="Path_9440" data-name="Path 9440" d="M32.941,21.9a2,2,0,0,0-1.368.632,5.264,5.264,0,0,0-1.158,2.1,3.579,3.579,0,0,0-.211,2.105.947.947,0,0,0,.947.632,2,2,0,0,0,1.474-.632,5.79,5.79,0,0,0,1.158-2.211,3.158,3.158,0,0,0,.211-2,.947.947,0,0,0-1.053-.632" transform="translate(1.588 1.153)" fill="#f2f2f2"/>
    <path id="Path_9441" data-name="Path 9441" d="M38.528,0C17.369,0,0,8.737,0,19.369S17.369,38.844,38.528,38.844s38.528-8.737,38.528-19.369S59.793,0,38.528,0m0,37.686C17.79,37.686.842,29.475.842,19.369S17.79,1.158,38.528,1.158,76.215,9.369,76.215,19.369,59.266,37.686,38.528,37.686" fill="#f2f2f2"/>
  </g>
</svg>
