<svg xmlns="http://www.w3.org/2000/svg" width="46.685" height="52.447" viewBox="0 0 46.685 52.447">
  <g id="Artwork_55" data-name="Artwork 55" transform="translate(0 0)">
    <path id="Path_9407" data-name="Path 9407" d="M27.563,45.151l5.94-33.44c5.643,0,7.484.594,7.721,3.148a13.4,13.4,0,0,0,5.7-4.276A41.993,41.993,0,0,0,31.958,6.9l-4.4,5.346h0L23.168,6.9A41.993,41.993,0,0,0,8.2,10.523,13.4,13.4,0,0,0,13.9,14.8c.238-2.554,2.019-3.148,7.662-3.148Z" transform="translate(-3.33 -2.802)" fill="#f2f2f2"/>
    <path id="Path_9408" data-name="Path 9408" d="M26.264,2.554A49,49,0,0,1,46.339,6.593a16.156,16.156,0,0,0,1.188-2.435A58.148,58.148,0,0,0,26.264,0,58.148,58.148,0,0,0,5,4.158,20.492,20.492,0,0,0,6.188,6.593,49,49,0,0,1,26.264,2.554Z" transform="translate(-2.03)" fill="#f2f2f2"/>
    <path id="Path_9409" data-name="Path 9409" d="M18.988,79.288H23.5A1.663,1.663,0,0,0,24.749,78.1H17.8a1.663,1.663,0,0,0,1.247,1.188Z" transform="translate(-7.228 -31.712)" fill="#f2f2f2"/>
    <path id="Path_9410" data-name="Path 9410" d="M18.988,83.288H23.5A1.663,1.663,0,0,0,24.749,82.1H17.8a1.663,1.663,0,0,0,1.247,1.188Z" transform="translate(-7.228 -33.336)" fill="#f2f2f2"/>
    <path id="Path_9411" data-name="Path 9411" d="M18.988,87.488H23.5A1.663,1.663,0,0,0,24.749,86.3H17.8a1.663,1.663,0,0,0,1.247,1.188Z" transform="translate(-7.228 -35.042)" fill="#f2f2f2"/>
    <path id="Path_9412" data-name="Path 9412" d="M68.088,79.288H72.6A1.663,1.663,0,0,0,73.849,78.1H66.9a1.663,1.663,0,0,0,1.247,1.188Z" transform="translate(-27.164 -31.712)" fill="#f2f2f2"/>
    <path id="Path_9413" data-name="Path 9413" d="M0,78.1a1.663,1.663,0,0,0,1.247,1.188h1.96V84.1H4.4V79.347H6.415a1.722,1.722,0,0,0,1.247-1.188H0Z" transform="translate(0 -31.712)" fill="#f2f2f2"/>
    <path id="Path_9414" data-name="Path 9414" d="M57.464,84.118a1.663,1.663,0,0,0,1.01-1.188H53.188V78H52v6.118Z" transform="translate(-21.114 -31.671)" fill="#f2f2f2"/>
    <path id="Path_9415" data-name="Path 9415" d="M36.144,79.288H40.3A1.841,1.841,0,0,0,41.609,78.1H34.956v3.564H40.42v1.247H36.144A2.376,2.376,0,0,0,34.6,84.158h7.009V80.476H36.144Z" transform="translate(-14.049 -31.712)" fill="#f2f2f2"/>
    <path id="Path_9416" data-name="Path 9416" d="M67.2,82.1v3.683h1.188V83.347h4.276v2.435h1.188V82.1Z" transform="translate(-27.286 -33.336)" fill="#f2f2f2"/>
  </g>
</svg>
