<svg xmlns="http://www.w3.org/2000/svg" width="525.685" height="52.716" viewBox="0 0 525.685 52.716">
  <g id="Group_1690" data-name="Group 1690" transform="translate(-198 -2741.73)">
    <g id="Artwork_55" data-name="Artwork 55" transform="translate(700.342 2768.223)">
      <g id="Artwork_55-2" data-name="Artwork 55" transform="translate(-23.343 -26.223)">
        <path id="Path_9407" data-name="Path 9407" d="M27.563,45.151l5.94-33.44c5.643,0,7.484.594,7.721,3.148a13.4,13.4,0,0,0,5.7-4.276A41.993,41.993,0,0,0,31.958,6.9l-4.4,5.346h0L23.168,6.9A41.993,41.993,0,0,0,8.2,10.523,13.4,13.4,0,0,0,13.9,14.8c.238-2.554,2.019-3.148,7.662-3.148Z" transform="translate(-3.33 -2.802)" fill="#f2f2f2"/>
        <path id="Path_9408" data-name="Path 9408" d="M26.264,2.554A49,49,0,0,1,46.339,6.593a16.156,16.156,0,0,0,1.188-2.435A58.148,58.148,0,0,0,26.264,0,58.148,58.148,0,0,0,5,4.158,20.492,20.492,0,0,0,6.188,6.593,49,49,0,0,1,26.264,2.554Z" transform="translate(-2.03)" fill="#f2f2f2"/>
        <path id="Path_9409" data-name="Path 9409" d="M18.988,79.288H23.5A1.663,1.663,0,0,0,24.749,78.1H17.8a1.663,1.663,0,0,0,1.247,1.188Z" transform="translate(-7.228 -31.712)" fill="#f2f2f2"/>
        <path id="Path_9410" data-name="Path 9410" d="M18.988,83.288H23.5A1.663,1.663,0,0,0,24.749,82.1H17.8a1.663,1.663,0,0,0,1.247,1.188Z" transform="translate(-7.228 -33.336)" fill="#f2f2f2"/>
        <path id="Path_9411" data-name="Path 9411" d="M18.988,87.488H23.5A1.663,1.663,0,0,0,24.749,86.3H17.8a1.663,1.663,0,0,0,1.247,1.188Z" transform="translate(-7.228 -35.042)" fill="#f2f2f2"/>
        <path id="Path_9412" data-name="Path 9412" d="M68.088,79.288H72.6A1.663,1.663,0,0,0,73.849,78.1H66.9a1.663,1.663,0,0,0,1.247,1.188Z" transform="translate(-27.164 -31.712)" fill="#f2f2f2"/>
        <path id="Path_9413" data-name="Path 9413" d="M0,78.1a1.663,1.663,0,0,0,1.247,1.188h1.96V84.1H4.4V79.347H6.415a1.722,1.722,0,0,0,1.247-1.188H0Z" transform="translate(0 -31.712)" fill="#f2f2f2"/>
        <path id="Path_9414" data-name="Path 9414" d="M57.464,84.118a1.663,1.663,0,0,0,1.01-1.188H53.188V78H52v6.118Z" transform="translate(-21.114 -31.671)" fill="#f2f2f2"/>
        <path id="Path_9415" data-name="Path 9415" d="M36.144,79.288H40.3A1.841,1.841,0,0,0,41.609,78.1H34.956v3.564h5.464v1.247H36.144A2.376,2.376,0,0,0,34.6,84.158h7.009V80.476H36.144Z" transform="translate(-14.049 -31.712)" fill="#f2f2f2"/>
        <path id="Path_9416" data-name="Path 9416" d="M67.2,82.1v3.683h1.188V83.347h4.276v2.435h1.188V82.1Z" transform="translate(-27.286 -33.336)" fill="#f2f2f2"/>
      </g>
    </g>
    <g id="Artwork_35" data-name="Artwork 35" transform="translate(626.2 2765.901)">
      <g id="Artwork_35-2" data-name="Artwork 35" transform="translate(-24.148 -23.901)">
        <path id="Path_9427" data-name="Path 9427" d="M28.875,9.648c0-.331-.083-.331-.083,0L27.8,24.534l.992.579Z" transform="translate(-4.81 -1.626)" fill="#fff"/>
        <path id="Path_9428" data-name="Path 9428" d="M23.447,31.312,27.665,29l-.992-.5-3.391,2.729C23.117,31.394,23.2,31.477,23.447,31.312Z" transform="translate(-4.013 -4.93)" fill="#fff"/>
        <path id="Path_9429" data-name="Path 9429" d="M24.148,0a23.9,23.9,0,1,0,0,47.8,23.9,23.9,0,1,0,0-47.8Zm0,46.891c-9.1,0-16.209-4.714-19.6-11.164l.5-.165A30.93,30.93,0,0,0,8.6,39.944c1.9,2.067,7.939,6.12,15.465,6.12a22.329,22.329,0,0,0,19.021-10.5c.331-.083.413-.248.331-.5A23.239,23.239,0,0,0,46.477,23.9a20.1,20.1,0,0,0-.91-6.285,24.645,24.645,0,0,0-1.323-3.225.579.579,0,0,1-.083-.331l.248.248A29.11,29.11,0,0,1,45.9,17.532,16.044,16.044,0,0,1,47.3,23.817,23.073,23.073,0,0,1,24.148,46.89ZM4.8,35.147,21.667,22.99l-1.406-.827L5.21,34.651A23.156,23.156,0,0,1,2.316,23.9,21.419,21.419,0,0,1,23.735,2.4L20.592,21.584,22,22.411,23.983,2.4c0-.248.165-.248.165,0V23.487L27.787,21.5,24.479,2.4c11.743.331,21.5,9.759,21.5,21.5a22.908,22.908,0,0,1-2.894,10.834L28.035,22.163l-1.489.827L42.756,34.734c.413.248.248.413-.165.165L24.4,24.4v3.97L42.59,35.313A21.585,21.585,0,0,1,24.066,45.485,21.419,21.419,0,0,1,5.624,35.313L23.9,28.366V24.4L4.962,35.313C4.466,35.561,4.383,35.4,4.8,35.147Zm-.413.248A26.133,26.133,0,0,1,2.4,29.524a.662.662,0,0,1,0-.331l.165.248a27.87,27.87,0,0,0,2.316,5.541ZM47.3,19.848l-.165-.248a24.008,24.008,0,0,0-6.2-10.751A23.321,23.321,0,0,0,24.231,1.406,22.99,22.99,0,0,0,1.323,24.314,24.893,24.893,0,0,0,2.812,33c.744,1.9,2.15,4.466,2.15,4.548a.662.662,0,0,1,.083.331L4.8,37.628A40.853,40.853,0,0,1,2.316,33,23.543,23.543,0,0,1,24.231.579,23.156,23.156,0,0,1,47.3,19.517a.662.662,0,0,1,0,.331Z" transform="translate(0 0.001)" fill="#fff"/>
        <path id="Path_9430" data-name="Path 9430" d="M43.3,36.753,30.892,28.4l-.992.579,13.4,7.856C43.545,37,43.545,36.918,43.3,36.753Z" transform="translate(-5.173 -4.913)" fill="#fff"/>
      </g>
    </g>
    <g id="Artwork_54" data-name="Artwork 54" transform="translate(537.6 2765.45)">
      <g id="Artwork_54-2" data-name="Artwork 54" transform="translate(-38.528 -19.422)">
        <path id="Path_9435" data-name="Path 9435" d="M58.784,21.7H57.732l-.632,2h1.684l.526-.316.316-.526a.842.842,0,0,0,0-.737c-.105-.211-.421-.211-.842-.211" transform="translate(3.009 1.143)" fill="#f2f2f2"/>
        <path id="Path_9436" data-name="Path 9436" d="M44.237,15.963l1.158-.211a2.211,2.211,0,0,0,.737-.737,7.9,7.9,0,0,0,.737-1.684,3.9,3.9,0,0,0,.316-2.105c-.105-.421-.526-.526-1.158-.526h-.632L43.5,16.069Z" transform="translate(2.292 0.564)" fill="#f2f2f2"/>
        <path id="Path_9437" data-name="Path 9437" d="M24.084,21.7H23.032l-.632,2h1.684l.526-.316.316-.526a.842.842,0,0,0,0-.737c-.105-.211-.421-.211-.842-.211" transform="translate(1.18 1.143)" fill="#f2f2f2"/>
        <path id="Path_9438" data-name="Path 9438" d="M28.6,10.9l-2,3.579h1.684Z" transform="translate(1.402 0.574)" fill="#f2f2f2"/>
        <path id="Path_9439" data-name="Path 9439" d="M38.428,2C18.322,2,1.9,9.79,1.9,19.264S18.322,36.633,38.428,36.633s36.528-7.79,36.528-17.264S58.535,2,38.428,2M54.956,14.632l.737-2.105h6.632l-1.368,2.105L54.429,17.79,57.9,14.632ZM49.692,8.948a2.737,2.737,0,0,1,1.579.316,1.684,1.684,0,0,1,.737,1.053,4,4,0,0,1,.105,1.579,9.474,9.474,0,0,1-.526,1.895,11.053,11.053,0,0,1-1.158,2.316,6.737,6.737,0,0,1-1.263,1.474,3.9,3.9,0,0,1-1.368.737l-1.474.316H42.744l3.474-9.79Zm-20.106,0h2.632l-.526,9.79H29.059l.211-1.579H26.638l-.947,1.579H23.27Zm-10,0h2.421l-2.632,7.369h3.684l-.842,2.421H16.111ZM18.006,26.317H11.374l1.368-2.105,6.527-3.158L15.8,24.212h2.948ZM28.533,23.58a4.421,4.421,0,0,1-.737,1.368,4,4,0,0,1-1.053.947l-.947.421.526.316.211.526v.632l.211,2.842H24.217L23.9,27.686a1.579,1.579,0,0,0-.211-.737l-.526-.211h-.211l-1.263,3.895H19.164l3.158-9.685h4.105a4,4,0,0,1,1.684.211,1.158,1.158,0,0,1,.632.842,2.842,2.842,0,0,1-.105,1.579M37.8,25.686a9.369,9.369,0,0,1-1.368,2.842,6.211,6.211,0,0,1-1.895,1.684,4.948,4.948,0,0,1-2.421.632,3.369,3.369,0,0,1-2-.526,2.421,2.421,0,0,1-.842-1.684,6.106,6.106,0,0,1,.421-2.842A8.211,8.211,0,0,1,31.8,22a5.053,5.053,0,0,1,3.369-1.368A2.632,2.632,0,0,1,37.8,22a4.948,4.948,0,0,1-.105,3.579m.526-6.948-.947-5.369-1.895,5.369H33.06l3.474-9.79h2.211l.947,5.369,1.895-5.369H43.8l-3.474,9.79Zm1.684,11.9.211-9.685h2.526l-.526,6.948,4-6.948h2.421l-6.106,9.685Zm14.632-4.105h-3.79l-.632,1.895h4.211l-.737,2.211H46.955l3.158-9.685H56.64l-.632,2.105H51.8l-.526,1.579h3.79Zm10.527-2.948a4.316,4.316,0,0,1-.737,1.368,3.9,3.9,0,0,1-1.053.947l-.947.421.526.316.211.526v.632l.316,2.842H60.64l-.316-2.948a1.579,1.579,0,0,0-.211-.737l-.526-.211h-.211l-1.263,3.895H55.587l3.158-9.685h4a4.105,4.105,0,0,1,1.684.211,1.158,1.158,0,0,1,.632.842,2.948,2.948,0,0,1-.105,1.579" transform="translate(0.1 0.105)" fill="#f2f2f2"/>
        <path id="Path_9440" data-name="Path 9440" d="M32.941,21.9a2,2,0,0,0-1.368.632,5.264,5.264,0,0,0-1.158,2.105,3.579,3.579,0,0,0-.211,2.105.947.947,0,0,0,.947.632,2,2,0,0,0,1.474-.632,5.79,5.79,0,0,0,1.158-2.211,3.158,3.158,0,0,0,.211-2,.947.947,0,0,0-1.053-.632" transform="translate(1.588 1.153)" fill="#f2f2f2"/>
        <path id="Path_9441" data-name="Path 9441" d="M38.528,0C17.369,0,0,8.737,0,19.369S17.369,38.844,38.528,38.844s38.528-8.737,38.528-19.369S59.793,0,38.528,0m0,37.686C17.79,37.686.842,29.475.842,19.369S17.79,1.158,38.528,1.158,76.215,9.369,76.215,19.369,59.266,37.686,38.528,37.686" fill="#f2f2f2"/>
      </g>
    </g>
    <g id="Artwork_53" data-name="Artwork 53" transform="translate(420.633 2763.436)">
      <g id="Artwork_53-2" data-name="Artwork 53" transform="translate(-49.633 -21.436)">
        <path id="Path_9449" data-name="Path 9449" d="M20.74.548A3.2,3.2,0,0,0,22.02.183L22.385,0H21.38A1.554,1.554,0,0,0,20.1.548h.548" transform="translate(-1.727 0.003)" fill="#f2f2f2"/>
        <path id="Path_9450" data-name="Path 9450" d="M11.056,7.7a6.49,6.49,0,0,0,.548.914,1.828,1.828,0,0,0,1.737.823c.366-.091.366-.183.366-.183a1.645,1.645,0,0,0,1.1.366,8.775,8.775,0,0,1-.366-1.1,1.828,1.828,0,0,1,.091-.64,2.925,2.925,0,0,1,.64-1.1,1,1,0,0,1,1.28-.183,2.1,2.1,0,0,1,.457,2.285,2.616,2.616,0,0,1-.823,1.1h-.091a2.468,2.468,0,0,1-.823-.274,1.28,1.28,0,0,0,.091.366l.183.548-.183.274a.7.7,0,0,0,0,.731,4.387,4.387,0,0,0,1.92.731A.914.914,0,0,0,18.094,12a10.694,10.694,0,0,1,1.28-1.645A7.221,7.221,0,0,1,22.664,8.8c.091,0,2.194-.64,5.759,2.194l-3.108.457a7.139,7.139,0,0,0-4.753,3.93,2.377,2.377,0,0,0,1.28,3.473A4.845,4.845,0,0,0,25.5,16.018a1.28,1.28,0,0,1,1.554-.823c.731.274,7.4,2.559,8.958,2.925,0,0,4.479,1.188,6.124-.914,2.651.914,5.21,1.28,11.791.457a12.523,12.523,0,0,1,2.011-.091A4.845,4.845,0,0,1,59.318,19.4c1.737,2.742,3.93,8.227,11.609,7.587l3.473-.274c2.1-.091,3.839-.183,5.576.731a7.952,7.952,0,0,1,2.011,1.828c1.737,1.645,3.382,3.473,5.576,2.468A5.667,5.667,0,0,0,89.208,30,2.468,2.468,0,0,0,88.2,28.267c1.92.457,6.4.731,8.044-2.194a1.828,1.828,0,0,0,.274-1.645c-.457-1.005-1.737-.731-1.737-.731a12.928,12.928,0,0,1-2.377,1.188,6.49,6.49,0,0,1-4.022-.091C85,23.331,73.943,17.024,68.276,14.282c0,0-6.49-3.016-16-6.764,0,0-18.555-7.861-30.987-7.221,0,0-6.581.183-8.684,3.108a.914.914,0,0,0-.183.823.183.183,0,0,1,0,.183,11.7,11.7,0,0,0-1.645,1.92,1,1,0,0,0,0,1.188l.274.274m.64-1.005a2.834,2.834,0,0,1,2.011-1.828h.731a3.565,3.565,0,0,0,2.377-1.92H15.261C14.255,3.222,13.89,4.5,13.89,4.41s-.914-.548-.731-.823.64-1.1,4.113-1.92a17.824,17.824,0,0,1,5.3-.366l-.183.274a3.291,3.291,0,0,1-3.656,1.371s0,.914,2.285,1.28c0,0,2.1.366,5.576,3.2,0,0-1.645-3.291-4.479-4.2,0,0-.366-.091-.183-.274A6.947,6.947,0,0,1,25.955,1.3s7.5-.731,11.791,5.119a22.577,22.577,0,0,0-2.285-3.565S39.849,4.136,46.7,6.512l7.587,2.834C58.313,10.9,68.367,14.83,74.766,18.3l12.705,6.673a7.5,7.5,0,0,0,5.393.548c.731-.274,2.011-1.28,2.559-.731a1,1,0,0,1,.183,1.1A3.839,3.839,0,0,1,93.6,27.718a10.237,10.237,0,0,1-4.57.366,8.135,8.135,0,0,1-4.662-2.468l-2.285-2.285a4.3,4.3,0,0,0-2.559-1.371c-1.462-.183-5.027-.274-6.307-.731s-2.011-.914-3.382-3.016a5.667,5.667,0,0,0-2.1-1.92,5.3,5.3,0,0,1,1.1,1.28l1.188,2.377A4.844,4.844,0,0,0,71.2,21.411a3.2,3.2,0,0,0,1.828.731c.731.091,3.108.091,5.119.091a4.753,4.753,0,0,1,3.565,1.188c.64.548,1.645,2.011,2.285,2.651a9.323,9.323,0,0,0,2.834,2.285c.548.274,1.371.914,1.371,1.554s-1.554.823-3.565.274a2.925,2.925,0,0,0,3.016.731,2.377,2.377,0,0,1-1.645.64c-1.92-.091-3.748-2.468-4.753-3.291a22.4,22.4,0,0,0-2.194-1.737c-2.011-1.371-6.581-1.005-6.581-1.005l-3.382.183c-6.581.457-9.323-5.3-10.055-6.49l-.731-1.005c-.366-.457-2.1-2.742-3.93-3.473,0,0,1.737,1.554,1.645,2.559a5.667,5.667,0,0,0-2.742-.091c-8.592,1.188-11.517-.914-11.517-.914a5.119,5.119,0,0,0-.823-3.473c.64.183,4.936,1.645,8.958.823,0,0-6.581,0-11.151-3.565,0,0,2.834,3.565,2.194,5.941,0,0-.457,2.468-5.484,1.462L26.869,15.1c-1.737-.548-2.377.274-2.651.823a2.925,2.925,0,0,1-1.28,1.828A1.737,1.737,0,0,1,21.568,15.2c-1.462,2.1.091,3.016.548,3.016l-.823.366a2.194,2.194,0,0,1-.823-2.925A6.289,6.289,0,0,1,26.138,12a14.168,14.168,0,0,1,2.925-.091c2.011.274,3.291,1.371,6.216,1.645-6.307-1.828-6.307-5.484-6.307-5.576h0a4.753,4.753,0,0,0,.183,3.108L27.418,9.62A11.517,11.517,0,0,0,23.4,7.975c-.731-.091-1.1-1.005-1.1-1.005h-.091c-1.005-1.828-2.1-1.828-2.1-1.828a3.656,3.656,0,0,1,.64,1.92c.274,2.194-2.194,2.925-2.194,2.925C17,11.905,17.089,12,16.723,12a2.925,2.925,0,0,1-1.1-.366.274.274,0,0,1,.091-.366l.548-.457c1.645-1.645,1.828-2.468,1.645-3.565s-1.92-1.92-1.92-1.92a1.371,1.371,0,0,0-1.1.64,13.349,13.349,0,0,0-.823,1.645,7.422,7.422,0,0,1-.823.914h-.457a1.462,1.462,0,0,1-.914-.457h-.091A1.1,1.1,0,0,1,11.6,6.878m2.468-2.285V4.136A1,1,0,0,1,14.8,3.5h.731a1.28,1.28,0,0,1-1.005.823h-.457" transform="translate(-0.91 -0.02)" fill="#f2f2f2"/>
        <path id="Path_9451" data-name="Path 9451" d="M11.7,44.4a3.382,3.382,0,0,0,.914-2.559V38H9.689v3.565a2.925,2.925,0,0,1-.731,2.285c-.64.64-1.828.914-3.473.914H0v1.1H5.941c2.834,0,4.753-.366,5.85-1.462" transform="translate(0 -3.263)" fill="#f2f2f2"/>
        <path id="Path_9452" data-name="Path 9452" d="M83.291,44.124l1.462,1.737h3.291L81.189,38H78.355L71.5,45.861h1.737L74.7,44.216ZM78.9,39.1l3.473,4.022H75.522Z" transform="translate(-6.145 -3.263)" fill="#f2f2f2"/>
        <path id="Path_9453" data-name="Path 9453" d="M28.545,45.861h3.291L24.98,38H22.055L15.2,45.861h1.737L18.4,44.216h8.684Zm-9.232-2.742L22.787,39.1l3.473,4.022Z" transform="translate(-1.306 -3.263)" fill="#f2f2f2"/>
        <path id="Path_9454" data-name="Path 9454" d="M105.388,42.476a2.3,2.3,0,0,0-.183-4.022A8.866,8.866,0,0,0,101.641,38H92.5v7.861h2.925V43.116h3.839l4.387,2.742h3.565l-4.57-2.742a6.307,6.307,0,0,0,2.742-.548M95.425,42.2V38.912h5.759a3.108,3.108,0,0,1,1.92.366,1.28,1.28,0,0,1,.457,1.188v.183a1.28,1.28,0,0,1-.457,1.188,3.2,3.2,0,0,1-1.828.274Z" transform="translate(-7.95 -3.261)" fill="#f2f2f2"/>
        <path id="Path_9455" data-name="Path 9455" d="M54.1,38v3.93a3.839,3.839,0,0,0,.64,2.468c.823,1.1,2.377,1.737,6.581,1.737h.091c4.3,0,5.759-.64,6.581-1.737a3.839,3.839,0,0,0,.64-2.468V38H65.707v3.839a3.473,3.473,0,0,1-.548,2.1c-.64.914-1.645,1.188-3.656,1.188h-.274c-2.011,0-3.016-.366-3.748-1.188a3.382,3.382,0,0,1-.457-2.1V38Z" transform="translate(-4.648 -3.263)" fill="#f2f2f2"/>
        <path id="Path_9456" data-name="Path 9456" d="M41.538,39H48.85V38H40.624a8.226,8.226,0,0,0-4.3.823,3.6,3.6,0,0,0,.457,6.49,10.329,10.329,0,0,0,3.839.548h8.5V42.2H46.291v2.559H41.629a4.753,4.753,0,0,1-3.016-.731,2.98,2.98,0,0,1,0-4.3A4.662,4.662,0,0,1,41.721,39" transform="translate(-2.965 -3.261)" fill="#f2f2f2"/>
      </g>
    </g>
    <g id="Artwork_23" data-name="Artwork 23" transform="translate(233.392 2764.8)">
      <g id="Artwork_23-2" data-name="Artwork 23" transform="translate(-35.392 -21.8)">
        <path id="Path_9477" data-name="Path 9477" d="M22.092,12.6l2.886,3.368h-.722c-4.089,0-7.457,1.443-7.457,4.811s3.368,4.811,7.457,4.811,7.457-2.165,7.457-4.811-3.368-6.013-5.051-8.178Zm5.773,8.178c0,1.443-1.684,2.646-3.608,2.646s-3.608-1.2-3.608-2.646,1.684-2.646,3.608-2.646S27.865,19.335,27.865,20.778Z" transform="translate(23.523 17.71)" fill="#f1f2f2"/>
        <path id="Path_9478" data-name="Path 9478" d="M19.678,19.392a2.165,2.165,0,1,1-4.33,0V14.1H11.5v5.532c0,5.532,11.786,5.532,11.786,0V14.1H19.678Z" transform="translate(16.075 19.819)" fill="#f1f2f2"/>
        <rect id="Rectangle_1731" data-name="Rectangle 1731" width="4.089" height="9.525" transform="translate(56.198 33.919)" fill="#f1f2f2"/>
        <path id="Path_9479" data-name="Path 9479" d="M9.613,12.7l1.2,1.684L3.6,25.448H7.93l1.2-1.924h8.419l1.2,1.924h4.57L14.665,12.7Zm1.2,8.178,2.405-4.089,2.646,4.089Z" transform="translate(4.972 17.851)" fill="#f1f2f2"/>
        <path id="Path_9480" data-name="Path 9480" d="M58.64,0A12.508,12.508,0,0,0,50.7,2.648a12.508,12.508,0,0,0-15.394,0,12.508,12.508,0,0,0-15.394,0,12.539,12.539,0,1,0,.241,19.964,12.508,12.508,0,0,0,15.394,0,12.508,12.508,0,0,0,15.394,0A12.508,12.508,0,1,0,58.64,0ZM58.4,23.815a11.065,11.065,0,0,1-7.457-3.127,11.305,11.305,0,0,1-7.7,3.127,11.065,11.065,0,0,1-7.457-3.127,11.334,11.334,0,0,1-15.635,0l-1.2.962a11.065,11.065,0,0,1-6.735,2.165A11.065,11.065,0,0,1,2.355,17.08h-1.2A12.027,12.027,0,0,1,12.217.483l.481.962h0a11.065,11.065,0,0,1,7.7,3.368V3.129A12.027,12.027,0,0,1,27.611.483l.481.962a11.546,11.546,0,0,1,7.7,3.127V3.129A12.027,12.027,0,0,1,43.005.483l.481.962h0a11.546,11.546,0,0,1,7.457,3.368V3.129A12.027,12.027,0,0,1,58.159.483l.481.962A10.824,10.824,0,0,1,69.7,12.75,11.065,11.065,0,0,1,58.4,23.815Z" transform="translate(-0.036 0.001)" fill="#f1f2f2"/>
        <path id="Path_9481" data-name="Path 9481" d="M15.284,15.734a11.786,11.786,0,0,1-.722-4.33,12.027,12.027,0,0,1,2.646-7.457h1.684a10.584,10.584,0,1,0-9.621,17.8l.481-.722h1.684A9.621,9.621,0,0,0,17.449,19.1h1.443a11.305,11.305,0,0,1-2.405-3.608Zm-3.849,5.051A9.381,9.381,0,1,1,16.727,3.948a12.508,12.508,0,0,0,0,15.154A9.621,9.621,0,0,1,11.436,20.785Z" transform="translate(0.985 1.107)" fill="#f1f2f2"/>
        <path id="Path_9482" data-name="Path 9482" d="M11.77,6.389a1.924,1.924,0,0,1,.481-.722A8.9,8.9,0,0,0,10.086,2.3,10.824,10.824,0,0,0,7.2,9.276,10.824,10.824,0,0,0,9.365,15.77l.962.962V15.289a9.14,9.14,0,0,0,2.165-5.773,9.862,9.862,0,0,0-.722-3.127Zm-1.684,8.178a9.14,9.14,0,0,1,0-10.584A9.14,9.14,0,0,1,10.086,14.567Z" transform="translate(10.032 3.235)" fill="#f1f2f2"/>
        <path id="Path_9483" data-name="Path 9483" d="M18.044,6.389a1.924,1.924,0,0,1,.481-.722A9.862,9.862,0,0,0,16.36,2.3a10.584,10.584,0,0,0,0,14.432v-1.2a10.824,10.824,0,0,0,1.924-5.773A9.621,9.621,0,0,0,18.044,6.389ZM16.36,14.567a9.381,9.381,0,0,1,0-10.343,9.381,9.381,0,0,1,0,10.343Z" transform="translate(18.912 3.235)" fill="#f1f2f2"/>
        <path id="Path_9484" data-name="Path 9484" d="M26.205,15.333A12.027,12.027,0,0,1,28.129,3.787h1.443a10.765,10.765,0,0,0-14.673,0,11.065,11.065,0,0,1,3.127,7.7,11.305,11.305,0,0,1-2.886,7.457,10.343,10.343,0,0,0,4.811,2.646l.481-.722h1.684a10.584,10.584,0,0,0,6.013-1.924h1.443a11.305,11.305,0,0,1-2.405-3.368Zm-4.089,5.292a9.14,9.14,0,0,1-5.292-1.684,12.508,12.508,0,0,0,0-15.154,9.14,9.14,0,0,1,10.584,0,12.508,12.508,0,0,0,0,15.154A9.621,9.621,0,0,1,22.116,20.625Z" transform="translate(20.853 1.267)" fill="#f1f2f2"/>
        <path id="Path_9485" data-name="Path 9485" d="M38.378,7.636A10.824,10.824,0,0,0,28.757.9,10.584,10.584,0,0,0,21.3,3.787a11.065,11.065,0,0,1,0,15.394,10.584,10.584,0,0,0,4.811,2.646l.481-.722h1.684A9.862,9.862,0,0,0,37.9,8.358a1.924,1.924,0,0,1,.481-.722ZM28.516,20.625a9.14,9.14,0,0,1-5.051-1.684,12.508,12.508,0,0,0,0-15.154,9.381,9.381,0,1,1,5.292,16.838Z" transform="translate(29.847 1.267)" fill="#f1f2f2"/>
        <path id="Path_9486" data-name="Path 9486" d="M24.444,6.389l.481-.722A8.9,8.9,0,0,0,22.76,2.3a10.584,10.584,0,0,0,0,14.432v-1.2a9.381,9.381,0,0,0,2.165-6.013A9.621,9.621,0,0,0,24.444,6.389ZM22.76,14.567a9.381,9.381,0,0,1,0-10.343,9.14,9.14,0,0,1,0,10.343Z" transform="translate(27.906 3.235)" fill="#f1f2f2"/>
        <path id="Path_9487" data-name="Path 9487" d="M19.665,15.6a12.267,12.267,0,0,1-.722-4.33,12.027,12.027,0,0,1,2.646-7.457h1.443a10.343,10.343,0,0,0-14.432,0,11.037,11.037,0,0,1,0,15.394,10.584,10.584,0,0,0,4.811,2.646l.481-.722h1.684a9.381,9.381,0,0,0,6.013-1.924h1.443a11.305,11.305,0,0,1-2.405-3.368Zm-4.089,5.051a9.14,9.14,0,0,1-5.051-1.684,12.508,12.508,0,0,0,0-15.394,9.14,9.14,0,0,1,10.584,0,12.508,12.508,0,0,0,0,15.154A9.621,9.621,0,0,1,15.576,20.651Z" transform="translate(11.999 1.24)" fill="#f1f2f2"/>
      </g>
    </g>
    <g id="Artwork_56" data-name="Artwork 56" transform="translate(312.088 2768.088)">
      <g id="Group_1703" data-name="Group 1703" transform="translate(-26.355 -26.358)">
        <path id="Path_9591" data-name="Path 9591" d="M44.993,7.714a26.36,26.36,0,1,0,0,37.277,26.354,26.354,0,0,0,0-37.268ZM26.354,51.8A25.446,25.446,0,1,1,51.8,26.353,25.446,25.446,0,0,1,26.354,51.8Z" transform="translate(0 0.001)" fill="#fff"/>
        <path id="Path_9592" data-name="Path 9592" d="M129.6,144.176h14.576V129.6A14.576,14.576,0,0,0,129.6,144.176Z" transform="translate(-117.823 -117.822)" fill="#fff"/>
        <path id="Path_9593" data-name="Path 9593" d="M290,290v14.576A14.576,14.576,0,0,0,304.576,290Z" transform="translate(-263.646 -263.646)" fill="#fff"/>
        <path id="Path_9594" data-name="Path 9594" d="M45.991,21.6A24.391,24.391,0,1,0,70.382,45.991,24.395,24.395,0,0,0,45.991,21.6Zm-3.562,1.327h1.927L46.1,27.5l1.745-4.571h1.936v6.425H48.5V24.862l-1.69,4.489H45.4l-1.69-4.489v4.48H42.429ZM26.235,33.5l3.135-3.735c.645-.772,1.554-1.39,2.417-.663a2.311,2.311,0,0,1,.7.881,1.427,1.427,0,0,1-.009.954,1.641,1.641,0,0,1,2.063.191c.791.772.672,1.663-.082,2.563l-3.308,3.935ZM45.991,61.576A15.585,15.585,0,1,1,61.576,45.991,15.585,15.585,0,0,1,45.991,61.576ZM60.513,37.758,59.35,36.3l2.317-3.4-.018-.018L57.841,34.45,56.66,33l4.026-5.18.991,1.227L59.168,32.36l3.853-1.654,1.063,1.318-2.417,3.426,3.753-1.781.991,1.227Z" transform="translate(-19.637 -19.637)" fill="#fff"/>
        <path id="Path_9595" data-name="Path 9595" d="M95.781,119.611a.765.765,0,0,1,1.027.018.7.7,0,0,1,.118.981l-1.863,2.226-1.163-.981Z" transform="translate(-85.367 -108.57)" fill="#fff"/>
        <path id="Path_9596" data-name="Path 9596" d="M119.09,137.355l-1.963,2.335-1.227-1.036,1.981-2.354a.777.777,0,0,1,1.054-.064.81.81,0,0,1,.154,1.109Z" transform="translate(-105.368 -123.696)" fill="#fff"/>
      </g>
    </g>
  </g>
</svg>
