<svg xmlns="http://www.w3.org/2000/svg" width="29.075" height="24.885" viewBox="0 0 29.075 24.885">
  <g id="Group_1280" data-name="Group 1280" transform="translate(0 0)">
    <path id="Path_6324" data-name="Path 6324" d="M26.925,9.942H25.682A11.392,11.392,0,0,0,24.37,7.25L26.1,5.523,27.27,6.835a.385.385,0,0,0,.69-.276V.414a.414.414,0,0,0-.138-.276L27.477,0,21.056.345a.414.414,0,0,0-.207.759l1.519,1.1-1.519,1.45A11.737,11.737,0,0,0,3.312,9.873h-1.1C2.138,9.942.067,11.323,0,13.325s.69,2.555,2.209,3.59H3.381a11.737,11.737,0,0,0,22.232,0h1.312a5.15,5.15,0,0,0,2.14-3.521C29.134,11.323,28.375,11.047,26.925,9.942ZM14.5,2.624a10.909,10.909,0,0,1,6.214,1.933.414.414,0,0,0,.483-.069l2.14-2.071a.416.416,0,0,0,0-.621l-1.1-.69L27.063.829V5.523l-.69-.829L26.1,4.557l-.276.138-2.278,2.14a.414.414,0,0,0-.069.483,10.771,10.771,0,0,1,1.312,2.555H21.816a7.94,7.94,0,0,0-14.43,0H4.21A10.909,10.909,0,0,1,14.5,2.624Zm6.421,7.25H8.214a7.181,7.181,0,0,1,12.635,0ZM14.5,24.165A10.909,10.909,0,0,1,4.279,16.985H7.524a7.94,7.94,0,0,0,14.154,0h3.107A10.909,10.909,0,0,1,14.5,24.165ZM8.421,16.985h12.29a7.181,7.181,0,0,1-12.29,0Zm18.158-.829H2.553c-1.174-.9-1.8-1.864-1.726-2.762a6.333,6.333,0,0,1,1.726-2.762H26.58a3.658,3.658,0,0,1,1.657,2.762c0,.967-1.312,2.555-1.657,2.831Z" transform="translate(0.006)" fill="#f2f2f2"/>
    <path id="Path_6325" data-name="Path 6325" d="M8.99,17.3H6.643v.483h.621l-1.1,2-1.1-2h.829V17.3H2.5v.483h.759l.345.552.829,1.588.345.621H6.643L7.4,19.3l.759-1.519H8.99Z" transform="translate(-0.77 -5.355)" fill="#f2f2f2"/>
    <path id="Path_6326" data-name="Path 6326" d="M13.817,17.2c-1.312,0-2.417.759-2.417,1.726s1.036,1.726,2.417,1.726,2.417-.759,2.417-1.726S15.128,17.2,13.817,17.2Zm-.069,2.9c-.345,0-.621-.552-.621-1.243s.276-1.243.621-1.243.621.552.621,1.243S14.093,20.1,13.747,20.1Z" transform="translate(-3.525 -5.325)" fill="#f2f2f2"/>
    <path id="Path_6327" data-name="Path 6327" d="M35.486,17.2h-.069C34.1,17.2,33,17.959,33,18.926s1.036,1.726,2.347,1.726h0l.829-.138a1.864,1.864,0,0,0,1.657-1.588,1.864,1.864,0,0,0-1.519-1.588Zm0,2.9h-.069c-.345,0-.621-.552-.621-1.243s.276-1.243.621-1.243h.138a1.312,1.312,0,0,1,.483,1.174C36.038,19.478,35.831,20.031,35.486,20.1Z" transform="translate(-10.211 -5.325)" fill="#f2f2f2"/>
    <path id="Path_6328" data-name="Path 6328" d="M21.776,20.062h-.829V17.783h.759V17.3H18.669v.483h.759v2.278H18.6v.483h4.695V19.1h-.483A1.036,1.036,0,0,1,21.776,20.062Z" transform="translate(-5.754 -5.355)" fill="#f2f2f2"/>
    <path id="Path_6329" data-name="Path 6329" d="M30.621,17.3H28.343v.483h.621l-1.1,2-1.174-2h.829V17.3H24.2v.483h.759l1.519,2.762h1.864l.9-1.588.621-1.174h.759Z" transform="translate(-7.487 -5.355)" fill="#f2f2f2"/>
  </g>
</svg>
