<svg xmlns="http://www.w3.org/2000/svg" width="66.197" height="64.281" viewBox="0 0 66.197 64.281">
  <g id="Group_1624" data-name="Group 1624" transform="translate(-25.462 -287.344)">
    <line id="Line_872" data-name="Line 872" x1="14.46" y2="14.471" transform="translate(36.849 322.597)" fill="none" stroke="#fff" stroke-miterlimit="10" stroke-width="1.3"/>
    <rect id="Rectangle_1173" data-name="Rectangle 1173" width="4.404" height="25.384" transform="translate(29.341 288.245)" fill="none" stroke="#fefefe" stroke-miterlimit="10" stroke-width="1.3"/>
    <rect id="Rectangle_1174" data-name="Rectangle 1174" width="4.404" height="20.982" transform="translate(33.745 292.649)" fill="none" stroke="#fefefe" stroke-miterlimit="10" stroke-width="1.3"/>
    <rect id="Rectangle_1175" data-name="Rectangle 1175" width="4.404" height="16.58" transform="translate(38.15 297.053)" fill="none" stroke="#fefefe" stroke-miterlimit="10" stroke-width="1.3"/>
    <rect id="Rectangle_1176" data-name="Rectangle 1176" width="4.404" height="12.178" transform="translate(42.554 301.458)" fill="none" stroke="#fefefe" stroke-miterlimit="10" stroke-width="1.3"/>
    <rect id="Rectangle_1177" data-name="Rectangle 1177" width="4.404" height="7.776" transform="translate(46.958 305.851)" fill="none" stroke="#fefefe" stroke-miterlimit="10" stroke-width="1.3"/>
    <ellipse id="Ellipse_54" data-name="Ellipse 54" cx="2.475" cy="2.475" rx="2.475" ry="2.475" transform="translate(47.084 333.576)" fill="none" stroke="#fefefe" stroke-miterlimit="10" stroke-width="1.3"/>
    <ellipse id="Ellipse_55" data-name="Ellipse 55" cx="2.475" cy="2.475" rx="2.475" ry="2.475" transform="translate(35.633 322.125)" fill="none" stroke="#fefefe" stroke-miterlimit="10" stroke-width="1.3"/>
    <path id="Path_3574" data-name="Path 3574" d="M122.5,10.819a30.138,30.138,0,0,1,46.967,31.856" transform="translate(-84.067 282.994)" fill="none" stroke="#fff" stroke-miterlimit="10" stroke-width="1.3"/>
    <path id="Path_3575" data-name="Path 3575" d="M45.58,204.449A30.141,30.141,0,0,1,8.229,162.6" transform="translate(21.112 141.92)" fill="none" stroke="#fff" stroke-miterlimit="10" stroke-width="1.3"/>
    <line id="Line_873" data-name="Line 873" y2="60.242" transform="translate(56.238 287.994)" fill="none" stroke="#fff" stroke-miterlimit="10" stroke-width="1.3"/>
    <line id="Line_874" data-name="Line 874" x1="60.242" transform="translate(26.112 318.12)" fill="none" stroke="#fff" stroke-miterlimit="10" stroke-width="1.3"/>
    <path id="Path_3576" data-name="Path 3576" d="M381.5,368.085a13.789,13.789,0,1,1,5.243-5.62" transform="translate(-297.247 -19.073)" fill="none" stroke="#fff" stroke-miterlimit="10" stroke-width="1.3"/>
    <line id="Line_875" data-name="Line 875" x2="1.94" transform="translate(83.459 338.672)" fill="none" stroke="#fff" stroke-miterlimit="10" stroke-width="1.3"/>
    <line id="Line_876" data-name="Line 876" x2="1.94" transform="translate(68.527 338.672)" fill="none" stroke="#fff" stroke-miterlimit="10" stroke-width="1.3"/>
    <line id="Line_877" data-name="Line 877" x1="9.312" y2="9.312" transform="translate(56.238 289.462)" fill="none" stroke="#fff" stroke-miterlimit="10" stroke-width="1.3"/>
    <line id="Line_878" data-name="Line 878" x1="21.108" y2="21.119" transform="translate(56.238 296.634)" fill="none" stroke="#fff" stroke-miterlimit="10" stroke-width="1.3"/>
    <line id="Line_879" data-name="Line 879" x1="8.504" y2="8.504" transform="translate(73.603 302.37)" fill="none" stroke="#fff" stroke-miterlimit="10" stroke-width="1.3"/>
    <line id="Line_880" data-name="Line 880" x1="5.264" y2="5.274" transform="translate(66.357 312.845)" fill="none" stroke="#fff" stroke-miterlimit="10" stroke-width="1.3"/>
    <line id="Line_881" data-name="Line 881" x1="9.364" y2="9.374" transform="translate(75.794 308.745)" fill="none" stroke="#fff" stroke-miterlimit="10" stroke-width="1.3"/>
    <line id="Line_882" data-name="Line 882" x1="10.454" y2="10.465" transform="translate(56.238 297.85)" fill="none" stroke="#fff" stroke-miterlimit="10" stroke-width="1.3"/>
    <line id="Line_883" data-name="Line 883" x1="2.831" y2="2.821" transform="translate(69.387 292.649)" fill="none" stroke="#fff" stroke-miterlimit="10" stroke-width="1.3"/>
    <path id="Path_3577" data-name="Path 3577" d="M454.6,434.968v-.933a3.77,3.77,0,0,0,2.15-3.293,8.328,8.328,0,0,0-.094-1.321h-1.929v-1.206h1.762a12.091,12.091,0,0,1-.21-2.034A3.473,3.473,0,0,1,459.9,422.5a3.981,3.981,0,0,1,2.055.472l-.367,1.258a3.319,3.319,0,0,0-1.688-.388c-1.479,0-2.066,1.017-2.066,2.359a10.055,10.055,0,0,0,.22,2.024h2.716v1.2H458.2a6.505,6.505,0,0,1-.084,2.118,3.943,3.943,0,0,1-1.279,2.024v.042h5.62v1.374Z" transform="translate(-381.344 -90.728)" fill="#fff"/>
  </g>
</svg>