<svg xmlns="http://www.w3.org/2000/svg" width="41.879" height="26.174" viewBox="0 0 41.879 26.174">
  <g id="Artwork_28" data-name="Artwork 28" transform="translate(20.94 13.087)">
    <path id="Path_6330" data-name="Path 6330" d="M20.939,26.174c11.577,0,20.939-5.839,20.939-13.087S32.516,0,20.939,0,0,5.839,0,13.087,9.362,26.174,20.939,26.174ZM17.718,12.886h0c0,3.825,1.007,6.846,2.315,7.852C18.624,19.731,17.718,16.711,17.718,12.886Zm.2-8.356ZM18.02,9.966Zm2.919,9.765c-1.208,0-2.416-2.718-2.517-6.644h4.933c0,3.926-1.208,6.644-2.416,6.644Zm0-10.268H18.725c.4-2.114,1.309-3.423,2.215-3.423s1.711,1.208,2.215,3.322Zm2.919.5ZM21.946,20.738c1.309-1.007,2.315-4.027,2.315-7.852h0C24.161,16.711,23.255,19.731,21.946,20.738Zm2.215-8.758h0v0ZM34.932,6.443Zm0,.3Zm.1,1.007a7.55,7.55,0,0,1,2.819,5.537c0,4.933-5.939,9.06-13.892,9.966,1.711-2.013,2.718-5.738,2.718-9.966v-.6C31.006,11.778,34.228,9.966,35.033,7.752Zm-9.262,3.926ZM25.57,9.866Zm1.812-.3,1.007-.2Zm6.342-.805h0l-.2.2ZM31.409,5.939a.906.906,0,0,1,.1.3,1.007,1.007,0,0,1-.2.5c-.6.906-2.416,1.812-5.033,2.215A12.483,12.483,0,0,0,23.758,3.02C27.785,3.423,30.906,4.631,31.409,5.939ZM23.959,4.53Zm0,5.537h0a11.074,11.074,0,0,0-1.208-3.926,11.074,11.074,0,0,1,1.309,3.926ZM18.423,7.45l-.3.906ZM10.47,5.939c.5-1.309,3.624-2.517,7.651-2.819A12.382,12.382,0,0,0,15.6,9.06c-2.617-.5-4.53-1.309-5.033-2.215a1.007,1.007,0,0,1-.2-.5A.906.906,0,0,1,10.47,5.939Zm5.335,6.141h0l.3-.3h0ZM13.49,9.362l.906.2ZM6.946,6.745Zm0-.3Zm-.1,1.309c.805,2.215,4.027,4.027,8.456,4.832v.6c0,4.329,1.007,7.953,2.718,9.966-8.054-.805-13.993-4.933-13.993-9.866A7.45,7.45,0,0,1,6.846,7.752ZM2.517,12.886v.2c0,5.939,7.248,10.872,16.51,11.476-9.262-.6-16.51-5.537-16.51-11.476Z" transform="translate(-20.939 -13.087)" fill="#f2f2f2"/>
  </g>
</svg>
