<svg xmlns="http://www.w3.org/2000/svg" width="55.875" height="47.586" viewBox="0 0 55.875 47.586">
  <g id="Artwork_31" data-name="Artwork 31" transform="translate(0 0)">
    <path id="Path_6630" data-name="Path 6630" d="M1008.45,26.967a5.124,5.124,0,0,1-1.518,2.023,4.74,4.74,0,0,1-3.262,1.083,4.83,4.83,0,0,1-4.151-2.51q-3.511-6.061-6.988-12.14a1.154,1.154,0,0,0-.175-.272,8.591,8.591,0,0,0-.426-.771q-.836-1.462-1.681-2.922c-.575-1-1.155-2-1.725-3a13.382,13.382,0,0,1-.743-1.367,5.057,5.057,0,0,1-.27-3.006c.046-.235.156-.454.182-.694.077-.151.151-.305.23-.454a4.9,4.9,0,0,1,3.283-2.6,3.848,3.848,0,0,0,.584-.13h1.024l.3.054a4.9,4.9,0,0,1,3.581,2.48q3.4,5.9,6.792,11.807a5.534,5.534,0,0,0,.358.6.848.848,0,0,0,.044.107q.563.978,1.127,1.953c1.046,1.821,2.1,3.639,3.134,5.467a4.846,4.846,0,0,1,.419,3.928.551.551,0,0,0-.058.293h0C1008.461,26.887,1008.464,26.932,1008.45,26.967Z" transform="translate(-964.41 -0.195)" fill="#fff"/>
    <path id="Path_6631" data-name="Path 6631" d="M21.041,26.923a5.177,5.177,0,0,1-2.407,2.466,4.963,4.963,0,0,1-6.475-2.014c-.561-.966-1.113-1.935-1.669-2.9Q5.621,16,.75,7.534A5.083,5.083,0,0,1,.084,5.663.457.457,0,0,0,0,5.4V4.564a.761.761,0,0,0,.086-.31A4.942,4.942,0,0,1,3.9.135C4.137.084,4.375.044,4.61,0h.838a3.594,3.594,0,0,0,.563.109A4.905,4.905,0,0,1,9.323,2.533l7.046,12.235c.037.065.058.147.137.179a.961.961,0,0,0,.142.314L18.69,18.8c.7,1.213,1.4,2.424,2.1,3.644a4.932,4.932,0,0,1,.484,3.746,2.207,2.207,0,0,0-.126.491h0c-.065.03-.054.086-.054.142v0C21.046,26.836,21.05,26.883,21.041,26.923Z" transform="translate(0)" fill="#fff"/>
    <path id="Path_6632" data-name="Path 6632" d="M1973.448,2.969a5.239,5.239,0,0,1,2.24-2.38,4.961,4.961,0,0,1,1.741-.547l.3-.042h.7c.242.047.487.086.727.14a4.927,4.927,0,0,1,3.774,4.151,4.872,4.872,0,0,1-.685,3.276c-.091.144-.177.289-.268.435a.074.074,0,0,0-.053.058v0a.074.074,0,0,0-.049.1h0c-.07-.009-.088.049-.125.086a5.9,5.9,0,0,1-.6.577,4.958,4.958,0,0,1-7.558-1.614,4.827,4.827,0,0,1-.3-3.742.536.536,0,0,0,.059-.291h0c.056-.012.051-.054.049-.1v0C1973.447,3.055,1973.442,3.011,1973.448,2.969Z" transform="translate(-1927.11)" fill="#fff"/>
    <path id="Path_6633" data-name="Path 6633" d="M0,1708c.063.072.144.04.219.04h1.49c.179,0,.184,0,.237.177q.554,1.773,1.108,3.55.163.521.324,1.043a.284.284,0,0,0,.084.166c.065-.028.07-.094.086-.147l1.267-4.109c.058-.187.121-.368.172-.555a.142.142,0,0,1,.161-.125c.366,0,.729,0,1.094,0,.116,0,.14.07.165.153l.419,1.355.992,3.2a.5.5,0,0,0,.112.243.286.286,0,0,0,.091-.175q.517-1.677,1.031-3.355c.13-.421.261-.845.389-1.267.026-.088.058-.151.17-.149.543,0,1.087,0,1.63,0,.014,0,.026.014.061.03-.081.242-.163.489-.249.736l-1.641,4.647c-.237.673-.482,1.344-.712,2.016a.215.215,0,0,1-.247.175q-.524-.014-1.048,0c-.135,0-.186-.049-.226-.173q-.527-1.672-1.062-3.345l-.324-1.02a.412.412,0,0,0-.086-.188c-.1.032-.1.135-.121.209-.442,1.4-.878,2.811-1.32,4.215-.112.352-.03.291-.407.3-.3,0-.589,0-.885,0-.224,0-.226,0-.3-.2q-.352-1-.7-2l-1.832-5.169a.632.632,0,0,0-.07-.145c-.019-.031-.054-.021-.075.009Z" transform="translate(0 -1668.232)" fill="#fff"/>
    <path id="Path_6634" data-name="Path 6634" d="M2062.331,1709.36a.382.382,0,0,0-.114-.007,3.784,3.784,0,0,1-3.564-3.141,4.111,4.111,0,0,1,.475-2.915,3.69,3.69,0,0,1,2.622-1.823,4.213,4.213,0,0,1,2.591.279,3.683,3.683,0,0,1,2.117,2.554c0,.019.028.2.031.214.02.117.027.552.027.633v.708c0,.084-.042.491-.058.573-.025.121-.016.142-.035.205a3.814,3.814,0,0,1-3.467,2.712.385.385,0,0,0-.114.007m-.312-1.542a2.119,2.119,0,0,0,1.923-1.006,2.458,2.458,0,0,0,.389-1.131,2.528,2.528,0,0,0-.607-2.007,2.077,2.077,0,0,0-1.835-.715,2.017,2.017,0,0,0-1.438.715,2.568,2.568,0,0,0-.492,2.554A2.132,2.132,0,0,0,2062.529,1707.819Z" transform="translate(-2010.64 -1661.774)" fill="#fff"/>
    <path id="Path_6635" data-name="Path 6635" d="M1700.505,135.9a.5.5,0,0,1-.058.291,4.958,4.958,0,0,0,7.854,5.355,5.909,5.909,0,0,0,.6-.577c.035-.037.056-.1.125-.086,0,.084-.056.142-.093.207q-5.218,9.076-10.44,18.147c-.038.065-.06.144-.131.184a.562.562,0,0,1,.058-.293,4.845,4.845,0,0,0-.418-3.928c-1.036-1.828-2.089-3.646-3.134-5.467q-.562-.978-1.127-1.953a.93.93,0,0,1-.044-.107l2.047-3.546,4.62-8.023C1700.4,136.033,1700.424,135.947,1700.505,135.9Z" transform="translate(-1654.265 -132.736)" fill="#fff"/>
    <path id="Path_6636" data-name="Path 6636" d="M709,148.66c.407-.712.813-1.427,1.223-2.14l5.413-9.409a.719.719,0,0,1,.14-.212c-.026.24-.135.459-.182.694a5.053,5.053,0,0,0,.27,3.006,12.88,12.88,0,0,0,.743,1.367c.57,1,1.15,2,1.725,3s1.122,1.947,1.681,2.922a8.29,8.29,0,0,1,.426.771l-1.837,3.183q-2.412,4.2-4.827,8.387c-.035.061-.044.151-.137.165a2.241,2.241,0,0,1,.126-.491,4.931,4.931,0,0,0-.484-3.746c-.689-1.22-1.395-2.431-2.1-3.644l-2.042-3.541A.876.876,0,0,1,709,148.66Z" transform="translate(-692.492 -133.713)" fill="#fff"/>
    <path id="Path_6637" data-name="Path 6637" d="M1534.963,1712.878a.556.556,0,0,0-.149.292c-.205.577-.4,1.157-.6,1.735-.273.782-.55,1.564-.817,2.351a.213.213,0,0,1-.249.174q-.454-.013-.908,0a.215.215,0,0,1-.252-.169c-.44-1.25-.892-2.5-1.338-3.744-.079-.223-.166-.442-.259-.693a.3.3,0,0,0-.07.26q0,1.107,0,2.212v1.909c0,.221,0,.221-.21.221h-1.281c-.172,0-.175,0-.175-.182,0-.535,0-1.07,0-1.606V1710.1a.76.76,0,0,1,.014-.251.328.328,0,0,1,.184-.023h1.583c.205,0,.207,0,.282.2l1.863,4.838a.449.449,0,0,0,.139.245,5.819,5.819,0,0,0,.279-.7q.824-2.175,1.646-4.349c.1-.273.074-.229.328-.229h1.537c.186,0,.188,0,.19.193q0,1.327,0,2.654v4.471c0,.053,0,.109,0,.163a.115.115,0,0,1-.121.125h-1.444c-.091,0-.126-.039-.122-.125s0-.109,0-.163v-3.981A.458.458,0,0,0,1534.963,1712.878Z" transform="translate(-1493.058 -1670.009)" fill="#fff"/>
    <path id="Path_6638" data-name="Path 6638" d="M616.6,1717.206l.587-1.649,1.316-3.676.745-2.079c.072-.2.074-.2.277-.2.4,0,.808,0,1.211,0a.224.224,0,0,1,.252.177q.59,1.652,1.19,3.3l1.448,4a.166.166,0,0,1,.026.11c-.012.042-.056.021-.084.021-.542,0-1.087,0-1.63,0a.182.182,0,0,1-.214-.154c-.058-.209-.133-.412-.2-.622a.191.191,0,0,0-.214-.161q-1.211.007-2.422,0a.2.2,0,0,0-.214.163c-.065.214-.137.429-.205.643-.026.082-.063.13-.161.13C617.752,1717.206,617.2,1717.206,616.6,1717.206Zm3.5-5.369a.392.392,0,0,0-.077.165l-.512,1.688c-.1.34-.207.682-.307,1.022-.058.2-.044.216.156.219.27,0,.542,0,.813,0s.48,0,.719,0c.133,0,.149-.027.114-.158s-.079-.268-.119-.4q-.335-1.159-.675-2.317C620.19,1711.979,620.195,1711.883,620.1,1711.837Z" transform="translate(-602.243 -1669.791)" fill="#fff"/>
    <path id="Path_6639" data-name="Path 6639" d="M1043.7,1709.677h1.183c.217,0,.435.007.652,0a.257.257,0,0,1,.27.165c.333.631.675,1.257,1.013,1.884l.4.738c.037.068.065.142.142.177.1-.047.116-.145.161-.224.463-.85.927-1.7,1.383-2.557a.3.3,0,0,1,.307-.182c.542.009,1.085,0,1.629,0H1051l-.605,1.076q-1.036,1.832-2.074,3.662a.682.682,0,0,0-.088.354q0,1.107,0,2.212v.116c0,.185,0,.187-.2.187h-1.374c-.177,0-.179,0-.179-.179,0-.738-.007-1.474,0-2.212a1.109,1.109,0,0,0-.156-.591q-1.227-2.138-2.443-4.282C1043.828,1709.917,1043.774,1709.814,1043.7,1709.677Z" transform="translate(-1019.399 -1669.867)" fill="#fff"/>
    <path id="Path_6640" data-name="Path 6640" d="M905.824,1146.142c0-.053-.012-.112.054-.142C905.908,1146.065,905.863,1146.1,905.824,1146.142Z" transform="translate(-884.732 -1119.318)" fill="#fff"/>
    <path id="Path_6641" data-name="Path 6641" d="M2351.931,346.1a.071.071,0,0,1,0-.058.073.073,0,0,1,.044-.037C2351.99,346.047,2351.978,346.081,2351.931,346.1Z" transform="translate(-2297.166 -337.944)" fill="#fff"/>
    <path id="Path_6642" data-name="Path 6642" d="M1891.5,1146.089c.014-.035.012-.079.061-.088C1891.563,1146.044,1891.553,1146.082,1891.5,1146.089Z" transform="translate(-1847.46 -1119.318)" fill="#fff"/>
    <path id="Path_6643" data-name="Path 6643" d="M903.7,1152.1c.007-.04,0-.084.054-.1A.148.148,0,0,1,903.7,1152.1Z" transform="translate(-882.659 -1125.177)" fill="#fff"/>
    <path id="Path_6644" data-name="Path 6644" d="M2354,343.758a.074.074,0,0,1,.054-.058C2354.047,343.728,2354.039,343.758,2354,343.758Z" transform="translate(-2299.191 -335.698)" fill="#fff"/>
    <path id="Path_6645" data-name="Path 6645" d="M1987.953,127.5c-.007.042,0,.086-.054.107A.133.133,0,0,1,1987.953,127.5Z" transform="translate(-1941.615 -124.531)" fill="#fff"/>
    <path id="Path_6646" data-name="Path 6646" d="M1985.863,131.9c0,.042,0,.084-.049.1A.083.083,0,0,1,1985.863,131.9Z" transform="translate(-1939.576 -128.829)" fill="#fff"/>
  </g>
</svg>
