<svg xmlns="http://www.w3.org/2000/svg" width="55.904" height="39.557" viewBox="0 0 55.904 39.557">
  <g id="Group_1638" data-name="Group 1638" transform="translate(0 0)">
    <path id="Path_8631" data-name="Path 8631" d="M58.554,43.892a.479.479,0,0,0,.436.131c.305-.044.305-.523.305-.523s.087-1.089.087-2.222a5.761,5.761,0,0,0-1.089-2.615S47.007,26.2,43.041,26.2,27.789,38.663,27.789,38.663A4.533,4.533,0,0,0,26.7,41.277c0,1.394.087,2.222.087,2.222s0,.479.305.523a.479.479,0,0,0,.436-.131c1.264-1.089,11.33-9.761,15.513-9.761S57.29,42.759,58.554,43.892Z" transform="translate(-15.065 -14.783)" fill="#f2f2f2"/>
    <path id="Path_8632" data-name="Path 8632" d="M27.092,17.779a.523.523,0,0,0,.436-.131c1.264-1.089,11.33-9.761,15.513-9.761s14.249,8.672,15.513,9.761a.479.479,0,0,0,.436.131c.305-.044.305-.523.305-.523s.087-1.089.087-2.222a5.761,5.761,0,0,0-1.089-2.615S46.963,0,43.041,0,27.789,12.463,27.789,12.463A4.533,4.533,0,0,0,26.7,15.077c0,1.394.087,2.222.087,2.222S26.787,17.779,27.092,17.779Z" transform="translate(-15.065)" fill="#f2f2f2"/>
    <path id="Path_8633" data-name="Path 8633" d="M75.839,78.6H73.05a2.646,2.646,0,1,0,0,5.229h2.789a2.852,2.852,0,0,0,3.05-2.615A2.882,2.882,0,0,0,75.839,78.6Zm-.959,4.532h-.872a1.961,1.961,0,0,1-2-1.917,1.917,1.917,0,0,1,2-1.874h.872a1.917,1.917,0,0,1,2,1.874,1.961,1.961,0,0,1-2,1.917Z" transform="translate(-39.497 -44.349)" fill="#f2f2f2"/>
    <path id="Path_8634" data-name="Path 8634" d="M115.632,78.8h-4.314c-.087,0-.218,0-.218.174V83.68a.174.174,0,0,0,.174.174h1.787V79.933a.261.261,0,0,1,.261-.261h2a1.482,1.482,0,0,1,1.351,1.569v2.44a.218.218,0,0,0,.218.218h1.7V81.371a2.764,2.764,0,0,0-2.959-2.571Z" transform="translate(-62.687 -44.462)" fill="#f2f2f2"/>
    <path id="Path_8635" data-name="Path 8635" d="M37.259,78.79H29.808a.174.174,0,0,0-.218.218v.828h1.787a1.133,1.133,0,0,1,1.133,1.089V83.67a.218.218,0,0,0,.174.218h1.787V80.054a.261.261,0,0,1,.261-.261H37.39v-.828a.174.174,0,0,0-.131-.174Z" transform="translate(-16.691 -44.452)" fill="#f2f2f2"/>
    <path id="Path_8636" data-name="Path 8636" d="M24.387,78.8H22.774a.174.174,0,0,0-.174.174V83.68a.218.218,0,0,0,.174.218h1.787V78.974a.218.218,0,0,0-.174-.174Z" transform="translate(-12.752 -44.462)" fill="#f2f2f2"/>
    <path id="Path_8637" data-name="Path 8637" d="M56.455,82.025h0a1.7,1.7,0,0,0,1.482-1.569,1.871,1.871,0,0,0-2-1.656h-4.8a1.046,1.046,0,0,0-1.046,1.046v3.835a.174.174,0,0,0,.174.218h1.787v-1.83h1.7a2.048,2.048,0,0,1,2.179,1.787h2a2.267,2.267,0,0,0-1.478-1.831ZM55.191,81.2H52.1V80.151a.436.436,0,0,1,.479-.479h2.658a.741.741,0,1,1,0,1.482Z" transform="translate(-28.261 -44.462)" fill="#f2f2f2"/>
    <path id="Path_8638" data-name="Path 8638" d="M4.009,79.284h.872a2.048,2.048,0,0,1,1.743.959.174.174,0,0,0,.174.087H8.759a3.181,3.181,0,0,0-2.92-1.83H3.05a3.181,3.181,0,0,0-2.135.784A2.484,2.484,0,0,0,0,81.158a2.873,2.873,0,0,0,3.007,2.658c1.7.044,1.307.044,2.832,0a2.846,2.846,0,0,0,2.876-1.83H6.8l-.174.087a2.048,2.048,0,0,1-1.743,1H4.009a1.918,1.918,0,0,1,0-3.835Z" transform="translate(0 -44.292)" fill="#f2f2f2"/>
    <path id="Path_8639" data-name="Path 8639" d="M94.538,82.655V81.7h4.1v-.915h-4.1V79.91a.261.261,0,0,1,.305-.261h4.663v-.741a.213.213,0,0,0-.218-.218h-6.58a.174.174,0,0,0-.218.218v3.835a1.046,1.046,0,0,0,1.089,1.089h5.752a.218.218,0,0,0,.174-.174v-.741H94.8a.261.261,0,0,1-.262-.262Z" transform="translate(-52.182 -44.396)" fill="#f2f2f2"/>
    <path id="Path_8640" data-name="Path 8640" d="M97.4,74.373a1.351,1.351,0,0,0-.7-.174,1.307,1.307,0,0,0-.7.174.479.479,0,0,0-.305.436.523.523,0,0,0,.3.436,1.438,1.438,0,0,0,1.351,0c.174-.087.349-.261.566-.261a1.133,1.133,0,0,1,.523.261,1.351,1.351,0,0,0,.7.174,1.307,1.307,0,0,0,.7-.174.478.478,0,0,0-.044-.872,1.307,1.307,0,0,0-.7-.174,1.351,1.351,0,0,0-.7.174.86.86,0,0,1-.523.261C97.661,74.635,97.574,74.461,97.4,74.373Z" transform="translate(-53.998 -41.866)" fill="#f2f2f2"/>
  </g>
</svg>
