<svg xmlns="http://www.w3.org/2000/svg" width="52.133" height="54.286" viewBox="0 0 52.133 54.286">
  <g id="Artwork_32" data-name="Artwork 32" transform="translate(26.067 27.143)">
    <g id="Artwork_32-2" data-name="Artwork 32" transform="translate(-26.067 -27.143)">
      <path id="Path_7836" data-name="Path 7836" d="M51.7,2h8.361l5.285,26.523L70.631,2h8.361V41.929H72.986V15.31L67.652,41.929H62.8L57.706,15.454V41.929H51.7V2Z" transform="translate(-26.859 -1.039)" fill="#f2f2f2"/>
      <path id="Path_7837" data-name="Path 7837" d="M.394,23.544V13.069C.394,2.306,5.344,0,10.917,0S21.344,1.682,21.584,8.745v4.8h-6.15V10.427c-.192-3.6-1.2-4.421-4.517-4.565-4.853,0-4.18,6.967-4.18,9.946V26.571c-.048,5.045-.048,8.7,4.18,8.7,2.451,0,4.469-.673,4.469-4.469V23.592H11.109v-5.67H21.392V40.938h-5.91v-2.4c-1.249,1.826-4.469,2.787-6.1,2.931C-.759,41.466.491,34.884.394,23.544Z" transform="translate(-0.202 0)" fill="#f2f2f2"/>
      <rect id="Rectangle_1647" data-name="Rectangle 1647" width="52.133" height="10.898" transform="translate(0 43.388)" fill="#f2f2f2"/>
    </g>
  </g>
</svg>
