<svg xmlns="http://www.w3.org/2000/svg" width="63.2" height="44.558" viewBox="0 0 63.2 44.558">
  <g id="Group_1640" data-name="Group 1640" transform="translate(0 0)">
    <path id="Path_8649" data-name="Path 8649" d="M0,100.3v5.331H1.479V104H2.8c2.841,0,4.281-.9,4.281-1.907s-1.557-1.79-4.125-1.79Zm1.479,3.113v-2.529H2.646c1.206,0,2.763.195,2.763,1.206s-.506,1.323-2.958,1.323Z" transform="translate(0 -61.271)" fill="#f2f2f2"/>
    <path id="Path_8650" data-name="Path 8650" d="M30.11,105.631v-.662H26.491c-.778,0-1.012-.35-1.012-.934v-.778H29.72V102.6H25.479v-1.634h4.436V100.3H24v3.736c0,1.012.428,1.6,1.751,1.6Z" transform="translate(-14.661 -61.271)" fill="#f2f2f2"/>
    <path id="Path_8651" data-name="Path 8651" d="M52.966,100.3H51.487v4.514a5.137,5.137,0,0,1-1.751.272c-1.129,0-2.257-.272-2.257-1.284v-3.5H46v3.619c0,1.479,1.479,1.907,3.074,1.907a9.729,9.729,0,0,0,3.853-.739Z" transform="translate(-28.099 -61.271)" fill="#f2f2f2"/>
    <path id="Path_8652" data-name="Path 8652" d="M71.773,102.679c0-1.479,1.245-2.179,2.8-2.179a9.223,9.223,0,0,1,3.152.662v-.9a10.39,10.39,0,0,0-3.152-.467c-2.452,0-4.475,1.129-4.475,2.841s2.024,2.841,4.475,2.841a14.2,14.2,0,0,0,3.308-.467v-2.1H76.4v1.6a4.553,4.553,0,0,1-1.751.311c-1.673,0-2.919-.817-2.919-2.14" transform="translate(-42.821 -60.965)" fill="#f2f2f2"/>
    <path id="Path_8653" data-name="Path 8653" d="M103.01,105.631v-.662H99.391c-.778,0-1.012-.35-1.012-.934v-.778h4.242V102.6H98.379v-1.634h4.436V100.3H96.9v3.736c0,1.012.428,1.6,1.751,1.6Z" transform="translate(-59.192 -61.271)" fill="#f2f2f2"/>
    <path id="Path_8654" data-name="Path 8654" d="M121.975,99.8c-2.452,0-4.475,1.167-4.475,2.88s2.024,2.8,4.475,2.8,4.475-.973,4.475-2.8-1.985-2.88-4.475-2.88m0,5.059c-1.673,0-2.8-.856-2.8-2.218s1.245-2.218,2.8-2.218,2.8.739,2.8,2.218-1.128,2.218-2.8,2.218" transform="translate(-71.775 -60.965)" fill="#f2f2f2"/>
    <path id="Path_8655" data-name="Path 8655" d="M143.6,101.039h2.919v4.592H148v-4.592h2.919V100.3H143.6Z" transform="translate(-87.719 -61.271)" fill="#f2f2f2"/>
    <path id="Path_8656" data-name="Path 8656" d="M67.3,29.267a42.972,42.972,0,0,0-4.786-8.6c-.389-.545-.233-.817-.039-.973a15.76,15.76,0,0,0,1.712-1.712,3.159,3.159,0,0,0,.428-3.541c-.584-1.518-2.491-5.176-2.919-6.382A3.941,3.941,0,0,1,61.465,5.3a1.268,1.268,0,0,1,1.167-.934.389.389,0,0,1,.35.311,5.059,5.059,0,0,0,.428,1.907A5.837,5.837,0,0,0,66.1,9.459c.35.156.389-.117.389-.233l-.934-3.619c-.389-1.6-.623-1.907-.973-2.257a2.831,2.831,0,0,0-4.631.973c-.117.156-.117.233-.272.117S57.846,2.96,57.73,2.26s-.117-.506-.545-.662A24.321,24.321,0,0,0,52.554.12a2.646,2.646,0,0,0-1.4-.039A9.378,9.378,0,0,0,48.2,1.092a1.479,1.479,0,0,0-.662.584.7.7,0,0,1-.35.272,15.371,15.371,0,0,0-1.868.778c-.233.156-.389.311-.272.584A8.094,8.094,0,0,0,46.211,5.1a2.062,2.062,0,0,0,.739.272c.117.039.195.039.233-.039a.662.662,0,0,1,.272-.35,3,3,0,0,1,1.206-.389c.233-.039.389-.039.506.078a1.673,1.673,0,0,1,.506.7c.078.311.039.428-.117.467a5.176,5.176,0,0,1-1.245.233c-.584.039-.739-.117-.778-.156a.117.117,0,0,0-.156,0,1.167,1.167,0,0,1-.467.35c-.117.078-.2.195-.078.428s.856,1.362,1.323,1.479.545,0,.973-.311.584-.272.7-.2.311.272.272.467a6.5,6.5,0,0,1-.973,1.206c-.117.156-.233.233-.428.117s-4.942-2.529-5.565-2.8a4.981,4.981,0,0,0-1.79-.35,8.834,8.834,0,0,0-1.712.117,1.557,1.557,0,0,0-.817.506,2.59,2.59,0,0,0-.9,1.284,2.257,2.257,0,0,0,.35.934.272.272,0,0,0,.272.117,2.841,2.841,0,0,1,1.206-.156c.506.078.545.467.584.778a.2.2,0,0,0,.195.156,1.829,1.829,0,0,1,.856.156,7.822,7.822,0,0,1,1.44,1.051c.117.117.117.233-.117.233a20.352,20.352,0,0,0-3.58.7,2.873,2.873,0,0,0-1.44.817,6.3,6.3,0,0,0-.7,1.712A1.83,1.83,0,0,0,37.611,16c.156.117.156.156.35.078a3.853,3.853,0,0,1,1.557-.584c.389-.039.545.35.623.467s.195.039.506-.039,3.969-.117,5.137-.039a4.436,4.436,0,0,1,1.868.428,11.4,11.4,0,0,1,1.557,1.245s-1.323,2.218-2.024,3.541-1.129,2.14-1.4,2.685a3.891,3.891,0,0,0-.35,1.712c.039.778.078,1.206.078,1.557s-.311.35-.739.467-1.712.233-2.646.467-1.167.428-1.323,1.051a17.9,17.9,0,0,0-.311,2.374c0,.233,0,.35.272.272l1.323-.156h2.3c1.206,0,4.786.195,5.02.233s.35,0,.35-.233-.078-1.167-.078-1.712a2.027,2.027,0,0,1,.389-1.6l4.319-4.864c.156-.195.311-.35.545-.117s3.269,2.413,3.891,2.841a3,3,0,0,0,1.868.584c.506,0,.623.856.195.934l-1.557.311a1.3,1.3,0,0,0-1.129.856,15.916,15.916,0,0,0-.389,2.568c0,.117,0,.311.195.272a18.173,18.173,0,0,1,3.736-.195c1.712.039,3.347.195,3.58.195s.272,0,.389-.233a8.483,8.483,0,0,1,1.4-1.518c.272-.233.272-.311.156-.662m-6.5-11.908a.856.856,0,0,1-.934-.2c-.2-.195-1.907-2.257-2.491-2.88a.817.817,0,0,1,.35-1.362c.7-.233,1.907-.662,2.257-.817a.856.856,0,0,0,.545-.7,8.561,8.561,0,0,0,.039-.9c0-.156.156-.233.272-.078l.739,1.4c.545,1.051,1.284,2.335,1.518,2.919a1.206,1.206,0,0,1-.233,1.362,6.039,6.039,0,0,1-2.062,1.245M49.83,1.676c.117,0,.156,0,.156.039a.467.467,0,0,1,0,.117l-.078.078-.973.35c-.156.078-.233.039-.233-.039a.389.389,0,0,1,.039-.233l.117-.078.973-.233" transform="translate(-22.59 -0.005)" fill="#f2f2f2"/>
  </g>
</svg>
