<svg xmlns="http://www.w3.org/2000/svg" width="71.875" height="52.219" viewBox="0 0 71.875 52.219">
  <path id="Path_8657" data-name="Path 8657" d="M26.506,25.628c0,1.836-.2,2.754-1.517,2.754s-1.6-.838-1.6-2.515V11.177H12.575V28.423a10.762,10.762,0,0,0,2.435,7.425,8.064,8.064,0,0,0,6.39,2.914,10.5,10.5,0,0,0,5.349-1.637c-1,3.832-3.313,5.748-6.706,5.748a11.589,11.589,0,0,1-3.792-.918,20.519,20.519,0,0,1-3.713-1.717V49.18a25.989,25.989,0,0,0,3.709,1.92,16.367,16.367,0,0,0,5.868,1.118A14.861,14.861,0,0,0,33.452,47.1c3.154-3.393,3.872-6.627,3.872-11.3V11.177H26.506ZM51.017.12C38.2,1.277,39.041,15.01,39.041,15.01V39C46.027,39,49.5,35.648,49.5,31.017V27.9h5.19V17.445H49.54v-1.4A5.767,5.767,0,0,1,50.7,12.3a3.832,3.832,0,0,1,3.034-1.317c.878,0,2.435.279,2.754,1.517V23.473c0,3.992.758,7.185,2.355,9.621a13.573,13.573,0,0,0,5.07,4.511,14.291,14.291,0,0,0,6.746,1.637h1.2V28.183c-2.2,0-3.154-.4-3.872-1.237s-1.038-2.515-1.038-4.591H70.7V11.177H67.144C66.466,6.986,63.951.719,54.65,0H52.694Zm-36.566,38h0a14.171,14.171,0,0,1-3.673,1.517h0a8.861,8.861,0,0,1-1.876.2,8.144,8.144,0,0,1-6.467-2.874A10.867,10.867,0,0,1,0,29.5V.719H10.818V29.461a10.8,10.8,0,0,0,2.435,7.465,9.461,9.461,0,0,0,1.238,1.2Z" transform="translate(0.016 0)" fill="#f2f2f2" fill-rule="evenodd"/>
</svg>
