<svg xmlns="http://www.w3.org/2000/svg" width="59.432" height="54.493" viewBox="0 0 59.432 54.493">
  <g id="Group_1625" data-name="Group 1625" transform="translate(-31.299 -452.013)">
    <g id="Artwork_19" data-name="Artwork 19" transform="translate(60.88 479.382)">
      <path id="Path_3586" data-name="Path 3586" d="M176.5,12.107V5h28.855l.094,14.676,14.23-.18v38.41H183.367" transform="translate(-190.747 -31.475)" fill="none" stroke="#fff" stroke-linecap="round" stroke-linejoin="round" stroke-width="1.3"/>
      <line id="Line_908" data-name="Line 908" x2="14.265" y2="14.47" transform="translate(14.667 -26.449)" fill="none" stroke="#fff" stroke-linecap="round" stroke-linejoin="round" stroke-width="1.3"/>
      <rect id="Rectangle_1188" data-name="Rectangle 1188" width="21.551" height="4.41" transform="translate(-28.846 12.988)" stroke-width="1.3" stroke="#fff" stroke-linecap="round" stroke-linejoin="round" fill="none"/>
      <line id="Line_909" data-name="Line 909" y1="1.147" transform="translate(-18.126 15.9)" fill="none" stroke="#fff" stroke-linecap="round" stroke-linejoin="round" stroke-width="1.3"/>
      <line id="Line_910" data-name="Line 910" y1="1.147" transform="translate(-12.133 15.9)" fill="none" stroke="#fff" stroke-linecap="round" stroke-linejoin="round" stroke-width="1.3"/>
      <rect id="Rectangle_1189" data-name="Rectangle 1189" width="21.551" height="4.41" transform="translate(-25.507 17.526)" stroke-width="1.3" stroke="#fff" stroke-linecap="round" stroke-linejoin="round" fill="none"/>
      <line id="Line_911" data-name="Line 911" y1="1.147" transform="translate(-14.787 20.438)" fill="none" stroke="#fff" stroke-linecap="round" stroke-linejoin="round" stroke-width="1.3"/>
      <line id="Line_912" data-name="Line 912" y1="1.147" transform="translate(-8.793 20.438)" fill="none" stroke="#fff" stroke-linecap="round" stroke-linejoin="round" stroke-width="1.3"/>
      <rect id="Rectangle_1190" data-name="Rectangle 1190" width="21.551" height="4.41" transform="translate(-28.932 22.064)" stroke-width="1.3" stroke="#fff" stroke-linecap="round" stroke-linejoin="round" fill="none"/>
      <line id="Line_913" data-name="Line 913" y1="1.147" transform="translate(-18.212 24.976)" fill="none" stroke="#fff" stroke-linecap="round" stroke-linejoin="round" stroke-width="1.3"/>
      <line id="Line_914" data-name="Line 914" y1="1.147" transform="translate(-12.218 24.976)" fill="none" stroke="#fff" stroke-linecap="round" stroke-linejoin="round" stroke-width="1.3"/>
      <circle id="Ellipse_60" data-name="Ellipse 60" cx="9.889" cy="9.889" r="9.889" transform="translate(-28.444 -6.91)" stroke-width="1.3" stroke="#fff" stroke-linecap="round" stroke-linejoin="round" fill="none"/>
      <path id="Path_3587" data-name="Path 3587" d="M81.8,285.142v-.89a3.588,3.588,0,0,0,2.046-3.134,7.9,7.9,0,0,0-.086-1.259H81.911v-1.13h1.67a11.5,11.5,0,0,1-.205-1.926,3.3,3.3,0,0,1,3.433-3.5,3.768,3.768,0,0,1,1.952.445l-.342,1.19a3.18,3.18,0,0,0-1.6-.368c-1.4,0-1.961.967-1.961,2.235a9.563,9.563,0,0,0,.205,1.918h2.577v1.13H85.216a6.33,6.33,0,0,1-.077,2.012,3.75,3.75,0,0,1-1.224,1.944v.034h5.343v1.3Z" transform="translate(-104.156 -276.802)" fill="#fff"/>
      <line id="Line_915" data-name="Line 915" x2="19.607" transform="translate(-26.226 -18.829)" fill="#fff" stroke="#fff" stroke-linecap="round" stroke-miterlimit="10" stroke-width="1.3"/>
      <line id="Line_916" data-name="Line 916" x2="0.771" transform="translate(-4.726 -18.829)" fill="#fff" stroke="#fff" stroke-linecap="round" stroke-miterlimit="10" stroke-width="1.3"/>
      <line id="Line_917" data-name="Line 917" x2="0.771" transform="translate(-1.301 -11.979)" fill="#fff" stroke="#fff" stroke-linecap="round" stroke-miterlimit="10" stroke-width="1.3"/>
      <line id="Line_918" data-name="Line 918" x2="0.771" transform="translate(-4.726 -11.979)" fill="#fff" stroke="#fff" stroke-linecap="round" stroke-miterlimit="10" stroke-width="1.3"/>
      <line id="Line_919" data-name="Line 919" x2="0.771" transform="translate(-9.007 -11.979)" fill="#fff" stroke="#fff" stroke-linecap="round" stroke-miterlimit="10" stroke-width="1.3"/>
      <line id="Line_920" data-name="Line 920" x2="3.022" transform="translate(-6.978 -15.404)" fill="#fff" stroke="#fff" stroke-linecap="round" stroke-miterlimit="10" stroke-width="1.3"/>
      <line id="Line_921" data-name="Line 921" x2="16.765" transform="translate(-26.226 -15.404)" fill="#fff" stroke="#fff" stroke-linecap="round" stroke-miterlimit="10" stroke-width="1.3"/>
      <line id="Line_922" data-name="Line 922" x2="12.629" transform="translate(-26.226 -11.979)" fill="#fff" stroke="#fff" stroke-linecap="round" stroke-miterlimit="10" stroke-width="1.3"/>
      <path id="Path_3588" data-name="Path 3588" d="M377.258,236.2l-8.4,8.4-4.076-4.076-7.483,7.492" transform="translate(-356.067 -242.879)" fill="none" stroke="#fff" stroke-linecap="round" stroke-miterlimit="10" stroke-width="1.3"/>
      <path id="Path_3589" data-name="Path 3589" d="M551,229.9h3.99v4.084" transform="translate(-533.182 -237.118)" fill="none" stroke="#fff" stroke-linecap="round" stroke-miterlimit="10" stroke-width="1.3"/>
      <line id="Line_923" data-name="Line 923" y2="11.893" transform="translate(1.884 7.928)" fill="none" stroke="#fff" stroke-linecap="round" stroke-miterlimit="10" stroke-width="1.3"/>
      <line id="Line_924" data-name="Line 924" y2="16.525" transform="translate(5.309 3.296)" fill="none" stroke="#fff" stroke-linecap="round" stroke-miterlimit="10" stroke-width="1.3"/>
      <line id="Line_925" data-name="Line 925" y2="18.589" transform="translate(8.733 1.233)" fill="none" stroke="#fff" stroke-linecap="round" stroke-miterlimit="10" stroke-width="1.3"/>
      <line id="Line_926" data-name="Line 926" x1="22.356" transform="translate(1.233 22.064)" fill="none" stroke="#fff" stroke-linecap="round" stroke-miterlimit="10" stroke-width="1.3"/>
      <line id="Line_927" data-name="Line 927" y2="14.076" transform="translate(12.158 5.745)" fill="none" stroke="#fff" stroke-linecap="round" stroke-miterlimit="10" stroke-width="1.3"/>
      <line id="Line_928" data-name="Line 928" y2="17.082" transform="translate(15.583 2.739)" fill="none" stroke="#fff" stroke-linecap="round" stroke-miterlimit="10" stroke-width="1.3"/>
      <line id="Line_929" data-name="Line 929" y2="19.83" transform="translate(19.008 -0.009)" fill="none" stroke="#fff" stroke-linecap="round" stroke-miterlimit="10" stroke-width="1.3"/>
      <line id="Line_930" data-name="Line 930" y2="14.076" transform="translate(22.433 5.745)" fill="none" stroke="#fff" stroke-linecap="round" stroke-miterlimit="10" stroke-width="1.3"/>
      <line id="Line_931" data-name="Line 931" y2="2.046" transform="translate(22.433 -0.437)" fill="none" stroke="#fff" stroke-linecap="round" stroke-miterlimit="10" stroke-width="1.3"/>
    </g>
  </g>
</svg>
