<svg id="Layer_1" data-name="Layer 1" xmlns="http://www.w3.org/2000/svg" viewBox="0 0 232.46 213.01">
    <g id="Artwork_6" data-name="Artwork 6">
        <g id="Artwork_6-2" data-name="Artwork 6-2">
            <g id="Group_22" data-name="Group 22">
                <path id="Path_12" data-name="Path 12" class="cls-1" d="M59.83,30.44V2.29H174.07l.34,58.09,56.35-.7V211.74H87" transform="translate(0 -0.6)"/>
                <line id="Line_151" data-name="Line 151" class="cls-1" x1="174.3" y1="1.8" x2="230.77" y2="59.08"/>
                <rect id="Rectangle_52" data-name="Rectangle 52" class="cls-1" x="2.03" y="157.92" width="85.32" height="17.46"/>
                <line id="Line_152" data-name="Line 152" class="cls-1" x1="20.74" y1="174.34" x2="20.74" y2="169.8"/>
                <line id="Line_153" data-name="Line 153" class="cls-1" x1="44.47" y1="174.01" x2="44.47" y2="169.46"/>
                <line id="Line_154" data-name="Line 154" class="cls-1" x1="68.2" y1="174.01" x2="68.2" y2="169.46"/>
                <rect id="Rectangle_53" data-name="Rectangle 53" class="cls-1" x="15.25" y="175.89" width="85.32" height="17.46"/>
                <line id="Line_155" data-name="Line 155" class="cls-1" x1="33.96" y1="191.97" x2="33.96" y2="187.42"/>
                <line id="Line_156" data-name="Line 156" class="cls-1" x1="57.69" y1="191.97" x2="57.69" y2="187.42"/>
                <line id="Line_157" data-name="Line 157" class="cls-1" x1="81.42" y1="191.97" x2="81.42" y2="187.42"/>
                <rect id="Rectangle_54" data-name="Rectangle 54" class="cls-1" x="1.7" y="193.86" width="85.32" height="17.46"/>
                <line id="Line_158" data-name="Line 158" class="cls-1" x1="20.4" y1="210.27" x2="20.4" y2="205.73"/>
                <line id="Line_159" data-name="Line 159" class="cls-1" x1="44.13" y1="209.93" x2="44.13" y2="205.39"/>
                <line id="Line_160" data-name="Line 160" class="cls-1" x1="67.86" y1="209.93" x2="67.86" y2="205.39"/>
                <circle id="Ellipse_37" data-name="Ellipse 37" class="cls-1" cx="42.76" cy="118.28" r="39.14"/>
                <g id="_" data-name=" " class="cls-2">
                    <text class="cls-3" transform="translate(23.78 136.93)">£</text>
                </g>
                <line id="Line_161" data-name="Line 161" class="cls-4" x1="12.41" y1="31.97" x2="90.03" y2="31.97"/>
                <line id="Line_162" data-name="Line 162" class="cls-4" x1="97.52" y1="31.97" x2="100.57" y2="31.97"/>
                <line id="Line_163" data-name="Line 163" class="cls-4" x1="111.08" y1="59.08" x2="114.13" y2="59.08"/>
                <line id="Line_164" data-name="Line 164" class="cls-4" x1="97.52" y1="59.08" x2="100.57" y2="59.08"/>
                <line id="Line_165" data-name="Line 165" class="cls-4" x1="80.57" y1="59.08" x2="83.62" y2="59.08"/>
                <line id="Line_166" data-name="Line 166" class="cls-4" x1="88.6" y1="45.53" x2="100.57" y2="45.53"/>
                <line id="Line_167" data-name="Line 167" class="cls-4" x1="12.41" y1="45.53" x2="78.78" y2="45.53"/>
                <line id="Line_168" data-name="Line 168" class="cls-4" x1="12.41" y1="59.08" x2="62.41" y2="59.08"/>
                <path id="Path_13" data-name="Path 13" class="cls-4" d="M200.13,80.65l-33.26,33.27L150.74,97.79,121.1,127.43" transform="translate(0 -0.6)"/>
                <path id="Path_14" data-name="Path 14" class="cls-4" d="M186.78,78.52h15.78V94.69" transform="translate(0 -0.6)"/>
                <line id="Line_169" data-name="Line 169" class="cls-4" x1="123.67" y1="137.88" x2="123.67" y2="184.96"/>
                <line id="Line_170" data-name="Line 170" class="cls-4" x1="137.23" y1="119.54" x2="137.23" y2="184.96"/>
                <line id="Line_171" data-name="Line 171" class="cls-4" x1="150.79" y1="111.39" x2="150.79" y2="184.96"/>
                <line id="Line_172" data-name="Line 172" class="cls-4" x1="209.62" y1="193.86" x2="121.11" y2="193.86"/>
                <line id="Line_173" data-name="Line 173" class="cls-4" x1="164.35" y1="129.23" x2="164.35" y2="184.96"/>
                <line id="Line_174" data-name="Line 174" class="cls-4" x1="177.91" y1="117.34" x2="177.91" y2="184.96"/>
                <line id="Line_175" data-name="Line 175" class="cls-4" x1="191.46" y1="106.47" x2="191.46" y2="184.96"/>
                <line id="Line_176" data-name="Line 176" class="cls-4" x1="205.02" y1="129.23" x2="205.02" y2="184.96"/>
                <line id="Line_177" data-name="Line 177" class="cls-4" x1="205.02" y1="104.76" x2="205.02" y2="112.88"/>
            </g>
        </g>
    </g>
</svg>