<svg xmlns="http://www.w3.org/2000/svg" width="66.946" height="39.553" viewBox="0 0 66.946 39.553">
  <g id="Group_1639" data-name="Group 1639" transform="translate(0 0)">
    <path id="Path_8641" data-name="Path 8641" d="M17.374,9a7.022,7.022,0,0,0-.965,6.218,9.7,9.7,0,0,0,3.109,4.4,21.225,21.225,0,0,0,6.325,3.645,41.432,41.432,0,0,0,13.829,2.626,49.362,49.362,0,0,0,6.914-.268,43.468,43.468,0,0,0,6.968-1.233,28.032,28.032,0,0,0,8.415-3.752,12.971,12.971,0,0,0,4.02-4.02,7.021,7.021,0,0,0,.965-5.253,8.522,8.522,0,0,0-2.2-4.02A18.17,18.17,0,0,0,59.02,3.377,33.392,33.392,0,0,0,51.141.858a43.2,43.2,0,0,0-5.789-.75L44.013,0H39.564L37.42.161A43.522,43.522,0,0,0,30.613,1.34,30.552,30.552,0,0,0,21.93,4.824,14.15,14.15,0,0,0,17.374,9Zm29.587,8.951A8.737,8.737,0,0,1,44.013,23.2a3.484,3.484,0,0,1-2.09.8H40.529a44.22,44.22,0,0,1-5.414-.429,38.431,38.431,0,0,1-5.306-1.018l-1.769-.59c-.482-.214-.482-.482-.107-.8a31.3,31.3,0,0,1,12.7-5.95,12.435,12.435,0,0,1,3.7-.429,2.68,2.68,0,0,1,2.3,1.233,2.734,2.734,0,0,1,.328,1.935ZM58.806,8.2l.643-1.233c.268-.482.536-.643,1.072-.375a7.45,7.45,0,0,1,4.342,5.789,3.592,3.592,0,0,1,0,.59,5.682,5.682,0,0,1-1.286,3.645,12.864,12.864,0,0,1-4.127,3.377,27.121,27.121,0,0,1-8.629,3c-.107,0-.375,0-.375-.054a.59.59,0,0,1,.054-.482L51.731,20.8a47.866,47.866,0,0,0,3.913-6.218C56.716,12.435,57.734,10.291,58.806,8.2ZM38.546,3.323a4.717,4.717,0,0,1,3.43-1.447A35.8,35.8,0,0,1,51.892,3l2.626.75.8.375a.429.429,0,0,1,.054.75l-.59.482A52.045,52.045,0,0,1,43.955,10.5a17.045,17.045,0,0,1-4.449.911,4.234,4.234,0,0,1-1.93-.322c-.965-.429-1.286-1.286-1.286-2.519A8.576,8.576,0,0,1,38.541,3.32ZM31.2,3.162A6.861,6.861,0,0,1,32.81,3c.429,0,.536.214.268.59l-2.251,2.9A45.667,45.667,0,0,0,24.4,18.009a4.985,4.985,0,0,1-.536,1.072.858.858,0,0,1-1.179.375,4.877,4.877,0,0,1-1.662-1.126A9.38,9.38,0,0,1,18.5,14.74a17.8,17.8,0,0,1-.375-1.769h.054a5.95,5.95,0,0,1,1.608-3.752,13.829,13.829,0,0,1,3.806-3.055,31.516,31.516,0,0,1,7.611-3Z" transform="translate(-7.458)" fill="#f2f2f2"/>
    <path id="Path_8642" data-name="Path 8642" d="M87.686,55.5H79.7v9.755h8.04l.322-.107a1.554,1.554,0,0,0,1.072-1.286,3.216,3.216,0,0,0,.054-.75q0-1.769,0-3.538v-2.09A2.069,2.069,0,0,0,87.686,55.5Zm-1.34,6.486c-.054.7-.214.911-.911.911H82.594V57.8h3c.429,0,.59.214.7.643a1.929,1.929,0,0,1,.054.429v3Q86.348,61.932,86.346,61.986Z" transform="translate(-36.981 -25.752)" fill="#f2f2f2"/>
    <path id="Path_8643" data-name="Path 8643" d="M109.226,55.721V55.4h-7.29A1.983,1.983,0,0,0,99.9,57.436v7.718h2.787V63.01h3.752v2.144h2.841v-.322C109.226,61.778,109.226,58.776,109.226,55.721Zm-2.841,4.824h-3.752V58.4a.643.643,0,0,1,.643-.643h3.109Z" transform="translate(-46.354 -25.705)" fill="#f2f2f2"/>
    <path id="Path_8644" data-name="Path 8644" d="M48.619,55.4h-2.3c-.268,0-.322.107-.322.322V62.1c0,.536-.161.7-.7.7H42.241V55.4H39.4v9.755h8.2a1.5,1.5,0,0,0,1.286-1.394,4.5,4.5,0,0,0,.054-.7V55.454Z" transform="translate(-18.282 -25.706)" fill="#f2f2f2"/>
    <path id="Path_8645" data-name="Path 8645" d="M69.041,59.366c0-.75,0-1.5-.054-2.251a1.608,1.608,0,0,0-1.179-1.554,4.877,4.877,0,0,0-1.179-.161H59.5v9.809h2.894v-7.4H65.45a.569.569,0,0,1,.643.643v6.807h3V65.1Q69.041,62.154,69.041,59.366Z" transform="translate(-27.608 -25.706)" fill="#f2f2f2"/>
    <path id="Path_8646" data-name="Path 8646" d="M6.646,55.4c-.214,0-.161.161-.161.268v3.216h-3.7V55.4H0v9.755H2.787V61.35H6.539v3.859H9.433a.268.268,0,0,0,0-.054V55.614A1.984,1.984,0,0,0,9.38,55.4Z" transform="translate(0 -25.706)" fill="#f2f2f2"/>
    <path id="Path_8647" data-name="Path 8647" d="M26.493,55.4a.429.429,0,0,0-.268.161l-2.144,3-.161.268-.161-.268-1.93-2.948a.375.375,0,0,0-.375-.214H18.4l.214.322c1.072,1.554,2.09,3.162,3.162,4.717a3.055,3.055,0,0,1,.643,2.09c-.054.858,0,1.769-.054,2.626h2.894V61.562a.911.911,0,0,1,.161-.429l3.806-5.467.161-.214H26.493Z" transform="translate(-8.538 -25.705)" fill="#f2f2f2"/>
    <path id="Path_8648" data-name="Path 8648" d="M119.8,55.71v9.433h2.734V55.388h-2.358C119.854,55.335,119.8,55.442,119.8,55.71Z" transform="translate(-55.588 -25.694)" fill="#f2f2f2"/>
  </g>
</svg>
