<svg xmlns="http://www.w3.org/2000/svg" width="261.964" height="260.607" viewBox="0 0 261.964 260.607">
  <g id="Artwork_7" data-name="Artwork 7" transform="translate(-710.586 -1229.719)">
    <g id="Artwork_7-2" data-name="Artwork 7" transform="translate(841.568 1360.023)">
      <g id="Artwork_7-3" data-name="Artwork 7" transform="translate(-129.201 -128.523)">
        <path id="Path_27" data-name="Path 27" d="M523.3,38.014,488.338,72.971,471.39,56.023l-34.8,34.8" transform="translate(-282.863 -26.255)" fill="none" stroke="#fff" stroke-linecap="round" stroke-miterlimit="10" stroke-width="3.562"/>
        <path id="Path_28" data-name="Path 28" d="M635.659,35.474h16.576v17" transform="translate(-411.026 -24.62)" fill="none" stroke="#fff" stroke-linecap="round" stroke-miterlimit="10" stroke-width="3.562"/>
        <line id="Line_187" data-name="Line 187" y2="6.734" transform="translate(156.193 73.871)" fill="none" stroke="#fff" stroke-linecap="round" stroke-miterlimit="10" stroke-width="3.562"/>
        <line id="Line_188" data-name="Line 188" y2="19.944" transform="translate(170.44 60.661)" fill="none" stroke="#fff" stroke-linecap="round" stroke-miterlimit="10" stroke-width="3.562"/>
        <line id="Line_189" data-name="Line 189" y2="32.075" transform="translate(184.688 48.53)" fill="none" stroke="#fff" stroke-linecap="round" stroke-miterlimit="10" stroke-width="3.562"/>
        <line id="Line_190" data-name="Line 190" y2="15.814" transform="translate(198.936 64.791)" fill="none" stroke="#fff" stroke-linecap="round" stroke-miterlimit="10" stroke-width="3.562"/>
        <line id="Line_191" data-name="Line 191" y2="28.314" transform="translate(213.183 52.292)" fill="none" stroke="#fff" stroke-linecap="round" stroke-miterlimit="10" stroke-width="3.562"/>
        <line id="Line_192" data-name="Line 192" y2="39.74" transform="translate(227.431 40.866)" fill="none" stroke="#fff" stroke-linecap="round" stroke-miterlimit="10" stroke-width="3.562"/>
        <line id="Line_193" data-name="Line 193" y2="15.814" transform="translate(241.678 64.791)" fill="none" stroke="#fff" stroke-linecap="round" stroke-miterlimit="10" stroke-width="3.562"/>
        <line id="Line_194" data-name="Line 194" y2="8.526" transform="translate(241.678 39.074)" fill="none" stroke="#fff" stroke-linecap="round" stroke-miterlimit="10" stroke-width="3.562"/>
        <rect id="Rectangle_59" data-name="Rectangle 59" width="137.193" height="85.094" rx="4.274" transform="translate(15.038 121.852)" fill="none" stroke="#fff" stroke-miterlimit="10" stroke-width="3.562"/>
        <path id="Path_29" data-name="Path 29" d="M51.494,667.755H180.139a4.274,4.274,0,0,1,4.274,4.274v16.705H47.22V672.029a4.274,4.274,0,0,1,4.274-4.274Z" transform="translate(-32.182 -431.689)" fill="none" stroke="#fff" stroke-miterlimit="10" stroke-width="3.562"/>
        <path id="Path_30" data-name="Path 30" d="M122.64,527.229h80.994a4.274,4.274,0,0,1,4.274,4.274v16.705H118.366V531.5A4.274,4.274,0,0,1,122.64,527.229Z" transform="translate(-77.986 -341.217)" fill="none" stroke="#fff" stroke-miterlimit="10" stroke-width="3.562"/>
        <path id="Path_31" data-name="Path 31" d="M218.694,603.314a7.077,7.077,0,0,0,5.445-6.887,7.19,7.19,0,0,0-7.264-7.027H171.852a7.19,7.19,0,0,0-7.264,7.027,7.078,7.078,0,0,0,5.445,6.887.041.041,0,0,1,0,.081,7.077,7.077,0,0,0-5.445,6.887,7.19,7.19,0,0,0,7.264,7.027h45.022a7.19,7.19,0,0,0,7.264-7.027,7.078,7.078,0,0,0-5.445-6.887.041.041,0,0,1,0-.081Z" transform="translate(-107.745 -381.243)" fill="none" stroke="#fff" stroke-miterlimit="10" stroke-width="3.562"/>
        <line id="Line_195" data-name="Line 195" x2="87.666" transform="translate(40.38 196.502)" fill="none" stroke="#fff" stroke-miterlimit="10" stroke-width="3.562"/>
        <rect id="Rectangle_60" data-name="Rectangle 60" width="22.414" height="22.414" rx="4.274" transform="translate(44.228 141.437)" fill="none" stroke="#fff" stroke-miterlimit="10" stroke-width="3.562"/>
        <rect id="Rectangle_61" data-name="Rectangle 61" width="22.414" height="22.414" rx="11.207" transform="translate(65.409 72.105)" fill="none" stroke="#fff" stroke-miterlimit="10" stroke-width="3.562"/>
        <rect id="Rectangle_62" data-name="Rectangle 62" width="22.414" height="22.414" rx="4.274" transform="translate(108.655 141.437)" fill="none" stroke="#fff" stroke-miterlimit="10" stroke-width="3.562"/>
        <path id="Path_32" data-name="Path 32" d="M20.786,451.263a15.786,15.786,0,1,1,0-31.571" transform="translate(-5 -271.984)" fill="none" stroke="#fff" stroke-miterlimit="10" stroke-width="3.562"/>
        <path id="Path_33" data-name="Path 33" d="M434.023,451.263a15.786,15.786,0,1,0,0-31.571" transform="translate(-281.21 -271.984)" fill="none" stroke="#fff" stroke-miterlimit="10" stroke-width="3.562"/>
        <path id="Path_34" data-name="Path 34" d="M200.328,266.182,215,277.293,197.46,294.835" transform="translate(-128.908 -173.152)" fill="none" stroke="#fff" stroke-miterlimit="10" stroke-width="3.562"/>
        <path id="Path_35" data-name="Path 35" d="M248.528,226.05l27.348,25.1L258.244,269.5" transform="translate(-161.786 -147.315)" fill="none" stroke="#fff" stroke-miterlimit="10" stroke-width="3.562"/>
        <path id="Path_36" data-name="Path 36" d="M508.55,97.5H497.5l-27.522,36.474L470.29,97.5h-73.6a4.287,4.287,0,0,1-4.274-4.274V9.274A4.287,4.287,0,0,1,396.689,5H508.55a4.287,4.287,0,0,1,4.274,4.274V93.228A4.287,4.287,0,0,1,508.55,97.5Z" transform="translate(-254.422 -5)" fill="none" stroke="#fff" stroke-miterlimit="10" stroke-width="3.562"/>
      </g>
    </g>
  </g>
</svg>
