<svg xmlns="http://www.w3.org/2000/svg" width="24.897" height="24.896" viewBox="0 0 24.897 24.896">
  <g id="Group_1279" data-name="Group 1279" transform="translate(0 0)">
    <path id="Path_6318" data-name="Path 6318" d="M15.573,3.679a9.36,9.36,0,0,0-4.773,0l2.34,6.552Z" transform="translate(-0.785 -0.216)" fill="#f1f2f2"/>
    <path id="Path_6319" data-name="Path 6319" d="M22.954,13.076A9.36,9.36,0,0,0,22.393,9.8L17.9,21.406a9.36,9.36,0,0,0,5.054-8.33Z" transform="translate(-1.24 -0.627)" fill="#f1f2f2"/>
    <path id="Path_6320" data-name="Path 6320" d="M17.58,4.7l-2.714,7.581H10.935L8.221,4.7A9.453,9.453,0,0,0,5.6,6.946L9.437,17.055l1.4-3.744h3.744l1.4,3.744,4.025-10.2A9.36,9.36,0,0,0,17.58,4.7Z" transform="translate(-0.452 -0.301)" fill="#f1f2f2"/>
    <path id="Path_6321" data-name="Path 6321" d="M12.455,0A12.448,12.448,0,1,0,25,12.448,12.448,12.448,0,0,0,12.455,0Zm0,23.4A10.857,10.857,0,1,1,23.406,12.448,10.857,10.857,0,0,1,12.455,23.4Z" transform="translate(-0.1 0)" fill="#f1f2f2"/>
    <path id="Path_6322" data-name="Path 6322" d="M13.134,16.1,10.7,22.371v.187a9.266,9.266,0,0,0,2.527.374,9.453,9.453,0,0,0,2.34-.281v-.281Z" transform="translate(-0.779 -1.031)" fill="#f1f2f2"/>
    <path id="Path_6323" data-name="Path 6323" d="M3.3,13.089a9.36,9.36,0,0,0,4.867,8.237L3.862,10A9.173,9.173,0,0,0,3.3,13.089Z" transform="translate(-0.305 -0.64)" fill="#f1f2f2"/>
  </g>
</svg>
