<svg xmlns="http://www.w3.org/2000/svg" width="56.512" height="50.309" viewBox="0 0 56.512 50.309">
  <g id="Group_1626" data-name="Group 1626" transform="translate(-29.462 -623.801)">
    <g id="Group_1623" data-name="Group 1623" transform="translate(-31.289 512.321)">
      <path id="Path_7907" data-name="Path 7907" d="M132.381,126.976l-3.05-.452-1.355-2.769a.612.612,0,0,0-.546-.342h0a.612.612,0,0,0-.547.339l-1.374,2.761-3.052.434a.61.61,0,0,0-.342,1.041l2.2,2.159-.531,3.037a.611.611,0,0,0,.885.647L127.4,132.4l2.725,1.442a.61.61,0,0,0,.888-.642l-.512-3.039,2.215-2.146a.611.611,0,0,0-.335-1.044Zm-2.96,2.535a.611.611,0,0,0-.178.541l.36,2.135-1.914-1.013a.611.611,0,0,0-.568,0l-1.921,1,.373-2.134a.612.612,0,0,0-.174-.541l-1.547-1.518,2.145-.306a.612.612,0,0,0,.462-.333l.965-1.94.952,1.946a.61.61,0,0,0,.459.336l2.143.317Z" transform="translate(-38.409 -7.492)" fill="#fff"/>
      <path id="Path_7908" data-name="Path 7908" d="M94.742,126.851a28.935,28.935,0,0,1,2.515,2.278,8.175,8.175,0,0,0,.712.961,1.247,1.247,0,0,1-.092,1.539,1.754,1.754,0,0,1-1.641.638,1.644,1.644,0,0,1-1.335-.961.611.611,0,0,0-1.127.472,2.85,2.85,0,0,0,2.3,1.7,3.252,3.252,0,0,0,.427.029,2.936,2.936,0,0,0,2.338-1.126,2.629,2.629,0,0,0,.473-.987A18.811,18.811,0,0,0,102,133.243a5.258,5.258,0,0,1,1.86,1.669,3.111,3.111,0,0,1,.441,1.016c.792,3.747-.674,6.194-4.48,7.481a.96.96,0,0,0,.308,1.872h12.536a.961.961,0,0,0,.31-1.872c-3.808-1.287-5.274-3.734-4.483-7.48a3.142,3.142,0,0,1,.442-1.018,5.264,5.264,0,0,1,1.859-1.668,18.8,18.8,0,0,0,2.685-1.849,2.636,2.636,0,0,0,.473.989,2.936,2.936,0,0,0,2.337,1.125,3.261,3.261,0,0,0,.427-.029,2.85,2.85,0,0,0,2.3-1.7.611.611,0,1,0-1.127-.472,1.644,1.644,0,0,1-1.335.961,1.755,1.755,0,0,1-1.639-.637,1.246,1.246,0,0,1-.093-1.54,8.177,8.177,0,0,0,.712-.961,28.932,28.932,0,0,1,2.515-2.278,44.888,44.888,0,0,0,3.792-3.47c2.34-2.477,3.137-5.942,1.981-8.622a5.464,5.464,0,0,0-5.3-3.28H94.267a5.465,5.465,0,0,0-5.3,3.28c-1.155,2.679-.359,6.144,1.981,8.622A44.943,44.943,0,0,0,94.742,126.851Zm15.438,5.332a6.457,6.457,0,0,0-2.279,2.069,4.331,4.331,0,0,0-.607,1.421c-.586,2.774-.3,6.365,4.012,8.384h-9.825c4.313-2.018,4.6-5.61,4.012-8.384a4.3,4.3,0,0,0-.606-1.421,6.447,6.447,0,0,0-2.28-2.07,14.714,14.714,0,0,1-3.629-2.784,6.036,6.036,0,0,0-.755-1.019c-1.376-2.252-.631-4.332.161-6.533a15.012,15.012,0,0,0,.847-2.977,9.536,9.536,0,0,0-1.153-6.169h16.632a9.537,9.537,0,0,0-1.153,6.17,15.043,15.043,0,0,0,.847,2.976c.792,2.2,1.536,4.281.161,6.533a6.036,6.036,0,0,0-.755,1.019A14.72,14.72,0,0,1,110.18,132.184ZM122.7,115.243c.965,2.239.263,5.173-1.747,7.3a44.073,44.073,0,0,1-3.692,3.375c-.282.238-.524.45-.784.673a10.881,10.881,0,0,0-.919-5.156,13.888,13.888,0,0,1-.787-2.725,8.17,8.17,0,0,1,1.33-5.913v0c.028-.038.045-.06.07-.092h2.352A4.238,4.238,0,0,1,122.7,115.243Zm-32.6,0a4.239,4.239,0,0,1,4.176-2.541h2.352c.024.032.042.054.07.092v0a8.167,8.167,0,0,1,1.33,5.912,13.879,13.879,0,0,1-.787,2.726,10.881,10.881,0,0,0-.919,5.156c-.26-.223-.5-.435-.784-.673a44.076,44.076,0,0,1-3.692-3.375C89.828,120.415,89.126,117.481,90.091,115.243Z" transform="translate(-17.387 0)" fill="#fff"/>
      <path id="Path_7909" data-name="Path 7909" d="M113.437,173.784a4.188,4.188,0,0,0,3.722-2.485,1.222,1.222,0,0,0-.8-1.673,6.208,6.208,0,0,0-1.6-.211,6.736,6.736,0,0,0-3.275.89,6.017,6.017,0,0,0-2.863-3.965,1.223,1.223,0,0,0-1.723.556,4.193,4.193,0,0,0,.016,3.346,4.531,4.531,0,0,0,3.2,2.3,1.176,1.176,0,0,0,.186.023c.01.015.027.023.038.037a21.323,21.323,0,0,1-.563,2.983,5.822,5.822,0,0,0-2.477-2.811,1.222,1.222,0,0,0-1.723.556,4.191,4.191,0,0,0,.016,3.346,4.448,4.448,0,0,0,3.012,2.233,22.481,22.481,0,0,1-2.07,3.678,6.121,6.121,0,0,0-2.112-4.915,1.222,1.222,0,0,0-1.795.238,4.191,4.191,0,0,0-.586,3.295,4.532,4.532,0,0,0,2.738,2.835,1.22,1.22,0,0,0,.507.11c.022,0,.041-.015.063-.016a20.279,20.279,0,0,1-3.372,3.263,6.063,6.063,0,0,0-.772-5.063,1.222,1.222,0,0,0-.839-.525,1.175,1.175,0,0,0-.173-.013,1.223,1.223,0,0,0-.78.281,4.191,4.191,0,0,0-1.455,3.014,4.53,4.53,0,0,0,1.869,3.469,1.187,1.187,0,0,0,.249.144,19.87,19.87,0,0,1-3.841,1.826,6.213,6.213,0,0,0-.741-5.768,1.22,1.22,0,0,0-.858-.494,1.238,1.238,0,0,0-.128-.007,1.222,1.222,0,0,0-.814.311,4.192,4.192,0,0,0-1.342,3.065,4.531,4.531,0,0,0,2,3.4c.019.015.044.02.064.035a18.906,18.906,0,0,1-5.372.532c-.011,0-.02,0-.031,0s-.02,0-.032,0a18.843,18.843,0,0,1-5.38-.528c.023-.015.05-.022.072-.039a4.531,4.531,0,0,0,2-3.4,4.192,4.192,0,0,0-1.342-3.065,1.222,1.222,0,0,0-.814-.311,1.238,1.238,0,0,0-.128.007,1.22,1.22,0,0,0-.858.494,6.223,6.223,0,0,0-.738,5.776,19.778,19.778,0,0,1-3.848-1.832,1.207,1.207,0,0,0,.253-.146,4.531,4.531,0,0,0,1.869-3.469,4.192,4.192,0,0,0-1.455-3.014,1.222,1.222,0,0,0-.78-.281,1.175,1.175,0,0,0-.173.013,1.222,1.222,0,0,0-.839.525,6.063,6.063,0,0,0-.771,5.065,20.355,20.355,0,0,1-3.372-3.265c.022,0,.041.016.063.016a1.22,1.22,0,0,0,.507-.11,4.532,4.532,0,0,0,2.738-2.835,4.19,4.19,0,0,0-.586-3.295,1.222,1.222,0,0,0-1.8-.238,6.121,6.121,0,0,0-2.112,4.914,22.506,22.506,0,0,1-2.07-3.677,4.448,4.448,0,0,0,3.012-2.233,4.191,4.191,0,0,0,.016-3.346,1.222,1.222,0,0,0-1.723-.556,5.82,5.82,0,0,0-2.477,2.811,21.38,21.38,0,0,1-.563-2.983c.011-.014.028-.022.038-.037a1.175,1.175,0,0,0,.186-.023,4.531,4.531,0,0,0,3.2-2.3,4.191,4.191,0,0,0,.016-3.346,1.222,1.222,0,0,0-1.723-.556,6.016,6.016,0,0,0-2.863,3.965,6.737,6.737,0,0,0-3.275-.89,6.21,6.21,0,0,0-1.6.211,1.222,1.222,0,0,0-.8,1.673,4.188,4.188,0,0,0,3.722,2.485,4.92,4.92,0,0,0,1.949-.441,22.933,22.933,0,0,0,1.049,4.266,6.792,6.792,0,0,0-2.344-.4,6.255,6.255,0,0,0-3.521,1.043,1.222,1.222,0,0,0-.227,1.841,4.437,4.437,0,0,0,3.085,1.374,4.715,4.715,0,0,0,3.579-1.891,1.2,1.2,0,0,0,.124-.242,23.683,23.683,0,0,0,1.9,3.461,7.02,7.02,0,0,0-1.444-.155,6.222,6.222,0,0,0-3.1.808,1.222,1.222,0,0,0-.358,1.821,4.38,4.38,0,0,0,3.249,1.6,4.843,4.843,0,0,0,3.436-1.643c.006-.006.007-.016.014-.023.457.531.936,1.045,1.441,1.534.46.445.938.86,1.424,1.259a6.348,6.348,0,0,0-3.962,1.626,1.222,1.222,0,0,0,.069,1.863,4.672,4.672,0,0,0,2.694.923,4.423,4.423,0,0,0,3.822-2.455c.018-.03.016-.067.032-.1a21.222,21.222,0,0,0,2.84,1.454,6.311,6.311,0,0,0-2.818,3.026,1.222,1.222,0,0,0,.807,1.671,4.413,4.413,0,0,0,1.062.122c2.193,0,3.73-1.42,4.186-3.8a20.007,20.007,0,0,0,4.462.522c.326,0,.654-.009.981-.025.328.016.655.025.981.025a20.015,20.015,0,0,0,4.465-.523c.456,2.383,1.99,3.8,4.183,3.8a4.412,4.412,0,0,0,1.062-.122,1.223,1.223,0,0,0,.807-1.671A6.348,6.348,0,0,0,97.7,191.3a21.25,21.25,0,0,0,2.831-1.451c.016.031.013.068.032.1a4.423,4.423,0,0,0,3.822,2.455,4.675,4.675,0,0,0,2.694-.923,1.222,1.222,0,0,0,.069-1.863,6.347,6.347,0,0,0-3.962-1.626c.486-.4.964-.814,1.424-1.259.505-.489.984-1,1.441-1.534.006.007.007.017.014.023a4.843,4.843,0,0,0,3.436,1.643,4.378,4.378,0,0,0,3.249-1.6,1.222,1.222,0,0,0-.357-1.821,6.222,6.222,0,0,0-3.1-.808,7.02,7.02,0,0,0-1.444.155,23.688,23.688,0,0,0,1.9-3.461,1.189,1.189,0,0,0,.124.242,4.715,4.715,0,0,0,3.579,1.891,4.436,4.436,0,0,0,3.085-1.374,1.222,1.222,0,0,0-.227-1.841,6.255,6.255,0,0,0-3.521-1.043,6.793,6.793,0,0,0-2.345.4,22.939,22.939,0,0,0,1.049-4.267A4.918,4.918,0,0,0,113.437,173.784Zm-8.155,9.14c-3.529-1.609-1.654-4.323-1.654-4.323A5,5,0,0,1,105.282,182.924Zm-5.093.091a5,5,0,0,1,.424,4.609C97.651,185.121,100.19,183.015,100.19,183.015Zm-22.366,0s2.539,2.105-.424,4.609A5,5,0,0,1,77.823,183.015ZM74.385,178.6s1.875,2.714-1.654,4.323A5,5,0,0,1,74.385,178.6Zm-5.869,7.045a3.194,3.194,0,0,1-2.29-1.134,5.026,5.026,0,0,1,2.5-.65,5.748,5.748,0,0,1,2.357.5A3.641,3.641,0,0,1,68.516,185.646Zm2.811-11.816s1.347,2.987-2.371,3.945c-.009-.023-.019-.045-.027-.068A4.948,4.948,0,0,1,71.327,173.83ZM70.007,167.4s1.306,2.912-2.247,3.908a1.209,1.209,0,0,0-.134-.189A4.922,4.922,0,0,1,70.007,167.4Zm-5.43,5.164a3.036,3.036,0,0,1-2.6-1.756,4.96,4.96,0,0,1,1.287-.17,5.636,5.636,0,0,1,3.094.982c.009.143.03.286.042.429A4,4,0,0,1,64.576,172.561Zm-.009,7.684a3.244,3.244,0,0,1-2.182-.975,5.081,5.081,0,0,1,2.845-.84,5.671,5.671,0,0,1,1.99.349A3.522,3.522,0,0,1,64.567,180.245Zm9.065,10.939a3.464,3.464,0,0,1-1.939-.661,5.59,5.59,0,0,1,4.719-1.209A3.261,3.261,0,0,1,73.633,191.184Zm9.875-5.7s2.459,2.2-.594,4.59A5,5,0,0,1,83.508,185.481Zm-4.131,9.424a3.236,3.236,0,0,1-.749-.081,5.416,5.416,0,0,1,3.358-2.916c.13.041.26.076.39.114C81.936,194.5,80.342,194.905,79.377,194.905Zm25-3.721a3.261,3.261,0,0,1-2.78-1.871,5.591,5.591,0,0,1,4.719,1.209A3.466,3.466,0,0,1,104.38,191.184Zm-9.875-5.7a5,5,0,0,1,.594,4.59C92.046,187.68,94.505,185.481,94.505,185.481Zm4.88,9.343a3.232,3.232,0,0,1-.749.081c-.965,0-2.559-.408-3-2.883.13-.038.261-.073.39-.114A5.416,5.416,0,0,1,99.385,194.824Zm12.4-10.312a3.194,3.194,0,0,1-2.29,1.134,3.641,3.641,0,0,1-2.568-1.281,5.748,5.748,0,0,1,2.357-.5A5.025,5.025,0,0,1,111.787,184.512Zm4.254-13.706a3.036,3.036,0,0,1-2.6,1.756,4,4,0,0,1-1.821-.515c.012-.143.033-.285.043-.428a5.635,5.635,0,0,1,3.1-.983A4.944,4.944,0,0,1,116.041,170.806Zm-8.034-3.408a4.92,4.92,0,0,1,2.381,3.718,1.181,1.181,0,0,0-.134.189C106.7,170.31,108.007,167.4,108.007,167.4Zm-1.321,6.432a4.95,4.95,0,0,1,2.4,3.877c-.009.023-.019.045-.028.068C105.34,176.816,106.685,173.83,106.685,173.83Zm6.1,4.6a5.081,5.081,0,0,1,2.845.84,3.244,3.244,0,0,1-2.182.975,3.521,3.521,0,0,1-2.653-1.466A5.668,5.668,0,0,1,112.782,178.43Z" transform="translate(0 -34.339)" fill="#fff"/>
    </g>
  </g>
</svg>