<svg xmlns="http://www.w3.org/2000/svg" viewBox="0 0 145.16 56.61"><defs><style>.a{opacity:0.43;}.b{fill:#353535;}.c{fill:#424242;}.d{fill:#191919;}.e{fill:none;opacity:0.47;}</style></defs><title>Untitled-2</title><g class="a"><path class="b" d="M-.12,35.12l4.45-.4c.3,0,.43,0,.41.35s0,.79,0,1.2V46.51c0,.43-.1.61-.56.58a10.23,10.23,0,0,0-1.75,0c-.43,0-.53-.14-.53-.55V37.66c0-1.64,0-1.64-1.64-1.8H-.18A3.12,3.12,0,0,0-.12,35.12Z"/><path class="b" d="M9.17,19.36v-9.3c0-.39.12-.51.51-.49h4.25c.41,0,.5.12.48.51v6.8c0,.44.12.57.56.56h9.34c.44,0,.59-.1.57-.56v-6.8c0-.39.1-.52.51-.51h4.3c.35,0,.46,0,.46.44V28.76c0,.35-.1.46-.46.45H25.33c-.4,0-.51-.12-.51-.51V21.11c0-.46-.12-.56-.56-.56l-9.34,0c-.44,0-.56.12-.56.56v7.58c0,.4-.1.51-.49.51H9.63c-.41,0-.51-.11-.51-.51C9.17,25.59,9.17,22.48,9.17,19.36Z"/><path class="b" d="M106.6,19.42V10.13c0-.46.11-.58.56-.56h4.13c.38,0,.48.12.48.48v6.79c0,.48.13.59.61.59h9.4c.41,0,.54-.09.53-.52V10.1c0-.41.11-.55.54-.55h4.25c.32,0,.41,0,.41.41V28.73c0,.32,0,.43-.39.43H122.8c-.43,0-.47-.16-.47-.54V21.08c0-.46-.12-.61-.6-.59h-9.45c-.46,0-.63.1-.61.59v7.54c0,.43-.11.54-.54.54H107c-.41,0-.49-.11-.49-.52C106.6,25.61,106.6,22.51,106.6,19.42Z"/><path class="b" d="M101,16.24H98.7c-.21,0-.38,0-.44-.28a4.2,4.2,0,0,0-4.51-3.84h-.09a7,7,0,0,0-3.48.64A4.26,4.26,0,0,0,88,15.1a11.48,11.48,0,0,0-.2,8.3,4.75,4.75,0,0,0,4,3.08,7.76,7.76,0,0,0,3.74-.18,3.79,3.79,0,0,0,2.83-3.61c0-.46.16-.59.62-.59,1.44,0,2.87.06,4.3.06.36,0,.48.12.45.48a6.48,6.48,0,0,1-4.39,5.91,16.69,16.69,0,0,1-12.43,0,8.21,8.21,0,0,1-5.15-6.85,11.69,11.69,0,0,1,1.35-8,8.76,8.76,0,0,1,5.28-3.9,16.24,16.24,0,0,1,10.87.43,6.56,6.56,0,0,1,4.38,5.68c0,.33,0,.35-.32.35Z"/><path class="b" d="M51.81,9.59h10c.51,0,.62.14.61.64a16.15,16.15,0,0,0,0,2.2c0,.39-.1.51-.5.49H55c-.48,0-.6.1-.6.58V28.62c0,.47-.09.65-.6.62H49.71c-.45,0-.56-.11-.56-.56V13.56c0-.49-.1-.66-.64-.64h-6.8c-.39,0-.54,0-.5-.48V10.11c0-.42.11-.52.52-.52Z"/><path class="b" d="M131.49,19.39V10.11c0-.42.1-.54.52-.54h4.25c.38,0,.46.12.46.48V28.73c0,.38-.1.49-.47.47H132c-.43,0-.53-.11-.53-.52C131.5,25.58,131.49,22.49,131.49,19.39Z"/><path class="b" d="M34.21,19.36V10.13c0-.46.13-.58.57-.56h4.08c.36,0,.54,0,.54.48v18.7c0,.37-.13.47-.49.46H34.7c-.41,0-.49-.14-.49-.51C34.23,25.59,34.21,22.48,34.21,19.36Z"/><path class="b" d="M114,44.06V35.43c0-.46.13-.58.55-.56a11.36,11.36,0,0,0,1.65,0c.27,0,.34.1.34.36v11.5c0,.31-.1.39-.39.37H114a.85.85,0,0,1-.83-.44c-1.87-2.86-3.77-5.7-5.64-8.55a1.62,1.62,0,0,0-.46-.48v8.9c0,.44,0,.62-.56.59a7.12,7.12,0,0,0-1.46,0c-.48,0-.54-.17-.54-.58V37.37c0-1.42,0-1.42-1.38-1.65-.3,0-.61,0-.56-.5s0-.3.3-.28h4.92c.33,0,.4.24.53.42q2.7,4.1,5.38,8.21Z"/><path class="b" d="M80.33,40.22a3.7,3.7,0,0,1,3.28-1.84,2.23,2.23,0,0,1,2.33,2.13v6.2c0,.28-.1.36-.36.36H84.1c-.49,0-.52-.1-.5-.51V42c0-.31,0-.61,0-.92a1.24,1.24,0,0,0-1.22-1.25,1.19,1.19,0,0,0-.75.25,2.87,2.87,0,0,0-1.3,2.58v3.9c0,.4-.08.54-.49.53a6.28,6.28,0,0,0-1.37,0c-.44,0-.52-.15-.52-.56V36.77c0-.93-.23-1.15-1.18-1.21-.23,0-.4,0-.4-.33s.08-.36.35-.39c1.06-.13,2.13-.27,3.28-.45.36,0,.41,0,.39.36v4.83A4.62,4.62,0,0,1,80.33,40.22Z"/><path class="b" d="M11.11,38.35V40l.92-.75a3.53,3.53,0,0,1,3-.81,2.13,2.13,0,0,1,1.84,2c.13,1.31,0,2.64,0,4v2.27c0,.31-.1.46-.41.41h0c-.61,0-1.41.26-1.77-.12s0-1.11-.1-1.64c0-1.39,0-2.79-.08-4.18-.15-1.13-1-1.55-1.94-.92a3,3,0,0,0-1.45,2.61v3.86c0,.36-.08.51-.47.47s-1.4.25-1.79-.14-.08-1.1-.08-1.65V41c0-1-.18-1.16-1.17-1.28-.21,0-.38,0-.39-.34s.11-.36.36-.4C8.71,38.71,9.9,38.58,11.11,38.35Z"/><path class="b" d="M72.66,42.55V45c0,.79.26,1.12,1.12,1.16h.57c.71,0,.69,0,.68.65,0,.25-.09.33-.32.37a8.52,8.52,0,0,1-2.76,0,1.75,1.75,0,0,1-1.64-1.65,37.31,37.31,0,0,1,0-4.23V41c0-.43.15-.92,0-1.23s-.75-.12-1.16-.12-.35-.31-.35-.56,0-.54.36-.54.94.2,1.13-.1,0-.79,0-1.21c0-1.35,0-1.35,1.37-1.35,1,0,1,0,1,1v1.24c0,.3.08.4.37.38h1.87c.63,0,.37.32.37.56s0,.54-.38.51-1.13,0-1.64,0-.58.15-.55.57A23.32,23.32,0,0,0,72.66,42.55Z"/><path class="b" d="M19.7,45.15a4.92,4.92,0,0,0,3.12,1,2.22,2.22,0,0,0,.72-.16A.84.84,0,0,0,24,44.88a.72.72,0,0,0-.21-.31,3.81,3.81,0,0,0-1.26-.84,12.88,12.88,0,0,1-1.92-1.07,2.22,2.22,0,0,1,.52-3.94,7.3,7.3,0,0,1,4.24-.15c.18,0,.21.17.21.33v1.44A10.22,10.22,0,0,0,24,39.58a3.24,3.24,0,0,0-1.45-.13.84.84,0,0,0-.77.58.85.85,0,0,0,.32.85,6.07,6.07,0,0,0,1.49.89,7.18,7.18,0,0,1,1.53.85,2.39,2.39,0,0,1,1,2.43,2.24,2.24,0,0,1-1.64,1.82,8,8,0,0,1-4.68.1c-.21,0-.25-.18-.23-.38Z"/><path class="b" d="M142.35,38.58a6.16,6.16,0,0,0,2,0c.37,0,.52.1.52.51s-.2.41-.52.43a7,7,0,0,0-2,.1,20.27,20.27,0,0,0,0,2.7v2.84c0,.66.3.89.95.94h.86c.28,0,.57-.26.57.25s.15.77-.51.82a11.22,11.22,0,0,1-2.59,0,1.77,1.77,0,0,1-1.64-1.9h0V40.22c0-.47-.12-.67-.59-.59h-.33c-.64,0-.81-.23-.66-.87,0-.26.25-.2.39-.2,1.19,0,1.19,0,1.19-1.23V35.91h2c.31,0,.36.13.36.41A14.21,14.21,0,0,0,142.35,38.58Z"/><path class="b" d="M133.08,41.47l4.32,5.6h-2.63c-.21,0-.28-.2-.38-.32-.62-.8-1.25-1.64-1.84-2.44-.21-.28-.37-.28-.52,0a1.81,1.81,0,0,1-2,.92h-1.21c.59-.66,1.08-1.25,1.64-1.81.82-.93.84-.93,0-1.92-.26-.36-.58-.7-.82-1.07a2.52,2.52,0,0,0-2-1.2c-.24,0-.41,0-.39-.39s.26-.3.48-.3h2.66a.8.8,0,0,1,.72.35c.54.75,1.13,1.49,1.64,2.25C133,41.17,133,41.36,133.08,41.47Z"/><path class="b" d="M49.14,38.35V40l.32-.47a2.81,2.81,0,0,1,3.06-1.09.36.36,0,0,1,.26.38v1.64a7.53,7.53,0,0,1-1-.16A2.22,2.22,0,0,0,49.18,42a2.28,2.28,0,0,0,0,.64v4c0,.37-.12.49-.48.46s-1.41.26-1.79-.14-.1-1.13-.1-1.74v-4.3c0-.93-.2-1.15-1.15-1.24-.23,0-.43,0-.43-.36s.21-.35.43-.38C46.82,38.7,48,38.58,49.14,38.35Z"/><path class="b" d="M43,38.35v8.44c0,.28-.13.33-.38.33H41.17c-.47,0-.51-.08-.51-.48v-5.5c0-1.15-.13-1.29-1.25-1.44-.21,0-.32,0-.32-.33s.08-.36.32-.41Z"/><path class="c" d="M140,35.91h-2.36c-.1-.2,0-.27.13-.35.8-1,1.64-1.9,2.46-2.87a.72.72,0,0,1,.62-.28h2.09C141.9,33.66,140.93,34.76,140,35.91Z"/><path class="d" d="M133.08,41.47l-.21-.34a23.32,23.32,0,0,0,2-2.21,1,1,0,0,1,.82-.37h2c-.84,1-1.65,1.8-2.35,2.66-.15.18-.4.08-.59.09C134.16,41.4,133.6,41.16,133.08,41.47Z"/><path class="d" d="M41.86,37.3a1.28,1.28,0,1,1-.41-2.52.94.94,0,0,1,.41,0A1.36,1.36,0,0,1,43.29,36,1.34,1.34,0,0,1,41.9,37.3Z"/><path class="b" d="M37.35,41.36a3.42,3.42,0,0,0-5.75-2.07.23.23,0,0,1-.28.08,3.84,3.84,0,0,1,0-.48c0-.46-.12-.56-.56-.47-1,.18-2,.31-3,.47-.23,0-.43,0-.43.4s.23.32.44.34c.91.1,1.1.32,1.16,1.22v9.8h2.26c.15-1.4,0-2.81.09-4.25l.18.13a3.56,3.56,0,0,0,5-.53,3.39,3.39,0,0,0,.65-1.23A7,7,0,0,0,37.35,41.36ZM34.57,45a1.39,1.39,0,0,1-1.44,1,1.64,1.64,0,0,1-1.53-1,5.3,5.3,0,0,1-.28-2,5.63,5.63,0,0,1,.38-2.26,1.65,1.65,0,0,1,1.54-1,1.5,1.5,0,0,1,1.43,1.19,6.53,6.53,0,0,1-.1,4.1Z"/><path class="b" d="M82.36,28.73C79.44,22.46,76.5,16.24,73.6,10a.66.66,0,0,0-.73-.44H67.6a.75.75,0,0,0-.84.54L61,22.61l-3.08,6.56h5.47c.32,0,.37-.21.46-.41.45-1.16.91-2.29,1.36-3.48a.57.57,0,0,1,.62-.39h8.85a.56.56,0,0,1,.63.39c.44,1.16.92,2.29,1.34,3.43a.58.58,0,0,0,.64.46h4.81C82.58,29.22,82.54,29.06,82.36,28.73Zm-9-6.92H67.08c-.27,0-.55,0-.35-.41l3.4-8.21.11-.18c.48,1.2.94,2.31,1.4,3.44.67,1.65,1.33,3.29,2,4.93C73.76,21.74,73.76,21.82,73.32,21.81Z"/><path class="b" d="M121.83,42.08h4.76c.21,0,.46.08.46-.29a3.07,3.07,0,0,0-2.15-3.21,6.64,6.64,0,0,0-3.07,0,3.39,3.39,0,0,0-3,3.19,7.49,7.49,0,0,0,0,1.64,4.13,4.13,0,0,0,3.12,3.76,7.64,7.64,0,0,0,4,0c1.09-.25,1,0,.92-1.33-.49.1-1,.23-1.46.29a3.42,3.42,0,0,1-4-2.8h0a3.88,3.88,0,0,1,0-.48C121.27,42.19,121.37,42.08,121.83,42.08Zm-.49-1.35A1.64,1.64,0,0,1,123,39.29a1.47,1.47,0,0,1,1.64,1.26h0v.06c0,.28,0,.43-.33.41h-2.7c-.23,0-.23,0-.23-.29Z"/><path class="b" d="M57.08,42h4.58c.18,0,.41,0,.43-.28a3.11,3.11,0,0,0-2.45-3.28,7.39,7.39,0,0,0-2.15-.11,3.51,3.51,0,0,0-3.59,3.28A4.46,4.46,0,0,0,57.16,47l.18,0a7.77,7.77,0,0,0,3.65,0c1-.25,1-.25.92-1.35a11.45,11.45,0,0,1-1.65.32,3.38,3.38,0,0,1-3.76-2.95,1.87,1.87,0,0,1,0-.34C56.36,42,56.36,42,57.08,42Zm-.66-1.31a1.64,1.64,0,0,1,1.65-1.41,1.44,1.44,0,0,1,1.63,1.23h0s0,.1,0,.15c0,.28,0,.37-.32.36H56.7C56.46,41,56.39,41,56.42,40.7Z"/><path class="b" d="M94.53,38.58a6.51,6.51,0,0,0-2.91-.18A3.28,3.28,0,0,0,88.54,41a6,6,0,0,0-.15,2.3,4.08,4.08,0,0,0,2.79,3.65,7.63,7.63,0,0,0,4.68,0,.73.73,0,0,0,.56-.86h0a.66.66,0,0,0-.08-.21c-.15-.36-.45,0-.66,0a3.53,3.53,0,0,1-4.79-3.28c0-.41,0-.63.51-.6h4.81c.19,0,.34,0,.36-.27A3.07,3.07,0,0,0,94.53,38.58ZM93.86,41H91.21c-.19,0-.31,0-.29-.26a1.63,1.63,0,0,1,1.64-1.48,1.44,1.44,0,0,1,1.63,1.23s0,.07,0,.11c0,.33,0,.48-.35.45Z"/></g><rect class="e" width="145.16" height="56.61"/></svg>