<svg xmlns="http://www.w3.org/2000/svg" viewBox="0 0 208.91 56.61"><defs><style>.a{opacity:0.35;}.b{fill:none;opacity:0.47;}</style></defs><title>Untitled-2</title><g class="a"><path d="M4.17,34c0,.38.15.59.61.59H9c.8,0,.88.15.88.8v1.82c0,.63,0,.82-.88.82H2.75C.65,38.07,0,37.29,0,35.34V22.51c0-.71.1-.77.88-.77H3.35c.76,0,.86,0,.86.77Z"/><path d="M15.61,31.34a22.36,22.36,0,0,0,.15,2.83c0,.35.23.46.55.46h5.38c.77,0,.86.1.86.77v1.87c0,.61,0,.8-.86.8H15.61c-2.47,0-3.62-.55-3.81-2.66-.15-1.53-.19-3.21-.19-4.87V29a34.29,34.29,0,0,1,.17-4c.21-2.6,1.24-3.2,3.9-3.2h6c.8,0,.84.12.84.77v1.87c0,.61,0,.75-.84.75H16.37c-.46,0-.61.17-.63.5s0,1.64,0,2.52h5.2c.63,0,.82.12.82.73v1.78c0,.53-.19.68-.82.68Z"/><path d="M31.69,31.72h-.17l-2.37,5.57c-.25.61-.54.77-1.34.77H25.3c-.76,0-.76-.48-.5-.94l3.4-6.73a1.45,1.45,0,0,0,.23-.65,1.27,1.27,0,0,0-.17-.54L24.8,22.41c-.21-.38,0-.67.65-.67H28c.69,0,1,.14,1.15.54l2.37,5.6h.16l2.5-5.6c.17-.4.42-.54,1.15-.54H37.9c.73,0,.86.27.65.67L35.09,29.2a1.18,1.18,0,0,0-.17.55,1.55,1.55,0,0,0,.21.65l3.41,6.72c.26.47.26,1-.5,1H35.61c-.8,0-1.07-.13-1.35-.78Z"/><path d="M52.59,21.74c.83,0,1.09,0,1.34.8C55.37,26.61,57,31.93,58.41,37a3.4,3.4,0,0,1,.25.88c0,.21-.12.31-.5.31H57c-.59,0-.74,0-.86-.54-.28-1.13-.65-2.58-1-3.88H49.19c-.38,1.3-.75,2.75-1,3.88-.12.48-.27.54-.86.54H46.09c-.38,0-.5,0-.5-.31a2.23,2.23,0,0,1,.19-.77c1.38-5.06,3-10.38,4.48-14.45.25-.71.5-.8,1.34-.8ZM52,24.17c-.78,2.31-1.55,4.95-2.27,7.38h4.76c-.71-2.43-1.49-5.07-2.26-7.38Z"/><path d="M72,32.76A5.55,5.55,0,0,1,70.57,37a6.29,6.29,0,0,1-4.51,1.36A6.26,6.26,0,0,1,61.56,37a5.5,5.5,0,0,1-1.43-4.2V22.28c0-.4.15-.52.53-.52h1.4c.4,0,.54.13.54.52V32.55a4,4,0,0,0,.74,2.81,3.46,3.46,0,0,0,2.72.93,3.49,3.49,0,0,0,2.75-.93,4.18,4.18,0,0,0,.73-2.81V22.28c0-.4.15-.52.55-.52h1.36c.42,0,.57.13.57.52Z"/><path d="M80.46,23.75V37.54c0,.42-.12.53-.52.53h-1.4c-.42,0-.55-.1-.55-.53V23.75h-3.9c-.44,0-.5-.15-.5-.5v-1c0-.4.17-.46.5-.46H84.38c.34,0,.5,0,.5.46v1c0,.36,0,.5-.5.5Z"/><path d="M98.11,30.48c0,3.37-.36,4.9-1.55,6.29a6.45,6.45,0,0,1-4.74,1.55,6.28,6.28,0,0,1-4.71-1.55c-1.2-1.34-1.55-2.87-1.55-6.29V29.33c0-3.36.35-4.93,1.55-6.29a6.48,6.48,0,0,1,4.71-1.55A6.65,6.65,0,0,1,96.56,23c1.2,1.34,1.55,2.91,1.55,6.29Zm-2.54-.88c0-2.52,0-4.07-.92-5a4.25,4.25,0,0,0-5.64,0c-.83.94-.92,2.49-.92,5v.59c0,2.51,0,4.06.92,5a3.31,3.31,0,0,0,2.81,1.06,3.34,3.34,0,0,0,2.83-1.06c.84-1,.92-2.5.92-5Z"/><path d="M102.68,35.38c0,.5.17.68.73.68h4.4c.44,0,.55.1.55.46v1.09c0,.33-.1.46-.55.46h-5.13c-1.78,0-2.43-.78-2.43-2.29V22.28c0-.4.14-.52.54-.52h1.36c.42,0,.57.12.57.52Z"/><path d="M113.37,38.07c-2.1,0-3-.55-3.25-2.92-.13-1.4-.19-3.33-.19-4.82v-1c0-1.34,0-3.48.15-4.87.21-2.1,1.13-2.74,3.33-2.74h5.81c.42,0,.5.12.5.5v1c0,.36,0,.5-.5.5H113.6c-.69,0-1.07.25-1.13.94s-.13,2.45-.13,3.94h5.85c.44,0,.53.15.53.48V30.1c0,.32,0,.48-.53.48h-5.85a32.57,32.57,0,0,0,.19,4.53c0,.67.38.88,1,.88h5.6c.46,0,.54.13.54.48v1.05c0,.36,0,.48-.54.48Z"/><path d="M128.82,21.74c.83,0,1.09,0,1.34.8,1.42,4.07,3.1,9.39,4.48,14.44a3.39,3.39,0,0,1,.17.78c0,.21-.13.31-.5.31h-1.2c-.58,0-.73,0-.86-.55-.29-1.13-.67-2.57-1-3.87h-5.85c-.38,1.3-.76,2.74-1,3.87-.13.49-.29.55-.86.55h-1.21c-.38,0-.5-.1-.5-.31a3.38,3.38,0,0,1,.16-.78c1.39-5,3.06-10.48,4.51-14.44.25-.71.5-.8,1.32-.8Zm-.61,2.43c-.78,2.31-1.57,4.95-2.27,7.38h4.7c-.71-2.43-1.49-5.07-2.29-7.38Z"/><path d="M137.09,37.54a.38.38,0,0,1-.37-.37,0,0,0,0,1,0-.05,1.51,1.51,0,0,1,0-.52l.21-.8a.3.3,0,0,1,.31-.29,1.29,1.29,0,0,1,.42.1,12,12,0,0,0,3.9.67c2.32,0,3-.69,3-2.62v-.25c0-1.7-.42-2.1-2.43-2.58l-1.74-.4c-2.65-.63-3.74-1.7-3.74-4.19v-.4c0-2.9,1.7-4.32,5.18-4.32a13.84,13.84,0,0,1,3.84.52.37.37,0,0,1,.41.35v0a3.42,3.42,0,0,1-.17.77l-.15.57a.36.36,0,0,1-.35.36h0a.5.5,0,0,1-.34,0,10.16,10.16,0,0,0-3.19-.53c-2.1,0-2.87.71-2.87,2.37v.25c0,1.59.74,1.93,2.37,2.31l1.72.4c2.6.61,3.73,1.46,3.73,4.38v.31c0,3.5-1.63,4.76-5.47,4.76A12.93,12.93,0,0,1,137.09,37.54Z"/><path d="M152.58,38.21c-2.1,0-3-.52-3.25-2.89-.12-1.42-.21-3.33-.21-4.82v-1c0-1.62,0-3.24.17-4.86.19-2.1,1.13-2.77,3.31-2.77h5.81c.44,0,.5.13.5.5v1c0,.34,0,.5-.5.5h-5.6c-.71,0-1.09.26-1.13.93,0,1-.13,2.47-.13,4h5.85c.44,0,.5.12.5.48v1c0,.33,0,.48-.5.48h-5.84a40.7,40.7,0,0,0,.16,4.55c0,.65.38.88,1.07.88h5.6c.46,0,.53.12.53.48v1c0,.35,0,.48-.53.48Z"/><path d="M197.73,19a5.87,5.87,0,0,1,1.51-.16,6.87,6.87,0,0,0,1.57,0,3.93,3.93,0,0,1,1.28,0,3,3,0,0,1,1.28.9l.65.77a30.35,30.35,0,0,0,2.83,3.06,3.15,3.15,0,0,1,.63.82.6.6,0,0,0,.14.21l.49.44a2.42,2.42,0,0,1,.71,1.42c0,.57-.48.55-1,.5s-1.42-.23-1.57-.8a1.27,1.27,0,0,1,0-.67.43.43,0,0,0-.21-.58h0a.72.72,0,0,1-.65-.53,9.34,9.34,0,0,0-2.32-2.83,5.92,5.92,0,0,0-1.51-.8h0a1.6,1.6,0,0,0-1.07.25l-.38.21-.52.32c-.13,0-.82.42-1.18.54a3.28,3.28,0,0,1-.63.19h-.12l-.13.17h3.25a1.21,1.21,0,0,1,.71.21,1.93,1.93,0,0,1,.61.8,11.73,11.73,0,0,0,.63,1.4v.29a19.49,19.49,0,0,0,1.76,3.65,3.78,3.78,0,0,1,.56.92,4.11,4.11,0,0,1,.26,1.43c0,.52,0,1.57-.5,1.59a1.54,1.54,0,0,1-1-.38s-.94-.61-.92-1.11a.93.93,0,0,1,.17-.48,3.41,3.41,0,0,0,.46-.78.22.22,0,0,0-.14-.26h0a.54.54,0,0,1-.38-.44,20.29,20.29,0,0,0-1.07-3.1l-.23-.4a6.72,6.72,0,0,0-.56-.73,1.21,1.21,0,0,0-.8-.5,2.48,2.48,0,0,0-1.3.42l-.86.48-1.14.67c-.25.13-.77.42-1,.52s-.92.4-1.13.47h0a1.54,1.54,0,0,1-.76.14l-.52-.12a2,2,0,0,0-1.3.21,8.93,8.93,0,0,1-1.7.63,15.14,15.14,0,0,1-2.1.29h-1.67c-.42,0-1.16-.1-2.1-.21l-1.84-.22h-.5a10.8,10.8,0,0,1-.46,1.11,13,13,0,0,1-.86,1.44,10.71,10.71,0,0,1-1.11,1.22,4.3,4.3,0,0,1-1,.55,1.27,1.27,0,0,0-.8,1.25,3,3,0,0,0,.4,1.32,7.3,7.3,0,0,0,.88,1.26,13.33,13.33,0,0,1,1.11,1.66,9.09,9.09,0,0,0,1.11,1.57,2.21,2.21,0,0,0,.9.73,4.17,4.17,0,0,1,1,.84,1.4,1.4,0,0,1,.31,1c0,.31-.38.27-.5.27h-1.57a.57.57,0,0,1-.5-.21,1.18,1.18,0,0,1-.17-.54,4.2,4.2,0,0,0-.17-.7.64.64,0,0,0-.42-.35,1.19,1.19,0,0,1-.6-.48,1.17,1.17,0,0,1-.15-.63,1.45,1.45,0,0,0-.28-.72c-.18-.31-.56-.86-.56-.86l-.5-.58-.61-.76-.57-.73-.58-.69a5,5,0,0,1-.53-.59,2,2,0,0,1-.31-1.57,3,3,0,0,1,.38-.55,3,3,0,0,0,.4-.54,1.37,1.37,0,0,0,.12-.44v-.42l-.27.21a6.5,6.5,0,0,1-1.05.54,4.29,4.29,0,0,1-1,.28h-.4a2.93,2.93,0,0,0-.56.44,2.34,2.34,0,0,0-.69,1.38c0,.17-.15,1.28-.19,1.86a13,13,0,0,0-.13,1.87,4.18,4.18,0,0,0,.23,1.53,2.12,2.12,0,0,0,.82,1,3.78,3.78,0,0,1,1.09.94,1.25,1.25,0,0,1,.21.86.28.28,0,0,1-.31.21h-1.89a.47.47,0,0,1-.49-.32,1.09,1.09,0,0,1,0-.62,1.3,1.3,0,0,0-.25-.86,6.27,6.27,0,0,0-.61-.53.91.91,0,0,1-.37-.73c0-.27.16-.78.19-1.09a8,8,0,0,1,.14-1.76,6.63,6.63,0,0,0,0-1.78V32a1.78,1.78,0,0,1,0-.65,1.52,1.52,0,0,1,.65-.84c.48-.36.76-.59.95-.76a6.57,6.57,0,0,0,.94-1.23,4.31,4.31,0,0,0,.27-.76,2.51,2.51,0,0,0,0-1.09,8.3,8.3,0,0,1-.15-1.22,7,7,0,0,1,0-1.59,4.53,4.53,0,0,1,.53-1.44,5.53,5.53,0,0,1,.44-.65c.08-.11.12-.19-.17-.19a2.27,2.27,0,0,1-.9,0,1.12,1.12,0,0,0-.94.16,1.61,1.61,0,0,0-.36.42.6.6,0,0,1-.33-.58,1,1,0,0,1,.33-.78s.15-.21-.33,0A1.87,1.87,0,0,0,171,21.82V22s-.21,0-.36-.34-.33-.12-.4,0a1.46,1.46,0,0,0,.4,1.36,5.49,5.49,0,0,0,.82.78,8.84,8.84,0,0,1,1,1,2.41,2.41,0,0,1,.53,1.67,1.94,1.94,0,0,1-.74,1.53,3.79,3.79,0,0,1-1.32.65c-.69.21-1.09.36-1.11.69s.38.49.38.49-.19.46-.9.35a1.2,1.2,0,0,1-1-1.3c0-.5.21-.88,1.24-1.51s.67-1.4.42-1.61l-.9-.71a8.24,8.24,0,0,1-1.4-1.3,4.43,4.43,0,0,1-.9-2.1,5,5,0,0,1,.13-2.37,3.31,3.31,0,0,1,.53-1.16,3.64,3.64,0,0,1,1.64-1.26,3.25,3.25,0,0,1,2.45,0,5.26,5.26,0,0,1,1.8,1.48,9.12,9.12,0,0,0,1.4,1.51,2.65,2.65,0,0,0,.84.46h0s.5.21.77,0h0a7.25,7.25,0,0,1,2.2-.88,9.43,9.43,0,0,1,3,0,15.63,15.63,0,0,1,1.7.26,8.92,8.92,0,0,0,1.79,0,5.86,5.86,0,0,0,2.1-.74,8.94,8.94,0,0,0,3.6-4,6.09,6.09,0,0,0,.56-1.49,3.11,3.11,0,0,0,0-.61h0c0-1.13-1.76.19-1.76.19s-.5.38-.52.42a.56.56,0,0,0-.17.4.72.72,0,0,1-.46.55.59.59,0,0,1-.67,0c-.4-.17-.36-.19-.59-.19s-.71-.21-.82-1.2c0,0-.12-.69.17-.94a3.42,3.42,0,0,0,.82-1.2,5.33,5.33,0,0,1,.86-1.4c.42-.48.25-.73.23-.77a1.21,1.21,0,0,1,.25-.78,2.91,2.91,0,0,0,.84-1.09.89.89,0,0,0-.26-.75.72.72,0,0,1-.16-.74c0-.14.25,0,.33,0l.23.21A2,2,0,0,0,190,6V5.29a1.47,1.47,0,0,1,0-.59c0-.27.29,0,.32,0s0,0,.12.27a.71.71,0,0,0,.48.46,1.38,1.38,0,0,1,.8.55.78.78,0,0,0,.44.27c.8.13.67-.48.67-.48a.71.71,0,0,1,.59.61.52.52,0,0,0,.38.4,2.45,2.45,0,0,1,1.7,1.55.61.61,0,0,0,.4.19A1,1,0,0,0,197,8.33a1.48,1.48,0,0,1-.36,1.72,1.5,1.5,0,0,0,.63.69,1.88,1.88,0,0,1,.86.94.54.54,0,0,0,.66.4h0a1.46,1.46,0,0,1-1.47,1.3c.23.69,1.4,1.43,1.4,1.43a1.51,1.51,0,0,1-1.3.88.36.36,0,0,0-.33.4c0,.18.23.4.23.4a2.08,2.08,0,0,1,.59,1.63s-.49-.26-.67,0a.42.42,0,0,0,0,.5A.8.8,0,0,0,197.73,19Z"/></g><rect class="b" width="208.91" height="56.61"/></svg>