<svg xmlns="http://www.w3.org/2000/svg" viewBox="0 0 213.44 56.61"><defs><style>.a{fill:#555;opacity:0.48;isolation:isolate;}.b{fill:none;opacity:0.47;}</style></defs><title>Untitled-2</title><path class="a" d="M213.3,26.82a11.46,11.46,0,0,1-.32,3.45,9.43,9.43,0,0,0-3.13-.31c-.94,0-1.88.31-2.82.31V46H203V27.76a22.24,22.24,0,0,1,6.9-1.25A11.78,11.78,0,0,1,213.3,26.82ZM186,34.66h9.41a4.44,4.44,0,0,0-4.17-4.7,2.44,2.44,0,0,0-.54,0C187.9,30,186.34,31.52,186,34.66Zm13.17,3.45H186.34c.3,3.45,2.19,5,6,5a16.72,16.72,0,0,0,6.58-1.57,16.07,16.07,0,0,0-.63,3.77,13.57,13.57,0,0,1-5.95,1.25c-6.9,0-10.35-3.76-10.35-10,0-5.65,2.81-10,9.09-10,6,0,8.46,3.77,8.46,8.47C199.5,36.23,199.19,37.17,199.19,38.11Zm-24.46,3.76V30.27c-.94,0-2.19-.31-3.13-.31-4.08,0-6,2.5-6,6.89,0,3.77,1.57,6.27,5,6.27a8.89,8.89,0,0,0,4.07-1.25Zm4.07-21.63v25.7h-3.75l-.32-2.19a5.69,5.69,0,0,1-5.32,2.82c-4.71,0-7.84-3.76-7.84-9.72,0-6.58,3.45-10.34,10-10.34,1.26,0,2.19.31,3.13.31v-6a9.3,9.3,0,0,1,4.07-.62ZM158.12,33.72V46H154V34.35c0-2.83-.94-4.39-5-4.39-.94,0-1.88.31-3.14.31V46h-4.07V27.76a33.58,33.58,0,0,1,7.52-1.25C155.93,26.51,158.12,29.33,158.12,33.72Zm-24.78,8.15V30.27c-.94,0-1.88-.31-2.81-.31-4.39,0-6.28,2.82-6.28,6.89,0,3.77,1.57,6.27,5,6.27a5.76,5.76,0,0,0,4.07-1.25Zm4.08-14.11V45.94h-3.76l-.32-2.19a5.54,5.54,0,0,1-5,2.82c-5,0-8.15-3.76-8.15-9.72,0-6.58,3.45-10.34,10.35-10.34a16.78,16.78,0,0,1,6.89,1.25ZM115.47,43.12a11.29,11.29,0,0,0,3.45-.62c-.31.94-.31,2.19-.63,3.44a11.25,11.25,0,0,1-3.45.63c-3.76,0-6.27-1.88-6.27-6.27V20.86a15.48,15.48,0,0,1,3.77-.62v6.9h6.58c0,1.25-.31,2.5-.31,3.44h-6.27v9.09C112.34,42.18,113.6,43.12,115.47,43.12Zm-11-9.4V46h-4.08V34.35c0-2.83-.94-4.39-5-4.39-.94,0-2.19.31-3.45.31V46H87.88V27.76a40.72,40.72,0,0,1,7.52-1.25c6.9,0,9.1,2.82,9.1,7.21ZM79.41,41.87V30.27c-.62,0-1.57-.31-2.82-.31-4.07,0-6.27,2.82-6.27,6.89,0,3.77,1.57,6.27,5.33,6.27a5,5,0,0,0,3.77-1.25Zm4.08-14.11V45.94H79.72V43.75a6.47,6.47,0,0,1-5.33,2.82c-4.7,0-8.15-3.76-8.15-9.72,0-6.58,3.45-10.34,10.35-10.34A15.15,15.15,0,0,1,83.49,27.76ZM46.81,45.32a13.64,13.64,0,0,1,.62-3.76,17.91,17.91,0,0,0,6.9,1.25c3.45,0,5.33-.94,5.33-3.13s-1.56-3.14-5-4.71l-1.88-.62c-3.45-1.58-5.65-3.45-5.65-7.53s2.83-6.9,8.78-6.9a21,21,0,0,1,6.59.94,11.79,11.79,0,0,1-.63,3.77,21.14,21.14,0,0,0-6-.94c-3.13,0-4.7,1.25-4.7,3.13S52.45,30,55.28,30.9l1.88.94c4.7,1.88,6.58,4.07,6.58,7.52,0,4.39-3.13,7.21-9.41,7.21A17,17,0,0,1,46.81,45.32ZM28.31,27.13a15.26,15.26,0,0,0-1.26-4.07L20.78,12.4a23,23,0,0,1-.94-2.51v.63a8.19,8.19,0,0,0,0,8.46l4.71,8.47a8.23,8.23,0,0,1,0,8.46l-.32.63a5,5,0,0,0-.94-2.82L18.9,25.88l-2.82-4.7a5,5,0,0,1-.94-2.82l-.31.63a8.19,8.19,0,0,0,0,8.46h0l5,8.47a9.94,9.94,0,0,1,0,8.46l-.31.63a22.26,22.26,0,0,0-.94-2.51L12.32,31.84a8.85,8.85,0,0,1-1.26-4.7c-6.58,1.57-11,5.33-11,9.41,0,6,8.78,10.65,19.75,10.65,10.66,0,19.44-4.7,19.44-10.65C39.28,32.46,34.89,28.7,28.31,27.13Z"/><rect class="b" width="213.44" height="56.61"/></svg>