<svg xmlns="http://www.w3.org/2000/svg" viewBox="0 0 118.38 56.61"><defs><style>.a{opacity:0.45;}.b{fill:#424242;}.c{fill:#737373;}.d{fill:none;opacity:0.47;}</style></defs><title>Untitled-2</title><g class="a"><path class="b" d="M10.7,19.57a8.64,8.64,0,0,1,3,.51,6.8,6.8,0,0,1,2.36,1.43,6.47,6.47,0,0,1,1.51,2.24,7.48,7.48,0,0,1,.54,2.85,6.68,6.68,0,0,1-.57,2.92,5.71,5.71,0,0,1-1.43,1.84,6,6,0,0,1,1.43.87,6.08,6.08,0,0,1,1.2,1.43,7.69,7.69,0,0,1,.83,1.88,8.25,8.25,0,0,1,.31,2.37,6.42,6.42,0,0,1-2.37,5.42,10.25,10.25,0,0,1-6.37,1.83H-.25V19.57Zm.1,10.05a1.49,1.49,0,0,0,.74-.2,2.44,2.44,0,0,0,.66-.54,2.73,2.73,0,0,0,.38-.74,2.41,2.41,0,0,0,.16-.84,2.31,2.31,0,0,0-.5-1.64,1.84,1.84,0,0,0-1.43-.6H5.34v4.51Zm-5.46,10h6.2A3.66,3.66,0,0,0,13.69,39a2.14,2.14,0,0,0,.84-1.81,2,2,0,0,0-.3-1.09,2.83,2.83,0,0,0-.77-.81,4.28,4.28,0,0,0-1.08-.51,4.28,4.28,0,0,0-1.23-.15H5.34Z"/><path class="b" d="M26.3,45.15,17.16,19.57h6.29L28.63,35.5l5.22-15.93h6.2L30.88,45.15Z"/><path class="b" d="M50.19,36H46.57v9.17h-5.7V19.57H51.59a11.74,11.74,0,0,1,3.58.51,8,8,0,0,1,2.75,1.51,6.75,6.75,0,0,1,1.73,2.47,8.49,8.49,0,0,1,.63,3.38,9.76,9.76,0,0,1-.39,2.85,8.32,8.32,0,0,1-1,2.18A6.44,6.44,0,0,1,57.45,34a7,7,0,0,1-1.71.94l5.7,10.17H54.85Zm-3.66-5.32h5.24a3.75,3.75,0,0,0,2.31-.72A2.49,2.49,0,0,0,55,27.78a2.37,2.37,0,0,0-.92-2.08,3.85,3.85,0,0,0-2.31-.64H46.53Z"/><path class="b" d="M62.36,19.57h5.7v20H79v5.62H62.36Z"/><path class="b" d="M89,19.57H93.6l9.17,25.58H96.53l-1.43-4.5H87.57l-1.42,4.5H79.88Zm.1,15.69H93.4l-2.12-6.75Z"/><path class="c" d="M15.62,15.2S29.38,9.88,40.05,7.12c9.88-2.66,26.56-5.71,39.34-5.27s26.28,1.1,34,7.28c6.46,5.16,4,11.41-1,15.19A44,44,0,0,1,101.76,30s5.52-2.53,6.68-5.41c1.58-4,1.81-9.81-8.75-13.42A86.31,86.31,0,0,0,69.74,6.71c-3,.12-14.94.83-25.95,2.52C29.81,11.4,15.62,15.2,15.62,15.2Z"/><path class="c" d="M16,15.4C34.8,8.17,54.57,2.55,74.84,2.12A143.59,143.59,0,0,1,93.38,3c5.81.64,12,1.7,17.11,4.74s8.1,8.55,4,13.92c-3.08,4-8.47,6.56-13.1,8.28l.91.36c4.15-1.94,8-5,7.64-10-.54-7.63-11-9.87-16.84-11.28C76.2,4.84,58.53,6.58,41.56,9.36,32.78,10.8,24,12.67,15.43,15c-.92.24-.17.67.45.51A240,240,0,0,1,70.59,7,81.51,81.51,0,0,1,87.8,8.54c5.92,1.12,13.66,2.4,18.17,6.72a8,8,0,0,1,2.11,8.56c-1,3.06-4.06,4.9-6.85,6.2-.65.31.66.45.92.35,5.83-2.08,14.66-6.19,15.69-13.09,1.42-9-11.57-12.7-18.15-13.93C79.86-.44,58.72,1.76,39.32,7a242.61,242.61,0,0,0-24.07,8C14.38,15.32,15.59,15.56,16,15.4Z"/></g><rect class="d" width="118.38" height="56.61"/></svg>