<svg xmlns="http://www.w3.org/2000/svg" xmlns:xlink="http://www.w3.org/1999/xlink" viewBox="0 0 99.49 56.61"><defs><style>.a{opacity:0.56;}.b{fill:#606060;}.c{fill:url(#a);}.d{fill:url(#b);}.e{fill:url(#c);}.f{fill:url(#d);}.g{fill:url(#e);}.h{fill:url(#f);}.i{fill:#fff;}.j{fill:none;opacity:0.47;}</style><linearGradient id="a" x1="-834.4" y1="59.61" x2="-834.7" y2="58.63" gradientTransform="matrix(28.58, 0, 0, -36.21, 21936.69, 10484.85)" gradientUnits="userSpaceOnUse"><stop offset="0.19" stop-color="#727272"/><stop offset="0.26" stop-color="#7a7a7a"/><stop offset="0.49" stop-color="#919191"/><stop offset="0.67" stop-color="#9e9e9e"/><stop offset="0.79" stop-color="#a4a4a4"/></linearGradient><linearGradient id="b" x1="-773.82" y1="-72.52" x2="-773.82" y2="-73.91" gradientTransform="matrix(21.32, 0, 0, -25.13, 16554.81, 7267.34)" gradientUnits="userSpaceOnUse"><stop offset="0.3" stop-color="#727272"/><stop offset="0.69" stop-color="#a4a4a4"/></linearGradient><linearGradient id="c" x1="-764.03" y1="46.96" x2="-764.02" y2="48.13" gradientTransform="matrix(31.44, 0, 0, -37.59, 24023.89, 10899.24)" gradientUnits="userSpaceOnUse"><stop offset="0.17" stop-color="#a4a4a4"/><stop offset="0.29" stop-color="#9c9c9c"/><stop offset="0.6" stop-color="#888"/><stop offset="0.71" stop-color="#727272"/></linearGradient><linearGradient id="d" x1="-682.28" y1="195.05" x2="-683.35" y2="196.09" gradientTransform="matrix(17.99, 0, 0, -46.69, 14077.84, 13544.1)" gradientUnits="userSpaceOnUse"><stop offset="0.3" stop-color="#a4a4a4"/><stop offset="0.5" stop-color="#818181"/><stop offset="0.73" stop-color="#727272"/></linearGradient><linearGradient id="e" x1="-645.87" y1="123.67" x2="-645.39" y2="122.99" gradientTransform="matrix(32.22, 0, 0, -36.74, 24582.6, 10641.13)" gradientUnits="userSpaceOnUse"><stop offset="0.27" stop-color="#727272"/><stop offset="0.4" stop-color="#7a7a7a"/><stop offset="0.61" stop-color="#8d8d8d"/><stop offset="0.83" stop-color="#a4a4a4"/></linearGradient><linearGradient id="f" x1="-753.68" y1="308.93" x2="-754.26" y2="307.95" gradientTransform="matrix(27.99, 0, 0, -39.5, 21444.35, 11443.76)" gradientUnits="userSpaceOnUse"><stop offset="0" stop-color="#a5a5a5"/><stop offset="0.62" stop-color="#696969"/></linearGradient></defs><title>Untitled-2</title><g class="a"><path class="b" d="M62.11,42.12l-1.77,5.11h-.9L58.18,43.5l-1.24,3.73H56l-1.77-5.11h1l1.23,3.82,1.18-3.82h.91l1.2,3.82,1.23-3.82Z"/><path class="b" d="M66.1,44.9v2.33h-.94V45.05a.87.87,0,0,0-1.74,0h0v2.18h-.94V41.84h.94V44a1.51,1.51,0,0,1,1.2-.51,1.43,1.43,0,0,1,1.43,1.28Z"/><path class="b" d="M70.62,43.51v3.72h-.9v-.55a1.44,1.44,0,0,1-1.25.63,1.8,1.8,0,0,1-1.8-1.79.24.24,0,0,1,0-.12,1.81,1.81,0,0,1,1.64-2h.12a1.46,1.46,0,0,1,1.26.63v-.56Zm-.94,1.86a.74.74,0,0,0-1.1,1,.75.75,0,0,0,1.06.05.76.76,0,0,0,.13-.94h0s-.09-.07-.09-.11Z"/><path class="b" d="M73.8,46.38v.76a2.52,2.52,0,0,1-.94.17,1.1,1.1,0,0,1-1.15-1v-2h-.62v-.77h.62v-1.1h.94v1.1h1.1v.77h-1.1v1.66a.49.49,0,0,0,.43.55h0A1.52,1.52,0,0,0,73.8,46.38Z"/><path class="b" d="M74.57,42.12h1L75,43.9h-.85Z"/><path class="b" d="M75.85,46.86l.36-.57a2.12,2.12,0,0,0,1.07.29c.36,0,.58-.16.58-.39s-.25-.34-.64-.44l-.3-.08c-.64-.17-1.07-.42-1.07-1a1.38,1.38,0,0,1,1.43-1.23,2.49,2.49,0,0,1,1.43.36l-.4.61a1.84,1.84,0,0,0-.94-.23c-.35,0-.57.12-.57.33s.22.33.55.41l.32.09c.62.17,1.14.46,1.14,1.11s-.63,1.19-1.56,1.19A2.16,2.16,0,0,1,75.85,46.86Z"/><path class="b" d="M84.7,44.9v2.33h-1V45.05a.87.87,0,1,0-1.74,0h0v2.18h-.94V43.51H82V44a1.6,1.6,0,0,1,1.23-.54,1.44,1.44,0,0,1,1.43,1.29Z"/><path class="b" d="M89,45.71H86.25a.85.85,0,0,0,.86.85h0a1.13,1.13,0,0,0,.91-.44l.73.37a1.94,1.94,0,1,1-1.67-3.05A1.77,1.77,0,0,1,89,45.1v.21C89,45.44,89,45.58,89,45.71Zm-2.7-.63H88a.83.83,0,0,0-.74-.9h-.13c-.51,0-.79.33-.87.89Z"/><path class="b" d="M91.84,47.23,91,46l-.86,1.23H89l1.42-1.91-1.33-1.81h1.11L91,44.65l.79-1.12h1.12l-1.34,1.8L93,47.24Z"/><path class="b" d="M95.73,46.38v.76a2.39,2.39,0,0,1-1,.17,1.1,1.1,0,0,1-1.14-1v-2H93v-.77h.61v-1.1h.94v1.1h1.1v.77h-1.1v1.66a.5.5,0,0,0,.44.55h0A1.62,1.62,0,0,0,95.73,46.38Z"/><path class="b" d="M97.91,44.1a.86.86,0,0,0,.39-.63.63.63,0,0,0-.63-.61h0a.67.67,0,0,0-.73.6H96A1.43,1.43,0,0,1,97.46,42h.15c1,0,1.71.56,1.71,1.43a1.41,1.41,0,0,1-.62,1.08A1.43,1.43,0,0,0,98,45.79h-.79A1.91,1.91,0,0,1,97.91,44.1ZM97,46.75a.56.56,0,0,1,.54-.57h0a.57.57,0,0,1,.57.57h0a.56.56,0,0,1-.56.56h0a.54.54,0,0,1-.56-.5v-.06Z"/><path class="c" d="M85.11,3.25A4.89,4.89,0,0,0,78.3,4.46h0L72,14.06l-6.3,9.52-7,10.64S60.26,37,60.3,37a4.33,4.33,0,0,0,1,.94,4.83,4.83,0,0,0,6.42-1.42l3-4.28,15.6-22.09a4.89,4.89,0,0,0-1.16-6.83h0Z"/><path class="d" d="M65.69,23.58l-1.93-3.22-1.62-2.85c-1.88-3.21-3.71-4.12-6.18-4.05a6.46,6.46,0,0,0-5.1,2.71l-1.51,2.16,7.13,12.3,2.11,3.6S60.2,37,60.24,37a4.33,4.33,0,0,0,1,.94,4.83,4.83,0,0,0,6.42-1.42l3-4.28Z"/><path class="e" d="M62.14,17.51c-1.89-3.21-3.71-4.12-6.18-4.05a6.45,6.45,0,0,0-5.1,2.71L32.32,42.73l.09.74v.71c.84,8,8.64,8.47,11.72,4.14L56.51,30.64l7.25-10.28Z"/><path class="f" d="M44.8,24.82,43.53,12.23V11.9c-.47-5.29-4.22-7.58-7.34-7.57a6.65,6.65,0,0,0-5.42,2.85l-2,2.71,2.13,20.28h0l1.42,14c.84,8,8.64,8.46,11.74,4.14L46.8,44.6Z"/><path class="g" d="M43.5,11.9c-.44-5.29-4.19-7.58-7.31-7.57a6.61,6.61,0,0,0-5.42,2.85l-2,2.71-2.6,3.75-4.52,6.53L11.31,34.93,12,36.46a8,8,0,0,0,10.57,3.87,8.1,8.1,0,0,0,2.72-2.07l2.85-4h0l2.78-4,12.59-18Z"/><path class="h" d="M21.67,20.17l-3.26-6.94L15.19,6.36A7.81,7.81,0,1,0,.78,12.41c.06.13.11.26.18.39L11.32,34.93,12,36.46a7.94,7.94,0,0,0,10.54,3.87h0a8,8,0,0,0,2.71-2.07l2.85-4h0Z"/><path class="i" d="M43.06,27.81a2.76,2.76,0,0,0,2.68,2.85h.17a3.22,3.22,0,0,0,2.21-.74l-.67-1a2.15,2.15,0,0,1-1.42.56,1.62,1.62,0,0,1-1.59-1.23h4.18v-.43a2.78,2.78,0,0,0-5.56-.11h0v.11m1.36-.64a1.43,1.43,0,0,1,2.85,0Zm-3,.23a1.54,1.54,0,0,1,1.17,1.43c0,1-.8,1.71-2.05,1.71a3.29,3.29,0,0,1-2.11-.74l.68-1a2.09,2.09,0,0,0,1.43.54c.67,0,.77-.37.77-.49a.72.72,0,0,0-.48-.48c-.27-.09-.95-.29-1.24-.4a1.43,1.43,0,0,1-1.08-1.43,1.7,1.7,0,0,1,1.68-1.72h.22a3.2,3.2,0,0,1,2.06.71l-.64.93A2.61,2.61,0,0,0,40.45,26c-.56,0-.65.26-.65.4s.2.37.45.46,1,.31,1.15.4Zm-15.17.41a2.75,2.75,0,0,1,5.49-.23v.63H27.62a1.6,1.6,0,0,0,1.58,1.23,2.2,2.2,0,0,0,1.43-.55l.68,1a3.25,3.25,0,0,1-2.22.74,2.76,2.76,0,0,1-2.85-2.68v-.1m4.16-.64a1.43,1.43,0,0,0-1.42-1,1.5,1.5,0,0,0-1.43,1Zm-7.78-4.7H21.19v8h4.73V29.1H22.71ZM34.51,25H35a2.5,2.5,0,0,1,1.58.52v-.42h1.32V30.5H36.6v-.39a2.4,2.4,0,0,1-1.58.53,2.84,2.84,0,0,1-2.85-2.31L34.5,25m2.1,2.76A1.57,1.57,0,1,0,35,29.34a1.57,1.57,0,0,0,1.57-1.56h0M52,22.47H49.16v8h1.43V28.21H52a2.85,2.85,0,0,0,.42-5.69H52Zm0,4.38H50.59v-3H52a1.53,1.53,0,0,1,.4,3H52ZM67.93,25a2.15,2.15,0,0,1,1.65,1.32,3.84,3.84,0,0,1,.2,1.43v2.65H68.47V27.56a1.2,1.2,0,0,0-2.37-.36v3.14H64.8V25.08h1.3v.41A2.3,2.3,0,0,1,67.94,25ZM60.4,25h.53a2.44,2.44,0,0,1,1.58.51v-.46h1.3v5.38h-1.3v-.37a2.55,2.55,0,0,1-1.58.51,2.84,2.84,0,0,1-2.85-2.31L60.36,25m2.1,2.75a1.57,1.57,0,1,0-1.59,1.57,1.57,1.57,0,0,0,1.59-1.57v0m-5.53.7V22.91h-1.3v5.7a1.82,1.82,0,0,0,1.73,1.91h0a1.93,1.93,0,0,0,.34,0V29.25a.75.75,0,0,1-.83-.67Z"/></g><rect class="j" width="99.49" height="56.61"/></svg>