<svg xmlns="http://www.w3.org/2000/svg" xmlns:xlink="http://www.w3.org/1999/xlink" viewBox="0 0 132.44 56.61"><defs><style>.a{opacity:0.3;}.b{fill:url(#a);}.c{fill:#fff;}.d{fill:url(#b);}.e{fill:url(#c);}.f{fill:none;opacity:0.47;}</style><linearGradient id="a" x1="159.74" y1="288.93" x2="159.76" y2="288.93" gradientTransform="matrix(119.93, 0, 0, -34.26, -22393.1, 9928.43)" gradientUnits="userSpaceOnUse"><stop offset="0" stop-color="#272727"/><stop offset="0.01" stop-color="#292929"/><stop offset="0.14" stop-color="#3a3a3a"/><stop offset="0.26" stop-color="#464646"/><stop offset="0.38" stop-color="#4e4e4e"/><stop offset="0.5" stop-color="#505050"/><stop offset="0.62" stop-color="#4e4e4e"/><stop offset="0.74" stop-color="#464646"/><stop offset="0.86" stop-color="#3a3a3a"/><stop offset="0.99" stop-color="#292929"/><stop offset="1" stop-color="#272727"/></linearGradient><linearGradient id="b" x1="7.32" y1="287.79" x2="7.41" y2="287.79" gradientTransform="matrix(19.58, 0, 0, -22.08, -3039.54, 6375.66)" gradientUnits="userSpaceOnUse"><stop offset="0" stop-color="#272727"/><stop offset="0.2" stop-color="#272727"/><stop offset="1" stop-color="#505050"/></linearGradient><linearGradient id="c" x1="4.9" y1="287.15" x2="4.99" y2="287.15" gradientTransform="matrix(18.36, 0, 0, -18.36, -2803.43, 5291.53)" gradientUnits="userSpaceOnUse"><stop offset="0" stop-color="#9a9a9a"/><stop offset="1" stop-color="#bbb"/></linearGradient></defs><title>Untitled-2</title><g class="a"><path class="b" d="M131.93,47.37l-.22.22H.35l-.23-.22V30.11a4.14,4.14,0,0,1,1.35-2.7L17.59,11.28a4.8,4.8,0,0,1,2.72-1.35H131.72l.22.22Z"/><path class="c" d="M40.18,36.83a.65.65,0,0,1-.76-.53v0l-1.35-3.91H31.69l-1.33,4c-.11.35-.27.47-.58.47H27.27c-.19,0-.26,0-.26-.23v-.24l6.16-17c.14-.33.31-.46.6-.46h2a.56.56,0,0,1,.6.4l6.19,16.88v.31c0,.22-.11.31-.36.31ZM34.72,22.77c-.11.42-.26.95-.5,1.62L32.4,30h4.79l-1.82-5.65c-.15-.45-.25-.83-.35-1.16l-.16-.53h0Z"/><path class="c" d="M44.35,36.83c-.33,0-.47-.16-.47-.53V18.82c0-.4.12-.49.41-.55L46.12,18h.18a.42.42,0,0,1,.46.37h0V36.3c0,.49-.26.54-.46.54Z"/><path class="c" d="M49.45,42.22c-.35,0-.51-.2-.51-.58V24.85c0-.37.14-.51.51-.51h1.44c.42,0,.56.11.58.42l.11.94.16-.2A4.82,4.82,0,0,1,55.2,24a4.53,4.53,0,0,1,3.64,1.57,7.25,7.25,0,0,1,1.59,4.82,7.91,7.91,0,0,1-1.68,5,4.83,4.83,0,0,1-3.82,1.82,4.22,4.22,0,0,1-3-1.2l-.16-.18v5.84c0,.47-.2.58-.57.58Zm5-15.9a3.81,3.81,0,0,0-2.67,1.31v6a3.3,3.3,0,0,0,2.55,1.31,2.63,2.63,0,0,0,2.09-1,5.16,5.16,0,0,0,1-3.24,5.49,5.49,0,0,0-.82-3.19A2.52,2.52,0,0,0,54.47,26.32Z"/><path class="c" d="M70.26,36.83c-.27,0-.33,0-.33-.42V29.13c0-1.11-.22-2.57-2-2.57a5.31,5.31,0,0,0-3.1,1.27h0v8.53c0,.34,0,.42-.38.42h-2.2c-.22,0-.31,0-.31-.37V18.83c0-.42.17-.51.48-.57L64.24,18h.31c.2,0,.33,0,.33.4v7.12L65,25.4A6.4,6.4,0,0,1,69,24c2.59,0,3.9,1.53,3.9,4.57v7.83c0,.39,0,.42-.31.42Z"/><path class="c" d="M79.51,37.25a4.52,4.52,0,0,1-3.86-1.82A7.63,7.63,0,0,1,74.41,31c0-4.68,2.79-6.81,5.46-6.81A3.87,3.87,0,0,1,83,25.66l.17.22.14-1a.42.42,0,0,1,.42-.39h1.69c.3,0,.44.17.44.48v9.1a1.3,1.3,0,0,0,.19.82l.38.15h.2c.27,0,.35,0,.35.35v1.22a.37.37,0,0,1-.33.4h-1.3a1.82,1.82,0,0,1-2-1.46h-.18A4.79,4.79,0,0,1,79.51,37.25Zm.82-10.93c-1.37,0-3,1.11-3,4.21,0,2.6,1,4.15,2.79,4.15a3.29,3.29,0,0,0,2.76-1.82h0V27.8h0A3.31,3.31,0,0,0,80.33,26.32Z"/><path class="c" d="M94.35,37.25a4.72,4.72,0,0,1-3.15-1.46l-.14-.17-.13,1.08c0,.11,0,.22-.46.22H89c-.36,0-.51-.15-.51-.55V18.91c0-.42.11-.58.42-.62L90.69,18h.24c.16,0,.33,0,.33.44v6.93l.16-.14A4.92,4.92,0,0,1,94.81,24,4.4,4.4,0,0,1,98,25.21a7.29,7.29,0,0,1,1.82,5.46C99.8,33.77,98.45,37.25,94.35,37.25ZM94,26.56a4.1,4.1,0,0,0-2.66,1.2h0v5.69h0a3.62,3.62,0,0,0,2.55,1.32c1.82,0,3-1.45,3-4.11,0-1.93-.51-4.19-2.85-4.19Z"/><path class="c" d="M107.28,37.25c-3.82,0-6.21-2.53-6.21-6.61a6,6,0,0,1,5.44-6.52,5.77,5.77,0,0,1,.72,0,4.78,4.78,0,0,1,3.64,1.53,7.06,7.06,0,0,1,1.46,4.85v.45c0,.55-.13.67-.73.67h-7.53a3.64,3.64,0,0,0,3.65,3.26,8.71,8.71,0,0,0,3.15-.63h.24l.25.23.37,1.42v.22c0,.13,0,.22-.35.35A10.66,10.66,0,0,1,107.28,37.25Zm-.22-10.93a3.12,3.12,0,0,0-2.93,3v.27h5.57V29A2.77,2.77,0,0,0,107.06,26.32Z"/><path class="c" d="M118.06,37.25a3.67,3.67,0,0,1-3-1.07c-.77-.88-.78-1.83-.78-3.83V26.58h-1c-.4,0-.46,0-.46-.55V24.78c0-.2,0-.44.35-.44h1.18V21.46c0-.34.13-.47.55-.53l1.82-.23h.13c.2,0,.38,0,.38.47v3.17h2.95c.27,0,.38,0,.38.34v1.5a.36.36,0,0,1-.32.4h0a.17.17,0,0,1-.1,0h-2.91v5.83a3.36,3.36,0,0,0,.34,1.82,1.37,1.37,0,0,0,1.26.58,4.93,4.93,0,0,0,1.66-.31h.22s.18,0,.23.26l.26,1.29v.15c0,.2,0,.31-.33.4A7.14,7.14,0,0,1,118.06,37.25Z"/><path class="d" d="M21.62,30.77c.22,3.31-1.71,3.64-2.67,3.35L2.14,29.44s-2-.68-2,.67A4.82,4.82,0,0,1,1.48,27.4L17.59,11.28a4.74,4.74,0,0,1,2.7-1.35s-.67,0-.67,2Z"/><path class="e" d="M17.59,11.28,1.47,27.42A4.63,4.63,0,0,0,.12,30.11a1.32,1.32,0,0,1,1.27-1.35H18.73l.22-.22V11.28a1.32,1.32,0,0,1,1.27-1.35h.07A4.74,4.74,0,0,0,17.59,11.28Z"/></g><rect class="f" width="132.44" height="56.61"/></svg>