<svg xmlns="http://www.w3.org/2000/svg" viewBox="0 0 158.73 56.61"><defs><style>.a{opacity:0.41;}.b{fill:#191919;}.c{fill:#484848;}.d{fill:#fff;}.e{fill:none;opacity:0.47;}</style></defs><title>Untitled-2</title><g class="a"><rect class="b" x="0.04" y="27.27" width="37.6" height="19.49"/><rect class="c" x="0.04" y="10.17" width="37.6" height="18.06"/><rect class="d" x="8.44" y="27.74" width="20.79" height="2.27"/><path class="b" d="M102,28.75V28l1-.21a1.36,1.36,0,0,0,.45-.12l.23-.19A21.23,21.23,0,0,0,103.9,24c0-2,.11-4.43.11-7.33V12.89a9,9,0,0,0-.35-1.78l-.19-.16a2.6,2.6,0,0,0-1.19-.31V9.87H119c6.13,0,11.58,3.48,11.58,8.86,0,8.11-7.73,10-14.34,10Zm7-5.21a2.58,2.58,0,0,0,1,2.32,11.83,11.83,0,0,0,4.57.66,11.42,11.42,0,0,0,7.38-2.05c1.74-1.39,2.5-1.74,2.5-4.49a6.44,6.44,0,0,0-2.54-5.66A10.59,10.59,0,0,0,114.4,12a18.25,18.25,0,0,0-4.6.41c-.61.28-.9,1-.9,2.14Z"/><path class="b" d="M80.75,10.06h8.73v.75l-1,.19a.87.87,0,0,0-.7.54,6.6,6.6,0,0,0-.19,1.93c0,4-.1,8.13.16,12.16a.63.63,0,0,0,.17.45,1.27,1.27,0,0,0,.64.1H98a2.1,2.1,0,0,0,1.84-.85.68.68,0,0,1,1-.13.8.8,0,0,1,.13.13c.33.49-1,3.48-2,3.48l-16.07-.09H81.39V28a5,5,0,0,0,.7-.34l.22-.25a20.62,20.62,0,0,0,.21-3.14c0-1.86.1-4.2.1-6.95v-3.4a7.17,7.17,0,0,0-.2-2.31,1.1,1.1,0,0,0-.86-.64l-.81-.21Z"/><path class="c" d="M52,37a1,1,0,0,1,0-2H62a1.08,1.08,0,0,1,1,1V46.45a1,1,0,0,1-1,1h0a1,1,0,0,1-1-1V37Z"/><path class="b" d="M75.28,37.6l-1.74,5.09h3.32Zm-1.44-2.39h2.85L81,47.12H78.4l-.79-2.45H73l-.8,2.45H69.6Zm16,3.12v8.79H87.57v-1a3.32,3.32,0,0,1-2.67,1.29,3,3,0,0,1-2.19-.77A3.22,3.22,0,0,1,82,44.31v-6h2.36v5.32A2.19,2.19,0,0,0,84.66,45a1.28,1.28,0,0,0,1.06.41A1.72,1.72,0,0,0,87,44.9a1.85,1.85,0,0,0,.49-1.36V38.33Zm6,8.89H94.52a2.55,2.55,0,0,1-1.86-.52,2.9,2.9,0,0,1-.57-2V40H90.93V38.26h1.16V35.92h2.34v2.41h1.36v1.74H94.43V45a.53.53,0,0,0,.16.45,1.13,1.13,0,0,0,.63.12h.57Zm3.31-4.49a3.25,3.25,0,0,0,.54,2,2,2,0,0,0,2.81.24h0a1.88,1.88,0,0,0,.25-.24,3.25,3.25,0,0,0,.54-2,3.35,3.35,0,0,0-.54-2,2,2,0,0,0-2.87-.19,1.7,1.7,0,0,0-.19.19A3.28,3.28,0,0,0,99.17,42.73Zm-2.4,0A4.88,4.88,0,0,1,98,39.25,4.28,4.28,0,0,1,101.24,38a4.36,4.36,0,0,1,3.28,1.25,4.88,4.88,0,0,1,1.2,3.48,4.84,4.84,0,0,1-1.2,3.47,4.92,4.92,0,0,1-6.55,0,4.79,4.79,0,0,1-1.19-3.47Zm10.55,4.39V38.33h2.24v1a3.14,3.14,0,0,1,1.11-.87,2.86,2.86,0,0,1,1.34-.31,3,3,0,0,1,1.43.31,2.85,2.85,0,0,1,1,1,3.09,3.09,0,0,1,1.1-1,3.24,3.24,0,0,1,3.47.46,2.84,2.84,0,0,1,.83,2.08v6.13h-2.35V41.48a1.28,1.28,0,0,0-.34-1,1.24,1.24,0,0,0-1-.35,1.39,1.39,0,0,0-1.1.45,1.8,1.8,0,0,0-.4,1.22v5.31h-2.3V41.49a1.37,1.37,0,0,0-.33-1,1.21,1.21,0,0,0-.9-.32,1.39,1.39,0,0,0-1.1.46,1.71,1.71,0,0,0-.4,1.23v5.26Zm16.51-4.43a3.4,3.4,0,0,0,.54,2,2,2,0,0,0,2.84.23,2.61,2.61,0,0,0,.24-.23,3.32,3.32,0,0,0,.53-2,3.27,3.27,0,0,0-.53-2,1.73,1.73,0,0,0-1.53-.69,1.82,1.82,0,0,0-1.55.69,3.46,3.46,0,0,0-.54,2Zm-2.37,0a4.88,4.88,0,0,1,1.18-3.47,5,5,0,0,1,6.57,0,4.86,4.86,0,0,1,1.18,3.48,4.84,4.84,0,0,1-1.18,3.47,4.93,4.93,0,0,1-6.57,0,4.9,4.9,0,0,1-1.18-3.44Zm14.45,4.5h-1.34a2.59,2.59,0,0,1-1.86-.52,3,3,0,0,1-.5-2V40h-1.16V38.26h1.16V35.92h2.34v2.41h1.36v1.74h-1.36V45a.53.53,0,0,0,.16.45,1.13,1.13,0,0,0,.63.12h.57Zm1.42-9.87V35.21h2.36v2.15Zm0,9.8V38.33h2.36v8.79Zm6.64,0-3.16-8.83h2.6l1.74,6.34,1.73-6.34h2.5l-3,8.83ZM156,44.44h2.36A3.9,3.9,0,0,1,157,46.63a4.45,4.45,0,0,1-2.64.78,3.77,3.77,0,0,1-3-1.28,5.05,5.05,0,0,1-1.13-3.48,5,5,0,0,1,1.11-3.47,3.81,3.81,0,0,1,3-1.25,4,4,0,0,1,3.13,1.23,5.08,5.08,0,0,1,1.11,3.47,2.54,2.54,0,0,1,0,.39v.24h-5.93a2.58,2.58,0,0,0,.51,1.56,1.84,1.84,0,0,0,2.61.06,1.52,1.52,0,0,0,.32-.4Zm-3.48-2.66H156a2,2,0,0,0-.47-1.37,1.74,1.74,0,0,0-1.29-.45,1.57,1.57,0,0,0-1.19.47,2.13,2.13,0,0,0-.49,1.47Z"/><path class="b" d="M58.83,10h7.35c-.22.35-.41.68-.15,1.08l9.62,14.05c1.37,2,1.6,2.9,2.47,2.9v.67H70.07V28l1.09-.33-2.53-4H56.85l-2.64,4.12.87.28v.71H49.71V28c2.36-.33,1.74-.14,3.15-2.33,2.08-3.32,4.17-6.63,6.11-10,2.26-3.95,3.89-4.65-.12-5Zm8.09,10.93-4.15-6.61-4.22,6.61Z"/></g><rect class="e" width="158.73" height="56.61"/></svg>