<svg xmlns="http://www.w3.org/2000/svg" xmlns:xlink="http://www.w3.org/1999/xlink" viewBox="0 0 166.66 56.61"><defs><style>.a{opacity:0.41;}.b{fill:url(#a);}.c{fill:url(#b);}.d{fill:url(#c);}.e{fill:url(#d);}.f{fill:url(#e);}.g{fill:url(#f);}.h{fill:#fff;}.i{fill:#191919;}.j{fill:none;opacity:0.47;}</style><linearGradient id="a" x1="349.37" y1="289.12" x2="349.41" y2="289.12" gradientTransform="matrix(38.44, 0, 0, -37.49, -16236.06, 10866.19)" gradientUnits="userSpaceOnUse"><stop offset="0" stop-color="#494949"/><stop offset="0.6" stop-color="#a4a4a4"/><stop offset="1" stop-color="#646464"/></linearGradient><linearGradient id="b" x1="345.15" y1="289.02" x2="345.19" y2="289.02" gradientTransform="matrix(36.95, 0, 0, -35.58, -15576.25, 10311.48)" gradientUnits="userSpaceOnUse"><stop offset="0" stop-color="#646464"/><stop offset="0.3" stop-color="#a4a4a4"/><stop offset="0.55" stop-color="#646464"/><stop offset="0.84" stop-color="#494949"/><stop offset="0.88" stop-color="#505050"/><stop offset="0.96" stop-color="#606060"/><stop offset="1" stop-color="#696969"/></linearGradient><linearGradient id="c" x1="184.12" y1="285.49" x2="184.22" y2="285.49" gradientTransform="matrix(15.31, 0, 0, -12.98, -6005.71, 3725.11)" gradientUnits="userSpaceOnUse"><stop offset="0" stop-color="#6f6f6f"/><stop offset="1" stop-color="#646464"/></linearGradient><linearGradient id="d" x1="-1.9" y1="284.31" x2="-1.73" y2="284.31" gradientTransform="matrix(8.85, 0, 0, -10.71, -3170.86, 3081.49)" xlink:href="#c"/><linearGradient id="e" x1="182.38" y1="283.3" x2="182.48" y2="283.3" gradientTransform="matrix(15.16, 0, 0, -9.31, -5953.82, 2663.18)" xlink:href="#c"/><linearGradient id="f" x1="-32.5" y1="277.96" x2="-32.31" y2="277.96" gradientTransform="matrix(8.3, 0, 0, -5.51, -2918.49, 1572.06)" xlink:href="#c"/></defs><title>Untitled-2</title><g class="a"><rect class="b" x="0.05" y="9.56" width="38.44" height="37.49"/><path class="c" d="M37.31,28.51c0,7.82.37,15.82.37,15.82a1.37,1.37,0,0,1-1.24,1.48H3.1a1.5,1.5,0,0,1-1.34-1.48,136.58,136.58,0,0,1-1-17.27,89.44,89.44,0,0,1,1-15.34c.1-.86.59-1.49,1.34-1.49H36.33a1.42,1.42,0,0,1,1.35,1.47h0S37.31,20.69,37.31,28.51Z"/><path class="d" d="M29.9,19.94c-2.38,1.4-3,1.52-5.68,3l.12-.29a25.6,25.6,0,0,0,2.84-3.4,60.75,60.75,0,0,0-8.3.93L19,20a34.73,34.73,0,0,1,8.48-2.43,29.17,29.17,0,0,0-5.74-3.41l.13-.26a27.87,27.87,0,0,1,9.27,3.05,14.91,14.91,0,0,1,3-.4s-.22.87-1.8,1.95c.4,1.05-.55,6.86-1.31,8.38C31,24.33,30.8,21.26,29.9,19.94Z"/><path class="e" d="M12.53,39.76l.13-.26a10.28,10.28,0,0,1-3.55-1.84,10.12,10.12,0,0,1,1.3-2.48l.12-.28c-1.08.17-2.06.57-3,.75a18,18,0,0,1-1.33-4.77L6,31.16A15.71,15.71,0,0,0,6,36a21.46,21.46,0,0,0-2.1.52l-.12.27a30.16,30.16,0,0,0,2.95,1.62A9.93,9.93,0,0,0,9,41.59l.12-.27a5.64,5.64,0,0,1-.34-2.15A14.37,14.37,0,0,0,12.53,39.76Z"/><path class="f" d="M16,21a14.06,14.06,0,0,0-.92,2.1H15a21.2,21.2,0,0,1,6.46,2l-.12.26A21.53,21.53,0,0,0,15.54,25a4.39,4.39,0,0,0-1.39.26A23.29,23.29,0,0,0,13,29.94l-.12.27c-.57-1.35-1.37-4.05-1.37-4.05a41.06,41.06,0,0,0-5.13,4.18,21.36,21.36,0,0,1,4-5.72,6.85,6.85,0,0,0-3.79-1.1l.12-.26a19.6,19.6,0,0,1,3.66-.38,19.28,19.28,0,0,1,2.15,0A11.14,11.14,0,0,1,16,21Z"/><path class="g" d="M19.86,37.33A26.34,26.34,0,0,1,18,39.61a14,14,0,0,1-3.16.18l-.12.26a8,8,0,0,0,2.12.75,17.92,17.92,0,0,1-2,1.33l-.13.27a15.46,15.46,0,0,0,4-1.52,7.86,7.86,0,0,0,1.53-.09l.12-.28c0-.27-.3-.44-.38-.82a27.23,27.23,0,0,0,2.94-2.53l.14-.27a25.9,25.9,0,0,1-3.05,2A6.42,6.42,0,0,1,19.86,37.33Z"/><path class="h" d="M30,19.68c-2.38,1.39-3.05,1.52-5.69,3.05a25.6,25.6,0,0,0,3-3.69A56.42,56.42,0,0,0,19,20a33.37,33.37,0,0,1,8.65-2.73,30.11,30.11,0,0,0-5.78-3.44,24.9,24.9,0,0,1,9.4,2.71,16.63,16.63,0,0,1,3.05-.38,4,4,0,0,1-1.81,1.95c.4,1.05-.55,6.84-1.33,8.38C31.15,24.07,30.94,21,30,19.68Z"/><path class="h" d="M12.66,39.7A9.61,9.61,0,0,1,9.2,37.6a11.43,11.43,0,0,1,1.3-2.5c-1.1.17-1.92.29-2.88.48A14.56,14.56,0,0,1,6.09,31a15.91,15.91,0,0,0,0,4.87,15.87,15.87,0,0,0-2.23.77,28.42,28.42,0,0,0,3,1.63,10,10,0,0,0,2.25,3.17A5.82,5.82,0,0,1,8.87,39,14,14,0,0,0,12.66,39.7Z"/><path class="h" d="M16.21,20.81h0a7.83,7.83,0,0,0-1.05,2.08,17.28,17.28,0,0,1,6.33,2.29,20,20,0,0,0-5.83-.38,4.41,4.41,0,0,0-1.39.24A24.67,24.67,0,0,0,13,30c-.55-1.39-1.36-4-1.36-4a41.21,41.21,0,0,0-5.12,4.19,20.52,20.52,0,0,1,4-5.72,6.74,6.74,0,0,0-3.8-1.1,15.23,15.23,0,0,1,3.78-.67q1.08,0,2.16,0A10.46,10.46,0,0,1,16.21,20.81Z"/><path class="h" d="M19.94,37.07a26.81,26.81,0,0,1-1.84,2.27,11.76,11.76,0,0,1-3.28.46,8,8,0,0,0,2.13.73,16.18,16.18,0,0,1-2.08,1.6,15.26,15.26,0,0,0,4-1.53,8.57,8.57,0,0,0,1.52-.1c-.1-.36-.19-.72-.26-1.09a26.67,26.67,0,0,0,2.84-2.57,19.53,19.53,0,0,1-3.05,1.74A5.88,5.88,0,0,0,19.94,37.07Z"/><path class="i" d="M52.21,34.51c1.28,0,2.68.46,2.68,1.64,0,.64-.55,1.2-1.37,1.53,1.1.4,1.72,1,1.72,1.84,0,1.43-1.75,1.92-3.38,1.92H48.11c.09-.9.11-2.19.11-3.62a32.18,32.18,0,0,0-.11-3.28Zm-1.05.87a5.61,5.61,0,0,0-.82,0v5h1c1.19,0,1.75-.35,1.75-1.07s-.73-1.17-1.69-1.17h-.58l.4-1h.43c.48,0,1.14-.24,1.14-.88s-.61-.85-1.62-.85Z"/><path class="i" d="M62.85,34.51c-.08.78-.11,2.6-.11,3.27s0,2.69.11,3.63H61.22l-2.61-3.85a2.24,2.24,0,0,1-.44-1v2.2a18.78,18.78,0,0,0,.11,2.6H56.43c.11-1,.12-3,.12-3.62s0-2.5-.09-3.28h2.1l2.21,3.58a1.52,1.52,0,0,1,.2.43v-4Z"/><path class="i" d="M67.87,34.51c1.53,0,3.31.43,3.31,2s-1.28,2.11-3.88,2.11h-.69a25.82,25.82,0,0,0,.09,2.78H64.45c.09-1,.1-2.52.1-3.63a30,30,0,0,0-.1-3.28Zm-1.24,1v2.19h.67c.73,0,1.73-.21,1.73-1.14s-1-1.08-1.81-1.08Z"/><path class="i" d="M78.31,34.51c1.53,0,3.31.43,3.31,2s-1.28,2.11-3.87,2.11h-.7a19.83,19.83,0,0,0,.11,2.78H74.88c.1-1,.13-2.52.13-3.63a24,24,0,0,0-.13-3.28Zm-1.23,1v2.19h.68c.74,0,1.74-.21,1.74-1.14s-1-1.08-1.81-1.08Z"/><path class="i" d="M85.66,34.51c.24.82,2.53,5.79,3,6.9H86.45c-.09-.28-.28-.64-.61-1.53H83.49c-.2.57-.38,1-.55,1.53H81c.38-.85,2.65-5.81,3-6.9Zm-.2,4.34c-.28-.67-.64-1.52-.83-2.07-.18.58-.59,1.52-.8,2.07Z"/><path class="i" d="M93,34.51c1.52,0,3.32.53,3.32,2.13a2.08,2.08,0,0,1-1.63,1.88c.2.36,1.87,2.52,2.21,2.9H94.37c-.44-.84-1.26-2.27-2.08-3.49,1,.13,1.84-.34,1.84-1.28s-1-1.19-1.52-1.19H91.8v2.31c0,.46,0,2.58.12,3.63H89.5a31.39,31.39,0,0,0,.15-3.63,29.51,29.51,0,0,0-.12-3.26Z"/><path class="i" d="M100,34.51c0,.78-.09,2.62-.09,3.29s0,2.67.09,3.61H97.74c.11-1,.12-3,.12-3.61s0-2.51-.09-3.29Z"/><path class="i" d="M105.6,34.51c1.28,0,2.68.46,2.68,1.64,0,.64-.54,1.2-1.37,1.53,1.1.4,1.73,1,1.73,1.84,0,1.43-1.76,1.92-3.39,1.92H101.5c.09-.9.11-2.19.11-3.62,0-1,0-2.38-.09-3.28Zm-1,.87a5.89,5.89,0,0,0-.84,0v5h1c1.19,0,1.75-.35,1.75-1.07s-.73-1.17-1.69-1.17h-.58l.4-1H105c.49,0,1.15-.24,1.15-.88s-.61-.85-1.6-.85Z"/><path class="i" d="M113.56,34.51c.26.82,2.53,5.79,3,6.9h-2.27c-.09-.28-.26-.64-.59-1.53h-2.35c-.2.57-.38,1-.55,1.53h-2c.38-.85,2.64-5.81,3-6.9Zm-.19,4.34c-.27-.67-.64-1.52-.82-2.07-.2.58-.61,1.52-.81,2.07Z"/><path class="i" d="M120.18,34.36a7.91,7.91,0,0,1,2.27.3v1.75A4.66,4.66,0,0,0,120,35.6c-.78,0-.84.3-.84.53,0,1.18,3.93,1.18,3.93,3.26,0,1.36-1.26,2.23-3.36,2.23a7.94,7.94,0,0,1-2.47-.41V39.54a7.24,7.24,0,0,0,2.88.9c.55,0,.94-.25.94-.72,0-1.31-3.91-1.19-3.91-3.43C117.14,35.06,118.36,34.36,120.18,34.36Z"/><path class="i" d="M134.23,38.09a28.49,28.49,0,0,1-.1,2.92,7,7,0,0,1-3,.61,3.8,3.8,0,0,1-4.19-3.35c0-.08,0-.16,0-.24,0-2.09,1.73-3.67,4.58-3.67a10.28,10.28,0,0,1,2.27.27L133.23,36a4,4,0,0,0-1.82-.53,2.31,2.31,0,0,0-2.2,2.41h0a1.09,1.09,0,0,0,0,.18c0,1.92,1.05,2.54,2.21,2.54a4.45,4.45,0,0,0,.73,0,22.2,22.2,0,0,0-.08-2.45Z"/><path class="i" d="M139,34.51c1.53,0,3.32.53,3.32,2.13a2.09,2.09,0,0,1-1.64,1.88c.21.36,1.89,2.52,2.22,2.9h-2.48a36.32,36.32,0,0,0-2.09-3.5c1,.14,1.84-.33,1.84-1.28s-1-1.19-1.52-1.19h-.85v2.32c0,.46,0,2.57.11,3.63h-2.35a33.12,33.12,0,0,0,.11-3.59,30.27,30.27,0,0,0,0-3.3Z"/><path class="i" d="M147,41.64A3.64,3.64,0,1,1,150.76,38a3.55,3.55,0,0,1-3.48,3.64H147Zm0-6.4c-1,0-1.63,1-1.63,2.76s.64,2.72,1.63,2.72,1.52-.94,1.52-2.72S148,35.24,147,35.24Z"/><path class="i" d="M154,34.51v4.71c0,.9.27,1.43,1.16,1.43s1.52-.32,1.52-1.72V35.62a3.91,3.91,0,0,0,0-1.08h1.89v4.8c0,1.52-1.11,2.28-3.31,2.28S152,41.2,152,39.23V36.72a18.24,18.24,0,0,0-.26-2.21Z"/><path class="i" d="M163.23,34.51c1.52,0,3.29.43,3.29,2s-1.28,2.11-3.87,2.11H162a25.82,25.82,0,0,0,.09,2.78H159.8c0-1,.11-2.52.11-3.63a30,30,0,0,0-.11-3.28Zm-1.25,1v2.19h.67c.73,0,1.74-.21,1.74-1.14s-1-1.08-1.82-1.08Z"/><path class="i" d="M57.71,15.12c.58,1.53,5.52,12.54,6.68,15H60.24c-.24-.69-.73-1.94-1.37-3.55h-6.1c-.47,1.28-.85,2.44-1.2,3.55H48.11c.86-1.88,5.9-12.82,6.69-15Zm.37,9.51c-1-2.36-1.86-4.4-2.15-5.09-.69,1.53-1.52,3.17-2.24,5.09Z"/><path class="i" d="M72.81,15.12c3.16,0,6.92.87,6.92,4.36,0,1.95-1.14,3.26-3.4,3.95a78.63,78.63,0,0,0,4.57,6.72H76.39c-1-1.88-3.2-5.65-4.84-8.09a5.62,5.62,0,0,0,1.16.1,3,3,0,0,0,3.15-2.68c0-2.18-2.62-2.56-3.93-2.56A14.84,14.84,0,0,0,70.3,17c-.08,1.86-.15,4.21-.15,5.26,0,1.33,0,5.78.23,7.88H66.21c.22-2.09.26-4.77.26-7.88a71.14,71.14,0,0,0-.21-7.15Z"/><path class="i" d="M81.39,15.12H85.5c1.12,4,2.5,7.73,3.68,10.79A87.48,87.48,0,0,0,93,15.12h3.5c-2,4.5-4.57,10.47-6.29,15H87.45Z"/><path class="i" d="M104.5,15.12c.58,1.53,5.52,12.54,6.68,15H107c-.24-.69-.73-1.94-1.37-3.55H99.57c-.47,1.28-.85,2.44-1.2,3.55H94.91c.85-1.88,5.89-12.82,6.68-15Zm.35,9.51c-1-2.36-1.84-4.4-2.14-5.09-.69,1.53-1.44,3.17-2.23,5.09h4.37Z"/><path class="i" d="M125,30.15H113.24c.21-2.09.21-6.55.21-7.86s-.09-5.43-.21-7.17h4.14c-.11,1.74-.18,5.69-.18,7.17v5.92h2.22c2.27,0,4-.12,5.53-.26Z"/></g><rect class="j" width="166.66" height="56.61"/></svg>