<svg xmlns="http://www.w3.org/2000/svg" xmlns:xlink="http://www.w3.org/1999/xlink" width="768" height="718" viewBox="0 0 768 718">
  <defs>
    <pattern id="pattern" preserveAspectRatio="xMidYMid slice" width="100%" height="100%" viewBox="0 0 2185 1107">
      <image width="2185" height="1107" xlink:href=""/>
    </pattern>
  </defs>
  <g id="_2-dark-mobile" data-name="2-dark-mobile" transform="translate(0 -130)">
    <rect id="LO_High_Vis_-_Dog_1" data-name="LO High Vis - Dog 1" width="768" height="718" transform="translate(0 130)" fill="url(#pattern)"/>
    <path id="Path_18848" data-name="Path 18848" d="M8521.665,5762.708l7.124-3.886,6.477-2.59,4.371-2.429.971,1.619v3.4l-3.075,2.59-2.267,2.429-.648,2.429,2.915,2.914,3.075,1.295,4.534-1.295v-1.133l-3.238-1.781-1.3-1.3,2.105-2.267,2.429-2.59,4.047-2.1,2.267-1.781,3.076-3.4v-5.343l.972-1.943v-1.781l1.457-1.133h2.1l3.076,2.914h2.752l4.857,1.943s5.18.81,5.828.81h3.725l4.785.351h7.482l4.479,2.494,1.021,1.36-.284.964-1.53.283-1.813.51-.624,1.3v1.644l2.1.34,2.834-.34,1.7-1.077,1.813-1.417,1.7-2.211.68-1.814h4.309l2.551,1.134,1.983,1.008,1.758,2.45,1.36,2.721.851,2.664,1.417,1.587,2.438,1.077,2.211-2.1-.228-2.607-2.607-2.778-1.813-2.777-1.7-2.778-1.644-1.994-2.777-1.69-2.494-1.062-2.607-1.092-1.361-.964-.566-2.381,1.247-3.685.681-3.685.68-.68,2.211-1.417,3.685-.624h3.231l5.1,1.19,3.854,1.247,1.757-1.247-.283-1.417-1.021-.793-1.417-1.36-1.644-.737,3.061-.4,1.588.85,1.247.907h.85l1.361-.907.453-1.417-.453-1.36-2.778-2.494-2.268-.68-1.417-.851v-1.247l-.68-1.474-2.494-1.871-3.062-1.3h-2.041l-2.381-3.685-1.757-2.21-.964-.567-1.247-.793-.623,2.891-1.475-2.1-1.417-.793-2.607,2.267-.566,3.231-.964,2.324-1.7,1.361-1.871-.34-.851.793-1.134,1.19h-3.174l-4.762.624-6.122,4.025-3.571.964-3.408,1.53-6.342.34-11,.34-2.437.964-4.932.963-5.556.964-4.707.454-5.043-.737h-3.628l-6.632,1.134-1.645.851-.736,1.417,1.021,2.1,2.21.51,6.576-.907,2.834-.793h2.892l-2.892,2.1-3.911,5.272-.964,2.1-.736,4.308-1.164,2.607-2.635,2.482-3.23,1.769-1.7,1.631-.85,4.775v2.1Z" transform="translate(-8461 -5276)" fill="none" stroke="red" stroke-width="1"/>
  </g>
</svg>
