<svg xmlns="http://www.w3.org/2000/svg" width="370.6" height="193.769" viewBox="0 0 370.6 193.769">
  <g id="Group_5418" data-name="Group 5418" transform="translate(-774.252 -257.474)">
    <g id="Group_5417" data-name="Group 5417">
      <path id="Path_18850" data-name="Path 18850" d="M-89.226,0h-9.81V-49.014h9.81v19.619h19.585V-49.014h9.81V0h-9.81V-19.585H-89.226Zm48.3,0h-9.81V-49.014h9.81ZM-3.538-29.395v9.3H-32.249v-9.3ZM41.785-49.014,25.686,0h-9.81L-.154-49.014H10.989L20.764-16.3l9.81-32.71ZM56.277,0h-9.81V-49.014h9.81ZM62.5-34.316a14.128,14.128,0,0,1,1.162-5.708,15.015,15.015,0,0,1,3.162-4.666,15.015,15.015,0,0,1,4.666-3.162,14.128,14.128,0,0,1,5.708-1.162h22.49v9.81H77.195a4.861,4.861,0,0,0-1.914.376,4.847,4.847,0,0,0-1.555,1.042,4.847,4.847,0,0,0-1.042,1.555,4.861,4.861,0,0,0-.376,1.914,4.987,4.987,0,0,0,.376,1.931,4.8,4.8,0,0,0,1.042,1.572,4.847,4.847,0,0,0,1.555,1.042,4.861,4.861,0,0,0,1.914.376H87a14.432,14.432,0,0,1,5.725,1.145A14.723,14.723,0,0,1,97.412-25.1a14.723,14.723,0,0,1,3.145,4.683A14.432,14.432,0,0,1,101.7-14.7a14.309,14.309,0,0,1-1.145,5.708,14.775,14.775,0,0,1-3.145,4.666,14.96,14.96,0,0,1-4.683,3.162A14.249,14.249,0,0,1,87,0H65.232V-9.81H87a4.861,4.861,0,0,0,1.914-.376,4.847,4.847,0,0,0,1.555-1.042,4.847,4.847,0,0,0,1.042-1.555,4.861,4.861,0,0,0,.376-1.914,4.861,4.861,0,0,0-.376-1.914,4.847,4.847,0,0,0-1.042-1.555,4.847,4.847,0,0,0-1.555-1.042A4.861,4.861,0,0,0,87-19.585h-9.81a14.128,14.128,0,0,1-5.708-1.162,15.015,15.015,0,0,1-4.666-3.162,14.96,14.96,0,0,1-3.162-4.683A14.249,14.249,0,0,1,62.5-34.316Z" transform="translate(960 371)" fill="#f5ff00"/>
      <path id="Path_18849" data-name="Path 18849" d="M-41.877,0h-6.7V-26.883h-10.1v-6.727H-31.8v6.727H-41.877Zm38.84,0H-26.076V-33.609H-3.037v6.727H-19.35v6.727H-8.31v6.727H-19.35v6.7H-3.037ZM1.49-23.531a9.688,9.688,0,0,1,.8-3.914,10.3,10.3,0,0,1,2.168-3.2,10.3,10.3,0,0,1,3.2-2.168,9.688,9.688,0,0,1,3.914-.8H26.99v6.727H11.568a3.333,3.333,0,0,0-1.312.258,3.324,3.324,0,0,0-1.066.715,3.324,3.324,0,0,0-.715,1.066,3.333,3.333,0,0,0-.258,1.313,3.419,3.419,0,0,0,.258,1.324,3.291,3.291,0,0,0,.715,1.078,3.324,3.324,0,0,0,1.066.715,3.333,3.333,0,0,0,1.313.258h6.727a9.9,9.9,0,0,1,3.926.785,10.1,10.1,0,0,1,3.211,2.156A10.1,10.1,0,0,1,27.588-14a9.9,9.9,0,0,1,.785,3.926,9.812,9.812,0,0,1-.785,3.914,10.131,10.131,0,0,1-2.156,3.2A10.258,10.258,0,0,1,22.221-.8a9.771,9.771,0,0,1-3.926.8H3.365V-6.727h14.93a3.333,3.333,0,0,0,1.313-.258A3.324,3.324,0,0,0,20.674-7.7a3.324,3.324,0,0,0,.715-1.066,3.333,3.333,0,0,0,.258-1.312,3.333,3.333,0,0,0-.258-1.312,3.324,3.324,0,0,0-.715-1.066,3.324,3.324,0,0,0-1.066-.715,3.333,3.333,0,0,0-1.312-.258H11.568a9.688,9.688,0,0,1-3.914-.8,10.3,10.3,0,0,1-3.2-2.168,10.258,10.258,0,0,1-2.168-3.211A9.771,9.771,0,0,1,1.49-23.531ZM48.58,0h-6.7V-26.883h-10.1v-6.727H58.658v6.727H48.58Z" transform="translate(960 423)" fill="#f5ff00"/>
      <path id="Path_18848" data-name="Path 18848" d="M-29.242,0h-6.7V-26.883h-10.1v-6.727h26.883v6.727H-29.242ZM-6.715,0h-6.727V-33.609h6.727v13.453H6.715V-33.609h6.727V0H6.715V-13.43H-6.715Zm51.59,0H21.836V-33.609H44.875v6.727H28.562v6.727H39.6v6.727H28.562v6.7H44.875Z" transform="translate(960 305)" fill="#f5ff00"/>
    </g>
    <g id="Group_5354" data-name="Group 5354" transform="translate(1144.852 238.446) rotate(90)">
      <g id="Group_5329" data-name="Group 5329" transform="matrix(0.998, -0.07, 0.07, 0.998, 19.028, 62.062)">
        <path id="Path_18829" data-name="Path 18829" d="M2.11,0A2.108,2.108,0,0,0,.791,3.754l11.768,9.423a2.109,2.109,0,1,0,2.636-3.292L3.427.463A2.1,2.1,0,0,0,2.11,0Z" transform="translate(0 0)" fill="#f5ff00"/>
      </g>
      <g id="Group_5330" data-name="Group 5330" transform="matrix(0.998, -0.07, 0.07, 0.998, 187.377, 58.158)">
        <path id="Path_18830" data-name="Path 18830" d="M22.139,1.786a2.1,2.1,0,0,0-1.054.284L1.053,13.68a2.109,2.109,0,1,0,2.111,3.651L23.2,5.72a2.109,2.109,0,0,0-1.057-3.934Z" transform="translate(0 0)" fill="#f5ff00"/>
      </g>
      <g id="Group_5342" data-name="Group 5342" transform="matrix(0.998, -0.07, 0.07, 0.998, 101.257, 0.302)">
        <path id="Path_18842" data-name="Path 18842" d="M2.223,0A2.108,2.108,0,0,0,.115,2.1L0,31.569a2.109,2.109,0,0,0,2.1,2.117h.008a2.109,2.109,0,0,0,2.109-2.1L4.332,2.117A2.108,2.108,0,0,0,2.231,0Z" transform="translate(0)" fill="#f5ff00"/>
      </g>
      <g id="Group_5343" data-name="Group 5343" transform="matrix(0.998, -0.07, 0.07, 0.998, 116.775, 18.13)">
        <path id="Path_18843" data-name="Path 18843" d="M3.864,0A2.109,2.109,0,0,0,1.781,1.8L.024,13.528a2.108,2.108,0,0,0,4.17.625L5.952,2.421A2.109,2.109,0,0,0,4.179.024,2.139,2.139,0,0,0,3.864,0Z" transform="translate(0 0)" fill="#f5ff00"/>
      </g>
      <g id="Group_5344" data-name="Group 5344" transform="matrix(0.998, -0.07, 0.07, 0.998, 48.447, 33.042)">
        <path id="Path_18844" data-name="Path 18844" d="M2.107,0A2.109,2.109,0,0,0,.28,3.158l7.5,13.067a2.109,2.109,0,1,0,3.658-2.1L3.938,1.06A2.107,2.107,0,0,0,2.107,0Z" transform="translate(0 0)" fill="#f5ff00"/>
      </g>
      <g id="Group_5345" data-name="Group 5345" transform="matrix(0.998, -0.07, 0.07, 0.998, 56.648, 12.029)">
        <path id="Path_18845" data-name="Path 18845" d="M2.109,0A2.11,2.11,0,0,0,.145,2.875L10.811,30.206a2.108,2.108,0,1,0,3.928-1.533L4.073,1.343A2.109,2.109,0,0,0,2.109,0Z" transform="translate(0)" fill="#f5ff00"/>
      </g>
      <g id="Group_5346" data-name="Group 5346" transform="matrix(0.998, -0.07, 0.07, 0.998, 149.777, 13.875)">
        <path id="Path_18846" data-name="Path 18846" d="M16.848,0a2.107,2.107,0,0,0-1.825,1.05L.286,26.428a2.109,2.109,0,0,0,3.647,2.118L18.67,3.168A2.109,2.109,0,0,0,16.848,0Z" transform="translate(0 0)" fill="#f5ff00"/>
      </g>
      <g id="Group_5347" data-name="Group 5347" transform="matrix(0.998, -0.07, 0.07, 0.998, 162.494, 28.559)">
        <path id="Path_18847" data-name="Path 18847" d="M16.458,0a2.106,2.106,0,0,0-1.645.788L.465,18.644a2.109,2.109,0,0,0,3.288,2.642L18.1,3.429A2.108,2.108,0,0,0,16.458,0Z" transform="translate(0)" fill="#f5ff00"/>
      </g>
    </g>
    <g id="Group_5355" data-name="Group 5355" transform="translate(862.945 238.446) rotate(90)">
      <g id="Group_5329-2" data-name="Group 5329" transform="matrix(0.998, 0.07, -0.07, 0.998, 19.98, 13.024)">
        <path id="Path_18829-2" data-name="Path 18829" d="M2.11,13.64A2.108,2.108,0,0,1,.791,9.886L12.559.463a2.109,2.109,0,1,1,2.636,3.292L3.427,13.178A2.1,2.1,0,0,1,2.11,13.64Z" transform="translate(0)" fill="#f5ff00"/>
      </g>
      <g id="Group_5330-2" data-name="Group 5330" transform="matrix(0.998, 0.07, -0.07, 0.998, 188.606, 12.964)">
        <path id="Path_18830-2" data-name="Path 18830" d="M21,13.9a2.1,2.1,0,0,1-1.054-.284L1.053,3.934A2.109,2.109,0,0,1,3.165.284l18.9,9.685A2.109,2.109,0,0,1,21,13.9Z" transform="translate(0)" fill="#f5ff00"/>
      </g>
      <g id="Group_5342-2" data-name="Group 5342" transform="matrix(0.998, 0.07, -0.07, 0.998, 103.607, 54.788)">
        <path id="Path_18842-2" data-name="Path 18842" d="M2.223,33.685a2.108,2.108,0,0,1-2.108-2.1L0,2.117A2.109,2.109,0,0,1,2.1,0h.008A2.109,2.109,0,0,1,4.217,2.1l.115,29.468a2.108,2.108,0,0,1-2.1,2.117Z" transform="translate(0 0)" fill="#f5ff00"/>
      </g>
      <g id="Group_5343-2" data-name="Group 5343" transform="matrix(0.998, 0.07, -0.07, 0.998, 117.888, 54.653)">
        <path id="Path_18843-2" data-name="Path 18843" d="M3.864,15.949a2.109,2.109,0,0,1-2.083-1.8L.024,2.421A2.108,2.108,0,0,1,4.194,1.8L5.952,13.528a2.109,2.109,0,0,1-1.773,2.4A2.139,2.139,0,0,1,3.864,15.949Z" transform="translate(0 0)" fill="#f5ff00"/>
      </g>
      <g id="Group_5344-2" data-name="Group 5344" transform="matrix(0.998, 0.07, -0.07, 0.998, 49.653, 38.408)">
        <path id="Path_18844-2" data-name="Path 18844" d="M2.107,17.285A2.109,2.109,0,0,1,.28,14.127L7.777,1.06a2.109,2.109,0,1,1,3.658,2.1l-7.5,13.067A2.107,2.107,0,0,1,2.107,17.285Z" transform="translate(0 0)" fill="#f5ff00"/>
      </g>
      <g id="Group_5345-2" data-name="Group 5345" transform="matrix(0.998, 0.07, -0.07, 0.998, 58.848, 45.192)">
        <path id="Path_18845-2" data-name="Path 18845" d="M2.109,31.549A2.11,2.11,0,0,1,.145,28.674L10.811,1.343a2.108,2.108,0,1,1,3.928,1.533L4.073,30.207A2.109,2.109,0,0,1,2.109,31.549Z" transform="translate(0 0)" fill="#f5ff00"/>
      </g>
      <g id="Group_5346-2" data-name="Group 5346" transform="matrix(0.998, 0.07, -0.07, 0.998, 151.842, 45.294)">
        <path id="Path_18846-2" data-name="Path 18846" d="M16.848,29.6a2.107,2.107,0,0,1-1.825-1.05L.285,3.168A2.109,2.109,0,0,1,3.932,1.05L18.67,26.429A2.109,2.109,0,0,1,16.848,29.6Z" transform="translate(0)" fill="#f5ff00"/>
      </g>
      <g id="Group_5347-2" data-name="Group 5347" transform="matrix(0.998, 0.07, -0.07, 0.998, 164.033, 38.115)">
        <path id="Path_18847-2" data-name="Path 18847" d="M16.458,22.073a2.106,2.106,0,0,1-1.645-.788L.465,3.429A2.109,2.109,0,1,1,3.753.788L18.1,18.644a2.108,2.108,0,0,1-1.643,3.429Z" transform="translate(0 0)" fill="#f5ff00"/>
      </g>
    </g>
  </g>
</svg>
