<svg xmlns="http://www.w3.org/2000/svg" viewBox="0 0 322.35 329.9"><defs><style>.a,.b,.c,.j{fill:none;}.a{opacity:0.37;}.b{stroke:#3b3b3b;}.b,.j{stroke-miterlimit:10;stroke-width:3px;}.d{fill:#054048;}.e{fill:#0094c6;}.f{fill:#0a676b;}.g{fill:#3b3b3b;}.h{fill:#9bd1d1;}.i{fill:#aa0707;}.j{stroke:#d6d6d6;}.k{fill:#d6d6d6;}</style></defs><title>chat</title><rect class="a" x="0.89" y="0.86" width="322.35" height="329.9"/><path class="b" d="M31.84,90.85c-16.21,0-29.36-10.8-29.36-24S15.53,42.87,31.84,42.87,61.19,53.6,61.19,66.82a22,22,0,0,1-8.82,17.09c-.58,4.33,1.9,8.69,6.7,13.21,0,0-19.54-7.15-20.87-6.92A34.91,34.91,0,0,1,31.84,90.85Z"/><path class="b" d="M18.37,79.87a15.63,15.63,0,0,1-7-12.52C11.41,59.55,18,53,26.85,51.2"/><rect class="b" x="67.33" y="151.24" width="185.12" height="111.67"/><path class="c" d="M192.32,99.84V83.9a32.43,32.43,0,1,0-64.86,0V99.84a32.3,32.3,0,0,0,1.65,10.23h61.56A32.3,32.3,0,0,0,192.32,99.84Z"/><rect class="d" x="83.71" y="239.42" width="3.36" height="7.58"/><rect class="e" x="92.53" y="239.42" width="3.36" height="7.58"/><rect class="f" x="101.36" y="239.42" width="3.36" height="7.58"/><path class="g" d="M3.73,291.19H320a1.87,1.87,0,0,0,0-3.67H3.73a1.87,1.87,0,0,0,0,3.67"/><path class="c" d="M170.6,143.17c.81-.5,1.61-1,2.41-1.66a56.17,56.17,0,0,0,18.61-25.35,34.76,34.76,0,0,0,2.21-10.81A23.09,23.09,0,0,0,194,102c-5.44-2.72-10.28-6.37-15.33-9.73L179.81,95l4.32,4h0c-3.62-1.36-7.42-2.48-10.71-4.54a31.79,31.79,0,0,1-7.65-6.93,45.63,45.63,0,0,1-3.46-4.91c-.29-.46-3.05-4.9-2.83-5.09l-1.09,1.33c-.42.59-.83,1.18-1.26,1.75a48.89,48.89,0,0,1-8.86,8.86A59.77,59.77,0,0,1,138,96.3l-4.84,2.34,3.2-3.12a40.6,40.6,0,0,0,7.8-9.09,53.57,53.57,0,0,0,3.68-8l-1.57,2.42a45.46,45.46,0,0,1-9.46,9.53,56.26,56.26,0,0,1-6.7,4.05c-.71.38-6.45,2.72-6.45,3.13,0,3.59-.28,7.19.41,10.73.13.67.27,1.33.43,2a45.4,45.4,0,0,0,2.48,7.38,58.3,58.3,0,0,0,18.15,22.45,28.88,28.88,0,0,0,4.11,2.44v.69l-.11,8h21.55l-.06-5.06Z"/><path class="g" d="M149.22,143.24v-.69a28.88,28.88,0,0,1-4.11-2.44A58.3,58.3,0,0,1,127,117.66a45.4,45.4,0,0,1-2.48-7.38c-.16-.66-.3-1.32-.43-2-.69-3.54-.41-7.14-.41-10.73,0-.41,5.74-2.75,6.45-3.13a56.26,56.26,0,0,0,6.7-4.05,45.46,45.46,0,0,0,9.46-9.53l1.57-2.42a53.57,53.57,0,0,1-3.68,8,40.6,40.6,0,0,1-7.8,9.09l-3.2,3.12L138,96.3a59.77,59.77,0,0,0,10.25-6.87,48.89,48.89,0,0,0,8.86-8.86c.43-.57.84-1.16,1.26-1.75l1.09-1.33c-.22.19,2.54,4.63,2.83,5.09a45.63,45.63,0,0,0,3.46,4.91,31.79,31.79,0,0,0,7.65,6.93c3.29,2.06,7.09,3.18,10.71,4.54h0l-4.32-4-1.19-2.71c5,3.36,9.89,7,15.33,9.73a23.09,23.09,0,0,1-.12,3.33,34.76,34.76,0,0,1-2.21,10.81A56.17,56.17,0,0,1,173,141.51c-.8.61-1.6,1.16-2.41,1.66v3l.06,5.06h36l-5-55.49c0-.9-.06-1.8-.12-2.71-.12-1.86-.33-3.68-.61-5.48l0-.32,0,0c-4-24.64-22.47-42.75-43.36-41.37-11.05.74-20.71,6.79-27.46,16-6.9,1.62-12.2,11.34-12.2,23.11a37.31,37.31,0,0,0,.64,6.89l-5.32,59.34h36Z"/><path class="h" d="M195.87,78.77a36.1,36.1,0,0,0-71.47,0A15.71,15.71,0,0,0,123.23,110c3.85,13.91,13.51,24.69,25.58,28.24a3.62,3.62,0,0,0,3.57,3.15h12.67a3.63,3.63,0,0,0,3.62-3.62v-1.36a3.63,3.63,0,0,0-3.62-3.62H152.38A3.6,3.6,0,0,0,149.7,134a31.53,31.53,0,0,1-15.13-10.15,39.81,39.81,0,0,1-7.39-13.65h2.21l0-.1a32.3,32.3,0,0,1-1.66-10.23V83.9a32.44,32.44,0,1,1,64.87,0V99.84a32.3,32.3,0,0,1-1.66,10.23h3.35v.08a15.73,15.73,0,0,0,1.61-31.38Z"/><path class="i" d="M160.51,172.4c-.22,0-.43,0-.65,0a12.09,12.09,0,0,0-10,18.92,122.76,122.76,0,0,1,10.64-18.88"/><path class="i" d="M157.39,189.5a53.13,53.13,0,0,1,14.52-4.28c0-.26,0-.51,0-.76a12.07,12.07,0,0,0-6-10.46,107.27,107.27,0,0,0-8.52,15.5"/><path class="i" d="M155.49,193.57h-3.56a12.07,12.07,0,0,0,19.54-5.77c-11.27,1.87-16,5.77-16,5.77"/><rect class="j" x="78.07" y="161.63" width="164.05" height="91.41"/><polygon class="k" points="120.6 280.04 137.18 209.95 182.3 209.95 199.18 280.36 120.6 280.04"/><rect class="b" x="108.57" y="280.42" width="102.35" height="8.95"/></svg>