<svg xmlns="http://www.w3.org/2000/svg" viewBox="0 0 322.35 329.9"><defs><style>.a,.d{fill:none;}.a{opacity:0.37;}.b,.h{fill:#3b3b3b;}.c{fill:#d6d6d6;}.d,.e,.h,.i,.j,.k{stroke:#3b3b3b;stroke-miterlimit:10;}.d,.e,.k{stroke-width:3px;}.e,.f,.i{fill:#9bd1d1;}.g{fill:#0094c6;}.h,.i,.j{stroke-width:0.25px;}.j{fill:#fff;}.k{fill:#a4dded;}</style></defs><title>drive</title><rect class="a" x="1.43" y="0.86" width="322.35" height="329.9"/><polygon class="b" points="219.76 128.8 219.76 90.44 197.38 90.44 197.38 115.31 219.55 132.78 219.76 128.8"/><polygon class="c" points="249.62 155.26 249.56 146.74 159.52 74.23 68.97 146.74 68.97 146.76 68.97 146.76 68.97 148.9 68.97 151.85 68.97 151.85 68.97 157.03 78.7 157.03 78.7 151.97 79.6 151.97 159.56 87.63 239.39 152.81 239.81 152.92 239.81 157.03 249.55 157.03 249.55 155.25 249.62 155.26"/><polygon class="c" points="138.45 260.72 106.89 260.72 101.79 289.81 145.3 289.81 138.45 260.72"/><rect class="d" x="108.29" y="211.71" width="28.48" height="49.09"/><polygon class="d" points="77.98 260.76 77.98 151.22 159.58 86.49 241.07 151.97 241.07 261.62 77.98 260.76"/><rect class="e" x="107.47" y="151.02" width="28.5" height="30.73"/><rect class="e" x="165.15" y="151.02" width="45.17" height="30.73"/><path class="f" d="M80.93,181.54a28,28,0,0,0-52.87,0A19,19,0,1,0,42.17,216a28.1,28.1,0,0,0,24.66,0,18.95,18.95,0,1,0,14.1-34.44Z"/><polygon class="b" points="77.09 197.99 58.62 208.26 55.74 177.35 54.5 177.35 54.5 177.35 53.25 177.35 50.38 208.26 31.9 197.99 30.42 199.76 48.94 214.91 48.94 262.03 54.5 262.03 54.5 262.03 60.05 262.03 60.05 214.91 78.57 199.76 77.09 197.99"/><path class="b" d="M4.92,291.08H321.21a1.87,1.87,0,0,0,0-3.67H4.92a1.87,1.87,0,0,0,0,3.67"/><rect class="g" x="127.92" y="228.54" width="3.36" height="7.58"/><path class="h" d="M289.93,296.1l-5.48-10.55-.3-.05-21-3.49L243.3,268.78l-51.48-.21L183.38,288v12.75l15.77,5.91a10.21,10.21,0,0,0,19,.11h44.81a10.23,10.23,0,0,0,19.13-.5l7.88-3.89Zm-24.32,6.8a6.76,6.76,0,1,1,6.77,6.76A6.77,6.77,0,0,1,265.61,302.9Zm-63.71,0a6.76,6.76,0,1,1,6.76,6.76A6.76,6.76,0,0,1,201.9,302.9Zm-15-4.54v-9.6l7.23-16.68,48.13.2,19.62,13.06,20.29,3.38,4.28,8.24v3.27l-3.83,1.89a10.26,10.26,0,0,0-20.49.78c0,.13,0,.26,0,.4H218.9c0-.14,0-.27,0-.4a10.26,10.26,0,0,0-20.51-.23Z"/><path class="i" d="M261.84,285.34l-19.62-13.06-48.12-.2-7.24,16.68v9.6l11.53,4.31a10.26,10.26,0,0,1,20.51.23c0,.13,0,.26,0,.4h43.23c0-.14,0-.27,0-.4a10.26,10.26,0,0,1,20.49-.78l3.83-1.88V297l-4.28-8.24Z"/><circle class="j" cx="272.27" cy="303.01" r="6.78"/><circle class="j" cx="208.58" cy="302.91" r="6.78"/><circle class="d" cx="31.42" cy="71.38" r="28.4"/><circle class="d" cx="31.42" cy="71.38" r="17.04"/><circle class="d" cx="31.42" cy="71.38" r="5.68"/><line class="d" x1="31.42" y1="65.7" x2="31.42" y2="54.34"/><line class="d" x1="26.01" y1="69.63" x2="15.21" y2="66.11"/><line class="d" x1="28.08" y1="75.98" x2="21.4" y2="85.17"/><line class="d" x1="34.76" y1="75.98" x2="41.43" y2="85.17"/><line class="d" x1="36.82" y1="69.63" x2="47.62" y2="66.11"/><rect class="e" x="165.1" y="211.71" width="45.17" height="30.73"/><line class="e" x1="187.69" y1="211.41" x2="187.69" y2="242.1"/><line class="e" x1="164.75" y1="226.75" x2="210.63" y2="226.75"/><line class="k" x1="187.69" y1="150.9" x2="187.69" y2="181.59"/><line class="k" x1="164.75" y1="166.25" x2="210.63" y2="166.25"/></svg>