<svg xmlns="http://www.w3.org/2000/svg" width="32.104" height="42.689" viewBox="0 0 32.104 42.689">
  <g id="Group_314" data-name="Group 314" transform="translate(1.5 1.5)">
    <path id="Path_460" data-name="Path 460" d="M30.753,40.182l-10.9-7.923a2.647,2.647,0,0,0-3.112,0l-10.9,7.923a1.323,1.323,0,0,1-2.1-1.067V3.4A2.647,2.647,0,0,1,6.4.75H30.208A2.647,2.647,0,0,1,32.854,3.4V39.115a1.324,1.324,0,0,1-2.1,1.067Z" transform="translate(-3.75 -0.75)" fill="none" stroke="#0094c6" stroke-linecap="round" stroke-linejoin="round" stroke-width="3"/>
    <path id="Path_461" data-name="Path 461" d="M22.8,7.811l-9.649,9.647a1.321,1.321,0,0,1-1.868,0l0,0L8.25,14.426" transform="translate(-0.312 4.644)" fill="none" stroke="#0094c6" stroke-linecap="round" stroke-linejoin="round" stroke-width="3"/>
  </g>
</svg>
