<svg xmlns="http://www.w3.org/2000/svg" viewBox="0 0 322.35 329.9"><defs><style>.a,.c,.k{fill:none;}.a{opacity:0.37;}.b{fill:#3b3b3b;}.c{stroke:#3b3b3b;}.c,.k{stroke-miterlimit:10;stroke-width:3px;}.d{fill:#d6d6d6;}.e{fill:#aad6d5;}.f{fill:#9bd1d1;}.g{fill:#054048;}.h{fill:#0094c6;}.i{fill:#0a676b;}.j{fill:#aa0707;}.k{stroke:#d6d6d6;}</style></defs><title>search</title><rect class="a" y="0.16" width="322.35" height="329.9"/><path class="b" d="M62.46,99.07,46.7,83.31a1.45,1.45,0,0,0-1-.42H44.4A25,25,0,1,0,43,84.32v1.24a1.54,1.54,0,0,0,.42,1l15.76,15.76a1.48,1.48,0,0,0,2.08,0l1.21-1.21A1.48,1.48,0,0,0,62.46,99.07ZM25.75,87.15a21.5,21.5,0,1,1,21.5-21.5A21.48,21.48,0,0,1,25.75,87.15Z"/><polygon class="c" points="67.01 236.39 253.68 236.39 278.61 281.34 43.65 281.34 67.01 236.39"/><polygon class="c" points="279.72 289.24 42.64 289.24 42.64 281.34 278.7 281.34 279.72 281.34 279.72 282.57 279.72 289.24"/><rect class="c" x="66.87" y="115.44" width="186.81" height="120.96"/><polygon class="d" points="122.58 276.62 125.8 265.06 195.67 265.06 199.25 276.43 122.58 276.62"/><polygon class="e" points="67.8 261.49 78.47 241.21 244.24 241.21 254.46 261.68 67.8 261.49"/><path class="b" d="M204.68,186.25,199.87,177l-.27-.05-18.4-3.06-17.43-11.6-45.15-.19-7.41,17.07v11.19l13.84,5.18a9,9,0,0,0,16.63.09H181a9,9,0,0,0,16.78-.44l6.92-3.41Zm-21.34,6a5.93,5.93,0,1,1,5.93,5.93A5.94,5.94,0,0,1,183.34,192.21Zm-55.89,0a5.93,5.93,0,1,1,5.93,5.93A5.95,5.95,0,0,1,127.45,192.21Zm-13.17-4v-8.42l6.35-14.63,42.21.17,17.21,11.46,17.8,3L201.6,187v2.87l-3.36,1.66a9,9,0,0,0-18,.68c0,.12,0,.23,0,.35H142.37c0-.12,0-.23,0-.35a9,9,0,0,0-18-.2Z"/><path class="f" d="M180,176.81l-17.21-11.46-42.21-.17-6.35,14.63v8.42L124.38,192a9,9,0,0,1,18,.2c0,.12,0,.23,0,.35h37.92c0-.12,0-.23,0-.35a9,9,0,0,1,18-.68l3.37-1.66V187l-3.76-7.23Z"/><circle class="g" cx="84.48" cy="132.82" r="2.36"/><circle class="h" cx="93.4" cy="132.82" r="2.36"/><circle class="i" cx="102.33" cy="132.82" r="2.36"/><path class="j" d="M228.66,130.49l-.57,0a10.6,10.6,0,0,0-8.76,16.58,109.09,109.09,0,0,1,9.33-16.56"/><path class="j" d="M225.93,145.5a46.62,46.62,0,0,1,12.74-3.76c0-.22,0-.44,0-.67a10.59,10.59,0,0,0-5.3-9.17,94,94,0,0,0-7.47,13.6"/><path class="j" d="M224.26,149.07h-3.13A10.6,10.6,0,0,0,238.28,144c-9.89,1.63-14,5.06-14,5.06"/><path class="b" d="M232,212.85H226.5l2.91,7.07a1,1,0,0,1-.49,1.25l-2.56,1.12a.93.93,0,0,1-1.22-.51l-2.76-6.72-4.51,4.64a.92.92,0,0,1-1.57-.67V196.67a.92.92,0,0,1,1.57-.67l14.8,15.23a1,1,0,0,1-.65,1.62Z"/><rect class="k" x="75.3" y="124.55" width="169.79" height="103.15"/><path class="b" d="M3,291.63H319.32a1.87,1.87,0,0,0,0-3.67H3a1.87,1.87,0,0,0,0,3.67"/></svg>