<svg xmlns="http://www.w3.org/2000/svg" width="40.015" height="45.822" viewBox="0 0 40.015 45.822">
  <g id="Group_204" data-name="Group 204" transform="translate(1.5 1.619)">
    <path id="Path_467" data-name="Path 467" d="M39.265,37.762H2.25V15.648a2.847,2.847,0,0,1,1.11-2.257L19.021,1.345a2.848,2.848,0,0,1,3.474,0l15.66,12.046a2.847,2.847,0,0,1,1.11,2.257Z" transform="translate(-2.25 -0.754)" fill="none" stroke="#0094c6" stroke-linecap="round" stroke-linejoin="round" stroke-width="3"/>
    <line id="Line_56" data-name="Line 56" x2="37.015" transform="translate(0 42.703)" fill="none" stroke="#0094c6" stroke-linecap="round" stroke-linejoin="round" stroke-width="3"/>
    <path id="Path_468" data-name="Path 468" d="M17.05,7.585l2.371,4.666h4.038a1.1,1.1,0,0,1,.8,1.9L20.547,17.8,22.6,22.514a1.118,1.118,0,0,1-1.593,1.4l-4.964-2.8L11.08,23.9a1.118,1.118,0,0,1-1.593-1.4l2.054-4.717L7.834,14.141a1.105,1.105,0,0,1,.8-1.9h4.038l2.371-4.658a1.127,1.127,0,0,1,2.012,0Z" transform="translate(2.464 4.826)" fill="none" stroke="#0094c6" stroke-linecap="round" stroke-linejoin="round" stroke-width="3"/>
  </g>
</svg>
