<svg xmlns="http://www.w3.org/2000/svg" viewBox="0 0 61.55 39.31"><defs><style>.a{fill:#fff;}</style></defs><title>submit</title><path class="a" d="M10.15,22a1.84,1.84,0,0,0,.33.89,1.93,1.93,0,0,0,1.54.53,3.16,3.16,0,0,0,1.06-.14,1,1,0,0,0,.77-1,.73.73,0,0,0-.38-.66,4.19,4.19,0,0,0-1.2-.41l-.93-.2a6.33,6.33,0,0,1-1.9-.66,2.12,2.12,0,0,1-.87-1.87,2.5,2.5,0,0,1,.85-1.93,3.66,3.66,0,0,1,2.51-.77,3.79,3.79,0,0,1,2.36.73,2.56,2.56,0,0,1,1,2.1H13.58a1.23,1.23,0,0,0-.7-1.11,2.29,2.29,0,0,0-1.07-.22,2.09,2.09,0,0,0-1.14.28.89.89,0,0,0-.43.79.74.74,0,0,0,.42.69,5.4,5.4,0,0,0,1.15.36l1.51.35a3.92,3.92,0,0,1,1.5.63,2.14,2.14,0,0,1,.77,1.76,2.46,2.46,0,0,1-.92,2,3.84,3.84,0,0,1-2.58.78,4.17,4.17,0,0,1-2.68-.77,2.55,2.55,0,0,1-1-2.12Z"/><path class="a" d="M16.86,16h1.83v5.31a3,3,0,0,0,.21,1.3,1.39,1.39,0,0,0,1.42.72,1.38,1.38,0,0,0,1.42-.72,3,3,0,0,0,.21-1.3V16h1.84v5.31a4.55,4.55,0,0,1-.43,2.15,3.19,3.19,0,0,1-3,1.4,3.21,3.21,0,0,1-3-1.4,4.56,4.56,0,0,1-.42-2.15Z"/><path class="a" d="M32,16.9a2.18,2.18,0,0,1,.4,1.32,1.9,1.9,0,0,1-.4,1.27,2.11,2.11,0,0,1-.66.5,1.94,1.94,0,0,1,1,.76A2.3,2.3,0,0,1,32.63,22a2.52,2.52,0,0,1-.38,1.38,2.35,2.35,0,0,1-.61.68,2.43,2.43,0,0,1-1,.43,5.8,5.8,0,0,1-1.22.12H25.55V16h4.17A2.68,2.68,0,0,1,32,16.9Zm-4.69.58v1.91h2.1a1.69,1.69,0,0,0,.92-.22.81.81,0,0,0,.35-.75.78.78,0,0,0-.47-.8,3.17,3.17,0,0,0-1-.14Zm0,3.34v2.3h2.1a2.08,2.08,0,0,0,.88-.15,1.1,1.1,0,0,0,.56-1.08.93.93,0,0,0-.55-.93,2.16,2.16,0,0,0-.86-.14Z"/><path class="a" d="M39.92,16h2.59v8.64H40.83V18.78c0-.17,0-.4,0-.71v-.7l-1.63,7.25H37.45l-1.62-7.25v.7c0,.31,0,.54,0,.71v5.84H34.16V16h2.62l1.58,6.79Z"/><path class="a" d="M45.83,24.62H44V16h1.79Z"/><path class="a" d="M53.79,16v1.53H51.21v7.11H49.39V17.51H46.8V16Z"/><polygon class="a" points="60.5 38.31 60.5 37.31 2.09 37.31 2.09 2 59.46 2 59.46 38.31 60.5 38.31 60.5 37.31 60.5 38.31 61.55 38.31 61.55 0 0 0 0 39.31 61.55 39.31 61.55 38.31 60.5 38.31"/></svg>