<svg xmlns="http://www.w3.org/2000/svg" viewBox="0 0 223.67 55.03"><defs><style>.a,.b{fill:#fff;}.b{font-size:17.12px;font-family:Poppins-SemiBold, Poppins;font-weight:700;letter-spacing:0.08em;}</style></defs><title>full_screen</title><path d="M0,0H223.67a0,0,0,0,1,0,0V30.2A24.83,24.83,0,0,1,198.84,55h-174A24.83,24.83,0,0,1,0,30.2V0A0,0,0,0,1,0,0Z"/><polygon class="a" points="182.56 20.09 187.98 14.67 185.87 12.56 192.4 12.56 192.4 19.12 190.26 16.98 184.91 22.34 182.56 20.09"/><polygon class="a" points="184.87 28.88 190.29 34.3 192.4 32.2 192.4 38.72 185.85 38.72 187.98 36.59 182.63 31.23 184.87 28.88"/><polygon class="a" points="176.07 20.09 170.65 14.67 172.75 12.56 166.23 12.56 166.23 19.12 168.36 16.98 173.72 22.34 176.07 20.09"/><polygon class="a" points="173.76 28.86 168.34 34.29 166.23 32.18 166.23 38.71 172.78 38.71 170.65 36.57 176 31.22 173.76 28.86"/><text class="b" transform="translate(31.27 32.25)">FULLSCREEN</text></svg>