<svg xmlns="http://www.w3.org/2000/svg" viewBox="0 0 15.54 32.17"><defs><style>.a{fill:#3a3a3a;}</style></defs><title>_icon</title><path class="a" d="M12.25,18.68a2.41,2.41,0,0,0,2.4-2.41V15.9a2.42,2.42,0,0,0-2.4-2.41H10.37V10.68h1V9.51h-1V4.89h1V3.72h-1V3a3,3,0,0,0-3-3h0a3,3,0,0,0-3,3v10.5H2.41A2.42,2.42,0,0,0,0,15.9v.37a2.41,2.41,0,0,0,2.41,2.41H4.34v10.5a3,3,0,0,0,3,3h0a3,3,0,0,0,3-3v-.87h1V27.14h-1V22.69h1V21.52h-1V18.68ZM5.51,3A1.83,1.83,0,0,1,7.33,1.17h0A1.84,1.84,0,0,1,9.2,3v10.5H7.93V7.79H6.76v5.7H5.51ZM9.2,29.18A1.85,1.85,0,0,1,7.37,31h0a1.84,1.84,0,0,1-1.82-1.83V18.68H6.79v1.75H8V18.68H9.2Z"/><path class="a" d="M13.73,4.66h.38a3,3,0,0,0,.6,0l.3-.13a.73.73,0,0,0,.24-.28,1,1,0,0,0,.1-.45.88.88,0,0,0-.17-.55.71.71,0,0,0-.41-.28,3.16,3.16,0,0,0-.69,0h-.93V5.74h.58Zm0-1.3H14a2.08,2.08,0,0,1,.42,0l.23.12.09.26L14.69,4l-.19.14a1.35,1.35,0,0,1-.45,0h-.32Z"/><path class="a" d="M13.54,10.33h.12a1,1,0,0,1,.29,0l.17.12a3.75,3.75,0,0,1,.31.42l.42.62h.69L15.19,11a3.38,3.38,0,0,0-.33-.47,1.28,1.28,0,0,0-.31-.24.89.89,0,0,0,.56-.26.76.76,0,0,0,.19-.54A.84.84,0,0,0,15.18,9a.66.66,0,0,0-.33-.27,2.12,2.12,0,0,0-.67-.08H13v2.86h.58Zm0-1.18h.87l.22.11.08.23-.06.22-.16.12a2.57,2.57,0,0,1-.52,0h-.43Z"/><path class="a" d="M15.08,26.61a.91.91,0,0,0-.43-.26,1.87,1.87,0,0,0-.54-.06H13.05v2.87h1.09a1.74,1.74,0,0,0,.51-.07,1,1,0,0,0,.4-.22,1.19,1.19,0,0,0,.31-.51,1.82,1.82,0,0,0,.09-.61,2.24,2.24,0,0,0-.09-.68A1.42,1.42,0,0,0,15.08,26.61Zm-.29,1.64a.66.66,0,0,1-.15.28l-.23.12-.35,0h-.43V26.78h.26l.47,0a.58.58,0,0,1,.27.14.63.63,0,0,1,.16.28,1.6,1.6,0,0,1,.06.51A1.81,1.81,0,0,1,14.79,28.25Z"/><polygon class="a" points="13.68 20.67 13.11 20.67 13.11 23.54 13.65 23.54 13.65 21.67 14.8 23.54 15.38 23.54 15.38 20.67 14.85 20.67 14.85 22.58 13.68 20.67"/></svg>