<svg xmlns="http://www.w3.org/2000/svg" viewBox="0 0 27.24 33"><defs><style>.a{fill:#066c72;}</style></defs><title>icons</title><path class="a" d="M26.57,28.42l.61-.12a5.56,5.56,0,0,0-.72-1.65,11.87,11.87,0,0,0-1.85-2.53,4.1,4.1,0,0,0-2.88-1.32h-.08a6.2,6.2,0,0,0-2.78,1,4.77,4.77,0,0,1-2.18.79H16.6a5.13,5.13,0,0,1-3-1.62A15.27,15.27,0,0,1,11.21,20L8.08,15l-.52.33L8.1,15c-.19-.34-.43-.68-.63-1a2.69,2.69,0,0,1-.38-.82l0-.26a2.55,2.55,0,0,1,.6-1.5A5,5,0,0,1,9,10.26a7,7,0,0,0,1.93-1.49,3,3,0,0,0,.69-1.95,4.7,4.7,0,0,0-.05-.63A11.66,11.66,0,0,0,10.2,2.92,6.74,6.74,0,0,0,8.73.81,3,3,0,0,0,6.65,0,5.66,5.66,0,0,0,4,.79,7.22,7.22,0,0,0,1.73,3,9.22,9.22,0,0,0,.32,5.73,9.24,9.24,0,0,0,0,8.26a23.16,23.16,0,0,0,2.17,8.66,31.84,31.84,0,0,0,8.09,11.34A17.67,17.67,0,0,0,21.54,33h.09a6.83,6.83,0,0,0,3.77-.94,3.89,3.89,0,0,0,1.84-3.16,3.05,3.05,0,0,0-.06-.6l-.61.12-.61.13a1.34,1.34,0,0,1,0,.35A2.72,2.72,0,0,1,24.73,31a5.75,5.75,0,0,1-3.1.74h-.09a16.52,16.52,0,0,1-10.47-4.44,30.67,30.67,0,0,1-7.76-10.9A21.89,21.89,0,0,1,1.24,8.26a8.19,8.19,0,0,1,.27-2.2A8.2,8.2,0,0,1,2.73,3.7,6.24,6.24,0,0,1,4.61,1.88a4.5,4.5,0,0,1,2-.64,1.76,1.76,0,0,1,1.26.5A5.59,5.59,0,0,1,9.09,3.47,10.68,10.68,0,0,1,10.3,6.38a2.39,2.39,0,0,1,0,.44A1.72,1.72,0,0,1,9.93,8,6.23,6.23,0,0,1,8.32,9.21,6,6,0,0,0,6.68,10.7a3.79,3.79,0,0,0-.85,2.24,2.7,2.7,0,0,0,0,.49,3.88,3.88,0,0,0,.55,1.24c.22.36.46.7.59.95H7v0l1.52,2.43c.77,1.22,1.55,2.48,1.62,2.58a16.78,16.78,0,0,0,2.61,3.2,6.35,6.35,0,0,0,3.77,1.95h.14a5.83,5.83,0,0,0,2.78-.95A5.11,5.11,0,0,1,21.68,24h.05a2.91,2.91,0,0,1,2,1,10.92,10.92,0,0,1,1.64,2.26A4.14,4.14,0,0,1,26,28.55Z"/></svg>