<svg xmlns="http://www.w3.org/2000/svg" viewBox="0 0 52.43 26.72"><defs><style>.a{fill:#074241;}.b{fill:none;}.c{fill:#595959;}</style></defs><title>1</title><path class="a" d="M10.44,10.23c-.25,0-.25-.73-.25-.73a3.66,3.66,0,0,0,.9-1.72c.43,0,.7-1,.26-1.41,0-.39.56-3-2.17-3S7,6,7,6.37c-.44.37-.17,1.41.26,1.41a3.56,3.56,0,0,0,.9,1.72s0,.69-.25.73c-.81.12-3.83,1.46-3.83,2.92H14.27C14.27,11.69,11.25,10.35,10.44,10.23Z"/><path class="a" d="M18,9.18h-.35a8.47,8.47,0,1,1-2.48-6,8.47,8.47,0,0,1,2.48,6h.71a9.19,9.19,0,1,0-9.19,9.19,9.18,9.18,0,0,0,9.19-9.19Z"/><polygon class="b" points="24.5 14.54 20.07 16.07 24.43 16.54 36.42 16.62 32.45 14.6 24.5 14.54"/><circle class="b" cx="18.24" cy="23.37" r="2.35"/><path class="a" d="M21.53,24a2.91,2.91,0,0,0,.06-.6h-1A2.35,2.35,0,1,1,18.24,21a2.35,2.35,0,0,1,2.35,2.35h1a3.35,3.35,0,0,0-6.7,0c0,.09,0,.17,0,.26h.33v1h-.1a3.33,3.33,0,0,0,6,.34H21V24Z"/><path class="c" d="M21,24v1h.21a3.33,3.33,0,0,0,.37-1Z"/><path class="c" d="M42.6,24h-.76a3,3,0,0,0,.39,1h.37Z"/><path class="a" d="M12.53,23.63l.15.19-.39.31v-.5h.24l-1.74-2.14.29-1.71c-.34.06-.69.1-1,.13l-.32,1.85,2.33,2.87h3.09a3.32,3.32,0,0,1-.23-1Z"/><path class="a" d="M21.53,24a3.33,3.33,0,0,1-.37,1H42.23a3,3,0,0,1-.39-1Z"/><circle class="b" cx="45.12" cy="23.3" r="2.35"/><circle class="b" cx="45.12" cy="23.3" r="2.35"/><path class="a" d="M48.47,23.3a3.35,3.35,0,1,0-6.7,0,2.93,2.93,0,0,0,.07.67h.76v1h-.37A3.32,3.32,0,0,0,48,25h0V24h.43A3.22,3.22,0,0,0,48.47,23.3Zm-3.35,2.36a2.36,2.36,0,1,1,2.35-2.36A2.36,2.36,0,0,1,45.12,25.66Z"/><path class="a" d="M51.8,19.47,50,17.86l-9.56-2.39-7.53-3.53-8.74-.12-4.3,1.33a10.86,10.86,0,0,1-.68,1.26l5.12-1.58,8.37.11,7.42,3.47,9.42,2.36L50.85,20l.46,4H48.39a3.44,3.44,0,0,1-.4,1l4.44,0Z"/><path class="c" d="M12.29,24.13l.39-.31-.15-.19h-.24Z"/><path class="c" d="M15.24,23.63h-.33a3.32,3.32,0,0,0,.23,1h.1Z"/><path class="c" d="M48,24v1h0a3.44,3.44,0,0,0,.4-1Z"/><polygon class="a" points="38.53 17.14 37.59 16.66 37.48 16.88 37.36 17.1 36.42 16.62 24.43 16.54 20.07 16.07 24.5 14.54 32.45 14.6 36.42 16.62 37.48 16.63 37.48 16.88 37.59 16.66 32.58 14.1 24.42 14.04 17.79 16.34 24.4 17.04 38.53 17.14"/><polygon class="c" points="36.42 16.62 37.36 17.1 37.48 16.88 37.48 16.63 36.42 16.62"/><polygon class="a" points="12.17 24.2 12.25 23.63 12.59 23.63 12.73 23.9 12.32 24.2 12.17 24.2"/><polygon class="a" points="15.27 24.65 15.14 24.63 14.69 24.07 14.91 23.63 15.3 23.63 15.27 24.65"/><polygon class="a" points="21.16 24.98 20.86 24.98 20.77 23.53 21.53 23.98 21.61 24.54 21.16 24.98"/><polygon class="a" points="41.84 23.98 42.53 23.73 42.86 24.28 42.81 25.3 42.23 24.98 41.77 24.54 41.84 23.98"/><polygon class="a" points="48.47 24.02 47.75 24.02 47.8 25.09 47.99 25.02 48.47 24.55 48.47 24.02"/><polygon class="a" points="36.42 16.62 37.48 16.63 37.79 17 37.36 17.1 36.42 16.62"/></svg>