<?xml version="1.0" encoding="UTF-8" standalone="no"?><!DOCTYPE svg PUBLIC "-//W3C//DTD SVG 1.1//EN" "http://www.w3.org/Graphics/SVG/1.1/DTD/svg11.dtd"><svg width="100%" height="100%" viewBox="0 0 245 165" version="1.1" xmlns="http://www.w3.org/2000/svg" xmlns:xlink="http://www.w3.org/1999/xlink" xml:space="preserve" xmlns:serif="http://www.serif.com/" style="fill-rule:evenodd;clip-rule:evenodd;stroke-linejoin:round;stroke-miterlimit:1.41421;"><path d="M213.744,71.437c1.006,-4.256 1.681,-8.643 1.681,-13.225c0,-32.15 -26.062,-58.212 -58.212,-58.212c-20.019,0 -37.544,10.206 -48.007,25.587c-7.668,-5.125 -16.8,-8.275 -26.725,-8.268c-26.75,0 -48.431,21.687 -48.437,48.437c0,1.556 0.225,2.994 0.381,4.469c-19.881,6.037 -34.412,24.312 -34.425,46.162c0.006,25.125 19.15,45.682 43.625,48.113l0,0.294l4.063,0l0.568,0.031l0.188,0.006l0.762,-0.037l150.538,0l0,-0.213c24.987,-1.931 44.675,-22.756 44.675,-48.237c-0.006,-20.457 -12.744,-37.807 -30.675,-44.907" style="fill:#3a3a3a;fill-rule:nonzero;"/><path d="M92.556,70.678c-0.8,-1.287 -1.807,-2.419 -3.007,-3.387c-1.2,-0.975 -2.556,-1.732 -4.075,-2.275c-1.512,-0.544 -3.1,-0.813 -4.762,-0.813c-3.031,0 -5.606,0.588 -7.719,1.756c-2.112,1.175 -3.831,2.744 -5.144,4.719c-1.318,1.975 -2.275,4.219 -2.881,6.738c-0.594,2.512 -0.9,5.112 -0.9,7.806c0,2.569 0.306,5.075 0.9,7.5c0.606,2.437 1.563,4.625 2.881,6.569c1.313,1.943 3.032,3.5 5.144,4.675c2.113,1.175 4.688,1.756 7.719,1.756c4.125,0 7.337,-1.256 9.656,-3.775c2.313,-2.513 3.731,-5.831 4.244,-9.95l13.044,0c-0.344,3.831 -1.238,7.294 -2.663,10.381c-1.431,3.088 -3.319,5.719 -5.662,7.888c-2.344,2.181 -5.088,3.837 -8.232,4.981c-3.15,1.137 -6.612,1.712 -10.387,1.712c-4.688,0 -8.906,-0.812 -12.65,-2.443c-3.75,-1.632 -6.906,-3.869 -9.481,-6.732c-2.575,-2.862 -4.544,-6.225 -5.919,-10.081c-1.375,-3.862 -2.056,-8.019 -2.056,-12.481c0,-4.575 0.681,-8.825 2.056,-12.738c1.375,-3.918 3.344,-7.337 5.919,-10.256c2.575,-2.919 5.731,-5.206 9.481,-6.862c3.744,-1.657 7.962,-2.488 12.65,-2.488c3.381,0 6.569,0.481 9.569,1.456c3,0.975 5.687,2.394 8.062,4.244c2.375,1.863 4.338,4.163 5.881,6.913c1.538,2.743 2.519,5.887 2.913,9.437l-13.038,0c-0.231,-1.544 -0.743,-2.962 -1.543,-4.25" style="fill:#fff;fill-rule:nonzero;"/><path d="M128.542,92.724c0.6,2.431 1.562,4.625 2.875,6.569c1.312,1.943 3.031,3.5 5.15,4.668c2.112,1.175 4.687,1.763 7.719,1.763c3.031,0 5.606,-0.588 7.718,-1.763c2.119,-1.168 3.832,-2.725 5.15,-4.668c1.313,-1.944 2.275,-4.138 2.875,-6.569c0.6,-2.431 0.9,-4.931 0.9,-7.506c0,-2.688 -0.3,-5.288 -0.9,-7.807c-0.6,-2.518 -1.562,-4.756 -2.875,-6.731c-1.318,-1.975 -3.031,-3.544 -5.15,-4.719c-2.112,-1.175 -4.687,-1.756 -7.718,-1.756c-3.032,0 -5.607,0.581 -7.719,1.756c-2.119,1.175 -3.838,2.744 -5.15,4.719c-1.313,1.975 -2.275,4.213 -2.875,6.731c-0.6,2.519 -0.9,5.119 -0.9,7.807c0,2.575 0.3,5.075 0.9,7.506m-12.306,-20.244c1.368,-3.912 3.343,-7.337 5.918,-10.25c2.575,-2.919 5.732,-5.206 9.475,-6.862c3.75,-1.663 7.969,-2.488 12.657,-2.488c4.743,0 8.981,0.825 12.693,2.488c3.719,1.656 6.863,3.943 9.444,6.862c2.569,2.913 4.544,6.338 5.913,10.25c1.381,3.919 2.062,8.163 2.062,12.738c0,4.462 -0.681,8.625 -2.062,12.481c-1.369,3.862 -3.344,7.225 -5.913,10.087c-2.581,2.857 -5.725,5.1 -9.444,6.732c-3.712,1.631 -7.95,2.443 -12.693,2.443c-4.688,0 -8.907,-0.812 -12.657,-2.443c-3.743,-1.632 -6.9,-3.875 -9.475,-6.732c-2.575,-2.862 -4.55,-6.225 -5.918,-10.087c-1.375,-3.856 -2.063,-8.019 -2.063,-12.481c0,-4.575 0.688,-8.819 2.063,-12.738" style="fill:#fff;fill-rule:nonzero;"/><path d="M171.935,111.867c0.481,-1.556 1.206,-2.906 2.169,-4.068c0.968,-1.157 2.175,-2.063 3.643,-2.713c1.463,-0.644 3.138,-0.969 5.038,-0.969c1.45,0 2.825,0.225 4.137,0.675c1.313,0.45 2.463,1.1 3.457,1.944c0.993,0.844 1.787,1.881 2.375,3.119c0.593,1.237 0.887,2.625 0.887,4.162c0,1.594 -0.262,2.969 -0.769,4.113c-0.512,1.144 -1.193,2.162 -2.037,3.05c-0.844,0.894 -1.8,1.7 -2.875,2.419c-1.063,0.725 -2.144,1.443 -3.231,2.15c-1.082,0.706 -2.138,1.475 -3.163,2.281c-1.025,0.819 -1.931,1.769 -2.719,2.85l14.969,0l0,5.519l-23.237,0c0,-1.844 0.262,-3.438 0.793,-4.794c0.525,-1.363 1.238,-2.569 2.144,-3.644c0.906,-1.069 1.969,-2.05 3.188,-2.956c1.218,-0.906 2.512,-1.825 3.868,-2.756c0.694,-0.488 1.432,-0.975 2.213,-1.475c0.787,-0.494 1.5,-1.044 2.15,-1.65c0.65,-0.607 1.194,-1.282 1.625,-2.038c0.437,-0.75 0.656,-1.606 0.656,-2.575c0,-1.537 -0.444,-2.737 -1.331,-3.594c-0.888,-0.856 -2.025,-1.287 -3.413,-1.287c-0.937,0 -1.731,0.219 -2.375,0.656c-0.65,0.438 -1.168,1.006 -1.562,1.719c-0.394,0.706 -0.669,1.487 -0.838,2.35c-0.162,0.862 -0.243,1.712 -0.243,2.556l-6.157,0c-0.056,-1.812 0.15,-3.487 0.638,-5.044" style="fill:#fff;fill-rule:nonzero;"/></svg>