<svg xmlns="http://www.w3.org/2000/svg" viewBox="0 0 31.19 32.12"><defs><style>.a{fill:#3a3a3a;}</style></defs><title>_icon</title><path class="a" d="M18.12,0h-14A1.92,1.92,0,0,0,2.19,1.92V7A1.92,1.92,0,0,0,4.11,8.92h14A1.92,1.92,0,0,0,20,7V1.92A1.92,1.92,0,0,0,18.12,0Zm.53,7a.53.53,0,0,1-.53.53h-14A.53.53,0,0,1,3.58,7V1.92a.53.53,0,0,1,.53-.53h14a.53.53,0,0,1,.53.53Z"/><path class="a" d="M31.19,3l-.88-.88L29.19,3.2,27.88,4.51,27,5.4,25.56,6.84,24.32,8.07v2.71a2,2,0,0,0,.05.43,2.14,2.14,0,0,0,1.39,1.6V26.93a1.1,1.1,0,0,1-2.19,0V22.08h0V20.81a2.48,2.48,0,0,0-2.49-2.46V12.91A3.06,3.06,0,0,0,18,9.85H4.23a3.06,3.06,0,0,0-3.06,3.06V30.73H0v1.39H22.21V30.73H21.08v-11a1.09,1.09,0,0,1,1.08,1.07v1.38h0v4.74a2.51,2.51,0,0,0,5,0V12.82a2.15,2.15,0,0,0,1.43-1.61,3,3,0,0,0,0-.43V6.15a2.61,2.61,0,0,0-.09-.57L30.94,3.2ZM2.56,30.73V12.91a1.67,1.67,0,0,1,1.67-1.67H18a1.68,1.68,0,0,1,1.67,1.67V30.73Zm24.85-20a.89.89,0,0,1-.12.43.9.9,0,0,1-1.61,0,.89.89,0,0,1-.12-.43V8.58l1.85-1.85Z"/><path class="a" d="M8.29,16.43h2.86a5.51,5.51,0,0,1,1.47.15,2.57,2.57,0,0,1,1.17.71,3.5,3.5,0,0,1,.74,1.26,5.7,5.7,0,0,1,.25,1.83A5,5,0,0,1,14.54,22a3.41,3.41,0,0,1-.83,1.37,2.79,2.79,0,0,1-1.09.62,4.77,4.77,0,0,1-1.39.16H8.29Zm1.56,1.31v5.14H11a4.2,4.2,0,0,0,1-.08,1.45,1.45,0,0,0,.63-.32,1.74,1.74,0,0,0,.41-.75,5.35,5.35,0,0,0,.15-1.42A4.88,4.88,0,0,0,13,18.93a1.83,1.83,0,0,0-.45-.75,1.45,1.45,0,0,0-.72-.36,6.92,6.92,0,0,0-1.29-.08Z"/></svg>