<svg xmlns="http://www.w3.org/2000/svg" viewBox="0 0 28.47 31.93"><defs><style>.a{fill:#3a3a3a;}</style></defs><title>_icon</title><path class="a" d="M18,0H4.09a1.9,1.9,0,0,0-1.9,1.91V7a1.91,1.91,0,0,0,1.9,1.91H18A1.92,1.92,0,0,0,19.93,7v-5A1.9,1.9,0,0,0,18,0Zm.53,7a.53.53,0,0,1-.53.52H4.09A.53.53,0,0,1,3.57,7v-5a.53.53,0,0,1,.52-.53H18a.53.53,0,0,1,.53.53Z"/><path class="a" d="M27.76,7.39V5.84H26.68V7.39H26V5.84H24.91V7.39h-.74v3.32a2,2,0,0,0,0,.43,2.14,2.14,0,0,0,1.38,1.59v14a1.09,1.09,0,0,1-2.17,0V22h0V20.68A2.47,2.47,0,0,0,21,18.24V12.83a3,3,0,0,0-3-3H4.2a3,3,0,0,0-3,3V30.55H0v1.38H22.08V30.55H21V19.62A1.08,1.08,0,0,1,22,20.68v1.38h0v4.7a2.49,2.49,0,0,0,5,0v-14a2.15,2.15,0,0,0,1.43-1.6,2,2,0,0,0,0-.43V7.39ZM19.57,30.55h-17V12.83A1.67,1.67,0,0,1,4.2,11.17H17.91a1.67,1.67,0,0,1,1.66,1.66Z"/><path class="a" d="M8,24V15.85h6v1.38H9.67V19h4.08V20.4H9.67v2.22h4.55V24Z"/></svg>