<svg xmlns="http://www.w3.org/2000/svg" viewBox="0 0 37.42 31.93"><defs><style>.a{fill:#3a3a3a;}</style></defs><title>_icon</title><path class="a" d="M27,0H13a1.9,1.9,0,0,0-1.9,1.91V7A1.91,1.91,0,0,0,13,8.87H27A1.92,1.92,0,0,0,28.88,7v-5A1.9,1.9,0,0,0,27,0Zm.53,7a.53.53,0,0,1-.53.52H13A.53.53,0,0,1,12.52,7v-5A.53.53,0,0,1,13,1.38H27a.53.53,0,0,1,.53.53Z"/><path class="a" d="M21.57,16.13H23V24H21.57V20.62H18.44V24H17V16.13h1.47V19.4h3.13Z"/><path class="a" d="M36.71,7.39V5.84H35.63V7.39h-.69V5.84H33.86V7.39h-.74v3.32a2,2,0,0,0,.05.43,2.14,2.14,0,0,0,1.38,1.59v14a1.09,1.09,0,0,1-2.17,0V22h0V20.68a2.47,2.47,0,0,0-2.48-2.44V12.83a3,3,0,0,0-3-3H13.15a3,3,0,0,0-3,3V30.55H9v1.38H31V30.55H29.9V19.62A1.08,1.08,0,0,1,31,20.68v1.38h0v4.7a2.49,2.49,0,0,0,5,0v-14a2.15,2.15,0,0,0,1.43-1.6,3,3,0,0,0,0-.43V7.39ZM28.52,30.55h-17V12.83a1.66,1.66,0,0,1,1.66-1.66H26.86a1.67,1.67,0,0,1,1.66,1.66Z"/><path class="a" d="M9,21.57H9V20.19a1.09,1.09,0,0,1,1.07-1.07V17.73a2.49,2.49,0,0,0-2.49,2.46v1.27h0V26.3a1.09,1.09,0,0,1-2.18,0V12.19a2.17,2.17,0,0,0,1.39-1.6,2.09,2.09,0,0,0,0-.43V7.45L5.63,6.21,4.19,4.78,3.3,3.89,2,2.58.87,1.46,0,2.33l.25.25L2.63,5a2.11,2.11,0,0,0-.09.56v4.64a3.13,3.13,0,0,0,0,.43A2.18,2.18,0,0,0,4,12.2V26.3a2.51,2.51,0,0,0,5,0ZM4.7,11.08a.91.91,0,0,1-.8-.49.93.93,0,0,1-.12-.43v-4L5.63,8v2.2a1,1,0,0,1-.93.92Z"/></svg>