<svg xmlns="http://www.w3.org/2000/svg" viewBox="0 0 36.74 36.74"><defs><style>.a{fill:#fff;}</style></defs><title>1</title><path class="a" d="M20.89,20.45c-.51-.08-.52-1.46-.52-1.46a7,7,0,0,0,1.8-3.43c.87,0,1.4-2.09.54-2.82,0-.77,1.11-6.07-4.34-6.07S14,12,14,12.74c-.86.74-.33,2.82.54,2.82A7,7,0,0,0,16.36,19s0,1.38-.51,1.46c-1.62.26-7.66,2.92-7.66,5.85H28.55C28.55,23.37,22.51,20.71,20.89,20.45Z"/><path class="a" d="M36,18.37h-.71a17,17,0,1,1-5-12,16.88,16.88,0,0,1,5,12h1.42A18.37,18.37,0,1,0,18.37,36.74,18.37,18.37,0,0,0,36.74,18.37Z"/></svg>