<svg xmlns="http://www.w3.org/2000/svg" viewBox="0 0 32.88 32.88"><defs><style>.a{fill:#3a3a3a;}</style></defs><title>_icon</title><path class="a" d="M16.44,0A16.44,16.44,0,1,0,32.88,16.44,16.44,16.44,0,0,0,16.44,0Zm7.9,26.27a1.59,1.59,0,0,1-.68-3V17.3H17.13v6a1.58,1.58,0,0,1,.9,1.4,1.6,1.6,0,0,1-3.2,0,1.57,1.57,0,0,1,.92-1.41v-6H9.24v6a1.58,1.58,0,0,1,.9,1.4,1.6,1.6,0,1,1-2.28-1.41V9.61A1.56,1.56,0,0,1,7,8.2a1.6,1.6,0,1,1,3.19,0,1.58,1.58,0,0,1-.9,1.41v6.31h6.51V9.61a1.54,1.54,0,0,1-.92-1.41,1.6,1.6,0,1,1,2.3,1.41v6.31h6.53V9.62a1.58,1.58,0,1,1,2.27-1.51h0V8.3h0A1.59,1.59,0,0,1,25,9.61v6.31h0V17.3h0v5.93a1.59,1.59,0,0,1-.69,3Z"/></svg>