<svg xmlns="http://www.w3.org/2000/svg" viewBox="0 0 25.85 25.85"><defs><style>.a{fill:#fff;}</style></defs><title>money</title><path class="a" d="M25.35,12.92h-.5A11.92,11.92,0,0,1,4.49,21.35a11.92,11.92,0,1,1,20.36-8.43h1A12.93,12.93,0,1,0,12.92,25.85,12.93,12.93,0,0,0,25.85,12.92Z"/><path class="a" d="M17.89,17V19h-9l-.41-1.36A5.57,5.57,0,0,0,9.66,16,5.29,5.29,0,0,0,10,13.91a3,3,0,0,0,0-.43H8V11.69H9.48a7.9,7.9,0,0,1-.35-2.2A3.94,3.94,0,0,1,10.34,6.4a4.66,4.66,0,0,1,3.25-1.09,4,4,0,0,1,3.12,1.16A4.18,4.18,0,0,1,17.8,9.41H15.4c0-1.29-.62-1.94-1.85-1.94A1.94,1.94,0,0,0,12.12,8a2.07,2.07,0,0,0-.51,1.51A7.25,7.25,0,0,0,12,11.69h3.54v1.79h-3a3.15,3.15,0,0,1,0,.45,4.09,4.09,0,0,1-1.25,3Z"/></svg>