<svg id="Layer_1" data-name="Layer 1" xmlns="http://www.w3.org/2000/svg" viewBox="0 0 87.05 99.03"><title>post-green</title><rect y="0.2" width="87.05" height="98.83" rx="5.03" ry="5.03" fill="#dbdbdb"/><path d="M70.52,33.09,49.9,12.53,16.53,45.8l.65.64L30.33,59.55H18.12v1.9H67.94v-1.9H44Zm-20-17.36,17,17-19.88.77Zm-2,.72L44.67,40.64,20.46,44.46ZM36.93,59.55h-4L19.74,46.42,37.61,43.6Zm.92,0,.69-16.1,7.73-1.22,1.26-7.84,19.88-.78-26,25.94Z" fill="#7f7f7f"/><text transform="translate(28.49 85.97)" font-size="13.65" fill="#7f7f7f" font-family="Poppins-SemiBold, Poppins" font-weight="700">Post</text><rect width="87.05" height="98.83" rx="5.03" ry="5.03" fill="#20921a"/><path d="M70.52,33.09,49.9,12.53,16.53,45.8l.65.64L30.33,59.55H18.12v1.9H67.94v-1.9H44Zm-20-17.36,17,17-19.88.77Zm-2,.72L44.67,40.64,20.46,44.46ZM36.93,59.55h-4L19.74,46.42,37.61,43.6Zm.92,0,.69-16.1,7.73-1.22,1.26-7.84,19.88-.78-26,25.94Z" fill="#fff"/><text transform="translate(28.49 85.97)" font-size="13.65" fill="#fff" font-family="Poppins-SemiBold, Poppins" font-weight="700">Post</text></svg>