<svg xmlns="http://www.w3.org/2000/svg" viewBox="0 0 49.32 49.32"><defs><style>.a{fill:#ededed;}</style></defs><title>icons</title><path class="a" d="M48.36,24.66h-1A22.76,22.76,0,1,1,40.74,8.57a22.67,22.67,0,0,1,6.67,16.09h1.91A24.66,24.66,0,1,0,24.66,49.32,24.66,24.66,0,0,0,49.32,24.66Z"/><path class="a" d="M34.14,32.34v4H16.88l-.78-2.59a10.42,10.42,0,0,0,2.33-3.15,10,10,0,0,0,.73-4c0-.17,0-.44-.07-.82H15.17V22.3h2.92a14.57,14.57,0,0,1-.68-4.2,7.53,7.53,0,0,1,2.32-5.89,8.92,8.92,0,0,1,6.21-2.08,7.66,7.66,0,0,1,5.94,2.21A8.07,8.07,0,0,1,34,18h-4.6q0-3.71-3.52-3.7a3.65,3.65,0,0,0-2.72,1,3.9,3.9,0,0,0-1,2.87,13.71,13.71,0,0,0,.75,4.18h6.76v3.42h-5.8c0,.38.07.66.07.85a7.8,7.8,0,0,1-2.39,5.77Z"/></svg>