<svg id="Layer_1" data-name="Layer 1" xmlns="http://www.w3.org/2000/svg" viewBox="0 0 87.05 98.83"><title>sms-green</title><rect width="87.05" height="98.83" rx="5.03" ry="5.03" fill="#dbdbdb"/><path d="M43.54,12A24.8,24.8,0,0,0,18.7,36.73a24.51,24.51,0,0,0,3.81,13.12L18.68,61.61l11.94-3.77A24.77,24.77,0,1,0,43.54,12Zm16.2,40.91a23,23,0,0,1-28.8,2.92h0l-.08,0h0l-9.19,2.91,2.23-6.83h0l.74-2.22a22.76,22.76,0,0,1,2.7-29,22.88,22.88,0,1,1,32.41,32.3Z" fill="#7f7f7f"/><path d="M32.68,36.8a1.87,1.87,0,0,1,1.9-2,2,2,0,0,1,0,4A1.86,1.86,0,0,1,32.68,36.8Z" fill="#7f7f7f"/><path d="M42.39,36.8a1.87,1.87,0,0,1,1.89-2,2,2,0,1,1-1.89,2Z" fill="#7f7f7f"/><path d="M52.09,36.8a1.87,1.87,0,0,1,1.9-2,2,2,0,1,1-1.9,2Z" fill="#7f7f7f"/><text transform="translate(28.74 85.77)" font-size="13.65" fill="#7f7f7f" font-family="Poppins-SemiBold, Poppins" font-weight="700">SMS</text><rect width="87.05" height="98.83" rx="5.03" ry="5.03" fill="#20921a"/><path d="M43.54,12A24.8,24.8,0,0,0,18.7,36.73a24.51,24.51,0,0,0,3.81,13.12L18.68,61.61l11.94-3.77A24.77,24.77,0,1,0,43.54,12Zm16.2,40.91a23,23,0,0,1-28.8,2.92h0l-.08,0h0l-9.19,2.91,2.23-6.83h0l.74-2.22a22.76,22.76,0,0,1,2.7-29,22.88,22.88,0,1,1,32.41,32.3Z" fill="#fff"/><path d="M32.68,36.8a1.87,1.87,0,0,1,1.9-2,2,2,0,0,1,0,4A1.86,1.86,0,0,1,32.68,36.8Z" fill="#fff"/><path d="M42.39,36.8a1.87,1.87,0,0,1,1.89-2,2,2,0,1,1-1.89,2Z" fill="#fff"/><path d="M52.09,36.8a1.87,1.87,0,0,1,1.9-2,2,2,0,1,1-1.9,2Z" fill="#fff"/><text transform="translate(28.74 85.77)" font-size="13.65" fill="#fff" font-family="Poppins-SemiBold, Poppins" font-weight="700">SMS</text></svg>