<?xml version="1.0" encoding="UTF-8" standalone="no"?><!DOCTYPE svg PUBLIC "-//W3C//DTD SVG 1.1//EN" "http://www.w3.org/Graphics/SVG/1.1/DTD/svg11.dtd"><svg width="100%" height="100%" viewBox="0 0 205 114" version="1.1" xmlns="http://www.w3.org/2000/svg" xmlns:xlink="http://www.w3.org/1999/xlink" xml:space="preserve" xmlns:serif="http://www.serif.com/" style="fill-rule:evenodd;clip-rule:evenodd;stroke-linejoin:round;stroke-miterlimit:1.41421;"><path d="M102.35,15.631c10.863,0 21.25,1.925 30.969,5.294l-30.731,40.138c-5.263,-0.657 -10.676,1.625 -13.732,6.387c-4.231,6.613 -2.306,15.394 4.3,19.631c6.606,4.232 15.394,2.313 19.632,-4.293c2.9,-4.532 2.843,-10.069 0.431,-14.482l24.25,-45.868c33.475,13.406 57.412,45.368 59.25,83.181l-188.731,0c2.437,-50.088 43.674,-89.988 94.362,-89.988m102.325,93.825c-0.338,-42.456 -26.506,-78.718 -63.563,-93.906l8.226,-15.55l-11.107,14.5c-11.175,-4.194 -23.237,-6.594 -35.881,-6.594c-56.256,0 -101.875,45.394 -102.319,101.55l-0.031,3.894l204.706,0l-0.031,-3.894Z" style="fill:#3a3a3a;fill-rule:nonzero;"/></svg>