<svg id="Layer_1" data-name="Layer 1" xmlns="http://www.w3.org/2000/svg" viewBox="0 0 87.05 98.83"><title>tele-green grey</title><rect width="87.05" height="98.83" rx="5.03" ry="5.03" fill="#dbdbdb"/><path d="M63.79,55.38a7.5,7.5,0,0,0-1-2.28c-1.53-2.63-3.63-5.59-6.67-5.52-2.84.06-5.11,2.88-8,2.76-3.57-.15-7.44-4.76-9.21-7.58L34,35a13.32,13.32,0,0,1-1.68-3.12c-.42-2.23,1.71-4.59,3.38-5.59a10.42,10.42,0,0,0,2.77-2.11,3.9,3.9,0,0,0,.79-3.27,17.45,17.45,0,0,0-2-4.82c-2-4-4.13-5.12-8.34-2.9-2.27,1.2-4.66,4.76-5.32,7.11-1.46,5.19.78,12,2.85,16.81A48.73,48.73,0,0,0,38.91,54.4c4.72,4.14,10.72,7.11,17,7.16a9.94,9.94,0,0,0,5.52-1.32A4.92,4.92,0,0,0,63.79,55.38Z" fill="none" stroke="#7f7f7f" stroke-miterlimit="10" stroke-width="2"/><text transform="translate(7.03 85.77)" font-size="13.65" fill="#7f7f7f" font-family="Poppins-SemiBold, Poppins" font-weight="700">Telephone</text></svg>