<svg xmlns="http://www.w3.org/2000/svg" viewBox="0 0 42.33 44.02"><defs><style>.a{fill:#fff;}</style></defs><title>icons</title><polygon class="a" points="35.08 43.42 35.08 43.42 35.08 43.42 35.08 43.42"/><polygon class="a" points="30.92 9.43 30.92 9.43 30.92 9.43 30.92 9.43"/><polygon class="a" points="40.24 36.14 40.24 36.14 40.24 36.14 40.24 36.14"/><path class="a" d="M41.92,20.54a9.84,9.84,0,0,0-1.31-1.92h0a4.54,4.54,0,0,0-1.4-1.23A4.49,4.49,0,0,0,37.89,17a28.53,28.53,0,0,0-4.47-.3H30.77c-.93,0-1.84,0-2.72.05,0,0,0-.06,0-.1v-.22l.05-.29.24-.78c.5-1.1,1-2.2,1.49-3.28h0a11.8,11.8,0,0,0,1.09-2.66,14.8,14.8,0,0,0,.31-2.79,8.59,8.59,0,0,0-.18-1.8,6.51,6.51,0,0,0-2.18-3.69h0A5.24,5.24,0,0,0,26.44.08,4.62,4.62,0,0,0,25.59,0a2.52,2.52,0,0,0-.87.13,1.66,1.66,0,0,0-.93.7L23.72,1l-.09.32,0,.08-.07.8-.31,2.54L23,6.48l-.5,1.7-.56,1.09L21.4,10l-.65.65-1,.68,0,0-.67.58L19,12l-.73.82-.09.12-.7,1.58h0l-.9,2.11a21.76,21.76,0,0,1-3.38,5.54,2.72,2.72,0,0,1-.78.63,1.07,1.07,0,0,1-.42.08c-.28,0-.69-.08-1.23-.08h-.47V20.45H0V43.86H10.32v-2h.78a29.92,29.92,0,0,1,3.29.64A75.49,75.49,0,0,0,28.54,44c1.58,0,3.17-.07,4.77-.23a6.67,6.67,0,0,0,1.77-.37,6.74,6.74,0,0,0,1.69-1.08,9.42,9.42,0,0,0,1.35-1.28A3.8,3.8,0,0,0,39,39.13h0l0-.46c0-.35,0-.62,0-.84h0a1.13,1.13,0,0,1,.3-.73,10.19,10.19,0,0,1,.94-1,3.52,3.52,0,0,0,1.12-2h0l0-.4a5.53,5.53,0,0,0-.57-2.07h0a2.42,2.42,0,0,1-.22-.85l0-.22a1.71,1.71,0,0,1,.31-.4c.17-.18.4-.39.63-.67a2.78,2.78,0,0,0,.71-1.74l0-.31h0a3.24,3.24,0,0,0-.45-1.1h0c-.22-.38-.45-.76-.68-1.14h0a2.16,2.16,0,0,1-.19-.36,2.91,2.91,0,0,1,.23-.36,10.72,10.72,0,0,0,.68-.94,3,3,0,0,0,.49-1.48h0V22A3.21,3.21,0,0,0,41.92,20.54Zm-40,21.4V22.37H8.4V41.94ZM40.41,22.06a1.13,1.13,0,0,1-.2.53c-.15.24-.37.51-.6.81v0l0,0c-.08.13-.2.29-.33.52a2,2,0,0,0-.25.93l0,.36a3.18,3.18,0,0,0,.43,1h0l.69,1.14a1.68,1.68,0,0,1,.2.42v0a1.06,1.06,0,0,1-.27.52c-.11.14-.31.32-.54.56a3.45,3.45,0,0,0-.67.94h0l0,0,0,0a2.5,2.5,0,0,0-.21,1A4.08,4.08,0,0,0,39,32.43h0a4,4,0,0,1,.43,1.35v.11a1.72,1.72,0,0,1-.57.89h0a11.8,11.8,0,0,0-1.1,1.12,3,3,0,0,0-.71,1.91h0v0c0,.35,0,.63,0,.84v.23a1.91,1.91,0,0,1-.46.94,7.48,7.48,0,0,1-1.07,1,4.9,4.9,0,0,1-1.2.79h0a4.4,4.4,0,0,1-1.25.24,43.9,43.9,0,0,1-4.58.23,73.6,73.6,0,0,1-13.79-1.52,30,30,0,0,0-3.52-.66c-.21,0-.41,0-.61,0h-.3V24.71h.47c.29,0,.7.07,1.23.08a2.89,2.89,0,0,0,1.25-.27,4.58,4.58,0,0,0,1.34-1,23.2,23.2,0,0,0,3.73-6v0l.91-2.15L19.83,14l.54-.61.55-.46,1-.7.07,0,.83-.83.06-.06.64-.94,0-.05L24.22,9l0-.09L24.83,7l0-.07L25.13,5h0l.32-2.62,0-.41h.1a5.54,5.54,0,0,1,.56.05,3.29,3.29,0,0,1,1.51.68,4.54,4.54,0,0,1,1.51,2.6,6.37,6.37,0,0,1,.14,1.39A13.9,13.9,0,0,1,29,9.07h0a10.26,10.26,0,0,1-.94,2.21h0c-.53,1.12-1,2.25-1.52,3.36l0,0-.29.94v0l-.1.47v.51a4,4,0,0,0,.2,1.37l.21.64h1.12c1.07,0,2.12-.05,3.13-.05H33.4a28.19,28.19,0,0,1,4.17.27,2,2,0,0,1,1.57,1h0a8.85,8.85,0,0,1,1.07,1.56h0a1.44,1.44,0,0,1,.2.63Z"/><polygon class="a" points="41.92 20.54 41.92 20.54 41.92 20.54 41.92 20.54"/><polygon class="a" points="39.04 25.25 39.04 25.25 39.04 25.25 39.04 25.25"/></svg>