<svg xmlns="http://www.w3.org/2000/svg" width="24.242" height="27.096" viewBox="0 0 24.242 27.096">
  <path id="Path_1" data-name="Path 1" d="M7.983,19.221H7.56a1.016,1.016,0,0,0-1.016.593,1.094,1.094,0,0,0,.931,1.27l1.185.169c.593,0,1.27-.085,1.355-.423S8.661,19.475,7.983,19.221Zm7.451-3.98a10.585,10.585,0,0,0-5.927,0,10.584,10.584,0,0,0-.847,2.286,21,21,0,0,1,7.705,0A10.585,10.585,0,0,0,15.435,15.242Zm1.948,3.9h-.423c-.677.169-2.117,1.1-1.948,1.609s.677.423,1.355.423L17.552,21a1.094,1.094,0,0,0,.931-1.27,1.016,1.016,0,0,0-1.1-.508ZM22.209,8.722c-.085,1.439-.169,2.625-2.625,4.234,1.439-5.335-3.218-6.181-4.488-7.536S12.556,2.032,13.572,0c-3.133,1.016-9.4,3.218-6.6,8.722.931,1.948.593,3.3-1.27,3.81S1.124,11.347,1.548,7.96c-2.625,4.318-2.032,12.193,2.71,15.5v.593a1.948,1.948,0,0,0,.423.931h0c0,1.355,1.185,2.117,3.218,2.117s2.71-.339,3.218-1.1h2.54c.508.677,1.609,1.1,3.218,1.1s3.133-1.1,3.133-2.117h0a1.948,1.948,0,0,0,.423-.847v-.254c5.5-3.726,4.064-12.278,1.778-15.072Zm-2.032,9.314H19.16l-.423.339a2.879,2.879,0,0,1,.593,2.117,15.665,15.665,0,0,1-.508,3.3c0,.169-.423.423-.423.423v.847c0,.254-.677.423-1.439.423s-1.863-.169-1.863-.423v-.677H9.846v.677c0,.254-1.1.423-1.863.423s-1.524-.169-1.524-.423v-.847s-.423-.254-.423-.423a20.238,20.238,0,0,1-.423-3.3,2.879,2.879,0,0,1,.593-2.117l-.423-.254H4.85a1.778,1.778,0,0,1,0-1.524H6.628a1.693,1.693,0,0,1,.169.677l.254.169A12.617,12.617,0,0,1,8.237,14.31l.169-.254h.339a11.6,11.6,0,0,1,3.81-.593,11.6,11.6,0,0,1,3.81.593H16.7l.169.254a12.532,12.532,0,0,1,1.185,3.133l.254-.169a1.694,1.694,0,0,1,.169-.677h1.778a1.778,1.778,0,0,1,0,1.524Z" transform="translate(0)"/>
</svg>
