<svg xmlns="http://www.w3.org/2000/svg" width="29.738" height="26.904" viewBox="0 0 29.738 26.904">
  <g id="Group_93" data-name="Group 93" transform="translate(0 11)">
    <path id="Path_2" data-name="Path 2" d="M5.894,11.127a4.007,4.007,0,0,0-.164-1.063L4.913,9.9l-.9.164a4.334,4.334,0,0,0,0,2.208l.818.164.245.327a15.129,15.129,0,0,0-3.762,1.39l-.327.164-.164.327a14.638,14.638,0,0,0-.082,9.241l.164.327.327.164a15.128,15.128,0,0,0,3.68,1.472l-.164.327-.818.164a4.334,4.334,0,0,0,0,2.208l.9.164.9-.164a4.007,4.007,0,0,0,.164-1.063h0l.327-.572a3.435,3.435,0,0,0,2.535.736,24.286,24.286,0,0,0,4.007-.491c.245,0,.491-.572.491-.572h1.063c.245,0,.491-.981.491-1.881s-.245-2.208-.491-2.208H13.5c.082-1.881.082-1.554.082-3.107v-.164c0-1.554,0-1.145-.082-3.107h.818c.245,0,.491-1.308.491-2.208s-.245-1.717-.491-1.717H13.254s-.245-.572-.491-.572a18.808,18.808,0,0,0-4.007-.654,3.435,3.435,0,0,0-2.535.736l-.327-.572ZM9.083,22.248c.572.164.572,2.208.327,3.026a1.388,1.388,0,0,1-1.554,1.145A1.39,1.39,0,0,1,7.284,24.7c.164-.818,1.227-2.617,1.881-2.371ZM4.749,19.3a25.023,25.023,0,0,0,.409,4.579,12.757,12.757,0,0,1-2.7-.981,12.757,12.757,0,0,1,0-7.2,12.675,12.675,0,0,1,2.7-.981A25.023,25.023,0,0,0,4.749,19.3Zm4.743-5.97c.245.818.327,2.862-.327,3.026S7.53,14.807,7.284,13.989a1.39,1.39,0,0,1,.654-1.8,1.432,1.432,0,0,1,1.554,1.145Z" transform="translate(-0.034 -12.804)"/>
    <path id="Path_3" data-name="Path 3" d="M20.849,9.486,22.4,0,14.143,5.315,11.2,1.308,9.4,7.114l.9.572,1.554-1.881,1.963,2.617L19.131,5.07l-.9,5.643L23.547,13l-5.806,2.78.491.981L31.479,13Z" transform="translate(-1.741 -11)"/>
  </g>
</svg>
