<svg xmlns="http://www.w3.org/2000/svg" viewBox="0 0 4641 4642"><defs><style>.cls-1{fill:#fff;}</style></defs><title>Spial2</title><g id="Layer_2" data-name="Layer 2"><g id="Layer_1-2" data-name="Layer 1"><path class="cls-1" d="M1,0V4640H4641V0ZM2321,2480a160,160,0,1,1,160-160A160,160,0,0,1,2321,2480Z"/><path d="M2443.56,2217.16c.21.25.43.5.64.76l-.63-.77Z"/><path d="M2334.94,2160.61l1.5.13-1.49-.13Z"/><path d="M2218.15,2197.43h0l.76-.64Z"/><path d="M2161.74,2304.56c0,.5-.09,1-.13,1.49h0C2161.65,2305.56,2161.7,2305.06,2161.74,2304.56Z"/><path d="M2197.79,2422.08c.22.25.43.51.64.77h0Z"/><path d="M2305.56,2479.26l1.49.13h0Z"/><path d="M2423.08,2443.21c.25-.22.51-.43.77-.64h0Z"/><path d="M2480.26,2335.42c0-.49.09-1,.13-1.48h0C2480.35,2334.44,2480.3,2334.93,2480.26,2335.42Z"/><path d="M4640,4642v-93.28q-1.36,46.89-4.59,93.28Z"/><path d="M2219.35,2196.43A159.36,159.36,0,0,1,2321,2160C3579.43,2160,4603.83,3162,4640,4411.62V1848.91C3858.43,1507.48,2917.3,1611.57,2219.35,2196.43Z"/><path d="M2337.43,2160.83a159.53,159.53,0,0,1,96.71,46C3092.58,2865.31,3272.5,3821.07,2973.9,4642H4446.49C4539.71,3379.64,3601.93,2272.81,2337.43,2160.83Z"/><path d="M2481,2320c0,1281.3-1038.7,2320-2320,2320q-81.18,0-161-5.52V4642H2790.77c343-782.16,239.41-1724.81-346.2-2423.65A159.36,159.36,0,0,1,2481,2320Z"/><path d="M0,2973.26v1472.3c1261.94,92.65,2368.22-845,2480.17-2109.13a159.53,159.53,0,0,1-46,96.71C1776,3091.31,820.71,3271.36,0,2973.26Z"/><path d="M0,2V2790.21c782,342.48,1724.11,238.72,2422.65-346.64A159.36,159.36,0,0,1,2321,2480C1039.7,2480,1,1441.3,1,160Q1,80.35,6.31,2Z"/><path d="M195.22,2c-90.94,1260.7,846.19,2365.31,2109.35,2477.17a159.53,159.53,0,0,1-96.71-46C1550.49,1775.76,1370.09,822,1666.66,2Z"/><path d="M4640,5.38V2h-62.13Q4609,3.28,4640,5.38Z"/><path d="M4384.07,2H1849.47c-340.9,781.37-236.65,1722,348,2419.65A159.36,159.36,0,0,1,2161,2320C2161,1071.17,3147.72,52.81,4384.07,2Z"/><path d="M4640,194.3c-1261.11-91.52-2366.28,845.77-2478.17,2109.27a159.53,159.53,0,0,1,46-96.71C2865.51,1549.22,3819.74,1368.94,4640,1666Z"/></g></g></svg>