<svg id="Layer_1" data-name="Layer 1" xmlns="http://www.w3.org/2000/svg" viewBox="0 0 4641 4642"><defs><style>.cls-1{fill:#1e1e1e;}</style></defs><title>barrel</title><g id="Layer_1-2" data-name="Layer 1-2"><path class="cls-1" d="M2-2V4638H4642V-2ZM2322,2478a160,160,0,1,1,160-160A160,160,0,0,1,2322,2478Z" transform="translate(-1 2)"/><path d="M2444.56,2215.16c.21.25.43.5.64.76l-.63-.77Z" transform="translate(-1 2)"/><path d="M2335.94,2158.61l1.5.13-1.49-.13Z" transform="translate(-1 2)"/><path d="M2219.15,2195.43h0l.76-.64Z" transform="translate(-1 2)"/><path d="M2162.74,2302.56c0,.5-.09,1-.13,1.49h0C2162.65,2303.56,2162.7,2303.06,2162.74,2302.56Z" transform="translate(-1 2)"/><path d="M2198.79,2420.08c.22.25.43.51.64.77h0Z" transform="translate(-1 2)"/><path d="M2306.56,2477.26l1.49.13h0Z" transform="translate(-1 2)"/><path d="M2424.08,2441.21c.25-.22.51-.43.77-.64h0Z" transform="translate(-1 2)"/><path d="M2481.26,2333.42c0-.49.09-1,.13-1.48h0C2481.35,2332.44,2481.3,2332.93,2481.26,2333.42Z" transform="translate(-1 2)"/><path d="M4641,4640v-93.28q-1.36,46.89-4.59,93.28Z" transform="translate(-1 2)"/><path d="M2220.35,2194.43A159.35,159.35,0,0,1,2322,2158c1258.43,0,2282.83,1002,2319,2251.62V1846.91C3859.43,1505.48,2918.3,1609.57,2220.35,2194.43Z" transform="translate(-1 2)"/><path d="M2338.43,2158.83a159.52,159.52,0,0,1,96.71,46C3093.58,2863.31,3273.5,3819.07,2974.9,4640H4447.49C4540.71,3377.64,3602.93,2270.81,2338.43,2158.83Z" transform="translate(-1 2)"/><path d="M2482,2318c0,1281.3-1038.7,2320-2320,2320q-81.18,0-161-5.52V4640H2791.77c343-782.16,239.41-1724.81-346.2-2423.65A159.35,159.35,0,0,1,2482,2318Z" transform="translate(-1 2)"/><path d="M1,2971.26v1472.3c1261.94,92.65,2368.22-845,2480.17-2109.13a159.52,159.52,0,0,1-46,96.71C1777,3089.31,821.71,3269.36,1,2971.26Z" transform="translate(-1 2)"/><path d="M1,0V2788.21c782,342.48,1724.11,238.72,2422.65-346.64A159.35,159.35,0,0,1,2322,2478C1040.7,2478,2,1439.3,2,158Q2,78.35,7.31,0Z" transform="translate(-1 2)"/><path d="M196.22,0c-90.94,1260.7,846.19,2365.31,2109.35,2477.17a159.52,159.52,0,0,1-96.71-46C1551.49,1773.76,1371.09,820,1667.66,0Z" transform="translate(-1 2)"/><path d="M4641,3.38V0h-62.13Q4610,1.27,4641,3.38Z" transform="translate(-1 2)"/><path d="M4385.07,0H1850.47c-340.9,781.37-236.65,1722,348,2419.65A159.37,159.37,0,0,1,2162,2318C2162,1069.17,3148.72,50.81,4385.07,0Z" transform="translate(-1 2)"/><path d="M4641,192.3c-1261.11-91.52-2366.28,845.77-2478.17,2109.27a159.52,159.52,0,0,1,46-96.71C2866.51,1547.22,3820.74,1366.94,4641,1664Z" transform="translate(-1 2)"/></g></svg>