<svg xmlns="http://www.w3.org/2000/svg" width="19" height="22.998" viewBox="0 0 19 22.998"><path d="M2636.672,1514.958a24.841,24.841,0,0,0,.327-3.278,8.8,8.8,0,0,0-.866-3.643c-1.062-2.054-3.642-3.643-4.471-4.122a12.8,12.8,0,0,0-3.1-.806,10.412,10.412,0,0,0-4.952.594c-.174.077-1.734,1-1.734,1a12.314,12.314,0,0,0-3.777,5.618,17.637,17.637,0,0,0,.385,5.253,8.764,8.764,0,0,1,.558.9c0,.115.231,1.495.231,1.495l-.366.844a4.3,4.3,0,0,0-.1.575,19.034,19.034,0,0,0,1.214,1.763c.058.1,1.637.767,1.734.825s.25-.038.25-.038c.944-1.074,1.831.651,1.85.863a1.884,1.884,0,0,1-.25.767.362.362,0,0,0-.058.192s.077.824.1.977.347.192.4.326.4.325.482.383a.875.875,0,0,0,.309.077l.25.019c.115.4,2.447.46,2.447.46s1.561-.115,1.638-.153a1.692,1.692,0,0,0,.25-.211s.809-.1.886-.134.154-.23.154-.23a.656.656,0,0,0,.539-.21l.135-.077a2.172,2.172,0,0,0,.039-.843l-.1-.748a1.207,1.207,0,0,1,.308-.92c.462-.671,2.621-.5,2.7-.575s1.1-.613,1.175-.69a7.123,7.123,0,0,0,.752-1,3.144,3.144,0,0,0,.1-.728,6.6,6.6,0,0,0-.27-.94c.038-.326.829-2.665.886-2.837S2636.614,1515.341,2636.672,1514.958Zm-10.733,2.511c-.5.346-2.409,1.63-4.008,1.035a1.015,1.015,0,0,1-.674-.709,9.732,9.732,0,0,1-.135-2.051.73.73,0,0,1,.212-.365c.135-.115,2.1-1.456,3.738-1.15a2.683,2.683,0,0,1,1.176,1.457,7.877,7.877,0,0,1,.057.863A.877.877,0,0,1,2625.939,1517.469Zm1.079,3.723c-.626.257-1.128-.121-1.077-.453a3.915,3.915,0,0,1,.276-1.027c.1-.151.777-1.3,1.077-1.269C2627.293,1518.443,2627.644,1520.936,2627.018,1521.192Zm2.027.129c-.322.073-.777-.044-.884-.334a21.859,21.859,0,0,1-.107-2.5c.134-.2.536.2.643.334a13.137,13.137,0,0,1,.723,1.642A.6.6,0,0,1,2629.045,1521.321Zm4.968-4.37c-.077.172-.4,1.227-.52,1.4a1.576,1.576,0,0,1-.887.709,5.818,5.818,0,0,1-1.117-.039c-.174-.077-1.214-.671-1.349-.728a4.178,4.178,0,0,1-.983-.863,2.856,2.856,0,0,1,.039-1.265c.135-.345.463-1.227.751-1.38a2.508,2.508,0,0,1,1.368-.249,6.853,6.853,0,0,1,2.524,1.227A1.358,1.358,0,0,1,2634.013,1516.951Z" transform="translate(-2618 -1503.001)" fill="black"/></svg>