<svg xmlns="http://www.w3.org/2000/svg" width="214.428" height="39.102" viewBox="0 0 214.428 39.102">
  <g id="Artwork_16" data-name="Artwork 16" transform="translate(107.214 19.551)">
    <g id="Artwork_16-2" data-name="Artwork 16" transform="translate(-107.214 -19.551)">
      <path id="Path_4" data-name="Path 4" d="M34.2,32.3H34v.3Zm-.2.3v.7h-.4V31.6h1.1a.5.5,0,0,1,0,.8h-.1l.5.8h-.4l-.5-.7Zm.2,1.2a1.3,1.3,0,1,0-1.3-1.3,1.3,1.3,0,0,0,1.3,1.3m0-2.9a1.6,1.6,0,1,1-1.6,1.6,1.6,1.6,0,0,1,1.6-1.6" transform="translate(-0.072)" fill="#fff"/>
      <path id="Path_5" data-name="Path 5" d="M18.6,0h-1A17.7,17.7,0,0,0,3.1,27.6,179.7,179.7,0,0,1,18.6,0" transform="translate(-0.072)" fill="#fff"/>
      <path id="Path_6" data-name="Path 6" d="M14,25c8-4,18-5.8,21.2-6.3,0-.4.1-.7.1-1.1A17.6,17.6,0,0,0,26.5,2.4,156.4,156.4,0,0,0,14,25" transform="translate(-0.072)" fill="#fff"/>
      <path id="Path_7" data-name="Path 7" d="M11.3,31H6.1a17.6,17.6,0,0,0,28.5-8.4C18.1,25.3,11.3,31,11.3,31" transform="translate(-0.072)" fill="#fff"/>
      <path id="Path_8" data-name="Path 8" d="M47.5,8.1V25.5H58.2v-3H50.9V8.1Z" transform="translate(-0.072)" fill="#fff"/>
      <path id="Path_9" data-name="Path 9" d="M67.6,17.9a2.4,2.4,0,0,0-2.4-2.1,2.6,2.6,0,0,0-2.6,2.1Zm3,5.7a6.5,6.5,0,0,1-4.9,2.2,6,6,0,0,1-6.3-6.3c0-3.3,2.3-6.3,5.8-6.3s5.7,2.8,5.7,6.2a5.2,5.2,0,0,1-.1.9H62.5a3.2,3.2,0,0,0,3.2,2.9,4.3,4.3,0,0,0,3-1.4Z" transform="translate(-0.072)" fill="#fff"/>
      <path id="Path_10" data-name="Path 10" d="M81.7,17.7a3.7,3.7,0,0,0-3-1.5,3.1,3.1,0,0,0-3.1,3.3,3.1,3.1,0,0,0,3.2,3.3,3.5,3.5,0,0,0,2.9-1.5Zm3.2,7.8H81.8v-1a5,5,0,0,1-3.3,1.2,6,6,0,0,1-4.5-2,6.4,6.4,0,0,1-1.5-4.2,6,6,0,0,1,5.9-6.3,5.5,5.5,0,0,1,3.5,1.2v-1H85Z" transform="translate(-0.072)" fill="#fff"/>
      <path id="Path_11" data-name="Path 11" d="M88,21.8A5.1,5.1,0,0,0,91.3,23c.9,0,1.5-.4,1.5-1S87,20.8,87,17c0-2.3,2.2-3.7,4.6-3.7a7.4,7.4,0,0,1,4.1,1.2l-1.5,2.3a4,4,0,0,0-2.3-.8c-.9,0-1.6.3-1.6,1s5.8.9,5.8,5.1c0,2.3-2.2,3.7-4.8,3.7a8.3,8.3,0,0,1-4.8-1.6Z" transform="translate(-0.072)" fill="#fff"/>
      <path id="Path_12" data-name="Path 12" d="M100.8,25.5H97.6v-12h3.2ZM99.2,7.1a2.1,2.1,0,1,1-2.1,2.1,2.1,2.1,0,0,1,2.1-2.1" transform="translate(-0.072)" fill="#fff"/>
      <path id="Path_13" data-name="Path 13" d="M102.5,25.5v-12h3.1v1a5.3,5.3,0,0,1,3.4-1.2,5.4,5.4,0,0,1,4.2,1.9,6.1,6.1,0,0,1,1.2,4.2v6.1h-3.2V19.1a2.9,2.9,0,0,0-.7-2.3,2.5,2.5,0,0,0-1.8-.7,3.8,3.8,0,0,0-2.9,1.5v7.8Z" transform="translate(-0.072)" fill="#fff"/>
      <path id="Path_14" data-name="Path 14" d="M125.2,17.7a3.7,3.7,0,0,0-3-1.5,3.1,3.1,0,0,0-3.1,3.3,3.1,3.1,0,0,0,3.2,3.3,3.5,3.5,0,0,0,2.9-1.5Zm3.2,7.1a7.3,7.3,0,0,1-1.1,4.5,6.4,6.4,0,0,1-5.3,2.4,7.9,7.9,0,0,1-5.8-2.5l2-2.1a4.9,4.9,0,0,0,3.7,1.7,3.1,3.1,0,0,0,2.5-1,3.9,3.9,0,0,0,.7-2.8v-.4a5.1,5.1,0,0,1-3.2,1.1,6.1,6.1,0,0,1-4.6-2,6.4,6.4,0,0,1-1.5-4.2,6,6,0,0,1,5.9-6.3,5.5,5.5,0,0,1,3.5,1.2v-1h3.1Z" transform="translate(-0.072)" fill="#fff"/>
      <path id="Path_15" data-name="Path 15" d="M139.8,23.4a6.2,6.2,0,0,0,6.2-6.6,6.2,6.2,0,1,0-12.4,0,6.2,6.2,0,0,0,6.2,6.6m0-15.5a8.7,8.7,0,0,1,8.7,8.9,8.7,8.7,0,1,1-17.3,0,8.7,8.7,0,0,1,8.7-8.9" transform="translate(-0.072)" fill="#fff"/>
      <path id="Path_16" data-name="Path 16" d="M152.8,21.8a4,4,0,0,0,3.2,1.7,3.8,3.8,0,0,0,3.9-3.8,3.7,3.7,0,0,0-3.7-3.8,4.2,4.2,0,0,0-3.3,1.7Zm0,9.6h-2.4V13.8h2.3v1.1a5.4,5.4,0,0,1,3.6-1.3,5.5,5.5,0,0,1,2.8.7,6.2,6.2,0,0,1,3,5.3,6.1,6.1,0,0,1-3,5.3,6,6,0,0,1-2.9.8,5.2,5.2,0,0,1-3.5-1.3Z" transform="translate(-0.072)" fill="#fff"/>
      <path id="Path_17" data-name="Path 17" d="M171.9,25.5l-1.8.2a4.2,4.2,0,0,1-3.3-1.4,4.5,4.5,0,0,1-.9-3.1V15.9h-3V13.8h3V10.6h2.4v3.2H172v2.1h-3.7v5.5a2.3,2.3,0,0,0,.3,1.5,2.2,2.2,0,0,0,1.6.6h1.3Z" transform="translate(-0.072)" fill="#fff"/>
      <path id="Path_18" data-name="Path 18" d="M173.6,13.8H176V25.5h-2.4Zm1.2-5.7a1.6,1.6,0,0,1,1.6,1.6,1.551,1.551,0,0,1-3.1,0,1.5,1.5,0,0,1,1.5-1.6" transform="translate(-0.072)" fill="#fff"/>
      <path id="Path_19" data-name="Path 19" d="M184.2,23.5a3.7,3.7,0,0,0,3.7-3.8,3.7,3.7,0,1,0-7.3,0,3.7,3.7,0,0,0,3.7,3.8m0-9.9a5.9,5.9,0,0,1,6,6.1,6,6,0,1,1-12,0,5.9,5.9,0,0,1,6-6.1" transform="translate(-0.072)" fill="#fff"/>
      <path id="Path_20" data-name="Path 20" d="M194.7,14.9a5,5,0,0,1,3.5-1.4,5.4,5.4,0,0,1,4.2,2.1,6.2,6.2,0,0,1,1.1,4.1v5.7h-2.4V19.6a3.9,3.9,0,0,0-.7-2.7,3.1,3.1,0,0,0-2.4-1.1,4.3,4.3,0,0,0-3.3,1.7v8h-2.4V13.8h2.3Z" transform="translate(-0.072)" fill="#fff"/>
      <path id="Path_21" data-name="Path 21" d="M206.7,22.4a5.7,5.7,0,0,0,3.4,1.3c1,0,2-.5,2-1.5s-1.9-1.4-3.6-2-2.7-1.4-2.7-3,2.2-3.6,4.3-3.6a5.9,5.9,0,0,1,3.9,1.3l-1.2,1.7a4.1,4.1,0,0,0-2.5-.9c-1.1,0-2.1.5-2.1,1.5s.9,1.1,2.1,1.4,4.2,1.3,4.2,3.7-2.1,3.6-4.3,3.6a7.3,7.3,0,0,1-4.7-1.6Z" transform="translate(-0.072)" fill="#fff"/>
      <path id="Path_22" data-name="Path 22" d="M180.5,37.7a1.1,1.1,0,1,1-.3-.8,1.1,1.1,0,0,1,.3.8Z" transform="translate(-0.072)" fill="#fff"/>
      <path id="Path_23" data-name="Path 23" d="M182.2,38a3.7,3.7,0,0,1,0-4.9,3.2,3.2,0,0,1,2.3-.9,3.4,3.4,0,0,1,2,.6,2.8,2.8,0,0,1,1.1,1.7h-2.2a.9.9,0,0,0-.9-.6,1.1,1.1,0,0,0-.9.5,2.5,2.5,0,0,0,0,2.4,1,1,0,0,0,.9.5h.6l.4-.5h2.2a2.9,2.9,0,0,1-1.1,1.7,3.3,3.3,0,0,1-2,.6,3.1,3.1,0,0,1-2.4-1.1Z" transform="translate(-0.072)" fill="#fff"/>
      <path id="Path_24" data-name="Path 24" d="M189.3,38a3.38,3.38,0,0,1,0-4.8,3.7,3.7,0,0,1,4.8,0,3.38,3.38,0,0,1,0,4.8,3.65,3.65,0,0,1-4.8,0Zm3.4-1.2a2,2,0,0,0,0-2.4,1.45,1.45,0,0,0-2,0,2,2,0,0,0,0,2.4,1.45,1.45,0,0,0,2,0Z" transform="translate(-0.072)" fill="#fff"/>
      <path id="Path_25" data-name="Path 25" d="M198.1,37.7a1.1,1.1,0,1,1-.3-.8,1.1,1.1,0,0,1,.3.8Z" transform="translate(-0.072)" fill="#fff"/>
      <path id="Path_26" data-name="Path 26" d="M203.8,32.3h2v6.6h-2v-1a2.1,2.1,0,0,1-2,1,2.4,2.4,0,0,1-1.8-.8,2.9,2.9,0,0,1-.7-2V32.3h2v3.6a1.214,1.214,0,1,0,2.4,0Z" transform="translate(-0.072)" fill="#fff"/>
      <path id="Path_27" data-name="Path 27" d="M209.6,38.8h-2V30.1h2V35l2-2.7h2.7l-2.8,3.3,2.8,3.2h-2.6l-2.1-2.6Z" transform="translate(-0.072)" fill="#fff"/>
    </g>
  </g>
</svg>
