<svg xmlns="http://www.w3.org/2000/svg" width="13.985" height="20.999" viewBox="0 0 13.985 20.999"><path d="M2706,1209.353v-1.91a1.644,1.644,0,0,1,.635-1.3l7.99-6.142a.637.637,0,0,0,0-1l-7.99-6.144a1.639,1.639,0,0,1-.635-1.3v-1.91a.623.623,0,0,1,1-.514l12.687,9.756a.779.779,0,0,1,0,1.228L2707,1209.867a.6.6,0,0,1-.371.129A.634.634,0,0,1,2706,1209.353Zm0-7.548v-4.617a.624.624,0,0,1,1-.515l2.873,2.21a.779.779,0,0,1,0,1.228L2707,1202.32a.605.605,0,0,1-.372.129A.634.634,0,0,1,2706,1201.805Z" transform="translate(-2706 -1188.998)"/></svg>