<svg id="Layer_1" data-name="Layer 1" xmlns="http://www.w3.org/2000/svg" viewBox="0 0 308 44"><defs><style>.cls-1{fill:#EA2D2D;}</style></defs><title>thumbnail_blood</title><path id="Shape_1" data-name="Shape 1" class="cls-1" d="M308,0H0V18.11s-.87,7.09,9.9,7.09a45.1,45.1,0,0,0,11.36-1.79,20.55,20.55,0,0,1,5.29-.76c14.91,0,16.84,20.33,30.75,21.29Q58.18,44,59,44c14.66,0,20.7-13.72,43.65-15,2-.11,3.84-.16,5.49-.16,9.63,0,13.85,1.72,28.23,1.72,11.23,0,22.7-5.79,35.22-5.79a35.72,35.72,0,0,1,19.65,5.79c12,7.61,20.33,10.26,26.93,10.26,14.81,0,21.19-13.35,42.67-14.15l.82,0C274.4,26.6,289,37.31,308,37.31V10" transform="translate(0 0)"/></svg>