<svg xmlns="http://www.w3.org/2000/svg" width="14.021" height="8" viewBox="0 0 14.021 8">
  <path id="Shape_4_copy_5" data-name="Shape 4 copy 5" d="M2475.021,1334.458a8.5,8.5,0,0,1-2.071-1.207,9.293,9.293,0,0,1-1.888-1.971.51.51,0,0,1,0-.561,9.292,9.292,0,0,1,1.888-1.971,8.509,8.509,0,0,1,2.071-1.207,7.436,7.436,0,0,1,2.782-.542,8.055,8.055,0,0,1,2.906.546,9.382,9.382,0,0,1,2.191,1.212,10.59,10.59,0,0,1,1.416,1.254,7.91,7.91,0,0,1,.588.691.507.507,0,0,1,0,.593,7.91,7.91,0,0,1-.588.691,10.649,10.649,0,0,1-1.416,1.254,9.378,9.378,0,0,1-2.191,1.212,8.076,8.076,0,0,1-2.906.546A7.434,7.434,0,0,1,2475.021,1334.458Zm.22-3.458a2.753,2.753,0,1,0,2.747-2.945A2.854,2.854,0,0,0,2475.241,1331Zm-1.766-1.479a8.873,8.873,0,0,0-.976.891.869.869,0,0,0,0,1.175,9.071,9.071,0,0,0,.976.89,7.726,7.726,0,0,0,1.726,1.031,3.926,3.926,0,0,1-.566-.991,4.174,4.174,0,0,1,0-3.037,3.889,3.889,0,0,1,.566-.99A7.654,7.654,0,0,0,2473.475,1329.521Zm7.865-.041a4.174,4.174,0,0,1,0,3.037,3.889,3.889,0,0,1-.446.829,8.71,8.71,0,0,0,1.5-.9,9.586,9.586,0,0,0,.991-.84.867.867,0,0,0,0-1.226,9.71,9.71,0,0,0-.991-.839,8.725,8.725,0,0,0-1.5-.9A3.893,3.893,0,0,1,2481.341,1329.481Zm-4.72,1.519a1.373,1.373,0,1,1,1.37,1.47A1.422,1.422,0,0,1,2476.62,1331Z" transform="translate(-2470.978 -1327)" fill="#fff"/>
</svg>
