<?xml version="1.0" encoding="utf-8"?>
<!-- Generator: Adobe Illustrator 23.0.3, SVG Export Plug-In . SVG Version: 6.00 Build 0)  -->
<svg version="1.1" id="Layer_1" xmlns="http://www.w3.org/2000/svg" xmlns:xlink="http://www.w3.org/1999/xlink" x="0px" y="0px"
	 viewBox="0 0 4641 4642" style="enable-background:new 0 0 4641 4642;" xml:space="preserve">
<style type="text/css">
	.st0{fill:#1E1E1E;}
</style>
<title>barrel</title>
<g id="Layer_1-2">
	<path class="st0" d="M4639,0v4640H1V0H4639z M2420.9,2419.6L2420.9,2419.6c55.3-55.3,55.3-145,0-200.4l0,0
		c-55.4-55.4-145.1-55.4-200.5,0h0c-55.3,55.3-55.3,145,0,200.4l0,0C2275.7,2474.9,2365.5,2474.9,2420.9,2419.6z"/>
	<path d="M2197.5,2217.2c-0.2,0.3-0.4,0.5-0.6,0.8L2197.5,2217.2L2197.5,2217.2z"/>
	<path d="M2306.1,2160.6l-1.5,0.1L2306.1,2160.6L2306.1,2160.6z"/>
	<path d="M2422.8,2197.4L2422.8,2197.4l-0.8-0.6L2422.8,2197.4z"/>
	<path d="M2479.2,2304.6c0,0.5,0.1,1,0.1,1.5l0,0C2479.3,2305.6,2479.2,2305.1,2479.2,2304.6z"/>
	<path d="M2443.2,2422.1c-0.2,0.3-0.4,0.5-0.6,0.8l0,0L2443.2,2422.1z"/>
	<path d="M2335.4,2479.3l-1.5,0.1l0,0L2335.4,2479.3z"/>
	<path d="M2218,2443.2c-0.2-0.2-0.5-0.4-0.8-0.6l0,0L2218,2443.2z"/>
	<path d="M2160.8,2335.4c0-0.5-0.1-1-0.1-1.5l0,0C2160.7,2334.4,2160.8,2334.9,2160.8,2335.4z"/>
	<path d="M2,4642v-93.3c0.9,31.3,2.4,62.4,4.6,93.3H2z"/>
	<path d="M2384.6,2166c5.1,4.1,0.3,12.2-5.8,9.6c-3.9-1.6-8.6-3.2-13.6-4.8c-24.7-7.5-50.5-11-76.4-10.7
		C1045.2,2176.6,37.9,3172.3,2,4411.6l0-2559c0-2.3,1.3-4.3,3.4-5.2C772.2,1513.8,1692,1608.9,2384.6,2166z"/>
	<path d="M2256.5,2165.5c6.5-0.7,8.9,8.4,2.8,10.9c-3.9,1.6-8.3,3.8-12.9,6.2c-22.6,12.1-43.2,27.8-61.1,46.2
		c-640.4,657.6-813,1601.3-517.8,2413.2h-1472C103.4,3395.4,1016.4,2300.4,2256.5,2165.5z"/>
	<path d="M2167.6,2284.6c-5.2,19.6-7.6,39.8-7.4,60c13.2,1270,1046.3,2295.4,2318.9,2295.4c54.1,0,107.7-1.8,160.9-5.5v7.5H1850.4
		c-335.7-765.8-243.4-1685.5,310-2379.5c5-6.3,14.9-0.6,12,6.9C2170.7,2273.7,2169.1,2279,2167.6,2284.6z"/>
	<path d="M4640,2973.3v1472.3c-1245.7,91.5-2339.6-821.8-2474.5-2062.1c-0.7-6.5,8.4-8.8,10.9-2.8c1.6,3.9,3.8,8.3,6.2,12.9
		c12.1,22.7,27.8,43.3,46.2,61.2C2886,3095.2,3828.8,3268.1,4640,2973.3z"/>
	<path d="M4640,2v2788.2c-767.9,336.5-1690.3,242.2-2384.6-316.2c-5.1-4.1-0.3-12.2,5.8-9.6c3.9,1.6,8.6,3.2,13.6,4.8
		c24.7,7.5,50.5,11,76.4,10.7C3617.6,2463.1,4639,1430.9,4639,160c0-53.1-1.8-105.8-5.3-158H4640z"/>
	<path d="M4445.2,7.3c86.8,1242.8-824.8,2332.7-2061.8,2467.2c-6.5,0.7-8.8-8.4-2.8-10.9c3.9-1.6,8.3-3.8,12.9-6.3
		c22.7-12.1,43.2-27.8,61.2-46.2c637.3-654.5,811.3-1592.4,522-2401.6c-1.3-3.7,1.4-7.6,5.3-7.6l1457.5,0
		C4442.6,2,4445,4.3,4445.2,7.3z"/>
	<path d="M2,5.4V2h62.1C43.4,2.8,22.7,4,2,5.4z"/>
	<path d="M257.8,2l2529.8,0c2.3,0,4.3,1.3,5.2,3.4c333,766.9,237.8,1686.5-318.9,2379.1c-4.1,5.1-12.2,0.3-9.6-5.8
		c1.6-3.9,3.2-8.6,4.8-13.6c7.5-24.7,11-50.5,10.7-76.3C2463.5,1054.3,1483.4,52.4,257.8,2z"/>
	<path d="M7.3,183.9c1242.6-87.4,2332.6,824.7,2467.2,2062.5c0.7,6.5-8.4,8.8-10.9,2.8c-1.6-3.9-3.8-8.3-6.2-12.9
		c-12.1-22.6-27.8-43.2-46.2-61.1C1756.6,1537.3,818.7,1363.3,9.6,1653.3c-3.7,1.3-7.6-1.4-7.6-5.3L2,189.6
		C2,186.6,4.3,184.1,7.3,183.9z"/>
</g>
</svg>
