<?xml version="1.0" encoding="UTF-8" standalone="no"?><!DOCTYPE svg PUBLIC "-//W3C//DTD SVG 1.1//EN" "http://www.w3.org/Graphics/SVG/1.1/DTD/svg11.dtd"><svg width="100%" height="100%" viewBox="0 0 297 297" version="1.1" xmlns="http://www.w3.org/2000/svg" xmlns:xlink="http://www.w3.org/1999/xlink" xml:space="preserve" xmlns:serif="http://www.serif.com/" style="fill-rule:evenodd;clip-rule:evenodd;stroke-linejoin:round;stroke-miterlimit:1.41421;"><path d="M296.844,148.425c0,81.969 -66.45,148.425 -148.419,148.425c-81.975,0 -148.425,-66.456 -148.425,-148.425c0,-81.969 66.45,-148.425 148.425,-148.425c81.969,0 148.419,66.456 148.419,148.425" style="fill:#fff;fill-rule:nonzero;"/><path d="M187.005,175.607c-6.75,0 -12.831,2.8 -17.181,7.294l-64.369,-32.182c0.2,-1.237 0.306,-2.5 0.306,-3.787c0,-1.288 -0.106,-2.556 -0.306,-3.788l64.369,-32.181c4.35,4.488 10.431,7.294 17.181,7.294c13.2,0 23.894,-10.7 23.894,-23.9c0,-13.2 -10.694,-23.894 -23.894,-23.894c-13.2,0 -23.9,10.694 -23.9,23.894c0,1.294 0.106,2.556 0.3,3.787l-64.375,32.182c-4.344,-4.488 -10.425,-7.294 -17.175,-7.294c-13.2,0 -23.894,10.7 -23.894,23.9c0,13.2 10.694,23.894 23.894,23.894c6.75,0 12.838,-2.794 17.175,-7.294l64.375,32.187c-0.206,1.238 -0.3,2.494 -0.3,3.788c0,13.2 10.7,23.894 23.9,23.894c13.2,0 23.894,-10.694 23.894,-23.894c0,-13.206 -10.694,-23.9 -23.894,-23.9" style="fill:#074241;fill-rule:nonzero;"/></svg>