<?xml version="1.0" encoding="UTF-8" standalone="no"?><!DOCTYPE svg PUBLIC "-//W3C//DTD SVG 1.1//EN" "http://www.w3.org/Graphics/SVG/1.1/DTD/svg11.dtd"><svg width="100%" height="100%" viewBox="0 0 297 297" version="1.1" xmlns="http://www.w3.org/2000/svg" xmlns:xlink="http://www.w3.org/1999/xlink" xml:space="preserve" xmlns:serif="http://www.serif.com/" style="fill-rule:evenodd;clip-rule:evenodd;stroke-linejoin:round;stroke-miterlimit:1.41421;"><path d="M296.844,148.425c0,81.969 -66.45,148.425 -148.419,148.425c-81.969,0 -148.425,-66.456 -148.425,-148.425c0,-81.969 66.456,-148.425 148.425,-148.425c81.969,0 148.419,66.456 148.419,148.425" style="fill:#fff;fill-rule:nonzero;"/><path d="M220.696,188.318l-38.268,-44.282l38.268,-38.268l0,82.55Zm-144.837,1.418l39.675,-45.912l10.069,10.062c6.456,6.463 14.987,9.694 23.487,9.694c8.494,0 17.025,-3.231 23.488,-9.694l8.825,-8.825l38.612,44.675l-144.156,0Zm-0.519,-85.612l0.5,0l38.675,38.675l-39.175,45.331l0,-84.006Zm138.838,0l-45.682,45.681c-5.337,5.338 -12.356,8 -19.406,8.006c-7.05,-0.006 -14.075,-2.668 -19.412,-8.006l-45.675,-45.681l130.175,0Zm5.768,-5.769l-141.712,0l-8.169,0l-0.5,0l0,97.15l156.9,0l0,-2.887l0,-92.619l0,-1.644l-6.519,0Z" style="fill:#074241;fill-rule:nonzero;"/></svg>