<svg xmlns="http://www.w3.org/2000/svg" width="47" height="47" viewBox="0 0 47 47">
  <g id="Group_4544" data-name="Group 4544" transform="translate(-7958 67.5)">
    <path id="path" d="M12,4,10.6,5.4,16.2,11H4v2H16.2l-5.6,5.6L12,20l8-8Z" transform="translate(7985 -56)" fill="#fff" fill-rule="evenodd"/>
    <path id="path-2" data-name="path" d="M12,4l1.4,1.4L7.8,11H20v2H7.8l5.6,5.6L12,20,4,12Z" transform="translate(7954 -56)" fill="#fff" fill-rule="evenodd"/>
    <path id="path-3" data-name="path" d="M12,4,10.6,5.4,16.2,11H4v2H16.2l-5.6,5.6L12,20l8-8Z" transform="translate(7993.5 -40.5) rotate(90)" fill="#fff" fill-rule="evenodd"/>
    <path id="path-4" data-name="path" d="M12,4l1.4,1.4L7.8,11H20v2H7.8l5.6,5.6L12,20,4,12Z" transform="translate(7993.5 -71.5) rotate(90)" fill="#fff" fill-rule="evenodd"/>
  </g>
</svg>
