<svg xmlns="http://www.w3.org/2000/svg" width="214.5" height="35.3" viewBox="0 0 214.5 35.3"><path d="M34.2,32.3c.1,0,.1,0,.2-.1V32a.349.349,0,0,0-.2-.1H34v.3h.2Zm-.3.3v.7h-.4V31.5h.6c.2,0,.3.1.4.1a.5.5,0,0,1,0,.8.1.1,0,0,0-.1.1l.5.8h-.4l-.5-.7Zm.3,1.2a1.3,1.3,0,1,0-1.3-1.3,1.324,1.324,0,0,0,1.3,1.3m0-2.9a1.6,1.6,0,1,1-1.6,1.6,1.58,1.58,0,0,1,1.6-1.6" fill="#fff"/><path d="M18.6,0h-1A17.647,17.647,0,0,0,0,17.7a17.416,17.416,0,0,0,3.1,10A174,174,0,0,1,18.6,0" fill="#fff"/><path d="M14,25c8-4,18-5.8,21.2-6.3,0-.4.1-.7.1-1.1A17.688,17.688,0,0,0,26.5,2.3,163.618,163.618,0,0,0,14,25" fill="#fff"/><path d="M11.3,31H6.1a17.636,17.636,0,0,0,28.5-8.5C18.1,25.3,11.3,31,11.3,31" fill="#fff"/><path d="M47.5,8.1V25.5H58.2v-3H50.9V8.1Z" fill="#fff"/><path d="M67.6,17.9a2.4,2.4,0,0,0-2.4-2.1,2.694,2.694,0,0,0-2.6,2.1Zm3,5.7a6.6,6.6,0,0,1-4.9,2.2,6.037,6.037,0,0,1-6.3-6.3c0-3.3,2.3-6.3,5.8-6.3,3.3,0,5.7,2.8,5.7,6.2a2.769,2.769,0,0,1-.1.9H62.5a3.167,3.167,0,0,0,3.2,2.9,4.067,4.067,0,0,0,3-1.4Z" fill="#fff"/><path d="M81.7,17.7a3.692,3.692,0,0,0-3-1.5,3.159,3.159,0,0,0-3.1,3.3,3.183,3.183,0,0,0,3.2,3.3,3.5,3.5,0,0,0,2.9-1.5Zm3.2,7.8H81.8v-1a5.163,5.163,0,0,1-3.3,1.2,5.946,5.946,0,0,1-4.5-2,6.713,6.713,0,0,1-1.5-4.2,6.07,6.07,0,0,1,5.9-6.3,5.13,5.13,0,0,1,3.5,1.2v-1H85V25.5Z" fill="#fff"/><path d="M88,21.8A5.318,5.318,0,0,0,91.3,23c.9,0,1.5-.4,1.5-1,0-1.8-5.8-1.2-5.8-5,0-2.3,2.2-3.7,4.6-3.7a7.668,7.668,0,0,1,4.1,1.2l-1.5,2.3a4.23,4.23,0,0,0-2.3-.8c-.9,0-1.6.3-1.6,1,0,1.6,5.8.9,5.8,5.1,0,2.3-2.2,3.7-4.8,3.7a8.373,8.373,0,0,1-4.8-1.6Z" fill="#fff"/><path d="M100.8,25.5H97.6v-12h3.2ZM99.2,7.1a2.051,2.051,0,0,1,2.1,2.1,2.1,2.1,0,1,1-4.2,0,2.051,2.051,0,0,1,2.1-2.1" fill="#fff"/><path d="M102.5,25.5v-12h3.1v1a5.607,5.607,0,0,1,3.4-1.2,5.383,5.383,0,0,1,4.2,1.9,6.022,6.022,0,0,1,1.2,4.2v6.1h-3.2V19.1a3.3,3.3,0,0,0-.7-2.3,2.666,2.666,0,0,0-1.8-.7,3.7,3.7,0,0,0-2.9,1.5v7.8h-3.3Z" fill="#fff"/><path d="M125.2,17.7a3.692,3.692,0,0,0-3-1.5,3.159,3.159,0,0,0-3.1,3.3,3.183,3.183,0,0,0,3.2,3.3,3.5,3.5,0,0,0,2.9-1.5Zm3.2,7.1a7.622,7.622,0,0,1-1.1,4.5,6.39,6.39,0,0,1-5.3,2.4,7.853,7.853,0,0,1-5.8-2.5l2-2.1a4.8,4.8,0,0,0,3.7,1.7,3.174,3.174,0,0,0,2.5-1c.5-.5.7-1.3.7-2.8v-.4a5.386,5.386,0,0,1-3.2,1.1,6.334,6.334,0,0,1-4.6-2,6.713,6.713,0,0,1-1.5-4.2,6.07,6.07,0,0,1,5.9-6.3,5.13,5.13,0,0,1,3.5,1.2v-1h3.1V24.8Z" fill="#fff"/><path d="M139.8,23.4a6.267,6.267,0,0,0,6.2-6.6,6.212,6.212,0,1,0-12.4,0c0,3.8,2.6,6.6,6.2,6.6m0-15.5a8.689,8.689,0,0,1,8.7,8.9,8.7,8.7,0,1,1-17.4,0,8.629,8.629,0,0,1,8.7-8.9" fill="#fff"/><path d="M152.8,21.8a3.989,3.989,0,0,0,3.2,1.7,3.821,3.821,0,0,0,3.9-3.8,3.712,3.712,0,0,0-3.7-3.8,4.021,4.021,0,0,0-3.3,1.7v4.2Zm0,9.6h-2.4V13.8h2.3v1.1a5.509,5.509,0,0,1,3.6-1.3,5.783,5.783,0,0,1,2.8.7,6.182,6.182,0,0,1,0,10.6,5.736,5.736,0,0,1-2.9.8,4.752,4.752,0,0,1-3.5-1.3v7Z" fill="#fff"/><path d="M171.9,25.5a8.969,8.969,0,0,1-1.8.2,4.081,4.081,0,0,1-3.3-1.4,4.414,4.414,0,0,1-.9-3.1V15.9h-3V13.8h3V10.6h2.4v3.2H172v2.1h-3.7v5.5a2.392,2.392,0,0,0,.3,1.5,2.111,2.111,0,0,0,1.6.6c.3,0,.9-.1,1.3-.1Z" fill="#fff"/><path d="M173.6,13.8H176V25.5h-2.4Zm1.2-5.7a1.58,1.58,0,0,1,1.6,1.6,1.5,1.5,0,0,1-1.6,1.5,1.473,1.473,0,0,1-1.5-1.5,1.444,1.444,0,0,1,1.5-1.6" fill="#fff"/><path d="M184.2,23.5a3.653,3.653,0,0,0,3.7-3.8,3.7,3.7,0,1,0-7.4,0,3.714,3.714,0,0,0,3.7,3.8m0-9.9a5.917,5.917,0,0,1,6,6.1,6,6,0,1,1-12,0,5.917,5.917,0,0,1,6-6.1" fill="#fff"/><path d="M194.7,14.9a4.972,4.972,0,0,1,3.5-1.4,5.257,5.257,0,0,1,4.2,2.1,6.287,6.287,0,0,1,1.1,4.1v5.7h-2.4V19.6a3.976,3.976,0,0,0-.7-2.7,2.9,2.9,0,0,0-2.4-1.1,4.144,4.144,0,0,0-3.3,1.7v8h-2.4V13.8h2.3v1.1Z" fill="#fff"/><path d="M206.7,22.4a6.031,6.031,0,0,0,3.4,1.3c1,0,2-.5,2-1.5,0-1.3-1.9-1.4-3.6-2-1.4-.5-2.7-1.4-2.7-3,0-2.5,2.2-3.6,4.3-3.6a5.9,5.9,0,0,1,3.9,1.3l-1.2,1.7a4.474,4.474,0,0,0-2.5-.9c-1.1,0-2.1.5-2.1,1.5,0,.8.9,1.1,2.1,1.4,1.8.5,4.2,1.3,4.2,3.7,0,2.2-2.1,3.6-4.3,3.6a7.412,7.412,0,0,1-4.7-1.6Z" fill="#fff"/></svg>