<svg xmlns="http://www.w3.org/2000/svg" viewBox="0 0 392.5 163.6"><path d="M50.4 57.3l108.5-2.2L302 60l-38.5-39.9S244.3 0 219.9 0h-95.2c-22.9 0-40.8 20.1-40.8 20.1L50.4 57.3z" fill="#d61e29"/><path d="M175.4 55.1L279.3 57s-28.4-31.7-33.8-35.6c-6.2-5.4-17.1-9.8-25.3-9.8h-44.8v43.5z" fill="#fcc3ca"/><path fill="#f69ea6" d="M175.4 55.1l63.2 1-63.2-44.6"/><path d="M161.4 55.1L74 57s28.4-31.7 33.8-35.6c6.2-5.4 17.1-9.8 25.3-9.8h25.3l3 43.5z" fill="#fcc3ca"/><path fill="#f69ea6" d="M161.4 55.1l-46.7 1 43.6-44.6"/><path d="M8.4 73c0-11 7.2-19.9 16.2-19.9h76.3l195.5 4.3h.2s32.5 6 58 14.1c1.8.6 9.7 4 17.3 11.2 4.7 4.7 9.4 11.5 9.4 19.7V135l-33.7-.8H8.3V73z" fill="#e7352e"/><path d="M343 127.3c0-2.4 1.6-4.3 3.5-4.3h21.7l6 .9s7 1.3 12.5 3c.4.1 2.1.9 3.7 2.4 1 1 2 2.5 2 4.2v7l-7.3-.2h-42.4v-13zM57 127.3c0-2.4-1.6-4.3-3.5-4.3H24.4l-6 .9s-7 1.3-12.5 3c-.4.1-2.1.9-3.7 2.4-1 1-2 2.5-2 4.2v7l7.3-.2h49.7v-13z" fill="#dd2a2a"/><path fill="#d61e29" d="M172.9 54.7h-1.7v82.4h1.7zM75.8 53.4s-.2 1.6-.6 4.1c-1.1 7.6-3.4 23.8-4.1 31.1l-.8-.1.7-.4c6.2 9 10 21.2 12.3 31.2 2.3 9.9 3 17.7 3 17.7l-1.7.1s0-.5-.1-1.3c-.4-3-1.5-10.9-3.8-19.9-2.3-9-5.9-19.2-11.1-26.9l-.2-.2v-.3c1-9.7 4.7-35.3 4.7-35.3h1.6l.1.2zM204.3 64.9h-22.5v7.5h22.5zM113.7 64.9H91.2v7.5h22.5zM276.4 55.4l4 .6s2.5 1.5.9 3.5c-1 1.2-6.3 1.8-6.3 1.8l1.4-5.9z"/><path d="M276.8 61.4s1.4.2 1.2-3.3c-.2-3.5-.4-5.6-1.8-6.7-1.5-1.2-20.1-.5-22.1.8-1.9 1.3 1.4 5.9 6.7 8.7 5.4 2.8 13.1 1.8 16 .5z" fill="#d61e29"/><path d="M253.8 54.4c-.4-.9-.3-1.7.3-2.1 1.9-1.3 20.6-2 22.1-.8 1 .8 1.4 2.1 1.6 4.1-8 .1-16-.8-24-1.2z" fill="#e7352e"/><path d="M381.3 121.2c3.2 0 5.8-2.6 5.8-5.8v-8.1c0-.3 0-.6-.1-.9h-5.7v14.8z" fill="#f69ea6"/><path d="M387.1 106.4c-.4-2.8-2.8-4.9-5.7-4.9v4.9h5.7z" fill="#fcc3ca"/><path d="M296.1 84.3h11.7c1.6 0 2.9-1.3 2.9-2.9 0-1.6-1.3-2.9-2.9-2.9h-11.7c-1.6 0-2.9 1.3-2.9 2.9 0 1.6 1.3 2.9 2.9 2.9z" fill="#e7352e"/><path d="M303.8 78.5h4.4c1.6 0 2.9 1.3 2.9 2.9 0 1.6-1.3 2.9-2.9 2.9h-4.4v-5.8z" fill="#d61e29"/><path d="M11.4 91.4l4.5 4.5c.3.3.5.8.5 1.3V111c0 1-.8 1.8-1.8 1.8h-4.5c-1 0-1.8-.8-1.8-1.8V92.6c.1-1.5 2-2.3 3.1-1.2z" fill="#f69ea6"/><path d="M8.4 98.3v-5.5c0-1.6 1.9-2.4 3-1.3l4.5 4.5c.3.3.5.8.5 1.3v1h-8z" fill="#fcc3ca"/><path fill="#dd2a2a" d="M279.8 123H97.5v16.8h182.3z"/><circle cx="-37.4" cy="76.8" r="6.3" transform="scale(-1 1)" fill="#d61e29"/><g><path d="M55.5 156.1c-16.3-12.3-19.5-35.5-7.2-51.8 12.3-16.3 35.5-19.5 51.8-7.2 16.3 12.3 19.5 35.5 7.2 51.8-12.3 16.3-35.5 19.5-51.8 7.2z" fill="#d61e29"/><path d="M101.9 138.2c-6.4 13.4-22.5 19-35.8 12.5l23.3-48.4c13.3 6.5 19 22.6 12.5 35.9z" fill="#e7352e"/><path d="M89.4 102.4l-23.3 48.4c-13.4-6.4-19-22.5-12.5-35.8C60 101.6 76 96 89.4 102.4z" fill="#dd2a2a"/><g fill="#fcc3ca"><path d="M87.6 121.8c-.1-.2-.2-.5-.4-.7-1.4-2.6 1.2-6.4 2.2-8.8.7-1.6 1.4-3.3 2.2-4.9 6.3 4.1 9.9 11.2 9.9 18.4-1.8-.3-3.5-.5-5.3-.9-2.6-.4-7.3-.4-8.6-3.1zM75.9 115.8c-.2 0-.4.1-.6.1-3 .6-5.8-3.1-7.8-4.8-1.4-1.2-2.7-2.4-4-3.6 5.7-4.6 13.4-6.1 20.6-3.7-.8 1.6-1.6 3.2-2.5 4.8-1.2 2.3-2.6 6.9-5.7 7.2zM58.2 113.5l3.8 3.8c1.8 1.9 5.6 4.6 5.1 7.5 0 .2-.1.5-.1.7-.2 3.1-4.7 4.7-7 6.1-1.5.9-3.1 1.8-4.6 2.7-2.1-5.4-2-11.7.7-17.3.7-1.3 1.4-2.4 2.1-3.5zM59.2 141c2.1 2.9 4.9 5.3 8.3 6.9 3.4 1.6 7 2.3 10.6 2.2-.3-1.8-.7-3.5-1.1-5.2-.6-2.6-.7-7.4-3.6-8.5-.1 0-.2-.1-.2-.1-.1 0-.1-.1-.2-.1-2.7-1.5-6.5 1.3-8.9 2.5-1.7.6-3.3 1.4-4.9 2.3zM85.2 134.3l.4-.4c2-2.3 6.6-1 9.2-.8 1.8.2 3.6.4 5.3.6-.3 1.3-.8 2.5-1.4 3.7-2.7 5.6-7.5 9.6-13.1 11.4-.3-1.8-.6-3.5-.8-5.3-.3-2.6-1.9-7.2.4-9.2z"/></g><path d="M84.2 129.7c-1.7 3.6-6 5.1-9.6 3.4l6.3-13c3.6 1.7 5.1 6 3.3 9.6z" fill="#f69ea6"/><path d="M80.9 120.1l-6.3 13c-3.6-1.7-5.1-6-3.4-9.6 1.8-3.6 6.1-5.2 9.7-3.4z" fill="#ea8d91"/><g fill="#fcc3ca" transform="matrix(-1 0 0 1 392.6 0)"><circle transform="rotate(-23.865 311.147 126.83)" cx="311.1" cy="126.8" r="1.2"/><circle transform="rotate(-23.87 313.875 130.193)" cx="313.9" cy="130.2" r="1.2"/><circle transform="rotate(-23.85 317.504 124.02)" cx="317.5" cy="124" r="1.2"/><path d="M312.1 123.8c.3.6 1 .9 1.6.6l-1.1-2.2c-.5.3-.7 1-.5 1.6zM314.4 122.8c-.3-.6-1-.9-1.6-.6l1.1 2.2c.5-.3.8-1 .5-1.6z"/><circle transform="rotate(-23.85 318.245 128.304)" cx="318.2" cy="128.3" r="1.2"/></g><path stroke-miterlimit="10" d="M60.5 151.4c1.3.9 2.7 1.7 4.1 2.4.4.2.7.3 1.1.5M51.4 141.5c1.6 2.8 3.7 5.4 6.2 7.7M47.4 126.9c.1 3.5.7 6.9 1.9 10.1M62.8 100c-.6.4-1.3.8-1.9 1.2M78.5 96c-4.3-.1-8.6.8-12.5 2.4" opacity=".2" fill="none" stroke="#fff" stroke-width="1.17" stroke-linecap="round" stroke-linejoin="round"/></g><g><path d="M288.7 156.1c-16.3-12.3-19.5-35.5-7.2-51.8 12.4-16.3 35.6-19.5 51.9-7.2 16.3 12.3 19.5 35.5 7.2 51.8-12.4 16.3-35.6 19.5-51.9 7.2z" fill="#d61e29"/><path d="M335.1 138.2c-6.4 13.4-22.5 19-35.8 12.5l23.3-48.3c13.3 6.4 19 22.5 12.5 35.8z" fill="#e7352e"/><path d="M322.6 102.4l-23.3 48.4c-13.4-6.4-19-22.5-12.5-35.8 6.4-13.4 22.4-19 35.8-12.6z" fill="#dd2a2a"/><g fill="#fcc3ca"><path d="M320.8 121.8c-.1-.2-.2-.5-.4-.7-1.4-2.6 1.2-6.4 2.2-8.8.7-1.6 1.4-3.3 2.2-4.9 6.3 4.1 9.9 11.2 9.9 18.4-1.8-.3-3.5-.5-5.3-.9-2.6-.4-7.3-.4-8.6-3.1zM309.1 115.8c-.2 0-.4.1-.6.1-3 .6-5.8-3.1-7.8-4.8-1.4-1.2-2.7-2.4-4-3.6 5.7-4.6 13.4-6.1 20.6-3.7-.8 1.6-1.6 3.2-2.5 4.8-1.2 2.3-2.6 6.9-5.7 7.2zM291.4 113.5l3.8 3.8c1.8 1.9 5.6 4.6 5.1 7.5 0 .2-.1.5-.1.7-.2 3.1-4.7 4.7-7 6.1-1.5.9-3.1 1.8-4.6 2.7-2.1-5.4-2-11.7.7-17.3.7-1.3 1.4-2.4 2.1-3.5zM292.4 141c2.1 2.9 4.9 5.3 8.3 6.9 3.4 1.6 7 2.3 10.6 2.2-.3-1.8-.7-3.5-1.1-5.2-.6-2.6-.7-7.4-3.6-8.5-.1 0-.2-.1-.2-.1-.1 0-.1-.1-.2-.1-2.7-1.5-6.5 1.3-8.9 2.5-1.7.6-3.3 1.4-4.9 2.3zM318.4 134.3l.4-.4c2-2.3 6.6-1 9.2-.8 1.8.2 3.6.4 5.3.6-.3 1.3-.8 2.5-1.4 3.7-2.7 5.6-7.5 9.6-13.1 11.4-.3-1.8-.6-3.5-.8-5.3-.3-2.6-1.9-7.2.4-9.2z"/></g><path d="M317.4 129.7c-1.7 3.6-6 5.1-9.6 3.4l6.3-13c3.6 1.7 5.1 6 3.3 9.6z" fill="#f69ea6"/><path d="M314.1 120.1l-6.3 13c-3.6-1.7-5.1-6-3.4-9.6 1.8-3.6 6.1-5.2 9.7-3.4z" fill="#ea8d91"/><g fill="#fcc3ca" transform="matrix(-1 0 0 1 392.6 0)"><circle transform="rotate(-23.865 77.917 126.838)" cx="77.9" cy="126.8" r="1.2"/><circle transform="rotate(-23.87 80.696 130.19)" cx="80.7" cy="130.2" r="1.2"/><circle transform="rotate(-23.85 84.29 124.01)" cx="84.3" cy="124" r="1.2"/><path d="M78.9 123.8c.3.6 1 .9 1.6.6l-1.1-2.2c-.5.3-.7 1-.5 1.6zM81.2 122.8c-.3-.6-1-.9-1.6-.6l1.1 2.2c.5-.3.8-1 .5-1.6z"/><circle transform="rotate(-23.85 85.038 128.29)" cx="85" cy="128.3" r="1.2"/></g><path stroke-miterlimit="10" d="M293.7 151.4c1.3.9 2.7 1.7 4.1 2.4.4.2.7.3 1.1.5M284.6 141.5c1.6 2.8 3.7 5.4 6.2 7.7M280.6 126.9c.1 3.5.7 6.9 1.9 10.1M296 100c-.6.4-1.3.8-1.9 1.2M311.7 96c-4.3-.1-8.6.8-12.5 2.4" opacity=".2" fill="none" stroke="#fff" stroke-width="1.17" stroke-linecap="round" stroke-linejoin="round"/></g></svg>