<svg xmlns="http://www.w3.org/2000/svg" viewBox="0 0 100.7 315.4"><path fill="#DD2A2A" d="M79.4 89.2H9.8c-5.4 0-9.8-4.4-9.8-9.8V9.8C0 4.4 4.4 0 9.8 0h69.5c5.4 0 9.8 4.4 9.8 9.8v69.5c.1 5.5-4.3 9.9-9.7 9.9z"/><path fill="#FFF" d="M8.1 75.2V14c0-3.2 2.6-5.8 5.8-5.8h61.2c3.2 0 5.8 2.6 5.8 5.8v61.2c0 3.2-2.6 5.8-5.8 5.8H14c-3.2.1-5.9-2.5-5.9-5.8z"/><path opacity=".3" fill="#FCC3CA" d="M69.2 81.1H20.1c-6.6 0-11.9-5.3-11.9-11.9V20.1l61 61z"/><g><path fill="#DD2A2A" d="M79.4 202.4H9.8c-5.4 0-9.8-4.4-9.8-9.8V123c0-5.4 4.4-9.8 9.8-9.8h69.5c5.4 0 9.8 4.4 9.8 9.8v69.5c.1 5.5-4.3 9.9-9.7 9.9z"/><path fill="#FFF" d="M8.1 188.4v-61.2c0-3.2 2.6-5.8 5.8-5.8h61.2c3.2 0 5.8 2.6 5.8 5.8v61.2c0 3.2-2.6 5.8-5.8 5.8H14c-3.2.1-5.9-2.6-5.9-5.8z"/><path opacity=".3" fill="#FCC3CA" d="M69.2 194.3H20.1c-6.6 0-11.9-5.3-11.9-11.9v-49.1l61 61z"/><g><path fill="#DD2A2A" d="M79.4 315.4H9.8c-5.4 0-9.8-4.4-9.8-9.8V236c0-5.4 4.4-9.8 9.8-9.8h69.5c5.4 0 9.8 4.4 9.8 9.8v69.5c.1 5.5-4.3 9.9-9.7 9.9z"/><path fill="#FFF" d="M8.1 301.4v-61.2c0-3.2 2.6-5.8 5.8-5.8h61.2c3.2 0 5.8 2.6 5.8 5.8v61.2c0 3.2-2.6 5.8-5.8 5.8H14c-3.2.1-5.9-2.6-5.9-5.8z"/><path opacity=".3" fill="#FCC3CA" d="M69.2 307.3H20.1c-6.6 0-11.9-5.3-11.9-11.9v-49.1l61 61z"/></g></g><g><path fill="#2BA652" d="M20.8 26.1c0-.1.1-.2.1-.3.7-1.9 2.7-2.6 4.4-1.4 1.3.9 2.5 1.9 3.7 2.8 5.6 4.2 11.2 8.5 16.9 12.7.2.1.4.3.6.5.2-.1.4-.2.6-.4C63.4 29.2 79.6 18.4 95.8 7.6c.5-.4 1.1-.6 1.7-.9h1.1c1.1.4 1.9 1.1 2.3 2.3v1.1c-.6.8-1 1.6-1.7 2.3-16.9 17.7-33.6 35.3-50.4 53-.5.5-1.2.8-1.9 1.2H46c-1.2-.4-1.8-1.2-2.4-2.2-5.5-9-11.1-18-16.6-27-2.1-3.4-4.1-6.8-6.2-10.2v-1.1z"/></g></svg>