<svg xmlns="http://www.w3.org/2000/svg" viewBox="0 0 735.1 355.53"><title>van</title><path d="M721.36 228.44s-12-37.79-37.79-51.53l-72.14-34.35-61.85-92.75S522.1 5.15 467.13 0H97.71C59.58 0 25.58 25.24 15.79 62.1q-.19.71-.37 1.43v159.76a23 23 0 0 1-7.71 17.16 23 23 0 0 0-7.67 18.5c.17 2.92.46 6.27 1 9.88h87.7a65.21 65.21 0 0 1 94.09 0h365.35a65.21 65.21 0 0 1 94.09 0h92.88v-14a23 23 0 0 0-4.39-13.5z" fill="#e7c22e"/><path d="M735.1 268.83v2.76a22.94 22.94 0 0 1-7.45 16.92l-27.19 24.93a23 23 0 0 1-15.51 6H25.72C9.27 305.89 3.18 284.7 1 268.79h734.1z" fill="#d6a91e"/><path d="M15.38 208.1a10.49 10.49 0 0 1-10.49-10.49v-14.6a10.51 10.51 0 0 1 .15-1.7h10.34v26.79z" fill="#f6e09e"/><path d="M5.04 181.31a10.48 10.48 0 0 1 10.34-8.79v8.79H5.04z" fill="#fef4d4"/><path d="M689.13 188.78c5 4.84 6.65 11.17 3.76 14.14s-9.27 1.45-14.24-3.38-6.65-11.16-3.76-14.14 9.27-1.45 14.24 3.38z" fill="#d6a91e"/><path d="M689.13 188.78c5 4.84 6.65 11.17 3.76 14.14s-9.27 1.45-14.24-3.38z" fill="#f6e09e"/><path fill="#d6a91e" d="M439.88 163.9h3.01v93.54h-3.01zM220.75 28.24h3.01v215.68h-3.01zM463.62 172.12h40.71v13.53h-40.71z"/><circle cx="83.44" cy="205.07" r="10.63" fill="#d6a91e"/><rect x="594.74" y="205.78" width="29.41" height="9.77" rx="4.89" ry="4.89" fill="#d6a91e"/><path d="M606.42 205.78h-7.38a4.89 4.89 0 0 0-4.89 4.89 4.89 4.89 0 0 0 4.89 4.89h7.38v-9.77zM576.92 134.79c-4.68 8.9-13.38 14-22.45 13.21l-94.89-1.7c-12.5-1.11-22.14-13-22.14-27.29V60.1c0-15.12 10.75-27.37 24-27.37h45.94c8 0 15.52 4.57 20 12.19l49.37 67.39c5.07 8.79 4.94 13.41.17 22.48z" fill="#f6e09e"/><path d="M527.31 44.91c-4.45-7.61-11.95-12.19-20-12.19h-45.94c-13.26 0-24 12.25-24 27.37v58.93a29.21 29.21 0 0 0 7.64 20l87.29-87.29z" fill="#fef4d4"/><path d="M580.32 140.1l7.2 1.13s4.56 2.68 1.69 6.27c-1.8 2.26-11.35 3.27-11.35 3.27z" fill="#d6a91e"/><path d="M581.04 151.1s2.51.35 2.18-6-.67-10.13-3.3-12.21-36.43-.91-39.92 1.52 2.58 10.69 12.18 15.69 23.61 3.21 28.86 1z" fill="#d6a91e"/><path d="M539.41 138.27c-.65-1.69-.52-3.07.6-3.86 3.48-2.42 37.28-3.61 39.92-1.52 1.87 1.49 2.58 3.85 3 7.37-14.53.39-29.03-1.1-43.52-1.99z" fill="#e7c22e"/><path fill="none" stroke="#fff" stroke-linecap="round" stroke-linejoin="round" stroke-width="3.15" opacity=".2" d="M498.25 44.01h19.47l7.76 10.77"/><path d="M628.04 343.85a57.65 57.65 0 1 0-80.76-11.19 57.63 57.63 0 0 0 80.76 11.19z" fill="#e8b423"/><path d="M555.7 315.97a41.84 41.84 0 0 0 55.88 19.55l-36.33-75.42a41.84 41.84 0 0 0-19.55 55.87z" fill="#d6a91e"/><path d="M575.25 260.1l36.29 75.4a41.84 41.84 0 1 0-36.29-75.4z" fill="#e7c22e"/><path d="M578.07 290.37c.19-.38.38-.76.6-1.12 2.19-4.07-1.83-10-3.4-13.72-1.1-2.57-2.26-5.11-3.44-7.64a34.22 34.22 0 0 0-15.45 28.71c2.76-.41 5.52-.84 8.27-1.33 4-.72 11.36-.62 13.42-4.9zM596.22 281.04q.5.07 1 .18c4.6 1 9.07-4.79 12.12-7.45 2.11-1.84 4.16-3.73 6.21-5.64a34.22 34.22 0 0 0-32.08-5.83c1.24 2.5 2.5 5 3.83 7.46 1.93 3.62 4.13 10.75 8.92 11.28zM623.81 277.47c-2 1.95-4 3.92-5.9 5.93-2.78 2.91-8.69 7.1-8 11.71.06.35.1.7.14 1.06.31 4.82 7.34 7.33 10.87 9.44 2.39 1.43 4.81 2.79 7.24 4.14a34.12 34.12 0 0 0-4.35-32.28zM622.27 320.27a34.25 34.25 0 0 1-29.35 14.13c.53-2.73 1.08-5.47 1.7-8.18.91-4 1.14-11.47 5.62-13.26l.36-.16.35-.18c4.19-2.39 10.16 2.09 13.87 3.87 2.51 1.22 4.99 2.49 7.45 3.78zM581.71 309.81c-.2-.2-.4-.39-.59-.6-3.1-3.65-10.22-1.57-14.3-1.21-2.78.25-5.55.57-8.32.91a34.12 34.12 0 0 0 22.52 23.53c.47-2.74.91-5.49 1.28-8.24.56-4.1 2.98-11.1-.59-14.39zM583.27 302.7a11.24 11.24 0 0 0 15 5.25l-9.75-20.25a11.24 11.24 0 0 0-5.25 15z" fill="#fef4d4"/><path d="M588.52 287.7l9.75 20.25a11.24 11.24 0 1 0-9.75-20.25z" fill="#fef4d4"/><circle cx="1180.96" cy="657.12" r="1.92" transform="rotate(-23.87 35.206 1881.397)" fill="#d6a91e"/><circle cx="1185.33" cy="662.38" r="1.92" transform="rotate(-23.87 39.625 1886.68)" fill="#d6a91e"/><circle cx="1190.92" cy="652.71" r="1.92" transform="rotate(-23.85 44.432 1878.19)" fill="#d6a91e"/><path d="M589.16 293.45a1.92 1.92 0 0 0 2.53 1h.05l-1.66-3.45a1.92 1.92 0 0 0-.92 2.45zM592.67 291.9a1.92 1.92 0 0 0-2.53-1h-.06l1.66 3.45a1.92 1.92 0 0 0 .93-2.45z" fill="#d6a91e"/><circle cx="1192.09" cy="659.39" r="1.92" transform="rotate(-23.85 45.547 1884.856)" fill="#d6a91e"/><path d="M620.22 336.58a47.75 47.75 0 0 1-6.39 3.71q-.85.41-1.7.78M634.46 321.04a47.19 47.19 0 0 1-9.65 11.93M640.67 298.35a47.54 47.54 0 0 1-3 15.78M616.72 256.4q1.52.86 3 1.84M592.27 250.19a47.54 47.54 0 0 1 19.54 3.77" fill="none" stroke="#fff" stroke-linecap="round" stroke-linejoin="round" stroke-width="1.824" opacity=".2"/><path d="M168.58 343.85a57.65 57.65 0 1 0-80.76-11.19 57.63 57.63 0 0 0 80.76 11.19z" fill="#e8b423"/><path d="M96.24 315.97a41.84 41.84 0 0 0 55.84 19.55l-36.3-75.42a41.84 41.84 0 0 0-19.54 55.87z" fill="#d6a91e"/><path d="M115.79 260.1l36.29 75.4a41.84 41.84 0 1 0-36.29-75.4z" fill="#e7c22e"/><path d="M118.58 290.37c.19-.38.38-.76.6-1.12 2.19-4.07-1.83-10-3.4-13.72-1.1-2.57-2.26-5.11-3.44-7.64a34.22 34.22 0 0 0-15.45 28.71c2.76-.41 5.52-.84 8.27-1.33 4.03-.72 11.42-.62 13.42-4.9zM136.76 281.04q.5.07 1 .18c4.6 1 9.07-4.79 12.12-7.45 2.11-1.84 4.16-3.73 6.21-5.64a34.22 34.22 0 0 0-32.08-5.83c1.24 2.5 2.5 5 3.83 7.46 1.93 3.62 4.12 10.75 8.92 11.28zM164.35 277.47c-2 1.95-4 3.92-5.9 5.93-2.78 2.91-8.69 7.1-8 11.71.06.35.1.7.14 1.06.31 4.82 7.34 7.33 10.87 9.44 2.39 1.43 4.81 2.79 7.24 4.14a34.12 34.12 0 0 0-4.35-32.28zM162.81 320.27a34.25 34.25 0 0 1-29.35 14.13c.53-2.73 1.08-5.47 1.7-8.18.91-4 1.14-11.47 5.62-13.26l.36-.16.35-.18c4.19-2.39 10.16 2.09 13.87 3.87 2.51 1.22 4.98 2.49 7.45 3.78zM122.25 309.81c-.2-.2-.4-.39-.59-.6-3.1-3.65-10.22-1.57-14.3-1.21-2.78.25-5.55.57-8.32.91a34.12 34.12 0 0 0 22.54 23.52c.47-2.74.91-5.49 1.28-8.24.54-4.09 2.96-11.09-.61-14.38zM123.81 302.7a11.24 11.24 0 0 0 15 5.25l-9.75-20.25a11.24 11.24 0 0 0-5.25 15z" fill="#fef4d4"/><path d="M129.06 287.7l9.75 20.25a11.24 11.24 0 1 0-9.75-20.25z" fill="#fef4d4"/><circle cx="721.5" cy="657.12" r="1.92" transform="rotate(-23.87 -424.234 1881.377)" fill="#d6a91e"/><circle cx="725.87" cy="662.38" r="1.92" transform="rotate(-23.87 -419.84 1886.656)" fill="#d6a91e"/><circle cx="731.46" cy="652.71" r="1.92" transform="rotate(-23.85 -415.002 1878.184)" fill="#d6a91e"/><path d="M129.7 293.45a1.92 1.92 0 0 0 2.53 1h.05l-1.7-3.5a1.92 1.92 0 0 0-.88 2.5zM133.21 291.9a1.92 1.92 0 0 0-2.53-1h-.06l1.66 3.45a1.92 1.92 0 0 0 .93-2.45z" fill="#d6a91e"/><circle cx="732.63" cy="659.39" r="1.92" transform="rotate(-23.85 -413.864 1884.855)" fill="#d6a91e"/><path d="M160.76 336.58a47.75 47.75 0 0 1-6.39 3.71q-.85.41-1.7.78M175 321.04a47.19 47.19 0 0 1-9.65 11.93M181.21 298.35a47.54 47.54 0 0 1-3 15.78M157.26 256.4q1.52.86 3 1.84M132.81 250.19a47.54 47.54 0 0 1 19.54 3.77" fill="none" stroke="#fff" stroke-linecap="round" stroke-linejoin="round" stroke-width="1.824" opacity=".2"/></svg>